<?xml version="1.0" encoding="utf-8" standalone="no"?>
<!DOCTYPE svg PUBLIC "-//W3C//DTD SVG 1.1//EN"
  "http://www.w3.org/Graphics/SVG/1.1/DTD/svg11.dtd">
<!-- Created with matplotlib (https://matplotlib.org/) -->
<svg height="432pt" version="1.1" viewBox="0 0 432 432" width="432pt" xmlns="http://www.w3.org/2000/svg" xmlns:xlink="http://www.w3.org/1999/xlink">
 <metadata>
  <rdf:RDF xmlns:cc="http://creativecommons.org/ns#" xmlns:dc="http://purl.org/dc/elements/1.1/" xmlns:rdf="http://www.w3.org/1999/02/22-rdf-syntax-ns#">
   <cc:Work>
    <dc:type rdf:resource="http://purl.org/dc/dcmitype/StillImage"/>
    <dc:date>2022-02-01T18:05:19.580835</dc:date>
    <dc:format>image/svg+xml</dc:format>
    <dc:creator>
     <cc:Agent>
      <dc:title>Matplotlib v3.3.1, https://matplotlib.org/</dc:title>
     </cc:Agent>
    </dc:creator>
   </cc:Work>
  </rdf:RDF>
 </metadata>
 <defs>
  <style type="text/css">*{stroke-linecap:butt;stroke-linejoin:round;}</style>
 </defs>
 <g id="figure_1">
  <g id="patch_1">
   <path d="M 0 432 
L 432 432 
L 432 0 
L 0 0 
z
" style="fill:#ffffff;"/>
  </g>
  <g id="axes_1">
   <g id="patch_2">
    <path d="M 55.8 382.86 
L 419.04 382.86 
L 419.04 42.072 
L 55.8 42.072 
z
" style="fill:#eaeaf2;"/>
   </g>
   <g id="matplotlib.axis_1">
    <g id="xtick_1">
     <g id="line2d_1">
      <path clip-path="url(#pb6d998fff5)" d="M 72.310909 382.86 
L 72.310909 42.072 
" style="fill:none;stroke:#ffffff;stroke-linecap:round;"/>
     </g>
     <g id="text_1">
      <!-- 0 -->
      <g style="fill:#262626;" transform="translate(68.811534 400.718281)scale(0.11 -0.11)">
       <defs>
        <path d="M 31.78125 66.40625 
Q 24.171875 66.40625 20.328125 58.90625 
Q 16.5 51.421875 16.5 36.375 
Q 16.5 21.390625 20.328125 13.890625 
Q 24.171875 6.390625 31.78125 6.390625 
Q 39.453125 6.390625 43.28125 13.890625 
Q 47.125 21.390625 47.125 36.375 
Q 47.125 51.421875 43.28125 58.90625 
Q 39.453125 66.40625 31.78125 66.40625 
z
M 31.78125 74.21875 
Q 44.046875 74.21875 50.515625 64.515625 
Q 56.984375 54.828125 56.984375 36.375 
Q 56.984375 17.96875 50.515625 8.265625 
Q 44.046875 -1.421875 31.78125 -1.421875 
Q 19.53125 -1.421875 13.0625 8.265625 
Q 6.59375 17.96875 6.59375 36.375 
Q 6.59375 54.828125 13.0625 64.515625 
Q 19.53125 74.21875 31.78125 74.21875 
z
" id="DejaVuSans-48"/>
       </defs>
       <use xlink:href="#DejaVuSans-48"/>
      </g>
     </g>
    </g>
    <g id="xtick_2">
     <g id="line2d_2">
      <path clip-path="url(#pb6d998fff5)" d="M 127.763165 382.86 
L 127.763165 42.072 
" style="fill:none;stroke:#ffffff;stroke-linecap:round;"/>
     </g>
     <g id="text_2">
      <!-- 20 -->
      <g style="fill:#262626;" transform="translate(120.764415 400.718281)scale(0.11 -0.11)">
       <defs>
        <path d="M 19.1875 8.296875 
L 53.609375 8.296875 
L 53.609375 0 
L 7.328125 0 
L 7.328125 8.296875 
Q 12.9375 14.109375 22.625 23.890625 
Q 32.328125 33.6875 34.8125 36.53125 
Q 39.546875 41.84375 41.421875 45.53125 
Q 43.3125 49.21875 43.3125 52.78125 
Q 43.3125 58.59375 39.234375 62.25 
Q 35.15625 65.921875 28.609375 65.921875 
Q 23.96875 65.921875 18.8125 64.3125 
Q 13.671875 62.703125 7.8125 59.421875 
L 7.8125 69.390625 
Q 13.765625 71.78125 18.9375 73 
Q 24.125 74.21875 28.421875 74.21875 
Q 39.75 74.21875 46.484375 68.546875 
Q 53.21875 62.890625 53.21875 53.421875 
Q 53.21875 48.921875 51.53125 44.890625 
Q 49.859375 40.875 45.40625 35.40625 
Q 44.1875 33.984375 37.640625 27.21875 
Q 31.109375 20.453125 19.1875 8.296875 
z
" id="DejaVuSans-50"/>
       </defs>
       <use xlink:href="#DejaVuSans-50"/>
       <use x="63.623047" xlink:href="#DejaVuSans-48"/>
      </g>
     </g>
    </g>
    <g id="xtick_3">
     <g id="line2d_3">
      <path clip-path="url(#pb6d998fff5)" d="M 183.21542 382.86 
L 183.21542 42.072 
" style="fill:none;stroke:#ffffff;stroke-linecap:round;"/>
     </g>
     <g id="text_3">
      <!-- 40 -->
      <g style="fill:#262626;" transform="translate(176.21667 400.718281)scale(0.11 -0.11)">
       <defs>
        <path d="M 37.796875 64.3125 
L 12.890625 25.390625 
L 37.796875 25.390625 
z
M 35.203125 72.90625 
L 47.609375 72.90625 
L 47.609375 25.390625 
L 58.015625 25.390625 
L 58.015625 17.1875 
L 47.609375 17.1875 
L 47.609375 0 
L 37.796875 0 
L 37.796875 17.1875 
L 4.890625 17.1875 
L 4.890625 26.703125 
z
" id="DejaVuSans-52"/>
       </defs>
       <use xlink:href="#DejaVuSans-52"/>
       <use x="63.623047" xlink:href="#DejaVuSans-48"/>
      </g>
     </g>
    </g>
    <g id="xtick_4">
     <g id="line2d_4">
      <path clip-path="url(#pb6d998fff5)" d="M 238.667676 382.86 
L 238.667676 42.072 
" style="fill:none;stroke:#ffffff;stroke-linecap:round;"/>
     </g>
     <g id="text_4">
      <!-- 60 -->
      <g style="fill:#262626;" transform="translate(231.668926 400.718281)scale(0.11 -0.11)">
       <defs>
        <path d="M 33.015625 40.375 
Q 26.375 40.375 22.484375 35.828125 
Q 18.609375 31.296875 18.609375 23.390625 
Q 18.609375 15.53125 22.484375 10.953125 
Q 26.375 6.390625 33.015625 6.390625 
Q 39.65625 6.390625 43.53125 10.953125 
Q 47.40625 15.53125 47.40625 23.390625 
Q 47.40625 31.296875 43.53125 35.828125 
Q 39.65625 40.375 33.015625 40.375 
z
M 52.59375 71.296875 
L 52.59375 62.3125 
Q 48.875 64.0625 45.09375 64.984375 
Q 41.3125 65.921875 37.59375 65.921875 
Q 27.828125 65.921875 22.671875 59.328125 
Q 17.53125 52.734375 16.796875 39.40625 
Q 19.671875 43.65625 24.015625 45.921875 
Q 28.375 48.1875 33.59375 48.1875 
Q 44.578125 48.1875 50.953125 41.515625 
Q 57.328125 34.859375 57.328125 23.390625 
Q 57.328125 12.15625 50.6875 5.359375 
Q 44.046875 -1.421875 33.015625 -1.421875 
Q 20.359375 -1.421875 13.671875 8.265625 
Q 6.984375 17.96875 6.984375 36.375 
Q 6.984375 53.65625 15.1875 63.9375 
Q 23.390625 74.21875 37.203125 74.21875 
Q 40.921875 74.21875 44.703125 73.484375 
Q 48.484375 72.75 52.59375 71.296875 
z
" id="DejaVuSans-54"/>
       </defs>
       <use xlink:href="#DejaVuSans-54"/>
       <use x="63.623047" xlink:href="#DejaVuSans-48"/>
      </g>
     </g>
    </g>
    <g id="xtick_5">
     <g id="line2d_5">
      <path clip-path="url(#pb6d998fff5)" d="M 294.119931 382.86 
L 294.119931 42.072 
" style="fill:none;stroke:#ffffff;stroke-linecap:round;"/>
     </g>
     <g id="text_5">
      <!-- 80 -->
      <g style="fill:#262626;" transform="translate(287.121181 400.718281)scale(0.11 -0.11)">
       <defs>
        <path d="M 31.78125 34.625 
Q 24.75 34.625 20.71875 30.859375 
Q 16.703125 27.09375 16.703125 20.515625 
Q 16.703125 13.921875 20.71875 10.15625 
Q 24.75 6.390625 31.78125 6.390625 
Q 38.8125 6.390625 42.859375 10.171875 
Q 46.921875 13.96875 46.921875 20.515625 
Q 46.921875 27.09375 42.890625 30.859375 
Q 38.875 34.625 31.78125 34.625 
z
M 21.921875 38.8125 
Q 15.578125 40.375 12.03125 44.71875 
Q 8.5 49.078125 8.5 55.328125 
Q 8.5 64.0625 14.71875 69.140625 
Q 20.953125 74.21875 31.78125 74.21875 
Q 42.671875 74.21875 48.875 69.140625 
Q 55.078125 64.0625 55.078125 55.328125 
Q 55.078125 49.078125 51.53125 44.71875 
Q 48 40.375 41.703125 38.8125 
Q 48.828125 37.15625 52.796875 32.3125 
Q 56.78125 27.484375 56.78125 20.515625 
Q 56.78125 9.90625 50.3125 4.234375 
Q 43.84375 -1.421875 31.78125 -1.421875 
Q 19.734375 -1.421875 13.25 4.234375 
Q 6.78125 9.90625 6.78125 20.515625 
Q 6.78125 27.484375 10.78125 32.3125 
Q 14.796875 37.15625 21.921875 38.8125 
z
M 18.3125 54.390625 
Q 18.3125 48.734375 21.84375 45.5625 
Q 25.390625 42.390625 31.78125 42.390625 
Q 38.140625 42.390625 41.71875 45.5625 
Q 45.3125 48.734375 45.3125 54.390625 
Q 45.3125 60.0625 41.71875 63.234375 
Q 38.140625 66.40625 31.78125 66.40625 
Q 25.390625 66.40625 21.84375 63.234375 
Q 18.3125 60.0625 18.3125 54.390625 
z
" id="DejaVuSans-56"/>
       </defs>
       <use xlink:href="#DejaVuSans-56"/>
       <use x="63.623047" xlink:href="#DejaVuSans-48"/>
      </g>
     </g>
    </g>
    <g id="xtick_6">
     <g id="line2d_6">
      <path clip-path="url(#pb6d998fff5)" d="M 349.572187 382.86 
L 349.572187 42.072 
" style="fill:none;stroke:#ffffff;stroke-linecap:round;"/>
     </g>
     <g id="text_6">
      <!-- 100 -->
      <g style="fill:#262626;" transform="translate(339.074062 400.718281)scale(0.11 -0.11)">
       <defs>
        <path d="M 12.40625 8.296875 
L 28.515625 8.296875 
L 28.515625 63.921875 
L 10.984375 60.40625 
L 10.984375 69.390625 
L 28.421875 72.90625 
L 38.28125 72.90625 
L 38.28125 8.296875 
L 54.390625 8.296875 
L 54.390625 0 
L 12.40625 0 
z
" id="DejaVuSans-49"/>
       </defs>
       <use xlink:href="#DejaVuSans-49"/>
       <use x="63.623047" xlink:href="#DejaVuSans-48"/>
       <use x="127.246094" xlink:href="#DejaVuSans-48"/>
      </g>
     </g>
    </g>
    <g id="xtick_7">
     <g id="line2d_7">
      <path clip-path="url(#pb6d998fff5)" d="M 405.024442 382.86 
L 405.024442 42.072 
" style="fill:none;stroke:#ffffff;stroke-linecap:round;"/>
     </g>
     <g id="text_7">
      <!-- 120 -->
      <g style="fill:#262626;" transform="translate(394.526317 400.718281)scale(0.11 -0.11)">
       <use xlink:href="#DejaVuSans-49"/>
       <use x="63.623047" xlink:href="#DejaVuSans-50"/>
       <use x="127.246094" xlink:href="#DejaVuSans-48"/>
      </g>
     </g>
    </g>
    <g id="text_8">
     <!-- $t$ (s) -->
     <g style="fill:#262626;" transform="translate(225.3 416.124062)scale(0.12 -0.12)">
      <defs>
       <path d="M 42.28125 54.6875 
L 40.921875 47.703125 
L 23 47.703125 
L 17.1875 18.015625 
Q 16.890625 16.359375 16.75 15.234375 
Q 16.609375 14.109375 16.609375 13.484375 
Q 16.609375 10.359375 18.484375 8.9375 
Q 20.359375 7.515625 24.515625 7.515625 
L 33.59375 7.515625 
L 32.078125 0 
L 23.484375 0 
Q 15.484375 0 11.546875 3.125 
Q 7.625 6.25 7.625 12.59375 
Q 7.625 13.71875 7.765625 15.0625 
Q 7.90625 16.40625 8.203125 18.015625 
L 14.015625 47.703125 
L 6.390625 47.703125 
L 7.8125 54.6875 
L 15.28125 54.6875 
L 18.3125 70.21875 
L 27.296875 70.21875 
L 24.3125 54.6875 
z
" id="DejaVuSans-Oblique-116"/>
       <path id="DejaVuSans-32"/>
       <path d="M 31 75.875 
Q 24.46875 64.65625 21.28125 53.65625 
Q 18.109375 42.671875 18.109375 31.390625 
Q 18.109375 20.125 21.3125 9.0625 
Q 24.515625 -2 31 -13.1875 
L 23.1875 -13.1875 
Q 15.875 -1.703125 12.234375 9.375 
Q 8.59375 20.453125 8.59375 31.390625 
Q 8.59375 42.28125 12.203125 53.3125 
Q 15.828125 64.359375 23.1875 75.875 
z
" id="DejaVuSans-40"/>
       <path d="M 44.28125 53.078125 
L 44.28125 44.578125 
Q 40.484375 46.53125 36.375 47.5 
Q 32.28125 48.484375 27.875 48.484375 
Q 21.1875 48.484375 17.84375 46.4375 
Q 14.5 44.390625 14.5 40.28125 
Q 14.5 37.15625 16.890625 35.375 
Q 19.28125 33.59375 26.515625 31.984375 
L 29.59375 31.296875 
Q 39.15625 29.25 43.1875 25.515625 
Q 47.21875 21.78125 47.21875 15.09375 
Q 47.21875 7.46875 41.1875 3.015625 
Q 35.15625 -1.421875 24.609375 -1.421875 
Q 20.21875 -1.421875 15.453125 -0.5625 
Q 10.6875 0.296875 5.421875 2 
L 5.421875 11.28125 
Q 10.40625 8.6875 15.234375 7.390625 
Q 20.0625 6.109375 24.8125 6.109375 
Q 31.15625 6.109375 34.5625 8.28125 
Q 37.984375 10.453125 37.984375 14.40625 
Q 37.984375 18.0625 35.515625 20.015625 
Q 33.0625 21.96875 24.703125 23.78125 
L 21.578125 24.515625 
Q 13.234375 26.265625 9.515625 29.90625 
Q 5.8125 33.546875 5.8125 39.890625 
Q 5.8125 47.609375 11.28125 51.796875 
Q 16.75 56 26.8125 56 
Q 31.78125 56 36.171875 55.265625 
Q 40.578125 54.546875 44.28125 53.078125 
z
" id="DejaVuSans-115"/>
       <path d="M 8.015625 75.875 
L 15.828125 75.875 
Q 23.140625 64.359375 26.78125 53.3125 
Q 30.421875 42.28125 30.421875 31.390625 
Q 30.421875 20.453125 26.78125 9.375 
Q 23.140625 -1.703125 15.828125 -13.1875 
L 8.015625 -13.1875 
Q 14.5 -2 17.703125 9.0625 
Q 20.90625 20.125 20.90625 31.390625 
Q 20.90625 42.671875 17.703125 53.65625 
Q 14.5 64.65625 8.015625 75.875 
z
" id="DejaVuSans-41"/>
      </defs>
      <use transform="translate(0 0.125)" xlink:href="#DejaVuSans-Oblique-116"/>
      <use transform="translate(39.208984 0.125)" xlink:href="#DejaVuSans-32"/>
      <use transform="translate(70.996094 0.125)" xlink:href="#DejaVuSans-40"/>
      <use transform="translate(110.009766 0.125)" xlink:href="#DejaVuSans-115"/>
      <use transform="translate(162.109375 0.125)" xlink:href="#DejaVuSans-41"/>
     </g>
    </g>
   </g>
   <g id="matplotlib.axis_2">
    <g id="ytick_1">
     <g id="line2d_8">
      <path clip-path="url(#pb6d998fff5)" d="M 55.8 367.369636 
L 419.04 367.369636 
" style="fill:none;stroke:#ffffff;stroke-linecap:round;"/>
     </g>
     <g id="text_9">
      <!-- 0.0 -->
      <g style="fill:#262626;" transform="translate(28.806563 371.548777)scale(0.11 -0.11)">
       <defs>
        <path d="M 10.6875 12.40625 
L 21 12.40625 
L 21 0 
L 10.6875 0 
z
" id="DejaVuSans-46"/>
       </defs>
       <use xlink:href="#DejaVuSans-48"/>
       <use x="63.623047" xlink:href="#DejaVuSans-46"/>
       <use x="95.410156" xlink:href="#DejaVuSans-48"/>
      </g>
     </g>
    </g>
    <g id="ytick_2">
     <g id="line2d_9">
      <path clip-path="url(#pb6d998fff5)" d="M 55.8 315.003675 
L 419.04 315.003675 
" style="fill:none;stroke:#ffffff;stroke-linecap:round;"/>
     </g>
     <g id="text_10">
      <!-- 0.2 -->
      <g style="fill:#262626;" transform="translate(28.806563 319.182816)scale(0.11 -0.11)">
       <use xlink:href="#DejaVuSans-48"/>
       <use x="63.623047" xlink:href="#DejaVuSans-46"/>
       <use x="95.410156" xlink:href="#DejaVuSans-50"/>
      </g>
     </g>
    </g>
    <g id="ytick_3">
     <g id="line2d_10">
      <path clip-path="url(#pb6d998fff5)" d="M 55.8 262.637714 
L 419.04 262.637714 
" style="fill:none;stroke:#ffffff;stroke-linecap:round;"/>
     </g>
     <g id="text_11">
      <!-- 0.4 -->
      <g style="fill:#262626;" transform="translate(28.806563 266.816854)scale(0.11 -0.11)">
       <use xlink:href="#DejaVuSans-48"/>
       <use x="63.623047" xlink:href="#DejaVuSans-46"/>
       <use x="95.410156" xlink:href="#DejaVuSans-52"/>
      </g>
     </g>
    </g>
    <g id="ytick_4">
     <g id="line2d_11">
      <path clip-path="url(#pb6d998fff5)" d="M 55.8 210.271752 
L 419.04 210.271752 
" style="fill:none;stroke:#ffffff;stroke-linecap:round;"/>
     </g>
     <g id="text_12">
      <!-- 0.6 -->
      <g style="fill:#262626;" transform="translate(28.806563 214.450893)scale(0.11 -0.11)">
       <use xlink:href="#DejaVuSans-48"/>
       <use x="63.623047" xlink:href="#DejaVuSans-46"/>
       <use x="95.410156" xlink:href="#DejaVuSans-54"/>
      </g>
     </g>
    </g>
    <g id="ytick_5">
     <g id="line2d_12">
      <path clip-path="url(#pb6d998fff5)" d="M 55.8 157.905791 
L 419.04 157.905791 
" style="fill:none;stroke:#ffffff;stroke-linecap:round;"/>
     </g>
     <g id="text_13">
      <!-- 0.8 -->
      <g style="fill:#262626;" transform="translate(28.806563 162.084932)scale(0.11 -0.11)">
       <use xlink:href="#DejaVuSans-48"/>
       <use x="63.623047" xlink:href="#DejaVuSans-46"/>
       <use x="95.410156" xlink:href="#DejaVuSans-56"/>
      </g>
     </g>
    </g>
    <g id="ytick_6">
     <g id="line2d_13">
      <path clip-path="url(#pb6d998fff5)" d="M 55.8 105.53983 
L 419.04 105.53983 
" style="fill:none;stroke:#ffffff;stroke-linecap:round;"/>
     </g>
     <g id="text_14">
      <!-- 1.0 -->
      <g style="fill:#262626;" transform="translate(28.806563 109.718971)scale(0.11 -0.11)">
       <use xlink:href="#DejaVuSans-49"/>
       <use x="63.623047" xlink:href="#DejaVuSans-46"/>
       <use x="95.410156" xlink:href="#DejaVuSans-48"/>
      </g>
     </g>
    </g>
    <g id="ytick_7">
     <g id="line2d_14">
      <path clip-path="url(#pb6d998fff5)" d="M 55.8 53.173869 
L 419.04 53.173869 
" style="fill:none;stroke:#ffffff;stroke-linecap:round;"/>
     </g>
     <g id="text_15">
      <!-- 1.2 -->
      <g style="fill:#262626;" transform="translate(28.806563 57.353009)scale(0.11 -0.11)">
       <use xlink:href="#DejaVuSans-49"/>
       <use x="63.623047" xlink:href="#DejaVuSans-46"/>
       <use x="95.410156" xlink:href="#DejaVuSans-50"/>
      </g>
     </g>
    </g>
    <g id="text_16">
     <!-- APE (m) -->
     <g style="fill:#262626;" transform="translate(22.310938 236.412563)rotate(-90)scale(0.12 -0.12)">
      <defs>
       <path d="M 34.1875 63.1875 
L 20.796875 26.90625 
L 47.609375 26.90625 
z
M 28.609375 72.90625 
L 39.796875 72.90625 
L 67.578125 0 
L 57.328125 0 
L 50.6875 18.703125 
L 17.828125 18.703125 
L 11.1875 0 
L 0.78125 0 
z
" id="DejaVuSans-65"/>
       <path d="M 19.671875 64.796875 
L 19.671875 37.40625 
L 32.078125 37.40625 
Q 38.96875 37.40625 42.71875 40.96875 
Q 46.484375 44.53125 46.484375 51.125 
Q 46.484375 57.671875 42.71875 61.234375 
Q 38.96875 64.796875 32.078125 64.796875 
z
M 9.8125 72.90625 
L 32.078125 72.90625 
Q 44.34375 72.90625 50.609375 67.359375 
Q 56.890625 61.8125 56.890625 51.125 
Q 56.890625 40.328125 50.609375 34.8125 
Q 44.34375 29.296875 32.078125 29.296875 
L 19.671875 29.296875 
L 19.671875 0 
L 9.8125 0 
z
" id="DejaVuSans-80"/>
       <path d="M 9.8125 72.90625 
L 55.90625 72.90625 
L 55.90625 64.59375 
L 19.671875 64.59375 
L 19.671875 43.015625 
L 54.390625 43.015625 
L 54.390625 34.71875 
L 19.671875 34.71875 
L 19.671875 8.296875 
L 56.78125 8.296875 
L 56.78125 0 
L 9.8125 0 
z
" id="DejaVuSans-69"/>
       <path d="M 52 44.1875 
Q 55.375 50.25 60.0625 53.125 
Q 64.75 56 71.09375 56 
Q 79.640625 56 84.28125 50.015625 
Q 88.921875 44.046875 88.921875 33.015625 
L 88.921875 0 
L 79.890625 0 
L 79.890625 32.71875 
Q 79.890625 40.578125 77.09375 44.375 
Q 74.3125 48.1875 68.609375 48.1875 
Q 61.625 48.1875 57.5625 43.546875 
Q 53.515625 38.921875 53.515625 30.90625 
L 53.515625 0 
L 44.484375 0 
L 44.484375 32.71875 
Q 44.484375 40.625 41.703125 44.40625 
Q 38.921875 48.1875 33.109375 48.1875 
Q 26.21875 48.1875 22.15625 43.53125 
Q 18.109375 38.875 18.109375 30.90625 
L 18.109375 0 
L 9.078125 0 
L 9.078125 54.6875 
L 18.109375 54.6875 
L 18.109375 46.1875 
Q 21.1875 51.21875 25.484375 53.609375 
Q 29.78125 56 35.6875 56 
Q 41.65625 56 45.828125 52.96875 
Q 50 49.953125 52 44.1875 
z
" id="DejaVuSans-109"/>
      </defs>
      <use xlink:href="#DejaVuSans-65"/>
      <use x="68.408203" xlink:href="#DejaVuSans-80"/>
      <use x="128.710938" xlink:href="#DejaVuSans-69"/>
      <use x="191.894531" xlink:href="#DejaVuSans-32"/>
      <use x="223.681641" xlink:href="#DejaVuSans-40"/>
      <use x="262.695312" xlink:href="#DejaVuSans-109"/>
      <use x="360.107422" xlink:href="#DejaVuSans-41"/>
     </g>
    </g>
   </g>
   <g id="patch_3">
    <path clip-path="url(#pb6d998fff5)" d="M 55.8 293.853974 
L 55.8 215.748008 
L 419.04 215.748008 
L 419.04 293.853974 
z
" style="fill:#8172b3;opacity:0.5;stroke:#8172b3;stroke-linejoin:miter;"/>
   </g>
   <g id="line2d_15">
    <path clip-path="url(#pb6d998fff5)" d="M 72.310909 367.369636 
L 72.58817 364.729308 
L 72.865432 363.890443 
L 73.142693 364.841883 
L 73.419954 365.188418 
L 73.697215 364.868007 
L 75.083522 359.994487 
L 76.192567 355.355786 
L 76.469828 353.869237 
L 77.024351 351.983939 
L 80.351486 339.698584 
L 80.628747 339.194251 
L 81.18327 337.319509 
L 81.737793 335.065183 
L 82.015054 334.921109 
L 82.292315 333.309863 
L 82.846838 332.156202 
L 83.124099 331.860452 
L 83.40136 331.168233 
L 83.678621 330.045702 
L 83.955883 337.583525 
L 84.233144 353.279426 
L 84.510405 361.094095 
L 84.787667 361.643412 
L 85.064928 358.970576 
L 86.173973 344.003846 
L 86.451234 342.662058 
L 87.005757 342.487268 
L 87.283018 342.560597 
L 87.560279 342.765337 
L 88.392063 343.823929 
L 88.669324 343.864724 
L 88.946586 344.087313 
L 89.223847 344.024453 
L 89.501108 344.369473 
L 89.77837 344.451542 
L 90.055631 344.339701 
L 90.332892 344.040935 
L 91.99646 341.051236 
L 93.660027 338.913528 
L 94.769073 337.715938 
L 95.600856 336.54449 
L 95.878118 336.04579 
L 96.155379 336.071659 
L 96.43264 334.72404 
L 96.709902 334.504979 
L 96.987163 334.138972 
L 97.541685 333.140684 
L 98.096208 332.517951 
L 98.65073 332.160563 
L 98.927992 332.085738 
L 99.205253 334.353046 
L 99.759776 343.249438 
L 100.037037 344.760184 
L 100.314298 345.410165 
L 100.591559 345.692565 
L 101.146082 343.831727 
L 101.423343 343.447736 
L 101.700605 342.020177 
L 101.977866 341.323621 
L 103.086911 334.952327 
L 104.750479 323.314162 
L 105.582262 315.62302 
L 107.523091 295.892714 
L 108.077614 292.170435 
L 108.632136 290.050118 
L 108.909398 289.355099 
L 109.186659 290.875326 
L 109.741182 299.602698 
L 110.295704 310.225906 
L 110.850227 314.845767 
L 111.682011 314.416535 
L 112.236533 314.147304 
L 113.345578 314.191908 
L 114.177362 314.165398 
L 114.454623 314.357382 
L 114.731885 314.361095 
L 115.286407 313.875857 
L 116.672714 311.719882 
L 116.949975 311.046631 
L 117.504497 310.34723 
L 118.05902 309.275884 
L 118.336281 308.655193 
L 118.890804 310.303432 
L 119.168065 310.402588 
L 119.445326 309.822705 
L 119.722588 309.554267 
L 121.386155 309.887779 
L 121.940678 310.115361 
L 122.772462 309.56218 
L 123.326984 309.219132 
L 124.158768 308.215461 
L 124.436029 307.782814 
L 125.267813 305.867739 
L 125.822336 305.858124 
L 126.376858 305.444484 
L 126.931381 304.829309 
L 127.485903 304.691037 
L 128.040426 305.716074 
L 128.594948 305.278235 
L 128.87221 305.31967 
L 129.149471 305.230517 
L 129.426732 305.012362 
L 129.981255 302.881339 
L 130.258516 302.813819 
L 131.644823 301.992137 
L 132.753868 301.747407 
L 133.30839 301.778516 
L 133.862913 301.584687 
L 134.694697 300.841518 
L 135.249219 299.522695 
L 135.52648 298.668489 
L 136.081003 298.112513 
L 136.912787 296.91125 
L 137.467309 297.796749 
L 138.021832 297.525066 
L 138.299093 298.155165 
L 138.576354 297.452452 
L 138.853616 297.47647 
L 139.130877 297.240058 
L 139.408138 296.710376 
L 139.6854 296.701426 
L 139.962661 296.540163 
L 140.517183 295.885722 
L 140.794445 295.692953 
L 141.071706 295.347449 
L 142.180751 293.436464 
L 143.567057 291.690649 
L 143.844319 291.196626 
L 144.676103 290.669705 
L 145.230625 290.642701 
L 146.062409 291.858885 
L 146.894193 292.387786 
L 147.725977 293.358059 
L 148.003238 293.680973 
L 148.55776 292.910355 
L 148.835022 292.854408 
L 149.666806 293.73614 
L 150.221328 294.426503 
L 150.775851 294.944623 
L 151.884896 296.366856 
L 152.439418 297.036533 
L 152.993941 297.599989 
L 154.102986 299.339275 
L 154.380247 299.413914 
L 154.657509 299.254464 
L 154.93477 299.679841 
L 155.212031 299.271386 
L 155.766554 299.728878 
L 156.043815 300.02168 
L 156.321076 300.835692 
L 156.598338 300.498845 
L 156.875599 300.632207 
L 157.15286 301.212268 
L 157.430121 301.44244 
L 157.984644 302.524503 
L 158.539166 302.353608 
L 159.093689 302.555278 
L 161.311779 307.110737 
L 161.866302 307.917581 
L 162.420824 308.768293 
L 162.698086 309.014834 
L 162.975347 309.09303 
L 163.529869 310.234972 
L 164.361653 310.897797 
L 165.193437 312.225017 
L 165.74796 312.829674 
L 166.025221 312.938654 
L 166.857005 311.196453 
L 167.134266 311.21718 
L 167.411527 310.970996 
L 167.688789 310.878893 
L 167.96605 310.935162 
L 168.797834 311.38378 
L 169.075095 312.050616 
L 169.629618 312.784171 
L 170.18414 313.96507 
L 170.461401 313.382383 
L 171.015924 314.532114 
L 171.293185 314.602242 
L 171.570447 315.801601 
L 171.847708 315.2984 
L 172.40223 316.175669 
L 172.679492 316.319419 
L 172.956753 317.346067 
L 173.234014 317.096738 
L 173.788537 318.110273 
L 174.065798 318.466578 
L 174.343059 319.489732 
L 174.620321 319.647459 
L 175.174843 320.978879 
L 175.452104 321.366627 
L 175.729366 322.228936 
L 176.006627 322.324413 
L 176.56115 323.263344 
L 176.838411 323.575548 
L 178.224717 326.598899 
L 178.501978 327.071369 
L 178.77924 328.316885 
L 179.056501 328.682497 
L 179.611024 329.997587 
L 179.888285 329.866592 
L 180.165546 331.413091 
L 180.442807 331.503198 
L 180.720069 332.100673 
L 180.99733 333.280742 
L 181.274591 333.195259 
L 181.551853 333.531419 
L 181.829114 334.34755 
L 182.106375 334.069294 
L 182.383636 334.82211 
L 182.660898 334.583175 
L 182.938159 335.293785 
L 183.21542 335.097514 
L 183.492681 335.187162 
L 183.769943 335.592114 
L 184.047204 335.225937 
L 184.324465 335.723561 
L 184.601727 335.531434 
L 184.878988 335.504351 
L 185.156249 335.678449 
L 185.43351 335.278383 
L 185.710772 335.746248 
L 186.265294 335.768424 
L 186.542556 335.944199 
L 186.819817 335.688319 
L 187.097078 336.354236 
L 187.374339 336.622978 
L 187.928862 336.459408 
L 188.206123 336.58988 
L 188.760646 336.030644 
L 189.037907 335.96828 
L 189.869691 333.982059 
L 190.146952 333.979321 
L 190.424213 333.663391 
L 190.701475 333.083014 
L 190.978736 333.637438 
L 191.255997 332.583985 
L 191.533259 332.659933 
L 191.81052 332.572837 
L 192.087781 332.286392 
L 192.642304 333.385056 
L 192.919565 333.356569 
L 193.196826 333.453766 
L 193.474087 333.679867 
L 193.751349 333.447275 
L 194.02861 333.811933 
L 194.583133 333.612951 
L 194.860394 333.397497 
L 195.137655 332.525786 
L 195.414916 332.635254 
L 196.2467 332.446982 
L 196.523962 332.650185 
L 196.801223 332.482431 
L 197.078484 332.453761 
L 197.355745 332.649526 
L 197.633007 332.995942 
L 197.910268 332.79505 
L 198.187529 332.815758 
L 198.46479 333.090357 
L 198.742052 332.938001 
L 199.019313 332.975071 
L 199.296574 332.717385 
L 199.573836 332.998812 
L 200.128358 332.903756 
L 200.405619 332.70798 
L 200.682881 332.279723 
L 200.960142 332.25113 
L 202.900971 330.519865 
L 203.178232 330.535736 
L 203.455493 330.235326 
L 203.732755 330.426536 
L 204.010016 330.318171 
L 204.287277 329.889302 
L 204.564539 329.966118 
L 204.8418 329.743834 
L 205.119061 329.73292 
L 205.396322 329.440958 
L 205.673584 328.865868 
L 205.950845 328.560115 
L 206.505368 327.503417 
L 207.337151 326.301931 
L 207.891674 325.318978 
L 208.446196 324.923373 
L 209.555242 323.85099 
L 210.109764 322.722016 
L 211.773332 318.758623 
L 212.050593 317.637291 
L 212.327854 317.337327 
L 212.882377 315.237482 
L 213.159638 315.490114 
L 213.436899 313.594946 
L 213.991422 312.302447 
L 214.268683 311.315202 
L 214.545945 311.533417 
L 214.823206 309.926923 
L 215.377728 308.85731 
L 215.65499 308.048351 
L 215.932251 307.709339 
L 216.486774 306.174677 
L 217.318557 303.137536 
L 218.150341 300.279729 
L 218.704864 299.101233 
L 219.813909 297.5474 
L 221.477477 294.451852 
L 222.586522 292.994501 
L 222.863783 292.481521 
L 223.141044 291.689062 
L 223.418305 291.496045 
L 223.695567 290.372434 
L 224.527351 288.628579 
L 224.804612 288.493498 
L 225.636396 286.425432 
L 226.46818 283.723821 
L 227.022702 282.038025 
L 227.577225 279.97163 
L 228.131747 278.454571 
L 229.518054 274.927157 
L 230.072576 272.375249 
L 230.90436 268.816806 
L 231.181621 268.07696 
L 231.736144 265.673546 
L 232.290666 263.8212 
L 232.845189 262.26016 
L 233.12245 261.955857 
L 233.676973 259.970209 
L 234.231495 258.45776 
L 234.508757 258.061608 
L 235.895063 253.369467 
L 236.449586 252.107262 
L 237.004108 250.729797 
L 237.281369 249.327015 
L 237.558631 249.110816 
L 238.667676 245.553101 
L 238.944937 245.910769 
L 239.49946 244.218244 
L 239.776721 243.756981 
L 240.053982 242.21816 
L 240.885766 240.365775 
L 241.71755 237.866243 
L 241.994811 237.674154 
L 242.272072 237.302822 
L 242.549334 236.709435 
L 242.826595 236.757895 
L 243.103856 235.870518 
L 243.93564 234.892315 
L 244.212901 235.022681 
L 245.044685 234.285151 
L 245.599208 234.237955 
L 246.430992 233.56215 
L 246.985514 232.943793 
L 247.262775 233.173537 
L 248.094559 231.965027 
L 248.37182 231.119181 
L 248.649082 230.914636 
L 249.203604 229.766501 
L 251.144433 224.73512 
L 251.421695 224.67067 
L 251.698956 224.431462 
L 251.976217 224.010175 
L 252.253478 224.121939 
L 252.53074 224.012726 
L 252.808001 224.437236 
L 253.085262 224.634588 
L 253.362523 224.61174 
L 253.639785 225.327551 
L 254.74883 229.467837 
L 255.026091 230.157074 
L 255.303352 231.219205 
L 255.580614 231.609806 
L 256.412398 233.992994 
L 258.353226 241.978224 
L 258.630488 242.823485 
L 259.18501 243.635412 
L 260.294055 247.056791 
L 260.571317 246.920787 
L 261.403101 247.941653 
L 262.234884 249.475681 
L 263.621191 252.389638 
L 263.898452 253.535902 
L 265.56202 257.095784 
L 266.116542 257.524663 
L 266.393804 257.289626 
L 266.671065 257.437804 
L 267.225587 258.528803 
L 267.502849 258.600045 
L 267.78011 259.141889 
L 268.057371 259.186792 
L 268.334632 259.653379 
L 268.611894 259.89055 
L 268.889155 259.880164 
L 269.166416 260.22934 
L 269.443678 260.24543 
L 270.552723 261.613417 
L 270.829984 261.391782 
L 271.661768 261.553295 
L 271.939029 261.841117 
L 272.21629 261.652168 
L 273.048074 261.734942 
L 273.325335 261.948219 
L 273.602597 261.899329 
L 274.157119 262.135451 
L 274.434381 262.354523 
L 274.988903 262.274956 
L 275.266164 262.435189 
L 275.543426 262.766516 
L 275.820687 262.844188 
L 276.097948 263.073076 
L 276.37521 263.107542 
L 276.929732 263.549557 
L 277.206993 263.915482 
L 277.484255 263.938905 
L 277.761516 264.786392 
L 278.038777 264.896781 
L 278.316038 265.204085 
L 278.5933 265.740674 
L 278.870561 265.645617 
L 279.147822 266.419255 
L 279.702345 266.955737 
L 279.979606 267.447886 
L 280.256867 267.448247 
L 280.534129 267.767457 
L 280.81139 267.645454 
L 281.088651 267.804784 
L 281.365913 268.260167 
L 281.643174 268.339787 
L 281.920435 268.554155 
L 282.197696 268.426615 
L 282.474958 268.064783 
L 282.752219 268.161467 
L 283.02948 268.81629 
L 283.306741 268.615882 
L 283.584003 268.917131 
L 283.861264 269.053223 
L 284.138525 269.001585 
L 284.693048 269.572272 
L 285.524832 269.597586 
L 286.079354 270.081496 
L 286.911138 270.116759 
L 287.188399 270.384585 
L 287.465661 269.901274 
L 288.297444 269.21444 
L 288.851967 269.15631 
L 289.40649 269.30338 
L 289.683751 269.206931 
L 289.961012 269.24008 
L 290.792796 268.133923 
L 291.62458 266.210302 
L 291.901841 265.690709 
L 292.456364 263.554796 
L 292.733625 262.389998 
L 294.397193 258.897304 
L 294.674454 258.507552 
L 294.951715 257.781807 
L 295.783499 254.963124 
L 298.556112 249.358859 
L 299.110634 248.960427 
L 300.774202 246.92374 
L 301.051463 246.766743 
L 301.883247 245.574898 
L 302.43777 245.784236 
L 302.992292 244.998986 
L 303.269553 244.809352 
L 303.824076 244.837071 
L 304.65586 244.406345 
L 305.210382 244.234231 
L 306.319428 242.6325 
L 306.87395 242.725073 
L 307.151211 242.441472 
L 307.705734 241.342877 
L 307.982995 241.2135 
L 308.260256 240.592898 
L 309.369302 239.268539 
L 309.646563 239.294986 
L 309.923824 239.028364 
L 310.201085 238.461332 
L 310.478347 238.33003 
L 311.032869 237.533007 
L 311.864653 237.192138 
L 312.141914 236.445449 
L 312.419176 236.674432 
L 312.696437 236.059933 
L 312.973698 235.842812 
L 313.250959 236.080135 
L 313.528221 235.688871 
L 313.805482 236.177332 
L 314.082743 236.294659 
L 314.360005 236.043621 
L 315.191788 234.078821 
L 315.46905 233.954234 
L 315.746311 233.698718 
L 316.023572 233.275609 
L 316.300834 233.216362 
L 316.855356 233.664084 
L 317.132617 233.719337 
L 317.68714 234.174467 
L 317.964401 233.918928 
L 318.241662 233.857879 
L 318.518924 233.226384 
L 318.796185 232.031827 
L 319.073446 231.838376 
L 320.182491 229.794994 
L 320.459753 229.764176 
L 321.014275 229.197984 
L 321.568798 228.27283 
L 321.846059 227.980758 
L 322.12332 227.517941 
L 322.400582 227.401896 
L 322.955104 226.787156 
L 323.509627 225.819895 
L 324.618672 223.620029 
L 325.173194 222.445394 
L 325.727717 221.568376 
L 326.28224 221.132531 
L 326.559501 221.447566 
L 326.836762 221.098456 
L 327.114023 220.110755 
L 327.391285 220.327831 
L 327.668546 219.954843 
L 327.945807 219.934956 
L 329.054852 217.564632 
L 329.332114 217.480628 
L 330.441159 215.399973 
L 331.272943 213.557077 
L 331.827465 212.59561 
L 333.491033 209.830646 
L 334.322817 208.456542 
L 335.709123 205.546737 
L 336.263646 204.081956 
L 337.927213 199.255567 
L 339.590781 194.510101 
L 340.145303 193.337551 
L 340.977087 190.171246 
L 343.7497 181.725787 
L 344.304223 180.928328 
L 345.136006 177.603809 
L 345.96779 174.953568 
L 346.522313 173.019177 
L 348.463142 167.826829 
L 349.572187 162.273583 
L 350.403971 159.145844 
L 350.958493 157.828373 
L 351.235755 157.483559 
L 352.067538 154.887134 
L 352.899322 152.347454 
L 353.453845 150.960394 
L 354.285629 148.773 
L 354.56289 148.276764 
L 355.949196 144.80024 
L 356.78098 142.850369 
L 358.99907 136.315548 
L 359.276332 135.923219 
L 359.553593 135.814223 
L 360.108115 134.744901 
L 360.385377 134.710842 
L 360.939899 135.150464 
L 362.326206 131.049927 
L 362.880728 130.53978 
L 363.435251 129.545034 
L 364.544296 127.016667 
L 365.098818 124.980344 
L 366.485125 120.519682 
L 367.039647 119.618516 
L 367.59417 118.949071 
L 367.871431 118.801245 
L 368.425954 117.701259 
L 368.703215 117.558898 
L 369.257738 118.024646 
L 370.089521 113.304173 
L 370.644044 111.316606 
L 371.475828 109.839935 
L 372.03035 109.192701 
L 372.584873 107.121993 
L 372.862134 106.555515 
L 373.416657 106.33771 
L 374.525702 103.868139 
L 375.357486 102.148134 
L 376.18927 100.48348 
L 376.466531 100.208674 
L 377.021053 100.135196 
L 378.684621 98.149404 
L 378.961882 97.965921 
L 380.348189 99.158063 
L 380.62545 99.164411 
L 380.902711 98.963015 
L 381.179973 98.54508 
L 381.734495 97.280081 
L 382.566279 93.538741 
L 383.120801 92.576842 
L 383.398063 92.454491 
L 383.675324 92.684353 
L 383.952585 92.023562 
L 384.507108 88.925957 
L 385.338892 88.184438 
L 386.725198 88.079156 
L 387.556982 86.804088 
L 388.111504 85.880492 
L 388.666027 85.197576 
L 389.497811 85.043632 
L 390.052333 81.83168 
L 391.43864 77.334714 
L 391.715901 77.541579 
L 392.547685 76.71458 
L 392.824946 76.678164 
L 393.65673 74.966074 
L 394.765775 73.271185 
L 395.320298 71.892556 
L 396.983865 68.138002 
L 397.538388 67.637161 
L 398.647433 64.888603 
L 399.201956 62.893663 
L 399.756478 61.620585 
L 400.311001 60.511117 
L 400.865523 59.406885 
L 401.142785 58.669438 
L 401.420046 58.474308 
L 401.697307 58.601869 
L 401.974568 57.898752 
L 402.25183 57.562364 
L 402.529091 57.590577 
L 402.529091 57.590577 
" style="fill:none;stroke:#808080;stroke-linecap:round;stroke-width:1.5;"/>
   </g>
   <g id="line2d_16">
    <path clip-path="url(#pb6d998fff5)" d="M 55.8 230.357805 
L 419.04 230.357805 
" style="fill:none;stroke:#4c72b0;stroke-linecap:round;stroke-width:2;"/>
   </g>
   <g id="line2d_17">
    <path clip-path="url(#pb6d998fff5)" d="M 55.8 268.897763 
L 419.04 268.897763 
" style="fill:none;stroke:#55a868;stroke-linecap:round;stroke-width:2;"/>
   </g>
   <g id="line2d_18">
    <path clip-path="url(#pb6d998fff5)" d="M 55.8 254.800991 
L 419.04 254.800991 
" style="fill:none;stroke:#c44e52;stroke-linecap:round;stroke-width:2;"/>
   </g>
   <g id="patch_4">
    <path d="M 55.8 382.86 
L 55.8 42.072 
" style="fill:none;stroke:#ffffff;stroke-linecap:square;stroke-linejoin:miter;stroke-width:1.25;"/>
   </g>
   <g id="patch_5">
    <path d="M 419.04 382.86 
L 419.04 42.072 
" style="fill:none;stroke:#ffffff;stroke-linecap:square;stroke-linejoin:miter;stroke-width:1.25;"/>
   </g>
   <g id="patch_6">
    <path d="M 55.8 382.86 
L 419.04 382.86 
" style="fill:none;stroke:#ffffff;stroke-linecap:square;stroke-linejoin:miter;stroke-width:1.25;"/>
   </g>
   <g id="patch_7">
    <path d="M 55.8 42.072 
L 419.04 42.072 
" style="fill:none;stroke:#ffffff;stroke-linecap:square;stroke-linejoin:miter;stroke-width:1.25;"/>
   </g>
   <g id="text_17">
    <!-- APE w.r.t. translation part (m) -->
    <g style="fill:#262626;" transform="translate(148.836562 22.634625)scale(0.12 -0.12)">
     <defs>
      <path d="M 4.203125 54.6875 
L 13.1875 54.6875 
L 24.421875 12.015625 
L 35.59375 54.6875 
L 46.1875 54.6875 
L 57.421875 12.015625 
L 68.609375 54.6875 
L 77.59375 54.6875 
L 63.28125 0 
L 52.6875 0 
L 40.921875 44.828125 
L 29.109375 0 
L 18.5 0 
z
" id="DejaVuSans-119"/>
      <path d="M 41.109375 46.296875 
Q 39.59375 47.171875 37.8125 47.578125 
Q 36.03125 48 33.890625 48 
Q 26.265625 48 22.1875 43.046875 
Q 18.109375 38.09375 18.109375 28.8125 
L 18.109375 0 
L 9.078125 0 
L 9.078125 54.6875 
L 18.109375 54.6875 
L 18.109375 46.1875 
Q 20.953125 51.171875 25.484375 53.578125 
Q 30.03125 56 36.53125 56 
Q 37.453125 56 38.578125 55.875 
Q 39.703125 55.765625 41.0625 55.515625 
z
" id="DejaVuSans-114"/>
      <path d="M 18.3125 70.21875 
L 18.3125 54.6875 
L 36.8125 54.6875 
L 36.8125 47.703125 
L 18.3125 47.703125 
L 18.3125 18.015625 
Q 18.3125 11.328125 20.140625 9.421875 
Q 21.96875 7.515625 27.59375 7.515625 
L 36.8125 7.515625 
L 36.8125 0 
L 27.59375 0 
Q 17.1875 0 13.234375 3.875 
Q 9.28125 7.765625 9.28125 18.015625 
L 9.28125 47.703125 
L 2.6875 47.703125 
L 2.6875 54.6875 
L 9.28125 54.6875 
L 9.28125 70.21875 
z
" id="DejaVuSans-116"/>
      <path d="M 34.28125 27.484375 
Q 23.390625 27.484375 19.1875 25 
Q 14.984375 22.515625 14.984375 16.5 
Q 14.984375 11.71875 18.140625 8.90625 
Q 21.296875 6.109375 26.703125 6.109375 
Q 34.1875 6.109375 38.703125 11.40625 
Q 43.21875 16.703125 43.21875 25.484375 
L 43.21875 27.484375 
z
M 52.203125 31.203125 
L 52.203125 0 
L 43.21875 0 
L 43.21875 8.296875 
Q 40.140625 3.328125 35.546875 0.953125 
Q 30.953125 -1.421875 24.3125 -1.421875 
Q 15.921875 -1.421875 10.953125 3.296875 
Q 6 8.015625 6 15.921875 
Q 6 25.140625 12.171875 29.828125 
Q 18.359375 34.515625 30.609375 34.515625 
L 43.21875 34.515625 
L 43.21875 35.40625 
Q 43.21875 41.609375 39.140625 45 
Q 35.0625 48.390625 27.6875 48.390625 
Q 23 48.390625 18.546875 47.265625 
Q 14.109375 46.140625 10.015625 43.890625 
L 10.015625 52.203125 
Q 14.9375 54.109375 19.578125 55.046875 
Q 24.21875 56 28.609375 56 
Q 40.484375 56 46.34375 49.84375 
Q 52.203125 43.703125 52.203125 31.203125 
z
" id="DejaVuSans-97"/>
      <path d="M 54.890625 33.015625 
L 54.890625 0 
L 45.90625 0 
L 45.90625 32.71875 
Q 45.90625 40.484375 42.875 44.328125 
Q 39.84375 48.1875 33.796875 48.1875 
Q 26.515625 48.1875 22.3125 43.546875 
Q 18.109375 38.921875 18.109375 30.90625 
L 18.109375 0 
L 9.078125 0 
L 9.078125 54.6875 
L 18.109375 54.6875 
L 18.109375 46.1875 
Q 21.34375 51.125 25.703125 53.5625 
Q 30.078125 56 35.796875 56 
Q 45.21875 56 50.046875 50.171875 
Q 54.890625 44.34375 54.890625 33.015625 
z
" id="DejaVuSans-110"/>
      <path d="M 9.421875 75.984375 
L 18.40625 75.984375 
L 18.40625 0 
L 9.421875 0 
z
" id="DejaVuSans-108"/>
      <path d="M 9.421875 54.6875 
L 18.40625 54.6875 
L 18.40625 0 
L 9.421875 0 
z
M 9.421875 75.984375 
L 18.40625 75.984375 
L 18.40625 64.59375 
L 9.421875 64.59375 
z
" id="DejaVuSans-105"/>
      <path d="M 30.609375 48.390625 
Q 23.390625 48.390625 19.1875 42.75 
Q 14.984375 37.109375 14.984375 27.296875 
Q 14.984375 17.484375 19.15625 11.84375 
Q 23.34375 6.203125 30.609375 6.203125 
Q 37.796875 6.203125 41.984375 11.859375 
Q 46.1875 17.53125 46.1875 27.296875 
Q 46.1875 37.015625 41.984375 42.703125 
Q 37.796875 48.390625 30.609375 48.390625 
z
M 30.609375 56 
Q 42.328125 56 49.015625 48.375 
Q 55.71875 40.765625 55.71875 27.296875 
Q 55.71875 13.875 49.015625 6.21875 
Q 42.328125 -1.421875 30.609375 -1.421875 
Q 18.84375 -1.421875 12.171875 6.21875 
Q 5.515625 13.875 5.515625 27.296875 
Q 5.515625 40.765625 12.171875 48.375 
Q 18.84375 56 30.609375 56 
z
" id="DejaVuSans-111"/>
      <path d="M 18.109375 8.203125 
L 18.109375 -20.796875 
L 9.078125 -20.796875 
L 9.078125 54.6875 
L 18.109375 54.6875 
L 18.109375 46.390625 
Q 20.953125 51.265625 25.265625 53.625 
Q 29.59375 56 35.59375 56 
Q 45.5625 56 51.78125 48.09375 
Q 58.015625 40.1875 58.015625 27.296875 
Q 58.015625 14.40625 51.78125 6.484375 
Q 45.5625 -1.421875 35.59375 -1.421875 
Q 29.59375 -1.421875 25.265625 0.953125 
Q 20.953125 3.328125 18.109375 8.203125 
z
M 48.6875 27.296875 
Q 48.6875 37.203125 44.609375 42.84375 
Q 40.53125 48.484375 33.40625 48.484375 
Q 26.265625 48.484375 22.1875 42.84375 
Q 18.109375 37.203125 18.109375 27.296875 
Q 18.109375 17.390625 22.1875 11.75 
Q 26.265625 6.109375 33.40625 6.109375 
Q 40.53125 6.109375 44.609375 11.75 
Q 48.6875 17.390625 48.6875 27.296875 
z
" id="DejaVuSans-112"/>
     </defs>
     <use xlink:href="#DejaVuSans-65"/>
     <use x="68.408203" xlink:href="#DejaVuSans-80"/>
     <use x="128.710938" xlink:href="#DejaVuSans-69"/>
     <use x="191.894531" xlink:href="#DejaVuSans-32"/>
     <use x="223.681641" xlink:href="#DejaVuSans-119"/>
     <use x="296.34375" xlink:href="#DejaVuSans-46"/>
     <use x="328.130859" xlink:href="#DejaVuSans-114"/>
     <use x="360.119141" xlink:href="#DejaVuSans-46"/>
     <use x="391.90625" xlink:href="#DejaVuSans-116"/>
     <use x="431.115234" xlink:href="#DejaVuSans-46"/>
     <use x="462.902344" xlink:href="#DejaVuSans-32"/>
     <use x="494.689453" xlink:href="#DejaVuSans-116"/>
     <use x="533.898438" xlink:href="#DejaVuSans-114"/>
     <use x="575.011719" xlink:href="#DejaVuSans-97"/>
     <use x="636.291016" xlink:href="#DejaVuSans-110"/>
     <use x="699.669922" xlink:href="#DejaVuSans-115"/>
     <use x="751.769531" xlink:href="#DejaVuSans-108"/>
     <use x="779.552734" xlink:href="#DejaVuSans-97"/>
     <use x="840.832031" xlink:href="#DejaVuSans-116"/>
     <use x="880.041016" xlink:href="#DejaVuSans-105"/>
     <use x="907.824219" xlink:href="#DejaVuSans-111"/>
     <use x="969.005859" xlink:href="#DejaVuSans-110"/>
     <use x="1032.384766" xlink:href="#DejaVuSans-32"/>
     <use x="1064.171875" xlink:href="#DejaVuSans-112"/>
     <use x="1127.648438" xlink:href="#DejaVuSans-97"/>
     <use x="1188.927734" xlink:href="#DejaVuSans-114"/>
     <use x="1230.041016" xlink:href="#DejaVuSans-116"/>
     <use x="1269.25" xlink:href="#DejaVuSans-32"/>
     <use x="1301.037109" xlink:href="#DejaVuSans-40"/>
     <use x="1340.050781" xlink:href="#DejaVuSans-109"/>
     <use x="1437.462891" xlink:href="#DejaVuSans-41"/>
    </g>
    <!-- (with origin alignment) -->
    <g style="fill:#262626;" transform="translate(168.799688 36.072)scale(0.12 -0.12)">
     <defs>
      <path d="M 54.890625 33.015625 
L 54.890625 0 
L 45.90625 0 
L 45.90625 32.71875 
Q 45.90625 40.484375 42.875 44.328125 
Q 39.84375 48.1875 33.796875 48.1875 
Q 26.515625 48.1875 22.3125 43.546875 
Q 18.109375 38.921875 18.109375 30.90625 
L 18.109375 0 
L 9.078125 0 
L 9.078125 75.984375 
L 18.109375 75.984375 
L 18.109375 46.1875 
Q 21.34375 51.125 25.703125 53.5625 
Q 30.078125 56 35.796875 56 
Q 45.21875 56 50.046875 50.171875 
Q 54.890625 44.34375 54.890625 33.015625 
z
" id="DejaVuSans-104"/>
      <path d="M 45.40625 27.984375 
Q 45.40625 37.75 41.375 43.109375 
Q 37.359375 48.484375 30.078125 48.484375 
Q 22.859375 48.484375 18.828125 43.109375 
Q 14.796875 37.75 14.796875 27.984375 
Q 14.796875 18.265625 18.828125 12.890625 
Q 22.859375 7.515625 30.078125 7.515625 
Q 37.359375 7.515625 41.375 12.890625 
Q 45.40625 18.265625 45.40625 27.984375 
z
M 54.390625 6.78125 
Q 54.390625 -7.171875 48.1875 -13.984375 
Q 42 -20.796875 29.203125 -20.796875 
Q 24.46875 -20.796875 20.265625 -20.09375 
Q 16.0625 -19.390625 12.109375 -17.921875 
L 12.109375 -9.1875 
Q 16.0625 -11.328125 19.921875 -12.34375 
Q 23.78125 -13.375 27.78125 -13.375 
Q 36.625 -13.375 41.015625 -8.765625 
Q 45.40625 -4.15625 45.40625 5.171875 
L 45.40625 9.625 
Q 42.625 4.78125 38.28125 2.390625 
Q 33.9375 0 27.875 0 
Q 17.828125 0 11.671875 7.65625 
Q 5.515625 15.328125 5.515625 27.984375 
Q 5.515625 40.671875 11.671875 48.328125 
Q 17.828125 56 27.875 56 
Q 33.9375 56 38.28125 53.609375 
Q 42.625 51.21875 45.40625 46.390625 
L 45.40625 54.6875 
L 54.390625 54.6875 
z
" id="DejaVuSans-103"/>
      <path d="M 56.203125 29.59375 
L 56.203125 25.203125 
L 14.890625 25.203125 
Q 15.484375 15.921875 20.484375 11.0625 
Q 25.484375 6.203125 34.421875 6.203125 
Q 39.59375 6.203125 44.453125 7.46875 
Q 49.3125 8.734375 54.109375 11.28125 
L 54.109375 2.78125 
Q 49.265625 0.734375 44.1875 -0.34375 
Q 39.109375 -1.421875 33.890625 -1.421875 
Q 20.796875 -1.421875 13.15625 6.1875 
Q 5.515625 13.8125 5.515625 26.8125 
Q 5.515625 40.234375 12.765625 48.109375 
Q 20.015625 56 32.328125 56 
Q 43.359375 56 49.78125 48.890625 
Q 56.203125 41.796875 56.203125 29.59375 
z
M 47.21875 32.234375 
Q 47.125 39.59375 43.09375 43.984375 
Q 39.0625 48.390625 32.421875 48.390625 
Q 24.90625 48.390625 20.390625 44.140625 
Q 15.875 39.890625 15.1875 32.171875 
z
" id="DejaVuSans-101"/>
     </defs>
     <use xlink:href="#DejaVuSans-40"/>
     <use x="39.013672" xlink:href="#DejaVuSans-119"/>
     <use x="120.800781" xlink:href="#DejaVuSans-105"/>
     <use x="148.583984" xlink:href="#DejaVuSans-116"/>
     <use x="187.792969" xlink:href="#DejaVuSans-104"/>
     <use x="251.171875" xlink:href="#DejaVuSans-32"/>
     <use x="282.958984" xlink:href="#DejaVuSans-111"/>
     <use x="344.140625" xlink:href="#DejaVuSans-114"/>
     <use x="385.253906" xlink:href="#DejaVuSans-105"/>
     <use x="413.037109" xlink:href="#DejaVuSans-103"/>
     <use x="476.513672" xlink:href="#DejaVuSans-105"/>
     <use x="504.296875" xlink:href="#DejaVuSans-110"/>
     <use x="567.675781" xlink:href="#DejaVuSans-32"/>
     <use x="599.462891" xlink:href="#DejaVuSans-97"/>
     <use x="660.742188" xlink:href="#DejaVuSans-108"/>
     <use x="688.525391" xlink:href="#DejaVuSans-105"/>
     <use x="716.308594" xlink:href="#DejaVuSans-103"/>
     <use x="779.785156" xlink:href="#DejaVuSans-110"/>
     <use x="843.164062" xlink:href="#DejaVuSans-109"/>
     <use x="940.576172" xlink:href="#DejaVuSans-101"/>
     <use x="1002.099609" xlink:href="#DejaVuSans-110"/>
     <use x="1065.478516" xlink:href="#DejaVuSans-116"/>
     <use x="1104.6875" xlink:href="#DejaVuSans-41"/>
    </g>
   </g>
   <g id="legend_1">
    <g id="patch_8">
     <path d="M 63.5 131.601688 
L 142.602031 131.601688 
Q 144.802031 131.601688 144.802031 129.401688 
L 144.802031 49.772 
Q 144.802031 47.572 142.602031 47.572 
L 63.5 47.572 
Q 61.3 47.572 61.3 49.772 
L 61.3 129.401688 
Q 61.3 131.601688 63.5 131.601688 
z
" style="fill:#eaeaf2;opacity:0.8;stroke:#cccccc;stroke-linejoin:miter;"/>
    </g>
    <g id="line2d_19">
     <path d="M 65.7 56.480281 
L 87.7 56.480281 
" style="fill:none;stroke:#808080;stroke-linecap:round;stroke-width:1.5;"/>
    </g>
    <g id="line2d_20"/>
    <g id="text_18">
     <!-- APE (m) -->
     <g style="fill:#262626;" transform="translate(96.5 60.330281)scale(0.11 -0.11)">
      <use xlink:href="#DejaVuSans-65"/>
      <use x="68.408203" xlink:href="#DejaVuSans-80"/>
      <use x="128.710938" xlink:href="#DejaVuSans-69"/>
      <use x="191.894531" xlink:href="#DejaVuSans-32"/>
      <use x="223.681641" xlink:href="#DejaVuSans-40"/>
      <use x="262.695312" xlink:href="#DejaVuSans-109"/>
      <use x="360.107422" xlink:href="#DejaVuSans-41"/>
     </g>
    </g>
    <g id="line2d_21">
     <path d="M 65.7 72.626219 
L 87.7 72.626219 
" style="fill:none;stroke:#4c72b0;stroke-linecap:round;stroke-width:2;"/>
    </g>
    <g id="line2d_22"/>
    <g id="text_19">
     <!-- rmse -->
     <g style="fill:#262626;" transform="translate(96.5 76.476219)scale(0.11 -0.11)">
      <use xlink:href="#DejaVuSans-114"/>
      <use x="39.363281" xlink:href="#DejaVuSans-109"/>
      <use x="136.775391" xlink:href="#DejaVuSans-115"/>
      <use x="188.875" xlink:href="#DejaVuSans-101"/>
     </g>
    </g>
    <g id="line2d_23">
     <path d="M 65.7 88.772156 
L 87.7 88.772156 
" style="fill:none;stroke:#55a868;stroke-linecap:round;stroke-width:2;"/>
    </g>
    <g id="line2d_24"/>
    <g id="text_20">
     <!-- median -->
     <g style="fill:#262626;" transform="translate(96.5 92.622156)scale(0.11 -0.11)">
      <defs>
       <path d="M 45.40625 46.390625 
L 45.40625 75.984375 
L 54.390625 75.984375 
L 54.390625 0 
L 45.40625 0 
L 45.40625 8.203125 
Q 42.578125 3.328125 38.25 0.953125 
Q 33.9375 -1.421875 27.875 -1.421875 
Q 17.96875 -1.421875 11.734375 6.484375 
Q 5.515625 14.40625 5.515625 27.296875 
Q 5.515625 40.1875 11.734375 48.09375 
Q 17.96875 56 27.875 56 
Q 33.9375 56 38.25 53.625 
Q 42.578125 51.265625 45.40625 46.390625 
z
M 14.796875 27.296875 
Q 14.796875 17.390625 18.875 11.75 
Q 22.953125 6.109375 30.078125 6.109375 
Q 37.203125 6.109375 41.296875 11.75 
Q 45.40625 17.390625 45.40625 27.296875 
Q 45.40625 37.203125 41.296875 42.84375 
Q 37.203125 48.484375 30.078125 48.484375 
Q 22.953125 48.484375 18.875 42.84375 
Q 14.796875 37.203125 14.796875 27.296875 
z
" id="DejaVuSans-100"/>
      </defs>
      <use xlink:href="#DejaVuSans-109"/>
      <use x="97.412109" xlink:href="#DejaVuSans-101"/>
      <use x="158.935547" xlink:href="#DejaVuSans-100"/>
      <use x="222.412109" xlink:href="#DejaVuSans-105"/>
      <use x="250.195312" xlink:href="#DejaVuSans-97"/>
      <use x="311.474609" xlink:href="#DejaVuSans-110"/>
     </g>
    </g>
    <g id="line2d_25">
     <path d="M 65.7 104.918094 
L 87.7 104.918094 
" style="fill:none;stroke:#c44e52;stroke-linecap:round;stroke-width:2;"/>
    </g>
    <g id="line2d_26"/>
    <g id="text_21">
     <!-- mean -->
     <g style="fill:#262626;" transform="translate(96.5 108.768094)scale(0.11 -0.11)">
      <use xlink:href="#DejaVuSans-109"/>
      <use x="97.412109" xlink:href="#DejaVuSans-101"/>
      <use x="158.935547" xlink:href="#DejaVuSans-97"/>
      <use x="220.214844" xlink:href="#DejaVuSans-110"/>
     </g>
    </g>
    <g id="patch_9">
     <path d="M 65.7 124.914031 
L 87.7 124.914031 
L 87.7 117.214031 
L 65.7 117.214031 
z
" style="fill:#8172b3;opacity:0.5;stroke:#8172b3;stroke-linejoin:miter;"/>
    </g>
    <g id="text_22">
     <!-- std -->
     <g style="fill:#262626;" transform="translate(96.5 124.914031)scale(0.11 -0.11)">
      <use xlink:href="#DejaVuSans-115"/>
      <use x="52.099609" xlink:href="#DejaVuSans-116"/>
      <use x="91.308594" xlink:href="#DejaVuSans-100"/>
     </g>
    </g>
   </g>
  </g>
 </g>
 <defs>
  <clipPath id="pb6d998fff5">
   <rect height="340.788" width="363.24" x="55.8" y="42.072"/>
  </clipPath>
 </defs>
</svg>
