<?xml version="1.0" encoding="utf-8" standalone="no"?>
<!DOCTYPE svg PUBLIC "-//W3C//DTD SVG 1.1//EN"
  "http://www.w3.org/Graphics/SVG/1.1/DTD/svg11.dtd">
<!-- Created with matplotlib (https://matplotlib.org/) -->
<svg height="432pt" version="1.1" viewBox="0 0 432 432" width="432pt" xmlns="http://www.w3.org/2000/svg" xmlns:xlink="http://www.w3.org/1999/xlink">
 <metadata>
  <rdf:RDF xmlns:cc="http://creativecommons.org/ns#" xmlns:dc="http://purl.org/dc/elements/1.1/" xmlns:rdf="http://www.w3.org/1999/02/22-rdf-syntax-ns#">
   <cc:Work>
    <dc:type rdf:resource="http://purl.org/dc/dcmitype/StillImage"/>
    <dc:date>2022-02-02T13:19:33.714436</dc:date>
    <dc:format>image/svg+xml</dc:format>
    <dc:creator>
     <cc:Agent>
      <dc:title>Matplotlib v3.3.1, https://matplotlib.org/</dc:title>
     </cc:Agent>
    </dc:creator>
   </cc:Work>
  </rdf:RDF>
 </metadata>
 <defs>
  <style type="text/css">*{stroke-linecap:butt;stroke-linejoin:round;}</style>
 </defs>
 <g id="figure_1">
  <g id="patch_1">
   <path d="M 0 432 
L 432 432 
L 432 0 
L 0 0 
z
" style="fill:#ffffff;"/>
  </g>
  <g id="axes_1">
   <g id="patch_2">
    <path d="M 69.885 128.156844 
L 419.04 128.156844 
L 419.04 13.765267 
L 69.885 13.765267 
z
" style="fill:#eaeaf2;"/>
   </g>
   <g id="matplotlib.axis_1">
    <g id="xtick_1">
     <g id="line2d_1">
      <path clip-path="url(#pd3cec11f52)" d="M 114.068766 128.156844 
L 114.068766 13.765267 
" style="fill:none;stroke:#ffffff;stroke-linecap:round;"/>
     </g>
    </g>
    <g id="xtick_2">
     <g id="line2d_2">
      <path clip-path="url(#pd3cec11f52)" d="M 167.015161 128.156844 
L 167.015161 13.765267 
" style="fill:none;stroke:#ffffff;stroke-linecap:round;"/>
     </g>
    </g>
    <g id="xtick_3">
     <g id="line2d_3">
      <path clip-path="url(#pd3cec11f52)" d="M 219.961556 128.156844 
L 219.961556 13.765267 
" style="fill:none;stroke:#ffffff;stroke-linecap:round;"/>
     </g>
    </g>
    <g id="xtick_4">
     <g id="line2d_4">
      <path clip-path="url(#pd3cec11f52)" d="M 272.907951 128.156844 
L 272.907951 13.765267 
" style="fill:none;stroke:#ffffff;stroke-linecap:round;"/>
     </g>
    </g>
    <g id="xtick_5">
     <g id="line2d_5">
      <path clip-path="url(#pd3cec11f52)" d="M 325.854345 128.156844 
L 325.854345 13.765267 
" style="fill:none;stroke:#ffffff;stroke-linecap:round;"/>
     </g>
    </g>
    <g id="xtick_6">
     <g id="line2d_6">
      <path clip-path="url(#pd3cec11f52)" d="M 378.80074 128.156844 
L 378.80074 13.765267 
" style="fill:none;stroke:#ffffff;stroke-linecap:round;"/>
     </g>
    </g>
   </g>
   <g id="matplotlib.axis_2">
    <g id="ytick_1">
     <g id="line2d_7">
      <path clip-path="url(#pd3cec11f52)" d="M 69.885 109.149071 
L 419.04 109.149071 
" style="fill:none;stroke:#ffffff;stroke-linecap:round;"/>
     </g>
     <g id="text_1">
      <!-- 0.0 -->
      <g style="fill:#262626;" transform="translate(42.891563 113.328212)scale(0.11 -0.11)">
       <defs>
        <path d="M 31.78125 66.40625 
Q 24.171875 66.40625 20.328125 58.90625 
Q 16.5 51.421875 16.5 36.375 
Q 16.5 21.390625 20.328125 13.890625 
Q 24.171875 6.390625 31.78125 6.390625 
Q 39.453125 6.390625 43.28125 13.890625 
Q 47.125 21.390625 47.125 36.375 
Q 47.125 51.421875 43.28125 58.90625 
Q 39.453125 66.40625 31.78125 66.40625 
z
M 31.78125 74.21875 
Q 44.046875 74.21875 50.515625 64.515625 
Q 56.984375 54.828125 56.984375 36.375 
Q 56.984375 17.96875 50.515625 8.265625 
Q 44.046875 -1.421875 31.78125 -1.421875 
Q 19.53125 -1.421875 13.0625 8.265625 
Q 6.59375 17.96875 6.59375 36.375 
Q 6.59375 54.828125 13.0625 64.515625 
Q 19.53125 74.21875 31.78125 74.21875 
z
" id="DejaVuSans-48"/>
        <path d="M 10.6875 12.40625 
L 21 12.40625 
L 21 0 
L 10.6875 0 
z
" id="DejaVuSans-46"/>
       </defs>
       <use xlink:href="#DejaVuSans-48"/>
       <use x="63.623047" xlink:href="#DejaVuSans-46"/>
       <use x="95.410156" xlink:href="#DejaVuSans-48"/>
      </g>
     </g>
    </g>
    <g id="ytick_2">
     <g id="line2d_8">
      <path clip-path="url(#pd3cec11f52)" d="M 69.885 86.137968 
L 419.04 86.137968 
" style="fill:none;stroke:#ffffff;stroke-linecap:round;"/>
     </g>
     <g id="text_2">
      <!-- 2.5 -->
      <g style="fill:#262626;" transform="translate(42.891563 90.317108)scale(0.11 -0.11)">
       <defs>
        <path d="M 19.1875 8.296875 
L 53.609375 8.296875 
L 53.609375 0 
L 7.328125 0 
L 7.328125 8.296875 
Q 12.9375 14.109375 22.625 23.890625 
Q 32.328125 33.6875 34.8125 36.53125 
Q 39.546875 41.84375 41.421875 45.53125 
Q 43.3125 49.21875 43.3125 52.78125 
Q 43.3125 58.59375 39.234375 62.25 
Q 35.15625 65.921875 28.609375 65.921875 
Q 23.96875 65.921875 18.8125 64.3125 
Q 13.671875 62.703125 7.8125 59.421875 
L 7.8125 69.390625 
Q 13.765625 71.78125 18.9375 73 
Q 24.125 74.21875 28.421875 74.21875 
Q 39.75 74.21875 46.484375 68.546875 
Q 53.21875 62.890625 53.21875 53.421875 
Q 53.21875 48.921875 51.53125 44.890625 
Q 49.859375 40.875 45.40625 35.40625 
Q 44.1875 33.984375 37.640625 27.21875 
Q 31.109375 20.453125 19.1875 8.296875 
z
" id="DejaVuSans-50"/>
        <path d="M 10.796875 72.90625 
L 49.515625 72.90625 
L 49.515625 64.59375 
L 19.828125 64.59375 
L 19.828125 46.734375 
Q 21.96875 47.46875 24.109375 47.828125 
Q 26.265625 48.1875 28.421875 48.1875 
Q 40.625 48.1875 47.75 41.5 
Q 54.890625 34.8125 54.890625 23.390625 
Q 54.890625 11.625 47.5625 5.09375 
Q 40.234375 -1.421875 26.90625 -1.421875 
Q 22.3125 -1.421875 17.546875 -0.640625 
Q 12.796875 0.140625 7.71875 1.703125 
L 7.71875 11.625 
Q 12.109375 9.234375 16.796875 8.0625 
Q 21.484375 6.890625 26.703125 6.890625 
Q 35.15625 6.890625 40.078125 11.328125 
Q 45.015625 15.765625 45.015625 23.390625 
Q 45.015625 31 40.078125 35.4375 
Q 35.15625 39.890625 26.703125 39.890625 
Q 22.75 39.890625 18.8125 39.015625 
Q 14.890625 38.140625 10.796875 36.28125 
z
" id="DejaVuSans-53"/>
       </defs>
       <use xlink:href="#DejaVuSans-50"/>
       <use x="63.623047" xlink:href="#DejaVuSans-46"/>
       <use x="95.410156" xlink:href="#DejaVuSans-53"/>
      </g>
     </g>
    </g>
    <g id="ytick_3">
     <g id="line2d_9">
      <path clip-path="url(#pd3cec11f52)" d="M 69.885 63.126864 
L 419.04 63.126864 
" style="fill:none;stroke:#ffffff;stroke-linecap:round;"/>
     </g>
     <g id="text_3">
      <!-- 5.0 -->
      <g style="fill:#262626;" transform="translate(42.891563 67.306005)scale(0.11 -0.11)">
       <use xlink:href="#DejaVuSans-53"/>
       <use x="63.623047" xlink:href="#DejaVuSans-46"/>
       <use x="95.410156" xlink:href="#DejaVuSans-48"/>
      </g>
     </g>
    </g>
    <g id="ytick_4">
     <g id="line2d_10">
      <path clip-path="url(#pd3cec11f52)" d="M 69.885 40.115761 
L 419.04 40.115761 
" style="fill:none;stroke:#ffffff;stroke-linecap:round;"/>
     </g>
     <g id="text_4">
      <!-- 7.5 -->
      <g style="fill:#262626;" transform="translate(42.891563 44.294902)scale(0.11 -0.11)">
       <defs>
        <path d="M 8.203125 72.90625 
L 55.078125 72.90625 
L 55.078125 68.703125 
L 28.609375 0 
L 18.3125 0 
L 43.21875 64.59375 
L 8.203125 64.59375 
z
" id="DejaVuSans-55"/>
       </defs>
       <use xlink:href="#DejaVuSans-55"/>
       <use x="63.623047" xlink:href="#DejaVuSans-46"/>
       <use x="95.410156" xlink:href="#DejaVuSans-53"/>
      </g>
     </g>
    </g>
    <g id="ytick_5">
     <g id="line2d_11">
      <path clip-path="url(#pd3cec11f52)" d="M 69.885 17.104658 
L 419.04 17.104658 
" style="fill:none;stroke:#ffffff;stroke-linecap:round;"/>
     </g>
     <g id="text_5">
      <!-- 10.0 -->
      <g style="fill:#262626;" transform="translate(35.892813 21.283798)scale(0.11 -0.11)">
       <defs>
        <path d="M 12.40625 8.296875 
L 28.515625 8.296875 
L 28.515625 63.921875 
L 10.984375 60.40625 
L 10.984375 69.390625 
L 28.421875 72.90625 
L 38.28125 72.90625 
L 38.28125 8.296875 
L 54.390625 8.296875 
L 54.390625 0 
L 12.40625 0 
z
" id="DejaVuSans-49"/>
       </defs>
       <use xlink:href="#DejaVuSans-49"/>
       <use x="63.623047" xlink:href="#DejaVuSans-48"/>
       <use x="127.246094" xlink:href="#DejaVuSans-46"/>
       <use x="159.033203" xlink:href="#DejaVuSans-48"/>
      </g>
     </g>
    </g>
    <g id="text_6">
     <!-- $roll$ (deg) -->
     <g style="fill:#262626;" transform="translate(29.372813 98.381055)rotate(-90)scale(0.12 -0.12)">
      <defs>
       <path d="M 44.578125 46.390625 
Q 43.21875 47.125 41.453125 47.515625 
Q 39.703125 47.90625 37.703125 47.90625 
Q 30.515625 47.90625 25.140625 42.453125 
Q 19.78125 37.015625 18.015625 27.875 
L 12.5 0 
L 3.515625 0 
L 14.203125 54.6875 
L 23.1875 54.6875 
L 21.484375 46.1875 
Q 25.046875 50.921875 30 53.453125 
Q 34.96875 56 40.578125 56 
Q 42.046875 56 43.453125 55.828125 
Q 44.875 55.671875 46.296875 55.28125 
z
" id="DejaVuSans-Oblique-114"/>
       <path d="M 25.390625 -1.421875 
Q 15.765625 -1.421875 10.171875 4.515625 
Q 4.59375 10.453125 4.59375 20.703125 
Q 4.59375 26.65625 6.515625 32.828125 
Q 8.453125 39.015625 11.53125 43.21875 
Q 16.359375 49.75 22.3125 52.875 
Q 28.265625 56 35.796875 56 
Q 45.125 56 50.859375 50.1875 
Q 56.59375 44.390625 56.59375 35.015625 
Q 56.59375 28.515625 54.6875 22.0625 
Q 52.78125 15.625 49.703125 11.375 
Q 44.921875 4.828125 38.96875 1.703125 
Q 33.015625 -1.421875 25.390625 -1.421875 
z
M 13.921875 21 
Q 13.921875 13.578125 17.015625 9.890625 
Q 20.125 6.203125 26.421875 6.203125 
Q 35.453125 6.203125 41.375 14.078125 
Q 47.3125 21.96875 47.3125 34.078125 
Q 47.3125 41.15625 44.140625 44.765625 
Q 40.96875 48.390625 34.8125 48.390625 
Q 29.734375 48.390625 25.78125 46.015625 
Q 21.828125 43.65625 18.703125 38.8125 
Q 16.40625 35.203125 15.15625 30.5625 
Q 13.921875 25.921875 13.921875 21 
z
" id="DejaVuSans-Oblique-111"/>
       <path d="M 18.3125 75.984375 
L 27.296875 75.984375 
L 12.5 0 
L 3.515625 0 
z
" id="DejaVuSans-Oblique-108"/>
       <path id="DejaVuSans-32"/>
       <path d="M 31 75.875 
Q 24.46875 64.65625 21.28125 53.65625 
Q 18.109375 42.671875 18.109375 31.390625 
Q 18.109375 20.125 21.3125 9.0625 
Q 24.515625 -2 31 -13.1875 
L 23.1875 -13.1875 
Q 15.875 -1.703125 12.234375 9.375 
Q 8.59375 20.453125 8.59375 31.390625 
Q 8.59375 42.28125 12.203125 53.3125 
Q 15.828125 64.359375 23.1875 75.875 
z
" id="DejaVuSans-40"/>
       <path d="M 45.40625 46.390625 
L 45.40625 75.984375 
L 54.390625 75.984375 
L 54.390625 0 
L 45.40625 0 
L 45.40625 8.203125 
Q 42.578125 3.328125 38.25 0.953125 
Q 33.9375 -1.421875 27.875 -1.421875 
Q 17.96875 -1.421875 11.734375 6.484375 
Q 5.515625 14.40625 5.515625 27.296875 
Q 5.515625 40.1875 11.734375 48.09375 
Q 17.96875 56 27.875 56 
Q 33.9375 56 38.25 53.625 
Q 42.578125 51.265625 45.40625 46.390625 
z
M 14.796875 27.296875 
Q 14.796875 17.390625 18.875 11.75 
Q 22.953125 6.109375 30.078125 6.109375 
Q 37.203125 6.109375 41.296875 11.75 
Q 45.40625 17.390625 45.40625 27.296875 
Q 45.40625 37.203125 41.296875 42.84375 
Q 37.203125 48.484375 30.078125 48.484375 
Q 22.953125 48.484375 18.875 42.84375 
Q 14.796875 37.203125 14.796875 27.296875 
z
" id="DejaVuSans-100"/>
       <path d="M 56.203125 29.59375 
L 56.203125 25.203125 
L 14.890625 25.203125 
Q 15.484375 15.921875 20.484375 11.0625 
Q 25.484375 6.203125 34.421875 6.203125 
Q 39.59375 6.203125 44.453125 7.46875 
Q 49.3125 8.734375 54.109375 11.28125 
L 54.109375 2.78125 
Q 49.265625 0.734375 44.1875 -0.34375 
Q 39.109375 -1.421875 33.890625 -1.421875 
Q 20.796875 -1.421875 13.15625 6.1875 
Q 5.515625 13.8125 5.515625 26.8125 
Q 5.515625 40.234375 12.765625 48.109375 
Q 20.015625 56 32.328125 56 
Q 43.359375 56 49.78125 48.890625 
Q 56.203125 41.796875 56.203125 29.59375 
z
M 47.21875 32.234375 
Q 47.125 39.59375 43.09375 43.984375 
Q 39.0625 48.390625 32.421875 48.390625 
Q 24.90625 48.390625 20.390625 44.140625 
Q 15.875 39.890625 15.1875 32.171875 
z
" id="DejaVuSans-101"/>
       <path d="M 45.40625 27.984375 
Q 45.40625 37.75 41.375 43.109375 
Q 37.359375 48.484375 30.078125 48.484375 
Q 22.859375 48.484375 18.828125 43.109375 
Q 14.796875 37.75 14.796875 27.984375 
Q 14.796875 18.265625 18.828125 12.890625 
Q 22.859375 7.515625 30.078125 7.515625 
Q 37.359375 7.515625 41.375 12.890625 
Q 45.40625 18.265625 45.40625 27.984375 
z
M 54.390625 6.78125 
Q 54.390625 -7.171875 48.1875 -13.984375 
Q 42 -20.796875 29.203125 -20.796875 
Q 24.46875 -20.796875 20.265625 -20.09375 
Q 16.0625 -19.390625 12.109375 -17.921875 
L 12.109375 -9.1875 
Q 16.0625 -11.328125 19.921875 -12.34375 
Q 23.78125 -13.375 27.78125 -13.375 
Q 36.625 -13.375 41.015625 -8.765625 
Q 45.40625 -4.15625 45.40625 5.171875 
L 45.40625 9.625 
Q 42.625 4.78125 38.28125 2.390625 
Q 33.9375 0 27.875 0 
Q 17.828125 0 11.671875 7.65625 
Q 5.515625 15.328125 5.515625 27.984375 
Q 5.515625 40.671875 11.671875 48.328125 
Q 17.828125 56 27.875 56 
Q 33.9375 56 38.28125 53.609375 
Q 42.625 51.21875 45.40625 46.390625 
L 45.40625 54.6875 
L 54.390625 54.6875 
z
" id="DejaVuSans-103"/>
       <path d="M 8.015625 75.875 
L 15.828125 75.875 
Q 23.140625 64.359375 26.78125 53.3125 
Q 30.421875 42.28125 30.421875 31.390625 
Q 30.421875 20.453125 26.78125 9.375 
Q 23.140625 -1.703125 15.828125 -13.1875 
L 8.015625 -13.1875 
Q 14.5 -2 17.703125 9.0625 
Q 20.90625 20.125 20.90625 31.390625 
Q 20.90625 42.671875 17.703125 53.65625 
Q 14.5 64.65625 8.015625 75.875 
z
" id="DejaVuSans-41"/>
      </defs>
      <use transform="translate(0 0.015625)" xlink:href="#DejaVuSans-Oblique-114"/>
      <use transform="translate(41.113281 0.015625)" xlink:href="#DejaVuSans-Oblique-111"/>
      <use transform="translate(102.294922 0.015625)" xlink:href="#DejaVuSans-Oblique-108"/>
      <use transform="translate(130.078125 0.015625)" xlink:href="#DejaVuSans-Oblique-108"/>
      <use transform="translate(157.861328 0.015625)" xlink:href="#DejaVuSans-32"/>
      <use transform="translate(189.648438 0.015625)" xlink:href="#DejaVuSans-40"/>
      <use transform="translate(228.662109 0.015625)" xlink:href="#DejaVuSans-100"/>
      <use transform="translate(292.138672 0.015625)" xlink:href="#DejaVuSans-101"/>
      <use transform="translate(353.662109 0.015625)" xlink:href="#DejaVuSans-103"/>
      <use transform="translate(417.138672 0.015625)" xlink:href="#DejaVuSans-41"/>
     </g>
    </g>
   </g>
   <g id="line2d_12">
    <path clip-path="url(#pd3cec11f52)" d="M 85.755682 108.914699 
L 138.172613 108.816311 
L 138.966809 108.40089 
L 140.290468 107.336972 
L 147.438232 100.973355 
L 149.291355 99.766006 
L 151.144479 98.840196 
L 152.732871 98.292273 
L 154.321263 97.995444 
L 156.703851 97.929239 
L 159.880634 98.017138 
L 163.057418 98.389967 
L 164.910542 98.294298 
L 166.234202 98.463369 
L 167.557862 98.854051 
L 169.146254 99.572096 
L 169.940449 99.94957 
L 170.734645 99.998551 
L 171.793573 99.717817 
L 176.029285 98.18612 
L 177.617677 97.944315 
L 179.206069 97.946557 
L 180.79446 98.19558 
L 182.382852 98.686448 
L 183.971244 99.408418 
L 185.824368 100.521282 
L 187.677492 101.893444 
L 191.119007 104.589274 
L 192.177935 104.874165 
L 192.972131 105.07104 
L 193.766327 105.520094 
L 195.089987 106.595294 
L 195.884183 107.240988 
L 196.413647 107.375107 
L 196.943111 107.282857 
L 197.737307 106.878514 
L 199.060967 105.844538 
L 204.620338 101.068151 
L 206.473462 99.843021 
L 208.326586 98.896254 
L 209.385513 98.523493 
L 210.709173 98.347326 
L 211.768101 98.371695 
L 213.091761 98.64644 
L 214.415421 99.130709 
L 216.003813 99.949444 
L 217.856937 101.183216 
L 219.974792 102.895012 
L 222.35738 105.114252 
L 226.063628 108.647096 
L 228.181484 109.709441 
L 230.564071 111.540417 
L 231.887731 112.151619 
L 233.211391 113.1843 
L 235.593979 115.156393 
L 237.711835 116.249426 
L 239.564958 117.379863 
L 240.623886 117.636784 
L 242.47701 117.962161 
L 244.065402 118.678226 
L 246.44799 119.707524 
L 248.036382 120.155536 
L 249.624773 120.367331 
L 251.213165 120.332848 
L 252.801557 120.051635 
L 254.389949 119.529677 
L 255.978341 118.778454 
L 257.831465 117.63459 
L 259.419857 116.606602 
L 259.94932 116.46053 
L 260.743516 116.567613 
L 261.802444 117.043764 
L 266.56762 119.591164 
L 268.156012 120.088425 
L 269.479672 120.303829 
L 272.126991 120.366751 
L 293.835013 120.378199 
L 298.600189 120.382406 
L 311.572055 120.328835 
L 313.160447 120.076635 
L 314.748839 119.586012 
L 316.337231 118.861354 
L 318.190355 117.743235 
L 320.043478 116.365493 
L 322.161334 114.527532 
L 325.073386 111.671676 
L 327.191242 109.613773 
L 327.985438 109.241019 
L 328.514902 109.231442 
L 329.838561 109.474167 
L 331.691685 108.970472 
L 332.221149 109.050455 
L 333.015345 109.449467 
L 334.074273 110.270433 
L 335.133201 111.097176 
L 335.927397 111.423057 
L 337.251057 111.671351 
L 340.163108 112.064891 
L 341.222036 112.776763 
L 342.545696 113.756677 
L 343.604624 114.120793 
L 344.928284 114.305322 
L 346.251944 114.459357 
L 347.04614 114.839188 
L 349.69346 116.352185 
L 351.017119 116.720222 
L 352.340779 117.437999 
L 354.723367 118.765862 
L 356.576491 119.604503 
L 357.900151 119.991627 
L 361.076934 120.365502 
L 363.988986 120.37213 
L 386.755936 120.38298 
L 399.727803 120.292123 
L 401.316194 119.999707 
L 402.904586 119.467488 
L 403.169318 119.355732 
L 403.169318 119.355732 
" style="fill:none;stroke:#000000;stroke-dasharray:5.55,2.4;stroke-dashoffset:0;stroke-opacity:0.5;stroke-width:1.5;"/>
   </g>
   <g id="line2d_13">
    <path clip-path="url(#pd3cec11f52)" d="M 86.819375 108.889525 
L 87.348839 18.984337 
L 87.613571 18.964884 
L 88.143035 108.627677 
L 88.672499 113.023558 
L 89.201963 112.80614 
L 90.525623 111.249087 
L 91.58455 110.177624 
L 92.378746 109.709892 
L 93.437674 109.307261 
L 94.761334 109.254123 
L 96.349726 109.197541 
L 97.408654 108.95404 
L 99.791242 108.120517 
L 100.585438 107.998214 
L 101.114901 107.671862 
L 102.703293 107.746192 
L 106.939005 108.341027 
L 109.056861 108.375933 
L 109.586325 108.448609 
L 110.380521 108.74084 
L 111.174716 109.21896 
L 112.498376 110.029119 
L 113.02784 110.091834 
L 114.616232 110.12733 
L 115.67516 111.01226 
L 116.469356 111.691155 
L 117.263552 112.118528 
L 118.587212 112.208647 
L 125.205511 111.646277 
L 130.235419 111.629003 
L 135.530058 111.745443 
L 138.706842 111.53092 
L 139.236306 111.264905 
L 139.76577 110.907598 
L 142.677821 106.487822 
L 143.207285 106.337724 
L 143.736749 106.392951 
L 145.589873 102.61103 
L 145.854605 102.375548 
L 146.119337 102.517117 
L 146.384069 102.400609 
L 146.913533 101.640303 
L 147.707729 100.01776 
L 149.296121 98.363987 
L 149.825585 97.7737 
L 150.619781 97.097183 
L 151.413976 96.468495 
L 152.208172 96.175538 
L 154.855492 95.970003 
L 157.502812 96.52353 
L 158.56174 96.566097 
L 159.8854 96.72666 
L 160.679596 96.872793 
L 162.267987 97.404241 
L 163.856379 97.00797 
L 164.915307 97.074048 
L 168.886287 98.770025 
L 169.680483 99.101936 
L 170.209947 99.087188 
L 171.004142 98.64726 
L 172.327802 97.703278 
L 174.71039 96.918575 
L 175.769318 97.138036 
L 176.563514 97.312976 
L 178.416638 97.934451 
L 181.063957 99.378384 
L 181.593421 99.703383 
L 182.652349 100.134332 
L 184.505473 100.626894 
L 186.358597 101.266367 
L 187.152793 101.637533 
L 187.946989 102.052834 
L 189.535381 103.799699 
L 190.859041 104.727756 
L 191.653236 105.051104 
L 192.447432 105.190004 
L 193.771092 105.384426 
L 194.83002 105.791808 
L 196.683144 106.842198 
L 197.47734 106.892644 
L 198.006804 106.719812 
L 199.065732 105.890942 
L 200.12466 104.807466 
L 203.566175 100.745736 
L 206.213495 97.825093 
L 207.007691 97.078904 
L 208.331351 96.224444 
L 210.449207 95.052487 
L 211.508134 94.566881 
L 212.037598 94.503458 
L 212.831794 94.63427 
L 213.62599 94.951745 
L 214.420186 95.530416 
L 215.743846 97.030475 
L 217.332238 99.750374 
L 219.450094 103.358376 
L 219.979558 103.960115 
L 221.303217 105.636336 
L 222.097413 106.383183 
L 222.891609 107.139958 
L 224.215269 108.759157 
L 225.274197 109.843462 
L 226.862589 111.120219 
L 228.186249 112.06964 
L 229.245177 112.8452 
L 230.304105 113.730214 
L 232.951424 115.14721 
L 235.334012 116.771897 
L 237.7166 118.349535 
L 239.04026 119.279074 
L 240.099188 119.795601 
L 240.893384 119.968108 
L 242.481775 119.960571 
L 243.275971 120.140957 
L 244.864363 120.721261 
L 247.511683 122.263321 
L 249.364807 122.926156 
L 250.159003 122.937308 
L 256.247838 121.340594 
L 257.042034 120.931561 
L 258.100962 120.122779 
L 259.954086 118.589079 
L 260.48355 118.541368 
L 261.013014 118.68685 
L 261.542477 118.972416 
L 262.866137 119.902846 
L 264.719261 120.817727 
L 266.572385 121.363781 
L 267.631313 121.37011 
L 268.690241 121.072615 
L 270.278633 120.127633 
L 271.072829 119.63705 
L 272.131756 119.241835 
L 273.190684 119.230168 
L 275.043808 119.581448 
L 275.30854 119.600931 
L 277.161664 119.065233 
L 277.95586 118.947645 
L 279.808984 119.502947 
L 282.191571 120.10038 
L 283.515231 120.149436 
L 284.838891 120.090216 
L 286.427283 119.878169 
L 286.956747 119.840055 
L 288.809871 120.00909 
L 289.868799 120.231999 
L 290.927727 120.083076 
L 291.45719 119.841992 
L 292.516118 119.320234 
L 293.575046 119.3769 
L 295.42817 119.740156 
L 298.869686 119.024021 
L 299.39915 119.082473 
L 300.987542 119.564016 
L 302.311201 119.95679 
L 303.105397 120.052106 
L 305.752717 119.578279 
L 307.870573 119.313068 
L 309.723697 119.724605 
L 311.047357 120.158118 
L 311.841552 120.062867 
L 313.165212 119.328798 
L 313.959408 118.60531 
L 314.488872 117.98313 
L 315.018336 117.908431 
L 315.812532 117.121099 
L 316.341996 117.210121 
L 317.665656 116.199087 
L 318.989316 114.972037 
L 323.754491 111.231796 
L 325.342883 110.070749 
L 326.931275 108.90797 
L 328.254935 108.113293 
L 328.784399 108.0201 
L 329.578595 108.146507 
L 330.108059 108.258846 
L 331.961182 108.254871 
L 333.02011 108.750913 
L 333.814306 109.361496 
L 335.402698 110.830135 
L 336.726358 111.531937 
L 337.785286 111.832168 
L 339.63841 112.095971 
L 340.432606 112.175204 
L 340.96207 112.446066 
L 342.020997 113.20111 
L 343.609389 114.353755 
L 344.403585 114.682293 
L 345.462513 115.035638 
L 346.256709 114.967724 
L 347.315637 114.753631 
L 349.433493 115.76088 
L 350.757153 117.026671 
L 351.551348 117.194785 
L 352.080812 117.161997 
L 352.345544 117.097383 
L 352.610276 117.173487 
L 355.257596 119.487198 
L 356.051792 120.183686 
L 356.581256 120.248042 
L 357.375452 120.210696 
L 357.904916 120.349059 
L 359.228576 121.135448 
L 359.75804 121.176992 
L 361.0817 120.752929 
L 362.670091 121.647069 
L 363.993751 121.984778 
L 364.787947 121.976935 
L 366.905803 121.571003 
L 367.435267 121.492653 
L 367.964731 121.419208 
L 368.494195 121.350768 
L 370.347319 121.781722 
L 374.58303 121.210447 
L 376.171422 121.217368 
L 380.407134 121.197264 
L 382.789721 121.226364 
L 385.701773 121.214254 
L 387.290165 121.144894 
L 395.232124 121.090828 
L 395.761588 121.086819 
L 396.555784 121.236785 
L 397.614712 121.190591 
L 399.203104 120.84508 
L 402.909351 121.087692 
L 402.909351 121.087692 
" style="fill:none;stroke:#4c72b0;stroke-linecap:round;stroke-opacity:0.75;stroke-width:1.5;"/>
   </g>
   <g id="patch_3">
    <path d="M 69.885 128.156844 
L 69.885 13.765267 
" style="fill:none;stroke:#ffffff;stroke-linecap:square;stroke-linejoin:miter;stroke-width:1.25;"/>
   </g>
   <g id="patch_4">
    <path d="M 419.04 128.156844 
L 419.04 13.765267 
" style="fill:none;stroke:#ffffff;stroke-linecap:square;stroke-linejoin:miter;stroke-width:1.25;"/>
   </g>
   <g id="patch_5">
    <path d="M 69.885 128.156844 
L 419.04 128.156844 
" style="fill:none;stroke:#ffffff;stroke-linecap:square;stroke-linejoin:miter;stroke-width:1.25;"/>
   </g>
   <g id="patch_6">
    <path d="M 69.885 13.765267 
L 419.04 13.765267 
" style="fill:none;stroke:#ffffff;stroke-linecap:square;stroke-linejoin:miter;stroke-width:1.25;"/>
   </g>
   <g id="legend_1">
    <g id="patch_7">
     <path d="M 232.311562 55.469017 
L 411.34 55.469017 
Q 413.54 55.469017 413.54 53.269017 
L 413.54 21.465267 
Q 413.54 19.265267 411.34 19.265267 
L 232.311562 19.265267 
Q 230.111562 19.265267 230.111562 21.465267 
L 230.111562 53.269017 
Q 230.111562 55.469017 232.311562 55.469017 
z
" style="fill:#eaeaf2;opacity:0.8;stroke:#cccccc;stroke-linejoin:miter;"/>
    </g>
    <g id="line2d_14">
     <path d="M 234.511562 28.173548 
L 256.511562 28.173548 
" style="fill:none;stroke:#000000;stroke-dasharray:5.55,2.4;stroke-dashoffset:0;stroke-opacity:0.5;stroke-width:1.5;"/>
    </g>
    <g id="line2d_15"/>
    <g id="text_7">
     <!-- /tf:world.base_link_gt -->
     <g style="fill:#262626;" transform="translate(265.311562 32.023548)scale(0.11 -0.11)">
      <defs>
       <path d="M 25.390625 72.90625 
L 33.6875 72.90625 
L 8.296875 -9.28125 
L 0 -9.28125 
z
" id="DejaVuSans-47"/>
       <path d="M 18.3125 70.21875 
L 18.3125 54.6875 
L 36.8125 54.6875 
L 36.8125 47.703125 
L 18.3125 47.703125 
L 18.3125 18.015625 
Q 18.3125 11.328125 20.140625 9.421875 
Q 21.96875 7.515625 27.59375 7.515625 
L 36.8125 7.515625 
L 36.8125 0 
L 27.59375 0 
Q 17.1875 0 13.234375 3.875 
Q 9.28125 7.765625 9.28125 18.015625 
L 9.28125 47.703125 
L 2.6875 47.703125 
L 2.6875 54.6875 
L 9.28125 54.6875 
L 9.28125 70.21875 
z
" id="DejaVuSans-116"/>
       <path d="M 37.109375 75.984375 
L 37.109375 68.5 
L 28.515625 68.5 
Q 23.6875 68.5 21.796875 66.546875 
Q 19.921875 64.59375 19.921875 59.515625 
L 19.921875 54.6875 
L 34.71875 54.6875 
L 34.71875 47.703125 
L 19.921875 47.703125 
L 19.921875 0 
L 10.890625 0 
L 10.890625 47.703125 
L 2.296875 47.703125 
L 2.296875 54.6875 
L 10.890625 54.6875 
L 10.890625 58.5 
Q 10.890625 67.625 15.140625 71.796875 
Q 19.390625 75.984375 28.609375 75.984375 
z
" id="DejaVuSans-102"/>
       <path d="M 11.71875 12.40625 
L 22.015625 12.40625 
L 22.015625 0 
L 11.71875 0 
z
M 11.71875 51.703125 
L 22.015625 51.703125 
L 22.015625 39.3125 
L 11.71875 39.3125 
z
" id="DejaVuSans-58"/>
       <path d="M 4.203125 54.6875 
L 13.1875 54.6875 
L 24.421875 12.015625 
L 35.59375 54.6875 
L 46.1875 54.6875 
L 57.421875 12.015625 
L 68.609375 54.6875 
L 77.59375 54.6875 
L 63.28125 0 
L 52.6875 0 
L 40.921875 44.828125 
L 29.109375 0 
L 18.5 0 
z
" id="DejaVuSans-119"/>
       <path d="M 30.609375 48.390625 
Q 23.390625 48.390625 19.1875 42.75 
Q 14.984375 37.109375 14.984375 27.296875 
Q 14.984375 17.484375 19.15625 11.84375 
Q 23.34375 6.203125 30.609375 6.203125 
Q 37.796875 6.203125 41.984375 11.859375 
Q 46.1875 17.53125 46.1875 27.296875 
Q 46.1875 37.015625 41.984375 42.703125 
Q 37.796875 48.390625 30.609375 48.390625 
z
M 30.609375 56 
Q 42.328125 56 49.015625 48.375 
Q 55.71875 40.765625 55.71875 27.296875 
Q 55.71875 13.875 49.015625 6.21875 
Q 42.328125 -1.421875 30.609375 -1.421875 
Q 18.84375 -1.421875 12.171875 6.21875 
Q 5.515625 13.875 5.515625 27.296875 
Q 5.515625 40.765625 12.171875 48.375 
Q 18.84375 56 30.609375 56 
z
" id="DejaVuSans-111"/>
       <path d="M 41.109375 46.296875 
Q 39.59375 47.171875 37.8125 47.578125 
Q 36.03125 48 33.890625 48 
Q 26.265625 48 22.1875 43.046875 
Q 18.109375 38.09375 18.109375 28.8125 
L 18.109375 0 
L 9.078125 0 
L 9.078125 54.6875 
L 18.109375 54.6875 
L 18.109375 46.1875 
Q 20.953125 51.171875 25.484375 53.578125 
Q 30.03125 56 36.53125 56 
Q 37.453125 56 38.578125 55.875 
Q 39.703125 55.765625 41.0625 55.515625 
z
" id="DejaVuSans-114"/>
       <path d="M 9.421875 75.984375 
L 18.40625 75.984375 
L 18.40625 0 
L 9.421875 0 
z
" id="DejaVuSans-108"/>
       <path d="M 48.6875 27.296875 
Q 48.6875 37.203125 44.609375 42.84375 
Q 40.53125 48.484375 33.40625 48.484375 
Q 26.265625 48.484375 22.1875 42.84375 
Q 18.109375 37.203125 18.109375 27.296875 
Q 18.109375 17.390625 22.1875 11.75 
Q 26.265625 6.109375 33.40625 6.109375 
Q 40.53125 6.109375 44.609375 11.75 
Q 48.6875 17.390625 48.6875 27.296875 
z
M 18.109375 46.390625 
Q 20.953125 51.265625 25.265625 53.625 
Q 29.59375 56 35.59375 56 
Q 45.5625 56 51.78125 48.09375 
Q 58.015625 40.1875 58.015625 27.296875 
Q 58.015625 14.40625 51.78125 6.484375 
Q 45.5625 -1.421875 35.59375 -1.421875 
Q 29.59375 -1.421875 25.265625 0.953125 
Q 20.953125 3.328125 18.109375 8.203125 
L 18.109375 0 
L 9.078125 0 
L 9.078125 75.984375 
L 18.109375 75.984375 
z
" id="DejaVuSans-98"/>
       <path d="M 34.28125 27.484375 
Q 23.390625 27.484375 19.1875 25 
Q 14.984375 22.515625 14.984375 16.5 
Q 14.984375 11.71875 18.140625 8.90625 
Q 21.296875 6.109375 26.703125 6.109375 
Q 34.1875 6.109375 38.703125 11.40625 
Q 43.21875 16.703125 43.21875 25.484375 
L 43.21875 27.484375 
z
M 52.203125 31.203125 
L 52.203125 0 
L 43.21875 0 
L 43.21875 8.296875 
Q 40.140625 3.328125 35.546875 0.953125 
Q 30.953125 -1.421875 24.3125 -1.421875 
Q 15.921875 -1.421875 10.953125 3.296875 
Q 6 8.015625 6 15.921875 
Q 6 25.140625 12.171875 29.828125 
Q 18.359375 34.515625 30.609375 34.515625 
L 43.21875 34.515625 
L 43.21875 35.40625 
Q 43.21875 41.609375 39.140625 45 
Q 35.0625 48.390625 27.6875 48.390625 
Q 23 48.390625 18.546875 47.265625 
Q 14.109375 46.140625 10.015625 43.890625 
L 10.015625 52.203125 
Q 14.9375 54.109375 19.578125 55.046875 
Q 24.21875 56 28.609375 56 
Q 40.484375 56 46.34375 49.84375 
Q 52.203125 43.703125 52.203125 31.203125 
z
" id="DejaVuSans-97"/>
       <path d="M 44.28125 53.078125 
L 44.28125 44.578125 
Q 40.484375 46.53125 36.375 47.5 
Q 32.28125 48.484375 27.875 48.484375 
Q 21.1875 48.484375 17.84375 46.4375 
Q 14.5 44.390625 14.5 40.28125 
Q 14.5 37.15625 16.890625 35.375 
Q 19.28125 33.59375 26.515625 31.984375 
L 29.59375 31.296875 
Q 39.15625 29.25 43.1875 25.515625 
Q 47.21875 21.78125 47.21875 15.09375 
Q 47.21875 7.46875 41.1875 3.015625 
Q 35.15625 -1.421875 24.609375 -1.421875 
Q 20.21875 -1.421875 15.453125 -0.5625 
Q 10.6875 0.296875 5.421875 2 
L 5.421875 11.28125 
Q 10.40625 8.6875 15.234375 7.390625 
Q 20.0625 6.109375 24.8125 6.109375 
Q 31.15625 6.109375 34.5625 8.28125 
Q 37.984375 10.453125 37.984375 14.40625 
Q 37.984375 18.0625 35.515625 20.015625 
Q 33.0625 21.96875 24.703125 23.78125 
L 21.578125 24.515625 
Q 13.234375 26.265625 9.515625 29.90625 
Q 5.8125 33.546875 5.8125 39.890625 
Q 5.8125 47.609375 11.28125 51.796875 
Q 16.75 56 26.8125 56 
Q 31.78125 56 36.171875 55.265625 
Q 40.578125 54.546875 44.28125 53.078125 
z
" id="DejaVuSans-115"/>
       <path d="M 50.984375 -16.609375 
L 50.984375 -23.578125 
L -0.984375 -23.578125 
L -0.984375 -16.609375 
z
" id="DejaVuSans-95"/>
       <path d="M 9.421875 54.6875 
L 18.40625 54.6875 
L 18.40625 0 
L 9.421875 0 
z
M 9.421875 75.984375 
L 18.40625 75.984375 
L 18.40625 64.59375 
L 9.421875 64.59375 
z
" id="DejaVuSans-105"/>
       <path d="M 54.890625 33.015625 
L 54.890625 0 
L 45.90625 0 
L 45.90625 32.71875 
Q 45.90625 40.484375 42.875 44.328125 
Q 39.84375 48.1875 33.796875 48.1875 
Q 26.515625 48.1875 22.3125 43.546875 
Q 18.109375 38.921875 18.109375 30.90625 
L 18.109375 0 
L 9.078125 0 
L 9.078125 54.6875 
L 18.109375 54.6875 
L 18.109375 46.1875 
Q 21.34375 51.125 25.703125 53.5625 
Q 30.078125 56 35.796875 56 
Q 45.21875 56 50.046875 50.171875 
Q 54.890625 44.34375 54.890625 33.015625 
z
" id="DejaVuSans-110"/>
       <path d="M 9.078125 75.984375 
L 18.109375 75.984375 
L 18.109375 31.109375 
L 44.921875 54.6875 
L 56.390625 54.6875 
L 27.390625 29.109375 
L 57.625 0 
L 45.90625 0 
L 18.109375 26.703125 
L 18.109375 0 
L 9.078125 0 
z
" id="DejaVuSans-107"/>
      </defs>
      <use xlink:href="#DejaVuSans-47"/>
      <use x="33.691406" xlink:href="#DejaVuSans-116"/>
      <use x="72.900391" xlink:href="#DejaVuSans-102"/>
      <use x="104.480469" xlink:href="#DejaVuSans-58"/>
      <use x="138.171875" xlink:href="#DejaVuSans-119"/>
      <use x="219.958984" xlink:href="#DejaVuSans-111"/>
      <use x="281.140625" xlink:href="#DejaVuSans-114"/>
      <use x="322.253906" xlink:href="#DejaVuSans-108"/>
      <use x="350.037109" xlink:href="#DejaVuSans-100"/>
      <use x="413.513672" xlink:href="#DejaVuSans-46"/>
      <use x="445.300781" xlink:href="#DejaVuSans-98"/>
      <use x="508.777344" xlink:href="#DejaVuSans-97"/>
      <use x="570.056641" xlink:href="#DejaVuSans-115"/>
      <use x="622.15625" xlink:href="#DejaVuSans-101"/>
      <use x="683.679688" xlink:href="#DejaVuSans-95"/>
      <use x="733.679688" xlink:href="#DejaVuSans-108"/>
      <use x="761.462891" xlink:href="#DejaVuSans-105"/>
      <use x="789.246094" xlink:href="#DejaVuSans-110"/>
      <use x="852.625" xlink:href="#DejaVuSans-107"/>
      <use x="910.535156" xlink:href="#DejaVuSans-95"/>
      <use x="960.535156" xlink:href="#DejaVuSans-103"/>
      <use x="1024.011719" xlink:href="#DejaVuSans-116"/>
     </g>
    </g>
    <g id="line2d_16">
     <path d="M 234.511562 44.625423 
L 256.511562 44.625423 
" style="fill:none;stroke:#4c72b0;stroke-linecap:round;stroke-opacity:0.75;stroke-width:1.5;"/>
    </g>
    <g id="line2d_17"/>
    <g id="text_8">
     <!-- /tf:world.base_link_kimera -->
     <g style="fill:#262626;" transform="translate(265.311562 48.475423)scale(0.11 -0.11)">
      <defs>
       <path d="M 52 44.1875 
Q 55.375 50.25 60.0625 53.125 
Q 64.75 56 71.09375 56 
Q 79.640625 56 84.28125 50.015625 
Q 88.921875 44.046875 88.921875 33.015625 
L 88.921875 0 
L 79.890625 0 
L 79.890625 32.71875 
Q 79.890625 40.578125 77.09375 44.375 
Q 74.3125 48.1875 68.609375 48.1875 
Q 61.625 48.1875 57.5625 43.546875 
Q 53.515625 38.921875 53.515625 30.90625 
L 53.515625 0 
L 44.484375 0 
L 44.484375 32.71875 
Q 44.484375 40.625 41.703125 44.40625 
Q 38.921875 48.1875 33.109375 48.1875 
Q 26.21875 48.1875 22.15625 43.53125 
Q 18.109375 38.875 18.109375 30.90625 
L 18.109375 0 
L 9.078125 0 
L 9.078125 54.6875 
L 18.109375 54.6875 
L 18.109375 46.1875 
Q 21.1875 51.21875 25.484375 53.609375 
Q 29.78125 56 35.6875 56 
Q 41.65625 56 45.828125 52.96875 
Q 50 49.953125 52 44.1875 
z
" id="DejaVuSans-109"/>
      </defs>
      <use xlink:href="#DejaVuSans-47"/>
      <use x="33.691406" xlink:href="#DejaVuSans-116"/>
      <use x="72.900391" xlink:href="#DejaVuSans-102"/>
      <use x="104.480469" xlink:href="#DejaVuSans-58"/>
      <use x="138.171875" xlink:href="#DejaVuSans-119"/>
      <use x="219.958984" xlink:href="#DejaVuSans-111"/>
      <use x="281.140625" xlink:href="#DejaVuSans-114"/>
      <use x="322.253906" xlink:href="#DejaVuSans-108"/>
      <use x="350.037109" xlink:href="#DejaVuSans-100"/>
      <use x="413.513672" xlink:href="#DejaVuSans-46"/>
      <use x="445.300781" xlink:href="#DejaVuSans-98"/>
      <use x="508.777344" xlink:href="#DejaVuSans-97"/>
      <use x="570.056641" xlink:href="#DejaVuSans-115"/>
      <use x="622.15625" xlink:href="#DejaVuSans-101"/>
      <use x="683.679688" xlink:href="#DejaVuSans-95"/>
      <use x="733.679688" xlink:href="#DejaVuSans-108"/>
      <use x="761.462891" xlink:href="#DejaVuSans-105"/>
      <use x="789.246094" xlink:href="#DejaVuSans-110"/>
      <use x="852.625" xlink:href="#DejaVuSans-107"/>
      <use x="910.535156" xlink:href="#DejaVuSans-95"/>
      <use x="960.535156" xlink:href="#DejaVuSans-107"/>
      <use x="1018.445312" xlink:href="#DejaVuSans-105"/>
      <use x="1046.228516" xlink:href="#DejaVuSans-109"/>
      <use x="1143.640625" xlink:href="#DejaVuSans-101"/>
      <use x="1205.164062" xlink:href="#DejaVuSans-114"/>
      <use x="1246.277344" xlink:href="#DejaVuSans-97"/>
     </g>
    </g>
   </g>
  </g>
  <g id="axes_2">
   <g id="patch_8">
    <path d="M 69.885 255.508422 
L 419.04 255.508422 
L 419.04 141.116844 
L 69.885 141.116844 
z
" style="fill:#eaeaf2;"/>
   </g>
   <g id="matplotlib.axis_3">
    <g id="xtick_7">
     <g id="line2d_18">
      <path clip-path="url(#p5249fdb1b5)" d="M 114.068766 255.508422 
L 114.068766 141.116844 
" style="fill:none;stroke:#ffffff;stroke-linecap:round;"/>
     </g>
    </g>
    <g id="xtick_8">
     <g id="line2d_19">
      <path clip-path="url(#p5249fdb1b5)" d="M 167.015161 255.508422 
L 167.015161 141.116844 
" style="fill:none;stroke:#ffffff;stroke-linecap:round;"/>
     </g>
    </g>
    <g id="xtick_9">
     <g id="line2d_20">
      <path clip-path="url(#p5249fdb1b5)" d="M 219.961556 255.508422 
L 219.961556 141.116844 
" style="fill:none;stroke:#ffffff;stroke-linecap:round;"/>
     </g>
    </g>
    <g id="xtick_10">
     <g id="line2d_21">
      <path clip-path="url(#p5249fdb1b5)" d="M 272.907951 255.508422 
L 272.907951 141.116844 
" style="fill:none;stroke:#ffffff;stroke-linecap:round;"/>
     </g>
    </g>
    <g id="xtick_11">
     <g id="line2d_22">
      <path clip-path="url(#p5249fdb1b5)" d="M 325.854345 255.508422 
L 325.854345 141.116844 
" style="fill:none;stroke:#ffffff;stroke-linecap:round;"/>
     </g>
    </g>
    <g id="xtick_12">
     <g id="line2d_23">
      <path clip-path="url(#p5249fdb1b5)" d="M 378.80074 255.508422 
L 378.80074 141.116844 
" style="fill:none;stroke:#ffffff;stroke-linecap:round;"/>
     </g>
    </g>
   </g>
   <g id="matplotlib.axis_4">
    <g id="ytick_6">
     <g id="line2d_24">
      <path clip-path="url(#p5249fdb1b5)" d="M 69.885 230.475815 
L 419.04 230.475815 
" style="fill:none;stroke:#ffffff;stroke-linecap:round;"/>
     </g>
     <g id="text_9">
      <!-- 0 -->
      <g style="fill:#262626;" transform="translate(53.38625 234.654956)scale(0.11 -0.11)">
       <use xlink:href="#DejaVuSans-48"/>
      </g>
     </g>
    </g>
    <g id="ytick_7">
     <g id="line2d_25">
      <path clip-path="url(#p5249fdb1b5)" d="M 69.885 188.837935 
L 419.04 188.837935 
" style="fill:none;stroke:#ffffff;stroke-linecap:round;"/>
     </g>
     <g id="text_10">
      <!-- 2 -->
      <g style="fill:#262626;" transform="translate(53.38625 193.017075)scale(0.11 -0.11)">
       <use xlink:href="#DejaVuSans-50"/>
      </g>
     </g>
    </g>
    <g id="ytick_8">
     <g id="line2d_26">
      <path clip-path="url(#p5249fdb1b5)" d="M 69.885 147.200054 
L 419.04 147.200054 
" style="fill:none;stroke:#ffffff;stroke-linecap:round;"/>
     </g>
     <g id="text_11">
      <!-- 4 -->
      <g style="fill:#262626;" transform="translate(53.38625 151.379195)scale(0.11 -0.11)">
       <defs>
        <path d="M 37.796875 64.3125 
L 12.890625 25.390625 
L 37.796875 25.390625 
z
M 35.203125 72.90625 
L 47.609375 72.90625 
L 47.609375 25.390625 
L 58.015625 25.390625 
L 58.015625 17.1875 
L 47.609375 17.1875 
L 47.609375 0 
L 37.796875 0 
L 37.796875 17.1875 
L 4.890625 17.1875 
L 4.890625 26.703125 
z
" id="DejaVuSans-52"/>
       </defs>
       <use xlink:href="#DejaVuSans-52"/>
      </g>
     </g>
    </g>
    <g id="text_12">
     <!-- $pitch$ (deg) -->
     <g style="fill:#262626;" transform="translate(46.86625 231.192633)rotate(-90)scale(0.12 -0.12)">
      <defs>
       <path d="M 49.609375 33.6875 
Q 49.609375 40.875 46.484375 44.671875 
Q 43.359375 48.484375 37.5 48.484375 
Q 33.5 48.484375 29.859375 46.4375 
Q 26.21875 44.390625 23.390625 40.484375 
Q 20.609375 36.625 18.9375 31.15625 
Q 17.28125 25.6875 17.28125 20.3125 
Q 17.28125 13.484375 20.40625 9.796875 
Q 23.53125 6.109375 29.296875 6.109375 
Q 33.546875 6.109375 37.1875 8.109375 
Q 40.828125 10.109375 43.40625 13.921875 
Q 46.1875 17.921875 47.890625 23.34375 
Q 49.609375 28.765625 49.609375 33.6875 
z
M 21.78125 46.390625 
Q 25.390625 51.125 30.296875 53.5625 
Q 35.203125 56 41.21875 56 
Q 49.609375 56 54.25 50.5 
Q 58.890625 45.015625 58.890625 35.109375 
Q 58.890625 27 56 19.65625 
Q 53.125 12.3125 47.703125 6.5 
Q 44.09375 2.640625 39.546875 0.609375 
Q 35.015625 -1.421875 29.984375 -1.421875 
Q 24.171875 -1.421875 20.21875 1 
Q 16.265625 3.421875 14.3125 8.203125 
L 8.6875 -20.796875 
L -0.296875 -20.796875 
L 14.40625 54.6875 
L 23.390625 54.6875 
z
" id="DejaVuSans-Oblique-112"/>
       <path d="M 18.3125 75.984375 
L 27.296875 75.984375 
L 25.09375 64.59375 
L 16.109375 64.59375 
z
M 14.203125 54.6875 
L 23.1875 54.6875 
L 12.5 0 
L 3.515625 0 
z
" id="DejaVuSans-Oblique-105"/>
       <path d="M 42.28125 54.6875 
L 40.921875 47.703125 
L 23 47.703125 
L 17.1875 18.015625 
Q 16.890625 16.359375 16.75 15.234375 
Q 16.609375 14.109375 16.609375 13.484375 
Q 16.609375 10.359375 18.484375 8.9375 
Q 20.359375 7.515625 24.515625 7.515625 
L 33.59375 7.515625 
L 32.078125 0 
L 23.484375 0 
Q 15.484375 0 11.546875 3.125 
Q 7.625 6.25 7.625 12.59375 
Q 7.625 13.71875 7.765625 15.0625 
Q 7.90625 16.40625 8.203125 18.015625 
L 14.015625 47.703125 
L 6.390625 47.703125 
L 7.8125 54.6875 
L 15.28125 54.6875 
L 18.3125 70.21875 
L 27.296875 70.21875 
L 24.3125 54.6875 
z
" id="DejaVuSans-Oblique-116"/>
       <path d="M 53.609375 52.59375 
L 51.8125 43.703125 
Q 48.578125 46.046875 44.9375 47.21875 
Q 41.3125 48.390625 37.40625 48.390625 
Q 33.109375 48.390625 29.21875 46.875 
Q 25.34375 45.359375 22.703125 42.578125 
Q 18.5 38.328125 16.203125 32.609375 
Q 13.921875 26.90625 13.921875 20.796875 
Q 13.921875 13.421875 17.609375 9.8125 
Q 21.296875 6.203125 28.8125 6.203125 
Q 32.515625 6.203125 36.6875 7.328125 
Q 40.875 8.453125 45.40625 10.6875 
L 43.703125 1.8125 
Q 39.796875 0.203125 35.671875 -0.609375 
Q 31.546875 -1.421875 27.203125 -1.421875 
Q 16.3125 -1.421875 10.453125 4.015625 
Q 4.59375 9.46875 4.59375 19.578125 
Q 4.59375 28.078125 7.640625 35.234375 
Q 10.6875 42.390625 16.703125 48.09375 
Q 20.796875 52 26.3125 54 
Q 31.84375 56 38.375 56 
Q 42.1875 56 45.9375 55.140625 
Q 49.703125 54.296875 53.609375 52.59375 
z
" id="DejaVuSans-Oblique-99"/>
       <path d="M 55.71875 33.015625 
L 49.3125 0 
L 40.28125 0 
L 46.6875 32.671875 
Q 47.125 34.96875 47.359375 36.71875 
Q 47.609375 38.484375 47.609375 39.5 
Q 47.609375 43.609375 45.015625 45.890625 
Q 42.4375 48.1875 37.796875 48.1875 
Q 30.5625 48.1875 25.265625 43.296875 
Q 19.96875 38.421875 18.40625 30.328125 
L 12.5 0 
L 3.515625 0 
L 18.3125 75.984375 
L 27.296875 75.984375 
L 21.484375 46.09375 
Q 24.90625 50.6875 30.21875 53.34375 
Q 35.546875 56 41.40625 56 
Q 48.640625 56 52.609375 52.09375 
Q 56.59375 48.1875 56.59375 41.109375 
Q 56.59375 39.359375 56.375 37.359375 
Q 56.15625 35.359375 55.71875 33.015625 
z
" id="DejaVuSans-Oblique-104"/>
      </defs>
      <use transform="translate(0 0.015625)" xlink:href="#DejaVuSans-Oblique-112"/>
      <use transform="translate(63.476562 0.015625)" xlink:href="#DejaVuSans-Oblique-105"/>
      <use transform="translate(91.259766 0.015625)" xlink:href="#DejaVuSans-Oblique-116"/>
      <use transform="translate(130.46875 0.015625)" xlink:href="#DejaVuSans-Oblique-99"/>
      <use transform="translate(185.449219 0.015625)" xlink:href="#DejaVuSans-Oblique-104"/>
      <use transform="translate(248.828125 0.015625)" xlink:href="#DejaVuSans-32"/>
      <use transform="translate(280.615234 0.015625)" xlink:href="#DejaVuSans-40"/>
      <use transform="translate(319.628906 0.015625)" xlink:href="#DejaVuSans-100"/>
      <use transform="translate(383.105469 0.015625)" xlink:href="#DejaVuSans-101"/>
      <use transform="translate(444.628906 0.015625)" xlink:href="#DejaVuSans-103"/>
      <use transform="translate(508.105469 0.015625)" xlink:href="#DejaVuSans-41"/>
     </g>
    </g>
   </g>
   <g id="line2d_27">
    <path clip-path="url(#p5249fdb1b5)" d="M 85.755682 205.070669 
L 139.23154 205.153039 
L 140.290468 205.397837 
L 141.349396 205.8681 
L 142.408324 206.581021 
L 143.467252 207.534412 
L 144.790912 209.048692 
L 146.114572 210.896513 
L 147.702964 213.510701 
L 149.556087 217.031234 
L 151.673943 221.543126 
L 154.585995 227.811728 
L 155.380191 228.585039 
L 156.174387 229.008953 
L 157.233315 229.421266 
L 157.762779 229.98962 
L 158.556975 231.246713 
L 159.880634 233.901558 
L 161.469026 237.192424 
L 161.99849 237.832581 
L 162.263222 238.010265 
L 162.527954 238.045875 
L 163.057418 237.789819 
L 163.851614 237.298841 
L 164.64581 237.029018 
L 164.910542 237.026879 
L 165.440006 237.335496 
L 165.96947 237.940991 
L 166.763666 239.186883 
L 168.352058 242.198379 
L 169.675717 244.738067 
L 170.205181 245.231196 
L 170.734645 245.218799 
L 171.264109 244.868723 
L 172.058305 243.925286 
L 173.117233 242.178575 
L 174.705625 238.979155 
L 177.088213 233.572171 
L 183.177048 219.485831 
L 185.294904 215.186964 
L 187.148028 211.911805 
L 188.73642 209.545078 
L 190.060079 207.931077 
L 190.854275 207.367875 
L 191.913203 207.024666 
L 193.236863 206.689049 
L 196.148915 205.395787 
L 196.943111 205.418053 
L 198.002039 205.677414 
L 199.060967 206.189026 
L 200.119894 206.958612 
L 201.178822 207.978229 
L 202.502482 209.580943 
L 203.826142 211.516201 
L 205.414534 214.226949 
L 207.267658 217.842302 
L 209.650245 222.58466 
L 210.444441 223.326279 
L 210.973905 223.610037 
L 211.503369 223.500339 
L 212.032833 223.027301 
L 212.827029 221.899708 
L 214.150689 219.490118 
L 217.592205 213.005684 
L 219.180597 210.473575 
L 220.768988 208.37399 
L 222.092648 206.993632 
L 223.416308 205.973276 
L 224.475236 205.42715 
L 225.534164 205.136527 
L 227.122556 205.06621 
L 228.710948 205.164927 
L 230.299339 205.589194 
L 232.152463 206.10862 
L 233.211391 206.760919 
L 234.270319 207.683031 
L 235.858711 209.183033 
L 236.652907 209.687913 
L 237.447103 210.469594 
L 238.506031 211.854168 
L 239.300227 212.925278 
L 240.094422 213.566031 
L 240.888618 213.925083 
L 241.947546 214.267334 
L 242.47701 214.716642 
L 243.271206 215.728793 
L 244.330134 217.490168 
L 245.918526 220.652125 
L 248.301114 225.997984 
L 255.448877 242.469887 
L 257.566733 246.648764 
L 258.890393 248.907241 
L 259.419857 249.480954 
L 259.94932 249.769109 
L 260.478784 249.695458 
L 261.008248 249.36961 
L 261.802444 248.555021 
L 262.861372 247.056381 
L 264.185032 244.748097 
L 266.038156 240.999082 
L 268.685476 235.030852 
L 269.21494 233.915828 
L 269.744403 233.155106 
L 270.538599 232.456779 
L 271.332795 232.074014 
L 272.656455 231.651496 
L 273.185919 231.103094 
L 273.980115 229.86416 
L 274.774311 228.668938 
L 275.303775 228.314071 
L 275.833239 228.481515 
L 276.362703 229.009737 
L 277.421631 230.37612 
L 278.215827 230.935498 
L 279.274755 231.308799 
L 280.598414 231.500437 
L 283.245734 231.596237 
L 288.275642 231.595409 
L 288.805106 231.274003 
L 289.33457 230.641901 
L 290.128765 229.549216 
L 290.922961 228.930266 
L 291.187693 228.904481 
L 291.717157 229.18886 
L 292.776085 230.267683 
L 293.040817 230.280981 
L 293.570281 229.977542 
L 294.099745 229.357797 
L 294.893941 228.056786 
L 295.423405 227.18127 
L 295.688137 226.961248 
L 295.952869 226.895015 
L 296.482333 227.116707 
L 297.011797 227.679299 
L 297.805993 228.930117 
L 298.600189 230.13496 
L 299.394385 230.80351 
L 300.18858 231.16929 
L 301.247508 231.4134 
L 301.776972 231.419549 
L 302.306436 231.052078 
L 303.100632 229.978859 
L 304.689024 227.457139 
L 304.953756 227.414219 
L 305.48322 227.67145 
L 306.012684 228.258853 
L 307.601076 230.465874 
L 308.395272 230.984602 
L 309.189468 231.209043 
L 309.718931 230.911219 
L 310.248395 230.29488 
L 311.042591 228.994799 
L 312.366251 226.314157 
L 317.660891 215.092002 
L 319.514015 211.833161 
L 321.102406 209.480281 
L 322.426066 207.871609 
L 323.749726 206.609786 
L 324.808654 205.863402 
L 325.867582 205.358898 
L 326.92651 205.108432 
L 328.779634 205.068037 
L 334.339005 205.25141 
L 335.927397 205.59173 
L 337.780521 205.739333 
L 339.898376 205.862116 
L 340.692572 206.14432 
L 341.7515 206.781195 
L 342.545696 207.301039 
L 343.604624 207.689264 
L 344.928284 207.900021 
L 346.251944 208.083419 
L 347.04614 208.565924 
L 347.840336 209.305088 
L 349.163996 210.661973 
L 349.958191 211.093068 
L 350.752387 211.48191 
L 351.546583 212.260423 
L 352.605511 213.725991 
L 354.458635 216.83499 
L 356.311759 220.603771 
L 357.900151 223.823966 
L 359.488543 225.877685 
L 360.54747 227.91275 
L 361.606398 229.998168 
L 362.400594 230.871337 
L 363.19479 231.348965 
L 364.253718 231.667641 
L 365.84211 231.848416 
L 366.371574 231.933211 
L 366.901038 232.36085 
L 367.695234 233.016621 
L 368.48943 233.374738 
L 369.018894 233.458911 
L 369.548358 233.145798 
L 371.136749 231.497023 
L 371.930945 231.121022 
L 372.989873 230.869941 
L 374.842997 230.716339 
L 379.343441 230.668163 
L 397.609947 230.72585 
L 398.139411 231.137221 
L 398.933607 232.24923 
L 399.992534 234.238257 
L 402.639854 239.953292 
L 403.169318 241.093252 
L 403.169318 241.093252 
" style="fill:none;stroke:#000000;stroke-dasharray:5.55,2.4;stroke-dashoffset:0;stroke-opacity:0.5;stroke-width:1.5;"/>
   </g>
   <g id="line2d_28">
    <path clip-path="url(#p5249fdb1b5)" d="M 86.819375 205.071396 
L 87.348839 208.023997 
L 87.613571 196.383772 
L 88.143035 146.316462 
L 88.672499 197.276304 
L 89.201963 205.010712 
L 89.996159 205.324069 
L 93.437674 205.65742 
L 94.23187 205.585966 
L 94.496602 205.539065 
L 95.290798 204.946863 
L 95.820262 204.759191 
L 96.614458 203.635935 
L 97.143922 203.40811 
L 98.20285 201.769547 
L 98.467582 201.307992 
L 99.261778 200.544131 
L 100.320706 199.1134 
L 100.585438 199.111445 
L 101.114901 199.81567 
L 101.909097 199.138021 
L 102.438561 198.488057 
L 103.232757 198.082922 
L 103.762221 197.766572 
L 104.026953 197.754382 
L 104.556417 197.354836 
L 105.615345 196.547889 
L 108.262665 194.985544 
L 109.586325 194.741095 
L 110.380521 194.346907 
L 110.645253 194.185327 
L 111.439448 193.255606 
L 111.968912 192.970672 
L 112.763108 191.643363 
L 113.292572 191.048325 
L 113.822036 188.336337 
L 114.086768 188.242257 
L 114.880964 191.381518 
L 115.145696 192.191539 
L 115.410428 192.576107 
L 115.939892 192.49626 
L 116.734088 191.598805 
L 118.587212 188.994552 
L 119.381408 188.117214 
L 120.705068 187.367746 
L 122.028727 187.058202 
L 125.205511 187.782333 
L 126.264439 187.54823 
L 127.323367 187.54324 
L 128.117563 187.688682 
L 128.911759 187.935484 
L 129.441223 187.940053 
L 130.500151 187.835581 
L 131.294346 188.010459 
L 132.353274 187.940803 
L 133.412202 188.185176 
L 133.941666 188.237908 
L 135.000594 187.911865 
L 135.530058 187.977722 
L 136.059522 188.049805 
L 136.588986 188.113441 
L 137.383182 188.383437 
L 137.912646 188.541331 
L 138.44211 188.916737 
L 138.971574 191.104845 
L 139.236306 193.226998 
L 139.76577 199.532427 
L 140.295234 199.595365 
L 140.559966 201.492792 
L 141.089429 209.011023 
L 141.618893 207.997499 
L 141.883625 207.84528 
L 142.413089 208.23519 
L 142.942553 204.094132 
L 143.207285 203.748116 
L 143.736749 206.481053 
L 144.266213 202.945882 
L 144.530945 202.289136 
L 145.060409 203.181747 
L 145.589873 202.093141 
L 145.854605 202.729675 
L 146.384069 205.661995 
L 146.913533 206.833867 
L 147.707729 211.216115 
L 148.237193 212.990907 
L 149.031389 213.817866 
L 149.560853 213.84902 
L 150.355049 215.419749 
L 152.472904 222.040388 
L 153.796564 226.053414 
L 154.326028 227.169315 
L 154.855492 227.53103 
L 155.649688 227.342181 
L 156.708616 226.686153 
L 156.973348 226.71854 
L 157.502812 227.190386 
L 158.297008 228.776365 
L 159.355936 231.752912 
L 160.944327 236.68058 
L 161.738523 237.65018 
L 162.003255 237.730326 
L 162.267987 237.634941 
L 162.797451 237.096717 
L 164.121111 234.389366 
L 164.915307 234.338719 
L 165.444771 234.644157 
L 166.503699 236.377445 
L 167.033163 237.577117 
L 168.356823 240.895654 
L 169.680483 242.980608 
L 169.945215 243.186922 
L 170.209947 243.192162 
L 170.739411 242.803716 
L 171.533606 241.586039 
L 172.327802 240.192464 
L 172.857266 239.40683 
L 174.71039 235.481634 
L 177.35771 228.511198 
L 178.946102 223.867677 
L 179.740298 222.091736 
L 180.534494 220.715724 
L 181.328689 219.76929 
L 182.122885 219.048231 
L 183.446545 218.237294 
L 185.299669 216.581023 
L 186.093865 216.142859 
L 187.152793 214.952293 
L 187.946989 213.651456 
L 188.741185 212.040763 
L 189.535381 211.215007 
L 190.064845 210.37251 
L 191.917968 205.971087 
L 192.976896 205.146013 
L 195.359484 203.528033 
L 196.15368 202.829668 
L 197.742072 201.18029 
L 198.271536 200.989492 
L 198.801 200.973435 
L 199.859928 201.240023 
L 200.654124 202.03371 
L 201.183587 202.341883 
L 202.242515 203.602705 
L 203.301443 204.974353 
L 204.095639 205.787654 
L 204.625103 206.262048 
L 205.419299 207.613152 
L 206.213495 209.398182 
L 206.742959 210.875954 
L 207.801887 213.857057 
L 208.596083 215.116418 
L 209.125547 216.434211 
L 209.919743 216.950309 
L 210.449207 217.086102 
L 210.978671 216.414764 
L 211.508134 214.997453 
L 213.361258 209.46507 
L 214.684918 206.183064 
L 215.743846 203.663306 
L 217.59697 197.988295 
L 218.655898 195.56685 
L 219.185362 194.817048 
L 219.979558 194.495068 
L 220.509022 194.254832 
L 221.038486 194.169352 
L 221.832681 194.480111 
L 222.891609 195.260645 
L 223.685805 195.530516 
L 224.215269 195.347476 
L 224.744733 195.497658 
L 225.274197 195.701634 
L 225.803661 195.756819 
L 226.333125 195.534175 
L 227.392053 194.229062 
L 227.656785 193.971165 
L 228.450981 194.33145 
L 229.245177 195.184836 
L 230.039373 196.111734 
L 230.304105 196.379196 
L 230.833569 196.504864 
L 231.363032 196.99701 
L 231.627764 197.306555 
L 233.74562 201.14545 
L 234.539816 202.259511 
L 235.06928 203.055084 
L 235.598744 203.50813 
L 236.922404 203.315826 
L 237.451868 203.738396 
L 237.981332 204.555364 
L 239.304992 206.875158 
L 239.569724 207.217417 
L 240.36392 207.319635 
L 241.687579 207.1691 
L 242.217043 207.629666 
L 243.540703 210.387551 
L 244.334899 212.502634 
L 245.393827 214.566251 
L 246.717487 217.625526 
L 251.747394 231.331754 
L 257.306766 245.323666 
L 258.630426 249.123384 
L 259.15989 249.9792 
L 259.424622 250.308805 
L 259.954086 249.862354 
L 260.48355 248.986377 
L 262.336673 245.617797 
L 262.866137 244.824752 
L 266.042921 237.878726 
L 269.749169 226.857607 
L 270.278633 225.820511 
L 270.808097 225.057889 
L 271.602292 224.594814 
L 271.867024 224.513915 
L 272.131756 224.560528 
L 272.925952 224.990256 
L 273.720148 225.138095 
L 273.98488 225.149267 
L 275.043808 224.626769 
L 275.30854 224.528618 
L 276.102736 223.566395 
L 276.6322 223.313406 
L 277.691128 224.171256 
L 277.95586 224.433848 
L 279.014788 224.767334 
L 280.60318 224.98365 
L 283.250499 224.014149 
L 284.309427 224.013929 
L 284.838891 224.158369 
L 286.162551 224.767881 
L 287.221479 225.219543 
L 288.280407 225.251757 
L 288.545139 225.222569 
L 289.339335 224.432577 
L 291.192459 222.094904 
L 291.986654 222.124211 
L 292.516118 222.37047 
L 293.575046 221.715595 
L 294.369242 221.009948 
L 295.957634 219.260739 
L 297.016562 219.322256 
L 297.810758 219.63183 
L 298.604954 220.334573 
L 299.928614 220.928255 
L 300.72281 220.949109 
L 301.517005 220.731913 
L 301.781737 220.629489 
L 302.575933 219.784024 
L 303.899593 217.237943 
L 304.429057 216.65759 
L 305.223253 216.769546 
L 306.282181 217.656312 
L 306.811645 218.479825 
L 307.870573 220.285109 
L 308.664769 220.621264 
L 309.194233 220.580465 
L 309.723697 220.203697 
L 310.782625 218.152215 
L 311.57682 216.561158 
L 314.22414 212.021883 
L 314.488872 211.638082 
L 315.018336 211.97651 
L 315.5478 210.809176 
L 315.812532 210.626791 
L 316.341996 211.008461 
L 317.136192 210.707638 
L 318.724584 210.590201 
L 319.783512 209.969731 
L 321.636635 205.733195 
L 322.166099 205.450126 
L 322.430831 205.484927 
L 322.960295 205.906851 
L 323.489759 205.884102 
L 323.754491 205.733018 
L 324.283955 205.150833 
L 325.607615 205.160683 
L 326.401811 205.281858 
L 326.666543 205.143291 
L 327.196007 204.483465 
L 327.990203 202.782879 
L 328.519667 201.715758 
L 329.049131 199.750185 
L 329.313863 198.620993 
L 330.108059 202.642545 
L 330.637523 203.388687 
L 331.431719 203.531452 
L 331.961182 203.328193 
L 333.02011 201.978473 
L 333.284842 201.591256 
L 334.608502 201.211028 
L 336.196894 201.590364 
L 337.520554 201.534359 
L 338.050018 201.685722 
L 338.844214 201.80866 
L 342.285729 203.005145 
L 343.079925 202.875981 
L 345.197781 202.227364 
L 345.991977 202.504951 
L 346.521441 203.001463 
L 347.315637 204.70534 
L 347.845101 205.18345 
L 348.639297 206.437279 
L 349.168761 206.819813 
L 350.492421 205.716061 
L 351.286617 206.589192 
L 352.080812 208.380476 
L 352.610276 209.636491 
L 353.933936 211.034019 
L 354.992864 212.669668 
L 355.78706 214.199276 
L 356.316524 215.657495 
L 357.375452 219.087319 
L 357.904916 219.869532 
L 358.963844 220.249527 
L 359.228576 220.612739 
L 360.022772 222.661409 
L 361.0817 225.892209 
L 362.670091 226.427969 
L 363.993751 226.608838 
L 364.258483 226.560691 
L 364.523215 226.649975 
L 366.376339 228.324438 
L 367.170535 229.903799 
L 367.964731 230.571624 
L 368.229463 230.874421 
L 368.494195 230.949223 
L 369.023659 230.646304 
L 370.082587 229.000334 
L 370.347319 228.516878 
L 371.141515 227.901598 
L 371.93571 228.036749 
L 372.465174 228.156521 
L 374.053566 227.994768 
L 374.58303 227.849573 
L 375.377226 227.863362 
L 376.171422 228.058329 
L 376.965618 228.278479 
L 378.289278 228.082362 
L 379.083474 228.01853 
L 379.612938 227.825192 
L 380.936598 228.163747 
L 383.848649 227.919475 
L 384.378113 228.006628 
L 385.172309 227.997558 
L 385.966505 228.011798 
L 387.025433 227.87476 
L 392.849536 227.612159 
L 393.643732 227.765828 
L 394.967392 228.194963 
L 395.496856 228.079882 
L 397.614712 227.630159 
L 398.144176 227.678896 
L 399.203104 229.125069 
L 399.9973 230.724813 
L 402.909351 237.207692 
L 402.909351 237.207692 
" style="fill:none;stroke:#4c72b0;stroke-linecap:round;stroke-opacity:0.75;stroke-width:1.5;"/>
   </g>
   <g id="patch_9">
    <path d="M 69.885 255.508422 
L 69.885 141.116844 
" style="fill:none;stroke:#ffffff;stroke-linecap:square;stroke-linejoin:miter;stroke-width:1.25;"/>
   </g>
   <g id="patch_10">
    <path d="M 419.04 255.508422 
L 419.04 141.116844 
" style="fill:none;stroke:#ffffff;stroke-linecap:square;stroke-linejoin:miter;stroke-width:1.25;"/>
   </g>
   <g id="patch_11">
    <path d="M 69.885 255.508422 
L 419.04 255.508422 
" style="fill:none;stroke:#ffffff;stroke-linecap:square;stroke-linejoin:miter;stroke-width:1.25;"/>
   </g>
   <g id="patch_12">
    <path d="M 69.885 141.116844 
L 419.04 141.116844 
" style="fill:none;stroke:#ffffff;stroke-linecap:square;stroke-linejoin:miter;stroke-width:1.25;"/>
   </g>
  </g>
  <g id="axes_3">
   <g id="patch_13">
    <path d="M 69.885 382.86 
L 419.04 382.86 
L 419.04 268.468422 
L 69.885 268.468422 
z
" style="fill:#eaeaf2;"/>
   </g>
   <g id="matplotlib.axis_5">
    <g id="xtick_13">
     <g id="line2d_29">
      <path clip-path="url(#p694b60f4f0)" d="M 114.068766 382.86 
L 114.068766 268.468422 
" style="fill:none;stroke:#ffffff;stroke-linecap:round;"/>
     </g>
     <g id="text_13">
      <!-- 20 -->
      <g style="fill:#262626;" transform="translate(107.070016 400.718281)scale(0.11 -0.11)">
       <use xlink:href="#DejaVuSans-50"/>
       <use x="63.623047" xlink:href="#DejaVuSans-48"/>
      </g>
     </g>
    </g>
    <g id="xtick_14">
     <g id="line2d_30">
      <path clip-path="url(#p694b60f4f0)" d="M 167.015161 382.86 
L 167.015161 268.468422 
" style="fill:none;stroke:#ffffff;stroke-linecap:round;"/>
     </g>
     <g id="text_14">
      <!-- 40 -->
      <g style="fill:#262626;" transform="translate(160.016411 400.718281)scale(0.11 -0.11)">
       <use xlink:href="#DejaVuSans-52"/>
       <use x="63.623047" xlink:href="#DejaVuSans-48"/>
      </g>
     </g>
    </g>
    <g id="xtick_15">
     <g id="line2d_31">
      <path clip-path="url(#p694b60f4f0)" d="M 219.961556 382.86 
L 219.961556 268.468422 
" style="fill:none;stroke:#ffffff;stroke-linecap:round;"/>
     </g>
     <g id="text_15">
      <!-- 60 -->
      <g style="fill:#262626;" transform="translate(212.962806 400.718281)scale(0.11 -0.11)">
       <defs>
        <path d="M 33.015625 40.375 
Q 26.375 40.375 22.484375 35.828125 
Q 18.609375 31.296875 18.609375 23.390625 
Q 18.609375 15.53125 22.484375 10.953125 
Q 26.375 6.390625 33.015625 6.390625 
Q 39.65625 6.390625 43.53125 10.953125 
Q 47.40625 15.53125 47.40625 23.390625 
Q 47.40625 31.296875 43.53125 35.828125 
Q 39.65625 40.375 33.015625 40.375 
z
M 52.59375 71.296875 
L 52.59375 62.3125 
Q 48.875 64.0625 45.09375 64.984375 
Q 41.3125 65.921875 37.59375 65.921875 
Q 27.828125 65.921875 22.671875 59.328125 
Q 17.53125 52.734375 16.796875 39.40625 
Q 19.671875 43.65625 24.015625 45.921875 
Q 28.375 48.1875 33.59375 48.1875 
Q 44.578125 48.1875 50.953125 41.515625 
Q 57.328125 34.859375 57.328125 23.390625 
Q 57.328125 12.15625 50.6875 5.359375 
Q 44.046875 -1.421875 33.015625 -1.421875 
Q 20.359375 -1.421875 13.671875 8.265625 
Q 6.984375 17.96875 6.984375 36.375 
Q 6.984375 53.65625 15.1875 63.9375 
Q 23.390625 74.21875 37.203125 74.21875 
Q 40.921875 74.21875 44.703125 73.484375 
Q 48.484375 72.75 52.59375 71.296875 
z
" id="DejaVuSans-54"/>
       </defs>
       <use xlink:href="#DejaVuSans-54"/>
       <use x="63.623047" xlink:href="#DejaVuSans-48"/>
      </g>
     </g>
    </g>
    <g id="xtick_16">
     <g id="line2d_32">
      <path clip-path="url(#p694b60f4f0)" d="M 272.907951 382.86 
L 272.907951 268.468422 
" style="fill:none;stroke:#ffffff;stroke-linecap:round;"/>
     </g>
     <g id="text_16">
      <!-- 80 -->
      <g style="fill:#262626;" transform="translate(265.909201 400.718281)scale(0.11 -0.11)">
       <defs>
        <path d="M 31.78125 34.625 
Q 24.75 34.625 20.71875 30.859375 
Q 16.703125 27.09375 16.703125 20.515625 
Q 16.703125 13.921875 20.71875 10.15625 
Q 24.75 6.390625 31.78125 6.390625 
Q 38.8125 6.390625 42.859375 10.171875 
Q 46.921875 13.96875 46.921875 20.515625 
Q 46.921875 27.09375 42.890625 30.859375 
Q 38.875 34.625 31.78125 34.625 
z
M 21.921875 38.8125 
Q 15.578125 40.375 12.03125 44.71875 
Q 8.5 49.078125 8.5 55.328125 
Q 8.5 64.0625 14.71875 69.140625 
Q 20.953125 74.21875 31.78125 74.21875 
Q 42.671875 74.21875 48.875 69.140625 
Q 55.078125 64.0625 55.078125 55.328125 
Q 55.078125 49.078125 51.53125 44.71875 
Q 48 40.375 41.703125 38.8125 
Q 48.828125 37.15625 52.796875 32.3125 
Q 56.78125 27.484375 56.78125 20.515625 
Q 56.78125 9.90625 50.3125 4.234375 
Q 43.84375 -1.421875 31.78125 -1.421875 
Q 19.734375 -1.421875 13.25 4.234375 
Q 6.78125 9.90625 6.78125 20.515625 
Q 6.78125 27.484375 10.78125 32.3125 
Q 14.796875 37.15625 21.921875 38.8125 
z
M 18.3125 54.390625 
Q 18.3125 48.734375 21.84375 45.5625 
Q 25.390625 42.390625 31.78125 42.390625 
Q 38.140625 42.390625 41.71875 45.5625 
Q 45.3125 48.734375 45.3125 54.390625 
Q 45.3125 60.0625 41.71875 63.234375 
Q 38.140625 66.40625 31.78125 66.40625 
Q 25.390625 66.40625 21.84375 63.234375 
Q 18.3125 60.0625 18.3125 54.390625 
z
" id="DejaVuSans-56"/>
       </defs>
       <use xlink:href="#DejaVuSans-56"/>
       <use x="63.623047" xlink:href="#DejaVuSans-48"/>
      </g>
     </g>
    </g>
    <g id="xtick_17">
     <g id="line2d_33">
      <path clip-path="url(#p694b60f4f0)" d="M 325.854345 382.86 
L 325.854345 268.468422 
" style="fill:none;stroke:#ffffff;stroke-linecap:round;"/>
     </g>
     <g id="text_17">
      <!-- 100 -->
      <g style="fill:#262626;" transform="translate(315.35622 400.718281)scale(0.11 -0.11)">
       <use xlink:href="#DejaVuSans-49"/>
       <use x="63.623047" xlink:href="#DejaVuSans-48"/>
       <use x="127.246094" xlink:href="#DejaVuSans-48"/>
      </g>
     </g>
    </g>
    <g id="xtick_18">
     <g id="line2d_34">
      <path clip-path="url(#p694b60f4f0)" d="M 378.80074 382.86 
L 378.80074 268.468422 
" style="fill:none;stroke:#ffffff;stroke-linecap:round;"/>
     </g>
     <g id="text_18">
      <!-- 120 -->
      <g style="fill:#262626;" transform="translate(368.302615 400.718281)scale(0.11 -0.11)">
       <use xlink:href="#DejaVuSans-49"/>
       <use x="63.623047" xlink:href="#DejaVuSans-50"/>
       <use x="127.246094" xlink:href="#DejaVuSans-48"/>
      </g>
     </g>
    </g>
    <g id="text_19">
     <!-- $t$ (s) -->
     <g style="fill:#262626;" transform="translate(232.3425 416.124063)scale(0.12 -0.12)">
      <use transform="translate(0 0.125)" xlink:href="#DejaVuSans-Oblique-116"/>
      <use transform="translate(39.208984 0.125)" xlink:href="#DejaVuSans-32"/>
      <use transform="translate(70.996094 0.125)" xlink:href="#DejaVuSans-40"/>
      <use transform="translate(110.009766 0.125)" xlink:href="#DejaVuSans-115"/>
      <use transform="translate(162.109375 0.125)" xlink:href="#DejaVuSans-41"/>
     </g>
    </g>
   </g>
   <g id="matplotlib.axis_6">
    <g id="ytick_9">
     <g id="line2d_35">
      <path clip-path="url(#p694b60f4f0)" d="M 69.885 362.200939 
L 419.04 362.200939 
" style="fill:none;stroke:#ffffff;stroke-linecap:round;"/>
     </g>
     <g id="text_20">
      <!-- 100 -->
      <g style="fill:#262626;" transform="translate(30.171094 366.380079)scale(0.11 -0.11)">
       <defs>
        <path d="M 10.59375 35.5 
L 73.1875 35.5 
L 73.1875 27.203125 
L 10.59375 27.203125 
z
" id="DejaVuSans-8722"/>
       </defs>
       <use xlink:href="#DejaVuSans-8722"/>
       <use x="83.789062" xlink:href="#DejaVuSans-49"/>
       <use x="147.412109" xlink:href="#DejaVuSans-48"/>
       <use x="211.035156" xlink:href="#DejaVuSans-48"/>
      </g>
     </g>
    </g>
    <g id="ytick_10">
     <g id="line2d_36">
      <path clip-path="url(#p694b60f4f0)" d="M 69.885 322.960743 
L 419.04 322.960743 
" style="fill:none;stroke:#ffffff;stroke-linecap:round;"/>
     </g>
     <g id="text_21">
      <!-- 0 -->
      <g style="fill:#262626;" transform="translate(53.38625 327.139884)scale(0.11 -0.11)">
       <use xlink:href="#DejaVuSans-48"/>
      </g>
     </g>
    </g>
    <g id="ytick_11">
     <g id="line2d_37">
      <path clip-path="url(#p694b60f4f0)" d="M 69.885 283.720548 
L 419.04 283.720548 
" style="fill:none;stroke:#ffffff;stroke-linecap:round;"/>
     </g>
     <g id="text_22">
      <!-- 100 -->
      <g style="fill:#262626;" transform="translate(39.38875 287.899689)scale(0.11 -0.11)">
       <use xlink:href="#DejaVuSans-49"/>
       <use x="63.623047" xlink:href="#DejaVuSans-48"/>
       <use x="127.246094" xlink:href="#DejaVuSans-48"/>
      </g>
     </g>
    </g>
    <g id="text_23">
     <!-- $yaw$ (deg) -->
     <g style="fill:#262626;" transform="translate(23.651094 355.724211)rotate(-90)scale(0.12 -0.12)">
      <defs>
       <path d="M 24.8125 -5.078125 
Q 18.5625 -15.578125 14.625 -18.1875 
Q 10.6875 -20.796875 4.59375 -20.796875 
L -2.484375 -20.796875 
L -0.984375 -13.28125 
L 4.203125 -13.28125 
Q 7.953125 -13.28125 10.59375 -11.234375 
Q 13.234375 -9.1875 16.5 -3.21875 
L 19.28125 2 
L 7.171875 54.6875 
L 16.703125 54.6875 
L 25.78125 12.796875 
L 50.875 54.6875 
L 60.296875 54.6875 
z
" id="DejaVuSans-Oblique-121"/>
       <path d="M 53.71875 31.203125 
L 47.609375 0 
L 38.625 0 
L 40.28125 8.296875 
Q 36.328125 3.421875 31.265625 1 
Q 26.21875 -1.421875 20.015625 -1.421875 
Q 13.03125 -1.421875 8.5625 2.84375 
Q 4.109375 7.125 4.109375 13.8125 
Q 4.109375 23.390625 11.75 28.953125 
Q 19.390625 34.515625 32.8125 34.515625 
L 45.3125 34.515625 
L 45.796875 36.921875 
Q 45.90625 37.3125 45.953125 37.765625 
Q 46 38.234375 46 39.203125 
Q 46 43.5625 42.453125 45.96875 
Q 38.921875 48.390625 32.515625 48.390625 
Q 28.125 48.390625 23.5 47.265625 
Q 18.890625 46.140625 14.015625 43.890625 
L 15.578125 52.203125 
Q 20.65625 54.109375 25.515625 55.046875 
Q 30.375 56 34.90625 56 
Q 44.578125 56 49.625 51.796875 
Q 54.6875 47.609375 54.6875 39.59375 
Q 54.6875 37.984375 54.4375 35.8125 
Q 54.203125 33.640625 53.71875 31.203125 
z
M 44 27.484375 
L 35.015625 27.484375 
Q 23.96875 27.484375 18.671875 24.53125 
Q 13.375 21.578125 13.375 15.375 
Q 13.375 11.078125 16.078125 8.640625 
Q 18.796875 6.203125 23.578125 6.203125 
Q 30.90625 6.203125 36.375 11.453125 
Q 41.84375 16.703125 43.609375 25.484375 
z
" id="DejaVuSans-Oblique-97"/>
       <path d="M 8.5 54.6875 
L 17.390625 54.6875 
L 19.671875 10.6875 
L 40.09375 54.6875 
L 50.484375 54.6875 
L 53.515625 10.6875 
L 72.90625 54.6875 
L 81.890625 54.6875 
L 56.890625 0 
L 46.390625 0 
L 43.703125 45.3125 
L 22.796875 0 
L 12.203125 0 
z
" id="DejaVuSans-Oblique-119"/>
      </defs>
      <use transform="translate(0 0.015625)" xlink:href="#DejaVuSans-Oblique-121"/>
      <use transform="translate(59.179688 0.015625)" xlink:href="#DejaVuSans-Oblique-97"/>
      <use transform="translate(120.458984 0.015625)" xlink:href="#DejaVuSans-Oblique-119"/>
      <use transform="translate(202.246094 0.015625)" xlink:href="#DejaVuSans-32"/>
      <use transform="translate(234.033203 0.015625)" xlink:href="#DejaVuSans-40"/>
      <use transform="translate(273.046875 0.015625)" xlink:href="#DejaVuSans-100"/>
      <use transform="translate(336.523438 0.015625)" xlink:href="#DejaVuSans-101"/>
      <use transform="translate(398.046875 0.015625)" xlink:href="#DejaVuSans-103"/>
      <use transform="translate(461.523438 0.015625)" xlink:href="#DejaVuSans-41"/>
     </g>
    </g>
   </g>
   <g id="line2d_38">
    <path clip-path="url(#p694b60f4f0)" d="M 85.755682 322.491663 
L 137.907881 322.439159 
L 138.437345 322.075 
L 139.23154 321.089562 
L 140.290468 319.318171 
L 142.143592 315.695931 
L 147.438232 304.635771 
L 154.321263 290.343267 
L 155.115459 289.503429 
L 155.909655 289.043908 
L 157.498047 288.356704 
L 158.292243 287.369076 
L 159.35117 285.596662 
L 161.733758 281.306807 
L 162.263222 280.877217 
L 162.792686 280.918724 
L 164.116346 281.632848 
L 164.910542 281.782745 
L 165.440006 281.499685 
L 165.96947 280.941361 
L 166.763666 279.778497 
L 168.087326 277.381807 
L 169.940449 273.899753 
L 170.469913 273.668039 
L 170.999377 273.882051 
L 171.528841 274.394243 
L 172.323037 275.514926 
L 173.646697 277.879296 
L 176.294017 283.241307 
L 189.001152 309.961636 
L 190.324811 312.634711 
L 191.119007 313.563649 
L 191.913203 314.071962 
L 192.972131 314.608238 
L 193.766327 315.565047 
L 194.825255 317.317463 
L 195.884183 319.123281 
L 196.413647 319.395375 
L 196.943111 319.208287 
L 197.472575 318.713986 
L 198.266771 317.6095 
L 199.59043 315.257083 
L 202.23775 309.8996 
L 209.385513 295.080495 
L 210.179709 294.240675 
L 210.973905 293.794742 
L 211.503369 293.895601 
L 212.032833 294.332039 
L 212.827029 295.383345 
L 214.150689 297.694578 
L 216.533277 302.481285 
L 225.798896 321.649898 
L 226.593092 322.409754 
L 227.387288 323.022489 
L 228.181484 324.082412 
L 229.505143 326.400811 
L 230.034607 327.22919 
L 230.828803 327.987332 
L 231.358267 328.404925 
L 232.152463 329.426009 
L 233.211391 331.221095 
L 235.858711 335.940762 
L 236.652907 336.737754 
L 237.447103 337.89836 
L 239.82969 341.700481 
L 240.623886 342.216547 
L 242.212278 342.951676 
L 243.006474 343.94874 
L 244.065402 345.727553 
L 245.918526 349.353375 
L 251.213165 360.411716 
L 259.155125 376.933789 
L 259.684588 377.534285 
L 259.94932 377.659487 
L 260.478784 377.559609 
L 261.008248 377.123741 
L 261.802444 376.072826 
L 263.126104 373.761771 
L 265.508692 368.975164 
L 269.479672 360.956383 
L 270.273867 360.197845 
L 271.068063 359.782806 
L 272.126991 359.505751 
L 272.656455 359.317144 
L 273.185919 358.831681 
L 273.980115 357.73554 
L 274.774311 356.676878 
L 275.303775 356.361979 
L 275.833239 356.510609 
L 276.362703 356.979001 
L 277.421631 358.188503 
L 278.215827 358.683384 
L 279.274755 359.013738 
L 280.863146 359.20122 
L 284.03993 359.274154 
L 288.275642 359.267477 
L 288.805106 358.982938 
L 289.33457 358.423628 
L 290.128765 357.456791 
L 290.922961 356.908568 
L 291.452425 356.968503 
L 291.981889 357.377559 
L 292.511353 357.954118 
L 292.776085 358.092574 
L 293.305549 358.012481 
L 293.835013 357.58994 
L 294.629209 356.55138 
L 295.423405 355.353904 
L 295.952869 355.098311 
L 296.482333 355.296291 
L 297.011797 355.797698 
L 297.805993 356.908431 
L 298.600189 357.975149 
L 299.394385 358.566607 
L 300.18858 358.890268 
L 301.51224 359.138194 
L 302.041704 358.988693 
L 302.571168 358.519637 
L 303.365364 357.43867 
L 304.424292 355.77069 
L 304.689024 355.599857 
L 305.218488 355.631844 
L 305.747952 356.022152 
L 306.542148 357.031356 
L 307.336344 358.042276 
L 308.13054 358.603379 
L 308.924736 358.91039 
L 309.4542 358.836301 
L 309.983663 358.417776 
L 310.777859 357.382892 
L 311.836787 355.578792 
L 313.954643 351.395953 
L 320.572942 337.52989 
L 326.92651 324.264602 
L 327.720706 323.335544 
L 328.25017 323.078319 
L 328.779634 323.265699 
L 329.309098 323.632236 
L 329.838561 323.611437 
L 331.691685 322.603232 
L 332.221149 322.763331 
L 332.750613 323.239552 
L 333.544809 324.327527 
L 335.397933 327.146555 
L 336.192129 327.689719 
L 337.251057 328.052276 
L 338.574717 328.238474 
L 339.633645 328.41223 
L 340.163108 328.864125 
L 340.957304 329.929818 
L 342.810428 332.72835 
L 343.604624 333.268483 
L 344.663552 333.629041 
L 346.251944 334.030623 
L 346.781408 334.560449 
L 347.575604 335.697363 
L 349.163996 338.172198 
L 349.958191 338.771578 
L 350.487655 339.063799 
L 351.017119 339.58826 
L 351.811315 340.720247 
L 353.399707 343.524661 
L 355.252831 347.130621 
L 357.900151 352.322685 
L 359.753275 354.608529 
L 362.135862 358.418916 
L 362.930058 358.935701 
L 363.988986 359.280677 
L 365.577378 359.476459 
L 366.371574 359.566824 
L 366.901038 359.94597 
L 367.695234 360.528343 
L 368.48943 360.846993 
L 369.018894 360.921963 
L 369.548358 360.643229 
L 371.401481 359.046648 
L 372.460409 358.71454 
L 374.048801 358.52606 
L 377.225585 358.45274 
L 397.345215 358.445522 
L 397.874679 358.642407 
L 398.404143 359.143078 
L 399.198339 360.25314 
L 400.521998 362.609279 
L 403.169318 367.967278 
L 403.169318 367.967278 
" style="fill:none;stroke:#000000;stroke-dasharray:5.55,2.4;stroke-dashoffset:0;stroke-opacity:0.5;stroke-width:1.5;"/>
   </g>
   <g id="line2d_39">
    <path clip-path="url(#p694b60f4f0)" d="M 86.819375 322.49164 
L 88.143035 322.372794 
L 88.937231 322.492279 
L 93.437674 322.298868 
L 99.791242 322.181588 
L 102.438561 322.227862 
L 112.498376 322.152185 
L 113.822036 322.144258 
L 115.410428 321.969026 
L 137.647914 321.713387 
L 138.177378 321.481122 
L 138.44211 321.328907 
L 139.501038 319.987904 
L 140.295234 318.682321 
L 142.413089 314.728038 
L 154.326028 291.292569 
L 155.120224 290.475396 
L 155.91442 290.020117 
L 157.502812 289.334446 
L 158.56174 287.97168 
L 159.620668 286.202109 
L 161.738523 282.546846 
L 162.267987 282.139854 
L 162.797451 282.103525 
L 163.856379 282.632535 
L 164.915307 282.884673 
L 165.444771 282.624989 
L 166.503699 281.346443 
L 167.562627 279.701916 
L 169.151019 276.796544 
L 169.680483 275.901603 
L 170.209947 275.319095 
L 170.739411 275.265602 
L 171.533606 275.884077 
L 172.327802 276.890175 
L 173.651462 279.102493 
L 176.828246 285.146346 
L 187.946989 307.113773 
L 190.064845 311.198204 
L 190.859041 312.291235 
L 191.653236 312.938125 
L 192.1827 313.187164 
L 192.712164 313.398604 
L 193.241628 313.739708 
L 194.300556 315.11025 
L 196.15368 317.75402 
L 196.418412 317.859931 
L 196.683144 317.838964 
L 197.212608 317.543703 
L 198.271536 316.24638 
L 199.065732 315.021751 
L 200.389392 312.608226 
L 205.154567 303.115944 
L 209.125547 295.169209 
L 209.919743 294.19123 
L 210.713939 293.68424 
L 211.243402 293.574938 
L 211.772866 293.828257 
L 212.831794 295.096294 
L 213.890722 296.769458 
L 216.008578 300.685829 
L 225.803661 319.696374 
L 226.597857 320.459725 
L 227.127321 320.845258 
L 227.921517 321.736206 
L 228.980445 323.364306 
L 229.774641 324.597399 
L 230.568837 325.339527 
L 231.627764 326.206402 
L 232.686692 327.683959 
L 234.010352 329.953756 
L 235.598744 332.702656 
L 236.657672 333.822294 
L 237.981332 335.652937 
L 239.569724 338.031838 
L 240.628652 338.721247 
L 242.217043 339.424769 
L 243.275971 340.767137 
L 244.599631 342.921459 
L 248.041147 349.486841 
L 259.15989 371.229539 
L 259.424622 371.617501 
L 259.954086 371.915303 
L 260.218818 371.932487 
L 260.748282 371.703879 
L 261.542477 370.784767 
L 264.189797 365.960301 
L 269.484437 355.718953 
L 270.278633 354.952568 
L 271.072829 354.521556 
L 272.396488 354.086447 
L 272.66122 353.986163 
L 273.720148 352.690686 
L 274.514344 351.664233 
L 275.30854 350.939159 
L 276.102736 351.428856 
L 277.691128 353.163202 
L 278.220592 353.492833 
L 279.27952 353.882438 
L 281.132644 354.135338 
L 285.368355 354.345809 
L 286.692015 354.344014 
L 288.280407 354.244664 
L 288.545139 354.186666 
L 289.339335 353.453073 
L 290.398263 352.268817 
L 291.192459 351.813362 
L 291.986654 352.251918 
L 292.516118 352.802632 
L 293.045582 352.878555 
L 293.575046 352.611249 
L 294.10451 352.094267 
L 294.898706 351.003213 
L 295.163438 350.602102 
L 295.957634 350.00682 
L 296.487098 350.176954 
L 297.281294 350.960346 
L 298.604954 352.640474 
L 299.39915 353.195703 
L 300.458078 353.599594 
L 301.781737 353.747012 
L 302.575933 353.146302 
L 303.370129 352.092845 
L 304.429057 350.505369 
L 304.958521 350.341606 
L 305.223253 350.384272 
L 305.752717 350.718274 
L 307.870573 353.090034 
L 308.929501 353.554157 
L 309.458965 353.433403 
L 309.723697 353.323918 
L 310.782625 352.086663 
L 311.57682 350.846103 
L 313.165212 347.87369 
L 320.312976 333.580603 
L 327.196007 320.182326 
L 327.990203 319.439868 
L 328.784399 319.461503 
L 329.843327 319.899885 
L 330.108059 319.857414 
L 331.166987 319.237149 
L 331.961182 319.080909 
L 332.755378 319.689649 
L 333.814306 321.050541 
L 335.137966 323.041345 
L 335.932162 323.71925 
L 337.255822 324.232598 
L 338.31475 324.375217 
L 339.63841 324.547932 
L 339.903142 324.644454 
L 340.697338 325.45136 
L 342.815193 328.457635 
L 343.609389 328.993446 
L 344.138853 329.212023 
L 345.462513 329.479869 
L 345.991977 329.580037 
L 346.786173 330.188422 
L 347.580369 331.14174 
L 349.433493 333.606908 
L 350.227689 334.107151 
L 350.757153 334.499717 
L 351.286617 335.066781 
L 352.610276 337.042999 
L 354.198668 339.806353 
L 356.581256 344.404975 
L 357.640184 346.295662 
L 358.43438 347.212516 
L 359.228576 348.012245 
L 360.552236 350.023433 
L 361.611163 351.664492 
L 362.405359 352.380455 
L 363.199555 352.785161 
L 364.523215 353.109521 
L 365.582143 353.159724 
L 366.376339 353.225687 
L 367.964731 354.230866 
L 368.494195 354.430753 
L 369.023659 354.493412 
L 369.817855 353.971053 
L 370.612051 353.150656 
L 371.406247 352.635661 
L 372.200442 352.331721 
L 373.524102 352.114663 
L 376.171422 352.028329 
L 381.995525 351.953276 
L 397.614712 351.806563 
L 398.144176 352.118605 
L 399.203104 353.471959 
L 400.526764 355.754147 
L 402.909351 360.390565 
L 402.909351 360.390565 
" style="fill:none;stroke:#4c72b0;stroke-linecap:round;stroke-opacity:0.75;stroke-width:1.5;"/>
   </g>
   <g id="patch_14">
    <path d="M 69.885 382.86 
L 69.885 268.468422 
" style="fill:none;stroke:#ffffff;stroke-linecap:square;stroke-linejoin:miter;stroke-width:1.25;"/>
   </g>
   <g id="patch_15">
    <path d="M 419.04 382.86 
L 419.04 268.468422 
" style="fill:none;stroke:#ffffff;stroke-linecap:square;stroke-linejoin:miter;stroke-width:1.25;"/>
   </g>
   <g id="patch_16">
    <path d="M 69.885 382.86 
L 419.04 382.86 
" style="fill:none;stroke:#ffffff;stroke-linecap:square;stroke-linejoin:miter;stroke-width:1.25;"/>
   </g>
   <g id="patch_17">
    <path d="M 69.885 268.468422 
L 419.04 268.468422 
" style="fill:none;stroke:#ffffff;stroke-linecap:square;stroke-linejoin:miter;stroke-width:1.25;"/>
   </g>
  </g>
  <g id="text_24">
   <!-- euler_angle_sequence: sxyz -->
   <g style="fill:#262626;" transform="translate(0 429.84)scale(0.06 -0.06)">
    <defs>
     <path d="M 8.5 21.578125 
L 8.5 54.6875 
L 17.484375 54.6875 
L 17.484375 21.921875 
Q 17.484375 14.15625 20.5 10.265625 
Q 23.53125 6.390625 29.59375 6.390625 
Q 36.859375 6.390625 41.078125 11.03125 
Q 45.3125 15.671875 45.3125 23.6875 
L 45.3125 54.6875 
L 54.296875 54.6875 
L 54.296875 0 
L 45.3125 0 
L 45.3125 8.40625 
Q 42.046875 3.421875 37.71875 1 
Q 33.40625 -1.421875 27.6875 -1.421875 
Q 18.265625 -1.421875 13.375 4.4375 
Q 8.5 10.296875 8.5 21.578125 
z
M 31.109375 56 
z
" id="DejaVuSans-117"/>
     <path d="M 14.796875 27.296875 
Q 14.796875 17.390625 18.875 11.75 
Q 22.953125 6.109375 30.078125 6.109375 
Q 37.203125 6.109375 41.296875 11.75 
Q 45.40625 17.390625 45.40625 27.296875 
Q 45.40625 37.203125 41.296875 42.84375 
Q 37.203125 48.484375 30.078125 48.484375 
Q 22.953125 48.484375 18.875 42.84375 
Q 14.796875 37.203125 14.796875 27.296875 
z
M 45.40625 8.203125 
Q 42.578125 3.328125 38.25 0.953125 
Q 33.9375 -1.421875 27.875 -1.421875 
Q 17.96875 -1.421875 11.734375 6.484375 
Q 5.515625 14.40625 5.515625 27.296875 
Q 5.515625 40.1875 11.734375 48.09375 
Q 17.96875 56 27.875 56 
Q 33.9375 56 38.25 53.625 
Q 42.578125 51.265625 45.40625 46.390625 
L 45.40625 54.6875 
L 54.390625 54.6875 
L 54.390625 -20.796875 
L 45.40625 -20.796875 
z
" id="DejaVuSans-113"/>
     <path d="M 48.78125 52.59375 
L 48.78125 44.1875 
Q 44.96875 46.296875 41.140625 47.34375 
Q 37.3125 48.390625 33.40625 48.390625 
Q 24.65625 48.390625 19.8125 42.84375 
Q 14.984375 37.3125 14.984375 27.296875 
Q 14.984375 17.28125 19.8125 11.734375 
Q 24.65625 6.203125 33.40625 6.203125 
Q 37.3125 6.203125 41.140625 7.25 
Q 44.96875 8.296875 48.78125 10.40625 
L 48.78125 2.09375 
Q 45.015625 0.34375 40.984375 -0.53125 
Q 36.96875 -1.421875 32.421875 -1.421875 
Q 20.0625 -1.421875 12.78125 6.34375 
Q 5.515625 14.109375 5.515625 27.296875 
Q 5.515625 40.671875 12.859375 48.328125 
Q 20.21875 56 33.015625 56 
Q 37.15625 56 41.109375 55.140625 
Q 45.0625 54.296875 48.78125 52.59375 
z
" id="DejaVuSans-99"/>
     <path d="M 54.890625 54.6875 
L 35.109375 28.078125 
L 55.90625 0 
L 45.3125 0 
L 29.390625 21.484375 
L 13.484375 0 
L 2.875 0 
L 24.125 28.609375 
L 4.6875 54.6875 
L 15.28125 54.6875 
L 29.78125 35.203125 
L 44.28125 54.6875 
z
" id="DejaVuSans-120"/>
     <path d="M 32.171875 -5.078125 
Q 28.375 -14.84375 24.75 -17.8125 
Q 21.140625 -20.796875 15.09375 -20.796875 
L 7.90625 -20.796875 
L 7.90625 -13.28125 
L 13.1875 -13.28125 
Q 16.890625 -13.28125 18.9375 -11.515625 
Q 21 -9.765625 23.484375 -3.21875 
L 25.09375 0.875 
L 2.984375 54.6875 
L 12.5 54.6875 
L 29.59375 11.921875 
L 46.6875 54.6875 
L 56.203125 54.6875 
z
" id="DejaVuSans-121"/>
     <path d="M 5.515625 54.6875 
L 48.1875 54.6875 
L 48.1875 46.484375 
L 14.40625 7.171875 
L 48.1875 7.171875 
L 48.1875 0 
L 4.296875 0 
L 4.296875 8.203125 
L 38.09375 47.515625 
L 5.515625 47.515625 
z
" id="DejaVuSans-122"/>
    </defs>
    <use xlink:href="#DejaVuSans-101"/>
    <use x="61.523438" xlink:href="#DejaVuSans-117"/>
    <use x="124.902344" xlink:href="#DejaVuSans-108"/>
    <use x="152.685547" xlink:href="#DejaVuSans-101"/>
    <use x="214.208984" xlink:href="#DejaVuSans-114"/>
    <use x="255.322266" xlink:href="#DejaVuSans-95"/>
    <use x="305.322266" xlink:href="#DejaVuSans-97"/>
    <use x="366.601562" xlink:href="#DejaVuSans-110"/>
    <use x="429.980469" xlink:href="#DejaVuSans-103"/>
    <use x="493.457031" xlink:href="#DejaVuSans-108"/>
    <use x="521.240234" xlink:href="#DejaVuSans-101"/>
    <use x="582.763672" xlink:href="#DejaVuSans-95"/>
    <use x="632.763672" xlink:href="#DejaVuSans-115"/>
    <use x="684.863281" xlink:href="#DejaVuSans-101"/>
    <use x="746.386719" xlink:href="#DejaVuSans-113"/>
    <use x="809.863281" xlink:href="#DejaVuSans-117"/>
    <use x="873.242188" xlink:href="#DejaVuSans-101"/>
    <use x="934.765625" xlink:href="#DejaVuSans-110"/>
    <use x="998.144531" xlink:href="#DejaVuSans-99"/>
    <use x="1053.125" xlink:href="#DejaVuSans-101"/>
    <use x="1114.648438" xlink:href="#DejaVuSans-58"/>
    <use x="1148.339844" xlink:href="#DejaVuSans-32"/>
    <use x="1180.126953" xlink:href="#DejaVuSans-115"/>
    <use x="1232.226562" xlink:href="#DejaVuSans-120"/>
    <use x="1291.40625" xlink:href="#DejaVuSans-121"/>
    <use x="1350.585938" xlink:href="#DejaVuSans-122"/>
   </g>
  </g>
 </g>
 <defs>
  <clipPath id="pd3cec11f52">
   <rect height="114.391578" width="349.155" x="69.885" y="13.765267"/>
  </clipPath>
  <clipPath id="p5249fdb1b5">
   <rect height="114.391578" width="349.155" x="69.885" y="141.116844"/>
  </clipPath>
  <clipPath id="p694b60f4f0">
   <rect height="114.391578" width="349.155" x="69.885" y="268.468422"/>
  </clipPath>
 </defs>
</svg>
