<?xml version="1.0" encoding="utf-8" standalone="no"?>
<!DOCTYPE svg PUBLIC "-//W3C//DTD SVG 1.1//EN"
  "http://www.w3.org/Graphics/SVG/1.1/DTD/svg11.dtd">
<!-- Created with matplotlib (https://matplotlib.org/) -->
<svg height="432pt" version="1.1" viewBox="0 0 432 432" width="432pt" xmlns="http://www.w3.org/2000/svg" xmlns:xlink="http://www.w3.org/1999/xlink">
 <metadata>
  <rdf:RDF xmlns:cc="http://creativecommons.org/ns#" xmlns:dc="http://purl.org/dc/elements/1.1/" xmlns:rdf="http://www.w3.org/1999/02/22-rdf-syntax-ns#">
   <cc:Work>
    <dc:type rdf:resource="http://purl.org/dc/dcmitype/StillImage"/>
    <dc:date>2022-02-02T13:19:32.824789</dc:date>
    <dc:format>image/svg+xml</dc:format>
    <dc:creator>
     <cc:Agent>
      <dc:title>Matplotlib v3.3.1, https://matplotlib.org/</dc:title>
     </cc:Agent>
    </dc:creator>
   </cc:Work>
  </rdf:RDF>
 </metadata>
 <defs>
  <style type="text/css">*{stroke-linecap:butt;stroke-linejoin:round;}</style>
 </defs>
 <g id="figure_1">
  <g id="patch_1">
   <path d="M 0 432 
L 432 432 
L 432 0 
L 0 0 
z
" style="fill:#ffffff;"/>
  </g>
  <g id="axes_1">
   <g id="patch_2">
    <path d="M 63.09 125.325686 
L 419.04 125.325686 
L 419.04 12.96 
L 63.09 12.96 
z
" style="fill:#eaeaf2;"/>
   </g>
   <g id="matplotlib.axis_1">
    <g id="xtick_1">
     <g id="line2d_1">
      <path clip-path="url(#p1e4a006142)" d="M 108.133639 125.325686 
L 108.133639 12.96 
" style="fill:none;stroke:#ffffff;stroke-linecap:round;"/>
     </g>
    </g>
    <g id="xtick_2">
     <g id="line2d_2">
      <path clip-path="url(#p1e4a006142)" d="M 162.110437 125.325686 
L 162.110437 12.96 
" style="fill:none;stroke:#ffffff;stroke-linecap:round;"/>
     </g>
    </g>
    <g id="xtick_3">
     <g id="line2d_3">
      <path clip-path="url(#p1e4a006142)" d="M 216.087236 125.325686 
L 216.087236 12.96 
" style="fill:none;stroke:#ffffff;stroke-linecap:round;"/>
     </g>
    </g>
    <g id="xtick_4">
     <g id="line2d_4">
      <path clip-path="url(#p1e4a006142)" d="M 270.064035 125.325686 
L 270.064035 12.96 
" style="fill:none;stroke:#ffffff;stroke-linecap:round;"/>
     </g>
    </g>
    <g id="xtick_5">
     <g id="line2d_5">
      <path clip-path="url(#p1e4a006142)" d="M 324.040834 125.325686 
L 324.040834 12.96 
" style="fill:none;stroke:#ffffff;stroke-linecap:round;"/>
     </g>
    </g>
    <g id="xtick_6">
     <g id="line2d_6">
      <path clip-path="url(#p1e4a006142)" d="M 378.017633 125.325686 
L 378.017633 12.96 
" style="fill:none;stroke:#ffffff;stroke-linecap:round;"/>
     </g>
    </g>
   </g>
   <g id="matplotlib.axis_2">
    <g id="ytick_1">
     <g id="line2d_7">
      <path clip-path="url(#p1e4a006142)" d="M 63.09 120.644927 
L 419.04 120.644927 
" style="fill:none;stroke:#ffffff;stroke-linecap:round;"/>
     </g>
     <g id="text_1">
      <!-- −20 -->
      <g style="fill:#262626;" transform="translate(30.374844 124.824067)scale(0.11 -0.11)">
       <defs>
        <path d="M 10.59375 35.5 
L 73.1875 35.5 
L 73.1875 27.203125 
L 10.59375 27.203125 
z
" id="DejaVuSans-8722"/>
        <path d="M 19.1875 8.296875 
L 53.609375 8.296875 
L 53.609375 0 
L 7.328125 0 
L 7.328125 8.296875 
Q 12.9375 14.109375 22.625 23.890625 
Q 32.328125 33.6875 34.8125 36.53125 
Q 39.546875 41.84375 41.421875 45.53125 
Q 43.3125 49.21875 43.3125 52.78125 
Q 43.3125 58.59375 39.234375 62.25 
Q 35.15625 65.921875 28.609375 65.921875 
Q 23.96875 65.921875 18.8125 64.3125 
Q 13.671875 62.703125 7.8125 59.421875 
L 7.8125 69.390625 
Q 13.765625 71.78125 18.9375 73 
Q 24.125 74.21875 28.421875 74.21875 
Q 39.75 74.21875 46.484375 68.546875 
Q 53.21875 62.890625 53.21875 53.421875 
Q 53.21875 48.921875 51.53125 44.890625 
Q 49.859375 40.875 45.40625 35.40625 
Q 44.1875 33.984375 37.640625 27.21875 
Q 31.109375 20.453125 19.1875 8.296875 
z
" id="DejaVuSans-50"/>
        <path d="M 31.78125 66.40625 
Q 24.171875 66.40625 20.328125 58.90625 
Q 16.5 51.421875 16.5 36.375 
Q 16.5 21.390625 20.328125 13.890625 
Q 24.171875 6.390625 31.78125 6.390625 
Q 39.453125 6.390625 43.28125 13.890625 
Q 47.125 21.390625 47.125 36.375 
Q 47.125 51.421875 43.28125 58.90625 
Q 39.453125 66.40625 31.78125 66.40625 
z
M 31.78125 74.21875 
Q 44.046875 74.21875 50.515625 64.515625 
Q 56.984375 54.828125 56.984375 36.375 
Q 56.984375 17.96875 50.515625 8.265625 
Q 44.046875 -1.421875 31.78125 -1.421875 
Q 19.53125 -1.421875 13.0625 8.265625 
Q 6.59375 17.96875 6.59375 36.375 
Q 6.59375 54.828125 13.0625 64.515625 
Q 19.53125 74.21875 31.78125 74.21875 
z
" id="DejaVuSans-48"/>
       </defs>
       <use xlink:href="#DejaVuSans-8722"/>
       <use x="83.789062" xlink:href="#DejaVuSans-50"/>
       <use x="147.412109" xlink:href="#DejaVuSans-48"/>
      </g>
     </g>
    </g>
    <g id="ytick_2">
     <g id="line2d_8">
      <path clip-path="url(#p1e4a006142)" d="M 63.09 82.159944 
L 419.04 82.159944 
" style="fill:none;stroke:#ffffff;stroke-linecap:round;"/>
     </g>
     <g id="text_2">
      <!-- −10 -->
      <g style="fill:#262626;" transform="translate(30.374844 86.339084)scale(0.11 -0.11)">
       <defs>
        <path d="M 12.40625 8.296875 
L 28.515625 8.296875 
L 28.515625 63.921875 
L 10.984375 60.40625 
L 10.984375 69.390625 
L 28.421875 72.90625 
L 38.28125 72.90625 
L 38.28125 8.296875 
L 54.390625 8.296875 
L 54.390625 0 
L 12.40625 0 
z
" id="DejaVuSans-49"/>
       </defs>
       <use xlink:href="#DejaVuSans-8722"/>
       <use x="83.789062" xlink:href="#DejaVuSans-49"/>
       <use x="147.412109" xlink:href="#DejaVuSans-48"/>
      </g>
     </g>
    </g>
    <g id="ytick_3">
     <g id="line2d_9">
      <path clip-path="url(#p1e4a006142)" d="M 63.09 43.67496 
L 419.04 43.67496 
" style="fill:none;stroke:#ffffff;stroke-linecap:round;"/>
     </g>
     <g id="text_3">
      <!-- 0 -->
      <g style="fill:#262626;" transform="translate(46.59125 47.854101)scale(0.11 -0.11)">
       <use xlink:href="#DejaVuSans-48"/>
      </g>
     </g>
    </g>
    <g id="text_4">
     <!-- $x$ (m) -->
     <g style="fill:#262626;" transform="translate(23.879219 85.162843)rotate(-90)scale(0.12 -0.12)">
      <defs>
       <path d="M 60.015625 54.6875 
L 34.90625 27.875 
L 50.296875 0 
L 39.984375 0 
L 28.421875 21.6875 
L 8.296875 0 
L -2.59375 0 
L 24.3125 28.8125 
L 10.015625 54.6875 
L 20.3125 54.6875 
L 30.8125 34.90625 
L 49.125 54.6875 
z
" id="DejaVuSans-Oblique-120"/>
       <path id="DejaVuSans-32"/>
       <path d="M 31 75.875 
Q 24.46875 64.65625 21.28125 53.65625 
Q 18.109375 42.671875 18.109375 31.390625 
Q 18.109375 20.125 21.3125 9.0625 
Q 24.515625 -2 31 -13.1875 
L 23.1875 -13.1875 
Q 15.875 -1.703125 12.234375 9.375 
Q 8.59375 20.453125 8.59375 31.390625 
Q 8.59375 42.28125 12.203125 53.3125 
Q 15.828125 64.359375 23.1875 75.875 
z
" id="DejaVuSans-40"/>
       <path d="M 52 44.1875 
Q 55.375 50.25 60.0625 53.125 
Q 64.75 56 71.09375 56 
Q 79.640625 56 84.28125 50.015625 
Q 88.921875 44.046875 88.921875 33.015625 
L 88.921875 0 
L 79.890625 0 
L 79.890625 32.71875 
Q 79.890625 40.578125 77.09375 44.375 
Q 74.3125 48.1875 68.609375 48.1875 
Q 61.625 48.1875 57.5625 43.546875 
Q 53.515625 38.921875 53.515625 30.90625 
L 53.515625 0 
L 44.484375 0 
L 44.484375 32.71875 
Q 44.484375 40.625 41.703125 44.40625 
Q 38.921875 48.1875 33.109375 48.1875 
Q 26.21875 48.1875 22.15625 43.53125 
Q 18.109375 38.875 18.109375 30.90625 
L 18.109375 0 
L 9.078125 0 
L 9.078125 54.6875 
L 18.109375 54.6875 
L 18.109375 46.1875 
Q 21.1875 51.21875 25.484375 53.609375 
Q 29.78125 56 35.6875 56 
Q 41.65625 56 45.828125 52.96875 
Q 50 49.953125 52 44.1875 
z
" id="DejaVuSans-109"/>
       <path d="M 8.015625 75.875 
L 15.828125 75.875 
Q 23.140625 64.359375 26.78125 53.3125 
Q 30.421875 42.28125 30.421875 31.390625 
Q 30.421875 20.453125 26.78125 9.375 
Q 23.140625 -1.703125 15.828125 -13.1875 
L 8.015625 -13.1875 
Q 14.5 -2 17.703125 9.0625 
Q 20.90625 20.125 20.90625 31.390625 
Q 20.90625 42.671875 17.703125 53.65625 
Q 14.5 64.65625 8.015625 75.875 
z
" id="DejaVuSans-41"/>
      </defs>
      <use transform="translate(0 0.125)" xlink:href="#DejaVuSans-Oblique-120"/>
      <use transform="translate(59.179688 0.125)" xlink:href="#DejaVuSans-32"/>
      <use transform="translate(90.966797 0.125)" xlink:href="#DejaVuSans-40"/>
      <use transform="translate(129.980469 0.125)" xlink:href="#DejaVuSans-109"/>
      <use transform="translate(227.392578 0.125)" xlink:href="#DejaVuSans-41"/>
     </g>
    </g>
   </g>
   <g id="line2d_10">
    <path clip-path="url(#p1e4a006142)" d="M 79.269545 120.063226 
L 108.147133 119.968014 
L 109.496553 119.639545 
L 110.845973 119.077895 
L 112.465277 118.168033 
L 114.624349 116.662116 
L 117.323189 114.462545 
L 120.831681 111.285533 
L 125.959476 106.313658 
L 135.405416 96.790433 
L 141.07298 91.197295 
L 144.041704 88.585743 
L 145.661008 87.376545 
L 147.550196 86.30112 
L 149.709268 85.300934 
L 151.86834 84.557019 
L 154.027412 84.03193 
L 156.186484 83.73829 
L 158.075672 83.704154 
L 160.504628 83.902159 
L 166.981844 84.797204 
L 171.299987 86.139406 
L 173.189175 87.114885 
L 184.794187 93.956014 
L 186.413491 94.949042 
L 187.493027 95.34005 
L 188.842447 95.554219 
L 190.191867 95.513348 
L 191.541287 95.247455 
L 193.160591 94.666832 
L 194.779895 93.836595 
L 196.399199 92.974917 
L 197.478735 92.676619 
L 199.098039 92.34715 
L 202.336647 91.448833 
L 210.972935 90.632451 
L 215.560963 90.70842 
L 217.180267 90.516727 
L 218.259802 90.207923 
L 219.609222 89.566956 
L 221.49841 88.347636 
L 223.927366 86.512711 
L 226.626206 84.173132 
L 230.94435 80.001294 
L 233.913074 76.765242 
L 239.850522 70.124689 
L 243.08913 67.17642 
L 245.78797 65.062447 
L 247.407274 63.995782 
L 249.026578 63.21765 
L 251.18565 62.149326 
L 254.964026 60.044917 
L 256.043562 59.921973 
L 257.123098 60.070718 
L 258.742402 60.586713 
L 261.171358 61.648644 
L 263.600314 62.599004 
L 267.108805 63.834722 
L 269.267877 64.35848 
L 271.966717 64.781461 
L 274.665557 64.983803 
L 284.111497 65.31397 
L 292.208017 65.36014 
L 295.986393 65.192245 
L 300.574421 65.034288 
L 305.432333 64.867178 
L 308.940825 64.807773 
L 310.560129 65.079111 
L 312.989084 65.573058 
L 316.76746 66.094945 
L 318.656648 66.284126 
L 320.275952 66.2284 
L 326.2134 65.425364 
L 329.452008 65.079704 
L 330.801428 64.599604 
L 332.420732 63.764195 
L 334.30992 62.527757 
L 336.738876 60.660904 
L 339.977484 57.875927 
L 351.85238 47.378715 
L 354.55122 45.34347 
L 356.710292 43.956592 
L 358.869363 42.832728 
L 360.758551 42.072979 
L 363.727275 40.979941 
L 366.156231 39.962274 
L 368.045419 39.468394 
L 370.204491 39.150239 
L 373.712983 38.895187 
L 379.110663 38.750584 
L 389.366255 38.737914 
L 399.082079 38.702828 
L 400.701383 38.381774 
L 402.590571 37.991902 
L 402.860455 37.963246 
L 402.860455 37.963246 
" style="fill:none;stroke:#000000;stroke-dasharray:5.55,2.4;stroke-dashoffset:0;stroke-opacity:0.5;stroke-width:1.5;"/>
   </g>
   <g id="line2d_11">
    <path clip-path="url(#p1e4a006142)" d="M 80.353939 120.063226 
L 81.163591 120.021206 
L 81.703359 119.858254 
L 82.782895 120.068074 
L 99.245819 120.120081 
L 108.691759 119.854815 
L 110.311063 119.352423 
L 111.660483 118.708895 
L 113.549671 117.546333 
L 115.708743 115.927808 
L 118.947351 113.175801 
L 124.075146 108.330205 
L 129.202942 103.177565 
L 136.48981 95.887519 
L 142.427258 90.279935 
L 144.046562 89.014052 
L 145.93575 87.788745 
L 149.174358 86.199658 
L 150.793662 85.704497 
L 155.38169 84.661471 
L 156.73111 84.68913 
L 158.08053 84.785653 
L 162.668558 84.691197 
L 163.748094 84.889506 
L 165.637282 85.241763 
L 167.526469 85.634717 
L 168.336121 85.696509 
L 170.225309 85.903402 
L 171.574729 86.12108 
L 176.432641 88.270795 
L 178.861597 89.340813 
L 181.290553 90.298739 
L 184.529161 91.757882 
L 185.608697 92.454559 
L 186.418349 92.720808 
L 189.656957 92.958382 
L 192.085913 92.320902 
L 193.435333 91.680737 
L 195.864289 90.54051 
L 197.213709 90.289574 
L 199.372781 90.096623 
L 200.182433 89.926699 
L 201.801737 89.613002 
L 202.881273 89.580934 
L 206.119881 89.82946 
L 209.628373 89.472537 
L 217.994776 88.536108 
L 219.074312 88.109421 
L 220.153848 87.423405 
L 225.551528 83.261297 
L 227.170832 81.85526 
L 228.790136 80.496908 
L 231.488976 78.103427 
L 233.10828 76.433656 
L 233.648048 75.873574 
L 235.267352 74.319594 
L 239.85538 69.561836 
L 241.744568 68.012806 
L 242.824104 67.041498 
L 244.443408 65.930475 
L 245.792828 65.197961 
L 246.60248 64.870544 
L 247.142248 64.661789 
L 254.968884 60.85715 
L 256.318304 60.815115 
L 257.937608 61.47146 
L 258.477376 61.757496 
L 259.287028 62.263376 
L 262.795519 63.338004 
L 263.875055 63.646952 
L 266.304011 64.147379 
L 271.161923 64.791688 
L 271.971575 64.710411 
L 272.511343 64.802045 
L 274.130647 64.227563 
L 276.289719 63.931022 
L 280.607863 63.268612 
L 283.306703 62.955493 
L 287.354963 62.696322 
L 291.673107 62.045424 
L 300.039511 60.074856 
L 305.167307 58.811982 
L 306.246843 58.63843 
L 312.454174 57.156411 
L 312.993942 57.314734 
L 313.803594 56.942638 
L 314.613246 57.055473 
L 319.471158 56.90072 
L 320.820578 56.543306 
L 325.67849 55.292184 
L 327.297794 55.145803 
L 328.917098 54.876326 
L 330.536402 54.344966 
L 331.615938 53.909481 
L 333.235242 52.439857 
L 336.743734 49.629916 
L 338.632922 47.879935 
L 340.791994 46.129241 
L 343.22095 44.01851 
L 344.030602 43.361725 
L 344.840254 42.857541 
L 345.380022 42.382463 
L 346.729442 41.149751 
L 347.539094 40.509464 
L 348.61863 39.732319 
L 349.428282 38.936265 
L 350.237934 38.229087 
L 351.31747 37.299042 
L 352.66689 36.725709 
L 353.476542 36.281419 
L 353.746426 36.252088 
L 354.286193 35.823806 
L 356.175381 33.953559 
L 356.985033 33.736735 
L 357.794685 33.615671 
L 358.334453 33.197273 
L 358.874221 32.533338 
L 359.953757 31.107628 
L 360.763409 31.44462 
L 362.382713 31.471361 
L 362.922481 31.384572 
L 363.192365 31.37679 
L 363.462249 31.202726 
L 364.002017 30.52316 
L 364.811669 29.012046 
L 366.161089 27.470941 
L 366.700857 27.555253 
L 367.240625 26.811895 
L 367.510509 26.728589 
L 368.320161 27.270449 
L 368.859929 27.475725 
L 369.399697 27.492506 
L 370.209349 26.693135 
L 371.019001 25.551333 
L 371.558769 25.119028 
L 372.098537 24.864827 
L 372.638305 24.325188 
L 372.908189 24.306775 
L 373.447957 24.770547 
L 374.527493 24.752552 
L 375.337145 24.493373 
L 376.146797 24.036987 
L 376.956449 24.107706 
L 378.305869 23.8852 
L 379.115521 23.842743 
L 385.322853 22.373606 
L 386.672273 21.923257 
L 390.180765 20.925585 
L 391.530185 20.719366 
L 392.879605 20.422348 
L 393.689257 20.197168 
L 396.118213 19.481241 
L 398.277285 19.160188 
L 399.896589 18.866563 
L 401.785776 18.304392 
L 402.595428 18.067531 
L 402.595428 18.067531 
" style="fill:none;stroke:#4c72b0;stroke-linecap:round;stroke-opacity:0.75;stroke-width:1.5;"/>
   </g>
   <g id="patch_3">
    <path d="M 63.09 125.325686 
L 63.09 12.96 
" style="fill:none;stroke:#ffffff;stroke-linecap:square;stroke-linejoin:miter;stroke-width:1.25;"/>
   </g>
   <g id="patch_4">
    <path d="M 419.04 125.325686 
L 419.04 12.96 
" style="fill:none;stroke:#ffffff;stroke-linecap:square;stroke-linejoin:miter;stroke-width:1.25;"/>
   </g>
   <g id="patch_5">
    <path d="M 63.09 125.325686 
L 419.04 125.325686 
" style="fill:none;stroke:#ffffff;stroke-linecap:square;stroke-linejoin:miter;stroke-width:1.25;"/>
   </g>
   <g id="patch_6">
    <path d="M 63.09 12.96 
L 419.04 12.96 
" style="fill:none;stroke:#ffffff;stroke-linecap:square;stroke-linejoin:miter;stroke-width:1.25;"/>
   </g>
   <g id="legend_1">
    <g id="patch_7">
     <path d="M 70.79 54.66375 
L 249.818438 54.66375 
Q 252.018438 54.66375 252.018438 52.46375 
L 252.018438 20.66 
Q 252.018438 18.46 249.818438 18.46 
L 70.79 18.46 
Q 68.59 18.46 68.59 20.66 
L 68.59 52.46375 
Q 68.59 54.66375 70.79 54.66375 
z
" style="fill:#eaeaf2;opacity:0.8;stroke:#cccccc;stroke-linejoin:miter;"/>
    </g>
    <g id="line2d_12">
     <path d="M 72.99 27.368281 
L 94.99 27.368281 
" style="fill:none;stroke:#000000;stroke-dasharray:5.55,2.4;stroke-dashoffset:0;stroke-opacity:0.5;stroke-width:1.5;"/>
    </g>
    <g id="line2d_13"/>
    <g id="text_5">
     <!-- /tf:world.base_link_gt -->
     <g style="fill:#262626;" transform="translate(103.79 31.218281)scale(0.11 -0.11)">
      <defs>
       <path d="M 25.390625 72.90625 
L 33.6875 72.90625 
L 8.296875 -9.28125 
L 0 -9.28125 
z
" id="DejaVuSans-47"/>
       <path d="M 18.3125 70.21875 
L 18.3125 54.6875 
L 36.8125 54.6875 
L 36.8125 47.703125 
L 18.3125 47.703125 
L 18.3125 18.015625 
Q 18.3125 11.328125 20.140625 9.421875 
Q 21.96875 7.515625 27.59375 7.515625 
L 36.8125 7.515625 
L 36.8125 0 
L 27.59375 0 
Q 17.1875 0 13.234375 3.875 
Q 9.28125 7.765625 9.28125 18.015625 
L 9.28125 47.703125 
L 2.6875 47.703125 
L 2.6875 54.6875 
L 9.28125 54.6875 
L 9.28125 70.21875 
z
" id="DejaVuSans-116"/>
       <path d="M 37.109375 75.984375 
L 37.109375 68.5 
L 28.515625 68.5 
Q 23.6875 68.5 21.796875 66.546875 
Q 19.921875 64.59375 19.921875 59.515625 
L 19.921875 54.6875 
L 34.71875 54.6875 
L 34.71875 47.703125 
L 19.921875 47.703125 
L 19.921875 0 
L 10.890625 0 
L 10.890625 47.703125 
L 2.296875 47.703125 
L 2.296875 54.6875 
L 10.890625 54.6875 
L 10.890625 58.5 
Q 10.890625 67.625 15.140625 71.796875 
Q 19.390625 75.984375 28.609375 75.984375 
z
" id="DejaVuSans-102"/>
       <path d="M 11.71875 12.40625 
L 22.015625 12.40625 
L 22.015625 0 
L 11.71875 0 
z
M 11.71875 51.703125 
L 22.015625 51.703125 
L 22.015625 39.3125 
L 11.71875 39.3125 
z
" id="DejaVuSans-58"/>
       <path d="M 4.203125 54.6875 
L 13.1875 54.6875 
L 24.421875 12.015625 
L 35.59375 54.6875 
L 46.1875 54.6875 
L 57.421875 12.015625 
L 68.609375 54.6875 
L 77.59375 54.6875 
L 63.28125 0 
L 52.6875 0 
L 40.921875 44.828125 
L 29.109375 0 
L 18.5 0 
z
" id="DejaVuSans-119"/>
       <path d="M 30.609375 48.390625 
Q 23.390625 48.390625 19.1875 42.75 
Q 14.984375 37.109375 14.984375 27.296875 
Q 14.984375 17.484375 19.15625 11.84375 
Q 23.34375 6.203125 30.609375 6.203125 
Q 37.796875 6.203125 41.984375 11.859375 
Q 46.1875 17.53125 46.1875 27.296875 
Q 46.1875 37.015625 41.984375 42.703125 
Q 37.796875 48.390625 30.609375 48.390625 
z
M 30.609375 56 
Q 42.328125 56 49.015625 48.375 
Q 55.71875 40.765625 55.71875 27.296875 
Q 55.71875 13.875 49.015625 6.21875 
Q 42.328125 -1.421875 30.609375 -1.421875 
Q 18.84375 -1.421875 12.171875 6.21875 
Q 5.515625 13.875 5.515625 27.296875 
Q 5.515625 40.765625 12.171875 48.375 
Q 18.84375 56 30.609375 56 
z
" id="DejaVuSans-111"/>
       <path d="M 41.109375 46.296875 
Q 39.59375 47.171875 37.8125 47.578125 
Q 36.03125 48 33.890625 48 
Q 26.265625 48 22.1875 43.046875 
Q 18.109375 38.09375 18.109375 28.8125 
L 18.109375 0 
L 9.078125 0 
L 9.078125 54.6875 
L 18.109375 54.6875 
L 18.109375 46.1875 
Q 20.953125 51.171875 25.484375 53.578125 
Q 30.03125 56 36.53125 56 
Q 37.453125 56 38.578125 55.875 
Q 39.703125 55.765625 41.0625 55.515625 
z
" id="DejaVuSans-114"/>
       <path d="M 9.421875 75.984375 
L 18.40625 75.984375 
L 18.40625 0 
L 9.421875 0 
z
" id="DejaVuSans-108"/>
       <path d="M 45.40625 46.390625 
L 45.40625 75.984375 
L 54.390625 75.984375 
L 54.390625 0 
L 45.40625 0 
L 45.40625 8.203125 
Q 42.578125 3.328125 38.25 0.953125 
Q 33.9375 -1.421875 27.875 -1.421875 
Q 17.96875 -1.421875 11.734375 6.484375 
Q 5.515625 14.40625 5.515625 27.296875 
Q 5.515625 40.1875 11.734375 48.09375 
Q 17.96875 56 27.875 56 
Q 33.9375 56 38.25 53.625 
Q 42.578125 51.265625 45.40625 46.390625 
z
M 14.796875 27.296875 
Q 14.796875 17.390625 18.875 11.75 
Q 22.953125 6.109375 30.078125 6.109375 
Q 37.203125 6.109375 41.296875 11.75 
Q 45.40625 17.390625 45.40625 27.296875 
Q 45.40625 37.203125 41.296875 42.84375 
Q 37.203125 48.484375 30.078125 48.484375 
Q 22.953125 48.484375 18.875 42.84375 
Q 14.796875 37.203125 14.796875 27.296875 
z
" id="DejaVuSans-100"/>
       <path d="M 10.6875 12.40625 
L 21 12.40625 
L 21 0 
L 10.6875 0 
z
" id="DejaVuSans-46"/>
       <path d="M 48.6875 27.296875 
Q 48.6875 37.203125 44.609375 42.84375 
Q 40.53125 48.484375 33.40625 48.484375 
Q 26.265625 48.484375 22.1875 42.84375 
Q 18.109375 37.203125 18.109375 27.296875 
Q 18.109375 17.390625 22.1875 11.75 
Q 26.265625 6.109375 33.40625 6.109375 
Q 40.53125 6.109375 44.609375 11.75 
Q 48.6875 17.390625 48.6875 27.296875 
z
M 18.109375 46.390625 
Q 20.953125 51.265625 25.265625 53.625 
Q 29.59375 56 35.59375 56 
Q 45.5625 56 51.78125 48.09375 
Q 58.015625 40.1875 58.015625 27.296875 
Q 58.015625 14.40625 51.78125 6.484375 
Q 45.5625 -1.421875 35.59375 -1.421875 
Q 29.59375 -1.421875 25.265625 0.953125 
Q 20.953125 3.328125 18.109375 8.203125 
L 18.109375 0 
L 9.078125 0 
L 9.078125 75.984375 
L 18.109375 75.984375 
z
" id="DejaVuSans-98"/>
       <path d="M 34.28125 27.484375 
Q 23.390625 27.484375 19.1875 25 
Q 14.984375 22.515625 14.984375 16.5 
Q 14.984375 11.71875 18.140625 8.90625 
Q 21.296875 6.109375 26.703125 6.109375 
Q 34.1875 6.109375 38.703125 11.40625 
Q 43.21875 16.703125 43.21875 25.484375 
L 43.21875 27.484375 
z
M 52.203125 31.203125 
L 52.203125 0 
L 43.21875 0 
L 43.21875 8.296875 
Q 40.140625 3.328125 35.546875 0.953125 
Q 30.953125 -1.421875 24.3125 -1.421875 
Q 15.921875 -1.421875 10.953125 3.296875 
Q 6 8.015625 6 15.921875 
Q 6 25.140625 12.171875 29.828125 
Q 18.359375 34.515625 30.609375 34.515625 
L 43.21875 34.515625 
L 43.21875 35.40625 
Q 43.21875 41.609375 39.140625 45 
Q 35.0625 48.390625 27.6875 48.390625 
Q 23 48.390625 18.546875 47.265625 
Q 14.109375 46.140625 10.015625 43.890625 
L 10.015625 52.203125 
Q 14.9375 54.109375 19.578125 55.046875 
Q 24.21875 56 28.609375 56 
Q 40.484375 56 46.34375 49.84375 
Q 52.203125 43.703125 52.203125 31.203125 
z
" id="DejaVuSans-97"/>
       <path d="M 44.28125 53.078125 
L 44.28125 44.578125 
Q 40.484375 46.53125 36.375 47.5 
Q 32.28125 48.484375 27.875 48.484375 
Q 21.1875 48.484375 17.84375 46.4375 
Q 14.5 44.390625 14.5 40.28125 
Q 14.5 37.15625 16.890625 35.375 
Q 19.28125 33.59375 26.515625 31.984375 
L 29.59375 31.296875 
Q 39.15625 29.25 43.1875 25.515625 
Q 47.21875 21.78125 47.21875 15.09375 
Q 47.21875 7.46875 41.1875 3.015625 
Q 35.15625 -1.421875 24.609375 -1.421875 
Q 20.21875 -1.421875 15.453125 -0.5625 
Q 10.6875 0.296875 5.421875 2 
L 5.421875 11.28125 
Q 10.40625 8.6875 15.234375 7.390625 
Q 20.0625 6.109375 24.8125 6.109375 
Q 31.15625 6.109375 34.5625 8.28125 
Q 37.984375 10.453125 37.984375 14.40625 
Q 37.984375 18.0625 35.515625 20.015625 
Q 33.0625 21.96875 24.703125 23.78125 
L 21.578125 24.515625 
Q 13.234375 26.265625 9.515625 29.90625 
Q 5.8125 33.546875 5.8125 39.890625 
Q 5.8125 47.609375 11.28125 51.796875 
Q 16.75 56 26.8125 56 
Q 31.78125 56 36.171875 55.265625 
Q 40.578125 54.546875 44.28125 53.078125 
z
" id="DejaVuSans-115"/>
       <path d="M 56.203125 29.59375 
L 56.203125 25.203125 
L 14.890625 25.203125 
Q 15.484375 15.921875 20.484375 11.0625 
Q 25.484375 6.203125 34.421875 6.203125 
Q 39.59375 6.203125 44.453125 7.46875 
Q 49.3125 8.734375 54.109375 11.28125 
L 54.109375 2.78125 
Q 49.265625 0.734375 44.1875 -0.34375 
Q 39.109375 -1.421875 33.890625 -1.421875 
Q 20.796875 -1.421875 13.15625 6.1875 
Q 5.515625 13.8125 5.515625 26.8125 
Q 5.515625 40.234375 12.765625 48.109375 
Q 20.015625 56 32.328125 56 
Q 43.359375 56 49.78125 48.890625 
Q 56.203125 41.796875 56.203125 29.59375 
z
M 47.21875 32.234375 
Q 47.125 39.59375 43.09375 43.984375 
Q 39.0625 48.390625 32.421875 48.390625 
Q 24.90625 48.390625 20.390625 44.140625 
Q 15.875 39.890625 15.1875 32.171875 
z
" id="DejaVuSans-101"/>
       <path d="M 50.984375 -16.609375 
L 50.984375 -23.578125 
L -0.984375 -23.578125 
L -0.984375 -16.609375 
z
" id="DejaVuSans-95"/>
       <path d="M 9.421875 54.6875 
L 18.40625 54.6875 
L 18.40625 0 
L 9.421875 0 
z
M 9.421875 75.984375 
L 18.40625 75.984375 
L 18.40625 64.59375 
L 9.421875 64.59375 
z
" id="DejaVuSans-105"/>
       <path d="M 54.890625 33.015625 
L 54.890625 0 
L 45.90625 0 
L 45.90625 32.71875 
Q 45.90625 40.484375 42.875 44.328125 
Q 39.84375 48.1875 33.796875 48.1875 
Q 26.515625 48.1875 22.3125 43.546875 
Q 18.109375 38.921875 18.109375 30.90625 
L 18.109375 0 
L 9.078125 0 
L 9.078125 54.6875 
L 18.109375 54.6875 
L 18.109375 46.1875 
Q 21.34375 51.125 25.703125 53.5625 
Q 30.078125 56 35.796875 56 
Q 45.21875 56 50.046875 50.171875 
Q 54.890625 44.34375 54.890625 33.015625 
z
" id="DejaVuSans-110"/>
       <path d="M 9.078125 75.984375 
L 18.109375 75.984375 
L 18.109375 31.109375 
L 44.921875 54.6875 
L 56.390625 54.6875 
L 27.390625 29.109375 
L 57.625 0 
L 45.90625 0 
L 18.109375 26.703125 
L 18.109375 0 
L 9.078125 0 
z
" id="DejaVuSans-107"/>
       <path d="M 45.40625 27.984375 
Q 45.40625 37.75 41.375 43.109375 
Q 37.359375 48.484375 30.078125 48.484375 
Q 22.859375 48.484375 18.828125 43.109375 
Q 14.796875 37.75 14.796875 27.984375 
Q 14.796875 18.265625 18.828125 12.890625 
Q 22.859375 7.515625 30.078125 7.515625 
Q 37.359375 7.515625 41.375 12.890625 
Q 45.40625 18.265625 45.40625 27.984375 
z
M 54.390625 6.78125 
Q 54.390625 -7.171875 48.1875 -13.984375 
Q 42 -20.796875 29.203125 -20.796875 
Q 24.46875 -20.796875 20.265625 -20.09375 
Q 16.0625 -19.390625 12.109375 -17.921875 
L 12.109375 -9.1875 
Q 16.0625 -11.328125 19.921875 -12.34375 
Q 23.78125 -13.375 27.78125 -13.375 
Q 36.625 -13.375 41.015625 -8.765625 
Q 45.40625 -4.15625 45.40625 5.171875 
L 45.40625 9.625 
Q 42.625 4.78125 38.28125 2.390625 
Q 33.9375 0 27.875 0 
Q 17.828125 0 11.671875 7.65625 
Q 5.515625 15.328125 5.515625 27.984375 
Q 5.515625 40.671875 11.671875 48.328125 
Q 17.828125 56 27.875 56 
Q 33.9375 56 38.28125 53.609375 
Q 42.625 51.21875 45.40625 46.390625 
L 45.40625 54.6875 
L 54.390625 54.6875 
z
" id="DejaVuSans-103"/>
      </defs>
      <use xlink:href="#DejaVuSans-47"/>
      <use x="33.691406" xlink:href="#DejaVuSans-116"/>
      <use x="72.900391" xlink:href="#DejaVuSans-102"/>
      <use x="104.480469" xlink:href="#DejaVuSans-58"/>
      <use x="138.171875" xlink:href="#DejaVuSans-119"/>
      <use x="219.958984" xlink:href="#DejaVuSans-111"/>
      <use x="281.140625" xlink:href="#DejaVuSans-114"/>
      <use x="322.253906" xlink:href="#DejaVuSans-108"/>
      <use x="350.037109" xlink:href="#DejaVuSans-100"/>
      <use x="413.513672" xlink:href="#DejaVuSans-46"/>
      <use x="445.300781" xlink:href="#DejaVuSans-98"/>
      <use x="508.777344" xlink:href="#DejaVuSans-97"/>
      <use x="570.056641" xlink:href="#DejaVuSans-115"/>
      <use x="622.15625" xlink:href="#DejaVuSans-101"/>
      <use x="683.679688" xlink:href="#DejaVuSans-95"/>
      <use x="733.679688" xlink:href="#DejaVuSans-108"/>
      <use x="761.462891" xlink:href="#DejaVuSans-105"/>
      <use x="789.246094" xlink:href="#DejaVuSans-110"/>
      <use x="852.625" xlink:href="#DejaVuSans-107"/>
      <use x="910.535156" xlink:href="#DejaVuSans-95"/>
      <use x="960.535156" xlink:href="#DejaVuSans-103"/>
      <use x="1024.011719" xlink:href="#DejaVuSans-116"/>
     </g>
    </g>
    <g id="line2d_14">
     <path d="M 72.99 43.820156 
L 94.99 43.820156 
" style="fill:none;stroke:#4c72b0;stroke-linecap:round;stroke-opacity:0.75;stroke-width:1.5;"/>
    </g>
    <g id="line2d_15"/>
    <g id="text_6">
     <!-- /tf:world.base_link_kimera -->
     <g style="fill:#262626;" transform="translate(103.79 47.670156)scale(0.11 -0.11)">
      <use xlink:href="#DejaVuSans-47"/>
      <use x="33.691406" xlink:href="#DejaVuSans-116"/>
      <use x="72.900391" xlink:href="#DejaVuSans-102"/>
      <use x="104.480469" xlink:href="#DejaVuSans-58"/>
      <use x="138.171875" xlink:href="#DejaVuSans-119"/>
      <use x="219.958984" xlink:href="#DejaVuSans-111"/>
      <use x="281.140625" xlink:href="#DejaVuSans-114"/>
      <use x="322.253906" xlink:href="#DejaVuSans-108"/>
      <use x="350.037109" xlink:href="#DejaVuSans-100"/>
      <use x="413.513672" xlink:href="#DejaVuSans-46"/>
      <use x="445.300781" xlink:href="#DejaVuSans-98"/>
      <use x="508.777344" xlink:href="#DejaVuSans-97"/>
      <use x="570.056641" xlink:href="#DejaVuSans-115"/>
      <use x="622.15625" xlink:href="#DejaVuSans-101"/>
      <use x="683.679688" xlink:href="#DejaVuSans-95"/>
      <use x="733.679688" xlink:href="#DejaVuSans-108"/>
      <use x="761.462891" xlink:href="#DejaVuSans-105"/>
      <use x="789.246094" xlink:href="#DejaVuSans-110"/>
      <use x="852.625" xlink:href="#DejaVuSans-107"/>
      <use x="910.535156" xlink:href="#DejaVuSans-95"/>
      <use x="960.535156" xlink:href="#DejaVuSans-107"/>
      <use x="1018.445312" xlink:href="#DejaVuSans-105"/>
      <use x="1046.228516" xlink:href="#DejaVuSans-109"/>
      <use x="1143.640625" xlink:href="#DejaVuSans-101"/>
      <use x="1205.164062" xlink:href="#DejaVuSans-114"/>
      <use x="1246.277344" xlink:href="#DejaVuSans-97"/>
     </g>
    </g>
   </g>
  </g>
  <g id="axes_2">
   <g id="patch_8">
    <path d="M 63.09 254.092843 
L 419.04 254.092843 
L 419.04 141.727157 
L 63.09 141.727157 
z
" style="fill:#eaeaf2;"/>
   </g>
   <g id="matplotlib.axis_3">
    <g id="xtick_7">
     <g id="line2d_16">
      <path clip-path="url(#pd37d425285)" d="M 108.133639 254.092843 
L 108.133639 141.727157 
" style="fill:none;stroke:#ffffff;stroke-linecap:round;"/>
     </g>
    </g>
    <g id="xtick_8">
     <g id="line2d_17">
      <path clip-path="url(#pd37d425285)" d="M 162.110437 254.092843 
L 162.110437 141.727157 
" style="fill:none;stroke:#ffffff;stroke-linecap:round;"/>
     </g>
    </g>
    <g id="xtick_9">
     <g id="line2d_18">
      <path clip-path="url(#pd37d425285)" d="M 216.087236 254.092843 
L 216.087236 141.727157 
" style="fill:none;stroke:#ffffff;stroke-linecap:round;"/>
     </g>
    </g>
    <g id="xtick_10">
     <g id="line2d_19">
      <path clip-path="url(#pd37d425285)" d="M 270.064035 254.092843 
L 270.064035 141.727157 
" style="fill:none;stroke:#ffffff;stroke-linecap:round;"/>
     </g>
    </g>
    <g id="xtick_11">
     <g id="line2d_20">
      <path clip-path="url(#pd37d425285)" d="M 324.040834 254.092843 
L 324.040834 141.727157 
" style="fill:none;stroke:#ffffff;stroke-linecap:round;"/>
     </g>
    </g>
    <g id="xtick_12">
     <g id="line2d_21">
      <path clip-path="url(#pd37d425285)" d="M 378.017633 254.092843 
L 378.017633 141.727157 
" style="fill:none;stroke:#ffffff;stroke-linecap:round;"/>
     </g>
    </g>
   </g>
   <g id="matplotlib.axis_4">
    <g id="ytick_4">
     <g id="line2d_22">
      <path clip-path="url(#pd37d425285)" d="M 63.09 251.228122 
L 419.04 251.228122 
" style="fill:none;stroke:#ffffff;stroke-linecap:round;"/>
     </g>
     <g id="text_7">
      <!-- 10 -->
      <g style="fill:#262626;" transform="translate(39.5925 255.407263)scale(0.11 -0.11)">
       <use xlink:href="#DejaVuSans-49"/>
       <use x="63.623047" xlink:href="#DejaVuSans-48"/>
      </g>
     </g>
    </g>
    <g id="ytick_5">
     <g id="line2d_23">
      <path clip-path="url(#pd37d425285)" d="M 63.09 213.783044 
L 419.04 213.783044 
" style="fill:none;stroke:#ffffff;stroke-linecap:round;"/>
     </g>
     <g id="text_8">
      <!-- 20 -->
      <g style="fill:#262626;" transform="translate(39.5925 217.962184)scale(0.11 -0.11)">
       <use xlink:href="#DejaVuSans-50"/>
       <use x="63.623047" xlink:href="#DejaVuSans-48"/>
      </g>
     </g>
    </g>
    <g id="ytick_6">
     <g id="line2d_24">
      <path clip-path="url(#pd37d425285)" d="M 63.09 176.337965 
L 419.04 176.337965 
" style="fill:none;stroke:#ffffff;stroke-linecap:round;"/>
     </g>
     <g id="text_9">
      <!-- 30 -->
      <g style="fill:#262626;" transform="translate(39.5925 180.517106)scale(0.11 -0.11)">
       <defs>
        <path d="M 40.578125 39.3125 
Q 47.65625 37.796875 51.625 33 
Q 55.609375 28.21875 55.609375 21.1875 
Q 55.609375 10.40625 48.1875 4.484375 
Q 40.765625 -1.421875 27.09375 -1.421875 
Q 22.515625 -1.421875 17.65625 -0.515625 
Q 12.796875 0.390625 7.625 2.203125 
L 7.625 11.71875 
Q 11.71875 9.328125 16.59375 8.109375 
Q 21.484375 6.890625 26.8125 6.890625 
Q 36.078125 6.890625 40.9375 10.546875 
Q 45.796875 14.203125 45.796875 21.1875 
Q 45.796875 27.640625 41.28125 31.265625 
Q 36.765625 34.90625 28.71875 34.90625 
L 20.21875 34.90625 
L 20.21875 43.015625 
L 29.109375 43.015625 
Q 36.375 43.015625 40.234375 45.921875 
Q 44.09375 48.828125 44.09375 54.296875 
Q 44.09375 59.90625 40.109375 62.90625 
Q 36.140625 65.921875 28.71875 65.921875 
Q 24.65625 65.921875 20.015625 65.03125 
Q 15.375 64.15625 9.8125 62.3125 
L 9.8125 71.09375 
Q 15.4375 72.65625 20.34375 73.4375 
Q 25.25 74.21875 29.59375 74.21875 
Q 40.828125 74.21875 47.359375 69.109375 
Q 53.90625 64.015625 53.90625 55.328125 
Q 53.90625 49.265625 50.4375 45.09375 
Q 46.96875 40.921875 40.578125 39.3125 
z
" id="DejaVuSans-51"/>
       </defs>
       <use xlink:href="#DejaVuSans-51"/>
       <use x="63.623047" xlink:href="#DejaVuSans-48"/>
      </g>
     </g>
    </g>
    <g id="text_10">
     <!-- $y$ (m) -->
     <g style="fill:#262626;" transform="translate(33.0725 213.93)rotate(-90)scale(0.12 -0.12)">
      <defs>
       <path d="M 24.8125 -5.078125 
Q 18.5625 -15.578125 14.625 -18.1875 
Q 10.6875 -20.796875 4.59375 -20.796875 
L -2.484375 -20.796875 
L -0.984375 -13.28125 
L 4.203125 -13.28125 
Q 7.953125 -13.28125 10.59375 -11.234375 
Q 13.234375 -9.1875 16.5 -3.21875 
L 19.28125 2 
L 7.171875 54.6875 
L 16.703125 54.6875 
L 25.78125 12.796875 
L 50.875 54.6875 
L 60.296875 54.6875 
z
" id="DejaVuSans-Oblique-121"/>
      </defs>
      <use transform="translate(0 0.125)" xlink:href="#DejaVuSans-Oblique-121"/>
      <use transform="translate(59.179688 0.125)" xlink:href="#DejaVuSans-32"/>
      <use transform="translate(90.966797 0.125)" xlink:href="#DejaVuSans-40"/>
      <use transform="translate(129.980469 0.125)" xlink:href="#DejaVuSans-109"/>
      <use transform="translate(227.392578 0.125)" xlink:href="#DejaVuSans-41"/>
     </g>
    </g>
   </g>
   <g id="line2d_25">
    <path clip-path="url(#pd37d425285)" d="M 79.269545 198.330995 
L 81.158733 198.255356 
L 82.778037 197.900863 
L 84.667225 197.21105 
L 86.826297 196.165359 
L 90.334789 194.359196 
L 91.414325 194.13093 
L 92.763745 194.10558 
L 94.113165 194.309131 
L 95.732469 194.784946 
L 97.621657 195.577172 
L 100.050613 196.856707 
L 103.289221 198.850583 
L 104.638641 199.586791 
L 105.718177 199.923684 
L 106.797713 200.053057 
L 108.686901 199.9812 
L 116.783421 199.692723 
L 137.564488 199.035262 
L 139.72356 198.621644 
L 141.612748 198.045401 
L 143.501936 197.252914 
L 149.439384 194.256034 
L 151.598456 192.731907 
L 154.297296 190.545377 
L 158.345556 186.947803 
L 162.393816 183.378089 
L 164.01312 182.390251 
L 166.442076 181.015604 
L 169.680684 179.092163 
L 173.728943 177.255744 
L 175.618131 176.006763 
L 176.967551 175.140659 
L 178.047087 174.777891 
L 179.126623 174.66065 
L 180.476043 174.779501 
L 182.095347 175.199635 
L 185.333955 176.205222 
L 186.413491 176.239372 
L 187.493027 176.053457 
L 188.842447 175.576856 
L 190.461751 174.737637 
L 192.620823 173.34 
L 194.779895 171.935884 
L 196.399199 171.112504 
L 197.748619 170.692183 
L 199.637807 170.159939 
L 201.257111 169.486939 
L 203.416183 168.382646 
L 205.575255 166.891133 
L 208.274095 164.769982 
L 210.433167 162.813889 
L 213.132007 160.056058 
L 218.79957 154.067093 
L 219.879106 153.377804 
L 225.006902 150.659815 
L 227.975626 148.949698 
L 229.325046 148.456921 
L 233.373306 147.329337 
L 235.532378 146.951816 
L 237.421566 146.838395 
L 238.770986 146.99529 
L 240.39029 147.441598 
L 242.549362 148.108757 
L 243.628898 148.227196 
L 245.248202 148.057644 
L 246.597622 148.000765 
L 247.677158 148.176607 
L 249.83623 148.847398 
L 251.725418 149.324823 
L 253.344722 149.434762 
L 258.742402 149.733798 
L 260.361706 150.185573 
L 264.409966 151.733553 
L 266.299153 152.825975 
L 268.458225 154.129776 
L 273.046253 156.479192 
L 275.205325 158.037319 
L 279.253585 161.318969 
L 281.952425 163.450193 
L 283.571729 164.347264 
L 285.460917 165.105752 
L 287.080221 165.827731 
L 288.969409 166.957598 
L 291.128481 168.516512 
L 294.097205 170.962911 
L 298.145465 174.61976 
L 304.352797 180.569596 
L 314.06862 189.892372 
L 315.148156 190.580838 
L 316.497576 191.110037 
L 318.11688 191.737591 
L 319.736184 192.695136 
L 321.895256 194.003169 
L 323.51456 194.720204 
L 325.403748 195.325279 
L 327.832704 195.848237 
L 330.801428 196.239949 
L 337.278644 196.955038 
L 340.787136 197.605459 
L 343.485976 198.33122 
L 346.4547 199.361821 
L 349.15354 200.527898 
L 351.85238 201.94115 
L 354.281336 203.445731 
L 356.980176 205.39471 
L 359.948899 207.830849 
L 363.727275 211.241721 
L 370.204491 217.491679 
L 383.968575 231.116745 
L 392.334979 239.293852 
L 395.573587 242.042957 
L 399.621847 245.78241 
L 402.860455 248.985312 
L 402.860455 248.985312 
" style="fill:none;stroke:#000000;stroke-dasharray:5.55,2.4;stroke-dashoffset:0;stroke-opacity:0.5;stroke-width:1.5;"/>
   </g>
   <g id="line2d_26">
    <path clip-path="url(#pd37d425285)" d="M 80.353939 198.331037 
L 81.163591 198.461293 
L 82.243127 198.077675 
L 84.402199 197.400764 
L 86.291387 196.581125 
L 90.609531 194.548097 
L 91.419183 194.418359 
L 92.768603 194.432269 
L 94.387907 194.679027 
L 96.277095 195.329481 
L 98.975935 196.692814 
L 101.674775 198.270426 
L 104.643499 200.035908 
L 105.992919 200.359111 
L 108.421875 200.420808 
L 110.041179 200.386382 
L 115.438859 200.093073 
L 134.060854 199.223358 
L 135.410274 198.945875 
L 138.378998 198.283892 
L 142.157374 197.01317 
L 144.046562 196.079914 
L 146.205634 194.963097 
L 148.63459 193.789994 
L 151.063546 192.303285 
L 153.222618 190.710717 
L 157.540762 187.223468 
L 158.620298 186.378227 
L 161.319138 183.785769 
L 162.668558 182.781948 
L 163.47821 182.401984 
L 165.097514 181.444854 
L 167.796353 180.014201 
L 169.685541 178.895132 
L 170.765077 178.424012 
L 172.114497 177.757529 
L 173.733801 176.952472 
L 174.543453 176.482987 
L 177.242293 174.82304 
L 178.051945 174.547557 
L 179.941133 174.726787 
L 181.830321 175.166298 
L 183.179741 175.824706 
L 183.989393 176.409815 
L 184.799045 176.830415 
L 186.418349 177.197835 
L 186.958117 177.220595 
L 188.037653 176.912285 
L 188.847305 176.441971 
L 190.466609 175.434179 
L 192.085913 174.471169 
L 193.975101 173.374963 
L 196.943825 171.929808 
L 198.023361 171.605924 
L 198.563129 171.46333 
L 199.102897 171.363007 
L 200.722201 170.59071 
L 203.960809 168.690209 
L 209.898257 164.468346 
L 213.136865 161.598523 
L 217.994776 156.722104 
L 219.074312 156.073591 
L 224.471992 153.804632 
L 225.821412 152.79952 
L 227.170832 151.786399 
L 229.06002 150.751477 
L 229.869672 150.481652 
L 232.838396 149.591821 
L 233.648048 149.541184 
L 235.267352 148.977299 
L 236.616772 148.523759 
L 237.966192 148.360611 
L 239.585496 148.435339 
L 240.395148 148.600305 
L 240.934916 148.697374 
L 241.474684 149.009247 
L 243.633756 149.135413 
L 245.25306 148.838053 
L 246.872364 148.516795 
L 248.221784 148.690708 
L 250.65074 149.253068 
L 251.730276 149.365417 
L 253.619464 149.234935 
L 256.588188 149.058429 
L 258.74726 149.206726 
L 259.287028 149.16532 
L 260.366563 149.3102 
L 263.065403 150.143247 
L 265.494359 152.060654 
L 267.653431 153.614721 
L 269.272735 154.478733 
L 271.701691 155.60893 
L 275.749951 158.290836 
L 281.147631 162.880496 
L 282.766935 163.925824 
L 284.386239 164.668602 
L 288.704383 166.379313 
L 289.783919 167.020591 
L 294.641831 170.696586 
L 297.340671 173.047177 
L 304.627539 179.802709 
L 307.866146 182.957114 
L 311.104754 185.906607 
L 312.724058 187.383588 
L 313.263826 187.824663 
L 313.803594 188.154062 
L 314.613246 188.771161 
L 315.422898 189.073875 
L 319.741042 190.141541 
L 321.900114 191.823435 
L 322.97965 192.286163 
L 324.598954 192.6471 
L 325.408606 192.66115 
L 327.02791 192.466895 
L 327.567678 191.979839 
L 328.37733 193.796109 
L 329.186982 194.088979 
L 330.536402 194.130486 
L 331.346054 193.949366 
L 331.615938 193.856548 
L 333.235242 194.41117 
L 334.044894 194.771603 
L 335.12443 194.985569 
L 335.934082 195.099906 
L 337.013618 194.989211 
L 338.093154 194.717249 
L 339.17269 194.375273 
L 340.52211 194.786252 
L 341.87153 195.414657 
L 342.681182 195.707464 
L 343.490834 195.92713 
L 344.030602 196.022261 
L 345.110138 195.961896 
L 345.649906 195.626712 
L 345.91979 195.596514 
L 346.999326 195.910697 
L 347.808978 196.147793 
L 349.428282 197.344604 
L 350.507818 197.588654 
L 351.047586 197.435192 
L 351.31747 197.481159 
L 352.127122 198.051313 
L 353.206658 198.845686 
L 354.825961 199.778005 
L 355.905497 200.161322 
L 356.715149 200.499176 
L 358.334453 201.815377 
L 360.223641 203.054339 
L 361.303177 204.171231 
L 363.732133 205.95625 
L 366.700857 208.051373 
L 369.669581 210.835214 
L 371.828653 212.741124 
L 375.337145 216.399116 
L 378.845637 219.310379 
L 379.925173 220.583691 
L 388.021693 227.934186 
L 388.561461 228.315828 
L 391.260301 230.839698 
L 392.069953 231.602481 
L 394.498909 233.39045 
L 395.308561 233.637224 
L 399.356821 237.141956 
L 400.436357 238.465851 
L 401.785776 239.796657 
L 402.595428 240.615352 
L 402.595428 240.615352 
" style="fill:none;stroke:#4c72b0;stroke-linecap:round;stroke-opacity:0.75;stroke-width:1.5;"/>
   </g>
   <g id="patch_9">
    <path d="M 63.09 254.092843 
L 63.09 141.727157 
" style="fill:none;stroke:#ffffff;stroke-linecap:square;stroke-linejoin:miter;stroke-width:1.25;"/>
   </g>
   <g id="patch_10">
    <path d="M 419.04 254.092843 
L 419.04 141.727157 
" style="fill:none;stroke:#ffffff;stroke-linecap:square;stroke-linejoin:miter;stroke-width:1.25;"/>
   </g>
   <g id="patch_11">
    <path d="M 63.09 254.092843 
L 419.04 254.092843 
" style="fill:none;stroke:#ffffff;stroke-linecap:square;stroke-linejoin:miter;stroke-width:1.25;"/>
   </g>
   <g id="patch_12">
    <path d="M 63.09 141.727157 
L 419.04 141.727157 
" style="fill:none;stroke:#ffffff;stroke-linecap:square;stroke-linejoin:miter;stroke-width:1.25;"/>
   </g>
  </g>
  <g id="axes_3">
   <g id="patch_13">
    <path d="M 63.09 382.86 
L 419.04 382.86 
L 419.04 270.494314 
L 63.09 270.494314 
z
" style="fill:#eaeaf2;"/>
   </g>
   <g id="matplotlib.axis_5">
    <g id="xtick_13">
     <g id="line2d_27">
      <path clip-path="url(#p09551a439d)" d="M 108.133639 382.86 
L 108.133639 270.494314 
" style="fill:none;stroke:#ffffff;stroke-linecap:round;"/>
     </g>
     <g id="text_11">
      <!-- 20 -->
      <g style="fill:#262626;" transform="translate(101.134889 400.718281)scale(0.11 -0.11)">
       <use xlink:href="#DejaVuSans-50"/>
       <use x="63.623047" xlink:href="#DejaVuSans-48"/>
      </g>
     </g>
    </g>
    <g id="xtick_14">
     <g id="line2d_28">
      <path clip-path="url(#p09551a439d)" d="M 162.110437 382.86 
L 162.110437 270.494314 
" style="fill:none;stroke:#ffffff;stroke-linecap:round;"/>
     </g>
     <g id="text_12">
      <!-- 40 -->
      <g style="fill:#262626;" transform="translate(155.111687 400.718281)scale(0.11 -0.11)">
       <defs>
        <path d="M 37.796875 64.3125 
L 12.890625 25.390625 
L 37.796875 25.390625 
z
M 35.203125 72.90625 
L 47.609375 72.90625 
L 47.609375 25.390625 
L 58.015625 25.390625 
L 58.015625 17.1875 
L 47.609375 17.1875 
L 47.609375 0 
L 37.796875 0 
L 37.796875 17.1875 
L 4.890625 17.1875 
L 4.890625 26.703125 
z
" id="DejaVuSans-52"/>
       </defs>
       <use xlink:href="#DejaVuSans-52"/>
       <use x="63.623047" xlink:href="#DejaVuSans-48"/>
      </g>
     </g>
    </g>
    <g id="xtick_15">
     <g id="line2d_29">
      <path clip-path="url(#p09551a439d)" d="M 216.087236 382.86 
L 216.087236 270.494314 
" style="fill:none;stroke:#ffffff;stroke-linecap:round;"/>
     </g>
     <g id="text_13">
      <!-- 60 -->
      <g style="fill:#262626;" transform="translate(209.088486 400.718281)scale(0.11 -0.11)">
       <defs>
        <path d="M 33.015625 40.375 
Q 26.375 40.375 22.484375 35.828125 
Q 18.609375 31.296875 18.609375 23.390625 
Q 18.609375 15.53125 22.484375 10.953125 
Q 26.375 6.390625 33.015625 6.390625 
Q 39.65625 6.390625 43.53125 10.953125 
Q 47.40625 15.53125 47.40625 23.390625 
Q 47.40625 31.296875 43.53125 35.828125 
Q 39.65625 40.375 33.015625 40.375 
z
M 52.59375 71.296875 
L 52.59375 62.3125 
Q 48.875 64.0625 45.09375 64.984375 
Q 41.3125 65.921875 37.59375 65.921875 
Q 27.828125 65.921875 22.671875 59.328125 
Q 17.53125 52.734375 16.796875 39.40625 
Q 19.671875 43.65625 24.015625 45.921875 
Q 28.375 48.1875 33.59375 48.1875 
Q 44.578125 48.1875 50.953125 41.515625 
Q 57.328125 34.859375 57.328125 23.390625 
Q 57.328125 12.15625 50.6875 5.359375 
Q 44.046875 -1.421875 33.015625 -1.421875 
Q 20.359375 -1.421875 13.671875 8.265625 
Q 6.984375 17.96875 6.984375 36.375 
Q 6.984375 53.65625 15.1875 63.9375 
Q 23.390625 74.21875 37.203125 74.21875 
Q 40.921875 74.21875 44.703125 73.484375 
Q 48.484375 72.75 52.59375 71.296875 
z
" id="DejaVuSans-54"/>
       </defs>
       <use xlink:href="#DejaVuSans-54"/>
       <use x="63.623047" xlink:href="#DejaVuSans-48"/>
      </g>
     </g>
    </g>
    <g id="xtick_16">
     <g id="line2d_30">
      <path clip-path="url(#p09551a439d)" d="M 270.064035 382.86 
L 270.064035 270.494314 
" style="fill:none;stroke:#ffffff;stroke-linecap:round;"/>
     </g>
     <g id="text_14">
      <!-- 80 -->
      <g style="fill:#262626;" transform="translate(263.065285 400.718281)scale(0.11 -0.11)">
       <defs>
        <path d="M 31.78125 34.625 
Q 24.75 34.625 20.71875 30.859375 
Q 16.703125 27.09375 16.703125 20.515625 
Q 16.703125 13.921875 20.71875 10.15625 
Q 24.75 6.390625 31.78125 6.390625 
Q 38.8125 6.390625 42.859375 10.171875 
Q 46.921875 13.96875 46.921875 20.515625 
Q 46.921875 27.09375 42.890625 30.859375 
Q 38.875 34.625 31.78125 34.625 
z
M 21.921875 38.8125 
Q 15.578125 40.375 12.03125 44.71875 
Q 8.5 49.078125 8.5 55.328125 
Q 8.5 64.0625 14.71875 69.140625 
Q 20.953125 74.21875 31.78125 74.21875 
Q 42.671875 74.21875 48.875 69.140625 
Q 55.078125 64.0625 55.078125 55.328125 
Q 55.078125 49.078125 51.53125 44.71875 
Q 48 40.375 41.703125 38.8125 
Q 48.828125 37.15625 52.796875 32.3125 
Q 56.78125 27.484375 56.78125 20.515625 
Q 56.78125 9.90625 50.3125 4.234375 
Q 43.84375 -1.421875 31.78125 -1.421875 
Q 19.734375 -1.421875 13.25 4.234375 
Q 6.78125 9.90625 6.78125 20.515625 
Q 6.78125 27.484375 10.78125 32.3125 
Q 14.796875 37.15625 21.921875 38.8125 
z
M 18.3125 54.390625 
Q 18.3125 48.734375 21.84375 45.5625 
Q 25.390625 42.390625 31.78125 42.390625 
Q 38.140625 42.390625 41.71875 45.5625 
Q 45.3125 48.734375 45.3125 54.390625 
Q 45.3125 60.0625 41.71875 63.234375 
Q 38.140625 66.40625 31.78125 66.40625 
Q 25.390625 66.40625 21.84375 63.234375 
Q 18.3125 60.0625 18.3125 54.390625 
z
" id="DejaVuSans-56"/>
       </defs>
       <use xlink:href="#DejaVuSans-56"/>
       <use x="63.623047" xlink:href="#DejaVuSans-48"/>
      </g>
     </g>
    </g>
    <g id="xtick_17">
     <g id="line2d_31">
      <path clip-path="url(#p09551a439d)" d="M 324.040834 382.86 
L 324.040834 270.494314 
" style="fill:none;stroke:#ffffff;stroke-linecap:round;"/>
     </g>
     <g id="text_15">
      <!-- 100 -->
      <g style="fill:#262626;" transform="translate(313.542709 400.718281)scale(0.11 -0.11)">
       <use xlink:href="#DejaVuSans-49"/>
       <use x="63.623047" xlink:href="#DejaVuSans-48"/>
       <use x="127.246094" xlink:href="#DejaVuSans-48"/>
      </g>
     </g>
    </g>
    <g id="xtick_18">
     <g id="line2d_32">
      <path clip-path="url(#p09551a439d)" d="M 378.017633 382.86 
L 378.017633 270.494314 
" style="fill:none;stroke:#ffffff;stroke-linecap:round;"/>
     </g>
     <g id="text_16">
      <!-- 120 -->
      <g style="fill:#262626;" transform="translate(367.519508 400.718281)scale(0.11 -0.11)">
       <use xlink:href="#DejaVuSans-49"/>
       <use x="63.623047" xlink:href="#DejaVuSans-50"/>
       <use x="127.246094" xlink:href="#DejaVuSans-48"/>
      </g>
     </g>
    </g>
    <g id="text_17">
     <!-- $t$ (s) -->
     <g style="fill:#262626;" transform="translate(228.945 416.124062)scale(0.12 -0.12)">
      <defs>
       <path d="M 42.28125 54.6875 
L 40.921875 47.703125 
L 23 47.703125 
L 17.1875 18.015625 
Q 16.890625 16.359375 16.75 15.234375 
Q 16.609375 14.109375 16.609375 13.484375 
Q 16.609375 10.359375 18.484375 8.9375 
Q 20.359375 7.515625 24.515625 7.515625 
L 33.59375 7.515625 
L 32.078125 0 
L 23.484375 0 
Q 15.484375 0 11.546875 3.125 
Q 7.625 6.25 7.625 12.59375 
Q 7.625 13.71875 7.765625 15.0625 
Q 7.90625 16.40625 8.203125 18.015625 
L 14.015625 47.703125 
L 6.390625 47.703125 
L 7.8125 54.6875 
L 15.28125 54.6875 
L 18.3125 70.21875 
L 27.296875 70.21875 
L 24.3125 54.6875 
z
" id="DejaVuSans-Oblique-116"/>
      </defs>
      <use transform="translate(0 0.125)" xlink:href="#DejaVuSans-Oblique-116"/>
      <use transform="translate(39.208984 0.125)" xlink:href="#DejaVuSans-32"/>
      <use transform="translate(70.996094 0.125)" xlink:href="#DejaVuSans-40"/>
      <use transform="translate(110.009766 0.125)" xlink:href="#DejaVuSans-115"/>
      <use transform="translate(162.109375 0.125)" xlink:href="#DejaVuSans-41"/>
     </g>
    </g>
   </g>
   <g id="matplotlib.axis_6">
    <g id="ytick_7">
     <g id="line2d_33">
      <path clip-path="url(#p09551a439d)" d="M 63.09 372.689156 
L 419.04 372.689156 
" style="fill:none;stroke:#ffffff;stroke-linecap:round;"/>
     </g>
     <g id="text_18">
      <!-- 2.40 -->
      <g style="fill:#262626;" transform="translate(29.097812 376.868296)scale(0.11 -0.11)">
       <use xlink:href="#DejaVuSans-50"/>
       <use x="63.623047" xlink:href="#DejaVuSans-46"/>
       <use x="95.410156" xlink:href="#DejaVuSans-52"/>
       <use x="159.033203" xlink:href="#DejaVuSans-48"/>
      </g>
     </g>
    </g>
    <g id="ytick_8">
     <g id="line2d_34">
      <path clip-path="url(#p09551a439d)" d="M 63.09 332.872148 
L 419.04 332.872148 
" style="fill:none;stroke:#ffffff;stroke-linecap:round;"/>
     </g>
     <g id="text_19">
      <!-- 2.45 -->
      <g style="fill:#262626;" transform="translate(29.097812 337.051289)scale(0.11 -0.11)">
       <defs>
        <path d="M 10.796875 72.90625 
L 49.515625 72.90625 
L 49.515625 64.59375 
L 19.828125 64.59375 
L 19.828125 46.734375 
Q 21.96875 47.46875 24.109375 47.828125 
Q 26.265625 48.1875 28.421875 48.1875 
Q 40.625 48.1875 47.75 41.5 
Q 54.890625 34.8125 54.890625 23.390625 
Q 54.890625 11.625 47.5625 5.09375 
Q 40.234375 -1.421875 26.90625 -1.421875 
Q 22.3125 -1.421875 17.546875 -0.640625 
Q 12.796875 0.140625 7.71875 1.703125 
L 7.71875 11.625 
Q 12.109375 9.234375 16.796875 8.0625 
Q 21.484375 6.890625 26.703125 6.890625 
Q 35.15625 6.890625 40.078125 11.328125 
Q 45.015625 15.765625 45.015625 23.390625 
Q 45.015625 31 40.078125 35.4375 
Q 35.15625 39.890625 26.703125 39.890625 
Q 22.75 39.890625 18.8125 39.015625 
Q 14.890625 38.140625 10.796875 36.28125 
z
" id="DejaVuSans-53"/>
       </defs>
       <use xlink:href="#DejaVuSans-50"/>
       <use x="63.623047" xlink:href="#DejaVuSans-46"/>
       <use x="95.410156" xlink:href="#DejaVuSans-52"/>
       <use x="159.033203" xlink:href="#DejaVuSans-53"/>
      </g>
     </g>
    </g>
    <g id="ytick_9">
     <g id="line2d_35">
      <path clip-path="url(#p09551a439d)" d="M 63.09 293.055141 
L 419.04 293.055141 
" style="fill:none;stroke:#ffffff;stroke-linecap:round;"/>
     </g>
     <g id="text_20">
      <!-- 2.50 -->
      <g style="fill:#262626;" transform="translate(29.097812 297.234281)scale(0.11 -0.11)">
       <use xlink:href="#DejaVuSans-50"/>
       <use x="63.623047" xlink:href="#DejaVuSans-46"/>
       <use x="95.410156" xlink:href="#DejaVuSans-53"/>
       <use x="159.033203" xlink:href="#DejaVuSans-48"/>
      </g>
     </g>
    </g>
    <g id="text_21">
     <!-- $z$ (m) -->
     <g style="fill:#262626;" transform="translate(22.602187 342.277157)rotate(-90)scale(0.12 -0.12)">
      <defs>
       <path d="M 11.625 54.6875 
L 54.296875 54.6875 
L 52.6875 46.484375 
L 11.53125 7.171875 
L 45.515625 7.171875 
L 44.09375 0 
L -0.296875 0 
L 1.3125 8.203125 
L 42.484375 47.515625 
L 10.203125 47.515625 
z
" id="DejaVuSans-Oblique-122"/>
      </defs>
      <use transform="translate(0 0.125)" xlink:href="#DejaVuSans-Oblique-122"/>
      <use transform="translate(52.490234 0.125)" xlink:href="#DejaVuSans-32"/>
      <use transform="translate(84.277344 0.125)" xlink:href="#DejaVuSans-40"/>
      <use transform="translate(123.291016 0.125)" xlink:href="#DejaVuSans-109"/>
      <use transform="translate(220.703125 0.125)" xlink:href="#DejaVuSans-41"/>
     </g>
    </g>
   </g>
   <g id="line2d_36">
    <path clip-path="url(#p09551a439d)" d="M 79.269545 299.257031 
L 79.809313 298.574574 
L 80.618965 296.891093 
L 82.238269 292.557428 
L 83.857573 288.481759 
L 84.937109 286.330845 
L 86.016645 284.697551 
L 87.096181 283.542858 
L 88.175717 282.786335 
L 89.255253 282.342773 
L 90.334789 282.134132 
L 91.954093 282.102278 
L 94.922817 282.360293 
L 98.701193 282.631845 
L 103.289221 282.714664 
L 107.877249 282.723424 
L 108.686901 283.186894 
L 109.766437 284.137724 
L 112.465277 286.648584 
L 113.814697 287.561986 
L 115.164117 288.190299 
L 116.513537 288.575727 
L 118.132841 288.806666 
L 120.291913 288.879133 
L 125.959476 288.751719 
L 134.865648 288.703142 
L 138.37414 288.589265 
L 140.803096 288.299397 
L 142.962168 287.835927 
L 144.851356 287.247432 
L 145.930892 286.590451 
L 147.550196 285.492298 
L 149.1695 284.716663 
L 151.058688 283.994383 
L 151.598456 284.060479 
L 152.138224 284.440333 
L 152.947876 285.387978 
L 156.456368 290.123813 
L 157.535904 290.985453 
L 158.61544 291.523779 
L 159.96486 291.886113 
L 165.092656 292.622728 
L 166.172192 292.323304 
L 168.601148 291.418662 
L 170.490336 291.214002 
L 171.299987 290.881132 
L 174.808479 289.142722 
L 175.888015 288.955582 
L 176.967551 288.941248 
L 178.047087 289.208022 
L 180.476043 289.904819 
L 181.825463 290.039401 
L 183.174883 289.947025 
L 183.984535 289.659546 
L 185.064071 289.210411 
L 185.603839 289.151481 
L 186.143607 289.31712 
L 186.953259 289.954192 
L 188.032795 291.215595 
L 191.001519 294.916984 
L 192.620823 296.499312 
L 193.970243 297.503497 
L 195.319663 298.245686 
L 195.859431 298.283114 
L 196.399199 298.080047 
L 196.938967 297.581538 
L 198.558271 295.636079 
L 199.098039 295.35736 
L 199.907691 295.236316 
L 200.987227 295.218001 
L 201.796879 294.873185 
L 203.955951 293.528167 
L 204.765603 293.325896 
L 205.845139 293.398363 
L 208.813863 293.888909 
L 209.893399 293.569577 
L 212.052471 292.864019 
L 213.132007 292.72466 
L 214.211543 292.783589 
L 215.560963 293.121237 
L 216.910383 293.708936 
L 217.720034 294.283097 
L 218.79957 295.387621 
L 220.958642 297.700193 
L 222.038178 298.459901 
L 223.117714 298.957614 
L 224.467134 299.338265 
L 226.89609 299.735638 
L 228.24551 299.822439 
L 231.214234 299.887739 
L 237.421566 300.735045 
L 238.231218 300.496939 
L 239.580638 299.808105 
L 241.469826 298.816662 
L 245.518086 297.403158 
L 246.327738 297.212036 
L 247.407274 296.680081 
L 249.566346 295.380454 
L 250.375998 295.311172 
L 251.18565 295.458495 
L 251.995302 295.856665 
L 253.074838 296.503294 
L 253.614606 296.604429 
L 254.154374 296.527184 
L 254.694142 296.220593 
L 255.23391 295.650413 
L 256.043562 294.459885 
L 258.472518 290.624711 
L 259.28217 289.808462 
L 260.091822 289.241468 
L 260.901474 288.895856 
L 261.441242 288.836131 
L 262.250894 289.051142 
L 270.887181 292.600431 
L 273.586021 293.278912 
L 275.205325 293.510647 
L 277.094513 293.538519 
L 285.730801 293.262189 
L 290.048945 293.355361 
L 298.415349 293.701769 
L 302.733493 293.41429 
L 307.321521 293.564798 
L 308.670941 293.407123 
L 309.480593 293.022491 
L 311.639664 291.703752 
L 312.179432 291.616154 
L 312.989084 291.753125 
L 314.878272 292.254819 
L 317.846996 292.368714 
L 318.926532 292.770847 
L 320.006068 293.358546 
L 320.81572 293.941467 
L 321.355488 293.95182 
L 321.895256 293.567907 
L 322.704908 292.500888 
L 324.054328 290.111071 
L 325.943516 286.82139 
L 327.023052 285.330641 
L 328.102588 284.190282 
L 328.642356 283.855819 
L 329.182124 283.776185 
L 329.721892 283.886877 
L 330.531544 284.296992 
L 331.880964 285.302769 
L 334.040036 286.924118 
L 335.389456 287.671085 
L 336.738876 288.175965 
L 338.35818 288.516002 
L 340.247368 288.656954 
L 342.40644 288.574135 
L 348.343888 287.963342 
L 349.693308 287.808852 
L 350.233076 288.070848 
L 350.772844 288.597229 
L 351.85238 290.088774 
L 354.011452 293.239095 
L 355.090988 294.411308 
L 356.170524 295.202074 
L 356.980176 295.552463 
L 358.059712 295.749159 
L 358.599479 295.600244 
L 359.139247 295.077048 
L 359.948899 293.816442 
L 361.298319 291.099329 
L 362.377855 289.100516 
L 363.187507 288.031031 
L 363.997159 287.267341 
L 366.426115 285.372847 
L 368.585187 283.682217 
L 369.934607 282.917731 
L 371.284027 282.451872 
L 372.633447 282.235267 
L 374.522635 282.190672 
L 379.380547 282.442316 
L 384.778227 282.564952 
L 389.366255 282.603973 
L 389.906023 282.947195 
L 390.715675 283.934657 
L 392.065095 286.176355 
L 393.414515 288.428404 
L 393.954283 288.912579 
L 394.494051 289.052735 
L 395.033819 288.931691 
L 395.843471 288.416459 
L 396.923007 287.389977 
L 398.542311 285.821983 
L 399.351963 285.428591 
L 400.431499 285.211987 
L 401.780919 285.027236 
L 402.590571 284.617121 
L 402.860455 284.437944 
L 402.860455 284.437944 
" style="fill:none;stroke:#000000;stroke-dasharray:5.55,2.4;stroke-dashoffset:0;stroke-opacity:0.5;stroke-width:1.5;"/>
   </g>
   <g id="line2d_37">
    <path clip-path="url(#p09551a439d)" d="M 80.353939 299.344582 
L 80.893707 301.998838 
L 81.163591 302.200821 
L 81.703359 300.357364 
L 82.243127 291.289563 
L 82.782895 295.739268 
L 83.322663 295.324477 
L 83.862431 294.424285 
L 84.132315 293.893579 
L 85.751619 292.450967 
L 88.180575 292.17262 
L 88.990227 290.497402 
L 89.529995 290.174973 
L 90.339647 288.811528 
L 92.228835 286.662153 
L 93.038487 287.229702 
L 94.657791 287.507402 
L 94.927675 287.61808 
L 96.007211 287.373959 
L 96.277095 287.281623 
L 97.086747 287.621361 
L 97.356631 287.654777 
L 97.626515 287.497871 
L 98.166283 286.904762 
L 99.245819 286.397935 
L 100.595239 286.711136 
L 101.404891 286.525474 
L 102.484427 286.885196 
L 103.563963 287.322294 
L 104.103731 287.651178 
L 104.643499 287.807733 
L 105.992919 287.432267 
L 106.802571 287.549028 
L 107.342339 287.935176 
L 107.882107 287.940183 
L 108.151991 288.067435 
L 108.691759 288.570732 
L 109.501411 287.985673 
L 110.041179 287.224142 
L 110.850831 286.806696 
L 111.390599 286.831221 
L 112.200251 288.211793 
L 113.279787 290.368538 
L 114.359323 292.572556 
L 115.168975 294.657641 
L 116.248511 297.831169 
L 118.677467 308.055694 
L 119.217235 309.761925 
L 123.535378 321.60631 
L 124.884798 326.475653 
L 125.69445 328.356295 
L 126.234218 329.220633 
L 127.04387 331.628498 
L 127.853522 334.3936 
L 128.39329 335.906105 
L 129.202942 338.955033 
L 130.282478 343.586022 
L 131.09213 345.789278 
L 131.901782 348.74173 
L 132.44155 350.08561 
L 132.981318 350.653675 
L 133.521086 344.401772 
L 133.79097 336.698714 
L 134.330738 312.162845 
L 134.870506 312.299453 
L 135.14039 305.929318 
L 135.680158 280.345736 
L 136.48981 288.098843 
L 137.029578 290.306833 
L 137.569346 306.569119 
L 137.83923 309.084888 
L 138.378998 302.913137 
L 139.18865 321.916999 
L 139.728418 328.436633 
L 140.268186 338.97494 
L 140.53807 336.714415 
L 141.077838 319.980496 
L 141.617606 311.685809 
L 142.427258 306.544778 
L 142.967026 301.74028 
L 143.506794 304.153195 
L 143.776678 306.363944 
L 144.316446 312.789073 
L 145.126098 316.382446 
L 145.665866 317.436364 
L 146.205634 320.955309 
L 146.475518 321.428428 
L 147.015286 319.80667 
L 147.824938 315.307836 
L 148.364706 313.990632 
L 148.904474 312.039019 
L 149.174358 311.847387 
L 149.714126 313.029064 
L 150.253894 313.115559 
L 150.523778 313.013001 
L 151.063546 312.516555 
L 152.412966 308.11647 
L 152.952734 308.619264 
L 153.222618 308.56265 
L 153.762386 307.835161 
L 154.572038 310.204494 
L 155.111806 312.736406 
L 156.461226 303.493424 
L 157.000994 299.560213 
L 157.270878 298.524935 
L 157.810646 298.317032 
L 159.160066 307.575072 
L 159.699834 309.205321 
L 159.969718 308.890738 
L 160.509486 306.007248 
L 161.049254 305.4147 
L 161.319138 305.380728 
L 161.858906 305.836206 
L 162.668558 305.677023 
L 163.208326 305.398142 
L 163.748094 303.008352 
L 164.017978 302.599681 
L 164.557746 303.351015 
L 165.367398 300.940936 
L 165.907166 300.196691 
L 166.446934 300.6645 
L 166.716817 299.747217 
L 167.256585 295.613946 
L 168.066237 284.604009 
L 168.606005 279.865062 
L 169.145773 280.500045 
L 169.685541 281.783197 
L 169.955425 282.531934 
L 170.495193 281.139923 
L 170.765077 283.003884 
L 171.304845 291.840124 
L 172.654265 299.580445 
L 173.194033 301.397619 
L 173.733801 304.934489 
L 174.003685 306.988525 
L 174.543453 308.562044 
L 175.083221 311.553568 
L 175.622989 314.58979 
L 176.162757 316.854289 
L 177.242293 319.250454 
L 177.512177 320.311474 
L 178.051945 323.388507 
L 178.861597 325.77254 
L 179.671249 329.356555 
L 180.211017 331.899067 
L 180.750785 333.631772 
L 181.290553 334.222181 
L 181.830321 335.488086 
L 182.370089 336.683876 
L 182.639973 337.134428 
L 182.909857 336.376804 
L 183.449625 332.451217 
L 183.989393 333.271339 
L 184.259277 334.659958 
L 184.799045 339.388821 
L 185.338813 337.792958 
L 185.608697 336.244675 
L 187.228001 322.055835 
L 187.767769 316.67347 
L 188.037653 314.383597 
L 188.307537 313.895114 
L 188.847305 316.514412 
L 189.387073 321.859181 
L 189.656957 323.369473 
L 190.196725 324.07018 
L 191.546145 322.348278 
L 192.355797 318.768419 
L 192.895565 315.226585 
L 193.705217 317.434943 
L 194.244985 318.270519 
L 195.324521 313.473909 
L 195.864289 311.167175 
L 196.134173 309.881826 
L 196.673941 305.576473 
L 196.943825 303.13577 
L 197.753477 300.162801 
L 198.293245 298.706539 
L 199.642665 293.376078 
L 202.341505 284.966268 
L 203.151157 286.518396 
L 203.690925 286.714924 
L 204.230693 285.531021 
L 204.500577 285.44043 
L 205.040345 286.259484 
L 205.849997 284.456278 
L 206.389765 282.787449 
L 207.199417 278.28163 
L 208.278953 275.713017 
L 208.548837 275.601845 
L 209.088605 276.362539 
L 209.628373 275.840569 
L 209.898257 275.952703 
L 210.707909 277.226798 
L 211.247677 277.949386 
L 212.057329 279.390529 
L 214.2164 282.570125 
L 214.486284 283.044893 
L 215.295936 287.983792 
L 215.835704 289.310064 
L 217.185124 296.92301 
L 217.994776 301.162156 
L 219.344196 310.742034 
L 219.883964 313.318668 
L 221.233384 322.326542 
L 221.773152 324.146542 
L 222.043036 324.536307 
L 222.582804 324.276721 
L 223.122572 321.127642 
L 223.392456 320.297598 
L 223.932224 320.123803 
L 225.281644 322.410314 
L 225.821412 326.953281 
L 226.091296 327.667299 
L 226.631064 325.989232 
L 227.440716 337.480879 
L 228.250368 341.455559 
L 228.520252 343.098441 
L 228.790136 343.794444 
L 229.329904 343.296839 
L 229.869672 344.258834 
L 230.139556 345.335204 
L 230.679324 348.675726 
L 231.219092 349.682833 
L 231.488976 348.972109 
L 232.028744 345.127379 
L 233.378164 339.558468 
L 234.4577 346.719919 
L 234.727584 348.30076 
L 235.267352 349.221986 
L 235.537236 350.398881 
L 236.346888 355.308398 
L 236.616772 356.434806 
L 236.886656 356.959303 
L 237.426424 356.806642 
L 237.966192 355.702828 
L 238.236076 355.500842 
L 238.775844 355.795611 
L 239.585496 357.852067 
L 240.125264 358.66131 
L 240.934916 364.031247 
L 241.474684 366.573278 
L 242.014452 366.979631 
L 242.55422 367.9537 
L 242.824104 368.534912 
L 243.363872 368.434774 
L 243.633756 368.651995 
L 244.173524 369.619765 
L 245.25306 370.168249 
L 245.522944 370.342563 
L 246.062712 369.091108 
L 246.332596 369.047145 
L 246.872364 370.119701 
L 247.412132 368.318702 
L 247.682016 367.840382 
L 248.221784 367.726218 
L 248.761552 366.817308 
L 249.031436 366.609541 
L 249.571204 366.685811 
L 250.380856 363.710009 
L 250.920624 363.10593 
L 252.00016 360.977541 
L 252.539928 360.219041 
L 253.34958 359.224833 
L 253.619464 358.860029 
L 254.159232 359.78352 
L 254.429116 359.695652 
L 255.508652 357.209062 
L 255.778536 356.835922 
L 256.318304 356.555674 
L 257.127956 352.782124 
L 257.667724 351.002412 
L 258.207492 346.51313 
L 258.477376 342.127847 
L 259.017144 329.086691 
L 260.366563 318.108 
L 261.176215 315.310118 
L 261.715983 312.882777 
L 262.525635 300.44971 
L 263.065403 288.29769 
L 263.605171 292.595096 
L 264.144939 300.734573 
L 264.954591 314.045305 
L 265.224475 316.15837 
L 265.764243 316.018226 
L 266.573895 318.761654 
L 267.113663 319.254573 
L 267.653431 318.931647 
L 267.923315 319.467484 
L 268.463083 321.930024 
L 269.002851 320.60675 
L 269.272735 321.118159 
L 269.812503 324.48176 
L 270.352271 325.34581 
L 270.622155 326.782555 
L 271.161923 331.660525 
L 271.701691 332.753272 
L 271.971575 334.036724 
L 272.511343 338.071613 
L 273.320995 326.449769 
L 274.130647 323.590693 
L 274.400531 322.864337 
L 274.670415 322.674878 
L 275.210183 323.367261 
L 275.749951 322.694767 
L 276.019835 321.855109 
L 276.559603 319.171836 
L 277.909023 321.099072 
L 278.448791 321.061739 
L 278.718675 320.770422 
L 279.258443 319.643743 
L 280.337979 318.595036 
L 280.607863 318.285688 
L 281.957283 317.936389 
L 282.766935 318.979467 
L 284.116355 321.361516 
L 285.195891 325.105148 
L 285.465775 325.565394 
L 286.005543 325.745962 
L 286.545311 324.601439 
L 286.815195 324.49866 
L 287.354963 325.230507 
L 287.894731 327.22846 
L 288.164615 327.685469 
L 288.704383 327.51749 
L 289.244151 326.451465 
L 289.514035 325.36146 
L 290.053803 322.070493 
L 290.863455 322.027723 
L 291.403223 322.270936 
L 292.212875 324.330671 
L 292.752643 325.266134 
L 293.562295 325.170164 
L 294.102063 324.298276 
L 294.641831 324.178183 
L 294.911715 324.501738 
L 295.451483 325.914156 
L 296.800903 325.78193 
L 297.340671 326.461334 
L 297.610555 326.606677 
L 298.150323 326.509566 
L 298.690091 326.988328 
L 298.959975 327.597268 
L 301.119047 335.088364 
L 301.658815 335.897573 
L 302.198583 335.977895 
L 302.738351 335.425935 
L 303.008235 335.501482 
L 303.548003 336.354049 
L 304.087771 336.49996 
L 304.357655 336.419272 
L 304.897423 335.950908 
L 305.437191 334.21981 
L 305.707075 334.068107 
L 306.246843 335.189079 
L 306.786611 334.466796 
L 307.056495 334.807674 
L 307.596262 336.890956 
L 308.405914 341.428187 
L 309.755334 346.533592 
L 310.564986 351.094083 
L 310.83487 352.366022 
L 311.104754 353.100857 
L 311.644522 353.499269 
L 312.454174 358.907229 
L 312.993942 349.612681 
L 313.53371 355.72246 
L 313.803594 356.602827 
L 314.343362 354.023946 
L 316.23255 355.317206 
L 316.502434 355.178327 
L 317.042202 354.370518 
L 317.58197 354.56604 
L 317.851854 354.905948 
L 318.391622 356.069525 
L 319.201274 360.168956 
L 319.741042 362.044963 
L 321.090462 354.932074 
L 321.63023 356.555158 
L 321.900114 356.611827 
L 322.439882 355.219515 
L 322.97965 358.151484 
L 323.249534 358.597166 
L 323.789302 357.452339 
L 324.32907 357.661753 
L 324.598954 356.757318 
L 325.138722 352.412645 
L 325.408606 349.454046 
L 325.67849 348.173506 
L 326.218258 348.954359 
L 326.758026 348.163799 
L 327.02791 346.711768 
L 327.567678 341.707785 
L 328.107446 346.980656 
L 328.37733 347.909872 
L 328.917098 346.368395 
L 329.456866 346.623578 
L 329.72675 346.922962 
L 330.266518 347.863416 
L 330.806286 347.750807 
L 331.07617 347.854486 
L 331.615938 348.379199 
L 332.155706 346.230413 
L 332.695474 342.186773 
L 332.965358 339.851828 
L 333.505126 338.865174 
L 333.77501 339.181413 
L 334.314778 341.425491 
L 334.854546 341.528368 
L 335.12443 341.759936 
L 335.664198 342.581892 
L 335.934082 343.821591 
L 336.47385 347.165543 
L 337.013618 348.156065 
L 337.553386 347.333173 
L 337.82327 347.385316 
L 338.363038 348.412034 
L 338.902806 347.351313 
L 339.17269 347.649509 
L 339.982342 351.314318 
L 340.252226 352.731946 
L 340.52211 349.949395 
L 341.061878 336.023992 
L 341.601646 335.129438 
L 341.87153 335.377801 
L 342.411298 337.261194 
L 343.22095 342.499691 
L 343.760718 344.654032 
L 344.840254 357.594793 
L 345.110138 360.358988 
L 345.649906 362.808423 
L 345.91979 366.291873 
L 346.459558 377.752469 
L 346.999326 377.740096 
L 347.539094 377.359773 
L 347.808978 377.107425 
L 348.61863 373.720118 
L 349.158398 372.928497 
L 349.96805 363.599191 
L 350.507818 361.684544 
L 351.047586 350.949324 
L 351.31747 348.74877 
L 351.857238 350.656026 
L 352.397006 351.640867 
L 352.66689 350.939728 
L 353.206658 347.159858 
L 353.476542 348.689271 
L 354.016309 357.048393 
L 354.825961 362.023022 
L 355.095845 362.380672 
L 355.365729 361.43591 
L 355.905497 356.95607 
L 356.715149 361.950389 
L 357.254917 363.280707 
L 358.064569 372.376916 
L 358.604337 375.107235 
L 359.144105 376.225089 
L 359.413989 374.253025 
L 359.953757 365.270857 
L 360.763409 363.139942 
L 361.573061 361.577212 
L 362.382713 359.63533 
L 362.652597 359.054391 
L 363.192365 353.916147 
L 363.462249 354.565529 
L 364.002017 362.273174 
L 364.541785 365.122565 
L 364.811669 365.158515 
L 365.351437 362.464792 
L 366.161089 360.760883 
L 367.240625 349.892242 
L 367.510509 351.297642 
L 368.050277 361.734338 
L 368.859929 365.20414 
L 369.399697 368.501253 
L 370.209349 365.457232 
L 371.019001 361.064657 
L 371.288885 359.326299 
L 371.558769 359.212991 
L 372.638305 364.606242 
L 372.908189 364.164397 
L 373.987725 356.29376 
L 374.257609 356.40949 
L 374.797377 360.590034 
L 375.337145 368.465449 
L 375.607029 368.938854 
L 376.146797 361.764569 
L 376.686565 361.164599 
L 376.956449 358.569139 
L 377.496217 348.809875 
L 378.035985 347.605097 
L 378.305869 348.314843 
L 378.845637 352.344619 
L 379.385405 349.363924 
L 379.655289 346.088664 
L 380.195057 335.98616 
L 381.274593 329.757898 
L 382.084245 325.216802 
L 382.893897 320.714359 
L 383.973433 331.195602 
L 384.243317 334.073138 
L 385.052969 337.445408 
L 385.592737 345.54871 
L 386.132505 342.941251 
L 386.402389 343.748376 
L 386.942157 349.553989 
L 388.291577 299.03906 
L 388.831345 312.455774 
L 389.101229 315.540309 
L 389.640997 314.490947 
L 390.180765 313.994763 
L 390.450649 313.189469 
L 390.990417 310.472632 
L 391.800069 316.646937 
L 392.339837 317.887386 
L 392.609721 317.92589 
L 392.879605 317.384995 
L 393.419373 315.335567 
L 393.959141 312.964454 
L 394.229025 312.929547 
L 394.498909 314.040697 
L 394.768793 316.881195 
L 395.038677 321.444138 
L 395.308561 321.830994 
L 395.848329 314.289056 
L 396.388097 313.098892 
L 397.197749 316.090459 
L 397.737517 319.0255 
L 398.547169 326.521499 
L 399.086937 326.964683 
L 399.356821 325.180144 
L 399.626705 321.397482 
L 399.896589 319.237137 
L 400.706241 317.811987 
L 400.976124 317.475639 
L 401.515892 316.116212 
L 401.785776 315.323562 
L 402.595428 316.582339 
L 402.595428 316.582339 
" style="fill:none;stroke:#4c72b0;stroke-linecap:round;stroke-opacity:0.75;stroke-width:1.5;"/>
   </g>
   <g id="patch_14">
    <path d="M 63.09 382.86 
L 63.09 270.494314 
" style="fill:none;stroke:#ffffff;stroke-linecap:square;stroke-linejoin:miter;stroke-width:1.25;"/>
   </g>
   <g id="patch_15">
    <path d="M 419.04 382.86 
L 419.04 270.494314 
" style="fill:none;stroke:#ffffff;stroke-linecap:square;stroke-linejoin:miter;stroke-width:1.25;"/>
   </g>
   <g id="patch_16">
    <path d="M 63.09 382.86 
L 419.04 382.86 
" style="fill:none;stroke:#ffffff;stroke-linecap:square;stroke-linejoin:miter;stroke-width:1.25;"/>
   </g>
   <g id="patch_17">
    <path d="M 63.09 270.494314 
L 419.04 270.494314 
" style="fill:none;stroke:#ffffff;stroke-linecap:square;stroke-linejoin:miter;stroke-width:1.25;"/>
   </g>
  </g>
 </g>
 <defs>
  <clipPath id="p1e4a006142">
   <rect height="112.365686" width="355.95" x="63.09" y="12.96"/>
  </clipPath>
  <clipPath id="pd37d425285">
   <rect height="112.365686" width="355.95" x="63.09" y="141.727157"/>
  </clipPath>
  <clipPath id="p09551a439d">
   <rect height="112.365686" width="355.95" x="63.09" y="270.494314"/>
  </clipPath>
 </defs>
</svg>
