<?xml version="1.0" encoding="utf-8" standalone="no"?>
<!DOCTYPE svg PUBLIC "-//W3C//DTD SVG 1.1//EN"
  "http://www.w3.org/Graphics/SVG/1.1/DTD/svg11.dtd">
<!-- Created with matplotlib (https://matplotlib.org/) -->
<svg height="432pt" version="1.1" viewBox="0 0 432 432" width="432pt" xmlns="http://www.w3.org/2000/svg" xmlns:xlink="http://www.w3.org/1999/xlink">
 <metadata>
  <rdf:RDF xmlns:cc="http://creativecommons.org/ns#" xmlns:dc="http://purl.org/dc/elements/1.1/" xmlns:rdf="http://www.w3.org/1999/02/22-rdf-syntax-ns#">
   <cc:Work>
    <dc:type rdf:resource="http://purl.org/dc/dcmitype/StillImage"/>
    <dc:date>2022-01-28T17:34:43.926492</dc:date>
    <dc:format>image/svg+xml</dc:format>
    <dc:creator>
     <cc:Agent>
      <dc:title>Matplotlib v3.3.1, https://matplotlib.org/</dc:title>
     </cc:Agent>
    </dc:creator>
   </cc:Work>
  </rdf:RDF>
 </metadata>
 <defs>
  <style type="text/css">*{stroke-linecap:butt;stroke-linejoin:round;}</style>
 </defs>
 <g id="figure_1">
  <g id="patch_1">
   <path d="M 0 432 
L 432 432 
L 432 0 
L 0 0 
z
" style="fill:#ffffff;"/>
  </g>
  <g id="axes_1">
   <g id="patch_2">
    <path d="M 69.885 124.880093 
L 419.04 124.880093 
L 419.04 12.96 
L 69.885 12.96 
z
" style="fill:#eaeaf2;"/>
   </g>
   <g id="matplotlib.axis_1">
    <g id="xtick_1">
     <g id="line2d_1">
      <path clip-path="url(#p46bc82ae76)" d="M 74.130407 124.880093 
L 74.130407 12.96 
" style="fill:none;stroke:#ffffff;stroke-linecap:round;"/>
     </g>
    </g>
    <g id="xtick_2">
     <g id="line2d_2">
      <path clip-path="url(#p46bc82ae76)" d="M 127.03268 124.880093 
L 127.03268 12.96 
" style="fill:none;stroke:#ffffff;stroke-linecap:round;"/>
     </g>
    </g>
    <g id="xtick_3">
     <g id="line2d_3">
      <path clip-path="url(#p46bc82ae76)" d="M 179.934953 124.880093 
L 179.934953 12.96 
" style="fill:none;stroke:#ffffff;stroke-linecap:round;"/>
     </g>
    </g>
    <g id="xtick_4">
     <g id="line2d_4">
      <path clip-path="url(#p46bc82ae76)" d="M 232.837226 124.880093 
L 232.837226 12.96 
" style="fill:none;stroke:#ffffff;stroke-linecap:round;"/>
     </g>
    </g>
    <g id="xtick_5">
     <g id="line2d_5">
      <path clip-path="url(#p46bc82ae76)" d="M 285.739498 124.880093 
L 285.739498 12.96 
" style="fill:none;stroke:#ffffff;stroke-linecap:round;"/>
     </g>
    </g>
    <g id="xtick_6">
     <g id="line2d_6">
      <path clip-path="url(#p46bc82ae76)" d="M 338.641771 124.880093 
L 338.641771 12.96 
" style="fill:none;stroke:#ffffff;stroke-linecap:round;"/>
     </g>
    </g>
    <g id="xtick_7">
     <g id="line2d_7">
      <path clip-path="url(#p46bc82ae76)" d="M 391.544044 124.880093 
L 391.544044 12.96 
" style="fill:none;stroke:#ffffff;stroke-linecap:round;"/>
     </g>
    </g>
   </g>
   <g id="matplotlib.axis_2">
    <g id="ytick_1">
     <g id="line2d_8">
      <path clip-path="url(#p46bc82ae76)" d="M 69.885 116.09873 
L 419.04 116.09873 
" style="fill:none;stroke:#ffffff;stroke-linecap:round;"/>
     </g>
     <g id="text_1">
      <!-- −3 -->
      <g style="fill:#262626;" transform="translate(44.168594 120.27787)scale(0.11 -0.11)">
       <defs>
        <path d="M 10.59375 35.5 
L 73.1875 35.5 
L 73.1875 27.203125 
L 10.59375 27.203125 
z
" id="DejaVuSans-8722"/>
        <path d="M 40.578125 39.3125 
Q 47.65625 37.796875 51.625 33 
Q 55.609375 28.21875 55.609375 21.1875 
Q 55.609375 10.40625 48.1875 4.484375 
Q 40.765625 -1.421875 27.09375 -1.421875 
Q 22.515625 -1.421875 17.65625 -0.515625 
Q 12.796875 0.390625 7.625 2.203125 
L 7.625 11.71875 
Q 11.71875 9.328125 16.59375 8.109375 
Q 21.484375 6.890625 26.8125 6.890625 
Q 36.078125 6.890625 40.9375 10.546875 
Q 45.796875 14.203125 45.796875 21.1875 
Q 45.796875 27.640625 41.28125 31.265625 
Q 36.765625 34.90625 28.71875 34.90625 
L 20.21875 34.90625 
L 20.21875 43.015625 
L 29.109375 43.015625 
Q 36.375 43.015625 40.234375 45.921875 
Q 44.09375 48.828125 44.09375 54.296875 
Q 44.09375 59.90625 40.109375 62.90625 
Q 36.140625 65.921875 28.71875 65.921875 
Q 24.65625 65.921875 20.015625 65.03125 
Q 15.375 64.15625 9.8125 62.3125 
L 9.8125 71.09375 
Q 15.4375 72.65625 20.34375 73.4375 
Q 25.25 74.21875 29.59375 74.21875 
Q 40.828125 74.21875 47.359375 69.109375 
Q 53.90625 64.015625 53.90625 55.328125 
Q 53.90625 49.265625 50.4375 45.09375 
Q 46.96875 40.921875 40.578125 39.3125 
z
" id="DejaVuSans-51"/>
       </defs>
       <use xlink:href="#DejaVuSans-8722"/>
       <use x="83.789062" xlink:href="#DejaVuSans-51"/>
      </g>
     </g>
    </g>
    <g id="ytick_2">
     <g id="line2d_9">
      <path clip-path="url(#p46bc82ae76)" d="M 69.885 87.841234 
L 419.04 87.841234 
" style="fill:none;stroke:#ffffff;stroke-linecap:round;"/>
     </g>
     <g id="text_2">
      <!-- −2 -->
      <g style="fill:#262626;" transform="translate(44.168594 92.020375)scale(0.11 -0.11)">
       <defs>
        <path d="M 19.1875 8.296875 
L 53.609375 8.296875 
L 53.609375 0 
L 7.328125 0 
L 7.328125 8.296875 
Q 12.9375 14.109375 22.625 23.890625 
Q 32.328125 33.6875 34.8125 36.53125 
Q 39.546875 41.84375 41.421875 45.53125 
Q 43.3125 49.21875 43.3125 52.78125 
Q 43.3125 58.59375 39.234375 62.25 
Q 35.15625 65.921875 28.609375 65.921875 
Q 23.96875 65.921875 18.8125 64.3125 
Q 13.671875 62.703125 7.8125 59.421875 
L 7.8125 69.390625 
Q 13.765625 71.78125 18.9375 73 
Q 24.125 74.21875 28.421875 74.21875 
Q 39.75 74.21875 46.484375 68.546875 
Q 53.21875 62.890625 53.21875 53.421875 
Q 53.21875 48.921875 51.53125 44.890625 
Q 49.859375 40.875 45.40625 35.40625 
Q 44.1875 33.984375 37.640625 27.21875 
Q 31.109375 20.453125 19.1875 8.296875 
z
" id="DejaVuSans-50"/>
       </defs>
       <use xlink:href="#DejaVuSans-8722"/>
       <use x="83.789062" xlink:href="#DejaVuSans-50"/>
      </g>
     </g>
    </g>
    <g id="ytick_3">
     <g id="line2d_10">
      <path clip-path="url(#p46bc82ae76)" d="M 69.885 59.583739 
L 419.04 59.583739 
" style="fill:none;stroke:#ffffff;stroke-linecap:round;"/>
     </g>
     <g id="text_3">
      <!-- −1 -->
      <g style="fill:#262626;" transform="translate(44.168594 63.762879)scale(0.11 -0.11)">
       <defs>
        <path d="M 12.40625 8.296875 
L 28.515625 8.296875 
L 28.515625 63.921875 
L 10.984375 60.40625 
L 10.984375 69.390625 
L 28.421875 72.90625 
L 38.28125 72.90625 
L 38.28125 8.296875 
L 54.390625 8.296875 
L 54.390625 0 
L 12.40625 0 
z
" id="DejaVuSans-49"/>
       </defs>
       <use xlink:href="#DejaVuSans-8722"/>
       <use x="83.789062" xlink:href="#DejaVuSans-49"/>
      </g>
     </g>
    </g>
    <g id="ytick_4">
     <g id="line2d_11">
      <path clip-path="url(#p46bc82ae76)" d="M 69.885 31.326243 
L 419.04 31.326243 
" style="fill:none;stroke:#ffffff;stroke-linecap:round;"/>
     </g>
     <g id="text_4">
      <!-- 0 -->
      <g style="fill:#262626;" transform="translate(53.38625 35.505384)scale(0.11 -0.11)">
       <defs>
        <path d="M 31.78125 66.40625 
Q 24.171875 66.40625 20.328125 58.90625 
Q 16.5 51.421875 16.5 36.375 
Q 16.5 21.390625 20.328125 13.890625 
Q 24.171875 6.390625 31.78125 6.390625 
Q 39.453125 6.390625 43.28125 13.890625 
Q 47.125 21.390625 47.125 36.375 
Q 47.125 51.421875 43.28125 58.90625 
Q 39.453125 66.40625 31.78125 66.40625 
z
M 31.78125 74.21875 
Q 44.046875 74.21875 50.515625 64.515625 
Q 56.984375 54.828125 56.984375 36.375 
Q 56.984375 17.96875 50.515625 8.265625 
Q 44.046875 -1.421875 31.78125 -1.421875 
Q 19.53125 -1.421875 13.0625 8.265625 
Q 6.59375 17.96875 6.59375 36.375 
Q 6.59375 54.828125 13.0625 64.515625 
Q 19.53125 74.21875 31.78125 74.21875 
z
" id="DejaVuSans-48"/>
       </defs>
       <use xlink:href="#DejaVuSans-48"/>
      </g>
     </g>
    </g>
    <g id="text_5">
     <!-- $roll$ (deg) -->
     <g style="fill:#262626;" transform="translate(37.648594 96.340047)rotate(-90)scale(0.12 -0.12)">
      <defs>
       <path d="M 44.578125 46.390625 
Q 43.21875 47.125 41.453125 47.515625 
Q 39.703125 47.90625 37.703125 47.90625 
Q 30.515625 47.90625 25.140625 42.453125 
Q 19.78125 37.015625 18.015625 27.875 
L 12.5 0 
L 3.515625 0 
L 14.203125 54.6875 
L 23.1875 54.6875 
L 21.484375 46.1875 
Q 25.046875 50.921875 30 53.453125 
Q 34.96875 56 40.578125 56 
Q 42.046875 56 43.453125 55.828125 
Q 44.875 55.671875 46.296875 55.28125 
z
" id="DejaVuSans-Oblique-114"/>
       <path d="M 25.390625 -1.421875 
Q 15.765625 -1.421875 10.171875 4.515625 
Q 4.59375 10.453125 4.59375 20.703125 
Q 4.59375 26.65625 6.515625 32.828125 
Q 8.453125 39.015625 11.53125 43.21875 
Q 16.359375 49.75 22.3125 52.875 
Q 28.265625 56 35.796875 56 
Q 45.125 56 50.859375 50.1875 
Q 56.59375 44.390625 56.59375 35.015625 
Q 56.59375 28.515625 54.6875 22.0625 
Q 52.78125 15.625 49.703125 11.375 
Q 44.921875 4.828125 38.96875 1.703125 
Q 33.015625 -1.421875 25.390625 -1.421875 
z
M 13.921875 21 
Q 13.921875 13.578125 17.015625 9.890625 
Q 20.125 6.203125 26.421875 6.203125 
Q 35.453125 6.203125 41.375 14.078125 
Q 47.3125 21.96875 47.3125 34.078125 
Q 47.3125 41.15625 44.140625 44.765625 
Q 40.96875 48.390625 34.8125 48.390625 
Q 29.734375 48.390625 25.78125 46.015625 
Q 21.828125 43.65625 18.703125 38.8125 
Q 16.40625 35.203125 15.15625 30.5625 
Q 13.921875 25.921875 13.921875 21 
z
" id="DejaVuSans-Oblique-111"/>
       <path d="M 18.3125 75.984375 
L 27.296875 75.984375 
L 12.5 0 
L 3.515625 0 
z
" id="DejaVuSans-Oblique-108"/>
       <path id="DejaVuSans-32"/>
       <path d="M 31 75.875 
Q 24.46875 64.65625 21.28125 53.65625 
Q 18.109375 42.671875 18.109375 31.390625 
Q 18.109375 20.125 21.3125 9.0625 
Q 24.515625 -2 31 -13.1875 
L 23.1875 -13.1875 
Q 15.875 -1.703125 12.234375 9.375 
Q 8.59375 20.453125 8.59375 31.390625 
Q 8.59375 42.28125 12.203125 53.3125 
Q 15.828125 64.359375 23.1875 75.875 
z
" id="DejaVuSans-40"/>
       <path d="M 45.40625 46.390625 
L 45.40625 75.984375 
L 54.390625 75.984375 
L 54.390625 0 
L 45.40625 0 
L 45.40625 8.203125 
Q 42.578125 3.328125 38.25 0.953125 
Q 33.9375 -1.421875 27.875 -1.421875 
Q 17.96875 -1.421875 11.734375 6.484375 
Q 5.515625 14.40625 5.515625 27.296875 
Q 5.515625 40.1875 11.734375 48.09375 
Q 17.96875 56 27.875 56 
Q 33.9375 56 38.25 53.625 
Q 42.578125 51.265625 45.40625 46.390625 
z
M 14.796875 27.296875 
Q 14.796875 17.390625 18.875 11.75 
Q 22.953125 6.109375 30.078125 6.109375 
Q 37.203125 6.109375 41.296875 11.75 
Q 45.40625 17.390625 45.40625 27.296875 
Q 45.40625 37.203125 41.296875 42.84375 
Q 37.203125 48.484375 30.078125 48.484375 
Q 22.953125 48.484375 18.875 42.84375 
Q 14.796875 37.203125 14.796875 27.296875 
z
" id="DejaVuSans-100"/>
       <path d="M 56.203125 29.59375 
L 56.203125 25.203125 
L 14.890625 25.203125 
Q 15.484375 15.921875 20.484375 11.0625 
Q 25.484375 6.203125 34.421875 6.203125 
Q 39.59375 6.203125 44.453125 7.46875 
Q 49.3125 8.734375 54.109375 11.28125 
L 54.109375 2.78125 
Q 49.265625 0.734375 44.1875 -0.34375 
Q 39.109375 -1.421875 33.890625 -1.421875 
Q 20.796875 -1.421875 13.15625 6.1875 
Q 5.515625 13.8125 5.515625 26.8125 
Q 5.515625 40.234375 12.765625 48.109375 
Q 20.015625 56 32.328125 56 
Q 43.359375 56 49.78125 48.890625 
Q 56.203125 41.796875 56.203125 29.59375 
z
M 47.21875 32.234375 
Q 47.125 39.59375 43.09375 43.984375 
Q 39.0625 48.390625 32.421875 48.390625 
Q 24.90625 48.390625 20.390625 44.140625 
Q 15.875 39.890625 15.1875 32.171875 
z
" id="DejaVuSans-101"/>
       <path d="M 45.40625 27.984375 
Q 45.40625 37.75 41.375 43.109375 
Q 37.359375 48.484375 30.078125 48.484375 
Q 22.859375 48.484375 18.828125 43.109375 
Q 14.796875 37.75 14.796875 27.984375 
Q 14.796875 18.265625 18.828125 12.890625 
Q 22.859375 7.515625 30.078125 7.515625 
Q 37.359375 7.515625 41.375 12.890625 
Q 45.40625 18.265625 45.40625 27.984375 
z
M 54.390625 6.78125 
Q 54.390625 -7.171875 48.1875 -13.984375 
Q 42 -20.796875 29.203125 -20.796875 
Q 24.46875 -20.796875 20.265625 -20.09375 
Q 16.0625 -19.390625 12.109375 -17.921875 
L 12.109375 -9.1875 
Q 16.0625 -11.328125 19.921875 -12.34375 
Q 23.78125 -13.375 27.78125 -13.375 
Q 36.625 -13.375 41.015625 -8.765625 
Q 45.40625 -4.15625 45.40625 5.171875 
L 45.40625 9.625 
Q 42.625 4.78125 38.28125 2.390625 
Q 33.9375 0 27.875 0 
Q 17.828125 0 11.671875 7.65625 
Q 5.515625 15.328125 5.515625 27.984375 
Q 5.515625 40.671875 11.671875 48.328125 
Q 17.828125 56 27.875 56 
Q 33.9375 56 38.28125 53.609375 
Q 42.625 51.21875 45.40625 46.390625 
L 45.40625 54.6875 
L 54.390625 54.6875 
z
" id="DejaVuSans-103"/>
       <path d="M 8.015625 75.875 
L 15.828125 75.875 
Q 23.140625 64.359375 26.78125 53.3125 
Q 30.421875 42.28125 30.421875 31.390625 
Q 30.421875 20.453125 26.78125 9.375 
Q 23.140625 -1.703125 15.828125 -13.1875 
L 8.015625 -13.1875 
Q 14.5 -2 17.703125 9.0625 
Q 20.90625 20.125 20.90625 31.390625 
Q 20.90625 42.671875 17.703125 53.65625 
Q 14.5 64.65625 8.015625 75.875 
z
" id="DejaVuSans-41"/>
      </defs>
      <use transform="translate(0 0.015625)" xlink:href="#DejaVuSans-Oblique-114"/>
      <use transform="translate(41.113281 0.015625)" xlink:href="#DejaVuSans-Oblique-111"/>
      <use transform="translate(102.294922 0.015625)" xlink:href="#DejaVuSans-Oblique-108"/>
      <use transform="translate(130.078125 0.015625)" xlink:href="#DejaVuSans-Oblique-108"/>
      <use transform="translate(157.861328 0.015625)" xlink:href="#DejaVuSans-32"/>
      <use transform="translate(189.648438 0.015625)" xlink:href="#DejaVuSans-40"/>
      <use transform="translate(228.662109 0.015625)" xlink:href="#DejaVuSans-100"/>
      <use transform="translate(292.138672 0.015625)" xlink:href="#DejaVuSans-101"/>
      <use transform="translate(353.662109 0.015625)" xlink:href="#DejaVuSans-103"/>
      <use transform="translate(417.138672 0.015625)" xlink:href="#DejaVuSans-41"/>
     </g>
    </g>
   </g>
   <g id="line2d_12">
    <path clip-path="url(#p46bc82ae76)" d="M 85.755682 31.326243 
L 403.169318 31.326243 
L 403.169318 31.326243 
" style="fill:none;stroke:#000000;stroke-dasharray:5.55,2.4;stroke-dashoffset:0;stroke-opacity:0.5;stroke-width:1.5;"/>
   </g>
   <g id="line2d_13">
    <path clip-path="url(#p46bc82ae76)" d="M 87.880766 34.123176 
L 88.409789 45.68804 
L 88.938812 119.792816 
L 89.996857 71.847914 
L 90.261368 62.067021 
L 91.319414 44.405299 
L 92.641971 30.471533 
L 93.170993 26.925049 
L 93.700016 26.126637 
L 94.229039 22.155749 
L 94.49355 29.433832 
L 95.022573 62.067672 
L 95.816107 39.805582 
L 98.725732 29.783807 
L 99.254755 28.35374 
L 100.841823 27.504088 
L 101.899868 27.025477 
L 102.428891 26.379995 
L 102.693402 25.998099 
L 103.751448 25.640804 
L 104.015959 25.586592 
L 104.809493 26.4283 
L 105.338516 26.648029 
L 106.13205 26.47022 
L 106.925584 25.823266 
L 107.454607 25.160819 
L 107.98363 24.148573 
L 109.041675 20.254072 
L 109.570698 18.605268 
L 109.835209 18.072627 
L 110.099721 18.047277 
L 110.628743 19.133573 
L 111.686789 30.867944 
L 112.215812 35.148228 
L 113.009346 39.98471 
L 113.273857 41.365197 
L 115.125437 42.745872 
L 115.389948 42.717418 
L 115.918971 42.221925 
L 116.977016 43.175337 
L 118.035062 43.965215 
L 118.564084 44.727495 
L 119.093107 46.300519 
L 119.357618 46.728506 
L 119.886641 46.893894 
L 120.680175 46.320949 
L 121.473709 45.368343 
L 122.002732 44.461134 
L 122.531755 43.219241 
L 123.325289 43.101462 
L 124.118823 42.775185 
L 124.383334 42.74234 
L 124.647846 42.416746 
L 127.557471 35.461472 
L 129.144539 31.199877 
L 130.467096 28.48743 
L 132.318675 25.09041 
L 133.112209 24.028012 
L 134.434766 22.691766 
L 135.2283 22.480692 
L 136.550857 22.509902 
L 137.344391 22.911845 
L 137.608902 22.982156 
L 137.873414 22.937326 
L 139.724993 21.920558 
L 141.576573 21.220521 
L 142.370107 21.188173 
L 143.428152 21.665172 
L 143.692664 21.733533 
L 144.486198 21.6009 
L 145.279732 21.833325 
L 146.073266 22.168031 
L 146.602289 22.383594 
L 147.395823 23.021569 
L 150.040937 25.478768 
L 151.892516 26.855539 
L 153.479584 27.452959 
L 155.066652 27.852662 
L 157.711766 28.462254 
L 158.5053 28.831211 
L 159.298834 29.138224 
L 161.943948 30.222672 
L 163.531016 30.710286 
L 164.32455 30.71992 
L 164.853573 30.601217 
L 165.647107 30.139676 
L 167.234175 29.088476 
L 168.556732 28.436182 
L 169.350266 28.274252 
L 170.408312 28.544965 
L 171.466357 29.056781 
L 172.524402 30.003793 
L 174.375982 31.81518 
L 175.169516 32.215296 
L 177.550118 33.217247 
L 179.930721 33.230143 
L 182.046812 33.47408 
L 183.63388 34.088178 
L 184.162902 34.494591 
L 185.220948 35.340503 
L 186.014482 35.815998 
L 186.543505 35.959815 
L 187.337039 35.546118 
L 187.866062 34.984565 
L 188.659596 34.73128 
L 192.627266 34.532832 
L 194.478846 33.761256 
L 196.859448 33.06971 
L 198.182005 32.903363 
L 200.033584 32.963554 
L 201.620652 32.936506 
L 202.943209 32.758326 
L 206.381857 31.888425 
L 207.704414 31.972933 
L 210.085016 32.442713 
L 211.143062 32.394673 
L 212.73013 32.116696 
L 214.581709 31.646096 
L 215.904266 31.448362 
L 217.226823 31.296804 
L 218.020357 31.114493 
L 219.078402 30.810202 
L 220.136448 30.870526 
L 223.575096 31.225291 
L 224.897652 31.173949 
L 226.220209 31.237174 
L 227.278255 31.555513 
L 228.3363 31.680757 
L 229.658857 31.378 
L 230.981414 31.146649 
L 233.891039 31.321551 
L 235.213596 31.258334 
L 235.478107 31.231891 
L 236.536152 31.691779 
L 238.387732 32.565736 
L 239.710289 32.641301 
L 240.768334 32.610674 
L 242.090891 31.869102 
L 243.413448 30.848523 
L 244.206982 30.356154 
L 245.79405 28.740505 
L 248.703675 29.258518 
L 250.290743 29.098815 
L 251.6133 29.050844 
L 252.671346 29.277723 
L 253.200368 29.372876 
L 254.522925 29.307326 
L 257.961573 28.225126 
L 259.813152 28.159789 
L 260.606687 28.322301 
L 261.929243 28.618488 
L 265.367891 29.371968 
L 267.748493 29.372908 
L 269.07105 29.544384 
L 269.600073 29.558797 
L 271.187141 29.867323 
L 271.716164 29.934268 
L 272.509698 30.288272 
L 275.948346 32.205687 
L 276.477368 32.073218 
L 276.74188 31.942492 
L 277.799925 32.090079 
L 278.857971 32.179797 
L 279.651505 32.732438 
L 280.180527 33.243456 
L 281.238573 33.32319 
L 282.032107 33.35194 
L 283.090152 32.998766 
L 284.412709 32.471139 
L 286.5288 32.208043 
L 287.586846 32.339242 
L 288.38038 32.098614 
L 289.702937 31.64795 
L 290.231959 31.608106 
L 291.025493 31.735971 
L 291.554516 31.996216 
L 292.083539 32.442683 
L 293.670607 32.514123 
L 295.786698 32.624147 
L 296.580232 32.817819 
L 297.638277 33.329635 
L 297.902789 33.383811 
L 298.696323 32.961101 
L 299.754368 32.786942 
L 300.547902 32.567258 
L 302.663993 31.081153 
L 303.98655 30.740319 
L 304.515573 31.240817 
L 305.309107 31.353825 
L 306.631664 32.283291 
L 307.425198 32.039456 
L 308.218732 32.049169 
L 309.276777 32.091484 
L 310.070312 31.998423 
L 310.863846 31.950962 
L 312.186402 31.758687 
L 312.979937 31.72181 
L 314.037982 31.681833 
L 315.096027 32.109525 
L 315.889562 32.439265 
L 316.418584 32.890754 
L 316.683096 32.740924 
L 317.212118 31.931301 
L 318.534675 31.477581 
L 320.121743 30.631226 
L 320.650766 30.587929 
L 322.237834 30.288206 
L 324.089414 30.59962 
L 325.147459 31.358692 
L 325.676482 31.416234 
L 325.940993 31.396109 
L 326.734527 31.651446 
L 328.057084 31.440179 
L 328.850618 31.228481 
L 330.173175 31.35228 
L 332.289266 31.731448 
L 333.0828 32.051005 
L 333.876334 32.132613 
L 334.93438 31.950045 
L 335.727914 31.718179 
L 335.992425 31.767619 
L 337.579493 32.764355 
L 339.166562 33.015038 
L 339.960096 32.83679 
L 341.018141 33.034132 
L 342.605209 33.060226 
L 343.663255 32.883792 
L 343.927766 32.968626 
L 344.456789 33.385235 
L 345.250323 32.97778 
L 346.043857 32.190374 
L 346.57288 31.788279 
L 347.366414 30.957877 
L 348.159948 30.598026 
L 348.424459 30.513324 
L 349.217993 31.942844 
L 349.747016 32.354615 
L 350.54055 32.559429 
L 351.069573 32.966474 
L 352.921152 32.005226 
L 353.714687 31.813848 
L 355.037243 30.924375 
L 355.830777 30.454023 
L 356.3598 30.413079 
L 357.682357 31.159755 
L 358.740402 32.011066 
L 359.004914 32.158486 
L 360.062959 32.111666 
L 360.591982 31.922258 
L 361.121005 31.706983 
L 361.650027 31.664839 
L 362.708073 32.045185 
L 362.972584 32.101906 
L 363.501607 32.524825 
L 363.766118 32.527762 
L 364.559652 31.796319 
L 365.088675 31.244368 
L 366.146721 30.709986 
L 366.411232 30.83242 
L 367.204766 31.818071 
L 368.791834 33.093881 
L 369.056346 33.053306 
L 370.378902 32.013211 
L 373.288527 30.985637 
L 373.553039 30.85335 
L 374.346573 30.89301 
L 376.727175 31.479996 
L 377.785221 31.684641 
L 379.107777 31.952244 
L 379.6368 31.805615 
L 380.165823 31.797377 
L 381.223868 31.338407 
L 382.281914 31.17069 
L 384.927027 31.148343 
L 388.365675 31.54642 
L 389.688232 31.541713 
L 390.217255 31.639665 
L 390.746277 31.90244 
L 392.068834 31.768827 
L 392.597857 31.465256 
L 393.12688 31.421928 
L 395.507482 31.758789 
L 398.417107 31.645693 
L 398.681618 31.633444 
L 399.739664 32.330382 
L 400.533198 33.070491 
L 401.326732 33.780343 
L 402.649289 34.32224 
L 402.649289 34.32224 
" style="fill:none;stroke:#4c72b0;stroke-linecap:round;stroke-opacity:0.75;stroke-width:1.5;"/>
   </g>
   <g id="patch_3">
    <path d="M 69.885 124.880093 
L 69.885 12.96 
" style="fill:none;stroke:#ffffff;stroke-linecap:square;stroke-linejoin:miter;stroke-width:1.25;"/>
   </g>
   <g id="patch_4">
    <path d="M 419.04 124.880093 
L 419.04 12.96 
" style="fill:none;stroke:#ffffff;stroke-linecap:square;stroke-linejoin:miter;stroke-width:1.25;"/>
   </g>
   <g id="patch_5">
    <path d="M 69.885 124.880093 
L 419.04 124.880093 
" style="fill:none;stroke:#ffffff;stroke-linecap:square;stroke-linejoin:miter;stroke-width:1.25;"/>
   </g>
   <g id="patch_6">
    <path d="M 69.885 12.96 
L 419.04 12.96 
" style="fill:none;stroke:#ffffff;stroke-linecap:square;stroke-linejoin:miter;stroke-width:1.25;"/>
   </g>
   <g id="legend_1">
    <g id="patch_7">
     <path d="M 232.311562 119.380093 
L 411.34 119.380093 
Q 413.54 119.380093 413.54 117.180093 
L 413.54 85.376343 
Q 413.54 83.176343 411.34 83.176343 
L 232.311562 83.176343 
Q 230.111562 83.176343 230.111562 85.376343 
L 230.111562 117.180093 
Q 230.111562 119.380093 232.311562 119.380093 
z
" style="fill:#eaeaf2;opacity:0.8;stroke:#cccccc;stroke-linejoin:miter;"/>
    </g>
    <g id="line2d_14">
     <path d="M 234.511562 92.084624 
L 256.511562 92.084624 
" style="fill:none;stroke:#000000;stroke-dasharray:5.55,2.4;stroke-dashoffset:0;stroke-opacity:0.5;stroke-width:1.5;"/>
    </g>
    <g id="line2d_15"/>
    <g id="text_6">
     <!-- /tf:world.base_link_gt -->
     <g style="fill:#262626;" transform="translate(265.311562 95.934624)scale(0.11 -0.11)">
      <defs>
       <path d="M 25.390625 72.90625 
L 33.6875 72.90625 
L 8.296875 -9.28125 
L 0 -9.28125 
z
" id="DejaVuSans-47"/>
       <path d="M 18.3125 70.21875 
L 18.3125 54.6875 
L 36.8125 54.6875 
L 36.8125 47.703125 
L 18.3125 47.703125 
L 18.3125 18.015625 
Q 18.3125 11.328125 20.140625 9.421875 
Q 21.96875 7.515625 27.59375 7.515625 
L 36.8125 7.515625 
L 36.8125 0 
L 27.59375 0 
Q 17.1875 0 13.234375 3.875 
Q 9.28125 7.765625 9.28125 18.015625 
L 9.28125 47.703125 
L 2.6875 47.703125 
L 2.6875 54.6875 
L 9.28125 54.6875 
L 9.28125 70.21875 
z
" id="DejaVuSans-116"/>
       <path d="M 37.109375 75.984375 
L 37.109375 68.5 
L 28.515625 68.5 
Q 23.6875 68.5 21.796875 66.546875 
Q 19.921875 64.59375 19.921875 59.515625 
L 19.921875 54.6875 
L 34.71875 54.6875 
L 34.71875 47.703125 
L 19.921875 47.703125 
L 19.921875 0 
L 10.890625 0 
L 10.890625 47.703125 
L 2.296875 47.703125 
L 2.296875 54.6875 
L 10.890625 54.6875 
L 10.890625 58.5 
Q 10.890625 67.625 15.140625 71.796875 
Q 19.390625 75.984375 28.609375 75.984375 
z
" id="DejaVuSans-102"/>
       <path d="M 11.71875 12.40625 
L 22.015625 12.40625 
L 22.015625 0 
L 11.71875 0 
z
M 11.71875 51.703125 
L 22.015625 51.703125 
L 22.015625 39.3125 
L 11.71875 39.3125 
z
" id="DejaVuSans-58"/>
       <path d="M 4.203125 54.6875 
L 13.1875 54.6875 
L 24.421875 12.015625 
L 35.59375 54.6875 
L 46.1875 54.6875 
L 57.421875 12.015625 
L 68.609375 54.6875 
L 77.59375 54.6875 
L 63.28125 0 
L 52.6875 0 
L 40.921875 44.828125 
L 29.109375 0 
L 18.5 0 
z
" id="DejaVuSans-119"/>
       <path d="M 30.609375 48.390625 
Q 23.390625 48.390625 19.1875 42.75 
Q 14.984375 37.109375 14.984375 27.296875 
Q 14.984375 17.484375 19.15625 11.84375 
Q 23.34375 6.203125 30.609375 6.203125 
Q 37.796875 6.203125 41.984375 11.859375 
Q 46.1875 17.53125 46.1875 27.296875 
Q 46.1875 37.015625 41.984375 42.703125 
Q 37.796875 48.390625 30.609375 48.390625 
z
M 30.609375 56 
Q 42.328125 56 49.015625 48.375 
Q 55.71875 40.765625 55.71875 27.296875 
Q 55.71875 13.875 49.015625 6.21875 
Q 42.328125 -1.421875 30.609375 -1.421875 
Q 18.84375 -1.421875 12.171875 6.21875 
Q 5.515625 13.875 5.515625 27.296875 
Q 5.515625 40.765625 12.171875 48.375 
Q 18.84375 56 30.609375 56 
z
" id="DejaVuSans-111"/>
       <path d="M 41.109375 46.296875 
Q 39.59375 47.171875 37.8125 47.578125 
Q 36.03125 48 33.890625 48 
Q 26.265625 48 22.1875 43.046875 
Q 18.109375 38.09375 18.109375 28.8125 
L 18.109375 0 
L 9.078125 0 
L 9.078125 54.6875 
L 18.109375 54.6875 
L 18.109375 46.1875 
Q 20.953125 51.171875 25.484375 53.578125 
Q 30.03125 56 36.53125 56 
Q 37.453125 56 38.578125 55.875 
Q 39.703125 55.765625 41.0625 55.515625 
z
" id="DejaVuSans-114"/>
       <path d="M 9.421875 75.984375 
L 18.40625 75.984375 
L 18.40625 0 
L 9.421875 0 
z
" id="DejaVuSans-108"/>
       <path d="M 10.6875 12.40625 
L 21 12.40625 
L 21 0 
L 10.6875 0 
z
" id="DejaVuSans-46"/>
       <path d="M 48.6875 27.296875 
Q 48.6875 37.203125 44.609375 42.84375 
Q 40.53125 48.484375 33.40625 48.484375 
Q 26.265625 48.484375 22.1875 42.84375 
Q 18.109375 37.203125 18.109375 27.296875 
Q 18.109375 17.390625 22.1875 11.75 
Q 26.265625 6.109375 33.40625 6.109375 
Q 40.53125 6.109375 44.609375 11.75 
Q 48.6875 17.390625 48.6875 27.296875 
z
M 18.109375 46.390625 
Q 20.953125 51.265625 25.265625 53.625 
Q 29.59375 56 35.59375 56 
Q 45.5625 56 51.78125 48.09375 
Q 58.015625 40.1875 58.015625 27.296875 
Q 58.015625 14.40625 51.78125 6.484375 
Q 45.5625 -1.421875 35.59375 -1.421875 
Q 29.59375 -1.421875 25.265625 0.953125 
Q 20.953125 3.328125 18.109375 8.203125 
L 18.109375 0 
L 9.078125 0 
L 9.078125 75.984375 
L 18.109375 75.984375 
z
" id="DejaVuSans-98"/>
       <path d="M 34.28125 27.484375 
Q 23.390625 27.484375 19.1875 25 
Q 14.984375 22.515625 14.984375 16.5 
Q 14.984375 11.71875 18.140625 8.90625 
Q 21.296875 6.109375 26.703125 6.109375 
Q 34.1875 6.109375 38.703125 11.40625 
Q 43.21875 16.703125 43.21875 25.484375 
L 43.21875 27.484375 
z
M 52.203125 31.203125 
L 52.203125 0 
L 43.21875 0 
L 43.21875 8.296875 
Q 40.140625 3.328125 35.546875 0.953125 
Q 30.953125 -1.421875 24.3125 -1.421875 
Q 15.921875 -1.421875 10.953125 3.296875 
Q 6 8.015625 6 15.921875 
Q 6 25.140625 12.171875 29.828125 
Q 18.359375 34.515625 30.609375 34.515625 
L 43.21875 34.515625 
L 43.21875 35.40625 
Q 43.21875 41.609375 39.140625 45 
Q 35.0625 48.390625 27.6875 48.390625 
Q 23 48.390625 18.546875 47.265625 
Q 14.109375 46.140625 10.015625 43.890625 
L 10.015625 52.203125 
Q 14.9375 54.109375 19.578125 55.046875 
Q 24.21875 56 28.609375 56 
Q 40.484375 56 46.34375 49.84375 
Q 52.203125 43.703125 52.203125 31.203125 
z
" id="DejaVuSans-97"/>
       <path d="M 44.28125 53.078125 
L 44.28125 44.578125 
Q 40.484375 46.53125 36.375 47.5 
Q 32.28125 48.484375 27.875 48.484375 
Q 21.1875 48.484375 17.84375 46.4375 
Q 14.5 44.390625 14.5 40.28125 
Q 14.5 37.15625 16.890625 35.375 
Q 19.28125 33.59375 26.515625 31.984375 
L 29.59375 31.296875 
Q 39.15625 29.25 43.1875 25.515625 
Q 47.21875 21.78125 47.21875 15.09375 
Q 47.21875 7.46875 41.1875 3.015625 
Q 35.15625 -1.421875 24.609375 -1.421875 
Q 20.21875 -1.421875 15.453125 -0.5625 
Q 10.6875 0.296875 5.421875 2 
L 5.421875 11.28125 
Q 10.40625 8.6875 15.234375 7.390625 
Q 20.0625 6.109375 24.8125 6.109375 
Q 31.15625 6.109375 34.5625 8.28125 
Q 37.984375 10.453125 37.984375 14.40625 
Q 37.984375 18.0625 35.515625 20.015625 
Q 33.0625 21.96875 24.703125 23.78125 
L 21.578125 24.515625 
Q 13.234375 26.265625 9.515625 29.90625 
Q 5.8125 33.546875 5.8125 39.890625 
Q 5.8125 47.609375 11.28125 51.796875 
Q 16.75 56 26.8125 56 
Q 31.78125 56 36.171875 55.265625 
Q 40.578125 54.546875 44.28125 53.078125 
z
" id="DejaVuSans-115"/>
       <path d="M 50.984375 -16.609375 
L 50.984375 -23.578125 
L -0.984375 -23.578125 
L -0.984375 -16.609375 
z
" id="DejaVuSans-95"/>
       <path d="M 9.421875 54.6875 
L 18.40625 54.6875 
L 18.40625 0 
L 9.421875 0 
z
M 9.421875 75.984375 
L 18.40625 75.984375 
L 18.40625 64.59375 
L 9.421875 64.59375 
z
" id="DejaVuSans-105"/>
       <path d="M 54.890625 33.015625 
L 54.890625 0 
L 45.90625 0 
L 45.90625 32.71875 
Q 45.90625 40.484375 42.875 44.328125 
Q 39.84375 48.1875 33.796875 48.1875 
Q 26.515625 48.1875 22.3125 43.546875 
Q 18.109375 38.921875 18.109375 30.90625 
L 18.109375 0 
L 9.078125 0 
L 9.078125 54.6875 
L 18.109375 54.6875 
L 18.109375 46.1875 
Q 21.34375 51.125 25.703125 53.5625 
Q 30.078125 56 35.796875 56 
Q 45.21875 56 50.046875 50.171875 
Q 54.890625 44.34375 54.890625 33.015625 
z
" id="DejaVuSans-110"/>
       <path d="M 9.078125 75.984375 
L 18.109375 75.984375 
L 18.109375 31.109375 
L 44.921875 54.6875 
L 56.390625 54.6875 
L 27.390625 29.109375 
L 57.625 0 
L 45.90625 0 
L 18.109375 26.703125 
L 18.109375 0 
L 9.078125 0 
z
" id="DejaVuSans-107"/>
      </defs>
      <use xlink:href="#DejaVuSans-47"/>
      <use x="33.691406" xlink:href="#DejaVuSans-116"/>
      <use x="72.900391" xlink:href="#DejaVuSans-102"/>
      <use x="104.480469" xlink:href="#DejaVuSans-58"/>
      <use x="138.171875" xlink:href="#DejaVuSans-119"/>
      <use x="219.958984" xlink:href="#DejaVuSans-111"/>
      <use x="281.140625" xlink:href="#DejaVuSans-114"/>
      <use x="322.253906" xlink:href="#DejaVuSans-108"/>
      <use x="350.037109" xlink:href="#DejaVuSans-100"/>
      <use x="413.513672" xlink:href="#DejaVuSans-46"/>
      <use x="445.300781" xlink:href="#DejaVuSans-98"/>
      <use x="508.777344" xlink:href="#DejaVuSans-97"/>
      <use x="570.056641" xlink:href="#DejaVuSans-115"/>
      <use x="622.15625" xlink:href="#DejaVuSans-101"/>
      <use x="683.679688" xlink:href="#DejaVuSans-95"/>
      <use x="733.679688" xlink:href="#DejaVuSans-108"/>
      <use x="761.462891" xlink:href="#DejaVuSans-105"/>
      <use x="789.246094" xlink:href="#DejaVuSans-110"/>
      <use x="852.625" xlink:href="#DejaVuSans-107"/>
      <use x="910.535156" xlink:href="#DejaVuSans-95"/>
      <use x="960.535156" xlink:href="#DejaVuSans-103"/>
      <use x="1024.011719" xlink:href="#DejaVuSans-116"/>
     </g>
    </g>
    <g id="line2d_16">
     <path d="M 234.511562 108.536499 
L 256.511562 108.536499 
" style="fill:none;stroke:#4c72b0;stroke-linecap:round;stroke-opacity:0.75;stroke-width:1.5;"/>
    </g>
    <g id="line2d_17"/>
    <g id="text_7">
     <!-- /tf:world.base_link_kimera -->
     <g style="fill:#262626;" transform="translate(265.311562 112.386499)scale(0.11 -0.11)">
      <defs>
       <path d="M 52 44.1875 
Q 55.375 50.25 60.0625 53.125 
Q 64.75 56 71.09375 56 
Q 79.640625 56 84.28125 50.015625 
Q 88.921875 44.046875 88.921875 33.015625 
L 88.921875 0 
L 79.890625 0 
L 79.890625 32.71875 
Q 79.890625 40.578125 77.09375 44.375 
Q 74.3125 48.1875 68.609375 48.1875 
Q 61.625 48.1875 57.5625 43.546875 
Q 53.515625 38.921875 53.515625 30.90625 
L 53.515625 0 
L 44.484375 0 
L 44.484375 32.71875 
Q 44.484375 40.625 41.703125 44.40625 
Q 38.921875 48.1875 33.109375 48.1875 
Q 26.21875 48.1875 22.15625 43.53125 
Q 18.109375 38.875 18.109375 30.90625 
L 18.109375 0 
L 9.078125 0 
L 9.078125 54.6875 
L 18.109375 54.6875 
L 18.109375 46.1875 
Q 21.1875 51.21875 25.484375 53.609375 
Q 29.78125 56 35.6875 56 
Q 41.65625 56 45.828125 52.96875 
Q 50 49.953125 52 44.1875 
z
" id="DejaVuSans-109"/>
      </defs>
      <use xlink:href="#DejaVuSans-47"/>
      <use x="33.691406" xlink:href="#DejaVuSans-116"/>
      <use x="72.900391" xlink:href="#DejaVuSans-102"/>
      <use x="104.480469" xlink:href="#DejaVuSans-58"/>
      <use x="138.171875" xlink:href="#DejaVuSans-119"/>
      <use x="219.958984" xlink:href="#DejaVuSans-111"/>
      <use x="281.140625" xlink:href="#DejaVuSans-114"/>
      <use x="322.253906" xlink:href="#DejaVuSans-108"/>
      <use x="350.037109" xlink:href="#DejaVuSans-100"/>
      <use x="413.513672" xlink:href="#DejaVuSans-46"/>
      <use x="445.300781" xlink:href="#DejaVuSans-98"/>
      <use x="508.777344" xlink:href="#DejaVuSans-97"/>
      <use x="570.056641" xlink:href="#DejaVuSans-115"/>
      <use x="622.15625" xlink:href="#DejaVuSans-101"/>
      <use x="683.679688" xlink:href="#DejaVuSans-95"/>
      <use x="733.679688" xlink:href="#DejaVuSans-108"/>
      <use x="761.462891" xlink:href="#DejaVuSans-105"/>
      <use x="789.246094" xlink:href="#DejaVuSans-110"/>
      <use x="852.625" xlink:href="#DejaVuSans-107"/>
      <use x="910.535156" xlink:href="#DejaVuSans-95"/>
      <use x="960.535156" xlink:href="#DejaVuSans-107"/>
      <use x="1018.445312" xlink:href="#DejaVuSans-105"/>
      <use x="1046.228516" xlink:href="#DejaVuSans-109"/>
      <use x="1143.640625" xlink:href="#DejaVuSans-101"/>
      <use x="1205.164062" xlink:href="#DejaVuSans-114"/>
      <use x="1246.277344" xlink:href="#DejaVuSans-97"/>
     </g>
    </g>
   </g>
  </g>
  <g id="axes_2">
   <g id="patch_8">
    <path d="M 69.885 253.870047 
L 419.04 253.870047 
L 419.04 141.949953 
L 69.885 141.949953 
z
" style="fill:#eaeaf2;"/>
   </g>
   <g id="matplotlib.axis_3">
    <g id="xtick_8">
     <g id="line2d_18">
      <path clip-path="url(#pc7173f2416)" d="M 74.130407 253.870047 
L 74.130407 141.949953 
" style="fill:none;stroke:#ffffff;stroke-linecap:round;"/>
     </g>
    </g>
    <g id="xtick_9">
     <g id="line2d_19">
      <path clip-path="url(#pc7173f2416)" d="M 127.03268 253.870047 
L 127.03268 141.949953 
" style="fill:none;stroke:#ffffff;stroke-linecap:round;"/>
     </g>
    </g>
    <g id="xtick_10">
     <g id="line2d_20">
      <path clip-path="url(#pc7173f2416)" d="M 179.934953 253.870047 
L 179.934953 141.949953 
" style="fill:none;stroke:#ffffff;stroke-linecap:round;"/>
     </g>
    </g>
    <g id="xtick_11">
     <g id="line2d_21">
      <path clip-path="url(#pc7173f2416)" d="M 232.837226 253.870047 
L 232.837226 141.949953 
" style="fill:none;stroke:#ffffff;stroke-linecap:round;"/>
     </g>
    </g>
    <g id="xtick_12">
     <g id="line2d_22">
      <path clip-path="url(#pc7173f2416)" d="M 285.739498 253.870047 
L 285.739498 141.949953 
" style="fill:none;stroke:#ffffff;stroke-linecap:round;"/>
     </g>
    </g>
    <g id="xtick_13">
     <g id="line2d_23">
      <path clip-path="url(#pc7173f2416)" d="M 338.641771 253.870047 
L 338.641771 141.949953 
" style="fill:none;stroke:#ffffff;stroke-linecap:round;"/>
     </g>
    </g>
    <g id="xtick_14">
     <g id="line2d_24">
      <path clip-path="url(#pc7173f2416)" d="M 391.544044 253.870047 
L 391.544044 141.949953 
" style="fill:none;stroke:#ffffff;stroke-linecap:round;"/>
     </g>
    </g>
   </g>
   <g id="matplotlib.axis_4">
    <g id="ytick_5">
     <g id="line2d_25">
      <path clip-path="url(#pc7173f2416)" d="M 69.885 242.459657 
L 419.04 242.459657 
" style="fill:none;stroke:#ffffff;stroke-linecap:round;"/>
     </g>
     <g id="text_8">
      <!-- −15 -->
      <g style="fill:#262626;" transform="translate(37.169844 246.638797)scale(0.11 -0.11)">
       <defs>
        <path d="M 10.796875 72.90625 
L 49.515625 72.90625 
L 49.515625 64.59375 
L 19.828125 64.59375 
L 19.828125 46.734375 
Q 21.96875 47.46875 24.109375 47.828125 
Q 26.265625 48.1875 28.421875 48.1875 
Q 40.625 48.1875 47.75 41.5 
Q 54.890625 34.8125 54.890625 23.390625 
Q 54.890625 11.625 47.5625 5.09375 
Q 40.234375 -1.421875 26.90625 -1.421875 
Q 22.3125 -1.421875 17.546875 -0.640625 
Q 12.796875 0.140625 7.71875 1.703125 
L 7.71875 11.625 
Q 12.109375 9.234375 16.796875 8.0625 
Q 21.484375 6.890625 26.703125 6.890625 
Q 35.15625 6.890625 40.078125 11.328125 
Q 45.015625 15.765625 45.015625 23.390625 
Q 45.015625 31 40.078125 35.4375 
Q 35.15625 39.890625 26.703125 39.890625 
Q 22.75 39.890625 18.8125 39.015625 
Q 14.890625 38.140625 10.796875 36.28125 
z
" id="DejaVuSans-53"/>
       </defs>
       <use xlink:href="#DejaVuSans-8722"/>
       <use x="83.789062" xlink:href="#DejaVuSans-49"/>
       <use x="147.412109" xlink:href="#DejaVuSans-53"/>
      </g>
     </g>
    </g>
    <g id="ytick_6">
     <g id="line2d_26">
      <path clip-path="url(#pc7173f2416)" d="M 69.885 217.339586 
L 419.04 217.339586 
" style="fill:none;stroke:#ffffff;stroke-linecap:round;"/>
     </g>
     <g id="text_9">
      <!-- −10 -->
      <g style="fill:#262626;" transform="translate(37.169844 221.518726)scale(0.11 -0.11)">
       <use xlink:href="#DejaVuSans-8722"/>
       <use x="83.789062" xlink:href="#DejaVuSans-49"/>
       <use x="147.412109" xlink:href="#DejaVuSans-48"/>
      </g>
     </g>
    </g>
    <g id="ytick_7">
     <g id="line2d_27">
      <path clip-path="url(#pc7173f2416)" d="M 69.885 192.219515 
L 419.04 192.219515 
" style="fill:none;stroke:#ffffff;stroke-linecap:round;"/>
     </g>
     <g id="text_10">
      <!-- −5 -->
      <g style="fill:#262626;" transform="translate(44.168594 196.398655)scale(0.11 -0.11)">
       <use xlink:href="#DejaVuSans-8722"/>
       <use x="83.789062" xlink:href="#DejaVuSans-53"/>
      </g>
     </g>
    </g>
    <g id="ytick_8">
     <g id="line2d_28">
      <path clip-path="url(#pc7173f2416)" d="M 69.885 167.099444 
L 419.04 167.099444 
" style="fill:none;stroke:#ffffff;stroke-linecap:round;"/>
     </g>
     <g id="text_11">
      <!-- 0 -->
      <g style="fill:#262626;" transform="translate(53.38625 171.278584)scale(0.11 -0.11)">
       <use xlink:href="#DejaVuSans-48"/>
      </g>
     </g>
    </g>
    <g id="ytick_9">
     <g id="line2d_29">
      <path clip-path="url(#pc7173f2416)" d="M 69.885 141.979373 
L 419.04 141.979373 
" style="fill:none;stroke:#ffffff;stroke-linecap:round;"/>
     </g>
     <g id="text_12">
      <!-- 5 -->
      <g style="fill:#262626;" transform="translate(53.38625 146.158513)scale(0.11 -0.11)">
       <use xlink:href="#DejaVuSans-53"/>
      </g>
     </g>
    </g>
    <g id="text_13">
     <!-- $pitch$ (deg) -->
     <g style="fill:#262626;" transform="translate(30.649844 230.79)rotate(-90)scale(0.12 -0.12)">
      <defs>
       <path d="M 49.609375 33.6875 
Q 49.609375 40.875 46.484375 44.671875 
Q 43.359375 48.484375 37.5 48.484375 
Q 33.5 48.484375 29.859375 46.4375 
Q 26.21875 44.390625 23.390625 40.484375 
Q 20.609375 36.625 18.9375 31.15625 
Q 17.28125 25.6875 17.28125 20.3125 
Q 17.28125 13.484375 20.40625 9.796875 
Q 23.53125 6.109375 29.296875 6.109375 
Q 33.546875 6.109375 37.1875 8.109375 
Q 40.828125 10.109375 43.40625 13.921875 
Q 46.1875 17.921875 47.890625 23.34375 
Q 49.609375 28.765625 49.609375 33.6875 
z
M 21.78125 46.390625 
Q 25.390625 51.125 30.296875 53.5625 
Q 35.203125 56 41.21875 56 
Q 49.609375 56 54.25 50.5 
Q 58.890625 45.015625 58.890625 35.109375 
Q 58.890625 27 56 19.65625 
Q 53.125 12.3125 47.703125 6.5 
Q 44.09375 2.640625 39.546875 0.609375 
Q 35.015625 -1.421875 29.984375 -1.421875 
Q 24.171875 -1.421875 20.21875 1 
Q 16.265625 3.421875 14.3125 8.203125 
L 8.6875 -20.796875 
L -0.296875 -20.796875 
L 14.40625 54.6875 
L 23.390625 54.6875 
z
" id="DejaVuSans-Oblique-112"/>
       <path d="M 18.3125 75.984375 
L 27.296875 75.984375 
L 25.09375 64.59375 
L 16.109375 64.59375 
z
M 14.203125 54.6875 
L 23.1875 54.6875 
L 12.5 0 
L 3.515625 0 
z
" id="DejaVuSans-Oblique-105"/>
       <path d="M 42.28125 54.6875 
L 40.921875 47.703125 
L 23 47.703125 
L 17.1875 18.015625 
Q 16.890625 16.359375 16.75 15.234375 
Q 16.609375 14.109375 16.609375 13.484375 
Q 16.609375 10.359375 18.484375 8.9375 
Q 20.359375 7.515625 24.515625 7.515625 
L 33.59375 7.515625 
L 32.078125 0 
L 23.484375 0 
Q 15.484375 0 11.546875 3.125 
Q 7.625 6.25 7.625 12.59375 
Q 7.625 13.71875 7.765625 15.0625 
Q 7.90625 16.40625 8.203125 18.015625 
L 14.015625 47.703125 
L 6.390625 47.703125 
L 7.8125 54.6875 
L 15.28125 54.6875 
L 18.3125 70.21875 
L 27.296875 70.21875 
L 24.3125 54.6875 
z
" id="DejaVuSans-Oblique-116"/>
       <path d="M 53.609375 52.59375 
L 51.8125 43.703125 
Q 48.578125 46.046875 44.9375 47.21875 
Q 41.3125 48.390625 37.40625 48.390625 
Q 33.109375 48.390625 29.21875 46.875 
Q 25.34375 45.359375 22.703125 42.578125 
Q 18.5 38.328125 16.203125 32.609375 
Q 13.921875 26.90625 13.921875 20.796875 
Q 13.921875 13.421875 17.609375 9.8125 
Q 21.296875 6.203125 28.8125 6.203125 
Q 32.515625 6.203125 36.6875 7.328125 
Q 40.875 8.453125 45.40625 10.6875 
L 43.703125 1.8125 
Q 39.796875 0.203125 35.671875 -0.609375 
Q 31.546875 -1.421875 27.203125 -1.421875 
Q 16.3125 -1.421875 10.453125 4.015625 
Q 4.59375 9.46875 4.59375 19.578125 
Q 4.59375 28.078125 7.640625 35.234375 
Q 10.6875 42.390625 16.703125 48.09375 
Q 20.796875 52 26.3125 54 
Q 31.84375 56 38.375 56 
Q 42.1875 56 45.9375 55.140625 
Q 49.703125 54.296875 53.609375 52.59375 
z
" id="DejaVuSans-Oblique-99"/>
       <path d="M 55.71875 33.015625 
L 49.3125 0 
L 40.28125 0 
L 46.6875 32.671875 
Q 47.125 34.96875 47.359375 36.71875 
Q 47.609375 38.484375 47.609375 39.5 
Q 47.609375 43.609375 45.015625 45.890625 
Q 42.4375 48.1875 37.796875 48.1875 
Q 30.5625 48.1875 25.265625 43.296875 
Q 19.96875 38.421875 18.40625 30.328125 
L 12.5 0 
L 3.515625 0 
L 18.3125 75.984375 
L 27.296875 75.984375 
L 21.484375 46.09375 
Q 24.90625 50.6875 30.21875 53.34375 
Q 35.546875 56 41.40625 56 
Q 48.640625 56 52.609375 52.09375 
Q 56.59375 48.1875 56.59375 41.109375 
Q 56.59375 39.359375 56.375 37.359375 
Q 56.15625 35.359375 55.71875 33.015625 
z
" id="DejaVuSans-Oblique-104"/>
      </defs>
      <use transform="translate(0 0.015625)" xlink:href="#DejaVuSans-Oblique-112"/>
      <use transform="translate(63.476562 0.015625)" xlink:href="#DejaVuSans-Oblique-105"/>
      <use transform="translate(91.259766 0.015625)" xlink:href="#DejaVuSans-Oblique-116"/>
      <use transform="translate(130.46875 0.015625)" xlink:href="#DejaVuSans-Oblique-99"/>
      <use transform="translate(185.449219 0.015625)" xlink:href="#DejaVuSans-Oblique-104"/>
      <use transform="translate(248.828125 0.015625)" xlink:href="#DejaVuSans-32"/>
      <use transform="translate(280.615234 0.015625)" xlink:href="#DejaVuSans-40"/>
      <use transform="translate(319.628906 0.015625)" xlink:href="#DejaVuSans-100"/>
      <use transform="translate(383.105469 0.015625)" xlink:href="#DejaVuSans-101"/>
      <use transform="translate(444.628906 0.015625)" xlink:href="#DejaVuSans-103"/>
      <use transform="translate(508.105469 0.015625)" xlink:href="#DejaVuSans-41"/>
     </g>
    </g>
   </g>
   <g id="line2d_30">
    <path clip-path="url(#pc7173f2416)" d="M 85.755682 167.099444 
L 403.169318 167.099444 
L 403.169318 167.099444 
" style="fill:none;stroke:#000000;stroke-dasharray:5.55,2.4;stroke-dashoffset:0;stroke-opacity:0.5;stroke-width:1.5;"/>
   </g>
   <g id="line2d_31">
    <path clip-path="url(#pc7173f2416)" d="M 87.880766 183.431083 
L 88.409789 248.78277 
L 88.938812 147.03723 
L 89.732346 165.695018 
L 90.261368 167.053173 
L 91.319414 167.043302 
L 91.848437 166.965409 
L 93.170993 166.886261 
L 93.964527 166.473941 
L 94.229039 166.385656 
L 94.49355 167.798544 
L 95.022573 173.711456 
L 95.816107 166.924776 
L 97.138664 166.667948 
L 98.461221 166.756498 
L 101.635357 167.261275 
L 103.751448 167.260367 
L 107.719118 167.229531 
L 107.98363 167.203224 
L 108.512652 166.915407 
L 109.041675 166.136552 
L 109.835209 164.494747 
L 110.628743 162.432434 
L 111.422277 162.056133 
L 111.9513 161.62092 
L 112.744834 161.567372 
L 114.596414 161.965588 
L 116.712505 163.154318 
L 119.62213 164.787762 
L 121.209198 165.245015 
L 123.325289 165.367165 
L 124.118823 165.321785 
L 125.705891 165.409389 
L 128.351005 165.187636 
L 130.996118 165.102602 
L 132.583187 165.193592 
L 134.434766 165.484666 
L 138.137925 166.50112 
L 140.254016 167.072435 
L 142.634618 167.216482 
L 146.8668 167.547239 
L 150.834471 168.001302 
L 155.860187 168.020551 
L 163.795527 167.858503 
L 165.118084 167.617999 
L 166.705152 167.276135 
L 175.434027 166.638281 
L 180.724255 167.014834 
L 185.749971 167.029041 
L 189.188618 167.16945 
L 192.627266 167.218993 
L 199.24005 167.110881 
L 202.943209 166.894848 
L 204.265766 166.9833 
L 206.381857 167.060715 
L 214.052687 166.906105 
L 218.54938 166.774792 
L 223.839607 166.613708 
L 229.129834 166.638048 
L 232.039459 166.733217 
L 236.00713 166.670066 
L 239.445777 166.50721 
L 243.148937 166.415857 
L 246.058562 166.309651 
L 247.64563 166.514559 
L 249.497209 166.748816 
L 252.671346 167.059203 
L 254.258414 167.021981 
L 256.374505 166.834344 
L 257.961573 166.737793 
L 265.367891 166.766964 
L 274.361277 166.511144 
L 275.419323 166.48464 
L 276.212857 166.472752 
L 277.270902 166.653686 
L 278.857971 166.770348 
L 279.651505 166.601277 
L 280.180527 166.390308 
L 280.974062 166.526501 
L 283.354664 166.647717 
L 285.470755 166.72548 
L 291.290005 166.594248 
L 293.670607 166.617585 
L 296.844743 166.536277 
L 297.902789 166.519976 
L 299.225346 166.650098 
L 301.605948 166.745326 
L 303.457527 166.851071 
L 305.83813 166.569314 
L 306.631664 166.522822 
L 307.425198 166.686493 
L 310.599334 166.679003 
L 318.534675 166.640232 
L 320.386255 166.506077 
L 322.502346 166.549413 
L 323.29588 166.463818 
L 324.618437 166.462771 
L 329.644152 166.587342 
L 331.495732 166.617566 
L 335.727914 166.655553 
L 338.637539 166.739039 
L 339.960096 166.860581 
L 343.398743 166.632758 
L 344.7213 166.570139 
L 345.514834 166.674033 
L 346.57288 167.023029 
L 347.101902 167.257311 
L 348.424459 167.07474 
L 349.217993 166.57211 
L 350.805062 166.46482 
L 352.656641 166.697977 
L 355.037243 167.089084 
L 356.624312 167.057725 
L 357.946868 166.906597 
L 359.004914 166.729727 
L 360.062959 166.9249 
L 361.121005 167.133173 
L 362.708073 166.955107 
L 363.766118 166.811539 
L 365.353187 167.179954 
L 366.411232 167.187002 
L 367.469277 166.74761 
L 368.262812 166.602919 
L 369.320857 166.754318 
L 370.378902 167.006138 
L 384.927027 167.074357 
L 389.688232 167.025191 
L 391.2753 167.06712 
L 394.978459 167.107097 
L 402.649289 167.17554 
L 402.649289 167.17554 
" style="fill:none;stroke:#4c72b0;stroke-linecap:round;stroke-opacity:0.75;stroke-width:1.5;"/>
   </g>
   <g id="patch_9">
    <path d="M 69.885 253.870047 
L 69.885 141.949953 
" style="fill:none;stroke:#ffffff;stroke-linecap:square;stroke-linejoin:miter;stroke-width:1.25;"/>
   </g>
   <g id="patch_10">
    <path d="M 419.04 253.870047 
L 419.04 141.949953 
" style="fill:none;stroke:#ffffff;stroke-linecap:square;stroke-linejoin:miter;stroke-width:1.25;"/>
   </g>
   <g id="patch_11">
    <path d="M 69.885 253.870047 
L 419.04 253.870047 
" style="fill:none;stroke:#ffffff;stroke-linecap:square;stroke-linejoin:miter;stroke-width:1.25;"/>
   </g>
   <g id="patch_12">
    <path d="M 69.885 141.949953 
L 419.04 141.949953 
" style="fill:none;stroke:#ffffff;stroke-linecap:square;stroke-linejoin:miter;stroke-width:1.25;"/>
   </g>
  </g>
  <g id="axes_3">
   <g id="patch_13">
    <path d="M 69.885 382.86 
L 419.04 382.86 
L 419.04 270.939907 
L 69.885 270.939907 
z
" style="fill:#eaeaf2;"/>
   </g>
   <g id="matplotlib.axis_5">
    <g id="xtick_15">
     <g id="line2d_32">
      <path clip-path="url(#pa71ed24bfc)" d="M 74.130407 382.86 
L 74.130407 270.939907 
" style="fill:none;stroke:#ffffff;stroke-linecap:round;"/>
     </g>
     <g id="text_14">
      <!-- 0 -->
      <g style="fill:#262626;" transform="translate(70.631032 400.718281)scale(0.11 -0.11)">
       <use xlink:href="#DejaVuSans-48"/>
      </g>
     </g>
    </g>
    <g id="xtick_16">
     <g id="line2d_33">
      <path clip-path="url(#pa71ed24bfc)" d="M 127.03268 382.86 
L 127.03268 270.939907 
" style="fill:none;stroke:#ffffff;stroke-linecap:round;"/>
     </g>
     <g id="text_15">
      <!-- 20 -->
      <g style="fill:#262626;" transform="translate(120.03393 400.718281)scale(0.11 -0.11)">
       <use xlink:href="#DejaVuSans-50"/>
       <use x="63.623047" xlink:href="#DejaVuSans-48"/>
      </g>
     </g>
    </g>
    <g id="xtick_17">
     <g id="line2d_34">
      <path clip-path="url(#pa71ed24bfc)" d="M 179.934953 382.86 
L 179.934953 270.939907 
" style="fill:none;stroke:#ffffff;stroke-linecap:round;"/>
     </g>
     <g id="text_16">
      <!-- 40 -->
      <g style="fill:#262626;" transform="translate(172.936203 400.718281)scale(0.11 -0.11)">
       <defs>
        <path d="M 37.796875 64.3125 
L 12.890625 25.390625 
L 37.796875 25.390625 
z
M 35.203125 72.90625 
L 47.609375 72.90625 
L 47.609375 25.390625 
L 58.015625 25.390625 
L 58.015625 17.1875 
L 47.609375 17.1875 
L 47.609375 0 
L 37.796875 0 
L 37.796875 17.1875 
L 4.890625 17.1875 
L 4.890625 26.703125 
z
" id="DejaVuSans-52"/>
       </defs>
       <use xlink:href="#DejaVuSans-52"/>
       <use x="63.623047" xlink:href="#DejaVuSans-48"/>
      </g>
     </g>
    </g>
    <g id="xtick_18">
     <g id="line2d_35">
      <path clip-path="url(#pa71ed24bfc)" d="M 232.837226 382.86 
L 232.837226 270.939907 
" style="fill:none;stroke:#ffffff;stroke-linecap:round;"/>
     </g>
     <g id="text_17">
      <!-- 60 -->
      <g style="fill:#262626;" transform="translate(225.838476 400.718281)scale(0.11 -0.11)">
       <defs>
        <path d="M 33.015625 40.375 
Q 26.375 40.375 22.484375 35.828125 
Q 18.609375 31.296875 18.609375 23.390625 
Q 18.609375 15.53125 22.484375 10.953125 
Q 26.375 6.390625 33.015625 6.390625 
Q 39.65625 6.390625 43.53125 10.953125 
Q 47.40625 15.53125 47.40625 23.390625 
Q 47.40625 31.296875 43.53125 35.828125 
Q 39.65625 40.375 33.015625 40.375 
z
M 52.59375 71.296875 
L 52.59375 62.3125 
Q 48.875 64.0625 45.09375 64.984375 
Q 41.3125 65.921875 37.59375 65.921875 
Q 27.828125 65.921875 22.671875 59.328125 
Q 17.53125 52.734375 16.796875 39.40625 
Q 19.671875 43.65625 24.015625 45.921875 
Q 28.375 48.1875 33.59375 48.1875 
Q 44.578125 48.1875 50.953125 41.515625 
Q 57.328125 34.859375 57.328125 23.390625 
Q 57.328125 12.15625 50.6875 5.359375 
Q 44.046875 -1.421875 33.015625 -1.421875 
Q 20.359375 -1.421875 13.671875 8.265625 
Q 6.984375 17.96875 6.984375 36.375 
Q 6.984375 53.65625 15.1875 63.9375 
Q 23.390625 74.21875 37.203125 74.21875 
Q 40.921875 74.21875 44.703125 73.484375 
Q 48.484375 72.75 52.59375 71.296875 
z
" id="DejaVuSans-54"/>
       </defs>
       <use xlink:href="#DejaVuSans-54"/>
       <use x="63.623047" xlink:href="#DejaVuSans-48"/>
      </g>
     </g>
    </g>
    <g id="xtick_19">
     <g id="line2d_36">
      <path clip-path="url(#pa71ed24bfc)" d="M 285.739498 382.86 
L 285.739498 270.939907 
" style="fill:none;stroke:#ffffff;stroke-linecap:round;"/>
     </g>
     <g id="text_18">
      <!-- 80 -->
      <g style="fill:#262626;" transform="translate(278.740748 400.718281)scale(0.11 -0.11)">
       <defs>
        <path d="M 31.78125 34.625 
Q 24.75 34.625 20.71875 30.859375 
Q 16.703125 27.09375 16.703125 20.515625 
Q 16.703125 13.921875 20.71875 10.15625 
Q 24.75 6.390625 31.78125 6.390625 
Q 38.8125 6.390625 42.859375 10.171875 
Q 46.921875 13.96875 46.921875 20.515625 
Q 46.921875 27.09375 42.890625 30.859375 
Q 38.875 34.625 31.78125 34.625 
z
M 21.921875 38.8125 
Q 15.578125 40.375 12.03125 44.71875 
Q 8.5 49.078125 8.5 55.328125 
Q 8.5 64.0625 14.71875 69.140625 
Q 20.953125 74.21875 31.78125 74.21875 
Q 42.671875 74.21875 48.875 69.140625 
Q 55.078125 64.0625 55.078125 55.328125 
Q 55.078125 49.078125 51.53125 44.71875 
Q 48 40.375 41.703125 38.8125 
Q 48.828125 37.15625 52.796875 32.3125 
Q 56.78125 27.484375 56.78125 20.515625 
Q 56.78125 9.90625 50.3125 4.234375 
Q 43.84375 -1.421875 31.78125 -1.421875 
Q 19.734375 -1.421875 13.25 4.234375 
Q 6.78125 9.90625 6.78125 20.515625 
Q 6.78125 27.484375 10.78125 32.3125 
Q 14.796875 37.15625 21.921875 38.8125 
z
M 18.3125 54.390625 
Q 18.3125 48.734375 21.84375 45.5625 
Q 25.390625 42.390625 31.78125 42.390625 
Q 38.140625 42.390625 41.71875 45.5625 
Q 45.3125 48.734375 45.3125 54.390625 
Q 45.3125 60.0625 41.71875 63.234375 
Q 38.140625 66.40625 31.78125 66.40625 
Q 25.390625 66.40625 21.84375 63.234375 
Q 18.3125 60.0625 18.3125 54.390625 
z
" id="DejaVuSans-56"/>
       </defs>
       <use xlink:href="#DejaVuSans-56"/>
       <use x="63.623047" xlink:href="#DejaVuSans-48"/>
      </g>
     </g>
    </g>
    <g id="xtick_20">
     <g id="line2d_37">
      <path clip-path="url(#pa71ed24bfc)" d="M 338.641771 382.86 
L 338.641771 270.939907 
" style="fill:none;stroke:#ffffff;stroke-linecap:round;"/>
     </g>
     <g id="text_19">
      <!-- 100 -->
      <g style="fill:#262626;" transform="translate(328.143646 400.718281)scale(0.11 -0.11)">
       <use xlink:href="#DejaVuSans-49"/>
       <use x="63.623047" xlink:href="#DejaVuSans-48"/>
       <use x="127.246094" xlink:href="#DejaVuSans-48"/>
      </g>
     </g>
    </g>
    <g id="xtick_21">
     <g id="line2d_38">
      <path clip-path="url(#pa71ed24bfc)" d="M 391.544044 382.86 
L 391.544044 270.939907 
" style="fill:none;stroke:#ffffff;stroke-linecap:round;"/>
     </g>
     <g id="text_20">
      <!-- 120 -->
      <g style="fill:#262626;" transform="translate(381.045919 400.718281)scale(0.11 -0.11)">
       <use xlink:href="#DejaVuSans-49"/>
       <use x="63.623047" xlink:href="#DejaVuSans-50"/>
       <use x="127.246094" xlink:href="#DejaVuSans-48"/>
      </g>
     </g>
    </g>
    <g id="text_21">
     <!-- $t$ (s) -->
     <g style="fill:#262626;" transform="translate(232.3425 416.124063)scale(0.12 -0.12)">
      <use transform="translate(0 0.125)" xlink:href="#DejaVuSans-Oblique-116"/>
      <use transform="translate(39.208984 0.125)" xlink:href="#DejaVuSans-32"/>
      <use transform="translate(70.996094 0.125)" xlink:href="#DejaVuSans-40"/>
      <use transform="translate(110.009766 0.125)" xlink:href="#DejaVuSans-115"/>
      <use transform="translate(162.109375 0.125)" xlink:href="#DejaVuSans-41"/>
     </g>
    </g>
   </g>
   <g id="matplotlib.axis_6">
    <g id="ytick_10">
     <g id="line2d_39">
      <path clip-path="url(#pa71ed24bfc)" d="M 69.885 355.345234 
L 419.04 355.345234 
" style="fill:none;stroke:#ffffff;stroke-linecap:round;"/>
     </g>
     <g id="text_22">
      <!-- −100 -->
      <g style="fill:#262626;" transform="translate(30.171094 359.524375)scale(0.11 -0.11)">
       <use xlink:href="#DejaVuSans-8722"/>
       <use x="83.789062" xlink:href="#DejaVuSans-49"/>
       <use x="147.412109" xlink:href="#DejaVuSans-48"/>
       <use x="211.035156" xlink:href="#DejaVuSans-48"/>
      </g>
     </g>
    </g>
    <g id="ytick_11">
     <g id="line2d_40">
      <path clip-path="url(#pa71ed24bfc)" d="M 69.885 327.004607 
L 419.04 327.004607 
" style="fill:none;stroke:#ffffff;stroke-linecap:round;"/>
     </g>
     <g id="text_23">
      <!-- 0 -->
      <g style="fill:#262626;" transform="translate(53.38625 331.183747)scale(0.11 -0.11)">
       <use xlink:href="#DejaVuSans-48"/>
      </g>
     </g>
    </g>
    <g id="ytick_12">
     <g id="line2d_41">
      <path clip-path="url(#pa71ed24bfc)" d="M 69.885 298.663979 
L 419.04 298.663979 
" style="fill:none;stroke:#ffffff;stroke-linecap:round;"/>
     </g>
     <g id="text_24">
      <!-- 100 -->
      <g style="fill:#262626;" transform="translate(39.38875 302.84312)scale(0.11 -0.11)">
       <use xlink:href="#DejaVuSans-49"/>
       <use x="63.623047" xlink:href="#DejaVuSans-48"/>
       <use x="127.246094" xlink:href="#DejaVuSans-48"/>
      </g>
     </g>
    </g>
    <g id="text_25">
     <!-- $yaw$ (deg) -->
     <g style="fill:#262626;" transform="translate(23.651094 356.959953)rotate(-90)scale(0.12 -0.12)">
      <defs>
       <path d="M 24.8125 -5.078125 
Q 18.5625 -15.578125 14.625 -18.1875 
Q 10.6875 -20.796875 4.59375 -20.796875 
L -2.484375 -20.796875 
L -0.984375 -13.28125 
L 4.203125 -13.28125 
Q 7.953125 -13.28125 10.59375 -11.234375 
Q 13.234375 -9.1875 16.5 -3.21875 
L 19.28125 2 
L 7.171875 54.6875 
L 16.703125 54.6875 
L 25.78125 12.796875 
L 50.875 54.6875 
L 60.296875 54.6875 
z
" id="DejaVuSans-Oblique-121"/>
       <path d="M 53.71875 31.203125 
L 47.609375 0 
L 38.625 0 
L 40.28125 8.296875 
Q 36.328125 3.421875 31.265625 1 
Q 26.21875 -1.421875 20.015625 -1.421875 
Q 13.03125 -1.421875 8.5625 2.84375 
Q 4.109375 7.125 4.109375 13.8125 
Q 4.109375 23.390625 11.75 28.953125 
Q 19.390625 34.515625 32.8125 34.515625 
L 45.3125 34.515625 
L 45.796875 36.921875 
Q 45.90625 37.3125 45.953125 37.765625 
Q 46 38.234375 46 39.203125 
Q 46 43.5625 42.453125 45.96875 
Q 38.921875 48.390625 32.515625 48.390625 
Q 28.125 48.390625 23.5 47.265625 
Q 18.890625 46.140625 14.015625 43.890625 
L 15.578125 52.203125 
Q 20.65625 54.109375 25.515625 55.046875 
Q 30.375 56 34.90625 56 
Q 44.578125 56 49.625 51.796875 
Q 54.6875 47.609375 54.6875 39.59375 
Q 54.6875 37.984375 54.4375 35.8125 
Q 54.203125 33.640625 53.71875 31.203125 
z
M 44 27.484375 
L 35.015625 27.484375 
Q 23.96875 27.484375 18.671875 24.53125 
Q 13.375 21.578125 13.375 15.375 
Q 13.375 11.078125 16.078125 8.640625 
Q 18.796875 6.203125 23.578125 6.203125 
Q 30.90625 6.203125 36.375 11.453125 
Q 41.84375 16.703125 43.609375 25.484375 
z
" id="DejaVuSans-Oblique-97"/>
       <path d="M 8.5 54.6875 
L 17.390625 54.6875 
L 19.671875 10.6875 
L 40.09375 54.6875 
L 50.484375 54.6875 
L 53.515625 10.6875 
L 72.90625 54.6875 
L 81.890625 54.6875 
L 56.890625 0 
L 46.390625 0 
L 43.703125 45.3125 
L 22.796875 0 
L 12.203125 0 
z
" id="DejaVuSans-Oblique-119"/>
      </defs>
      <use transform="translate(0 0.015625)" xlink:href="#DejaVuSans-Oblique-121"/>
      <use transform="translate(59.179688 0.015625)" xlink:href="#DejaVuSans-Oblique-97"/>
      <use transform="translate(120.458984 0.015625)" xlink:href="#DejaVuSans-Oblique-119"/>
      <use transform="translate(202.246094 0.015625)" xlink:href="#DejaVuSans-32"/>
      <use transform="translate(234.033203 0.015625)" xlink:href="#DejaVuSans-40"/>
      <use transform="translate(273.046875 0.015625)" xlink:href="#DejaVuSans-100"/>
      <use transform="translate(336.523438 0.015625)" xlink:href="#DejaVuSans-101"/>
      <use transform="translate(398.046875 0.015625)" xlink:href="#DejaVuSans-103"/>
      <use transform="translate(461.523438 0.015625)" xlink:href="#DejaVuSans-41"/>
     </g>
    </g>
   </g>
   <g id="line2d_42">
    <path clip-path="url(#pa71ed24bfc)" d="M 85.755682 301.498042 
L 106.387568 301.535954 
L 106.916591 301.798902 
L 107.710125 302.510449 
L 109.032682 304.143291 
L 111.413284 307.583081 
L 120.935693 322.040335 
L 124.638852 327.524451 
L 125.167875 327.762326 
L 125.696898 327.654923 
L 126.22592 327.316527 
L 127.019455 326.535937 
L 128.342011 324.850182 
L 130.987125 320.98777 
L 140.245023 307.13784 
L 141.303068 306.167577 
L 142.625625 304.505572 
L 145.006227 301.051689 
L 155.057659 285.786446 
L 161.405932 276.12448 
L 161.670443 377.74815 
L 164.051045 374.267071 
L 164.84458 373.670151 
L 165.373602 373.633116 
L 165.902625 373.874877 
L 166.696159 374.567011 
L 167.754205 375.833249 
L 169.076761 377.66944 
L 169.341273 276.027184 
L 174.102477 283.192734 
L 185.476466 300.359582 
L 186.534511 301.497139 
L 188.12158 303.638422 
L 191.824739 309.164509 
L 198.966545 319.885238 
L 199.76008 320.491886 
L 200.553614 320.823842 
L 202.405193 321.342127 
L 203.198727 322.045651 
L 204.256773 323.319487 
L 205.843841 325.328586 
L 206.637375 325.840307 
L 207.166398 326.007076 
L 207.69542 325.881049 
L 208.753466 325.426335 
L 210.076023 325.18747 
L 212.456625 325.072132 
L 220.920989 325.04964 
L 224.095125 325.087552 
L 224.624148 325.350495 
L 225.417682 326.062038 
L 226.740239 327.441537 
L 227.798284 327.681684 
L 229.649864 327.822188 
L 230.443398 327.880738 
L 230.97242 328.15194 
L 231.765955 328.871046 
L 232.559489 329.596037 
L 233.353023 329.998424 
L 234.146557 330.218589 
L 234.67558 330.164418 
L 235.204602 329.861647 
L 235.998136 329.113656 
L 237.320693 327.452912 
L 239.701295 323.999611 
L 249.752727 308.734403 
L 254.778443 301.167809 
L 255.571977 300.49697 
L 256.365511 300.129916 
L 257.423557 299.884891 
L 259.275136 299.735014 
L 263.77183 299.688009 
L 264.829875 299.725043 
L 265.358898 299.987756 
L 266.152432 300.69909 
L 267.474989 302.331766 
L 269.855591 305.77148 
L 279.378 320.013368 
L 279.907023 320.272216 
L 280.436045 320.188648 
L 281.758602 319.952353 
L 282.816648 319.962428 
L 285.461761 320.142723 
L 286.255295 320.230293 
L 286.784318 320.017531 
L 288.106875 319.061533 
L 288.635898 319.120298 
L 289.16492 319.426145 
L 289.958455 320.176922 
L 290.751989 320.919224 
L 291.545523 321.331102 
L 292.074545 321.578429 
L 292.86808 322.26609 
L 293.926125 323.529338 
L 294.98417 324.768931 
L 295.777705 325.260615 
L 296.83575 325.58884 
L 298.422818 325.775118 
L 301.067932 325.926648 
L 301.596955 326.24497 
L 302.390489 327.007193 
L 304.242068 329.021444 
L 305.035602 329.410529 
L 306.093648 329.670251 
L 307.945227 329.829119 
L 312.44192 329.878947 
L 314.822523 329.842445 
L 315.351545 329.579586 
L 316.14508 328.86815 
L 318.26117 326.630922 
L 319.054705 326.279448 
L 320.11275 326.044821 
L 321.96433 325.901308 
L 326.725534 325.856015 
L 333.338318 325.892775 
L 333.867341 326.155723 
L 334.660875 326.867261 
L 336.776966 329.104582 
L 337.5705 329.671512 
L 338.628545 330.847059 
L 340.215614 333.015899 
L 341.53817 334.746625 
L 342.331705 335.277856 
L 343.38975 335.632461 
L 344.976818 335.833711 
L 345.505841 335.944762 
L 346.034864 336.278593 
L 346.828398 337.055006 
L 348.679977 339.082197 
L 349.473511 339.473183 
L 350.531557 339.734182 
L 352.383136 339.893825 
L 353.705693 340.009229 
L 354.234716 340.330302 
L 355.02825 341.09504 
L 356.350807 342.768597 
L 358.466898 345.617223 
L 359.524943 346.565817 
L 360.8475 348.216688 
L 361.905545 349.569334 
L 362.69908 350.133671 
L 364.550659 351.045949 
L 365.608705 352.201042 
L 366.66675 353.382846 
L 367.195773 353.456915 
L 367.724795 353.239927 
L 368.51833 352.570439 
L 369.311864 351.799424 
L 370.105398 351.353879 
L 371.163443 351.056459 
L 371.956977 351.029942 
L 372.486 351.301101 
L 373.279534 352.020165 
L 375.131114 353.995014 
L 375.924648 354.37831 
L 376.982693 354.634176 
L 378.834273 354.790685 
L 383.330966 354.839774 
L 399.201648 354.803513 
L 399.73067 354.540564 
L 400.524205 353.829015 
L 401.846761 352.196174 
L 403.169318 350.322357 
L 403.169318 350.322357 
" style="fill:none;stroke:#000000;stroke-dasharray:5.55,2.4;stroke-dashoffset:0;stroke-opacity:0.5;stroke-width:1.5;"/>
   </g>
   <g id="line2d_43">
    <path clip-path="url(#pa71ed24bfc)" d="M 87.880766 301.497244 
L 88.6743 301.554735 
L 88.938812 301.696186 
L 90.261368 301.428342 
L 94.49355 301.076667 
L 95.022573 301.44423 
L 102.16438 301.588281 
L 106.396562 301.718331 
L 106.661073 301.773763 
L 107.719118 302.643189 
L 108.512652 303.544677 
L 110.099721 305.680213 
L 116.183482 314.598779 
L 124.647846 326.981008 
L 125.176868 327.275139 
L 125.970402 327.019633 
L 126.763937 326.368028 
L 127.821982 325.181896 
L 130.202584 321.918238 
L 137.344391 311.486452 
L 139.989505 307.703135 
L 142.634618 304.844083 
L 145.279732 301.122816 
L 162.208459 276.138032 
L 162.472971 377.772723 
L 164.060039 375.549787 
L 164.853573 374.995221 
L 165.382596 374.887907 
L 166.17613 375.301799 
L 167.234175 376.359891 
L 168.292221 377.702373 
L 168.556732 276.03446 
L 171.466357 280.249412 
L 185.749971 301.225136 
L 187.072527 302.791539 
L 189.188618 305.676374 
L 194.743357 313.91693 
L 198.975539 320.07403 
L 199.769073 320.703492 
L 201.09163 321.169699 
L 201.885164 321.346889 
L 202.678698 321.773272 
L 203.736743 322.856033 
L 206.117346 325.635921 
L 206.646368 325.947513 
L 207.175391 326.10224 
L 207.968925 325.897586 
L 208.762459 325.606121 
L 209.820505 325.393799 
L 211.936596 325.27845 
L 218.020357 325.228488 
L 220.400959 325.260571 
L 224.104118 325.322271 
L 224.633141 325.581139 
L 225.162164 325.999253 
L 227.013743 327.669679 
L 228.600812 327.916306 
L 230.716902 328.188418 
L 231.510437 328.754642 
L 232.568482 329.701381 
L 233.097505 330.000204 
L 234.15555 330.34441 
L 234.949084 330.153295 
L 235.742618 329.524674 
L 236.800664 328.318868 
L 239.710289 324.255801 
L 250.026232 309.028563 
L 254.522925 302.393702 
L 255.316459 301.610416 
L 255.845482 301.279027 
L 256.903527 300.877573 
L 259.28413 300.677088 
L 264.045334 300.633066 
L 264.838868 300.648962 
L 265.632402 301.138804 
L 266.690448 302.213569 
L 268.277516 304.291934 
L 273.038721 311.282575 
L 279.122482 320.207733 
L 279.386993 320.525569 
L 280.180527 320.802677 
L 280.974062 320.551075 
L 282.296618 320.416949 
L 285.735266 320.626173 
L 286.264289 320.629843 
L 286.793312 320.466569 
L 288.115868 319.628794 
L 288.644891 319.639686 
L 289.438425 320.161557 
L 291.025493 321.531274 
L 292.877073 322.7962 
L 294.19963 324.343742 
L 294.993164 325.210862 
L 295.522187 325.575449 
L 296.315721 325.929214 
L 297.902789 326.235371 
L 299.754368 326.227513 
L 301.076925 326.352415 
L 301.605948 326.678548 
L 302.399482 327.392488 
L 304.515573 329.547663 
L 305.83813 330.004884 
L 306.896175 330.130734 
L 308.483243 330.167721 
L 315.096027 330.156172 
L 316.154073 329.298666 
L 316.947607 328.376008 
L 317.741141 327.466409 
L 318.799187 326.856559 
L 319.592721 326.624108 
L 320.650766 326.464335 
L 323.29588 326.34756 
L 325.676482 326.35546 
L 326.470016 326.385227 
L 331.495732 326.510595 
L 332.289266 326.490583 
L 333.0828 326.435356 
L 333.876334 326.71914 
L 334.93438 327.736427 
L 336.785959 329.666776 
L 337.579493 330.254471 
L 338.373027 331.100917 
L 341.811675 335.345644 
L 342.869721 335.859241 
L 343.927766 336.135957 
L 345.779346 336.494464 
L 346.837391 337.475349 
L 348.688971 339.455644 
L 349.747016 339.923878 
L 351.598596 340.214473 
L 353.714687 340.303361 
L 354.772732 341.118988 
L 355.566266 342.031668 
L 357.153334 344.226019 
L 358.475891 345.891323 
L 359.269425 346.536653 
L 360.062959 347.426779 
L 362.17905 349.978781 
L 362.972584 350.441235 
L 364.295141 350.969118 
L 365.617698 352.298643 
L 366.411232 353.302988 
L 366.940255 353.62656 
L 367.733789 353.237838 
L 368.791834 352.207878 
L 369.585368 351.490224 
L 370.643414 351.102574 
L 371.701459 350.940522 
L 372.230482 351.076008 
L 373.553039 352.336971 
L 374.875596 353.860001 
L 375.933641 354.389216 
L 376.991687 354.631071 
L 379.107777 354.80793 
L 383.604471 354.810423 
L 392.862368 354.853693 
L 396.565527 354.900097 
L 399.210641 354.832006 
L 399.739664 354.537209 
L 400.268687 354.077233 
L 402.120266 352.00157 
L 402.649289 351.280896 
L 402.649289 351.280896 
" style="fill:none;stroke:#4c72b0;stroke-linecap:round;stroke-opacity:0.75;stroke-width:1.5;"/>
   </g>
   <g id="patch_14">
    <path d="M 69.885 382.86 
L 69.885 270.939907 
" style="fill:none;stroke:#ffffff;stroke-linecap:square;stroke-linejoin:miter;stroke-width:1.25;"/>
   </g>
   <g id="patch_15">
    <path d="M 419.04 382.86 
L 419.04 270.939907 
" style="fill:none;stroke:#ffffff;stroke-linecap:square;stroke-linejoin:miter;stroke-width:1.25;"/>
   </g>
   <g id="patch_16">
    <path d="M 69.885 382.86 
L 419.04 382.86 
" style="fill:none;stroke:#ffffff;stroke-linecap:square;stroke-linejoin:miter;stroke-width:1.25;"/>
   </g>
   <g id="patch_17">
    <path d="M 69.885 270.939907 
L 419.04 270.939907 
" style="fill:none;stroke:#ffffff;stroke-linecap:square;stroke-linejoin:miter;stroke-width:1.25;"/>
   </g>
  </g>
  <g id="text_26">
   <!-- euler_angle_sequence: sxyz -->
   <g style="fill:#262626;" transform="translate(0 429.84)scale(0.06 -0.06)">
    <defs>
     <path d="M 8.5 21.578125 
L 8.5 54.6875 
L 17.484375 54.6875 
L 17.484375 21.921875 
Q 17.484375 14.15625 20.5 10.265625 
Q 23.53125 6.390625 29.59375 6.390625 
Q 36.859375 6.390625 41.078125 11.03125 
Q 45.3125 15.671875 45.3125 23.6875 
L 45.3125 54.6875 
L 54.296875 54.6875 
L 54.296875 0 
L 45.3125 0 
L 45.3125 8.40625 
Q 42.046875 3.421875 37.71875 1 
Q 33.40625 -1.421875 27.6875 -1.421875 
Q 18.265625 -1.421875 13.375 4.4375 
Q 8.5 10.296875 8.5 21.578125 
z
M 31.109375 56 
z
" id="DejaVuSans-117"/>
     <path d="M 14.796875 27.296875 
Q 14.796875 17.390625 18.875 11.75 
Q 22.953125 6.109375 30.078125 6.109375 
Q 37.203125 6.109375 41.296875 11.75 
Q 45.40625 17.390625 45.40625 27.296875 
Q 45.40625 37.203125 41.296875 42.84375 
Q 37.203125 48.484375 30.078125 48.484375 
Q 22.953125 48.484375 18.875 42.84375 
Q 14.796875 37.203125 14.796875 27.296875 
z
M 45.40625 8.203125 
Q 42.578125 3.328125 38.25 0.953125 
Q 33.9375 -1.421875 27.875 -1.421875 
Q 17.96875 -1.421875 11.734375 6.484375 
Q 5.515625 14.40625 5.515625 27.296875 
Q 5.515625 40.1875 11.734375 48.09375 
Q 17.96875 56 27.875 56 
Q 33.9375 56 38.25 53.625 
Q 42.578125 51.265625 45.40625 46.390625 
L 45.40625 54.6875 
L 54.390625 54.6875 
L 54.390625 -20.796875 
L 45.40625 -20.796875 
z
" id="DejaVuSans-113"/>
     <path d="M 48.78125 52.59375 
L 48.78125 44.1875 
Q 44.96875 46.296875 41.140625 47.34375 
Q 37.3125 48.390625 33.40625 48.390625 
Q 24.65625 48.390625 19.8125 42.84375 
Q 14.984375 37.3125 14.984375 27.296875 
Q 14.984375 17.28125 19.8125 11.734375 
Q 24.65625 6.203125 33.40625 6.203125 
Q 37.3125 6.203125 41.140625 7.25 
Q 44.96875 8.296875 48.78125 10.40625 
L 48.78125 2.09375 
Q 45.015625 0.34375 40.984375 -0.53125 
Q 36.96875 -1.421875 32.421875 -1.421875 
Q 20.0625 -1.421875 12.78125 6.34375 
Q 5.515625 14.109375 5.515625 27.296875 
Q 5.515625 40.671875 12.859375 48.328125 
Q 20.21875 56 33.015625 56 
Q 37.15625 56 41.109375 55.140625 
Q 45.0625 54.296875 48.78125 52.59375 
z
" id="DejaVuSans-99"/>
     <path d="M 54.890625 54.6875 
L 35.109375 28.078125 
L 55.90625 0 
L 45.3125 0 
L 29.390625 21.484375 
L 13.484375 0 
L 2.875 0 
L 24.125 28.609375 
L 4.6875 54.6875 
L 15.28125 54.6875 
L 29.78125 35.203125 
L 44.28125 54.6875 
z
" id="DejaVuSans-120"/>
     <path d="M 32.171875 -5.078125 
Q 28.375 -14.84375 24.75 -17.8125 
Q 21.140625 -20.796875 15.09375 -20.796875 
L 7.90625 -20.796875 
L 7.90625 -13.28125 
L 13.1875 -13.28125 
Q 16.890625 -13.28125 18.9375 -11.515625 
Q 21 -9.765625 23.484375 -3.21875 
L 25.09375 0.875 
L 2.984375 54.6875 
L 12.5 54.6875 
L 29.59375 11.921875 
L 46.6875 54.6875 
L 56.203125 54.6875 
z
" id="DejaVuSans-121"/>
     <path d="M 5.515625 54.6875 
L 48.1875 54.6875 
L 48.1875 46.484375 
L 14.40625 7.171875 
L 48.1875 7.171875 
L 48.1875 0 
L 4.296875 0 
L 4.296875 8.203125 
L 38.09375 47.515625 
L 5.515625 47.515625 
z
" id="DejaVuSans-122"/>
    </defs>
    <use xlink:href="#DejaVuSans-101"/>
    <use x="61.523438" xlink:href="#DejaVuSans-117"/>
    <use x="124.902344" xlink:href="#DejaVuSans-108"/>
    <use x="152.685547" xlink:href="#DejaVuSans-101"/>
    <use x="214.208984" xlink:href="#DejaVuSans-114"/>
    <use x="255.322266" xlink:href="#DejaVuSans-95"/>
    <use x="305.322266" xlink:href="#DejaVuSans-97"/>
    <use x="366.601562" xlink:href="#DejaVuSans-110"/>
    <use x="429.980469" xlink:href="#DejaVuSans-103"/>
    <use x="493.457031" xlink:href="#DejaVuSans-108"/>
    <use x="521.240234" xlink:href="#DejaVuSans-101"/>
    <use x="582.763672" xlink:href="#DejaVuSans-95"/>
    <use x="632.763672" xlink:href="#DejaVuSans-115"/>
    <use x="684.863281" xlink:href="#DejaVuSans-101"/>
    <use x="746.386719" xlink:href="#DejaVuSans-113"/>
    <use x="809.863281" xlink:href="#DejaVuSans-117"/>
    <use x="873.242188" xlink:href="#DejaVuSans-101"/>
    <use x="934.765625" xlink:href="#DejaVuSans-110"/>
    <use x="998.144531" xlink:href="#DejaVuSans-99"/>
    <use x="1053.125" xlink:href="#DejaVuSans-101"/>
    <use x="1114.648438" xlink:href="#DejaVuSans-58"/>
    <use x="1148.339844" xlink:href="#DejaVuSans-32"/>
    <use x="1180.126953" xlink:href="#DejaVuSans-115"/>
    <use x="1232.226562" xlink:href="#DejaVuSans-120"/>
    <use x="1291.40625" xlink:href="#DejaVuSans-121"/>
    <use x="1350.585938" xlink:href="#DejaVuSans-122"/>
   </g>
  </g>
 </g>
 <defs>
  <clipPath id="p46bc82ae76">
   <rect height="111.920093" width="349.155" x="69.885" y="12.96"/>
  </clipPath>
  <clipPath id="pc7173f2416">
   <rect height="111.920093" width="349.155" x="69.885" y="141.949953"/>
  </clipPath>
  <clipPath id="pa71ed24bfc">
   <rect height="111.920093" width="349.155" x="69.885" y="270.939907"/>
  </clipPath>
 </defs>
</svg>
