<?xml version="1.0" encoding="utf-8" standalone="no"?>
<!DOCTYPE svg PUBLIC "-//W3C//DTD SVG 1.1//EN"
  "http://www.w3.org/Graphics/SVG/1.1/DTD/svg11.dtd">
<!-- Created with matplotlib (https://matplotlib.org/) -->
<svg height="432pt" version="1.1" viewBox="0 0 432 432" width="432pt" xmlns="http://www.w3.org/2000/svg" xmlns:xlink="http://www.w3.org/1999/xlink">
 <metadata>
  <rdf:RDF xmlns:cc="http://creativecommons.org/ns#" xmlns:dc="http://purl.org/dc/elements/1.1/" xmlns:rdf="http://www.w3.org/1999/02/22-rdf-syntax-ns#">
   <cc:Work>
    <dc:type rdf:resource="http://purl.org/dc/dcmitype/StillImage"/>
    <dc:date>2022-01-28T09:05:41.630031</dc:date>
    <dc:format>image/svg+xml</dc:format>
    <dc:creator>
     <cc:Agent>
      <dc:title>Matplotlib v3.3.1, https://matplotlib.org/</dc:title>
     </cc:Agent>
    </dc:creator>
   </cc:Work>
  </rdf:RDF>
 </metadata>
 <defs>
  <style type="text/css">*{stroke-linecap:butt;stroke-linejoin:round;}</style>
 </defs>
 <g id="figure_1">
  <g id="patch_1">
   <path d="M 0 432 
L 432 432 
L 432 0 
L 0 0 
z
" style="fill:#ffffff;"/>
  </g>
  <g id="axes_1">
   <g id="patch_2">
    <path d="M 52.29 382.86 
L 419.04 382.86 
L 419.04 42.072 
L 52.29 42.072 
z
" style="fill:#eaeaf2;"/>
   </g>
   <g id="matplotlib.axis_1">
    <g id="xtick_1">
     <g id="line2d_1">
      <path clip-path="url(#pfb075eb9e8)" d="M 68.960455 382.86 
L 68.960455 42.072 
" style="fill:none;stroke:#ffffff;stroke-linecap:round;"/>
     </g>
     <g id="text_1">
      <!-- 0 -->
      <g style="fill:#262626;" transform="translate(65.46108 400.718281)scale(0.11 -0.11)">
       <defs>
        <path d="M 31.78125 66.40625 
Q 24.171875 66.40625 20.328125 58.90625 
Q 16.5 51.421875 16.5 36.375 
Q 16.5 21.390625 20.328125 13.890625 
Q 24.171875 6.390625 31.78125 6.390625 
Q 39.453125 6.390625 43.28125 13.890625 
Q 47.125 21.390625 47.125 36.375 
Q 47.125 51.421875 43.28125 58.90625 
Q 39.453125 66.40625 31.78125 66.40625 
z
M 31.78125 74.21875 
Q 44.046875 74.21875 50.515625 64.515625 
Q 56.984375 54.828125 56.984375 36.375 
Q 56.984375 17.96875 50.515625 8.265625 
Q 44.046875 -1.421875 31.78125 -1.421875 
Q 19.53125 -1.421875 13.0625 8.265625 
Q 6.59375 17.96875 6.59375 36.375 
Q 6.59375 54.828125 13.0625 64.515625 
Q 19.53125 74.21875 31.78125 74.21875 
z
" id="DejaVuSans-48"/>
       </defs>
       <use xlink:href="#DejaVuSans-48"/>
      </g>
     </g>
    </g>
    <g id="xtick_2">
     <g id="line2d_2">
      <path clip-path="url(#pfb075eb9e8)" d="M 127.991809 382.86 
L 127.991809 42.072 
" style="fill:none;stroke:#ffffff;stroke-linecap:round;"/>
     </g>
     <g id="text_2">
      <!-- 50 -->
      <g style="fill:#262626;" transform="translate(120.993059 400.718281)scale(0.11 -0.11)">
       <defs>
        <path d="M 10.796875 72.90625 
L 49.515625 72.90625 
L 49.515625 64.59375 
L 19.828125 64.59375 
L 19.828125 46.734375 
Q 21.96875 47.46875 24.109375 47.828125 
Q 26.265625 48.1875 28.421875 48.1875 
Q 40.625 48.1875 47.75 41.5 
Q 54.890625 34.8125 54.890625 23.390625 
Q 54.890625 11.625 47.5625 5.09375 
Q 40.234375 -1.421875 26.90625 -1.421875 
Q 22.3125 -1.421875 17.546875 -0.640625 
Q 12.796875 0.140625 7.71875 1.703125 
L 7.71875 11.625 
Q 12.109375 9.234375 16.796875 8.0625 
Q 21.484375 6.890625 26.703125 6.890625 
Q 35.15625 6.890625 40.078125 11.328125 
Q 45.015625 15.765625 45.015625 23.390625 
Q 45.015625 31 40.078125 35.4375 
Q 35.15625 39.890625 26.703125 39.890625 
Q 22.75 39.890625 18.8125 39.015625 
Q 14.890625 38.140625 10.796875 36.28125 
z
" id="DejaVuSans-53"/>
       </defs>
       <use xlink:href="#DejaVuSans-53"/>
       <use x="63.623047" xlink:href="#DejaVuSans-48"/>
      </g>
     </g>
    </g>
    <g id="xtick_3">
     <g id="line2d_3">
      <path clip-path="url(#pfb075eb9e8)" d="M 187.023164 382.86 
L 187.023164 42.072 
" style="fill:none;stroke:#ffffff;stroke-linecap:round;"/>
     </g>
     <g id="text_3">
      <!-- 100 -->
      <g style="fill:#262626;" transform="translate(176.525039 400.718281)scale(0.11 -0.11)">
       <defs>
        <path d="M 12.40625 8.296875 
L 28.515625 8.296875 
L 28.515625 63.921875 
L 10.984375 60.40625 
L 10.984375 69.390625 
L 28.421875 72.90625 
L 38.28125 72.90625 
L 38.28125 8.296875 
L 54.390625 8.296875 
L 54.390625 0 
L 12.40625 0 
z
" id="DejaVuSans-49"/>
       </defs>
       <use xlink:href="#DejaVuSans-49"/>
       <use x="63.623047" xlink:href="#DejaVuSans-48"/>
       <use x="127.246094" xlink:href="#DejaVuSans-48"/>
      </g>
     </g>
    </g>
    <g id="xtick_4">
     <g id="line2d_4">
      <path clip-path="url(#pfb075eb9e8)" d="M 246.054518 382.86 
L 246.054518 42.072 
" style="fill:none;stroke:#ffffff;stroke-linecap:round;"/>
     </g>
     <g id="text_4">
      <!-- 150 -->
      <g style="fill:#262626;" transform="translate(235.556393 400.718281)scale(0.11 -0.11)">
       <use xlink:href="#DejaVuSans-49"/>
       <use x="63.623047" xlink:href="#DejaVuSans-53"/>
       <use x="127.246094" xlink:href="#DejaVuSans-48"/>
      </g>
     </g>
    </g>
    <g id="xtick_5">
     <g id="line2d_5">
      <path clip-path="url(#pfb075eb9e8)" d="M 305.085873 382.86 
L 305.085873 42.072 
" style="fill:none;stroke:#ffffff;stroke-linecap:round;"/>
     </g>
     <g id="text_5">
      <!-- 200 -->
      <g style="fill:#262626;" transform="translate(294.587748 400.718281)scale(0.11 -0.11)">
       <defs>
        <path d="M 19.1875 8.296875 
L 53.609375 8.296875 
L 53.609375 0 
L 7.328125 0 
L 7.328125 8.296875 
Q 12.9375 14.109375 22.625 23.890625 
Q 32.328125 33.6875 34.8125 36.53125 
Q 39.546875 41.84375 41.421875 45.53125 
Q 43.3125 49.21875 43.3125 52.78125 
Q 43.3125 58.59375 39.234375 62.25 
Q 35.15625 65.921875 28.609375 65.921875 
Q 23.96875 65.921875 18.8125 64.3125 
Q 13.671875 62.703125 7.8125 59.421875 
L 7.8125 69.390625 
Q 13.765625 71.78125 18.9375 73 
Q 24.125 74.21875 28.421875 74.21875 
Q 39.75 74.21875 46.484375 68.546875 
Q 53.21875 62.890625 53.21875 53.421875 
Q 53.21875 48.921875 51.53125 44.890625 
Q 49.859375 40.875 45.40625 35.40625 
Q 44.1875 33.984375 37.640625 27.21875 
Q 31.109375 20.453125 19.1875 8.296875 
z
" id="DejaVuSans-50"/>
       </defs>
       <use xlink:href="#DejaVuSans-50"/>
       <use x="63.623047" xlink:href="#DejaVuSans-48"/>
       <use x="127.246094" xlink:href="#DejaVuSans-48"/>
      </g>
     </g>
    </g>
    <g id="xtick_6">
     <g id="line2d_6">
      <path clip-path="url(#pfb075eb9e8)" d="M 364.117228 382.86 
L 364.117228 42.072 
" style="fill:none;stroke:#ffffff;stroke-linecap:round;"/>
     </g>
     <g id="text_6">
      <!-- 250 -->
      <g style="fill:#262626;" transform="translate(353.619103 400.718281)scale(0.11 -0.11)">
       <use xlink:href="#DejaVuSans-50"/>
       <use x="63.623047" xlink:href="#DejaVuSans-53"/>
       <use x="127.246094" xlink:href="#DejaVuSans-48"/>
      </g>
     </g>
    </g>
    <g id="text_7">
     <!-- $t$ (s) -->
     <g style="fill:#262626;" transform="translate(223.545 416.124062)scale(0.12 -0.12)">
      <defs>
       <path d="M 42.28125 54.6875 
L 40.921875 47.703125 
L 23 47.703125 
L 17.1875 18.015625 
Q 16.890625 16.359375 16.75 15.234375 
Q 16.609375 14.109375 16.609375 13.484375 
Q 16.609375 10.359375 18.484375 8.9375 
Q 20.359375 7.515625 24.515625 7.515625 
L 33.59375 7.515625 
L 32.078125 0 
L 23.484375 0 
Q 15.484375 0 11.546875 3.125 
Q 7.625 6.25 7.625 12.59375 
Q 7.625 13.71875 7.765625 15.0625 
Q 7.90625 16.40625 8.203125 18.015625 
L 14.015625 47.703125 
L 6.390625 47.703125 
L 7.8125 54.6875 
L 15.28125 54.6875 
L 18.3125 70.21875 
L 27.296875 70.21875 
L 24.3125 54.6875 
z
" id="DejaVuSans-Oblique-116"/>
       <path id="DejaVuSans-32"/>
       <path d="M 31 75.875 
Q 24.46875 64.65625 21.28125 53.65625 
Q 18.109375 42.671875 18.109375 31.390625 
Q 18.109375 20.125 21.3125 9.0625 
Q 24.515625 -2 31 -13.1875 
L 23.1875 -13.1875 
Q 15.875 -1.703125 12.234375 9.375 
Q 8.59375 20.453125 8.59375 31.390625 
Q 8.59375 42.28125 12.203125 53.3125 
Q 15.828125 64.359375 23.1875 75.875 
z
" id="DejaVuSans-40"/>
       <path d="M 44.28125 53.078125 
L 44.28125 44.578125 
Q 40.484375 46.53125 36.375 47.5 
Q 32.28125 48.484375 27.875 48.484375 
Q 21.1875 48.484375 17.84375 46.4375 
Q 14.5 44.390625 14.5 40.28125 
Q 14.5 37.15625 16.890625 35.375 
Q 19.28125 33.59375 26.515625 31.984375 
L 29.59375 31.296875 
Q 39.15625 29.25 43.1875 25.515625 
Q 47.21875 21.78125 47.21875 15.09375 
Q 47.21875 7.46875 41.1875 3.015625 
Q 35.15625 -1.421875 24.609375 -1.421875 
Q 20.21875 -1.421875 15.453125 -0.5625 
Q 10.6875 0.296875 5.421875 2 
L 5.421875 11.28125 
Q 10.40625 8.6875 15.234375 7.390625 
Q 20.0625 6.109375 24.8125 6.109375 
Q 31.15625 6.109375 34.5625 8.28125 
Q 37.984375 10.453125 37.984375 14.40625 
Q 37.984375 18.0625 35.515625 20.015625 
Q 33.0625 21.96875 24.703125 23.78125 
L 21.578125 24.515625 
Q 13.234375 26.265625 9.515625 29.90625 
Q 5.8125 33.546875 5.8125 39.890625 
Q 5.8125 47.609375 11.28125 51.796875 
Q 16.75 56 26.8125 56 
Q 31.78125 56 36.171875 55.265625 
Q 40.578125 54.546875 44.28125 53.078125 
z
" id="DejaVuSans-115"/>
       <path d="M 8.015625 75.875 
L 15.828125 75.875 
Q 23.140625 64.359375 26.78125 53.3125 
Q 30.421875 42.28125 30.421875 31.390625 
Q 30.421875 20.453125 26.78125 9.375 
Q 23.140625 -1.703125 15.828125 -13.1875 
L 8.015625 -13.1875 
Q 14.5 -2 17.703125 9.0625 
Q 20.90625 20.125 20.90625 31.390625 
Q 20.90625 42.671875 17.703125 53.65625 
Q 14.5 64.65625 8.015625 75.875 
z
" id="DejaVuSans-41"/>
      </defs>
      <use transform="translate(0 0.125)" xlink:href="#DejaVuSans-Oblique-116"/>
      <use transform="translate(39.208984 0.125)" xlink:href="#DejaVuSans-32"/>
      <use transform="translate(70.996094 0.125)" xlink:href="#DejaVuSans-40"/>
      <use transform="translate(110.009766 0.125)" xlink:href="#DejaVuSans-115"/>
      <use transform="translate(162.109375 0.125)" xlink:href="#DejaVuSans-41"/>
     </g>
    </g>
   </g>
   <g id="matplotlib.axis_2">
    <g id="ytick_1">
     <g id="line2d_7">
      <path clip-path="url(#pfb075eb9e8)" d="M 52.29 367.369636 
L 419.04 367.369636 
" style="fill:none;stroke:#ffffff;stroke-linecap:round;"/>
     </g>
     <g id="text_8">
      <!-- 0 -->
      <g style="fill:#262626;" transform="translate(35.79125 371.548777)scale(0.11 -0.11)">
       <use xlink:href="#DejaVuSans-48"/>
      </g>
     </g>
    </g>
    <g id="ytick_2">
     <g id="line2d_8">
      <path clip-path="url(#pfb075eb9e8)" d="M 52.29 322.086749 
L 419.04 322.086749 
" style="fill:none;stroke:#ffffff;stroke-linecap:round;"/>
     </g>
     <g id="text_9">
      <!-- 2 -->
      <g style="fill:#262626;" transform="translate(35.79125 326.26589)scale(0.11 -0.11)">
       <use xlink:href="#DejaVuSans-50"/>
      </g>
     </g>
    </g>
    <g id="ytick_3">
     <g id="line2d_9">
      <path clip-path="url(#pfb075eb9e8)" d="M 52.29 276.803862 
L 419.04 276.803862 
" style="fill:none;stroke:#ffffff;stroke-linecap:round;"/>
     </g>
     <g id="text_10">
      <!-- 4 -->
      <g style="fill:#262626;" transform="translate(35.79125 280.983003)scale(0.11 -0.11)">
       <defs>
        <path d="M 37.796875 64.3125 
L 12.890625 25.390625 
L 37.796875 25.390625 
z
M 35.203125 72.90625 
L 47.609375 72.90625 
L 47.609375 25.390625 
L 58.015625 25.390625 
L 58.015625 17.1875 
L 47.609375 17.1875 
L 47.609375 0 
L 37.796875 0 
L 37.796875 17.1875 
L 4.890625 17.1875 
L 4.890625 26.703125 
z
" id="DejaVuSans-52"/>
       </defs>
       <use xlink:href="#DejaVuSans-52"/>
      </g>
     </g>
    </g>
    <g id="ytick_4">
     <g id="line2d_10">
      <path clip-path="url(#pfb075eb9e8)" d="M 52.29 231.520975 
L 419.04 231.520975 
" style="fill:none;stroke:#ffffff;stroke-linecap:round;"/>
     </g>
     <g id="text_11">
      <!-- 6 -->
      <g style="fill:#262626;" transform="translate(35.79125 235.700116)scale(0.11 -0.11)">
       <defs>
        <path d="M 33.015625 40.375 
Q 26.375 40.375 22.484375 35.828125 
Q 18.609375 31.296875 18.609375 23.390625 
Q 18.609375 15.53125 22.484375 10.953125 
Q 26.375 6.390625 33.015625 6.390625 
Q 39.65625 6.390625 43.53125 10.953125 
Q 47.40625 15.53125 47.40625 23.390625 
Q 47.40625 31.296875 43.53125 35.828125 
Q 39.65625 40.375 33.015625 40.375 
z
M 52.59375 71.296875 
L 52.59375 62.3125 
Q 48.875 64.0625 45.09375 64.984375 
Q 41.3125 65.921875 37.59375 65.921875 
Q 27.828125 65.921875 22.671875 59.328125 
Q 17.53125 52.734375 16.796875 39.40625 
Q 19.671875 43.65625 24.015625 45.921875 
Q 28.375 48.1875 33.59375 48.1875 
Q 44.578125 48.1875 50.953125 41.515625 
Q 57.328125 34.859375 57.328125 23.390625 
Q 57.328125 12.15625 50.6875 5.359375 
Q 44.046875 -1.421875 33.015625 -1.421875 
Q 20.359375 -1.421875 13.671875 8.265625 
Q 6.984375 17.96875 6.984375 36.375 
Q 6.984375 53.65625 15.1875 63.9375 
Q 23.390625 74.21875 37.203125 74.21875 
Q 40.921875 74.21875 44.703125 73.484375 
Q 48.484375 72.75 52.59375 71.296875 
z
" id="DejaVuSans-54"/>
       </defs>
       <use xlink:href="#DejaVuSans-54"/>
      </g>
     </g>
    </g>
    <g id="ytick_5">
     <g id="line2d_11">
      <path clip-path="url(#pfb075eb9e8)" d="M 52.29 186.238088 
L 419.04 186.238088 
" style="fill:none;stroke:#ffffff;stroke-linecap:round;"/>
     </g>
     <g id="text_12">
      <!-- 8 -->
      <g style="fill:#262626;" transform="translate(35.79125 190.417228)scale(0.11 -0.11)">
       <defs>
        <path d="M 31.78125 34.625 
Q 24.75 34.625 20.71875 30.859375 
Q 16.703125 27.09375 16.703125 20.515625 
Q 16.703125 13.921875 20.71875 10.15625 
Q 24.75 6.390625 31.78125 6.390625 
Q 38.8125 6.390625 42.859375 10.171875 
Q 46.921875 13.96875 46.921875 20.515625 
Q 46.921875 27.09375 42.890625 30.859375 
Q 38.875 34.625 31.78125 34.625 
z
M 21.921875 38.8125 
Q 15.578125 40.375 12.03125 44.71875 
Q 8.5 49.078125 8.5 55.328125 
Q 8.5 64.0625 14.71875 69.140625 
Q 20.953125 74.21875 31.78125 74.21875 
Q 42.671875 74.21875 48.875 69.140625 
Q 55.078125 64.0625 55.078125 55.328125 
Q 55.078125 49.078125 51.53125 44.71875 
Q 48 40.375 41.703125 38.8125 
Q 48.828125 37.15625 52.796875 32.3125 
Q 56.78125 27.484375 56.78125 20.515625 
Q 56.78125 9.90625 50.3125 4.234375 
Q 43.84375 -1.421875 31.78125 -1.421875 
Q 19.734375 -1.421875 13.25 4.234375 
Q 6.78125 9.90625 6.78125 20.515625 
Q 6.78125 27.484375 10.78125 32.3125 
Q 14.796875 37.15625 21.921875 38.8125 
z
M 18.3125 54.390625 
Q 18.3125 48.734375 21.84375 45.5625 
Q 25.390625 42.390625 31.78125 42.390625 
Q 38.140625 42.390625 41.71875 45.5625 
Q 45.3125 48.734375 45.3125 54.390625 
Q 45.3125 60.0625 41.71875 63.234375 
Q 38.140625 66.40625 31.78125 66.40625 
Q 25.390625 66.40625 21.84375 63.234375 
Q 18.3125 60.0625 18.3125 54.390625 
z
" id="DejaVuSans-56"/>
       </defs>
       <use xlink:href="#DejaVuSans-56"/>
      </g>
     </g>
    </g>
    <g id="ytick_6">
     <g id="line2d_12">
      <path clip-path="url(#pfb075eb9e8)" d="M 52.29 140.955201 
L 419.04 140.955201 
" style="fill:none;stroke:#ffffff;stroke-linecap:round;"/>
     </g>
     <g id="text_13">
      <!-- 10 -->
      <g style="fill:#262626;" transform="translate(28.7925 145.134341)scale(0.11 -0.11)">
       <use xlink:href="#DejaVuSans-49"/>
       <use x="63.623047" xlink:href="#DejaVuSans-48"/>
      </g>
     </g>
    </g>
    <g id="ytick_7">
     <g id="line2d_13">
      <path clip-path="url(#pfb075eb9e8)" d="M 52.29 95.672314 
L 419.04 95.672314 
" style="fill:none;stroke:#ffffff;stroke-linecap:round;"/>
     </g>
     <g id="text_14">
      <!-- 12 -->
      <g style="fill:#262626;" transform="translate(28.7925 99.851454)scale(0.11 -0.11)">
       <use xlink:href="#DejaVuSans-49"/>
       <use x="63.623047" xlink:href="#DejaVuSans-50"/>
      </g>
     </g>
    </g>
    <g id="ytick_8">
     <g id="line2d_14">
      <path clip-path="url(#pfb075eb9e8)" d="M 52.29 50.389426 
L 419.04 50.389426 
" style="fill:none;stroke:#ffffff;stroke-linecap:round;"/>
     </g>
     <g id="text_15">
      <!-- 14 -->
      <g style="fill:#262626;" transform="translate(28.7925 54.568567)scale(0.11 -0.11)">
       <use xlink:href="#DejaVuSans-49"/>
       <use x="63.623047" xlink:href="#DejaVuSans-52"/>
      </g>
     </g>
    </g>
    <g id="text_16">
     <!-- APE (m) -->
     <g style="fill:#262626;" transform="translate(22.296875 236.412563)rotate(-90)scale(0.12 -0.12)">
      <defs>
       <path d="M 34.1875 63.1875 
L 20.796875 26.90625 
L 47.609375 26.90625 
z
M 28.609375 72.90625 
L 39.796875 72.90625 
L 67.578125 0 
L 57.328125 0 
L 50.6875 18.703125 
L 17.828125 18.703125 
L 11.1875 0 
L 0.78125 0 
z
" id="DejaVuSans-65"/>
       <path d="M 19.671875 64.796875 
L 19.671875 37.40625 
L 32.078125 37.40625 
Q 38.96875 37.40625 42.71875 40.96875 
Q 46.484375 44.53125 46.484375 51.125 
Q 46.484375 57.671875 42.71875 61.234375 
Q 38.96875 64.796875 32.078125 64.796875 
z
M 9.8125 72.90625 
L 32.078125 72.90625 
Q 44.34375 72.90625 50.609375 67.359375 
Q 56.890625 61.8125 56.890625 51.125 
Q 56.890625 40.328125 50.609375 34.8125 
Q 44.34375 29.296875 32.078125 29.296875 
L 19.671875 29.296875 
L 19.671875 0 
L 9.8125 0 
z
" id="DejaVuSans-80"/>
       <path d="M 9.8125 72.90625 
L 55.90625 72.90625 
L 55.90625 64.59375 
L 19.671875 64.59375 
L 19.671875 43.015625 
L 54.390625 43.015625 
L 54.390625 34.71875 
L 19.671875 34.71875 
L 19.671875 8.296875 
L 56.78125 8.296875 
L 56.78125 0 
L 9.8125 0 
z
" id="DejaVuSans-69"/>
       <path d="M 52 44.1875 
Q 55.375 50.25 60.0625 53.125 
Q 64.75 56 71.09375 56 
Q 79.640625 56 84.28125 50.015625 
Q 88.921875 44.046875 88.921875 33.015625 
L 88.921875 0 
L 79.890625 0 
L 79.890625 32.71875 
Q 79.890625 40.578125 77.09375 44.375 
Q 74.3125 48.1875 68.609375 48.1875 
Q 61.625 48.1875 57.5625 43.546875 
Q 53.515625 38.921875 53.515625 30.90625 
L 53.515625 0 
L 44.484375 0 
L 44.484375 32.71875 
Q 44.484375 40.625 41.703125 44.40625 
Q 38.921875 48.1875 33.109375 48.1875 
Q 26.21875 48.1875 22.15625 43.53125 
Q 18.109375 38.875 18.109375 30.90625 
L 18.109375 0 
L 9.078125 0 
L 9.078125 54.6875 
L 18.109375 54.6875 
L 18.109375 46.1875 
Q 21.1875 51.21875 25.484375 53.609375 
Q 29.78125 56 35.6875 56 
Q 41.65625 56 45.828125 52.96875 
Q 50 49.953125 52 44.1875 
z
" id="DejaVuSans-109"/>
      </defs>
      <use xlink:href="#DejaVuSans-65"/>
      <use x="68.408203" xlink:href="#DejaVuSans-80"/>
      <use x="128.710938" xlink:href="#DejaVuSans-69"/>
      <use x="191.894531" xlink:href="#DejaVuSans-32"/>
      <use x="223.681641" xlink:href="#DejaVuSans-40"/>
      <use x="262.695312" xlink:href="#DejaVuSans-109"/>
      <use x="360.107422" xlink:href="#DejaVuSans-41"/>
     </g>
    </g>
   </g>
   <g id="patch_3">
    <path clip-path="url(#pfb075eb9e8)" d="M 52.29 310.778039 
L 52.29 238.119065 
L 419.04 238.119065 
L 419.04 310.778039 
z
" style="fill:#8172b3;opacity:0.5;stroke:#8172b3;stroke-linejoin:miter;"/>
   </g>
   <g id="line2d_15">
    <path clip-path="url(#pfb075eb9e8)" d="M 68.960455 367.369636 
L 69.314643 366.553045 
L 69.786894 362.375006 
L 70.259144 364.951895 
L 70.49527 366.092527 
L 70.967521 367.010024 
L 71.439771 366.947641 
L 72.502336 366.645272 
L 73.446837 366.479731 
L 73.919088 366.51472 
L 74.273276 366.311673 
L 74.981653 366.289238 
L 75.217778 366.255894 
L 75.926154 366.030393 
L 77.342907 365.290948 
L 77.697095 365.015363 
L 79.113848 364.806336 
L 79.940287 365.081787 
L 80.294475 365.320307 
L 80.884788 365.70545 
L 81.238976 364.840917 
L 81.593164 364.51276 
L 81.82929 364.493241 
L 82.419603 364.76681 
L 83.009917 364.954801 
L 84.544732 365.037982 
L 86.079547 365.214452 
L 87.614363 365.330949 
L 88.676927 365.495993 
L 89.503366 365.737498 
L 92.336871 366.264357 
L 92.572996 366.067118 
L 92.927185 365.681941 
L 93.989749 363.591891 
L 94.462 363.132406 
L 94.698125 363.218182 
L 95.052313 362.705577 
L 95.288439 362.946321 
L 95.996815 362.090579 
L 96.23294 361.777235 
L 97.177442 360.402372 
L 97.53163 360.092151 
L 98.358069 359.526678 
L 100.12901 359.375803 
L 100.365135 359.25663 
L 101.309637 359.679311 
L 102.018013 360.293405 
L 102.490264 359.550805 
L 102.608327 359.293909 
L 102.962515 360.024718 
L 103.316703 359.856123 
L 103.434766 359.862337 
L 103.670891 360.22598 
L 104.025079 360.772572 
L 104.261205 360.920857 
L 104.379267 360.92724 
L 104.733455 361.29469 
L 105.087644 361.422035 
L 105.323769 361.368642 
L 105.559894 361.150964 
L 105.914083 360.461994 
L 106.150208 360.68373 
L 106.740522 362.341633 
L 107.803086 364.20565 
L 108.747588 366.178954 
L 108.983713 366.198182 
L 109.219838 365.932773 
L 112.879782 359.22686 
L 113.233971 358.328376 
L 114.650723 353.254989 
L 116.775852 345.958555 
L 117.838416 343.57087 
L 117.956479 343.385551 
L 118.782918 346.253833 
L 119.72742 347.928194 
L 120.19967 348.822266 
L 120.789984 349.679184 
L 120.908047 349.952545 
L 121.144172 349.934754 
L 121.380297 350.553753 
L 121.616423 350.973588 
L 122.088674 350.890618 
L 122.678987 351.981059 
L 123.623489 355.147334 
L 123.859614 355.379313 
L 124.213802 356.086837 
L 124.449928 355.981225 
L 124.686053 356.2744 
L 124.804116 356.217386 
L 125.040241 355.594178 
L 125.276367 355.706197 
L 125.512492 355.14707 
L 125.748618 354.666302 
L 125.984743 354.352164 
L 126.811182 352.393508 
L 127.873746 350.870043 
L 129.172436 350.087966 
L 130.235001 348.683032 
L 130.825314 348.23396 
L 131.179502 347.608609 
L 131.53369 346.622453 
L 132.124004 347.489442 
L 132.596255 349.020769 
L 132.83238 349.569844 
L 133.422694 350.126525 
L 134.013007 351.217378 
L 134.603321 352.417535 
L 135.075572 353.030164 
L 135.42976 352.668548 
L 135.665885 352.217187 
L 136.256199 354.526882 
L 136.846512 357.687845 
L 137.318763 358.529987 
L 137.436826 358.669158 
L 138.145202 358.466159 
L 138.381328 358.638833 
L 138.735516 359.38903 
L 138.971641 359.973615 
L 139.207767 360.184311 
L 139.79808 359.960821 
L 140.152268 359.952397 
L 140.388394 359.715545 
L 141.450958 364.510107 
L 142.159334 363.543648 
L 142.513522 363.204686 
L 142.985773 362.775065 
L 143.458024 362.329264 
L 145.701216 359.028559 
L 146.291529 356.490504 
L 146.645717 357.187874 
L 146.881843 357.057738 
L 147.708282 358.582066 
L 147.944407 359.118859 
L 148.416658 360.159485 
L 149.36116 361.948757 
L 150.423724 363.237664 
L 150.895975 363.04721 
L 151.368226 362.759576 
L 152.194665 362.047506 
L 153.021104 360.243345 
L 153.375292 359.483342 
L 154.555919 356.918105 
L 155.02817 356.136872 
L 155.50042 354.969906 
L 156.681048 351.555907 
L 157.389424 349.910588 
L 157.861675 349.150509 
L 159.042302 347.952245 
L 159.750678 346.474411 
L 160.577117 344.851048 
L 160.813242 344.487374 
L 161.521619 342.535956 
L 162.820308 338.628919 
L 164.709312 333.949839 
L 165.417688 331.42911 
L 166.598315 326.788961 
L 166.952503 326.055722 
L 167.306691 326.128205 
L 167.660879 325.539247 
L 168.13313 324.260671 
L 169.195695 319.693187 
L 169.904071 315.765483 
L 170.258259 312.856608 
L 170.966635 311.234483 
L 172.0292 307.820162 
L 173.32789 304.769409 
L 173.682078 303.859901 
L 174.626579 301.232447 
L 175.334956 299.724883 
L 176.633645 297.015063 
L 177.69621 296.970418 
L 178.286523 297.105457 
L 178.640711 296.674975 
L 179.112962 296.095721 
L 179.46715 295.907851 
L 179.939401 295.837145 
L 180.411652 295.359665 
L 180.76584 295.116068 
L 181.120028 295.277046 
L 181.356154 295.150335 
L 181.592279 294.791799 
L 181.946467 293.668764 
L 182.300655 293.342803 
L 182.536781 293.30176 
L 183.009032 293.400071 
L 183.36322 293.396663 
L 183.599345 293.660587 
L 183.717408 293.61412 
L 183.953533 293.165452 
L 184.425784 293.701378 
L 184.543847 293.752894 
L 185.370286 292.871013 
L 185.606411 293.323093 
L 185.724474 293.563679 
L 186.196725 293.002941 
L 186.905101 292.978172 
L 187.73154 290.589511 
L 187.849603 290.486727 
L 188.203791 290.5829 
L 188.439916 290.476523 
L 188.676042 291.918938 
L 189.266355 292.101025 
L 189.620543 291.249635 
L 189.856669 291.084156 
L 190.210857 292.743315 
L 190.446982 293.043019 
L 190.683108 292.890316 
L 190.919233 292.275486 
L 191.037296 291.869715 
L 191.273421 292.201967 
L 191.509547 294.505054 
L 191.627609 295.944987 
L 192.09986 285.717794 
L 192.335986 284.637668 
L 192.572111 284.372354 
L 193.162425 283.441141 
L 193.39855 283.287877 
L 193.752738 279.722942 
L 194.106926 274.902652 
L 194.224989 274.786154 
L 194.461114 273.947148 
L 194.815303 272.475566 
L 194.933365 272.289671 
L 195.169491 272.473245 
L 195.405616 273.361551 
L 195.523679 272.928869 
L 196.113992 267.344864 
L 196.940431 262.62374 
L 197.76687 259.025856 
L 198.711372 254.653749 
L 199.301686 255.630186 
L 200.246187 252.470621 
L 200.954563 250.497826 
L 201.426814 248.854537 
L 201.66294 248.312622 
L 202.135191 246.153842 
L 202.96163 243.229993 
L 203.43388 241.280317 
L 204.496445 237.645108 
L 204.850633 236.495622 
L 205.440946 234.430036 
L 205.559009 234.277816 
L 205.795135 232.936213 
L 206.267385 232.874174 
L 206.739636 228.153556 
L 207.32995 226.089244 
L 207.684138 225.281092 
L 207.920263 224.966769 
L 208.274451 224.388304 
L 208.746702 224.480487 
L 209.10089 223.764352 
L 209.573141 223.66393 
L 209.809267 223.06741 
L 210.045392 222.509548 
L 210.281518 222.761719 
L 210.871831 215.737276 
L 211.226019 214.850113 
L 211.462145 214.794669 
L 211.816333 215.082908 
L 212.052458 215.033962 
L 212.524709 214.170074 
L 212.642772 213.969116 
L 212.878897 214.261241 
L 212.99696 213.558601 
L 213.587273 206.74343 
L 214.059524 204.465095 
L 215.358214 200.152149 
L 215.948528 198.736027 
L 216.538841 198.824377 
L 216.893029 199.193055 
L 217.129155 198.793115 
L 218.309782 191.664951 
L 218.66397 193.066101 
L 218.900095 192.126503 
L 219.254283 192.4985 
L 219.726534 192.359958 
L 219.844597 191.45034 
L 220.080722 187.882976 
L 220.434911 189.279576 
L 221.025224 187.007312 
L 221.261349 188.062727 
L 221.497475 187.735399 
L 221.615538 187.782925 
L 221.851663 188.302659 
L 222.678102 178.929073 
L 222.914227 178.268633 
L 223.150353 177.620685 
L 223.622604 176.223318 
L 223.740666 176.397358 
L 223.976792 177.17499 
L 224.212917 176.497153 
L 224.567105 182.209566 
L 224.803231 181.892971 
L 225.039356 182.507887 
L 225.157419 182.52403 
L 225.393544 181.926315 
L 225.747732 183.516189 
L 225.983858 183.486724 
L 226.219983 184.271711 
L 226.456109 186.701171 
L 226.574171 188.163521 
L 226.92836 187.805402 
L 227.164485 188.215368 
L 227.518673 189.746065 
L 227.754798 189.786222 
L 228.108987 190.634662 
L 228.6993 191.3821 
L 229.053488 192.071477 
L 229.289614 192.824821 
L 229.643802 194.145938 
L 229.99799 194.438414 
L 230.116053 194.488054 
L 230.588304 192.485651 
L 230.824429 190.649768 
L 231.060554 187.755994 
L 231.29668 183.234024 
L 231.650868 184.39938 
L 231.886993 184.422377 
L 232.123119 184.664088 
L 232.359244 185.473618 
L 232.831495 187.096907 
L 233.894059 190.984292 
L 235.901125 201.074093 
L 236.373376 204.398801 
L 237.081753 209.544619 
L 238.380442 217.468251 
L 238.852693 220.979136 
L 239.088819 222.598241 
L 239.324944 224.320146 
L 239.679132 225.068656 
L 239.797195 225.141729 
L 240.03332 226.680247 
L 240.269446 227.765982 
L 240.387508 227.861047 
L 240.623634 229.851899 
L 240.741696 231.152594 
L 240.977822 229.820845 
L 241.095885 230.114464 
L 241.33201 232.6369 
L 241.686198 231.898745 
L 241.922324 232.01037 
L 242.276512 231.516679 
L 242.748763 231.932882 
L 242.984888 231.820646 
L 243.339076 231.579153 
L 243.693264 231.325505 
L 244.047452 230.805982 
L 244.283578 230.842206 
L 244.519703 230.75203 
L 244.755829 229.718704 
L 244.873891 229.055265 
L 245.110017 229.957667 
L 245.228079 229.688916 
L 245.464205 227.931757 
L 245.818393 232.171046 
L 246.054518 233.088239 
L 246.526769 237.286565 
L 248.179647 244.663997 
L 248.415773 245.05696 
L 248.888023 248.208911 
L 249.714462 254.485531 
L 252.193779 268.003404 
L 252.902156 269.708952 
L 253.610532 274.003388 
L 253.846657 275.305049 
L 254.200845 276.93681 
L 254.436971 277.530664 
L 254.555033 277.784885 
L 254.791159 279.418614 
L 254.909222 280.488731 
L 255.145347 280.247196 
L 255.26341 280.815464 
L 255.853723 285.896773 
L 256.444037 289.152856 
L 257.03435 292.18928 
L 259.513667 303.097991 
L 263.291674 323.308345 
L 264.236176 327.594353 
L 264.472301 328.131117 
L 264.944552 328.580404 
L 265.062615 328.594382 
L 265.180677 328.490189 
L 265.29874 328.563431 
L 265.770991 329.363146 
L 265.889054 329.36339 
L 266.243242 329.051776 
L 266.479367 328.949506 
L 266.715493 328.816541 
L 266.951618 328.899517 
L 267.069681 328.688539 
L 267.423869 326.790823 
L 267.659994 325.407501 
L 268.014182 324.53425 
L 268.604496 322.111566 
L 268.840621 321.089191 
L 269.076747 321.031363 
L 269.548998 319.976487 
L 269.903186 318.623582 
L 270.375437 317.409926 
L 270.729625 316.877979 
L 270.847687 316.869732 
L 271.319938 315.710069 
L 271.556064 314.645771 
L 271.910252 313.154156 
L 273.090879 308.810489 
L 274.743757 301.62858 
L 276.160509 293.903364 
L 277.105011 290.455753 
L 277.459199 290.534472 
L 277.813387 290.696478 
L 278.049513 290.604392 
L 278.285638 290.330733 
L 278.994014 289.104884 
L 279.348202 288.610237 
L 279.584328 288.603645 
L 279.938516 288.655152 
L 280.056579 288.300749 
L 280.52883 286.096388 
L 282.417833 282.034194 
L 282.772021 281.525055 
L 283.126209 281.032883 
L 283.244272 280.930902 
L 283.952648 277.789908 
L 285.369401 272.352328 
L 286.077777 270.514688 
L 286.550028 270.358827 
L 286.786153 270.616608 
L 287.730655 268.93453 
L 288.793219 261.4001 
L 289.029345 261.073049 
L 289.147407 261.018104 
L 289.619658 257.377836 
L 289.855784 256.740317 
L 289.973846 256.599031 
L 290.091909 256.680087 
L 290.328034 257.263921 
L 291.036411 253.896303 
L 291.508661 253.938937 
L 291.744787 253.450048 
L 291.86285 253.440615 
L 292.098975 253.882168 
L 292.453163 255.007204 
L 292.689289 254.888207 
L 293.043477 256.293069 
L 293.515728 258.609325 
L 293.63379 258.71941 
L 293.869916 258.321176 
L 294.342166 260.553094 
L 294.696355 262.260769 
L 294.93248 262.579746 
L 295.168605 262.718939 
L 295.286668 262.81713 
L 295.522794 263.980402 
L 295.758919 266.075736 
L 296.23117 270.558741 
L 297.175672 277.149305 
L 298.356299 285.115195 
L 298.592424 285.021219 
L 298.946612 286.703794 
L 299.182738 287.040671 
L 299.536926 288.838736 
L 299.773051 289.106804 
L 300.009177 288.829617 
L 300.245302 287.851547 
L 300.363365 287.220417 
L 300.835616 289.533063 
L 301.662054 291.378772 
L 302.252368 291.574606 
L 302.724619 291.407226 
L 303.078807 291.602223 
L 303.314932 291.535699 
L 303.551058 292.139716 
L 303.787183 293.981421 
L 303.905246 295.080004 
L 304.495559 293.641238 
L 304.849748 293.249283 
L 305.085873 293.375652 
L 305.440061 292.530262 
L 306.030375 289.909267 
L 306.2665 289.615256 
L 306.738751 286.222326 
L 306.974876 285.439397 
L 307.211002 284.748188 
L 309.100005 274.036531 
L 309.454193 272.257014 
L 309.808381 271.335309 
L 310.752883 270.168704 
L 311.107071 270.492159 
L 311.225134 270.487349 
L 311.461259 270.074674 
L 311.579322 269.817283 
L 311.93351 271.503879 
L 312.169636 270.4322 
L 312.523824 271.241379 
L 313.704451 276.325572 
L 314.176702 278.905664 
L 314.648952 281.365694 
L 314.885078 282.274144 
L 315.947642 289.016257 
L 316.774081 294.229194 
L 318.781147 306.335112 
L 319.607586 310.357412 
L 321.260464 315.826843 
L 321.732715 316.499051 
L 322.795279 316.147279 
L 323.385593 315.422718 
L 324.212032 313.737194 
L 324.920408 311.352073 
L 325.510722 308.07713 
L 326.219098 304.50076 
L 327.045537 299.737057 
L 327.871976 295.999039 
L 328.226164 294.859647 
L 329.760979 287.815467 
L 330.469356 283.686328 
L 330.823544 282.837426 
L 333.538986 265.888654 
L 335.191864 255.106454 
L 336.136366 250.477962 
L 336.962805 245.434716 
L 338.49762 235.461121 
L 339.560184 227.843499 
L 341.449187 211.390203 
L 342.984003 192.458917 
L 343.810442 182.834863 
L 344.046567 179.419075 
L 344.282693 179.993279 
L 344.400755 179.789452 
L 345.227194 175.074573 
L 345.581382 177.012764 
L 345.817508 176.781519 
L 346.053633 174.994924 
L 346.171696 175.0281 
L 346.762009 179.047609 
L 347.116198 180.37625 
L 347.352323 180.457193 
L 347.588448 180.349003 
L 347.942636 177.901899 
L 348.178762 177.294428 
L 348.53295 177.377302 
L 348.769075 177.116861 
L 349.123264 174.727352 
L 349.595514 175.386106 
L 349.713577 175.167491 
L 351.012267 168.633459 
L 352.192894 162.078934 
L 352.429019 161.071209 
L 352.783208 159.840116 
L 353.491584 158.817833 
L 353.963835 157.281263 
L 354.081897 157.032112 
L 354.436086 157.790926 
L 354.790274 159.415514 
L 355.734775 164.897582 
L 356.325089 167.284389 
L 356.443152 167.716893 
L 356.679277 167.466983 
L 356.79734 167.693101 
L 357.505716 170.563004 
L 357.741841 170.593255 
L 357.977967 170.561123 
L 358.214092 170.884904 
L 358.56828 173.624009 
L 358.804406 172.218477 
L 359.276657 174.991213 
L 359.394719 175.875154 
L 359.630845 175.419791 
L 359.748907 175.771359 
L 360.457284 180.410207 
L 360.811472 182.891764 
L 361.047597 185.312145 
L 361.637911 178.523011 
L 361.992099 180.263562 
L 363.054663 190.459494 
L 363.172726 191.032702 
L 363.408851 191.041061 
L 363.644977 190.713389 
L 363.881102 189.615317 
L 364.117228 187.724099 
L 364.471416 184.857585 
L 364.707541 183.787353 
L 365.297855 181.861137 
L 365.652043 180.113051 
L 367.068795 172.102084 
L 367.304921 171.84022 
L 367.659109 171.098823 
L 367.777172 170.936172 
L 368.013297 169.580686 
L 368.249422 168.305086 
L 368.367485 167.87525 
L 368.485548 168.144798 
L 368.839736 171.762651 
L 369.075861 174.551212 
L 369.43005 175.724599 
L 369.666175 175.808438 
L 370.256489 175.208929 
L 370.492614 174.368172 
L 370.846802 174.653479 
L 371.20099 175.198036 
L 371.319053 175.279246 
L 371.555178 177.502251 
L 371.673241 178.958973 
L 372.027429 174.344796 
L 372.263555 174.202092 
L 372.49968 175.687892 
L 372.617743 175.643917 
L 373.444182 169.698284 
L 373.79837 170.174353 
L 374.270621 171.658839 
L 374.624809 174.585649 
L 374.978997 172.821636 
L 375.215122 172.839822 
L 375.451248 173.272062 
L 375.687373 174.864686 
L 375.805436 175.842267 
L 376.159624 172.317527 
L 376.395749 172.077615 
L 376.749938 173.449612 
L 376.986063 172.369017 
L 377.222188 172.380663 
L 377.340251 172.115329 
L 377.694439 170.935515 
L 378.16669 170.627264 
L 378.520878 171.173653 
L 378.757004 171.073172 
L 379.347317 174.165312 
L 379.583443 174.402839 
L 379.819568 175.541562 
L 379.937631 176.283362 
L 380.173756 175.66295 
L 380.291819 175.961015 
L 380.882132 179.849102 
L 381.118258 179.913496 
L 381.472446 178.67605 
L 381.708571 179.171674 
L 382.062759 181.388133 
L 382.298885 180.537086 
L 382.889198 181.356976 
L 383.479512 184.495476 
L 383.951763 182.61137 
L 384.424014 180.50778 
L 384.660139 181.207061 
L 384.896264 179.596353 
L 385.014327 179.560058 
L 385.250453 180.970284 
L 385.722703 179.54224 
L 385.840766 179.102854 
L 386.076892 179.209279 
L 386.194954 178.888333 
L 386.43108 177.501162 
L 386.785268 178.871257 
L 387.021393 178.119245 
L 387.375581 175.956969 
L 387.611707 176.824344 
L 387.965895 174.536584 
L 388.20202 171.983014 
L 388.320083 172.880547 
L 388.556208 177.019553 
L 389.146522 171.975172 
L 389.264585 172.1621 
L 389.50071 172.684811 
L 389.618773 173.020781 
L 389.736836 172.625444 
L 389.972961 170.380421 
L 390.327149 161.520386 
L 390.563275 159.640438 
L 390.917463 155.095896 
L 391.743902 159.434192 
L 391.861964 159.243119 
L 391.980027 159.048239 
L 392.216152 157.703972 
L 392.570341 155.944434 
L 392.924529 154.796195 
L 393.39678 151.230142 
L 393.750968 148.861228 
L 394.931595 139.18714 
L 395.285783 132.725509 
L 395.876096 120.814427 
L 396.230285 116.315874 
L 396.46641 115.431684 
L 396.820598 120.694928 
L 397.056724 121.542993 
L 397.292849 120.512382 
L 397.528974 117.776704 
L 398.119288 108.703588 
L 398.355413 105.067605 
L 400.480542 85.321624 
L 400.952793 82.017705 
L 402.369545 57.562364 
L 402.369545 57.562364 
" style="fill:none;stroke:#808080;stroke-linecap:round;stroke-width:1.5;"/>
   </g>
   <g id="line2d_16">
    <path clip-path="url(#pfb075eb9e8)" d="M 52.29 249.413482 
L 419.04 249.413482 
" style="fill:none;stroke:#4c72b0;stroke-linecap:round;stroke-width:2;"/>
   </g>
   <g id="line2d_17">
    <path clip-path="url(#pfb075eb9e8)" d="M 52.29 288.566465 
L 419.04 288.566465 
" style="fill:none;stroke:#55a868;stroke-linecap:round;stroke-width:2;"/>
   </g>
   <g id="line2d_18">
    <path clip-path="url(#pfb075eb9e8)" d="M 52.29 274.448552 
L 419.04 274.448552 
" style="fill:none;stroke:#c44e52;stroke-linecap:round;stroke-width:2;"/>
   </g>
   <g id="patch_4">
    <path d="M 52.29 382.86 
L 52.29 42.072 
" style="fill:none;stroke:#ffffff;stroke-linecap:square;stroke-linejoin:miter;stroke-width:1.25;"/>
   </g>
   <g id="patch_5">
    <path d="M 419.04 382.86 
L 419.04 42.072 
" style="fill:none;stroke:#ffffff;stroke-linecap:square;stroke-linejoin:miter;stroke-width:1.25;"/>
   </g>
   <g id="patch_6">
    <path d="M 52.29 382.86 
L 419.04 382.86 
" style="fill:none;stroke:#ffffff;stroke-linecap:square;stroke-linejoin:miter;stroke-width:1.25;"/>
   </g>
   <g id="patch_7">
    <path d="M 52.29 42.072 
L 419.04 42.072 
" style="fill:none;stroke:#ffffff;stroke-linecap:square;stroke-linejoin:miter;stroke-width:1.25;"/>
   </g>
   <g id="text_17">
    <!-- APE w.r.t. translation part (m) -->
    <g style="fill:#262626;" transform="translate(147.081562 22.634625)scale(0.12 -0.12)">
     <defs>
      <path d="M 4.203125 54.6875 
L 13.1875 54.6875 
L 24.421875 12.015625 
L 35.59375 54.6875 
L 46.1875 54.6875 
L 57.421875 12.015625 
L 68.609375 54.6875 
L 77.59375 54.6875 
L 63.28125 0 
L 52.6875 0 
L 40.921875 44.828125 
L 29.109375 0 
L 18.5 0 
z
" id="DejaVuSans-119"/>
      <path d="M 10.6875 12.40625 
L 21 12.40625 
L 21 0 
L 10.6875 0 
z
" id="DejaVuSans-46"/>
      <path d="M 41.109375 46.296875 
Q 39.59375 47.171875 37.8125 47.578125 
Q 36.03125 48 33.890625 48 
Q 26.265625 48 22.1875 43.046875 
Q 18.109375 38.09375 18.109375 28.8125 
L 18.109375 0 
L 9.078125 0 
L 9.078125 54.6875 
L 18.109375 54.6875 
L 18.109375 46.1875 
Q 20.953125 51.171875 25.484375 53.578125 
Q 30.03125 56 36.53125 56 
Q 37.453125 56 38.578125 55.875 
Q 39.703125 55.765625 41.0625 55.515625 
z
" id="DejaVuSans-114"/>
      <path d="M 18.3125 70.21875 
L 18.3125 54.6875 
L 36.8125 54.6875 
L 36.8125 47.703125 
L 18.3125 47.703125 
L 18.3125 18.015625 
Q 18.3125 11.328125 20.140625 9.421875 
Q 21.96875 7.515625 27.59375 7.515625 
L 36.8125 7.515625 
L 36.8125 0 
L 27.59375 0 
Q 17.1875 0 13.234375 3.875 
Q 9.28125 7.765625 9.28125 18.015625 
L 9.28125 47.703125 
L 2.6875 47.703125 
L 2.6875 54.6875 
L 9.28125 54.6875 
L 9.28125 70.21875 
z
" id="DejaVuSans-116"/>
      <path d="M 34.28125 27.484375 
Q 23.390625 27.484375 19.1875 25 
Q 14.984375 22.515625 14.984375 16.5 
Q 14.984375 11.71875 18.140625 8.90625 
Q 21.296875 6.109375 26.703125 6.109375 
Q 34.1875 6.109375 38.703125 11.40625 
Q 43.21875 16.703125 43.21875 25.484375 
L 43.21875 27.484375 
z
M 52.203125 31.203125 
L 52.203125 0 
L 43.21875 0 
L 43.21875 8.296875 
Q 40.140625 3.328125 35.546875 0.953125 
Q 30.953125 -1.421875 24.3125 -1.421875 
Q 15.921875 -1.421875 10.953125 3.296875 
Q 6 8.015625 6 15.921875 
Q 6 25.140625 12.171875 29.828125 
Q 18.359375 34.515625 30.609375 34.515625 
L 43.21875 34.515625 
L 43.21875 35.40625 
Q 43.21875 41.609375 39.140625 45 
Q 35.0625 48.390625 27.6875 48.390625 
Q 23 48.390625 18.546875 47.265625 
Q 14.109375 46.140625 10.015625 43.890625 
L 10.015625 52.203125 
Q 14.9375 54.109375 19.578125 55.046875 
Q 24.21875 56 28.609375 56 
Q 40.484375 56 46.34375 49.84375 
Q 52.203125 43.703125 52.203125 31.203125 
z
" id="DejaVuSans-97"/>
      <path d="M 54.890625 33.015625 
L 54.890625 0 
L 45.90625 0 
L 45.90625 32.71875 
Q 45.90625 40.484375 42.875 44.328125 
Q 39.84375 48.1875 33.796875 48.1875 
Q 26.515625 48.1875 22.3125 43.546875 
Q 18.109375 38.921875 18.109375 30.90625 
L 18.109375 0 
L 9.078125 0 
L 9.078125 54.6875 
L 18.109375 54.6875 
L 18.109375 46.1875 
Q 21.34375 51.125 25.703125 53.5625 
Q 30.078125 56 35.796875 56 
Q 45.21875 56 50.046875 50.171875 
Q 54.890625 44.34375 54.890625 33.015625 
z
" id="DejaVuSans-110"/>
      <path d="M 9.421875 75.984375 
L 18.40625 75.984375 
L 18.40625 0 
L 9.421875 0 
z
" id="DejaVuSans-108"/>
      <path d="M 9.421875 54.6875 
L 18.40625 54.6875 
L 18.40625 0 
L 9.421875 0 
z
M 9.421875 75.984375 
L 18.40625 75.984375 
L 18.40625 64.59375 
L 9.421875 64.59375 
z
" id="DejaVuSans-105"/>
      <path d="M 30.609375 48.390625 
Q 23.390625 48.390625 19.1875 42.75 
Q 14.984375 37.109375 14.984375 27.296875 
Q 14.984375 17.484375 19.15625 11.84375 
Q 23.34375 6.203125 30.609375 6.203125 
Q 37.796875 6.203125 41.984375 11.859375 
Q 46.1875 17.53125 46.1875 27.296875 
Q 46.1875 37.015625 41.984375 42.703125 
Q 37.796875 48.390625 30.609375 48.390625 
z
M 30.609375 56 
Q 42.328125 56 49.015625 48.375 
Q 55.71875 40.765625 55.71875 27.296875 
Q 55.71875 13.875 49.015625 6.21875 
Q 42.328125 -1.421875 30.609375 -1.421875 
Q 18.84375 -1.421875 12.171875 6.21875 
Q 5.515625 13.875 5.515625 27.296875 
Q 5.515625 40.765625 12.171875 48.375 
Q 18.84375 56 30.609375 56 
z
" id="DejaVuSans-111"/>
      <path d="M 18.109375 8.203125 
L 18.109375 -20.796875 
L 9.078125 -20.796875 
L 9.078125 54.6875 
L 18.109375 54.6875 
L 18.109375 46.390625 
Q 20.953125 51.265625 25.265625 53.625 
Q 29.59375 56 35.59375 56 
Q 45.5625 56 51.78125 48.09375 
Q 58.015625 40.1875 58.015625 27.296875 
Q 58.015625 14.40625 51.78125 6.484375 
Q 45.5625 -1.421875 35.59375 -1.421875 
Q 29.59375 -1.421875 25.265625 0.953125 
Q 20.953125 3.328125 18.109375 8.203125 
z
M 48.6875 27.296875 
Q 48.6875 37.203125 44.609375 42.84375 
Q 40.53125 48.484375 33.40625 48.484375 
Q 26.265625 48.484375 22.1875 42.84375 
Q 18.109375 37.203125 18.109375 27.296875 
Q 18.109375 17.390625 22.1875 11.75 
Q 26.265625 6.109375 33.40625 6.109375 
Q 40.53125 6.109375 44.609375 11.75 
Q 48.6875 17.390625 48.6875 27.296875 
z
" id="DejaVuSans-112"/>
     </defs>
     <use xlink:href="#DejaVuSans-65"/>
     <use x="68.408203" xlink:href="#DejaVuSans-80"/>
     <use x="128.710938" xlink:href="#DejaVuSans-69"/>
     <use x="191.894531" xlink:href="#DejaVuSans-32"/>
     <use x="223.681641" xlink:href="#DejaVuSans-119"/>
     <use x="296.34375" xlink:href="#DejaVuSans-46"/>
     <use x="328.130859" xlink:href="#DejaVuSans-114"/>
     <use x="360.119141" xlink:href="#DejaVuSans-46"/>
     <use x="391.90625" xlink:href="#DejaVuSans-116"/>
     <use x="431.115234" xlink:href="#DejaVuSans-46"/>
     <use x="462.902344" xlink:href="#DejaVuSans-32"/>
     <use x="494.689453" xlink:href="#DejaVuSans-116"/>
     <use x="533.898438" xlink:href="#DejaVuSans-114"/>
     <use x="575.011719" xlink:href="#DejaVuSans-97"/>
     <use x="636.291016" xlink:href="#DejaVuSans-110"/>
     <use x="699.669922" xlink:href="#DejaVuSans-115"/>
     <use x="751.769531" xlink:href="#DejaVuSans-108"/>
     <use x="779.552734" xlink:href="#DejaVuSans-97"/>
     <use x="840.832031" xlink:href="#DejaVuSans-116"/>
     <use x="880.041016" xlink:href="#DejaVuSans-105"/>
     <use x="907.824219" xlink:href="#DejaVuSans-111"/>
     <use x="969.005859" xlink:href="#DejaVuSans-110"/>
     <use x="1032.384766" xlink:href="#DejaVuSans-32"/>
     <use x="1064.171875" xlink:href="#DejaVuSans-112"/>
     <use x="1127.648438" xlink:href="#DejaVuSans-97"/>
     <use x="1188.927734" xlink:href="#DejaVuSans-114"/>
     <use x="1230.041016" xlink:href="#DejaVuSans-116"/>
     <use x="1269.25" xlink:href="#DejaVuSans-32"/>
     <use x="1301.037109" xlink:href="#DejaVuSans-40"/>
     <use x="1340.050781" xlink:href="#DejaVuSans-109"/>
     <use x="1437.462891" xlink:href="#DejaVuSans-41"/>
    </g>
    <!-- (with origin alignment) -->
    <g style="fill:#262626;" transform="translate(167.044687 36.072)scale(0.12 -0.12)">
     <defs>
      <path d="M 54.890625 33.015625 
L 54.890625 0 
L 45.90625 0 
L 45.90625 32.71875 
Q 45.90625 40.484375 42.875 44.328125 
Q 39.84375 48.1875 33.796875 48.1875 
Q 26.515625 48.1875 22.3125 43.546875 
Q 18.109375 38.921875 18.109375 30.90625 
L 18.109375 0 
L 9.078125 0 
L 9.078125 75.984375 
L 18.109375 75.984375 
L 18.109375 46.1875 
Q 21.34375 51.125 25.703125 53.5625 
Q 30.078125 56 35.796875 56 
Q 45.21875 56 50.046875 50.171875 
Q 54.890625 44.34375 54.890625 33.015625 
z
" id="DejaVuSans-104"/>
      <path d="M 45.40625 27.984375 
Q 45.40625 37.75 41.375 43.109375 
Q 37.359375 48.484375 30.078125 48.484375 
Q 22.859375 48.484375 18.828125 43.109375 
Q 14.796875 37.75 14.796875 27.984375 
Q 14.796875 18.265625 18.828125 12.890625 
Q 22.859375 7.515625 30.078125 7.515625 
Q 37.359375 7.515625 41.375 12.890625 
Q 45.40625 18.265625 45.40625 27.984375 
z
M 54.390625 6.78125 
Q 54.390625 -7.171875 48.1875 -13.984375 
Q 42 -20.796875 29.203125 -20.796875 
Q 24.46875 -20.796875 20.265625 -20.09375 
Q 16.0625 -19.390625 12.109375 -17.921875 
L 12.109375 -9.1875 
Q 16.0625 -11.328125 19.921875 -12.34375 
Q 23.78125 -13.375 27.78125 -13.375 
Q 36.625 -13.375 41.015625 -8.765625 
Q 45.40625 -4.15625 45.40625 5.171875 
L 45.40625 9.625 
Q 42.625 4.78125 38.28125 2.390625 
Q 33.9375 0 27.875 0 
Q 17.828125 0 11.671875 7.65625 
Q 5.515625 15.328125 5.515625 27.984375 
Q 5.515625 40.671875 11.671875 48.328125 
Q 17.828125 56 27.875 56 
Q 33.9375 56 38.28125 53.609375 
Q 42.625 51.21875 45.40625 46.390625 
L 45.40625 54.6875 
L 54.390625 54.6875 
z
" id="DejaVuSans-103"/>
      <path d="M 56.203125 29.59375 
L 56.203125 25.203125 
L 14.890625 25.203125 
Q 15.484375 15.921875 20.484375 11.0625 
Q 25.484375 6.203125 34.421875 6.203125 
Q 39.59375 6.203125 44.453125 7.46875 
Q 49.3125 8.734375 54.109375 11.28125 
L 54.109375 2.78125 
Q 49.265625 0.734375 44.1875 -0.34375 
Q 39.109375 -1.421875 33.890625 -1.421875 
Q 20.796875 -1.421875 13.15625 6.1875 
Q 5.515625 13.8125 5.515625 26.8125 
Q 5.515625 40.234375 12.765625 48.109375 
Q 20.015625 56 32.328125 56 
Q 43.359375 56 49.78125 48.890625 
Q 56.203125 41.796875 56.203125 29.59375 
z
M 47.21875 32.234375 
Q 47.125 39.59375 43.09375 43.984375 
Q 39.0625 48.390625 32.421875 48.390625 
Q 24.90625 48.390625 20.390625 44.140625 
Q 15.875 39.890625 15.1875 32.171875 
z
" id="DejaVuSans-101"/>
     </defs>
     <use xlink:href="#DejaVuSans-40"/>
     <use x="39.013672" xlink:href="#DejaVuSans-119"/>
     <use x="120.800781" xlink:href="#DejaVuSans-105"/>
     <use x="148.583984" xlink:href="#DejaVuSans-116"/>
     <use x="187.792969" xlink:href="#DejaVuSans-104"/>
     <use x="251.171875" xlink:href="#DejaVuSans-32"/>
     <use x="282.958984" xlink:href="#DejaVuSans-111"/>
     <use x="344.140625" xlink:href="#DejaVuSans-114"/>
     <use x="385.253906" xlink:href="#DejaVuSans-105"/>
     <use x="413.037109" xlink:href="#DejaVuSans-103"/>
     <use x="476.513672" xlink:href="#DejaVuSans-105"/>
     <use x="504.296875" xlink:href="#DejaVuSans-110"/>
     <use x="567.675781" xlink:href="#DejaVuSans-32"/>
     <use x="599.462891" xlink:href="#DejaVuSans-97"/>
     <use x="660.742188" xlink:href="#DejaVuSans-108"/>
     <use x="688.525391" xlink:href="#DejaVuSans-105"/>
     <use x="716.308594" xlink:href="#DejaVuSans-103"/>
     <use x="779.785156" xlink:href="#DejaVuSans-110"/>
     <use x="843.164062" xlink:href="#DejaVuSans-109"/>
     <use x="940.576172" xlink:href="#DejaVuSans-101"/>
     <use x="1002.099609" xlink:href="#DejaVuSans-110"/>
     <use x="1065.478516" xlink:href="#DejaVuSans-116"/>
     <use x="1104.6875" xlink:href="#DejaVuSans-41"/>
    </g>
   </g>
   <g id="legend_1">
    <g id="patch_8">
     <path d="M 59.99 131.601688 
L 139.092031 131.601688 
Q 141.292031 131.601688 141.292031 129.401688 
L 141.292031 49.772 
Q 141.292031 47.572 139.092031 47.572 
L 59.99 47.572 
Q 57.79 47.572 57.79 49.772 
L 57.79 129.401688 
Q 57.79 131.601688 59.99 131.601688 
z
" style="fill:#eaeaf2;opacity:0.8;stroke:#cccccc;stroke-linejoin:miter;"/>
    </g>
    <g id="line2d_19">
     <path d="M 62.19 56.480281 
L 84.19 56.480281 
" style="fill:none;stroke:#808080;stroke-linecap:round;stroke-width:1.5;"/>
    </g>
    <g id="line2d_20"/>
    <g id="text_18">
     <!-- APE (m) -->
     <g style="fill:#262626;" transform="translate(92.99 60.330281)scale(0.11 -0.11)">
      <use xlink:href="#DejaVuSans-65"/>
      <use x="68.408203" xlink:href="#DejaVuSans-80"/>
      <use x="128.710938" xlink:href="#DejaVuSans-69"/>
      <use x="191.894531" xlink:href="#DejaVuSans-32"/>
      <use x="223.681641" xlink:href="#DejaVuSans-40"/>
      <use x="262.695312" xlink:href="#DejaVuSans-109"/>
      <use x="360.107422" xlink:href="#DejaVuSans-41"/>
     </g>
    </g>
    <g id="line2d_21">
     <path d="M 62.19 72.626219 
L 84.19 72.626219 
" style="fill:none;stroke:#4c72b0;stroke-linecap:round;stroke-width:2;"/>
    </g>
    <g id="line2d_22"/>
    <g id="text_19">
     <!-- rmse -->
     <g style="fill:#262626;" transform="translate(92.99 76.476219)scale(0.11 -0.11)">
      <use xlink:href="#DejaVuSans-114"/>
      <use x="39.363281" xlink:href="#DejaVuSans-109"/>
      <use x="136.775391" xlink:href="#DejaVuSans-115"/>
      <use x="188.875" xlink:href="#DejaVuSans-101"/>
     </g>
    </g>
    <g id="line2d_23">
     <path d="M 62.19 88.772156 
L 84.19 88.772156 
" style="fill:none;stroke:#55a868;stroke-linecap:round;stroke-width:2;"/>
    </g>
    <g id="line2d_24"/>
    <g id="text_20">
     <!-- median -->
     <g style="fill:#262626;" transform="translate(92.99 92.622156)scale(0.11 -0.11)">
      <defs>
       <path d="M 45.40625 46.390625 
L 45.40625 75.984375 
L 54.390625 75.984375 
L 54.390625 0 
L 45.40625 0 
L 45.40625 8.203125 
Q 42.578125 3.328125 38.25 0.953125 
Q 33.9375 -1.421875 27.875 -1.421875 
Q 17.96875 -1.421875 11.734375 6.484375 
Q 5.515625 14.40625 5.515625 27.296875 
Q 5.515625 40.1875 11.734375 48.09375 
Q 17.96875 56 27.875 56 
Q 33.9375 56 38.25 53.625 
Q 42.578125 51.265625 45.40625 46.390625 
z
M 14.796875 27.296875 
Q 14.796875 17.390625 18.875 11.75 
Q 22.953125 6.109375 30.078125 6.109375 
Q 37.203125 6.109375 41.296875 11.75 
Q 45.40625 17.390625 45.40625 27.296875 
Q 45.40625 37.203125 41.296875 42.84375 
Q 37.203125 48.484375 30.078125 48.484375 
Q 22.953125 48.484375 18.875 42.84375 
Q 14.796875 37.203125 14.796875 27.296875 
z
" id="DejaVuSans-100"/>
      </defs>
      <use xlink:href="#DejaVuSans-109"/>
      <use x="97.412109" xlink:href="#DejaVuSans-101"/>
      <use x="158.935547" xlink:href="#DejaVuSans-100"/>
      <use x="222.412109" xlink:href="#DejaVuSans-105"/>
      <use x="250.195312" xlink:href="#DejaVuSans-97"/>
      <use x="311.474609" xlink:href="#DejaVuSans-110"/>
     </g>
    </g>
    <g id="line2d_25">
     <path d="M 62.19 104.918094 
L 84.19 104.918094 
" style="fill:none;stroke:#c44e52;stroke-linecap:round;stroke-width:2;"/>
    </g>
    <g id="line2d_26"/>
    <g id="text_21">
     <!-- mean -->
     <g style="fill:#262626;" transform="translate(92.99 108.768094)scale(0.11 -0.11)">
      <use xlink:href="#DejaVuSans-109"/>
      <use x="97.412109" xlink:href="#DejaVuSans-101"/>
      <use x="158.935547" xlink:href="#DejaVuSans-97"/>
      <use x="220.214844" xlink:href="#DejaVuSans-110"/>
     </g>
    </g>
    <g id="patch_9">
     <path d="M 62.19 124.914031 
L 84.19 124.914031 
L 84.19 117.214031 
L 62.19 117.214031 
z
" style="fill:#8172b3;opacity:0.5;stroke:#8172b3;stroke-linejoin:miter;"/>
    </g>
    <g id="text_22">
     <!-- std -->
     <g style="fill:#262626;" transform="translate(92.99 124.914031)scale(0.11 -0.11)">
      <use xlink:href="#DejaVuSans-115"/>
      <use x="52.099609" xlink:href="#DejaVuSans-116"/>
      <use x="91.308594" xlink:href="#DejaVuSans-100"/>
     </g>
    </g>
   </g>
  </g>
 </g>
 <defs>
  <clipPath id="pfb075eb9e8">
   <rect height="340.788" width="366.75" x="52.29" y="42.072"/>
  </clipPath>
 </defs>
</svg>
