<?xml version="1.0" encoding="utf-8" standalone="no"?>
<!DOCTYPE svg PUBLIC "-//W3C//DTD SVG 1.1//EN"
  "http://www.w3.org/Graphics/SVG/1.1/DTD/svg11.dtd">
<!-- Created with matplotlib (https://matplotlib.org/) -->
<svg height="432pt" version="1.1" viewBox="0 0 432 432" width="432pt" xmlns="http://www.w3.org/2000/svg" xmlns:xlink="http://www.w3.org/1999/xlink">
 <metadata>
  <rdf:RDF xmlns:cc="http://creativecommons.org/ns#" xmlns:dc="http://purl.org/dc/elements/1.1/" xmlns:rdf="http://www.w3.org/1999/02/22-rdf-syntax-ns#">
   <cc:Work>
    <dc:type rdf:resource="http://purl.org/dc/dcmitype/StillImage"/>
    <dc:date>2022-01-28T09:05:49.137646</dc:date>
    <dc:format>image/svg+xml</dc:format>
    <dc:creator>
     <cc:Agent>
      <dc:title>Matplotlib v3.3.1, https://matplotlib.org/</dc:title>
     </cc:Agent>
    </dc:creator>
   </cc:Work>
  </rdf:RDF>
 </metadata>
 <defs>
  <style type="text/css">*{stroke-linecap:butt;stroke-linejoin:round;}</style>
 </defs>
 <g id="figure_1">
  <g id="patch_1">
   <path d="M 0 432 
L 432 432 
L 432 0 
L 0 0 
z
" style="fill:#ffffff;"/>
  </g>
  <g id="axes_1">
   <g id="patch_2">
    <path d="M 69.705 382.86 
L 419.04 382.86 
L 419.04 55.824 
L 69.705 55.824 
z
" style="fill:#eaeaf2;"/>
   </g>
   <g id="matplotlib.axis_1">
    <g id="xtick_1">
     <g id="line2d_1">
      <path clip-path="url(#pd4ddf1447d)" d="M 85.583864 382.86 
L 85.583864 55.824 
" style="fill:none;stroke:#ffffff;stroke-linecap:round;"/>
     </g>
     <g id="text_1">
      <!-- 0 -->
      <g style="fill:#262626;" transform="translate(82.084489 400.718281)scale(0.11 -0.11)">
       <defs>
        <path d="M 31.78125 66.40625 
Q 24.171875 66.40625 20.328125 58.90625 
Q 16.5 51.421875 16.5 36.375 
Q 16.5 21.390625 20.328125 13.890625 
Q 24.171875 6.390625 31.78125 6.390625 
Q 39.453125 6.390625 43.28125 13.890625 
Q 47.125 21.390625 47.125 36.375 
Q 47.125 51.421875 43.28125 58.90625 
Q 39.453125 66.40625 31.78125 66.40625 
z
M 31.78125 74.21875 
Q 44.046875 74.21875 50.515625 64.515625 
Q 56.984375 54.828125 56.984375 36.375 
Q 56.984375 17.96875 50.515625 8.265625 
Q 44.046875 -1.421875 31.78125 -1.421875 
Q 19.53125 -1.421875 13.0625 8.265625 
Q 6.59375 17.96875 6.59375 36.375 
Q 6.59375 54.828125 13.0625 64.515625 
Q 19.53125 74.21875 31.78125 74.21875 
z
" id="DejaVuSans-48"/>
       </defs>
       <use xlink:href="#DejaVuSans-48"/>
      </g>
     </g>
    </g>
    <g id="xtick_2">
     <g id="line2d_2">
      <path clip-path="url(#pd4ddf1447d)" d="M 141.832052 382.86 
L 141.832052 55.824 
" style="fill:none;stroke:#ffffff;stroke-linecap:round;"/>
     </g>
     <g id="text_2">
      <!-- 50 -->
      <g style="fill:#262626;" transform="translate(134.833302 400.718281)scale(0.11 -0.11)">
       <defs>
        <path d="M 10.796875 72.90625 
L 49.515625 72.90625 
L 49.515625 64.59375 
L 19.828125 64.59375 
L 19.828125 46.734375 
Q 21.96875 47.46875 24.109375 47.828125 
Q 26.265625 48.1875 28.421875 48.1875 
Q 40.625 48.1875 47.75 41.5 
Q 54.890625 34.8125 54.890625 23.390625 
Q 54.890625 11.625 47.5625 5.09375 
Q 40.234375 -1.421875 26.90625 -1.421875 
Q 22.3125 -1.421875 17.546875 -0.640625 
Q 12.796875 0.140625 7.71875 1.703125 
L 7.71875 11.625 
Q 12.109375 9.234375 16.796875 8.0625 
Q 21.484375 6.890625 26.703125 6.890625 
Q 35.15625 6.890625 40.078125 11.328125 
Q 45.015625 15.765625 45.015625 23.390625 
Q 45.015625 31 40.078125 35.4375 
Q 35.15625 39.890625 26.703125 39.890625 
Q 22.75 39.890625 18.8125 39.015625 
Q 14.890625 38.140625 10.796875 36.28125 
z
" id="DejaVuSans-53"/>
       </defs>
       <use xlink:href="#DejaVuSans-53"/>
       <use x="63.623047" xlink:href="#DejaVuSans-48"/>
      </g>
     </g>
    </g>
    <g id="xtick_3">
     <g id="line2d_3">
      <path clip-path="url(#pd4ddf1447d)" d="M 198.080241 382.86 
L 198.080241 55.824 
" style="fill:none;stroke:#ffffff;stroke-linecap:round;"/>
     </g>
     <g id="text_3">
      <!-- 100 -->
      <g style="fill:#262626;" transform="translate(187.582116 400.718281)scale(0.11 -0.11)">
       <defs>
        <path d="M 12.40625 8.296875 
L 28.515625 8.296875 
L 28.515625 63.921875 
L 10.984375 60.40625 
L 10.984375 69.390625 
L 28.421875 72.90625 
L 38.28125 72.90625 
L 38.28125 8.296875 
L 54.390625 8.296875 
L 54.390625 0 
L 12.40625 0 
z
" id="DejaVuSans-49"/>
       </defs>
       <use xlink:href="#DejaVuSans-49"/>
       <use x="63.623047" xlink:href="#DejaVuSans-48"/>
       <use x="127.246094" xlink:href="#DejaVuSans-48"/>
      </g>
     </g>
    </g>
    <g id="xtick_4">
     <g id="line2d_4">
      <path clip-path="url(#pd4ddf1447d)" d="M 254.328429 382.86 
L 254.328429 55.824 
" style="fill:none;stroke:#ffffff;stroke-linecap:round;"/>
     </g>
     <g id="text_4">
      <!-- 150 -->
      <g style="fill:#262626;" transform="translate(243.830304 400.718281)scale(0.11 -0.11)">
       <use xlink:href="#DejaVuSans-49"/>
       <use x="63.623047" xlink:href="#DejaVuSans-53"/>
       <use x="127.246094" xlink:href="#DejaVuSans-48"/>
      </g>
     </g>
    </g>
    <g id="xtick_5">
     <g id="line2d_5">
      <path clip-path="url(#pd4ddf1447d)" d="M 310.576618 382.86 
L 310.576618 55.824 
" style="fill:none;stroke:#ffffff;stroke-linecap:round;"/>
     </g>
     <g id="text_5">
      <!-- 200 -->
      <g style="fill:#262626;" transform="translate(300.078493 400.718281)scale(0.11 -0.11)">
       <defs>
        <path d="M 19.1875 8.296875 
L 53.609375 8.296875 
L 53.609375 0 
L 7.328125 0 
L 7.328125 8.296875 
Q 12.9375 14.109375 22.625 23.890625 
Q 32.328125 33.6875 34.8125 36.53125 
Q 39.546875 41.84375 41.421875 45.53125 
Q 43.3125 49.21875 43.3125 52.78125 
Q 43.3125 58.59375 39.234375 62.25 
Q 35.15625 65.921875 28.609375 65.921875 
Q 23.96875 65.921875 18.8125 64.3125 
Q 13.671875 62.703125 7.8125 59.421875 
L 7.8125 69.390625 
Q 13.765625 71.78125 18.9375 73 
Q 24.125 74.21875 28.421875 74.21875 
Q 39.75 74.21875 46.484375 68.546875 
Q 53.21875 62.890625 53.21875 53.421875 
Q 53.21875 48.921875 51.53125 44.890625 
Q 49.859375 40.875 45.40625 35.40625 
Q 44.1875 33.984375 37.640625 27.21875 
Q 31.109375 20.453125 19.1875 8.296875 
z
" id="DejaVuSans-50"/>
       </defs>
       <use xlink:href="#DejaVuSans-50"/>
       <use x="63.623047" xlink:href="#DejaVuSans-48"/>
       <use x="127.246094" xlink:href="#DejaVuSans-48"/>
      </g>
     </g>
    </g>
    <g id="xtick_6">
     <g id="line2d_6">
      <path clip-path="url(#pd4ddf1447d)" d="M 366.824807 382.86 
L 366.824807 55.824 
" style="fill:none;stroke:#ffffff;stroke-linecap:round;"/>
     </g>
     <g id="text_6">
      <!-- 250 -->
      <g style="fill:#262626;" transform="translate(356.326682 400.718281)scale(0.11 -0.11)">
       <use xlink:href="#DejaVuSans-50"/>
       <use x="63.623047" xlink:href="#DejaVuSans-53"/>
       <use x="127.246094" xlink:href="#DejaVuSans-48"/>
      </g>
     </g>
    </g>
    <g id="text_7">
     <!-- $t$ (s) -->
     <g style="fill:#262626;" transform="translate(232.2525 416.124062)scale(0.12 -0.12)">
      <defs>
       <path d="M 42.28125 54.6875 
L 40.921875 47.703125 
L 23 47.703125 
L 17.1875 18.015625 
Q 16.890625 16.359375 16.75 15.234375 
Q 16.609375 14.109375 16.609375 13.484375 
Q 16.609375 10.359375 18.484375 8.9375 
Q 20.359375 7.515625 24.515625 7.515625 
L 33.59375 7.515625 
L 32.078125 0 
L 23.484375 0 
Q 15.484375 0 11.546875 3.125 
Q 7.625 6.25 7.625 12.59375 
Q 7.625 13.71875 7.765625 15.0625 
Q 7.90625 16.40625 8.203125 18.015625 
L 14.015625 47.703125 
L 6.390625 47.703125 
L 7.8125 54.6875 
L 15.28125 54.6875 
L 18.3125 70.21875 
L 27.296875 70.21875 
L 24.3125 54.6875 
z
" id="DejaVuSans-Oblique-116"/>
       <path id="DejaVuSans-32"/>
       <path d="M 31 75.875 
Q 24.46875 64.65625 21.28125 53.65625 
Q 18.109375 42.671875 18.109375 31.390625 
Q 18.109375 20.125 21.3125 9.0625 
Q 24.515625 -2 31 -13.1875 
L 23.1875 -13.1875 
Q 15.875 -1.703125 12.234375 9.375 
Q 8.59375 20.453125 8.59375 31.390625 
Q 8.59375 42.28125 12.203125 53.3125 
Q 15.828125 64.359375 23.1875 75.875 
z
" id="DejaVuSans-40"/>
       <path d="M 44.28125 53.078125 
L 44.28125 44.578125 
Q 40.484375 46.53125 36.375 47.5 
Q 32.28125 48.484375 27.875 48.484375 
Q 21.1875 48.484375 17.84375 46.4375 
Q 14.5 44.390625 14.5 40.28125 
Q 14.5 37.15625 16.890625 35.375 
Q 19.28125 33.59375 26.515625 31.984375 
L 29.59375 31.296875 
Q 39.15625 29.25 43.1875 25.515625 
Q 47.21875 21.78125 47.21875 15.09375 
Q 47.21875 7.46875 41.1875 3.015625 
Q 35.15625 -1.421875 24.609375 -1.421875 
Q 20.21875 -1.421875 15.453125 -0.5625 
Q 10.6875 0.296875 5.421875 2 
L 5.421875 11.28125 
Q 10.40625 8.6875 15.234375 7.390625 
Q 20.0625 6.109375 24.8125 6.109375 
Q 31.15625 6.109375 34.5625 8.28125 
Q 37.984375 10.453125 37.984375 14.40625 
Q 37.984375 18.0625 35.515625 20.015625 
Q 33.0625 21.96875 24.703125 23.78125 
L 21.578125 24.515625 
Q 13.234375 26.265625 9.515625 29.90625 
Q 5.8125 33.546875 5.8125 39.890625 
Q 5.8125 47.609375 11.28125 51.796875 
Q 16.75 56 26.8125 56 
Q 31.78125 56 36.171875 55.265625 
Q 40.578125 54.546875 44.28125 53.078125 
z
" id="DejaVuSans-115"/>
       <path d="M 8.015625 75.875 
L 15.828125 75.875 
Q 23.140625 64.359375 26.78125 53.3125 
Q 30.421875 42.28125 30.421875 31.390625 
Q 30.421875 20.453125 26.78125 9.375 
Q 23.140625 -1.703125 15.828125 -13.1875 
L 8.015625 -13.1875 
Q 14.5 -2 17.703125 9.0625 
Q 20.90625 20.125 20.90625 31.390625 
Q 20.90625 42.671875 17.703125 53.65625 
Q 14.5 64.65625 8.015625 75.875 
z
" id="DejaVuSans-41"/>
      </defs>
      <use transform="translate(0 0.125)" xlink:href="#DejaVuSans-Oblique-116"/>
      <use transform="translate(39.208984 0.125)" xlink:href="#DejaVuSans-32"/>
      <use transform="translate(70.996094 0.125)" xlink:href="#DejaVuSans-40"/>
      <use transform="translate(110.009766 0.125)" xlink:href="#DejaVuSans-115"/>
      <use transform="translate(162.109375 0.125)" xlink:href="#DejaVuSans-41"/>
     </g>
    </g>
   </g>
   <g id="matplotlib.axis_2">
    <g id="ytick_1">
     <g id="line2d_7">
      <path clip-path="url(#pd4ddf1447d)" d="M 69.705 368.419664 
L 419.04 368.419664 
" style="fill:none;stroke:#ffffff;stroke-linecap:round;"/>
     </g>
     <g id="text_8">
      <!-- 0.000 -->
      <g style="fill:#262626;" transform="translate(28.714062 372.598805)scale(0.11 -0.11)">
       <defs>
        <path d="M 10.6875 12.40625 
L 21 12.40625 
L 21 0 
L 10.6875 0 
z
" id="DejaVuSans-46"/>
       </defs>
       <use xlink:href="#DejaVuSans-48"/>
       <use x="63.623047" xlink:href="#DejaVuSans-46"/>
       <use x="95.410156" xlink:href="#DejaVuSans-48"/>
       <use x="159.033203" xlink:href="#DejaVuSans-48"/>
       <use x="222.65625" xlink:href="#DejaVuSans-48"/>
      </g>
     </g>
    </g>
    <g id="ytick_2">
     <g id="line2d_8">
      <path clip-path="url(#pd4ddf1447d)" d="M 69.705 324.514496 
L 419.04 324.514496 
" style="fill:none;stroke:#ffffff;stroke-linecap:round;"/>
     </g>
     <g id="text_9">
      <!-- 0.025 -->
      <g style="fill:#262626;" transform="translate(28.714062 328.693636)scale(0.11 -0.11)">
       <use xlink:href="#DejaVuSans-48"/>
       <use x="63.623047" xlink:href="#DejaVuSans-46"/>
       <use x="95.410156" xlink:href="#DejaVuSans-48"/>
       <use x="159.033203" xlink:href="#DejaVuSans-50"/>
       <use x="222.65625" xlink:href="#DejaVuSans-53"/>
      </g>
     </g>
    </g>
    <g id="ytick_3">
     <g id="line2d_9">
      <path clip-path="url(#pd4ddf1447d)" d="M 69.705 280.609327 
L 419.04 280.609327 
" style="fill:none;stroke:#ffffff;stroke-linecap:round;"/>
     </g>
     <g id="text_10">
      <!-- 0.050 -->
      <g style="fill:#262626;" transform="translate(28.714062 284.788468)scale(0.11 -0.11)">
       <use xlink:href="#DejaVuSans-48"/>
       <use x="63.623047" xlink:href="#DejaVuSans-46"/>
       <use x="95.410156" xlink:href="#DejaVuSans-48"/>
       <use x="159.033203" xlink:href="#DejaVuSans-53"/>
       <use x="222.65625" xlink:href="#DejaVuSans-48"/>
      </g>
     </g>
    </g>
    <g id="ytick_4">
     <g id="line2d_10">
      <path clip-path="url(#pd4ddf1447d)" d="M 69.705 236.704158 
L 419.04 236.704158 
" style="fill:none;stroke:#ffffff;stroke-linecap:round;"/>
     </g>
     <g id="text_11">
      <!-- 0.075 -->
      <g style="fill:#262626;" transform="translate(28.714062 240.883299)scale(0.11 -0.11)">
       <defs>
        <path d="M 8.203125 72.90625 
L 55.078125 72.90625 
L 55.078125 68.703125 
L 28.609375 0 
L 18.3125 0 
L 43.21875 64.59375 
L 8.203125 64.59375 
z
" id="DejaVuSans-55"/>
       </defs>
       <use xlink:href="#DejaVuSans-48"/>
       <use x="63.623047" xlink:href="#DejaVuSans-46"/>
       <use x="95.410156" xlink:href="#DejaVuSans-48"/>
       <use x="159.033203" xlink:href="#DejaVuSans-55"/>
       <use x="222.65625" xlink:href="#DejaVuSans-53"/>
      </g>
     </g>
    </g>
    <g id="ytick_5">
     <g id="line2d_11">
      <path clip-path="url(#pd4ddf1447d)" d="M 69.705 192.798989 
L 419.04 192.798989 
" style="fill:none;stroke:#ffffff;stroke-linecap:round;"/>
     </g>
     <g id="text_12">
      <!-- 0.100 -->
      <g style="fill:#262626;" transform="translate(28.714062 196.97813)scale(0.11 -0.11)">
       <use xlink:href="#DejaVuSans-48"/>
       <use x="63.623047" xlink:href="#DejaVuSans-46"/>
       <use x="95.410156" xlink:href="#DejaVuSans-49"/>
       <use x="159.033203" xlink:href="#DejaVuSans-48"/>
       <use x="222.65625" xlink:href="#DejaVuSans-48"/>
      </g>
     </g>
    </g>
    <g id="ytick_6">
     <g id="line2d_12">
      <path clip-path="url(#pd4ddf1447d)" d="M 69.705 148.893821 
L 419.04 148.893821 
" style="fill:none;stroke:#ffffff;stroke-linecap:round;"/>
     </g>
     <g id="text_13">
      <!-- 0.125 -->
      <g style="fill:#262626;" transform="translate(28.714062 153.072961)scale(0.11 -0.11)">
       <use xlink:href="#DejaVuSans-48"/>
       <use x="63.623047" xlink:href="#DejaVuSans-46"/>
       <use x="95.410156" xlink:href="#DejaVuSans-49"/>
       <use x="159.033203" xlink:href="#DejaVuSans-50"/>
       <use x="222.65625" xlink:href="#DejaVuSans-53"/>
      </g>
     </g>
    </g>
    <g id="ytick_7">
     <g id="line2d_13">
      <path clip-path="url(#pd4ddf1447d)" d="M 69.705 104.988652 
L 419.04 104.988652 
" style="fill:none;stroke:#ffffff;stroke-linecap:round;"/>
     </g>
     <g id="text_14">
      <!-- 0.150 -->
      <g style="fill:#262626;" transform="translate(28.714062 109.167793)scale(0.11 -0.11)">
       <use xlink:href="#DejaVuSans-48"/>
       <use x="63.623047" xlink:href="#DejaVuSans-46"/>
       <use x="95.410156" xlink:href="#DejaVuSans-49"/>
       <use x="159.033203" xlink:href="#DejaVuSans-53"/>
       <use x="222.65625" xlink:href="#DejaVuSans-48"/>
      </g>
     </g>
    </g>
    <g id="ytick_8">
     <g id="line2d_14">
      <path clip-path="url(#pd4ddf1447d)" d="M 69.705 61.083483 
L 419.04 61.083483 
" style="fill:none;stroke:#ffffff;stroke-linecap:round;"/>
     </g>
     <g id="text_15">
      <!-- 0.175 -->
      <g style="fill:#262626;" transform="translate(28.714062 65.262624)scale(0.11 -0.11)">
       <use xlink:href="#DejaVuSans-48"/>
       <use x="63.623047" xlink:href="#DejaVuSans-46"/>
       <use x="95.410156" xlink:href="#DejaVuSans-49"/>
       <use x="159.033203" xlink:href="#DejaVuSans-55"/>
       <use x="222.65625" xlink:href="#DejaVuSans-53"/>
      </g>
     </g>
    </g>
    <g id="text_16">
     <!-- RPE (m) -->
     <g style="fill:#262626;" transform="translate(22.218437 243.35325)rotate(-90)scale(0.12 -0.12)">
      <defs>
       <path d="M 44.390625 34.1875 
Q 47.5625 33.109375 50.5625 29.59375 
Q 53.5625 26.078125 56.59375 19.921875 
L 66.609375 0 
L 56 0 
L 46.6875 18.703125 
Q 43.0625 26.03125 39.671875 28.421875 
Q 36.28125 30.8125 30.421875 30.8125 
L 19.671875 30.8125 
L 19.671875 0 
L 9.8125 0 
L 9.8125 72.90625 
L 32.078125 72.90625 
Q 44.578125 72.90625 50.734375 67.671875 
Q 56.890625 62.453125 56.890625 51.90625 
Q 56.890625 45.015625 53.6875 40.46875 
Q 50.484375 35.9375 44.390625 34.1875 
z
M 19.671875 64.796875 
L 19.671875 38.921875 
L 32.078125 38.921875 
Q 39.203125 38.921875 42.84375 42.21875 
Q 46.484375 45.515625 46.484375 51.90625 
Q 46.484375 58.296875 42.84375 61.546875 
Q 39.203125 64.796875 32.078125 64.796875 
z
" id="DejaVuSans-82"/>
       <path d="M 19.671875 64.796875 
L 19.671875 37.40625 
L 32.078125 37.40625 
Q 38.96875 37.40625 42.71875 40.96875 
Q 46.484375 44.53125 46.484375 51.125 
Q 46.484375 57.671875 42.71875 61.234375 
Q 38.96875 64.796875 32.078125 64.796875 
z
M 9.8125 72.90625 
L 32.078125 72.90625 
Q 44.34375 72.90625 50.609375 67.359375 
Q 56.890625 61.8125 56.890625 51.125 
Q 56.890625 40.328125 50.609375 34.8125 
Q 44.34375 29.296875 32.078125 29.296875 
L 19.671875 29.296875 
L 19.671875 0 
L 9.8125 0 
z
" id="DejaVuSans-80"/>
       <path d="M 9.8125 72.90625 
L 55.90625 72.90625 
L 55.90625 64.59375 
L 19.671875 64.59375 
L 19.671875 43.015625 
L 54.390625 43.015625 
L 54.390625 34.71875 
L 19.671875 34.71875 
L 19.671875 8.296875 
L 56.78125 8.296875 
L 56.78125 0 
L 9.8125 0 
z
" id="DejaVuSans-69"/>
       <path d="M 52 44.1875 
Q 55.375 50.25 60.0625 53.125 
Q 64.75 56 71.09375 56 
Q 79.640625 56 84.28125 50.015625 
Q 88.921875 44.046875 88.921875 33.015625 
L 88.921875 0 
L 79.890625 0 
L 79.890625 32.71875 
Q 79.890625 40.578125 77.09375 44.375 
Q 74.3125 48.1875 68.609375 48.1875 
Q 61.625 48.1875 57.5625 43.546875 
Q 53.515625 38.921875 53.515625 30.90625 
L 53.515625 0 
L 44.484375 0 
L 44.484375 32.71875 
Q 44.484375 40.625 41.703125 44.40625 
Q 38.921875 48.1875 33.109375 48.1875 
Q 26.21875 48.1875 22.15625 43.53125 
Q 18.109375 38.875 18.109375 30.90625 
L 18.109375 0 
L 9.078125 0 
L 9.078125 54.6875 
L 18.109375 54.6875 
L 18.109375 46.1875 
Q 21.1875 51.21875 25.484375 53.609375 
Q 29.78125 56 35.6875 56 
Q 41.65625 56 45.828125 52.96875 
Q 50 49.953125 52 44.1875 
z
" id="DejaVuSans-109"/>
      </defs>
      <use xlink:href="#DejaVuSans-82"/>
      <use x="69.482422" xlink:href="#DejaVuSans-80"/>
      <use x="129.785156" xlink:href="#DejaVuSans-69"/>
      <use x="192.96875" xlink:href="#DejaVuSans-32"/>
      <use x="224.755859" xlink:href="#DejaVuSans-40"/>
      <use x="263.769531" xlink:href="#DejaVuSans-109"/>
      <use x="361.181641" xlink:href="#DejaVuSans-41"/>
     </g>
    </g>
   </g>
   <g id="patch_3">
    <path clip-path="url(#pd4ddf1447d)" d="M 69.705 355.218941 
L 69.705 324.70602 
L 419.04 324.70602 
L 419.04 355.218941 
z
" style="fill:#8172b3;opacity:0.5;stroke:#8172b3;stroke-linejoin:miter;"/>
   </g>
   <g id="line2d_15">
    <path clip-path="url(#pd4ddf1447d)" d="M 85.583864 343.391934 
L 85.69636 347.798163 
L 85.921353 261.157894 
L 86.033849 257.542481 
L 86.146346 316.353826 
L 86.258842 312.941809 
L 86.483835 330.060288 
L 86.708827 298.984417 
L 86.821324 301.630792 
L 87.046317 345.341402 
L 87.383806 354.053732 
L 87.496302 366.509135 
L 87.608798 366.50965 
L 87.721295 366.643269 
L 87.833791 366.423069 
L 87.946288 364.900393 
L 88.058784 365.285798 
L 88.17128 363.999845 
L 88.396273 366.910038 
L 88.508769 365.704855 
L 88.621266 367.632004 
L 88.846259 365.78692 
L 88.958755 365.594914 
L 89.071251 367.450804 
L 89.183748 364.246162 
L 89.296244 367.463967 
L 89.521237 364.279672 
L 89.633733 364.293442 
L 89.74623 364.158445 
L 89.971222 366.574709 
L 90.083719 364.545768 
L 90.196215 365.025393 
L 90.308711 359.105108 
L 90.533704 365.225072 
L 90.646201 365.919628 
L 90.758697 365.149326 
L 90.871193 365.551794 
L 91.096186 367.740713 
L 91.208682 367.157237 
L 91.321179 365.959533 
L 91.433675 363.384977 
L 91.546172 366.339555 
L 91.771164 365.030266 
L 91.883661 367.432445 
L 91.996157 362.406706 
L 92.108654 364.700632 
L 92.333646 362.987789 
L 92.446143 364.99709 
L 92.558639 362.386068 
L 92.671135 364.163248 
L 92.783632 359.674894 
L 93.346114 366.582075 
L 93.571106 358.558012 
L 93.683603 359.702231 
L 93.908596 365.847326 
L 94.021092 365.953949 
L 94.133588 365.806131 
L 94.246085 366.715677 
L 94.358581 366.437746 
L 94.471077 367.244739 
L 94.69607 366.511912 
L 94.808567 367.230806 
L 94.921063 366.939529 
L 95.033559 367.562791 
L 95.258552 366.128467 
L 95.371048 366.845578 
L 95.483545 361.07238 
L 95.596041 367.543807 
L 95.821034 360.237592 
L 95.93353 367.040062 
L 96.046027 358.627469 
L 96.158523 364.781923 
L 96.383516 361.334126 
L 96.496012 366.500047 
L 96.608509 350.97747 
L 96.833501 359.327931 
L 96.945998 341.037225 
L 97.058494 341.001763 
L 97.17099 355.014591 
L 97.283487 354.854005 
L 97.50848 362.943636 
L 97.620976 360.276972 
L 97.733472 364.580195 
L 97.845969 360.941827 
L 98.070962 362.610248 
L 98.183458 359.971329 
L 98.295954 364.06528 
L 98.408451 362.347612 
L 98.633443 363.604522 
L 98.74594 361.035679 
L 98.858436 366.616456 
L 98.970933 364.227097 
L 99.195925 366.647334 
L 99.308422 364.648518 
L 99.420918 366.882117 
L 99.533414 366.423663 
L 99.758407 366.800129 
L 99.870904 365.481231 
L 99.9834 366.887854 
L 100.095896 365.888525 
L 100.320889 366.755837 
L 100.433385 366.617621 
L 100.658378 365.147147 
L 100.883371 366.853423 
L 100.995867 366.464872 
L 101.445853 367.135385 
L 101.670846 365.951031 
L 101.895838 366.634188 
L 102.120831 366.222406 
L 102.233327 364.024364 
L 102.345824 364.508067 
L 102.570817 366.740463 
L 102.683313 366.566947 
L 103.245795 363.612247 
L 103.358291 366.65332 
L 103.470788 366.333784 
L 103.583284 367.27399 
L 103.69578 367.11552 
L 103.808277 367.27497 
L 104.033269 366.423667 
L 104.145766 367.072098 
L 104.258262 364.956207 
L 104.370759 365.146035 
L 104.595751 366.945105 
L 104.933241 367.208141 
L 105.158233 367.698823 
L 105.383226 366.109737 
L 105.495722 366.261663 
L 105.608219 363.623714 
L 105.720715 363.737672 
L 105.945708 366.902456 
L 106.058204 366.968752 
L 106.170701 366.385954 
L 106.283197 366.466727 
L 106.50819 367.713979 
L 106.620686 367.673546 
L 106.733183 365.790673 
L 106.958175 365.994481 
L 107.183168 366.048082 
L 107.408161 366.934369 
L 107.633154 358.976163 
L 107.74565 359.114577 
L 107.858146 340.592935 
L 107.970643 340.970878 
L 108.083139 348.612157 
L 108.195635 342.693657 
L 108.308132 343.230234 
L 109.095606 353.394325 
L 109.320599 341.706786 
L 109.433096 342.637453 
L 109.545592 341.851249 
L 109.658088 342.559883 
L 109.883081 363.329088 
L 109.995577 362.102831 
L 110.108074 341.601376 
L 110.22057 342.784065 
L 110.333067 359.16114 
L 110.558059 354.741664 
L 110.670556 355.183872 
L 110.783052 357.070546 
L 110.895548 355.339279 
L 111.120541 357.966828 
L 111.233038 358.391407 
L 111.345534 360.578074 
L 111.45803 347.875858 
L 111.908016 355.727101 
L 112.020512 348.08311 
L 112.358001 353.211551 
L 112.470498 354.03228 
L 112.582994 360.447078 
L 112.695491 358.570952 
L 112.807987 358.833006 
L 113.145476 356.492152 
L 113.257972 358.775309 
L 113.482965 357.035872 
L 113.595462 358.220489 
L 113.820454 362.484088 
L 114.045447 361.076871 
L 114.157943 362.027159 
L 114.27044 353.413962 
L 114.382936 354.604853 
L 114.720425 361.847698 
L 114.832922 351.143333 
L 114.945418 351.887803 
L 115.170411 331.9143 
L 115.282907 332.76216 
L 115.5079 367.049366 
L 115.620396 366.731508 
L 115.732893 364.678742 
L 115.845389 365.448969 
L 116.070382 358.15051 
L 116.182878 364.503671 
L 116.295375 364.458717 
L 116.407871 363.729618 
L 116.520367 354.666863 
L 116.74536 355.590653 
L 116.857856 355.96595 
L 116.970353 355.678011 
L 117.082849 328.720029 
L 117.307842 331.193989 
L 117.532835 339.197274 
L 117.645331 341.698165 
L 117.757828 340.931867 
L 117.870324 353.808751 
L 117.98282 352.879413 
L 118.095317 354.486954 
L 118.320309 359.47166 
L 118.432806 361.540893 
L 118.657799 353.269998 
L 118.770295 360.990786 
L 118.882791 359.817625 
L 119.22028 341.358249 
L 119.445273 362.31806 
L 119.55777 362.6478 
L 119.670266 361.63963 
L 119.782762 365.305969 
L 119.895259 360.889288 
L 120.007755 362.998776 
L 120.345244 355.551215 
L 120.457741 341.92275 
L 120.570237 342.857934 
L 120.79523 358.489446 
L 120.907726 356.458276 
L 121.132719 328.147505 
L 121.357712 344.437135 
L 121.470208 342.462602 
L 121.582704 347.648731 
L 121.695201 345.823112 
L 121.920193 361.039094 
L 122.03269 359.934854 
L 122.145186 350.168884 
L 122.257683 353.811795 
L 122.482675 344.082869 
L 122.707668 348.730795 
L 123.157654 341.705704 
L 123.27015 351.154648 
L 123.382646 347.369398 
L 123.607639 348.735151 
L 123.720135 345.523855 
L 123.832632 349.352347 
L 123.945128 346.644605 
L 124.170121 351.574083 
L 124.282617 349.600411 
L 124.395114 357.714022 
L 124.50761 355.856321 
L 124.620107 356.013241 
L 124.732603 355.815354 
L 124.845099 355.053813 
L 125.070092 346.649126 
L 125.295085 352.460085 
L 125.407581 352.189504 
L 125.520078 347.228207 
L 125.74507 354.168663 
L 125.857567 355.515434 
L 125.970063 354.983213 
L 126.082559 340.788134 
L 126.307552 347.202309 
L 126.420049 348.311135 
L 126.532545 351.402214 
L 126.645041 343.760992 
L 126.870034 348.573333 
L 127.095027 351.040661 
L 127.32002 350.167085 
L 127.657509 343.072292 
L 127.770005 329.263441 
L 127.882501 330.553684 
L 128.107494 322.092224 
L 128.219991 322.921415 
L 128.332487 340.381754 
L 128.444983 338.960165 
L 128.669976 342.294212 
L 129.007465 332.551564 
L 129.232458 337.016062 
L 129.344954 334.161375 
L 129.569947 341.019056 
L 129.79494 317.999415 
L 130.132429 336.120687 
L 130.244925 335.673068 
L 130.469918 334.215893 
L 130.694911 340.461731 
L 130.919904 337.704091 
L 131.0324 338.040109 
L 131.369889 318.991771 
L 131.594882 305.041635 
L 131.707378 328.984028 
L 131.819875 326.584251 
L 132.044867 331.818434 
L 132.157364 329.847633 
L 132.26986 280.748876 
L 132.382357 283.173051 
L 132.719846 221.70105 
L 132.832342 330.550343 
L 132.944838 328.540349 
L 133.169831 344.842728 
L 133.282328 342.944288 
L 133.394824 349.53563 
L 133.50732 347.257286 
L 133.732313 352.18176 
L 133.844809 353.234114 
L 133.957306 350.340807 
L 134.069802 355.212018 
L 134.182299 355.004791 
L 134.294795 353.200435 
L 134.519788 359.852863 
L 134.969773 348.443984 
L 135.08227 361.00782 
L 135.194766 359.673482 
L 135.307262 354.271743 
L 135.419759 336.887161 
L 135.644751 339.596048 
L 135.982241 347.307566 
L 136.094737 345.564569 
L 136.31973 358.723912 
L 136.544722 349.004516 
L 136.657219 350.306282 
L 136.769715 338.32444 
L 136.882212 339.347013 
L 137.107204 343.463244 
L 137.219701 341.163967 
L 137.444694 327.998682 
L 137.669686 352.760716 
L 137.782183 350.853559 
L 138.007175 328.512033 
L 138.232168 360.025041 
L 138.344665 359.427961 
L 138.569657 329.729618 
L 138.682154 355.617478 
L 138.907146 334.689044 
L 139.019643 336.706475 
L 139.132139 336.437305 
L 139.244636 350.42294 
L 139.469628 330.40421 
L 139.582125 343.270196 
L 139.694621 341.715467 
L 139.807117 348.471777 
L 140.03211 336.951117 
L 140.144607 343.756048 
L 140.257103 342.450106 
L 140.482096 345.300574 
L 140.594592 344.379161 
L 140.707088 348.083465 
L 140.819585 348.119788 
L 141.157074 349.070296 
L 141.26957 347.639188 
L 141.382067 348.170946 
L 141.607059 352.199256 
L 141.719556 351.919582 
L 141.944549 355.592084 
L 142.057045 355.526037 
L 142.169541 354.850919 
L 142.282038 355.172407 
L 142.394534 349.868322 
L 142.50703 354.634499 
L 142.732023 344.120217 
L 142.84452 351.819115 
L 142.957016 341.768492 
L 143.069512 350.01197 
L 143.294505 335.531537 
L 143.407001 342.729464 
L 143.519498 339.316103 
L 143.744491 349.012552 
L 143.856987 350.361946 
L 144.08198 355.135366 
L 144.194476 356.159544 
L 144.644462 339.725401 
L 144.756958 338.82503 
L 145.094447 318.482207 
L 145.206944 363.498483 
L 145.31944 363.665399 
L 145.431936 364.783288 
L 145.656929 363.480231 
L 145.769425 342.487625 
L 145.881922 343.255139 
L 145.994418 343.236284 
L 146.106915 341.520531 
L 146.219411 341.548801 
L 146.444404 359.044698 
L 146.669396 360.369622 
L 146.781893 364.306167 
L 146.894389 363.360094 
L 147.006886 367.738829 
L 147.231878 354.94477 
L 147.344375 356.308973 
L 147.456871 346.767538 
L 147.569367 348.261686 
L 147.79436 359.821004 
L 147.906857 358.337419 
L 148.019353 360.564329 
L 148.131849 359.567612 
L 148.469338 343.040775 
L 148.581835 341.14569 
L 148.694331 342.061658 
L 148.919324 323.612073 
L 149.03182 324.768745 
L 149.144317 343.028192 
L 149.256813 341.911983 
L 149.369309 347.525237 
L 149.594302 342.839249 
L 149.819295 321.770995 
L 150.044288 342.016811 
L 150.156784 340.571949 
L 150.381777 350.374204 
L 150.60677 359.762387 
L 150.719266 361.508404 
L 150.831762 348.853038 
L 151.169252 353.108463 
L 151.281748 353.721991 
L 151.506741 365.21893 
L 151.619237 362.207945 
L 151.731733 355.300734 
L 151.84423 356.112549 
L 151.956726 335.668449 
L 152.069223 337.791981 
L 152.294215 355.889425 
L 152.406712 356.481352 
L 152.519208 363.681312 
L 152.631704 361.689394 
L 152.969194 349.30973 
L 153.08169 356.39441 
L 153.306683 352.648142 
L 153.531675 337.686731 
L 153.644172 322.940733 
L 153.756668 325.256645 
L 153.981661 310.203468 
L 154.094157 310.311626 
L 154.206654 277.882077 
L 154.31915 278.066905 
L 154.769136 367.595172 
L 154.994128 360.687487 
L 155.106625 359.932083 
L 155.219121 353.776038 
L 155.444114 363.015269 
L 155.55661 361.854708 
L 155.669107 350.183698 
L 155.781603 352.525034 
L 155.894099 361.288595 
L 156.006596 359.165004 
L 156.231588 362.789829 
L 156.344085 361.291411 
L 156.569078 353.62027 
L 156.79407 358.918882 
L 156.906567 354.138541 
L 157.019063 361.486634 
L 157.244056 355.5842 
L 157.356552 354.777239 
L 157.806538 365.723012 
L 157.919034 358.450794 
L 158.031531 363.902326 
L 158.144027 360.905638 
L 158.256523 365.080333 
L 158.36902 358.585253 
L 158.481516 345.509165 
L 158.594012 351.962251 
L 158.706509 310.781886 
L 158.819005 315.425102 
L 159.043998 287.586123 
L 159.156494 293.624491 
L 159.381487 333.532987 
L 159.493983 333.095933 
L 159.60648 327.972704 
L 159.718976 330.824933 
L 159.831473 340.672165 
L 159.943969 337.568524 
L 160.056465 355.178248 
L 160.168962 349.807063 
L 160.281458 352.932519 
L 160.393954 340.360579 
L 160.506451 341.290349 
L 160.618947 361.585142 
L 160.84394 354.801894 
L 161.068933 366.692285 
L 161.293925 363.161636 
L 161.406422 363.554052 
L 161.518918 362.806389 
L 161.743911 366.949802 
L 161.968904 365.540111 
L 162.306393 356.532395 
L 162.531386 350.153537 
L 162.756378 352.797712 
L 162.981371 365.238837 
L 163.093868 364.43193 
L 163.31886 357.943249 
L 163.543853 361.771137 
L 163.656349 362.983464 
L 163.768846 359.823776 
L 163.881342 363.111419 
L 164.106335 359.932194 
L 164.218831 361.961429 
L 164.331328 357.069603 
L 164.443824 359.390982 
L 164.55632 356.598868 
L 164.781313 345.94218 
L 165.006306 340.276617 
L 165.118802 348.743215 
L 165.231299 346.592087 
L 165.343795 346.969624 
L 165.568788 351.606413 
L 165.793781 347.298341 
L 166.13127 352.608071 
L 166.356262 365.207942 
L 166.468759 363.672478 
L 166.581255 366.534528 
L 166.693752 365.947982 
L 166.918744 359.399755 
L 167.031241 360.350304 
L 167.143737 352.165956 
L 167.256233 353.067904 
L 167.593723 361.349322 
L 167.706219 363.0665 
L 167.818715 358.787074 
L 167.931212 359.460112 
L 168.043708 358.953651 
L 168.156204 359.696514 
L 168.60619 366.797226 
L 168.718686 366.284801 
L 168.831183 364.892807 
L 168.943679 364.907096 
L 169.168672 366.737584 
L 169.281168 362.403274 
L 169.393665 367.907636 
L 169.506161 364.037646 
L 169.731154 365.764753 
L 169.84365 362.043377 
L 169.956147 366.778578 
L 170.068643 366.201011 
L 170.181139 363.413683 
L 170.293636 356.890239 
L 170.631125 362.071286 
L 170.743621 363.194882 
L 170.856118 361.879847 
L 171.08111 367.192599 
L 171.306103 364.540047 
L 171.418599 363.377128 
L 171.531096 360.583928 
L 171.643592 361.442909 
L 172.093578 354.697719 
L 172.31857 342.510017 
L 172.543563 356.290017 
L 172.65606 354.299901 
L 172.881052 356.936335 
L 173.106045 366.330243 
L 173.331038 364.898287 
L 173.443534 366.3045 
L 173.668527 362.818863 
L 173.781023 363.269258 
L 173.89352 354.143618 
L 174.006016 355.279464 
L 174.343505 363.980173 
L 174.456002 365.633375 
L 174.680994 360.968948 
L 174.905987 359.495607 
L 175.018483 360.681306 
L 175.13098 360.039329 
L 175.243476 360.219286 
L 175.355973 356.22982 
L 175.468469 356.473246 
L 175.693462 358.036759 
L 176.030951 360.259822 
L 176.255944 364.113155 
L 176.36844 363.87403 
L 176.480936 362.523669 
L 176.593433 363.040417 
L 176.705929 353.06163 
L 176.818426 353.439774 
L 176.930922 363.651574 
L 177.155915 362.722426 
L 177.380907 354.49616 
L 177.493404 357.574232 
L 177.6059 357.479505 
L 177.718397 357.702749 
L 177.830893 360.407827 
L 177.943389 360.388119 
L 178.055886 362.674124 
L 178.168382 362.078753 
L 178.280878 362.479344 
L 178.393375 358.448452 
L 178.505871 358.55701 
L 178.618368 357.247702 
L 178.84336 352.859237 
L 179.068353 332.668526 
L 179.293346 347.957726 
L 179.405842 348.103157 
L 179.630835 358.278596 
L 179.743331 356.950555 
L 179.855828 353.333306 
L 179.968324 353.568562 
L 180.193317 357.599782 
L 180.305813 360.305928 
L 180.41831 359.987674 
L 180.530806 359.308547 
L 180.643302 360.423509 
L 180.868295 355.775188 
L 180.980791 355.045915 
L 181.318281 346.699058 
L 181.65577 336.39536 
L 181.768266 303.990956 
L 181.880762 304.692492 
L 182.105755 350.180099 
L 182.218252 347.9359 
L 182.330748 354.67585 
L 182.443244 349.372506 
L 182.555741 353.01741 
L 182.668237 352.518155 
L 182.780734 357.150422 
L 182.89323 341.885507 
L 183.005726 346.467167 
L 183.230719 337.797601 
L 183.343215 344.434148 
L 183.455712 337.590139 
L 183.680705 344.023024 
L 183.793201 343.53937 
L 183.905697 346.013923 
L 184.018194 340.023967 
L 184.243186 344.10422 
L 184.355683 342.877373 
L 184.468179 338.803414 
L 184.580676 349.946566 
L 184.693172 346.783524 
L 184.918165 350.416134 
L 185.480647 333.323135 
L 185.593143 335.32196 
L 185.705639 316.220946 
L 185.818136 318.396771 
L 186.155625 356.076176 
L 186.268121 355.490118 
L 186.380618 358.364915 
L 186.60561 347.284332 
L 186.718107 349.249819 
L 186.830603 343.28567 
L 186.943099 345.377618 
L 187.168092 358.669469 
L 187.280589 357.874832 
L 187.393085 348.064704 
L 187.505581 348.789989 
L 187.730574 355.052714 
L 187.84307 345.971272 
L 187.955567 346.982628 
L 188.18056 363.44934 
L 188.293056 363.115528 
L 188.405552 355.033761 
L 188.518049 356.264102 
L 188.743041 362.506859 
L 188.855538 362.652588 
L 189.080531 348.058554 
L 189.41802 335.104399 
L 189.530516 297.646289 
L 189.643013 297.533491 
L 189.868005 350.360345 
L 189.980502 352.389235 
L 190.205494 361.89084 
L 190.317991 360.17074 
L 190.430487 355.924504 
L 190.542984 356.980736 
L 190.65548 351.527779 
L 190.767976 351.834437 
L 191.105465 340.759766 
L 191.217962 322.020826 
L 191.330458 322.973356 
L 191.667947 340.078647 
L 191.780444 367.079659 
L 191.89294 367.218438 
L 192.005436 365.999361 
L 192.117933 340.30232 
L 192.230429 340.393024 
L 192.342926 358.567734 
L 192.455422 357.48063 
L 192.567918 361.250182 
L 192.680415 344.382827 
L 192.792911 345.285353 
L 192.905407 321.227746 
L 193.017904 321.062142 
L 193.355393 307.798067 
L 193.580386 330.171588 
L 193.805378 326.431238 
L 193.917875 327.093559 
L 194.142868 339.666914 
L 194.36786 328.767932 
L 194.480357 329.804308 
L 194.930342 352.256419 
L 195.042839 353.187244 
L 195.155335 339.610699 
L 195.267831 339.919846 
L 195.492824 349.65049 
L 195.605321 349.646574 
L 195.717817 358.255918 
L 195.830313 357.332367 
L 196.055306 359.835626 
L 196.167802 359.061457 
L 196.617788 249.032778 
L 196.730284 248.889674 
L 196.842781 227.885785 
L 196.955277 228.543356 
L 197.18027 341.676555 
L 197.630255 345.408818 
L 197.742752 344.787186 
L 197.855248 345.804011 
L 197.967744 359.114169 
L 198.080241 358.079473 
L 198.192737 359.252419 
L 198.41773 357.965992 
L 198.642723 331.907461 
L 198.755219 337.483579 
L 198.867715 333.923169 
L 198.980212 334.50074 
L 199.205205 340.145238 
L 199.317701 341.876046 
L 199.430197 283.492945 
L 199.542694 285.234769 
L 199.767686 338.664585 
L 199.880183 340.297203 
L 199.992679 331.41916 
L 200.105176 333.390347 
L 200.217672 349.944383 
L 200.330168 349.605456 
L 200.442665 352.070969 
L 200.555161 343.072954 
L 200.667657 345.061595 
L 200.780154 283.797752 
L 200.89265 285.338654 
L 201.117643 312.353992 
L 201.230139 313.574843 
L 201.680125 359.521862 
L 201.792621 360.457857 
L 201.905118 321.303071 
L 202.017614 323.483536 
L 202.242607 207.034283 
L 202.355103 209.037222 
L 202.580096 135.445844 
L 202.692592 134.112279 
L 202.917585 329.999138 
L 203.030081 340.353318 
L 203.142578 337.934414 
L 203.367571 346.454523 
L 203.480067 344.638272 
L 203.930052 289.582787 
L 204.042549 289.955489 
L 204.155045 318.879313 
L 204.267542 316.069266 
L 204.605031 247.244722 
L 204.830023 337.255602 
L 204.94252 352.279654 
L 205.167513 340.561764 
L 205.392505 364.252287 
L 205.842491 273.421854 
L 205.954987 274.537361 
L 206.067484 340.44098 
L 206.292476 303.180503 
L 206.404973 320.815336 
L 206.517469 319.8498 
L 206.742462 337.772089 
L 206.854958 337.271197 
L 206.967455 348.898643 
L 207.079951 348.374351 
L 207.192447 348.510735 
L 207.41744 347.9751 
L 207.529936 346.299854 
L 207.642433 346.284927 
L 207.867426 356.715542 
L 207.979922 356.523118 
L 208.092418 358.20122 
L 208.317411 357.948355 
L 208.542404 355.844261 
L 208.6549 342.737604 
L 208.767397 342.933738 
L 208.879893 359.34729 
L 208.992389 339.672249 
L 209.104886 339.652294 
L 209.217382 288.025278 
L 209.329879 288.093887 
L 209.554871 315.612203 
L 209.667368 315.838057 
L 209.779864 362.280496 
L 209.89236 362.347776 
L 210.004857 365.841003 
L 210.117353 365.484253 
L 210.22985 365.525633 
L 210.342346 355.570707 
L 210.454842 355.680726 
L 210.679835 354.631714 
L 210.792331 354.714232 
L 210.904828 342.990338 
L 211.017324 343.070293 
L 211.242317 356.526565 
L 211.354813 356.547999 
L 211.579806 359.167605 
L 211.804799 351.368385 
L 211.917295 351.478185 
L 212.029792 355.174877 
L 212.142288 355.211767 
L 212.254784 358.148048 
L 212.367281 350.597527 
L 212.479777 350.656433 
L 212.70477 359.619583 
L 212.817266 361.06341 
L 212.929763 359.770945 
L 213.042259 359.818434 
L 213.154755 347.443368 
L 213.267252 347.430277 
L 213.604741 340.408486 
L 213.829734 340.248594 
L 214.054726 364.7201 
L 214.167223 364.723264 
L 214.279719 346.481095 
L 214.392215 346.509405 
L 214.504712 361.512259 
L 214.617208 359.5805 
L 214.729705 359.571675 
L 214.842201 352.9892 
L 214.954697 353.019019 
L 215.067194 364.827241 
L 215.17969 351.425859 
L 215.292187 354.915207 
L 215.404683 345.696924 
L 215.629676 348.821341 
L 215.854668 329.67062 
L 216.079661 336.922748 
L 216.304654 338.029018 
L 216.41715 283.83242 
L 216.529647 283.47421 
L 216.642143 316.744394 
L 216.754639 316.610281 
L 216.867136 363.500328 
L 216.979632 363.842407 
L 217.092129 366.333704 
L 217.317121 360.407436 
L 217.542114 359.792181 
L 217.65461 341.981927 
L 217.767107 342.385378 
L 217.9921 352.012224 
L 218.104596 348.433082 
L 218.442085 323.724332 
L 218.554581 328.19662 
L 218.667078 325.298469 
L 218.779574 349.997735 
L 218.892071 348.246283 
L 219.22956 327.81149 
L 219.342056 326.29551 
L 219.454552 329.515433 
L 219.792042 359.282596 
L 220.017034 316.567707 
L 220.129531 319.591488 
L 220.354523 245.954555 
L 220.579516 309.867437 
L 220.692013 307.344097 
L 220.917005 350.699554 
L 221.366991 319.770097 
L 221.479487 322.425258 
L 221.70448 333.259405 
L 221.816976 330.689148 
L 221.929473 338.269449 
L 222.154466 336.353366 
L 222.379458 335.427103 
L 222.491955 299.248301 
L 222.604451 299.391502 
L 222.716947 326.991646 
L 222.94194 281.598704 
L 223.054437 303.820999 
L 223.166933 302.638295 
L 223.391926 353.39067 
L 223.504422 351.575016 
L 223.616918 339.109431 
L 223.841911 340.930329 
L 223.954408 323.409274 
L 224.066904 324.572389 
L 224.404393 348.665853 
L 224.516889 352.828065 
L 224.629386 350.648552 
L 224.854379 362.207874 
L 225.191868 353.00959 
L 225.41686 357.73129 
L 225.529357 354.36764 
L 225.75435 335.320047 
L 225.979342 342.893054 
L 226.091839 340.78513 
L 226.316831 318.996715 
L 226.541824 333.702815 
L 226.654321 333.589871 
L 226.766817 310.190606 
L 226.879313 314.085825 
L 227.104306 303.874564 
L 227.216802 307.737643 
L 227.441795 338.518816 
L 227.554292 340.66414 
L 227.666788 324.51893 
L 227.779284 327.899788 
L 228.004277 283.011202 
L 228.22927 349.229602 
L 228.341766 346.509903 
L 228.454263 330.662869 
L 228.566759 333.221491 
L 228.679255 329.759804 
L 228.791752 313.196491 
L 228.904248 315.706265 
L 229.016745 286.490247 
L 229.129241 288.619085 
L 229.241737 315.424959 
L 229.46673 227.163012 
L 229.691723 251.131756 
L 229.916716 334.965345 
L 230.029212 333.28749 
L 230.141708 335.576389 
L 230.254205 327.233907 
L 230.366701 359.059033 
L 230.479197 316.382735 
L 230.591694 317.301149 
L 230.816687 350.544977 
L 230.929183 354.870446 
L 231.041679 338.798848 
L 231.154176 339.294253 
L 231.266672 254.583084 
L 231.379168 254.192138 
L 231.716658 241.706674 
L 231.829154 316.457325 
L 231.94165 316.252334 
L 232.166643 335.379784 
L 232.279139 335.653214 
L 232.391636 323.832879 
L 232.504132 323.900759 
L 232.729125 340.406116 
L 232.841621 340.454789 
L 232.954118 346.846752 
L 233.066614 314.169914 
L 233.17911 354.606062 
L 233.404103 337.5623 
L 233.5166 224.553583 
L 233.741592 228.944429 
L 233.966585 243.826301 
L 234.191578 364.778297 
L 234.641563 301.099819 
L 234.75406 293.859415 
L 234.979053 356.747165 
L 235.091549 353.545019 
L 235.204045 342.467893 
L 235.316542 345.063263 
L 235.541534 256.758965 
L 235.654031 258.775077 
L 235.766527 333.875676 
L 235.879024 328.255413 
L 236.104016 342.362083 
L 236.329009 335.117831 
L 236.441505 338.376456 
L 236.554002 358.006225 
L 236.778995 342.598589 
L 236.891491 359.610276 
L 237.116484 356.211497 
L 237.453973 343.032363 
L 237.566469 340.472525 
L 237.678966 353.403452 
L 237.903958 338.704518 
L 238.128951 352.497466 
L 238.46644 325.609616 
L 238.578937 342.100456 
L 238.691433 335.350208 
L 238.916426 351.794165 
L 239.028922 348.299501 
L 239.141418 348.86112 
L 239.253915 348.393756 
L 239.591404 318.942602 
L 239.928893 203.56523 
L 240.041389 110.457114 
L 240.153886 112.175254 
L 240.266382 343.684962 
L 240.378879 344.809725 
L 240.491375 358.192186 
L 240.603871 338.065292 
L 240.716368 340.031026 
L 240.94136 351.85434 
L 241.053857 356.67842 
L 241.166353 349.568607 
L 241.27885 352.525026 
L 241.503842 365.196161 
L 241.616339 365.13503 
L 241.728835 364.72791 
L 241.841332 362.807867 
L 242.066324 353.87525 
L 242.291317 362.177264 
L 242.51631 360.17245 
L 242.628806 361.188603 
L 242.741303 365.624808 
L 242.853799 364.125703 
L 242.966295 360.562004 
L 243.078792 364.779249 
L 243.191288 362.465844 
L 243.303784 362.521474 
L 243.416281 351.214497 
L 243.528777 354.046275 
L 243.641274 360.716383 
L 243.75377 360.695577 
L 243.866266 366.824914 
L 243.978763 362.324153 
L 244.091259 363.050668 
L 244.203755 333.535256 
L 244.316252 333.61376 
L 244.428748 362.260455 
L 244.653741 335.197291 
L 244.766237 351.647692 
L 244.878734 350.138088 
L 244.99123 356.410997 
L 245.216223 346.086335 
L 245.328719 359.726601 
L 245.441216 357.654758 
L 245.553712 364.070884 
L 245.666208 359.515119 
L 245.778705 360.358976 
L 245.891201 355.380977 
L 246.003697 356.441991 
L 246.22869 342.90721 
L 246.341187 347.267945 
L 246.453683 360.140465 
L 246.566179 356.179225 
L 246.791172 360.076325 
L 247.128661 347.016866 
L 247.241158 364.638631 
L 247.353654 349.898606 
L 247.578647 353.651648 
L 247.691143 351.07734 
L 247.80364 357.914539 
L 247.916136 330.949841 
L 248.028632 333.188794 
L 248.141129 307.041163 
L 248.253625 308.789901 
L 248.478618 349.123667 
L 248.703611 329.340602 
L 248.816107 333.234773 
L 248.928603 349.064503 
L 249.153596 292.380683 
L 249.266092 292.508262 
L 249.378589 295.299993 
L 249.491085 351.739538 
L 249.716078 270.347185 
L 249.941071 331.383403 
L 250.166063 347.072634 
L 250.503553 343.374121 
L 250.616049 351.638697 
L 250.841042 348.887315 
L 250.953538 358.307035 
L 251.178531 356.621804 
L 251.403524 351.169336 
L 251.628516 362.058626 
L 251.741013 362.102194 
L 251.966005 356.759182 
L 252.078502 354.795302 
L 252.190998 347.03084 
L 252.303495 352.355583 
L 252.640984 345.886783 
L 252.75348 341.286955 
L 253.090969 304.977866 
L 253.315962 339.314404 
L 253.428458 335.319773 
L 253.540955 285.505053 
L 253.653451 291.694064 
L 253.878444 246.746725 
L 254.103437 305.560569 
L 254.215933 301.822594 
L 254.440926 274.988133 
L 254.778415 344.499218 
L 254.890911 346.610998 
L 255.003408 354.369593 
L 255.115904 351.965326 
L 255.2284 345.921834 
L 255.340897 351.58014 
L 255.453393 340.541007 
L 255.678386 351.167882 
L 255.790882 346.734629 
L 255.903379 347.565056 
L 256.015875 360.220089 
L 256.240868 357.065131 
L 256.353364 346.736863 
L 256.465861 351.178556 
L 256.578357 350.789418 
L 256.80335 336.818214 
L 257.140839 314.475196 
L 257.253335 313.569975 
L 257.590824 351.445818 
L 257.703321 345.760324 
L 257.928313 354.928251 
L 258.153306 359.756471 
L 258.265803 357.592232 
L 258.715788 363.531643 
L 258.940781 349.577061 
L 259.053277 349.683729 
L 259.390766 346.244978 
L 259.503263 339.175643 
L 259.615759 353.572372 
L 259.840752 351.104186 
L 260.065745 340.659754 
L 260.403234 331.139847 
L 260.51573 335.290673 
L 260.628226 332.63713 
L 260.740723 345.325439 
L 260.853219 338.546811 
L 260.965716 341.655558 
L 261.303205 361.725077 
L 261.415701 360.198072 
L 261.528198 355.890519 
L 261.640694 347.297102 
L 261.865687 351.041314 
L 261.978183 339.417104 
L 262.090679 344.33602 
L 262.203176 333.827603 
L 262.315672 339.879655 
L 262.428169 357.315234 
L 262.653161 328.307797 
L 262.765658 311.178117 
L 262.878154 316.122098 
L 262.99065 363.825342 
L 263.215643 312.744182 
L 263.440636 344.828007 
L 263.553132 345.935633 
L 263.778125 354.729382 
L 263.890621 354.053039 
L 264.003118 353.325766 
L 264.115614 362.595725 
L 264.228111 357.818595 
L 264.340607 362.755334 
L 264.5656 351.519923 
L 264.678096 352.916674 
L 264.790592 351.104075 
L 264.903089 345.184184 
L 265.015585 355.285971 
L 265.128082 351.923025 
L 265.353074 362.884546 
L 265.465571 362.239926 
L 265.578067 342.649444 
L 265.690563 343.225415 
L 266.028053 359.424149 
L 266.140549 352.82132 
L 266.365542 363.606168 
L 266.478038 364.558895 
L 266.703031 360.262312 
L 266.815527 360.355033 
L 266.928024 361.783475 
L 267.153016 347.987342 
L 267.265513 350.984658 
L 267.378009 348.899854 
L 267.603002 365.697214 
L 267.715498 362.346816 
L 267.940491 352.177241 
L 268.27798 362.08626 
L 268.390477 359.939587 
L 268.502973 361.548129 
L 268.727966 349.695812 
L 268.840462 354.473891 
L 268.952958 352.693813 
L 269.065455 359.028394 
L 269.290448 348.686227 
L 269.402944 351.338404 
L 269.51544 358.156605 
L 269.627937 357.152656 
L 269.740433 362.812949 
L 269.965426 355.497052 
L 270.302915 360.53445 
L 270.415411 358.331466 
L 270.640404 360.875945 
L 270.7529 366.457013 
L 270.977893 365.385861 
L 271.09039 361.586095 
L 271.202886 364.285693 
L 271.315382 363.761475 
L 271.427879 364.701773 
L 271.540375 357.265972 
L 271.652871 361.136289 
L 271.765368 352.163004 
L 271.990361 359.595974 
L 272.102857 357.824382 
L 272.215353 359.244614 
L 272.32785 351.325122 
L 272.440346 352.470332 
L 272.665339 322.832982 
L 272.777835 330.00408 
L 272.890332 326.545089 
L 273.002828 333.015788 
L 273.340317 367.307607 
L 273.452813 354.371731 
L 273.677806 356.025984 
L 273.902799 349.975948 
L 274.127792 338.513778 
L 274.240288 349.372397 
L 274.577777 282.839304 
L 274.690274 278.897737 
L 274.915266 359.137909 
L 275.027763 362.759968 
L 275.140259 360.920528 
L 275.590245 343.401744 
L 275.815237 323.055646 
L 275.927734 357.501348 
L 276.152727 338.252886 
L 276.265223 350.36621 
L 276.377719 347.870823 
L 276.602712 353.711093 
L 276.715208 350.802902 
L 276.940201 322.850285 
L 277.165194 364.274965 
L 277.27769 361.495816 
L 277.390187 339.869517 
L 277.502683 342.381547 
L 277.727676 357.497059 
L 277.840172 350.773148 
L 277.952669 355.084443 
L 278.065165 351.739326 
L 278.177661 363.45622 
L 278.290158 341.608027 
L 278.402654 344.735695 
L 278.51515 341.939953 
L 278.627647 346.471606 
L 278.85264 358.847182 
L 278.965136 356.756175 
L 279.302625 360.861206 
L 279.527618 353.812891 
L 279.640114 352.714105 
L 279.752611 350.395728 
L 279.977603 352.567101 
L 280.0901 351.289086 
L 280.315093 340.14956 
L 280.427589 341.369741 
L 280.540085 341.286627 
L 280.652582 338.03227 
L 280.765078 361.942242 
L 281.102567 354.443879 
L 281.215064 356.047083 
L 281.32756 361.034195 
L 281.440056 360.061543 
L 281.552553 364.230997 
L 281.777545 348.527793 
L 282.002538 348.465123 
L 282.227531 353.800665 
L 282.340027 350.565509 
L 282.452524 361.961477 
L 282.56502 359.137722 
L 282.790013 362.66028 
L 282.902509 358.397048 
L 283.015006 362.226285 
L 283.127502 360.938411 
L 283.239998 364.996057 
L 283.352495 361.602419 
L 283.464991 364.209804 
L 283.689984 343.518166 
L 283.80248 364.011202 
L 283.914977 344.55332 
L 284.027473 347.005243 
L 284.139969 336.864689 
L 284.364962 343.027227 
L 284.589955 348.568066 
L 284.814948 358.797037 
L 285.03994 365.381473 
L 285.152437 363.592451 
L 285.489926 367.045187 
L 285.602422 366.716211 
L 285.714919 367.512102 
L 285.827415 361.377073 
L 285.939911 362.695857 
L 286.164904 348.750274 
L 286.2774 349.421487 
L 286.389897 348.691734 
L 286.61489 350.779366 
L 286.839882 324.757478 
L 286.952379 354.910925 
L 287.064875 354.404787 
L 287.177372 364.206128 
L 287.289868 361.273723 
L 287.402364 361.449104 
L 287.627357 360.358819 
L 287.85235 361.565854 
L 287.964846 361.31117 
L 288.077343 364.607407 
L 288.302335 363.677781 
L 288.527328 362.383729 
L 288.639824 350.97581 
L 288.752321 351.376869 
L 288.977314 354.008857 
L 289.08981 354.212099 
L 289.314803 360.633404 
L 289.539795 349.615238 
L 289.652292 349.99251 
L 289.764788 340.282713 
L 289.877285 340.172975 
L 290.102277 361.001261 
L 290.214774 360.880237 
L 290.439766 359.951675 
L 290.664759 362.090881 
L 290.777256 361.947904 
L 290.889752 362.189549 
L 291.002248 362.113631 
L 291.114745 362.174026 
L 291.339737 362.006243 
L 291.56473 362.635594 
L 291.789723 361.811703 
L 291.902219 361.977796 
L 292.014716 351.899457 
L 292.127212 352.307228 
L 292.239708 348.899696 
L 292.352205 336.458508 
L 292.464701 336.818764 
L 292.577198 332.804885 
L 292.689694 333.225959 
L 293.027183 319.135207 
L 293.139679 339.251158 
L 293.702161 326.406119 
L 293.814658 325.698729 
L 293.927154 355.148202 
L 294.152147 345.647385 
L 294.264643 309.59425 
L 294.37714 314.140544 
L 294.602132 349.853973 
L 294.714629 354.890708 
L 294.827125 340.114347 
L 294.939622 343.233405 
L 295.164614 328.387664 
L 295.277111 329.680086 
L 295.389607 294.482702 
L 295.502103 297.956377 
L 295.727096 355.194901 
L 295.952089 348.640873 
L 296.064585 352.978475 
L 296.289578 320.792528 
L 296.402074 324.937916 
L 296.627067 310.468695 
L 296.85206 307.226242 
L 296.964556 310.374662 
L 297.189549 322.522826 
L 297.302045 353.608803 
L 297.527038 335.380509 
L 297.752031 325.322967 
L 297.977024 334.680219 
L 298.08952 329.202602 
L 298.314513 304.12121 
L 298.539506 349.628147 
L 298.652002 345.313168 
L 298.876995 358.922483 
L 299.101987 336.570499 
L 299.214484 339.471089 
L 299.32698 304.188607 
L 299.439477 303.905825 
L 299.776966 260.034156 
L 299.889462 319.654515 
L 300.001959 319.930243 
L 300.226951 331.49207 
L 300.339448 332.955317 
L 300.451944 326.284127 
L 300.56444 327.057676 
L 300.676937 339.077609 
L 300.90193 331.678609 
L 301.014426 289.435552 
L 301.126922 289.94023 
L 301.239419 356.63899 
L 301.464411 273.184632 
L 301.689404 252.384346 
L 301.914397 265.950163 
L 302.026893 261.96915 
L 302.13939 340.140858 
L 302.251886 336.450196 
L 302.476879 356.082202 
L 302.701872 352.344318 
L 302.814368 352.61932 
L 303.039361 365.589039 
L 303.151857 364.064175 
L 303.714339 336.385658 
L 303.826835 351.077746 
L 303.939332 315.45962 
L 304.051828 341.851496 
L 304.276821 271.468882 
L 304.389317 353.807476 
L 304.501814 353.286503 
L 304.839303 311.977776 
L 305.064295 352.746292 
L 305.176792 354.177068 
L 305.401785 331.280499 
L 305.514281 315.031308 
L 305.626777 314.954597 
L 305.85177 282.62045 
L 305.964266 282.729424 
L 306.076763 336.914292 
L 306.189259 337.52937 
L 306.414252 362.881419 
L 306.526748 363.891511 
L 306.639245 363.765763 
L 306.751741 362.842952 
L 306.864238 363.496533 
L 307.08923 361.889149 
L 307.314223 356.933492 
L 307.539216 361.73019 
L 307.651712 361.241355 
L 307.876705 358.456558 
L 308.101698 362.403687 
L 308.214194 362.147171 
L 308.439187 355.66549 
L 308.776676 349.274933 
L 308.889172 334.238386 
L 309.001669 334.39209 
L 309.339158 267.989886 
L 309.451654 356.146206 
L 309.676647 356.767893 
L 310.126632 344.734294 
L 310.464122 324.093122 
L 310.689114 347.190848 
L 310.801611 360.840341 
L 311.026603 353.093013 
L 311.1391 359.134621 
L 311.251596 358.728165 
L 311.701582 323.889514 
L 311.814078 325.831708 
L 312.039071 346.837083 
L 312.151567 346.054893 
L 312.37656 333.26361 
L 312.489056 339.717652 
L 312.714049 337.936473 
L 312.826546 341.721259 
L 312.939042 341.298361 
L 313.726517 361.311181 
L 313.839013 360.34471 
L 314.064006 328.395531 
L 314.288998 342.924405 
L 314.401495 339.152139 
L 314.738984 355.15615 
L 314.963977 359.025825 
L 315.188969 355.88523 
L 315.301466 356.724123 
L 315.413962 354.274405 
L 315.751451 359.552839 
L 315.976444 336.715011 
L 316.08894 342.277471 
L 316.201437 313.195285 
L 316.313933 317.735271 
L 316.538926 302.17907 
L 316.651422 304.898007 
L 316.763919 302.387346 
L 316.876415 306.555048 
L 316.988911 355.74239 
L 317.213904 280.523692 
L 317.326401 334.288654 
L 317.438897 330.977439 
L 317.66389 348.731698 
L 317.776386 346.513922 
L 317.888882 347.532987 
L 318.001379 349.81558 
L 318.226372 346.095832 
L 318.338868 347.730442 
L 318.451364 361.444391 
L 318.563861 359.492072 
L 318.788853 359.835623 
L 318.90135 358.229214 
L 319.126343 350.109189 
L 319.463832 342.753663 
L 319.576328 335.270088 
L 319.688825 335.208219 
L 319.913817 357.574267 
L 320.026314 358.129344 
L 320.13881 353.354115 
L 320.251306 354.217214 
L 320.476299 359.342863 
L 320.588796 360.194287 
L 320.813788 355.995994 
L 320.926285 361.198454 
L 321.038781 359.595791 
L 321.151277 360.351222 
L 321.37627 364.436593 
L 321.713759 365.210336 
L 321.826256 354.394553 
L 321.938752 354.828475 
L 322.163745 367.086061 
L 322.388738 367.151017 
L 322.501234 367.387532 
L 322.61373 367.136253 
L 322.726227 365.660864 
L 322.838723 365.761394 
L 322.951219 356.748087 
L 323.063716 356.745635 
L 323.288709 365.42821 
L 323.401205 365.638617 
L 323.513701 362.394871 
L 323.626198 362.468542 
L 323.85119 363.172365 
L 323.963687 363.321332 
L 324.301176 365.584635 
L 324.526169 361.425605 
L 324.751161 362.635732 
L 324.976154 356.833426 
L 325.088651 356.911775 
L 325.313643 365.930794 
L 325.42614 366.064363 
L 325.538636 358.070505 
L 325.651132 358.132448 
L 325.763629 367.922818 
L 325.876125 367.994727 
L 326.326111 356.658227 
L 326.438607 356.541292 
L 326.6636 364.653513 
L 326.776096 364.598336 
L 326.888593 367.499968 
L 327.113585 367.484554 
L 327.226082 367.377845 
L 327.338578 367.454843 
L 327.451075 366.353902 
L 327.563571 366.379098 
L 327.788564 363.261184 
L 327.90106 363.306949 
L 328.126053 365.589551 
L 328.351046 362.283416 
L 328.463542 362.32926 
L 328.576038 355.521289 
L 328.688535 355.600369 
L 328.801031 365.818593 
L 328.913527 357.694117 
L 329.026024 357.660914 
L 329.13852 346.203361 
L 329.251017 346.322468 
L 329.363513 364.821423 
L 329.476009 341.053714 
L 329.588506 341.071038 
L 329.701002 363.697518 
L 329.813498 363.681842 
L 329.925995 364.600677 
L 330.038491 362.275039 
L 330.150988 362.329657 
L 330.263484 359.584988 
L 330.37598 359.653634 
L 330.488477 365.216572 
L 330.600973 355.453651 
L 330.713469 355.445596 
L 330.825966 364.527902 
L 330.938462 364.551974 
L 331.050959 365.364066 
L 331.275951 364.426991 
L 331.388448 363.847777 
L 331.500944 362.299915 
L 331.61344 362.413702 
L 331.725937 361.823478 
L 331.838433 359.98121 
L 331.95093 354.883047 
L 332.175922 362.323997 
L 332.400915 351.761808 
L 332.513412 350.642019 
L 332.625908 353.990438 
L 332.850901 365.725858 
L 332.963397 364.20754 
L 333.075893 367.394052 
L 333.300886 365.812098 
L 333.413383 365.813225 
L 333.863368 354.093084 
L 334.313354 337.116175 
L 334.42585 364.521566 
L 334.538346 332.937926 
L 334.650843 334.412997 
L 334.875835 304.45067 
L 335.100828 359.045872 
L 335.213325 357.982253 
L 335.325821 363.231745 
L 335.438317 363.186569 
L 335.550814 363.4754 
L 335.66331 361.964744 
L 335.775806 362.557159 
L 335.888303 356.765764 
L 336.000799 358.088056 
L 336.338288 366.051664 
L 336.563281 364.479388 
L 336.788274 343.934677 
L 336.90077 344.758548 
L 337.013267 359.906375 
L 337.238259 359.623053 
L 337.463252 351.550174 
L 337.688245 359.555034 
L 337.913238 364.71275 
L 338.025734 364.892849 
L 338.13823 360.281372 
L 338.250727 360.484987 
L 338.363223 361.024102 
L 338.475719 359.984983 
L 338.588216 364.691691 
L 338.813209 339.996449 
L 338.925705 363.137478 
L 339.038201 339.766456 
L 339.150698 343.376305 
L 339.375691 355.337394 
L 339.71318 361.823417 
L 339.825676 349.67267 
L 339.938172 350.671485 
L 340.163165 362.616754 
L 340.275662 361.672896 
L 340.388158 362.781861 
L 340.613151 360.329595 
L 340.95064 364.551497 
L 341.063136 365.003802 
L 341.175633 364.597275 
L 341.288129 362.123154 
L 341.400625 363.485022 
L 341.513122 360.894955 
L 341.625618 361.291581 
L 341.850611 347.752899 
L 341.963107 348.314412 
L 342.075604 363.530418 
L 342.1881 363.643196 
L 342.300596 365.518534 
L 342.413093 358.343124 
L 342.525589 358.586589 
L 342.638085 349.78455 
L 342.750582 350.409189 
L 342.975575 357.870532 
L 343.088071 358.462519 
L 343.200567 366.573094 
L 343.313064 366.38748 
L 343.42556 367.343765 
L 343.538056 367.316195 
L 343.650553 367.5206 
L 343.763049 360.340468 
L 343.875546 360.531145 
L 344.100538 363.781253 
L 344.213035 363.805025 
L 344.325531 360.508354 
L 344.438027 349.169259 
L 344.550524 363.896159 
L 344.66302 343.464751 
L 344.775517 343.731007 
L 344.888013 328.455857 
L 345.000509 328.583515 
L 345.113006 332.547222 
L 345.225502 322.722237 
L 345.337999 323.079621 
L 345.562991 351.362357 
L 345.675488 351.638597 
L 345.90048 344.050721 
L 346.23797 321.150399 
L 346.350466 316.592287 
L 346.462962 317.509754 
L 346.687955 348.245832 
L 346.912948 301.252707 
L 347.025444 303.180291 
L 347.250437 345.625754 
L 347.47543 273.783269 
L 347.587926 275.790286 
L 347.700422 293.53814 
L 347.812919 293.354153 
L 348.037912 352.12419 
L 348.150408 350.074039 
L 348.487897 327.591146 
L 348.600393 310.324854 
L 348.71289 311.633186 
L 348.825386 302.350492 
L 348.937883 305.374909 
L 349.050379 342.768692 
L 349.162875 335.903721 
L 349.275372 337.561816 
L 349.387868 263.288657 
L 349.500364 262.879173 
L 349.612861 335.402277 
L 349.837854 312.882738 
L 349.95035 333.500562 
L 350.062846 331.461042 
L 350.175343 332.029525 
L 350.400335 327.552616 
L 350.625328 359.705409 
L 350.850321 354.695233 
L 350.962817 359.380235 
L 351.075314 272.725921 
L 351.18781 275.92936 
L 351.412803 327.444415 
L 351.525299 331.026232 
L 351.637796 343.366296 
L 351.750292 336.665423 
L 352.087781 295.839193 
L 352.312774 316.570753 
L 352.42527 310.652587 
L 352.537767 261.789937 
L 352.762759 263.187503 
L 352.875256 264.104025 
L 353.212745 364.206491 
L 353.550234 307.615301 
L 353.775227 268.720921 
L 354.112716 307.073772 
L 354.337709 333.542345 
L 354.562701 334.287578 
L 354.787694 345.837502 
L 354.900191 343.720305 
L 355.012687 356.143613 
L 355.125183 350.965678 
L 355.462672 321.437054 
L 355.800162 362.550094 
L 356.025154 349.983508 
L 356.137651 350.52043 
L 356.47514 338.846335 
L 356.587636 336.896287 
L 356.700133 301.939579 
L 356.812629 302.096371 
L 357.037622 318.582261 
L 357.150118 318.492899 
L 357.262614 285.96403 
L 357.375111 287.68141 
L 357.600104 319.745321 
L 357.7126 320.182907 
L 357.937593 301.670991 
L 358.162585 304.596941 
L 358.275082 303.29773 
L 358.387578 318.060477 
L 358.500075 317.391415 
L 358.837564 311.669683 
L 358.95006 323.046283 
L 359.062557 323.024311 
L 359.400046 317.402779 
L 359.625038 337.752621 
L 359.850031 299.370747 
L 359.962528 304.348684 
L 360.075024 291.203645 
L 360.18752 298.735052 
L 360.412513 336.750836 
L 360.525009 338.539852 
L 360.637506 352.949239 
L 360.750002 353.052233 
L 360.974995 337.129335 
L 361.087491 338.749202 
L 361.199988 256.597946 
L 361.312484 258.796824 
L 361.42498 326.627106 
L 361.537477 236.478529 
L 361.649973 235.574541 
L 361.874966 323.129676 
L 362.099959 290.94067 
L 362.212455 292.416934 
L 362.437448 336.329741 
L 362.549944 345.620514 
L 362.774937 295.928007 
L 362.887433 289.960059 
L 363.112426 354.905347 
L 363.224922 359.551691 
L 363.337419 335.424821 
L 363.449915 337.79645 
L 363.787404 311.557897 
L 363.899901 217.355193 
L 364.124893 218.985483 
L 364.349886 191.164488 
L 364.462383 351.996412 
L 364.574879 348.488931 
L 364.687375 360.925211 
L 364.912368 330.300438 
L 365.137361 316.105874 
L 365.362354 343.626506 
L 365.47485 338.761214 
L 365.699843 300.837228 
L 365.924836 351.256654 
L 366.037332 358.716464 
L 366.149828 350.033304 
L 366.262325 356.517266 
L 366.487317 325.89873 
L 366.599814 330.021024 
L 366.71231 290.184957 
L 366.824807 290.827476 
L 367.049799 318.920005 
L 367.162296 319.192541 
L 367.387288 352.198146 
L 367.612281 363.860781 
L 367.837274 359.077283 
L 367.94977 363.643756 
L 368.062267 362.82685 
L 368.287259 355.151172 
L 368.399756 357.024516 
L 368.512252 353.520227 
L 368.624749 353.552165 
L 368.737245 352.483053 
L 368.849741 353.505955 
L 368.962238 347.407889 
L 369.074734 352.78776 
L 369.18723 352.431548 
L 369.412223 318.510878 
L 369.52472 349.927803 
L 369.637216 346.667627 
L 369.749712 353.083142 
L 369.974705 345.321847 
L 370.199698 357.473359 
L 370.424691 318.888103 
L 370.537187 320.449521 
L 370.649683 326.02496 
L 370.76218 320.798295 
L 370.874676 308.4697 
L 370.987172 254.576327 
L 371.099669 259.175514 
L 371.212165 180.309989 
L 371.324662 185.89973 
L 371.662151 270.11905 
L 371.887144 304.107824 
L 372.112136 323.259888 
L 372.224633 323.916753 
L 372.337129 320.451948 
L 372.449625 320.647849 
L 372.674618 347.20335 
L 372.787115 349.972439 
L 372.899611 322.664775 
L 373.012107 323.131271 
L 373.124604 322.76603 
L 373.2371 301.396813 
L 373.349596 303.557013 
L 373.574589 334.07348 
L 373.799582 230.703497 
L 373.912078 231.637183 
L 374.024575 242.227254 
L 374.137071 241.83436 
L 374.362064 348.498363 
L 374.47456 349.839096 
L 374.587057 290.77571 
L 374.699553 291.260136 
L 374.812049 331.548642 
L 375.037042 256.934831 
L 375.149538 311.520904 
L 375.262035 306.246625 
L 375.487028 309.018871 
L 375.599524 304.483449 
L 375.824517 345.095319 
L 376.049509 283.893309 
L 376.162006 285.123056 
L 376.386999 319.835689 
L 376.611991 271.351355 
L 376.724488 274.67185 
L 376.836984 319.324863 
L 376.94948 316.66315 
L 377.061977 335.075571 
L 377.28697 331.415718 
L 377.511962 348.071689 
L 377.736955 288.5715 
L 377.849452 290.624478 
L 378.074444 238.534222 
L 378.299437 315.223709 
L 378.411933 315.874401 
L 378.52443 312.044443 
L 378.636926 313.984165 
L 378.749423 310.808264 
L 378.861919 271.311388 
L 378.974415 271.488925 
L 379.086912 331.31384 
L 379.199408 329.831412 
L 379.536897 263.08343 
L 379.649394 346.513328 
L 379.874386 343.529357 
L 380.099379 336.603394 
L 380.211875 342.267585 
L 380.324372 341.823436 
L 380.436868 349.609503 
L 380.549365 311.743387 
L 380.661861 311.963634 
L 380.774357 335.141912 
L 380.886854 334.995964 
L 380.99935 332.411961 
L 381.224343 319.753297 
L 381.449336 356.261908 
L 381.561832 334.072236 
L 381.786825 285.924799 
L 382.011817 298.042418 
L 382.124314 351.43863 
L 382.23681 316.458227 
L 382.349307 316.881728 
L 382.461803 319.600118 
L 382.574299 319.025415 
L 382.686796 354.250178 
L 383.024285 285.541185 
L 383.136781 286.996638 
L 383.249278 309.520244 
L 383.699263 288.346269 
L 383.811759 316.161772 
L 384.036752 303.004937 
L 384.261745 357.065984 
L 384.486738 350.067513 
L 384.599234 352.776263 
L 384.711731 297.112707 
L 384.824227 296.572631 
L 385.04922 337.708563 
L 385.161716 340.273503 
L 385.274212 306.971966 
L 385.386709 307.311918 
L 385.611702 285.89889 
L 385.724198 290.338716 
L 385.836694 269.996231 
L 385.949191 273.013366 
L 386.174183 366.6217 
L 386.28668 363.298192 
L 386.399176 283.17706 
L 386.511673 286.18151 
L 386.624169 306.811776 
L 386.849162 243.990147 
L 387.074154 330.115307 
L 387.299147 319.314937 
L 387.411644 321.322966 
L 387.636636 336.803203 
L 387.749133 331.781889 
L 387.861629 302.34197 
L 387.974125 303.881121 
L 388.086622 320.508705 
L 388.199118 320.045004 
L 388.311615 356.385963 
L 388.7616 294.757537 
L 388.874096 355.972097 
L 388.986593 318.9731 
L 389.099089 321.192529 
L 389.211586 334.447979 
L 389.324082 333.543251 
L 389.774067 257.683904 
L 389.886564 70.689273 
L 390.111557 330.549261 
L 390.224053 330.296697 
L 390.449046 300.448746 
L 390.561542 358.124023 
L 390.786535 305.8688 
L 390.899031 280.535717 
L 391.011528 280.443883 
L 391.124024 337.678958 
L 391.23652 336.65793 
L 391.349017 338.147926 
L 391.461513 160.661705 
L 391.57401 161.985557 
L 391.799002 359.107884 
L 391.911499 360.742665 
L 392.023995 279.441789 
L 392.136491 280.770209 
L 392.248988 350.167626 
L 392.361484 251.687238 
L 392.473981 250.645066 
L 392.586477 253.555075 
L 392.698973 252.444501 
L 393.036462 242.238649 
L 393.148959 316.488703 
L 393.261455 316.180859 
L 393.486448 363.689368 
L 393.598944 363.886924 
L 393.711441 332.404638 
L 393.823937 332.098708 
L 394.161426 320.089435 
L 394.386419 355.255946 
L 394.498915 352.973037 
L 394.723908 337.681898 
L 394.948901 357.108305 
L 395.061397 362.734291 
L 395.28639 358.897191 
L 395.398886 335.780493 
L 395.623879 342.814942 
L 395.736375 340.627448 
L 395.848872 341.818521 
L 396.073865 345.25073 
L 396.52385 229.194152 
L 396.636346 227.478584 
L 396.861339 287.368315 
L 396.973836 285.925349 
L 397.311325 344.547958 
L 397.536318 313.172524 
L 397.648814 117.189814 
L 397.76131 115.140933 
L 397.986303 248.015274 
L 398.098799 246.258044 
L 398.211296 317.916009 
L 398.323792 316.255775 
L 398.436289 355.952659 
L 398.548785 328.15452 
L 398.661281 329.595266 
L 398.773778 326.902316 
L 398.99877 329.266694 
L 399.111267 264.353535 
L 399.223763 265.925783 
L 399.33626 364.426065 
L 399.561252 364.639726 
L 400.123734 350.722518 
L 400.236231 329.177381 
L 400.348727 329.465155 
L 400.461223 359.088118 
L 400.57372 359.182531 
L 400.686216 356.844994 
L 400.911209 341.718103 
L 401.136202 360.408256 
L 401.248698 358.261708 
L 401.586187 314.799101 
L 401.698683 314.274801 
L 401.81118 356.049121 
L 401.923676 290.338732 
L 402.036173 291.176337 
L 402.148669 266.165159 
L 402.261165 267.131072 
L 402.598654 285.777345 
L 402.711151 268.911985 
L 402.823647 269.708949 
L 403.04864 315.189426 
L 403.161136 315.836034 
L 403.161136 315.836034 
" style="fill:none;stroke:#808080;stroke-linecap:round;stroke-width:1.5;"/>
   </g>
   <g id="line2d_16">
    <path clip-path="url(#pd4ddf1447d)" d="M 69.705 326.696174 
L 419.04 326.696174 
" style="fill:none;stroke:#4c72b0;stroke-linecap:round;stroke-width:2;"/>
   </g>
   <g id="line2d_17">
    <path clip-path="url(#pd4ddf1447d)" d="M 69.705 349.362372 
L 419.04 349.362372 
" style="fill:none;stroke:#55a868;stroke-linecap:round;stroke-width:2;"/>
   </g>
   <g id="line2d_18">
    <path clip-path="url(#pd4ddf1447d)" d="M 69.705 339.962481 
L 419.04 339.962481 
" style="fill:none;stroke:#c44e52;stroke-linecap:round;stroke-width:2;"/>
   </g>
   <g id="patch_4">
    <path d="M 69.705 382.86 
L 69.705 55.824 
" style="fill:none;stroke:#ffffff;stroke-linecap:square;stroke-linejoin:miter;stroke-width:1.25;"/>
   </g>
   <g id="patch_5">
    <path d="M 419.04 382.86 
L 419.04 55.824 
" style="fill:none;stroke:#ffffff;stroke-linecap:square;stroke-linejoin:miter;stroke-width:1.25;"/>
   </g>
   <g id="patch_6">
    <path d="M 69.705 382.86 
L 419.04 382.86 
" style="fill:none;stroke:#ffffff;stroke-linecap:square;stroke-linejoin:miter;stroke-width:1.25;"/>
   </g>
   <g id="patch_7">
    <path d="M 69.705 55.824 
L 419.04 55.824 
" style="fill:none;stroke:#ffffff;stroke-linecap:square;stroke-linejoin:miter;stroke-width:1.25;"/>
   </g>
   <g id="text_17">
    <!-- RPE w.r.t. translation part (m) -->
    <g style="fill:#262626;" transform="translate(155.724375 22.94925)scale(0.12 -0.12)">
     <defs>
      <path d="M 4.203125 54.6875 
L 13.1875 54.6875 
L 24.421875 12.015625 
L 35.59375 54.6875 
L 46.1875 54.6875 
L 57.421875 12.015625 
L 68.609375 54.6875 
L 77.59375 54.6875 
L 63.28125 0 
L 52.6875 0 
L 40.921875 44.828125 
L 29.109375 0 
L 18.5 0 
z
" id="DejaVuSans-119"/>
      <path d="M 41.109375 46.296875 
Q 39.59375 47.171875 37.8125 47.578125 
Q 36.03125 48 33.890625 48 
Q 26.265625 48 22.1875 43.046875 
Q 18.109375 38.09375 18.109375 28.8125 
L 18.109375 0 
L 9.078125 0 
L 9.078125 54.6875 
L 18.109375 54.6875 
L 18.109375 46.1875 
Q 20.953125 51.171875 25.484375 53.578125 
Q 30.03125 56 36.53125 56 
Q 37.453125 56 38.578125 55.875 
Q 39.703125 55.765625 41.0625 55.515625 
z
" id="DejaVuSans-114"/>
      <path d="M 18.3125 70.21875 
L 18.3125 54.6875 
L 36.8125 54.6875 
L 36.8125 47.703125 
L 18.3125 47.703125 
L 18.3125 18.015625 
Q 18.3125 11.328125 20.140625 9.421875 
Q 21.96875 7.515625 27.59375 7.515625 
L 36.8125 7.515625 
L 36.8125 0 
L 27.59375 0 
Q 17.1875 0 13.234375 3.875 
Q 9.28125 7.765625 9.28125 18.015625 
L 9.28125 47.703125 
L 2.6875 47.703125 
L 2.6875 54.6875 
L 9.28125 54.6875 
L 9.28125 70.21875 
z
" id="DejaVuSans-116"/>
      <path d="M 34.28125 27.484375 
Q 23.390625 27.484375 19.1875 25 
Q 14.984375 22.515625 14.984375 16.5 
Q 14.984375 11.71875 18.140625 8.90625 
Q 21.296875 6.109375 26.703125 6.109375 
Q 34.1875 6.109375 38.703125 11.40625 
Q 43.21875 16.703125 43.21875 25.484375 
L 43.21875 27.484375 
z
M 52.203125 31.203125 
L 52.203125 0 
L 43.21875 0 
L 43.21875 8.296875 
Q 40.140625 3.328125 35.546875 0.953125 
Q 30.953125 -1.421875 24.3125 -1.421875 
Q 15.921875 -1.421875 10.953125 3.296875 
Q 6 8.015625 6 15.921875 
Q 6 25.140625 12.171875 29.828125 
Q 18.359375 34.515625 30.609375 34.515625 
L 43.21875 34.515625 
L 43.21875 35.40625 
Q 43.21875 41.609375 39.140625 45 
Q 35.0625 48.390625 27.6875 48.390625 
Q 23 48.390625 18.546875 47.265625 
Q 14.109375 46.140625 10.015625 43.890625 
L 10.015625 52.203125 
Q 14.9375 54.109375 19.578125 55.046875 
Q 24.21875 56 28.609375 56 
Q 40.484375 56 46.34375 49.84375 
Q 52.203125 43.703125 52.203125 31.203125 
z
" id="DejaVuSans-97"/>
      <path d="M 54.890625 33.015625 
L 54.890625 0 
L 45.90625 0 
L 45.90625 32.71875 
Q 45.90625 40.484375 42.875 44.328125 
Q 39.84375 48.1875 33.796875 48.1875 
Q 26.515625 48.1875 22.3125 43.546875 
Q 18.109375 38.921875 18.109375 30.90625 
L 18.109375 0 
L 9.078125 0 
L 9.078125 54.6875 
L 18.109375 54.6875 
L 18.109375 46.1875 
Q 21.34375 51.125 25.703125 53.5625 
Q 30.078125 56 35.796875 56 
Q 45.21875 56 50.046875 50.171875 
Q 54.890625 44.34375 54.890625 33.015625 
z
" id="DejaVuSans-110"/>
      <path d="M 9.421875 75.984375 
L 18.40625 75.984375 
L 18.40625 0 
L 9.421875 0 
z
" id="DejaVuSans-108"/>
      <path d="M 9.421875 54.6875 
L 18.40625 54.6875 
L 18.40625 0 
L 9.421875 0 
z
M 9.421875 75.984375 
L 18.40625 75.984375 
L 18.40625 64.59375 
L 9.421875 64.59375 
z
" id="DejaVuSans-105"/>
      <path d="M 30.609375 48.390625 
Q 23.390625 48.390625 19.1875 42.75 
Q 14.984375 37.109375 14.984375 27.296875 
Q 14.984375 17.484375 19.15625 11.84375 
Q 23.34375 6.203125 30.609375 6.203125 
Q 37.796875 6.203125 41.984375 11.859375 
Q 46.1875 17.53125 46.1875 27.296875 
Q 46.1875 37.015625 41.984375 42.703125 
Q 37.796875 48.390625 30.609375 48.390625 
z
M 30.609375 56 
Q 42.328125 56 49.015625 48.375 
Q 55.71875 40.765625 55.71875 27.296875 
Q 55.71875 13.875 49.015625 6.21875 
Q 42.328125 -1.421875 30.609375 -1.421875 
Q 18.84375 -1.421875 12.171875 6.21875 
Q 5.515625 13.875 5.515625 27.296875 
Q 5.515625 40.765625 12.171875 48.375 
Q 18.84375 56 30.609375 56 
z
" id="DejaVuSans-111"/>
      <path d="M 18.109375 8.203125 
L 18.109375 -20.796875 
L 9.078125 -20.796875 
L 9.078125 54.6875 
L 18.109375 54.6875 
L 18.109375 46.390625 
Q 20.953125 51.265625 25.265625 53.625 
Q 29.59375 56 35.59375 56 
Q 45.5625 56 51.78125 48.09375 
Q 58.015625 40.1875 58.015625 27.296875 
Q 58.015625 14.40625 51.78125 6.484375 
Q 45.5625 -1.421875 35.59375 -1.421875 
Q 29.59375 -1.421875 25.265625 0.953125 
Q 20.953125 3.328125 18.109375 8.203125 
z
M 48.6875 27.296875 
Q 48.6875 37.203125 44.609375 42.84375 
Q 40.53125 48.484375 33.40625 48.484375 
Q 26.265625 48.484375 22.1875 42.84375 
Q 18.109375 37.203125 18.109375 27.296875 
Q 18.109375 17.390625 22.1875 11.75 
Q 26.265625 6.109375 33.40625 6.109375 
Q 40.53125 6.109375 44.609375 11.75 
Q 48.6875 17.390625 48.6875 27.296875 
z
" id="DejaVuSans-112"/>
     </defs>
     <use xlink:href="#DejaVuSans-82"/>
     <use x="69.482422" xlink:href="#DejaVuSans-80"/>
     <use x="129.785156" xlink:href="#DejaVuSans-69"/>
     <use x="192.96875" xlink:href="#DejaVuSans-32"/>
     <use x="224.755859" xlink:href="#DejaVuSans-119"/>
     <use x="297.417969" xlink:href="#DejaVuSans-46"/>
     <use x="329.205078" xlink:href="#DejaVuSans-114"/>
     <use x="361.193359" xlink:href="#DejaVuSans-46"/>
     <use x="392.980469" xlink:href="#DejaVuSans-116"/>
     <use x="432.189453" xlink:href="#DejaVuSans-46"/>
     <use x="463.976562" xlink:href="#DejaVuSans-32"/>
     <use x="495.763672" xlink:href="#DejaVuSans-116"/>
     <use x="534.972656" xlink:href="#DejaVuSans-114"/>
     <use x="576.085938" xlink:href="#DejaVuSans-97"/>
     <use x="637.365234" xlink:href="#DejaVuSans-110"/>
     <use x="700.744141" xlink:href="#DejaVuSans-115"/>
     <use x="752.84375" xlink:href="#DejaVuSans-108"/>
     <use x="780.626953" xlink:href="#DejaVuSans-97"/>
     <use x="841.90625" xlink:href="#DejaVuSans-116"/>
     <use x="881.115234" xlink:href="#DejaVuSans-105"/>
     <use x="908.898438" xlink:href="#DejaVuSans-111"/>
     <use x="970.080078" xlink:href="#DejaVuSans-110"/>
     <use x="1033.458984" xlink:href="#DejaVuSans-32"/>
     <use x="1065.246094" xlink:href="#DejaVuSans-112"/>
     <use x="1128.722656" xlink:href="#DejaVuSans-97"/>
     <use x="1190.001953" xlink:href="#DejaVuSans-114"/>
     <use x="1231.115234" xlink:href="#DejaVuSans-116"/>
     <use x="1270.324219" xlink:href="#DejaVuSans-32"/>
     <use x="1302.111328" xlink:href="#DejaVuSans-40"/>
     <use x="1341.125" xlink:href="#DejaVuSans-109"/>
     <use x="1438.537109" xlink:href="#DejaVuSans-41"/>
    </g>
    <!-- for delta = 1 (frames) using consecutive pairs -->
    <g style="fill:#262626;" transform="translate(106.227188 36.386625)scale(0.12 -0.12)">
     <defs>
      <path d="M 37.109375 75.984375 
L 37.109375 68.5 
L 28.515625 68.5 
Q 23.6875 68.5 21.796875 66.546875 
Q 19.921875 64.59375 19.921875 59.515625 
L 19.921875 54.6875 
L 34.71875 54.6875 
L 34.71875 47.703125 
L 19.921875 47.703125 
L 19.921875 0 
L 10.890625 0 
L 10.890625 47.703125 
L 2.296875 47.703125 
L 2.296875 54.6875 
L 10.890625 54.6875 
L 10.890625 58.5 
Q 10.890625 67.625 15.140625 71.796875 
Q 19.390625 75.984375 28.609375 75.984375 
z
" id="DejaVuSans-102"/>
      <path d="M 45.40625 46.390625 
L 45.40625 75.984375 
L 54.390625 75.984375 
L 54.390625 0 
L 45.40625 0 
L 45.40625 8.203125 
Q 42.578125 3.328125 38.25 0.953125 
Q 33.9375 -1.421875 27.875 -1.421875 
Q 17.96875 -1.421875 11.734375 6.484375 
Q 5.515625 14.40625 5.515625 27.296875 
Q 5.515625 40.1875 11.734375 48.09375 
Q 17.96875 56 27.875 56 
Q 33.9375 56 38.25 53.625 
Q 42.578125 51.265625 45.40625 46.390625 
z
M 14.796875 27.296875 
Q 14.796875 17.390625 18.875 11.75 
Q 22.953125 6.109375 30.078125 6.109375 
Q 37.203125 6.109375 41.296875 11.75 
Q 45.40625 17.390625 45.40625 27.296875 
Q 45.40625 37.203125 41.296875 42.84375 
Q 37.203125 48.484375 30.078125 48.484375 
Q 22.953125 48.484375 18.875 42.84375 
Q 14.796875 37.203125 14.796875 27.296875 
z
" id="DejaVuSans-100"/>
      <path d="M 56.203125 29.59375 
L 56.203125 25.203125 
L 14.890625 25.203125 
Q 15.484375 15.921875 20.484375 11.0625 
Q 25.484375 6.203125 34.421875 6.203125 
Q 39.59375 6.203125 44.453125 7.46875 
Q 49.3125 8.734375 54.109375 11.28125 
L 54.109375 2.78125 
Q 49.265625 0.734375 44.1875 -0.34375 
Q 39.109375 -1.421875 33.890625 -1.421875 
Q 20.796875 -1.421875 13.15625 6.1875 
Q 5.515625 13.8125 5.515625 26.8125 
Q 5.515625 40.234375 12.765625 48.109375 
Q 20.015625 56 32.328125 56 
Q 43.359375 56 49.78125 48.890625 
Q 56.203125 41.796875 56.203125 29.59375 
z
M 47.21875 32.234375 
Q 47.125 39.59375 43.09375 43.984375 
Q 39.0625 48.390625 32.421875 48.390625 
Q 24.90625 48.390625 20.390625 44.140625 
Q 15.875 39.890625 15.1875 32.171875 
z
" id="DejaVuSans-101"/>
      <path d="M 10.59375 45.40625 
L 73.1875 45.40625 
L 73.1875 37.203125 
L 10.59375 37.203125 
z
M 10.59375 25.484375 
L 73.1875 25.484375 
L 73.1875 17.1875 
L 10.59375 17.1875 
z
" id="DejaVuSans-61"/>
      <path d="M 8.5 21.578125 
L 8.5 54.6875 
L 17.484375 54.6875 
L 17.484375 21.921875 
Q 17.484375 14.15625 20.5 10.265625 
Q 23.53125 6.390625 29.59375 6.390625 
Q 36.859375 6.390625 41.078125 11.03125 
Q 45.3125 15.671875 45.3125 23.6875 
L 45.3125 54.6875 
L 54.296875 54.6875 
L 54.296875 0 
L 45.3125 0 
L 45.3125 8.40625 
Q 42.046875 3.421875 37.71875 1 
Q 33.40625 -1.421875 27.6875 -1.421875 
Q 18.265625 -1.421875 13.375 4.4375 
Q 8.5 10.296875 8.5 21.578125 
z
M 31.109375 56 
z
" id="DejaVuSans-117"/>
      <path d="M 45.40625 27.984375 
Q 45.40625 37.75 41.375 43.109375 
Q 37.359375 48.484375 30.078125 48.484375 
Q 22.859375 48.484375 18.828125 43.109375 
Q 14.796875 37.75 14.796875 27.984375 
Q 14.796875 18.265625 18.828125 12.890625 
Q 22.859375 7.515625 30.078125 7.515625 
Q 37.359375 7.515625 41.375 12.890625 
Q 45.40625 18.265625 45.40625 27.984375 
z
M 54.390625 6.78125 
Q 54.390625 -7.171875 48.1875 -13.984375 
Q 42 -20.796875 29.203125 -20.796875 
Q 24.46875 -20.796875 20.265625 -20.09375 
Q 16.0625 -19.390625 12.109375 -17.921875 
L 12.109375 -9.1875 
Q 16.0625 -11.328125 19.921875 -12.34375 
Q 23.78125 -13.375 27.78125 -13.375 
Q 36.625 -13.375 41.015625 -8.765625 
Q 45.40625 -4.15625 45.40625 5.171875 
L 45.40625 9.625 
Q 42.625 4.78125 38.28125 2.390625 
Q 33.9375 0 27.875 0 
Q 17.828125 0 11.671875 7.65625 
Q 5.515625 15.328125 5.515625 27.984375 
Q 5.515625 40.671875 11.671875 48.328125 
Q 17.828125 56 27.875 56 
Q 33.9375 56 38.28125 53.609375 
Q 42.625 51.21875 45.40625 46.390625 
L 45.40625 54.6875 
L 54.390625 54.6875 
z
" id="DejaVuSans-103"/>
      <path d="M 48.78125 52.59375 
L 48.78125 44.1875 
Q 44.96875 46.296875 41.140625 47.34375 
Q 37.3125 48.390625 33.40625 48.390625 
Q 24.65625 48.390625 19.8125 42.84375 
Q 14.984375 37.3125 14.984375 27.296875 
Q 14.984375 17.28125 19.8125 11.734375 
Q 24.65625 6.203125 33.40625 6.203125 
Q 37.3125 6.203125 41.140625 7.25 
Q 44.96875 8.296875 48.78125 10.40625 
L 48.78125 2.09375 
Q 45.015625 0.34375 40.984375 -0.53125 
Q 36.96875 -1.421875 32.421875 -1.421875 
Q 20.0625 -1.421875 12.78125 6.34375 
Q 5.515625 14.109375 5.515625 27.296875 
Q 5.515625 40.671875 12.859375 48.328125 
Q 20.21875 56 33.015625 56 
Q 37.15625 56 41.109375 55.140625 
Q 45.0625 54.296875 48.78125 52.59375 
z
" id="DejaVuSans-99"/>
      <path d="M 2.984375 54.6875 
L 12.5 54.6875 
L 29.59375 8.796875 
L 46.6875 54.6875 
L 56.203125 54.6875 
L 35.6875 0 
L 23.484375 0 
z
" id="DejaVuSans-118"/>
     </defs>
     <use xlink:href="#DejaVuSans-102"/>
     <use x="35.205078" xlink:href="#DejaVuSans-111"/>
     <use x="96.386719" xlink:href="#DejaVuSans-114"/>
     <use x="137.5" xlink:href="#DejaVuSans-32"/>
     <use x="169.287109" xlink:href="#DejaVuSans-100"/>
     <use x="232.763672" xlink:href="#DejaVuSans-101"/>
     <use x="294.287109" xlink:href="#DejaVuSans-108"/>
     <use x="322.070312" xlink:href="#DejaVuSans-116"/>
     <use x="361.279297" xlink:href="#DejaVuSans-97"/>
     <use x="422.558594" xlink:href="#DejaVuSans-32"/>
     <use x="454.345703" xlink:href="#DejaVuSans-61"/>
     <use x="538.134766" xlink:href="#DejaVuSans-32"/>
     <use x="569.921875" xlink:href="#DejaVuSans-49"/>
     <use x="633.544922" xlink:href="#DejaVuSans-32"/>
     <use x="665.332031" xlink:href="#DejaVuSans-40"/>
     <use x="704.345703" xlink:href="#DejaVuSans-102"/>
     <use x="739.550781" xlink:href="#DejaVuSans-114"/>
     <use x="780.664062" xlink:href="#DejaVuSans-97"/>
     <use x="841.943359" xlink:href="#DejaVuSans-109"/>
     <use x="939.355469" xlink:href="#DejaVuSans-101"/>
     <use x="1000.878906" xlink:href="#DejaVuSans-115"/>
     <use x="1052.978516" xlink:href="#DejaVuSans-41"/>
     <use x="1091.992188" xlink:href="#DejaVuSans-32"/>
     <use x="1123.779297" xlink:href="#DejaVuSans-117"/>
     <use x="1187.158203" xlink:href="#DejaVuSans-115"/>
     <use x="1239.257812" xlink:href="#DejaVuSans-105"/>
     <use x="1267.041016" xlink:href="#DejaVuSans-110"/>
     <use x="1330.419922" xlink:href="#DejaVuSans-103"/>
     <use x="1393.896484" xlink:href="#DejaVuSans-32"/>
     <use x="1425.683594" xlink:href="#DejaVuSans-99"/>
     <use x="1480.664062" xlink:href="#DejaVuSans-111"/>
     <use x="1541.845703" xlink:href="#DejaVuSans-110"/>
     <use x="1605.224609" xlink:href="#DejaVuSans-115"/>
     <use x="1657.324219" xlink:href="#DejaVuSans-101"/>
     <use x="1718.847656" xlink:href="#DejaVuSans-99"/>
     <use x="1773.828125" xlink:href="#DejaVuSans-117"/>
     <use x="1837.207031" xlink:href="#DejaVuSans-116"/>
     <use x="1876.416016" xlink:href="#DejaVuSans-105"/>
     <use x="1904.199219" xlink:href="#DejaVuSans-118"/>
     <use x="1963.378906" xlink:href="#DejaVuSans-101"/>
     <use x="2024.902344" xlink:href="#DejaVuSans-32"/>
     <use x="2056.689453" xlink:href="#DejaVuSans-112"/>
     <use x="2120.166016" xlink:href="#DejaVuSans-97"/>
     <use x="2181.445312" xlink:href="#DejaVuSans-105"/>
     <use x="2209.228516" xlink:href="#DejaVuSans-114"/>
     <use x="2250.341797" xlink:href="#DejaVuSans-115"/>
    </g>
    <!-- (with origin alignment) -->
    <g style="fill:#262626;" transform="translate(175.752187 49.824)scale(0.12 -0.12)">
     <defs>
      <path d="M 54.890625 33.015625 
L 54.890625 0 
L 45.90625 0 
L 45.90625 32.71875 
Q 45.90625 40.484375 42.875 44.328125 
Q 39.84375 48.1875 33.796875 48.1875 
Q 26.515625 48.1875 22.3125 43.546875 
Q 18.109375 38.921875 18.109375 30.90625 
L 18.109375 0 
L 9.078125 0 
L 9.078125 75.984375 
L 18.109375 75.984375 
L 18.109375 46.1875 
Q 21.34375 51.125 25.703125 53.5625 
Q 30.078125 56 35.796875 56 
Q 45.21875 56 50.046875 50.171875 
Q 54.890625 44.34375 54.890625 33.015625 
z
" id="DejaVuSans-104"/>
     </defs>
     <use xlink:href="#DejaVuSans-40"/>
     <use x="39.013672" xlink:href="#DejaVuSans-119"/>
     <use x="120.800781" xlink:href="#DejaVuSans-105"/>
     <use x="148.583984" xlink:href="#DejaVuSans-116"/>
     <use x="187.792969" xlink:href="#DejaVuSans-104"/>
     <use x="251.171875" xlink:href="#DejaVuSans-32"/>
     <use x="282.958984" xlink:href="#DejaVuSans-111"/>
     <use x="344.140625" xlink:href="#DejaVuSans-114"/>
     <use x="385.253906" xlink:href="#DejaVuSans-105"/>
     <use x="413.037109" xlink:href="#DejaVuSans-103"/>
     <use x="476.513672" xlink:href="#DejaVuSans-105"/>
     <use x="504.296875" xlink:href="#DejaVuSans-110"/>
     <use x="567.675781" xlink:href="#DejaVuSans-32"/>
     <use x="599.462891" xlink:href="#DejaVuSans-97"/>
     <use x="660.742188" xlink:href="#DejaVuSans-108"/>
     <use x="688.525391" xlink:href="#DejaVuSans-105"/>
     <use x="716.308594" xlink:href="#DejaVuSans-103"/>
     <use x="779.785156" xlink:href="#DejaVuSans-110"/>
     <use x="843.164062" xlink:href="#DejaVuSans-109"/>
     <use x="940.576172" xlink:href="#DejaVuSans-101"/>
     <use x="1002.099609" xlink:href="#DejaVuSans-110"/>
     <use x="1065.478516" xlink:href="#DejaVuSans-116"/>
     <use x="1104.6875" xlink:href="#DejaVuSans-41"/>
    </g>
   </g>
   <g id="legend_1">
    <g id="patch_8">
     <path d="M 77.405 145.353688 
L 156.625625 145.353688 
Q 158.825625 145.353688 158.825625 143.153688 
L 158.825625 63.524 
Q 158.825625 61.324 156.625625 61.324 
L 77.405 61.324 
Q 75.205 61.324 75.205 63.524 
L 75.205 143.153688 
Q 75.205 145.353688 77.405 145.353688 
z
" style="fill:#eaeaf2;opacity:0.8;stroke:#cccccc;stroke-linejoin:miter;"/>
    </g>
    <g id="line2d_19">
     <path d="M 79.605 70.232281 
L 101.605 70.232281 
" style="fill:none;stroke:#808080;stroke-linecap:round;stroke-width:1.5;"/>
    </g>
    <g id="line2d_20"/>
    <g id="text_18">
     <!-- RPE (m) -->
     <g style="fill:#262626;" transform="translate(110.405 74.082281)scale(0.11 -0.11)">
      <use xlink:href="#DejaVuSans-82"/>
      <use x="69.482422" xlink:href="#DejaVuSans-80"/>
      <use x="129.785156" xlink:href="#DejaVuSans-69"/>
      <use x="192.96875" xlink:href="#DejaVuSans-32"/>
      <use x="224.755859" xlink:href="#DejaVuSans-40"/>
      <use x="263.769531" xlink:href="#DejaVuSans-109"/>
      <use x="361.181641" xlink:href="#DejaVuSans-41"/>
     </g>
    </g>
    <g id="line2d_21">
     <path d="M 79.605 86.378219 
L 101.605 86.378219 
" style="fill:none;stroke:#4c72b0;stroke-linecap:round;stroke-width:2;"/>
    </g>
    <g id="line2d_22"/>
    <g id="text_19">
     <!-- rmse -->
     <g style="fill:#262626;" transform="translate(110.405 90.228219)scale(0.11 -0.11)">
      <use xlink:href="#DejaVuSans-114"/>
      <use x="39.363281" xlink:href="#DejaVuSans-109"/>
      <use x="136.775391" xlink:href="#DejaVuSans-115"/>
      <use x="188.875" xlink:href="#DejaVuSans-101"/>
     </g>
    </g>
    <g id="line2d_23">
     <path d="M 79.605 102.524156 
L 101.605 102.524156 
" style="fill:none;stroke:#55a868;stroke-linecap:round;stroke-width:2;"/>
    </g>
    <g id="line2d_24"/>
    <g id="text_20">
     <!-- median -->
     <g style="fill:#262626;" transform="translate(110.405 106.374156)scale(0.11 -0.11)">
      <use xlink:href="#DejaVuSans-109"/>
      <use x="97.412109" xlink:href="#DejaVuSans-101"/>
      <use x="158.935547" xlink:href="#DejaVuSans-100"/>
      <use x="222.412109" xlink:href="#DejaVuSans-105"/>
      <use x="250.195312" xlink:href="#DejaVuSans-97"/>
      <use x="311.474609" xlink:href="#DejaVuSans-110"/>
     </g>
    </g>
    <g id="line2d_25">
     <path d="M 79.605 118.670094 
L 101.605 118.670094 
" style="fill:none;stroke:#c44e52;stroke-linecap:round;stroke-width:2;"/>
    </g>
    <g id="line2d_26"/>
    <g id="text_21">
     <!-- mean -->
     <g style="fill:#262626;" transform="translate(110.405 122.520094)scale(0.11 -0.11)">
      <use xlink:href="#DejaVuSans-109"/>
      <use x="97.412109" xlink:href="#DejaVuSans-101"/>
      <use x="158.935547" xlink:href="#DejaVuSans-97"/>
      <use x="220.214844" xlink:href="#DejaVuSans-110"/>
     </g>
    </g>
    <g id="patch_9">
     <path d="M 79.605 138.666031 
L 101.605 138.666031 
L 101.605 130.966031 
L 79.605 130.966031 
z
" style="fill:#8172b3;opacity:0.5;stroke:#8172b3;stroke-linejoin:miter;"/>
    </g>
    <g id="text_22">
     <!-- std -->
     <g style="fill:#262626;" transform="translate(110.405 138.666031)scale(0.11 -0.11)">
      <use xlink:href="#DejaVuSans-115"/>
      <use x="52.099609" xlink:href="#DejaVuSans-116"/>
      <use x="91.308594" xlink:href="#DejaVuSans-100"/>
     </g>
    </g>
   </g>
  </g>
 </g>
 <defs>
  <clipPath id="pd4ddf1447d">
   <rect height="327.036" width="349.335" x="69.705" y="55.824"/>
  </clipPath>
 </defs>
</svg>
