<?xml version="1.0" encoding="utf-8" standalone="no"?>
<!DOCTYPE svg PUBLIC "-//W3C//DTD SVG 1.1//EN"
  "http://www.w3.org/Graphics/SVG/1.1/DTD/svg11.dtd">
<!-- Created with matplotlib (https://matplotlib.org/) -->
<svg height="432pt" version="1.1" viewBox="0 0 432 432" width="432pt" xmlns="http://www.w3.org/2000/svg" xmlns:xlink="http://www.w3.org/1999/xlink">
 <metadata>
  <rdf:RDF xmlns:cc="http://creativecommons.org/ns#" xmlns:dc="http://purl.org/dc/elements/1.1/" xmlns:rdf="http://www.w3.org/1999/02/22-rdf-syntax-ns#">
   <cc:Work>
    <dc:type rdf:resource="http://purl.org/dc/dcmitype/StillImage"/>
    <dc:date>2022-02-02T13:19:42.868714</dc:date>
    <dc:format>image/svg+xml</dc:format>
    <dc:creator>
     <cc:Agent>
      <dc:title>Matplotlib v3.3.1, https://matplotlib.org/</dc:title>
     </cc:Agent>
    </dc:creator>
   </cc:Work>
  </rdf:RDF>
 </metadata>
 <defs>
  <style type="text/css">*{stroke-linecap:butt;stroke-linejoin:round;}</style>
 </defs>
 <g id="figure_1">
  <g id="patch_1">
   <path d="M 0 432 
L 432 432 
L 432 0 
L 0 0 
z
" style="fill:#ffffff;"/>
  </g>
  <g id="axes_1">
   <g id="patch_2">
    <path d="M 69.705 382.86 
L 419.04 382.86 
L 419.04 55.824 
L 69.705 55.824 
z
" style="fill:#eaeaf2;"/>
   </g>
   <g id="matplotlib.axis_1">
    <g id="xtick_1">
     <g id="line2d_1">
      <path clip-path="url(#p3aa599d4bb)" d="M 85.583864 382.86 
L 85.583864 55.824 
" style="fill:none;stroke:#ffffff;stroke-linecap:round;"/>
     </g>
     <g id="text_1">
      <!-- 0 -->
      <g style="fill:#262626;" transform="translate(82.084489 400.718281)scale(0.11 -0.11)">
       <defs>
        <path d="M 31.78125 66.40625 
Q 24.171875 66.40625 20.328125 58.90625 
Q 16.5 51.421875 16.5 36.375 
Q 16.5 21.390625 20.328125 13.890625 
Q 24.171875 6.390625 31.78125 6.390625 
Q 39.453125 6.390625 43.28125 13.890625 
Q 47.125 21.390625 47.125 36.375 
Q 47.125 51.421875 43.28125 58.90625 
Q 39.453125 66.40625 31.78125 66.40625 
z
M 31.78125 74.21875 
Q 44.046875 74.21875 50.515625 64.515625 
Q 56.984375 54.828125 56.984375 36.375 
Q 56.984375 17.96875 50.515625 8.265625 
Q 44.046875 -1.421875 31.78125 -1.421875 
Q 19.53125 -1.421875 13.0625 8.265625 
Q 6.59375 17.96875 6.59375 36.375 
Q 6.59375 54.828125 13.0625 64.515625 
Q 19.53125 74.21875 31.78125 74.21875 
z
" id="DejaVuSans-48"/>
       </defs>
       <use xlink:href="#DejaVuSans-48"/>
      </g>
     </g>
    </g>
    <g id="xtick_2">
     <g id="line2d_2">
      <path clip-path="url(#p3aa599d4bb)" d="M 138.823976 382.86 
L 138.823976 55.824 
" style="fill:none;stroke:#ffffff;stroke-linecap:round;"/>
     </g>
     <g id="text_2">
      <!-- 20 -->
      <g style="fill:#262626;" transform="translate(131.825226 400.718281)scale(0.11 -0.11)">
       <defs>
        <path d="M 19.1875 8.296875 
L 53.609375 8.296875 
L 53.609375 0 
L 7.328125 0 
L 7.328125 8.296875 
Q 12.9375 14.109375 22.625 23.890625 
Q 32.328125 33.6875 34.8125 36.53125 
Q 39.546875 41.84375 41.421875 45.53125 
Q 43.3125 49.21875 43.3125 52.78125 
Q 43.3125 58.59375 39.234375 62.25 
Q 35.15625 65.921875 28.609375 65.921875 
Q 23.96875 65.921875 18.8125 64.3125 
Q 13.671875 62.703125 7.8125 59.421875 
L 7.8125 69.390625 
Q 13.765625 71.78125 18.9375 73 
Q 24.125 74.21875 28.421875 74.21875 
Q 39.75 74.21875 46.484375 68.546875 
Q 53.21875 62.890625 53.21875 53.421875 
Q 53.21875 48.921875 51.53125 44.890625 
Q 49.859375 40.875 45.40625 35.40625 
Q 44.1875 33.984375 37.640625 27.21875 
Q 31.109375 20.453125 19.1875 8.296875 
z
" id="DejaVuSans-50"/>
       </defs>
       <use xlink:href="#DejaVuSans-50"/>
       <use x="63.623047" xlink:href="#DejaVuSans-48"/>
      </g>
     </g>
    </g>
    <g id="xtick_3">
     <g id="line2d_3">
      <path clip-path="url(#p3aa599d4bb)" d="M 192.064089 382.86 
L 192.064089 55.824 
" style="fill:none;stroke:#ffffff;stroke-linecap:round;"/>
     </g>
     <g id="text_3">
      <!-- 40 -->
      <g style="fill:#262626;" transform="translate(185.065339 400.718281)scale(0.11 -0.11)">
       <defs>
        <path d="M 37.796875 64.3125 
L 12.890625 25.390625 
L 37.796875 25.390625 
z
M 35.203125 72.90625 
L 47.609375 72.90625 
L 47.609375 25.390625 
L 58.015625 25.390625 
L 58.015625 17.1875 
L 47.609375 17.1875 
L 47.609375 0 
L 37.796875 0 
L 37.796875 17.1875 
L 4.890625 17.1875 
L 4.890625 26.703125 
z
" id="DejaVuSans-52"/>
       </defs>
       <use xlink:href="#DejaVuSans-52"/>
       <use x="63.623047" xlink:href="#DejaVuSans-48"/>
      </g>
     </g>
    </g>
    <g id="xtick_4">
     <g id="line2d_4">
      <path clip-path="url(#p3aa599d4bb)" d="M 245.304202 382.86 
L 245.304202 55.824 
" style="fill:none;stroke:#ffffff;stroke-linecap:round;"/>
     </g>
     <g id="text_4">
      <!-- 60 -->
      <g style="fill:#262626;" transform="translate(238.305452 400.718281)scale(0.11 -0.11)">
       <defs>
        <path d="M 33.015625 40.375 
Q 26.375 40.375 22.484375 35.828125 
Q 18.609375 31.296875 18.609375 23.390625 
Q 18.609375 15.53125 22.484375 10.953125 
Q 26.375 6.390625 33.015625 6.390625 
Q 39.65625 6.390625 43.53125 10.953125 
Q 47.40625 15.53125 47.40625 23.390625 
Q 47.40625 31.296875 43.53125 35.828125 
Q 39.65625 40.375 33.015625 40.375 
z
M 52.59375 71.296875 
L 52.59375 62.3125 
Q 48.875 64.0625 45.09375 64.984375 
Q 41.3125 65.921875 37.59375 65.921875 
Q 27.828125 65.921875 22.671875 59.328125 
Q 17.53125 52.734375 16.796875 39.40625 
Q 19.671875 43.65625 24.015625 45.921875 
Q 28.375 48.1875 33.59375 48.1875 
Q 44.578125 48.1875 50.953125 41.515625 
Q 57.328125 34.859375 57.328125 23.390625 
Q 57.328125 12.15625 50.6875 5.359375 
Q 44.046875 -1.421875 33.015625 -1.421875 
Q 20.359375 -1.421875 13.671875 8.265625 
Q 6.984375 17.96875 6.984375 36.375 
Q 6.984375 53.65625 15.1875 63.9375 
Q 23.390625 74.21875 37.203125 74.21875 
Q 40.921875 74.21875 44.703125 73.484375 
Q 48.484375 72.75 52.59375 71.296875 
z
" id="DejaVuSans-54"/>
       </defs>
       <use xlink:href="#DejaVuSans-54"/>
       <use x="63.623047" xlink:href="#DejaVuSans-48"/>
      </g>
     </g>
    </g>
    <g id="xtick_5">
     <g id="line2d_5">
      <path clip-path="url(#p3aa599d4bb)" d="M 298.544315 382.86 
L 298.544315 55.824 
" style="fill:none;stroke:#ffffff;stroke-linecap:round;"/>
     </g>
     <g id="text_5">
      <!-- 80 -->
      <g style="fill:#262626;" transform="translate(291.545565 400.718281)scale(0.11 -0.11)">
       <defs>
        <path d="M 31.78125 34.625 
Q 24.75 34.625 20.71875 30.859375 
Q 16.703125 27.09375 16.703125 20.515625 
Q 16.703125 13.921875 20.71875 10.15625 
Q 24.75 6.390625 31.78125 6.390625 
Q 38.8125 6.390625 42.859375 10.171875 
Q 46.921875 13.96875 46.921875 20.515625 
Q 46.921875 27.09375 42.890625 30.859375 
Q 38.875 34.625 31.78125 34.625 
z
M 21.921875 38.8125 
Q 15.578125 40.375 12.03125 44.71875 
Q 8.5 49.078125 8.5 55.328125 
Q 8.5 64.0625 14.71875 69.140625 
Q 20.953125 74.21875 31.78125 74.21875 
Q 42.671875 74.21875 48.875 69.140625 
Q 55.078125 64.0625 55.078125 55.328125 
Q 55.078125 49.078125 51.53125 44.71875 
Q 48 40.375 41.703125 38.8125 
Q 48.828125 37.15625 52.796875 32.3125 
Q 56.78125 27.484375 56.78125 20.515625 
Q 56.78125 9.90625 50.3125 4.234375 
Q 43.84375 -1.421875 31.78125 -1.421875 
Q 19.734375 -1.421875 13.25 4.234375 
Q 6.78125 9.90625 6.78125 20.515625 
Q 6.78125 27.484375 10.78125 32.3125 
Q 14.796875 37.15625 21.921875 38.8125 
z
M 18.3125 54.390625 
Q 18.3125 48.734375 21.84375 45.5625 
Q 25.390625 42.390625 31.78125 42.390625 
Q 38.140625 42.390625 41.71875 45.5625 
Q 45.3125 48.734375 45.3125 54.390625 
Q 45.3125 60.0625 41.71875 63.234375 
Q 38.140625 66.40625 31.78125 66.40625 
Q 25.390625 66.40625 21.84375 63.234375 
Q 18.3125 60.0625 18.3125 54.390625 
z
" id="DejaVuSans-56"/>
       </defs>
       <use xlink:href="#DejaVuSans-56"/>
       <use x="63.623047" xlink:href="#DejaVuSans-48"/>
      </g>
     </g>
    </g>
    <g id="xtick_6">
     <g id="line2d_6">
      <path clip-path="url(#p3aa599d4bb)" d="M 351.784428 382.86 
L 351.784428 55.824 
" style="fill:none;stroke:#ffffff;stroke-linecap:round;"/>
     </g>
     <g id="text_6">
      <!-- 100 -->
      <g style="fill:#262626;" transform="translate(341.286303 400.718281)scale(0.11 -0.11)">
       <defs>
        <path d="M 12.40625 8.296875 
L 28.515625 8.296875 
L 28.515625 63.921875 
L 10.984375 60.40625 
L 10.984375 69.390625 
L 28.421875 72.90625 
L 38.28125 72.90625 
L 38.28125 8.296875 
L 54.390625 8.296875 
L 54.390625 0 
L 12.40625 0 
z
" id="DejaVuSans-49"/>
       </defs>
       <use xlink:href="#DejaVuSans-49"/>
       <use x="63.623047" xlink:href="#DejaVuSans-48"/>
       <use x="127.246094" xlink:href="#DejaVuSans-48"/>
      </g>
     </g>
    </g>
    <g id="xtick_7">
     <g id="line2d_7">
      <path clip-path="url(#p3aa599d4bb)" d="M 405.02454 382.86 
L 405.02454 55.824 
" style="fill:none;stroke:#ffffff;stroke-linecap:round;"/>
     </g>
     <g id="text_7">
      <!-- 120 -->
      <g style="fill:#262626;" transform="translate(394.526415 400.718281)scale(0.11 -0.11)">
       <use xlink:href="#DejaVuSans-49"/>
       <use x="63.623047" xlink:href="#DejaVuSans-50"/>
       <use x="127.246094" xlink:href="#DejaVuSans-48"/>
      </g>
     </g>
    </g>
    <g id="text_8">
     <!-- $t$ (s) -->
     <g style="fill:#262626;" transform="translate(232.2525 416.124062)scale(0.12 -0.12)">
      <defs>
       <path d="M 42.28125 54.6875 
L 40.921875 47.703125 
L 23 47.703125 
L 17.1875 18.015625 
Q 16.890625 16.359375 16.75 15.234375 
Q 16.609375 14.109375 16.609375 13.484375 
Q 16.609375 10.359375 18.484375 8.9375 
Q 20.359375 7.515625 24.515625 7.515625 
L 33.59375 7.515625 
L 32.078125 0 
L 23.484375 0 
Q 15.484375 0 11.546875 3.125 
Q 7.625 6.25 7.625 12.59375 
Q 7.625 13.71875 7.765625 15.0625 
Q 7.90625 16.40625 8.203125 18.015625 
L 14.015625 47.703125 
L 6.390625 47.703125 
L 7.8125 54.6875 
L 15.28125 54.6875 
L 18.3125 70.21875 
L 27.296875 70.21875 
L 24.3125 54.6875 
z
" id="DejaVuSans-Oblique-116"/>
       <path id="DejaVuSans-32"/>
       <path d="M 31 75.875 
Q 24.46875 64.65625 21.28125 53.65625 
Q 18.109375 42.671875 18.109375 31.390625 
Q 18.109375 20.125 21.3125 9.0625 
Q 24.515625 -2 31 -13.1875 
L 23.1875 -13.1875 
Q 15.875 -1.703125 12.234375 9.375 
Q 8.59375 20.453125 8.59375 31.390625 
Q 8.59375 42.28125 12.203125 53.3125 
Q 15.828125 64.359375 23.1875 75.875 
z
" id="DejaVuSans-40"/>
       <path d="M 44.28125 53.078125 
L 44.28125 44.578125 
Q 40.484375 46.53125 36.375 47.5 
Q 32.28125 48.484375 27.875 48.484375 
Q 21.1875 48.484375 17.84375 46.4375 
Q 14.5 44.390625 14.5 40.28125 
Q 14.5 37.15625 16.890625 35.375 
Q 19.28125 33.59375 26.515625 31.984375 
L 29.59375 31.296875 
Q 39.15625 29.25 43.1875 25.515625 
Q 47.21875 21.78125 47.21875 15.09375 
Q 47.21875 7.46875 41.1875 3.015625 
Q 35.15625 -1.421875 24.609375 -1.421875 
Q 20.21875 -1.421875 15.453125 -0.5625 
Q 10.6875 0.296875 5.421875 2 
L 5.421875 11.28125 
Q 10.40625 8.6875 15.234375 7.390625 
Q 20.0625 6.109375 24.8125 6.109375 
Q 31.15625 6.109375 34.5625 8.28125 
Q 37.984375 10.453125 37.984375 14.40625 
Q 37.984375 18.0625 35.515625 20.015625 
Q 33.0625 21.96875 24.703125 23.78125 
L 21.578125 24.515625 
Q 13.234375 26.265625 9.515625 29.90625 
Q 5.8125 33.546875 5.8125 39.890625 
Q 5.8125 47.609375 11.28125 51.796875 
Q 16.75 56 26.8125 56 
Q 31.78125 56 36.171875 55.265625 
Q 40.578125 54.546875 44.28125 53.078125 
z
" id="DejaVuSans-115"/>
       <path d="M 8.015625 75.875 
L 15.828125 75.875 
Q 23.140625 64.359375 26.78125 53.3125 
Q 30.421875 42.28125 30.421875 31.390625 
Q 30.421875 20.453125 26.78125 9.375 
Q 23.140625 -1.703125 15.828125 -13.1875 
L 8.015625 -13.1875 
Q 14.5 -2 17.703125 9.0625 
Q 20.90625 20.125 20.90625 31.390625 
Q 20.90625 42.671875 17.703125 53.65625 
Q 14.5 64.65625 8.015625 75.875 
z
" id="DejaVuSans-41"/>
      </defs>
      <use transform="translate(0 0.125)" xlink:href="#DejaVuSans-Oblique-116"/>
      <use transform="translate(39.208984 0.125)" xlink:href="#DejaVuSans-32"/>
      <use transform="translate(70.996094 0.125)" xlink:href="#DejaVuSans-40"/>
      <use transform="translate(110.009766 0.125)" xlink:href="#DejaVuSans-115"/>
      <use transform="translate(162.109375 0.125)" xlink:href="#DejaVuSans-41"/>
     </g>
    </g>
   </g>
   <g id="matplotlib.axis_2">
    <g id="ytick_1">
     <g id="line2d_8">
      <path clip-path="url(#p3aa599d4bb)" d="M 69.705 368.35664 
L 419.04 368.35664 
" style="fill:none;stroke:#ffffff;stroke-linecap:round;"/>
     </g>
     <g id="text_9">
      <!-- 0.000 -->
      <g style="fill:#262626;" transform="translate(28.714062 372.53578)scale(0.11 -0.11)">
       <defs>
        <path d="M 10.6875 12.40625 
L 21 12.40625 
L 21 0 
L 10.6875 0 
z
" id="DejaVuSans-46"/>
       </defs>
       <use xlink:href="#DejaVuSans-48"/>
       <use x="63.623047" xlink:href="#DejaVuSans-46"/>
       <use x="95.410156" xlink:href="#DejaVuSans-48"/>
       <use x="159.033203" xlink:href="#DejaVuSans-48"/>
       <use x="222.65625" xlink:href="#DejaVuSans-48"/>
      </g>
     </g>
    </g>
    <g id="ytick_2">
     <g id="line2d_9">
      <path clip-path="url(#p3aa599d4bb)" d="M 69.705 326.06641 
L 419.04 326.06641 
" style="fill:none;stroke:#ffffff;stroke-linecap:round;"/>
     </g>
     <g id="text_10">
      <!-- 0.025 -->
      <g style="fill:#262626;" transform="translate(28.714062 330.245551)scale(0.11 -0.11)">
       <defs>
        <path d="M 10.796875 72.90625 
L 49.515625 72.90625 
L 49.515625 64.59375 
L 19.828125 64.59375 
L 19.828125 46.734375 
Q 21.96875 47.46875 24.109375 47.828125 
Q 26.265625 48.1875 28.421875 48.1875 
Q 40.625 48.1875 47.75 41.5 
Q 54.890625 34.8125 54.890625 23.390625 
Q 54.890625 11.625 47.5625 5.09375 
Q 40.234375 -1.421875 26.90625 -1.421875 
Q 22.3125 -1.421875 17.546875 -0.640625 
Q 12.796875 0.140625 7.71875 1.703125 
L 7.71875 11.625 
Q 12.109375 9.234375 16.796875 8.0625 
Q 21.484375 6.890625 26.703125 6.890625 
Q 35.15625 6.890625 40.078125 11.328125 
Q 45.015625 15.765625 45.015625 23.390625 
Q 45.015625 31 40.078125 35.4375 
Q 35.15625 39.890625 26.703125 39.890625 
Q 22.75 39.890625 18.8125 39.015625 
Q 14.890625 38.140625 10.796875 36.28125 
z
" id="DejaVuSans-53"/>
       </defs>
       <use xlink:href="#DejaVuSans-48"/>
       <use x="63.623047" xlink:href="#DejaVuSans-46"/>
       <use x="95.410156" xlink:href="#DejaVuSans-48"/>
       <use x="159.033203" xlink:href="#DejaVuSans-50"/>
       <use x="222.65625" xlink:href="#DejaVuSans-53"/>
      </g>
     </g>
    </g>
    <g id="ytick_3">
     <g id="line2d_10">
      <path clip-path="url(#p3aa599d4bb)" d="M 69.705 283.776181 
L 419.04 283.776181 
" style="fill:none;stroke:#ffffff;stroke-linecap:round;"/>
     </g>
     <g id="text_11">
      <!-- 0.050 -->
      <g style="fill:#262626;" transform="translate(28.714062 287.955321)scale(0.11 -0.11)">
       <use xlink:href="#DejaVuSans-48"/>
       <use x="63.623047" xlink:href="#DejaVuSans-46"/>
       <use x="95.410156" xlink:href="#DejaVuSans-48"/>
       <use x="159.033203" xlink:href="#DejaVuSans-53"/>
       <use x="222.65625" xlink:href="#DejaVuSans-48"/>
      </g>
     </g>
    </g>
    <g id="ytick_4">
     <g id="line2d_11">
      <path clip-path="url(#p3aa599d4bb)" d="M 69.705 241.485951 
L 419.04 241.485951 
" style="fill:none;stroke:#ffffff;stroke-linecap:round;"/>
     </g>
     <g id="text_12">
      <!-- 0.075 -->
      <g style="fill:#262626;" transform="translate(28.714062 245.665092)scale(0.11 -0.11)">
       <defs>
        <path d="M 8.203125 72.90625 
L 55.078125 72.90625 
L 55.078125 68.703125 
L 28.609375 0 
L 18.3125 0 
L 43.21875 64.59375 
L 8.203125 64.59375 
z
" id="DejaVuSans-55"/>
       </defs>
       <use xlink:href="#DejaVuSans-48"/>
       <use x="63.623047" xlink:href="#DejaVuSans-46"/>
       <use x="95.410156" xlink:href="#DejaVuSans-48"/>
       <use x="159.033203" xlink:href="#DejaVuSans-55"/>
       <use x="222.65625" xlink:href="#DejaVuSans-53"/>
      </g>
     </g>
    </g>
    <g id="ytick_5">
     <g id="line2d_12">
      <path clip-path="url(#p3aa599d4bb)" d="M 69.705 199.195722 
L 419.04 199.195722 
" style="fill:none;stroke:#ffffff;stroke-linecap:round;"/>
     </g>
     <g id="text_13">
      <!-- 0.100 -->
      <g style="fill:#262626;" transform="translate(28.714062 203.374862)scale(0.11 -0.11)">
       <use xlink:href="#DejaVuSans-48"/>
       <use x="63.623047" xlink:href="#DejaVuSans-46"/>
       <use x="95.410156" xlink:href="#DejaVuSans-49"/>
       <use x="159.033203" xlink:href="#DejaVuSans-48"/>
       <use x="222.65625" xlink:href="#DejaVuSans-48"/>
      </g>
     </g>
    </g>
    <g id="ytick_6">
     <g id="line2d_13">
      <path clip-path="url(#p3aa599d4bb)" d="M 69.705 156.905492 
L 419.04 156.905492 
" style="fill:none;stroke:#ffffff;stroke-linecap:round;"/>
     </g>
     <g id="text_14">
      <!-- 0.125 -->
      <g style="fill:#262626;" transform="translate(28.714062 161.084633)scale(0.11 -0.11)">
       <use xlink:href="#DejaVuSans-48"/>
       <use x="63.623047" xlink:href="#DejaVuSans-46"/>
       <use x="95.410156" xlink:href="#DejaVuSans-49"/>
       <use x="159.033203" xlink:href="#DejaVuSans-50"/>
       <use x="222.65625" xlink:href="#DejaVuSans-53"/>
      </g>
     </g>
    </g>
    <g id="ytick_7">
     <g id="line2d_14">
      <path clip-path="url(#p3aa599d4bb)" d="M 69.705 114.615263 
L 419.04 114.615263 
" style="fill:none;stroke:#ffffff;stroke-linecap:round;"/>
     </g>
     <g id="text_15">
      <!-- 0.150 -->
      <g style="fill:#262626;" transform="translate(28.714062 118.794403)scale(0.11 -0.11)">
       <use xlink:href="#DejaVuSans-48"/>
       <use x="63.623047" xlink:href="#DejaVuSans-46"/>
       <use x="95.410156" xlink:href="#DejaVuSans-49"/>
       <use x="159.033203" xlink:href="#DejaVuSans-53"/>
       <use x="222.65625" xlink:href="#DejaVuSans-48"/>
      </g>
     </g>
    </g>
    <g id="ytick_8">
     <g id="line2d_15">
      <path clip-path="url(#p3aa599d4bb)" d="M 69.705 72.325033 
L 419.04 72.325033 
" style="fill:none;stroke:#ffffff;stroke-linecap:round;"/>
     </g>
     <g id="text_16">
      <!-- 0.175 -->
      <g style="fill:#262626;" transform="translate(28.714062 76.504174)scale(0.11 -0.11)">
       <use xlink:href="#DejaVuSans-48"/>
       <use x="63.623047" xlink:href="#DejaVuSans-46"/>
       <use x="95.410156" xlink:href="#DejaVuSans-49"/>
       <use x="159.033203" xlink:href="#DejaVuSans-55"/>
       <use x="222.65625" xlink:href="#DejaVuSans-53"/>
      </g>
     </g>
    </g>
    <g id="text_17">
     <!-- RPE (m) -->
     <g style="fill:#262626;" transform="translate(22.218437 243.35325)rotate(-90)scale(0.12 -0.12)">
      <defs>
       <path d="M 44.390625 34.1875 
Q 47.5625 33.109375 50.5625 29.59375 
Q 53.5625 26.078125 56.59375 19.921875 
L 66.609375 0 
L 56 0 
L 46.6875 18.703125 
Q 43.0625 26.03125 39.671875 28.421875 
Q 36.28125 30.8125 30.421875 30.8125 
L 19.671875 30.8125 
L 19.671875 0 
L 9.8125 0 
L 9.8125 72.90625 
L 32.078125 72.90625 
Q 44.578125 72.90625 50.734375 67.671875 
Q 56.890625 62.453125 56.890625 51.90625 
Q 56.890625 45.015625 53.6875 40.46875 
Q 50.484375 35.9375 44.390625 34.1875 
z
M 19.671875 64.796875 
L 19.671875 38.921875 
L 32.078125 38.921875 
Q 39.203125 38.921875 42.84375 42.21875 
Q 46.484375 45.515625 46.484375 51.90625 
Q 46.484375 58.296875 42.84375 61.546875 
Q 39.203125 64.796875 32.078125 64.796875 
z
" id="DejaVuSans-82"/>
       <path d="M 19.671875 64.796875 
L 19.671875 37.40625 
L 32.078125 37.40625 
Q 38.96875 37.40625 42.71875 40.96875 
Q 46.484375 44.53125 46.484375 51.125 
Q 46.484375 57.671875 42.71875 61.234375 
Q 38.96875 64.796875 32.078125 64.796875 
z
M 9.8125 72.90625 
L 32.078125 72.90625 
Q 44.34375 72.90625 50.609375 67.359375 
Q 56.890625 61.8125 56.890625 51.125 
Q 56.890625 40.328125 50.609375 34.8125 
Q 44.34375 29.296875 32.078125 29.296875 
L 19.671875 29.296875 
L 19.671875 0 
L 9.8125 0 
z
" id="DejaVuSans-80"/>
       <path d="M 9.8125 72.90625 
L 55.90625 72.90625 
L 55.90625 64.59375 
L 19.671875 64.59375 
L 19.671875 43.015625 
L 54.390625 43.015625 
L 54.390625 34.71875 
L 19.671875 34.71875 
L 19.671875 8.296875 
L 56.78125 8.296875 
L 56.78125 0 
L 9.8125 0 
z
" id="DejaVuSans-69"/>
       <path d="M 52 44.1875 
Q 55.375 50.25 60.0625 53.125 
Q 64.75 56 71.09375 56 
Q 79.640625 56 84.28125 50.015625 
Q 88.921875 44.046875 88.921875 33.015625 
L 88.921875 0 
L 79.890625 0 
L 79.890625 32.71875 
Q 79.890625 40.578125 77.09375 44.375 
Q 74.3125 48.1875 68.609375 48.1875 
Q 61.625 48.1875 57.5625 43.546875 
Q 53.515625 38.921875 53.515625 30.90625 
L 53.515625 0 
L 44.484375 0 
L 44.484375 32.71875 
Q 44.484375 40.625 41.703125 44.40625 
Q 38.921875 48.1875 33.109375 48.1875 
Q 26.21875 48.1875 22.15625 43.53125 
Q 18.109375 38.875 18.109375 30.90625 
L 18.109375 0 
L 9.078125 0 
L 9.078125 54.6875 
L 18.109375 54.6875 
L 18.109375 46.1875 
Q 21.1875 51.21875 25.484375 53.609375 
Q 29.78125 56 35.6875 56 
Q 41.65625 56 45.828125 52.96875 
Q 50 49.953125 52 44.1875 
z
" id="DejaVuSans-109"/>
      </defs>
      <use xlink:href="#DejaVuSans-82"/>
      <use x="69.482422" xlink:href="#DejaVuSans-80"/>
      <use x="129.785156" xlink:href="#DejaVuSans-69"/>
      <use x="192.96875" xlink:href="#DejaVuSans-32"/>
      <use x="224.755859" xlink:href="#DejaVuSans-40"/>
      <use x="263.769531" xlink:href="#DejaVuSans-109"/>
      <use x="361.181641" xlink:href="#DejaVuSans-41"/>
     </g>
    </g>
   </g>
   <g id="patch_3">
    <path clip-path="url(#p3aa599d4bb)" d="M 69.705 358.800267 
L 69.705 332.60067 
L 419.04 332.60067 
L 419.04 358.800267 
z
" style="fill:#8172b3;opacity:0.5;stroke:#8172b3;stroke-linejoin:miter;"/>
   </g>
   <g id="line2d_16">
    <path clip-path="url(#p3aa599d4bb)" d="M 85.583864 327.42502 
L 85.850064 323.372772 
L 86.116265 348.909416 
L 86.382465 317.894355 
L 86.648666 320.508952 
L 86.914866 331.690841 
L 87.181067 332.317249 
L 87.447268 356.523157 
L 87.713468 356.463479 
L 87.979669 366.696276 
L 88.245869 364.218774 
L 88.77827 365.822265 
L 89.044471 363.590494 
L 89.310672 365.08278 
L 89.576872 363.066351 
L 90.109273 364.854259 
L 90.375474 363.125666 
L 90.641674 366.696663 
L 90.907875 365.223408 
L 91.440276 364.721168 
L 91.706477 363.435691 
L 91.972677 365.974264 
L 92.238878 364.773549 
L 92.771279 365.572143 
L 93.037479 364.564735 
L 93.30368 362.369323 
L 94.368482 367.137962 
L 94.634683 357.730023 
L 94.900883 364.712473 
L 95.167084 365.19955 
L 95.699485 364.701584 
L 95.965686 358.931497 
L 96.231886 364.29142 
L 96.764287 361.376005 
L 97.030488 365.688714 
L 97.296688 363.797468 
L 97.562889 366.745181 
L 97.82909 366.878845 
L 98.09529 366.868955 
L 98.361491 363.563403 
L 98.627691 366.934526 
L 98.893892 364.91204 
L 99.160092 367.835384 
L 99.426293 364.658987 
L 99.692494 367.440457 
L 99.958694 365.254234 
L 100.224895 367.781955 
L 100.757296 364.464851 
L 101.023496 366.677155 
L 101.289697 361.251719 
L 101.555897 363.251972 
L 102.088299 362.999163 
L 102.6207 362.120395 
L 103.153101 366.85085 
L 103.685502 366.756161 
L 103.951703 367.84441 
L 104.217903 367.18248 
L 104.484104 367.980747 
L 104.750304 367.812565 
L 105.016505 367.099196 
L 105.282705 367.994727 
L 105.548906 366.637953 
L 105.815106 367.50922 
L 106.081307 367.630731 
L 106.613708 367.597371 
L 106.879909 365.550863 
L 107.41231 366.700662 
L 107.67851 367.044658 
L 107.944711 367.121754 
L 108.210912 365.595882 
L 108.477112 366.903177 
L 109.009513 362.968331 
L 109.275714 365.997512 
L 109.541914 358.85375 
L 109.808115 365.625703 
L 110.340516 359.85146 
L 110.606717 365.689655 
L 110.872917 359.890463 
L 111.139118 365.159624 
L 111.671519 357.010087 
L 111.937719 361.427637 
L 112.20392 352.244366 
L 112.470121 352.654674 
L 113.002522 357.230294 
L 113.268722 356.257783 
L 113.534923 362.710191 
L 113.801123 361.910045 
L 114.067324 363.937686 
L 114.333525 364.783627 
L 114.599725 361.173532 
L 114.865926 365.188345 
L 115.132126 363.049198 
L 115.664527 364.62551 
L 115.930728 362.651598 
L 116.196928 366.802047 
L 116.463129 364.971884 
L 116.99553 366.606523 
L 117.261731 364.265633 
L 117.527931 367.670771 
L 117.794132 365.796199 
L 118.326533 367.117109 
L 118.592734 365.480577 
L 118.858934 366.833926 
L 119.125135 366.586648 
L 119.657536 367.474712 
L 119.923736 366.518314 
L 120.456138 367.430788 
L 120.988539 365.890178 
L 121.254739 364.951598 
L 121.52094 367.345455 
L 121.78714 366.587278 
L 122.053341 366.951744 
L 122.585742 366.671355 
L 122.851943 366.3847 
L 123.118143 365.786666 
L 123.384344 366.943758 
L 123.650544 366.455157 
L 123.916745 366.750634 
L 124.182945 364.882668 
L 124.449146 365.394253 
L 125.247748 365.850236 
L 125.513948 367.141486 
L 125.780149 366.921646 
L 126.046349 367.10404 
L 126.31255 366.884433 
L 126.57875 366.947774 
L 126.844951 364.209628 
L 127.111152 363.835421 
L 127.643553 366.569788 
L 127.909753 366.315998 
L 128.175954 366.8497 
L 128.708355 367.065325 
L 129.240756 366.702194 
L 129.506957 365.9053 
L 129.773157 365.678896 
L 130.039358 367.402941 
L 130.305558 364.537694 
L 130.571759 364.718951 
L 130.837959 366.712683 
L 131.10416 366.860878 
L 131.370361 367.517182 
L 131.902762 367.404803 
L 132.168962 364.894734 
L 132.435163 365.023482 
L 132.967564 363.078839 
L 133.233765 363.193265 
L 133.499965 365.888631 
L 134.032366 365.975157 
L 134.298567 365.920685 
L 134.564767 365.991994 
L 134.830968 366.867785 
L 135.097169 366.78001 
L 135.62957 365.437425 
L 135.89577 365.399513 
L 136.161971 364.943093 
L 136.428171 364.971209 
L 136.694372 366.334552 
L 136.960572 366.151785 
L 137.226773 366.257861 
L 137.492974 357.386898 
L 137.759174 357.565501 
L 138.291575 339.840442 
L 138.557776 340.257195 
L 138.823976 345.682998 
L 139.090177 346.278007 
L 139.356378 345.969149 
L 139.622578 337.089886 
L 139.888779 337.771484 
L 140.154979 351.258897 
L 140.42118 352.173057 
L 141.219781 356.473093 
L 141.485982 346.439301 
L 141.752183 347.378544 
L 142.018383 356.935467 
L 142.284584 357.447562 
L 142.550784 358.671055 
L 142.816985 345.453002 
L 143.083185 346.749335 
L 143.615587 356.678666 
L 143.881787 357.951376 
L 144.147988 353.089554 
L 144.414188 354.369269 
L 144.680389 362.632748 
L 144.946589 345.148355 
L 145.21279 352.896865 
L 145.478991 351.862592 
L 145.745191 352.56369 
L 146.011392 361.789611 
L 146.277592 361.791505 
L 146.543793 362.006362 
L 146.809993 358.219818 
L 147.076194 360.063285 
L 147.342394 355.993859 
L 147.608595 357.878199 
L 148.140996 348.667205 
L 149.471999 358.313553 
L 149.7382 359.569514 
L 150.0044 354.221924 
L 151.069202 365.528871 
L 151.335403 360.598798 
L 151.601603 360.784507 
L 151.867804 362.851773 
L 152.134005 363.668986 
L 152.400205 365.374696 
L 152.666406 359.767485 
L 152.932606 361.032311 
L 153.198807 360.354315 
L 153.465007 359.356366 
L 153.731208 360.314595 
L 153.997409 351.474002 
L 154.263609 352.282813 
L 154.79601 350.190061 
L 155.062211 350.847108 
L 155.328411 345.33146 
L 155.594612 346.230353 
L 156.127013 360.299513 
L 156.393214 361.28705 
L 156.659414 364.255463 
L 156.925615 363.005231 
L 157.191815 365.327548 
L 157.458016 362.802364 
L 157.724216 362.029959 
L 157.990417 367.360408 
L 158.256618 365.855647 
L 158.789019 354.857828 
L 159.055219 354.215323 
L 159.32142 344.395774 
L 159.58762 345.102252 
L 159.853821 349.328759 
L 160.120022 348.512065 
L 160.386222 350.219566 
L 160.918623 341.136659 
L 161.184824 342.455497 
L 161.451024 339.073946 
L 161.717225 339.580765 
L 161.983425 351.388414 
L 162.249626 350.830602 
L 162.515827 363.299649 
L 162.782027 355.104618 
L 163.048228 356.047024 
L 163.314428 343.210232 
L 163.580629 342.211556 
L 163.846829 351.623865 
L 164.11303 356.620001 
L 164.379231 356.171859 
L 164.645431 362.477667 
L 165.177832 360.239032 
L 165.710233 357.901439 
L 165.976434 346.945513 
L 166.242634 347.76536 
L 166.508835 351.139185 
L 166.775036 324.400223 
L 167.041236 327.118076 
L 167.307437 359.032254 
L 167.839838 352.286501 
L 168.106038 347.785573 
L 168.372239 350.370952 
L 168.63844 358.33766 
L 168.90464 359.652326 
L 169.437041 346.448333 
L 169.703242 346.416164 
L 169.969442 350.900012 
L 170.235643 350.396779 
L 170.768044 360.010229 
L 171.034245 358.892398 
L 171.300445 334.605266 
L 171.566646 333.123064 
L 172.099047 353.973258 
L 172.365247 352.376817 
L 172.631448 353.42092 
L 172.897649 355.869452 
L 173.163849 353.201231 
L 173.69625 342.83108 
L 173.962451 343.891751 
L 174.494852 337.756038 
L 175.027253 330.172552 
L 175.293454 353.776687 
L 175.559654 355.372678 
L 175.825855 352.59785 
L 176.092055 347.84874 
L 176.358256 346.671512 
L 176.624456 348.534249 
L 176.890657 345.883389 
L 177.156858 345.628179 
L 177.423058 345.193349 
L 177.689259 342.783867 
L 177.955459 353.225934 
L 178.22166 352.309612 
L 178.754061 356.261978 
L 179.020262 355.832927 
L 179.286462 356.040132 
L 179.552663 356.529152 
L 180.085064 348.686097 
L 180.351264 353.597513 
L 180.617465 346.593974 
L 180.883666 352.529739 
L 181.149866 354.58488 
L 181.416067 355.090873 
L 181.682267 352.506638 
L 181.948468 336.219619 
L 182.214668 342.172449 
L 182.480869 343.344523 
L 182.747069 343.17781 
L 183.01327 345.790816 
L 183.279471 342.514769 
L 183.545671 345.258208 
L 184.078072 355.070445 
L 184.344273 354.045043 
L 184.610473 357.937908 
L 185.142875 353.941618 
L 185.409075 345.727223 
L 185.675276 346.677524 
L 185.941476 348.483597 
L 186.207677 349.256461 
L 186.740078 331.376952 
L 187.006278 327.811574 
L 187.272479 312.44209 
L 187.53868 309.297055 
L 188.071081 348.941027 
L 188.337281 343.794453 
L 188.603482 359.109104 
L 189.402084 344.350089 
L 189.668284 343.547008 
L 189.934485 317.796195 
L 190.200685 320.185378 
L 190.466886 323.692388 
L 190.733086 321.495553 
L 190.999287 327.175643 
L 191.265488 349.571759 
L 191.531688 346.845396 
L 191.797889 350.052058 
L 192.064089 337.754361 
L 192.33029 342.599904 
L 192.59649 333.363637 
L 193.128891 344.380997 
L 193.395092 345.718374 
L 193.661293 350.088256 
L 193.927493 350.426788 
L 194.459894 354.642297 
L 194.726095 357.001918 
L 194.992295 357.9709 
L 195.258496 356.613134 
L 195.524697 358.750518 
L 196.057098 348.626312 
L 196.323298 349.833756 
L 196.589499 340.989724 
L 197.1219 348.309984 
L 197.3881 349.221956 
L 197.920502 352.686701 
L 198.186702 354.038472 
L 198.452903 352.258276 
L 198.719103 352.298938 
L 198.985304 356.40072 
L 199.251504 338.857399 
L 199.783906 346.032097 
L 200.316307 350.401374 
L 200.582507 343.135846 
L 201.114908 356.432544 
L 201.381109 346.539315 
L 201.647309 347.514242 
L 202.179711 341.010105 
L 202.445911 347.024391 
L 202.712112 341.620042 
L 202.978312 339.771933 
L 203.244513 351.480466 
L 203.510713 352.626433 
L 203.776914 352.098486 
L 204.043115 352.03433 
L 204.309315 355.902394 
L 204.575516 349.827122 
L 205.374117 358.50457 
L 205.640318 360.494797 
L 205.906519 352.349026 
L 206.172719 354.707301 
L 206.70512 341.769035 
L 206.971321 343.699051 
L 207.503722 339.222066 
L 208.036123 353.924973 
L 208.302324 352.541964 
L 208.568524 352.279815 
L 208.834725 350.558762 
L 209.367126 358.63602 
L 209.633326 357.234756 
L 209.899527 346.203305 
L 210.165728 344.854694 
L 210.698129 336.309693 
L 210.964329 335.149821 
L 211.23053 356.227094 
L 211.49673 353.927262 
L 211.762931 354.563667 
L 212.029131 352.790657 
L 212.295332 349.431553 
L 212.561533 351.354077 
L 212.827733 348.648767 
L 213.093934 349.016141 
L 213.360134 348.915961 
L 213.626335 346.657654 
L 213.892535 345.909666 
L 214.691137 340.823019 
L 214.957338 339.781721 
L 215.223538 341.087533 
L 215.489739 339.880452 
L 216.02214 346.734963 
L 216.288341 346.199662 
L 216.554541 349.304129 
L 216.820742 349.527957 
L 217.353143 349.544199 
L 217.619343 350.050305 
L 217.885544 352.19672 
L 218.151744 353.222879 
L 218.684146 350.239351 
L 219.216547 351.977662 
L 219.482747 352.313214 
L 219.748948 350.981948 
L 220.015148 351.92006 
L 220.281349 356.597268 
L 220.54755 345.27028 
L 220.81375 351.961455 
L 221.346151 344.043488 
L 221.612352 351.189923 
L 221.878552 328.703737 
L 222.144753 335.792059 
L 222.677154 325.040758 
L 223.475756 347.549262 
L 223.741956 349.149326 
L 224.008157 349.123375 
L 224.274357 347.940936 
L 224.540558 357.069113 
L 224.806759 356.529535 
L 225.33916 349.470146 
L 225.60536 349.060921 
L 225.871561 331.996708 
L 226.137761 330.670586 
L 226.670163 334.714783 
L 226.936363 333.890336 
L 227.202564 364.619971 
L 227.468764 364.574021 
L 227.734965 366.578816 
L 228.001165 367.549156 
L 228.267366 367.41682 
L 228.533566 347.772429 
L 228.799767 347.867789 
L 229.332168 354.137349 
L 229.598369 354.119141 
L 229.864569 350.655447 
L 230.13077 351.837129 
L 230.39697 360.045364 
L 230.663171 364.708205 
L 230.929372 365.283179 
L 231.195572 354.340653 
L 231.461773 352.637911 
L 231.994174 358.612691 
L 232.260374 356.361837 
L 232.526575 345.738388 
L 232.792775 344.439171 
L 233.325177 360.318429 
L 233.591377 360.056317 
L 234.389979 355.690752 
L 234.656179 352.392204 
L 234.92238 352.433531 
L 235.188581 348.931651 
L 235.454781 349.07533 
L 235.987182 313.417894 
L 236.253383 314.938167 
L 236.519583 341.403754 
L 236.785784 340.717966 
L 237.318185 343.426053 
L 237.584386 342.518117 
L 237.850586 357.277534 
L 238.116787 355.712694 
L 238.649188 346.162997 
L 238.915388 344.602482 
L 239.181589 361.502116 
L 239.44779 362.201096 
L 239.71399 359.620138 
L 239.980191 358.964128 
L 240.246391 363.985191 
L 240.512592 361.675035 
L 241.044993 364.03961 
L 241.311194 356.916229 
L 241.577394 360.122388 
L 241.843595 357.413394 
L 242.109795 357.542847 
L 242.375996 349.163476 
L 242.642196 335.606954 
L 242.908397 338.759235 
L 243.174597 350.207711 
L 243.440798 347.852506 
L 243.706999 342.195902 
L 243.973199 305.931456 
L 244.2394 304.519546 
L 244.5056 355.309839 
L 244.771801 355.029715 
L 245.038001 365.713604 
L 245.304202 354.244532 
L 245.570403 353.48407 
L 245.836603 356.58117 
L 246.102804 357.647034 
L 246.635205 349.639006 
L 246.901405 349.254845 
L 247.167606 352.867669 
L 247.433806 352.870259 
L 247.966208 340.912828 
L 248.232408 340.999798 
L 248.498609 338.011011 
L 248.764809 343.430797 
L 249.03101 333.309598 
L 249.29721 314.811806 
L 249.563411 313.700174 
L 249.829612 351.435151 
L 250.362013 357.99343 
L 250.628213 359.935636 
L 250.894414 364.155438 
L 251.160614 358.410675 
L 251.693016 363.661642 
L 251.959216 363.999772 
L 252.225417 361.966208 
L 252.491617 357.342129 
L 252.757818 355.689703 
L 253.024018 355.236861 
L 253.556419 352.980195 
L 253.82262 363.172904 
L 254.088821 360.440032 
L 254.621222 358.385939 
L 254.887422 355.131519 
L 255.153623 359.978947 
L 255.419823 359.82722 
L 255.686024 359.517988 
L 255.952225 356.912992 
L 256.218425 360.099881 
L 256.484626 359.47072 
L 256.750826 365.922202 
L 257.283227 362.005736 
L 257.549428 360.085483 
L 257.815628 353.408668 
L 258.081829 355.745044 
L 258.34803 360.217446 
L 258.61423 359.762338 
L 258.880431 366.536582 
L 259.146631 339.684527 
L 259.412832 346.218271 
L 259.679032 345.302233 
L 259.945233 341.935704 
L 260.211434 342.833476 
L 260.477634 346.540292 
L 260.743835 348.321057 
L 261.276236 285.072221 
L 261.542436 283.160145 
L 261.808637 335.394961 
L 262.074837 332.189117 
L 262.607239 338.640161 
L 262.873439 335.69028 
L 263.13964 346.031947 
L 263.40584 343.303135 
L 263.938241 332.282893 
L 264.204442 335.260702 
L 264.470643 358.336484 
L 264.736843 356.442334 
L 265.003044 357.489942 
L 265.269244 349.362197 
L 265.535445 347.829633 
L 265.801645 335.975688 
L 266.067846 338.718226 
L 266.334047 337.540617 
L 266.600247 335.547828 
L 266.866448 338.030246 
L 267.132648 335.79225 
L 267.398849 338.01256 
L 267.93125 352.627376 
L 268.19745 355.046592 
L 268.463651 352.580417 
L 268.729852 354.614052 
L 268.996052 362.663743 
L 269.528453 366.007375 
L 269.794654 358.800976 
L 270.327055 363.228378 
L 270.593256 363.894983 
L 270.859456 365.835317 
L 271.125657 364.726043 
L 271.391857 364.139891 
L 271.658058 361.96761 
L 271.924258 358.046244 
L 272.190459 357.7646 
L 272.456659 349.946203 
L 272.72286 347.122618 
L 273.255261 352.959999 
L 273.787662 347.476234 
L 274.053863 349.738128 
L 274.320063 361.930783 
L 274.586264 343.451659 
L 274.852465 341.992264 
L 275.118665 324.092555 
L 275.384866 324.467358 
L 275.917267 336.271797 
L 276.183467 337.144613 
L 276.449668 357.679731 
L 276.715869 357.375988 
L 276.982069 361.611412 
L 277.24827 363.377347 
L 277.51447 361.94882 
L 277.780671 362.075427 
L 278.046871 363.201866 
L 278.579272 351.766141 
L 278.845473 352.755855 
L 279.111674 346.638203 
L 279.377874 347.551267 
L 279.644075 357.110425 
L 279.910275 362.655961 
L 280.176476 361.109865 
L 280.442676 364.077922 
L 280.708877 365.166181 
L 280.975078 365.749918 
L 281.507479 365.540788 
L 281.773679 364.335818 
L 282.30608 365.225135 
L 282.572281 362.698955 
L 282.838481 364.69096 
L 283.104682 365.103269 
L 283.637083 367.345077 
L 283.903284 366.053974 
L 284.169484 366.010006 
L 284.435685 366.635836 
L 284.701885 363.355597 
L 284.968086 365.679682 
L 285.234287 366.529273 
L 285.500487 365.226706 
L 285.766688 360.914967 
L 286.032888 362.734629 
L 286.299089 363.405254 
L 286.565289 360.651738 
L 286.83149 362.346118 
L 287.097691 362.233447 
L 287.630092 365.992353 
L 287.896292 364.73866 
L 288.162493 361.270688 
L 288.428693 363.939064 
L 288.961094 360.420027 
L 289.227295 358.993062 
L 290.558298 347.302982 
L 290.824498 345.125565 
L 291.090699 352.801569 
L 291.3569 350.867193 
L 291.6231 361.403438 
L 291.889301 360.468505 
L 292.155501 361.249728 
L 292.421702 366.684843 
L 292.687902 365.476481 
L 292.954103 366.225991 
L 293.220303 366.29078 
L 293.486504 365.05109 
L 293.752705 364.783165 
L 294.018905 364.794191 
L 294.551306 361.895905 
L 294.817507 361.816045 
L 295.083707 363.525595 
L 295.349908 363.133528 
L 295.616109 363.221225 
L 295.882309 360.324238 
L 296.14851 359.665643 
L 296.41471 362.572998 
L 296.680911 361.798927 
L 296.947111 362.039591 
L 297.213312 361.270981 
L 297.479512 360.855807 
L 298.011914 360.816106 
L 298.278114 361.030406 
L 298.544315 360.265918 
L 298.810515 360.188746 
L 299.076716 362.891833 
L 299.609117 363.482891 
L 299.875318 363.59197 
L 300.141518 364.091741 
L 300.407719 361.422531 
L 300.673919 361.855492 
L 301.20632 366.680529 
L 301.472521 366.916585 
L 301.738722 363.763521 
L 302.004922 363.521538 
L 302.271123 364.437997 
L 302.537323 364.109681 
L 302.803524 364.047037 
L 303.069724 359.706201 
L 303.335925 359.901864 
L 303.602125 357.960281 
L 303.868326 355.186338 
L 304.134527 355.109313 
L 304.400727 362.049237 
L 304.666928 361.982953 
L 304.933128 365.607624 
L 305.199329 359.269092 
L 305.465529 359.416322 
L 305.73173 358.36904 
L 305.997931 358.309447 
L 306.530332 345.973012 
L 306.796532 345.924636 
L 307.062733 342.602683 
L 307.328933 342.606068 
L 307.861334 359.671847 
L 308.127535 360.000927 
L 308.393736 360.596651 
L 308.659936 360.802614 
L 308.926137 364.712411 
L 309.192337 365.626651 
L 309.458538 365.510398 
L 309.724738 359.00834 
L 309.990939 359.027899 
L 310.25714 359.784372 
L 310.52334 358.575729 
L 310.789541 354.761073 
L 311.055741 354.626598 
L 311.588142 352.1705 
L 312.120544 346.70575 
L 312.386744 349.949889 
L 312.652945 347.889629 
L 313.185346 334.057152 
L 313.451546 336.37927 
L 313.717747 333.703082 
L 314.250148 340.103246 
L 314.516349 317.836912 
L 314.782549 315.667578 
L 315.04875 291.862263 
L 315.31495 295.002236 
L 315.581151 349.439981 
L 315.847351 329.372298 
L 316.113552 328.765892 
L 316.379753 346.152756 
L 316.645953 354.627896 
L 317.178354 338.402802 
L 317.444555 343.607452 
L 317.710755 341.7226 
L 318.243156 347.653445 
L 318.509357 350.731399 
L 318.775558 352.119875 
L 319.041758 343.791261 
L 319.307959 340.072484 
L 319.84036 345.834958 
L 320.638962 336.236396 
L 321.171363 322.614977 
L 321.437563 320.811639 
L 321.703764 340.904293 
L 321.969964 340.463244 
L 322.502366 324.440688 
L 322.768566 321.810035 
L 323.034767 359.274395 
L 323.300967 355.995657 
L 323.567168 356.238508 
L 324.099569 350.808023 
L 324.365769 357.953501 
L 324.63197 360.047882 
L 325.164371 353.666578 
L 325.430572 355.566329 
L 325.696772 352.086856 
L 325.962973 353.443098 
L 326.761575 334.520999 
L 327.027775 326.073715 
L 327.293976 325.042604 
L 327.560176 321.119093 
L 327.826377 322.645717 
L 328.092577 348.967887 
L 328.358778 350.050599 
L 328.891179 236.109952 
L 329.15738 237.639902 
L 329.42358 71.630659 
L 329.689781 70.689273 
L 330.222182 320.759335 
L 330.488382 321.056284 
L 330.754583 363.575126 
L 331.020784 366.090066 
L 331.286984 365.850581 
L 331.553185 362.285241 
L 331.819385 365.709993 
L 332.085586 349.404798 
L 332.351786 349.001857 
L 332.884187 323.893099 
L 333.150388 324.319714 
L 333.416589 304.34878 
L 333.682789 306.320366 
L 334.21519 317.59046 
L 334.481391 318.865117 
L 334.747591 292.400971 
L 335.013792 292.626788 
L 335.546193 330.259747 
L 335.812394 330.637817 
L 336.078594 343.976065 
L 336.344795 345.066901 
L 336.610995 344.479196 
L 336.877196 342.407104 
L 337.143397 342.74191 
L 337.409597 364.474307 
L 337.675798 342.004376 
L 337.941998 350.917015 
L 338.208199 347.940061 
L 338.474399 348.911479 
L 338.7406 338.101399 
L 339.0068 338.66869 
L 339.273001 330.199135 
L 339.539202 316.610559 
L 339.805402 316.375334 
L 340.337803 314.922854 
L 340.604004 351.542522 
L 340.870204 343.735604 
L 341.136405 344.109833 
L 341.402606 330.970653 
L 341.668806 331.347125 
L 342.201207 304.571279 
L 342.467408 305.311777 
L 342.733608 328.418785 
L 342.999809 329.118021 
L 343.53221 321.847045 
L 343.798411 322.824261 
L 344.064611 354.704942 
L 344.330812 354.772808 
L 344.597012 349.489327 
L 344.863213 337.054648 
L 345.129413 338.055856 
L 345.395614 311.417899 
L 345.661815 310.990725 
L 346.194216 328.55656 
L 346.460416 327.868632 
L 346.726617 270.691257 
L 346.992817 269.983628 
L 347.259018 331.057521 
L 347.525219 336.634139 
L 347.791419 337.21848 
L 348.05762 365.794716 
L 348.32382 365.031468 
L 348.856221 328.113865 
L 349.122422 328.548464 
L 349.388622 298.461642 
L 349.654823 299.462472 
L 349.921024 299.096966 
L 350.187224 289.685646 
L 350.453425 290.881514 
L 350.719625 345.937276 
L 350.985826 346.149482 
L 351.252026 355.189499 
L 351.518227 351.29219 
L 351.784428 350.042284 
L 352.050628 291.361284 
L 352.316829 290.223248 
L 352.583029 326.197954 
L 352.84923 292.763331 
L 353.11543 293.668414 
L 353.381631 288.176721 
L 353.647831 289.699848 
L 354.180233 326.036887 
L 354.446433 327.559152 
L 354.978834 275.471363 
L 355.245035 329.675931 
L 355.511235 346.2097 
L 355.777436 345.91745 
L 356.043637 353.768995 
L 356.309837 357.021313 
L 356.842238 304.302047 
L 357.108439 302.525057 
L 357.374639 312.548647 
L 357.64084 312.791791 
L 357.907041 309.209854 
L 358.173241 287.372959 
L 358.439442 289.327794 
L 358.705642 294.772087 
L 358.971843 296.639273 
L 359.238043 348.455377 
L 359.504244 333.875596 
L 359.770444 332.234457 
L 360.036645 267.780492 
L 360.302846 265.995635 
L 360.835247 297.48144 
L 361.101447 296.146259 
L 361.367648 230.010943 
L 361.633848 231.552854 
L 362.16625 290.536011 
L 362.43245 292.367321 
L 362.698651 288.082704 
L 362.964851 273.004283 
L 363.497252 329.855133 
L 363.763453 327.661999 
L 364.029653 294.889691 
L 364.295854 292.87446 
L 364.562055 356.517279 
L 364.828255 298.979029 
L 365.094456 300.502692 
L 365.360656 213.764195 
L 365.626857 214.829859 
L 366.159258 311.0285 
L 366.95786 303.589604 
L 367.22406 301.404432 
L 367.490261 279.948201 
L 367.756461 282.270292 
L 368.022662 268.572081 
L 368.288862 266.638456 
L 368.555063 336.63742 
L 368.821264 217.233093 
L 369.087464 219.033195 
L 369.353665 253.358196 
L 369.619865 254.842016 
L 370.152266 310.661524 
L 370.418467 311.790813 
L 370.684668 314.914265 
L 370.950868 313.687682 
L 371.483269 214.783635 
L 371.74947 214.088361 
L 372.01567 304.018497 
L 372.281871 303.398694 
L 372.814272 343.780087 
L 373.080473 343.654084 
L 373.346673 291.127889 
L 373.612874 290.720083 
L 373.879074 328.81702 
L 374.145275 219.770603 
L 374.411475 220.324187 
L 374.677676 316.45621 
L 374.943877 316.832096 
L 375.476278 349.483361 
L 375.742478 349.752917 
L 376.008679 361.294771 
L 376.274879 345.997904 
L 376.54108 339.908313 
L 376.807281 330.754141 
L 377.073481 330.630279 
L 377.339682 308.637038 
L 377.605882 308.722804 
L 378.138283 350.65402 
L 378.404484 350.678372 
L 378.670684 347.196713 
L 378.936885 347.301013 
L 379.469286 326.978106 
L 379.735487 327.141654 
L 380.001687 320.622762 
L 380.267888 320.71449 
L 380.534088 343.364473 
L 380.800289 352.939872 
L 381.06649 352.994659 
L 381.33269 352.748165 
L 381.598891 352.812598 
L 382.131292 361.334089 
L 382.397492 361.397545 
L 382.663693 364.299303 
L 382.929894 364.331 
L 383.462295 343.325466 
L 383.728495 343.342542 
L 383.994696 348.649666 
L 384.260896 348.682602 
L 384.527097 352.995065 
L 384.793297 343.981518 
L 385.059498 344.061324 
L 385.325699 335.016091 
L 385.8581 335.047813 
L 386.1243 351.631711 
L 386.390501 351.579775 
L 386.656701 363.833559 
L 386.922902 363.846876 
L 387.189103 362.490182 
L 387.455303 358.031343 
L 387.721504 358.076402 
L 387.987704 344.195364 
L 388.253905 344.188699 
L 388.520105 331.376095 
L 388.786306 311.584123 
L 389.052506 311.641737 
L 389.318707 348.801544 
L 389.584908 348.845397 
L 389.851108 350.247903 
L 390.117309 344.961471 
L 390.383509 344.994182 
L 390.64971 335.326029 
L 390.91591 335.38857 
L 391.182111 343.811202 
L 391.448312 343.193727 
L 391.714512 343.256875 
L 391.980713 346.930874 
L 392.246913 341.948272 
L 392.513114 355.594938 
L 392.779314 356.894282 
L 393.045515 355.730702 
L 393.311715 350.264197 
L 393.577916 326.57957 
L 393.844117 352.240321 
L 394.110317 355.967485 
L 394.642718 356.114115 
L 395.175119 293.585105 
L 395.44132 288.924097 
L 395.707521 282.088995 
L 395.973721 328.582369 
L 396.239922 349.642473 
L 396.506122 349.539488 
L 396.772323 352.078061 
L 397.038523 351.508902 
L 397.304724 358.03307 
L 397.570925 358.372945 
L 397.837125 353.762846 
L 398.103326 344.306364 
L 398.369526 344.155497 
L 398.635727 346.463714 
L 399.168128 340.193952 
L 399.434328 339.479841 
L 399.700529 336.112383 
L 399.96673 325.570493 
L 400.23293 305.655915 
L 400.765331 320.945089 
L 401.031532 319.700658 
L 401.297732 348.075881 
L 401.563933 346.303289 
L 402.096334 328.845647 
L 402.362535 331.70604 
L 402.628735 341.005696 
L 403.161136 346.591321 
L 403.161136 346.591321 
" style="fill:none;stroke:#808080;stroke-linecap:round;stroke-width:1.5;"/>
   </g>
   <g id="line2d_17">
    <path clip-path="url(#p3aa599d4bb)" d="M 69.705 333.719651 
L 419.04 333.719651 
" style="fill:none;stroke:#4c72b0;stroke-linecap:round;stroke-width:2;"/>
   </g>
   <g id="line2d_18">
    <path clip-path="url(#p3aa599d4bb)" d="M 69.705 352.269045 
L 419.04 352.269045 
" style="fill:none;stroke:#55a868;stroke-linecap:round;stroke-width:2;"/>
   </g>
   <g id="line2d_19">
    <path clip-path="url(#p3aa599d4bb)" d="M 69.705 345.700468 
L 419.04 345.700468 
" style="fill:none;stroke:#c44e52;stroke-linecap:round;stroke-width:2;"/>
   </g>
   <g id="patch_4">
    <path d="M 69.705 382.86 
L 69.705 55.824 
" style="fill:none;stroke:#ffffff;stroke-linecap:square;stroke-linejoin:miter;stroke-width:1.25;"/>
   </g>
   <g id="patch_5">
    <path d="M 419.04 382.86 
L 419.04 55.824 
" style="fill:none;stroke:#ffffff;stroke-linecap:square;stroke-linejoin:miter;stroke-width:1.25;"/>
   </g>
   <g id="patch_6">
    <path d="M 69.705 382.86 
L 419.04 382.86 
" style="fill:none;stroke:#ffffff;stroke-linecap:square;stroke-linejoin:miter;stroke-width:1.25;"/>
   </g>
   <g id="patch_7">
    <path d="M 69.705 55.824 
L 419.04 55.824 
" style="fill:none;stroke:#ffffff;stroke-linecap:square;stroke-linejoin:miter;stroke-width:1.25;"/>
   </g>
   <g id="text_18">
    <!-- RPE w.r.t. translation part (m) -->
    <g style="fill:#262626;" transform="translate(155.724375 22.94925)scale(0.12 -0.12)">
     <defs>
      <path d="M 4.203125 54.6875 
L 13.1875 54.6875 
L 24.421875 12.015625 
L 35.59375 54.6875 
L 46.1875 54.6875 
L 57.421875 12.015625 
L 68.609375 54.6875 
L 77.59375 54.6875 
L 63.28125 0 
L 52.6875 0 
L 40.921875 44.828125 
L 29.109375 0 
L 18.5 0 
z
" id="DejaVuSans-119"/>
      <path d="M 41.109375 46.296875 
Q 39.59375 47.171875 37.8125 47.578125 
Q 36.03125 48 33.890625 48 
Q 26.265625 48 22.1875 43.046875 
Q 18.109375 38.09375 18.109375 28.8125 
L 18.109375 0 
L 9.078125 0 
L 9.078125 54.6875 
L 18.109375 54.6875 
L 18.109375 46.1875 
Q 20.953125 51.171875 25.484375 53.578125 
Q 30.03125 56 36.53125 56 
Q 37.453125 56 38.578125 55.875 
Q 39.703125 55.765625 41.0625 55.515625 
z
" id="DejaVuSans-114"/>
      <path d="M 18.3125 70.21875 
L 18.3125 54.6875 
L 36.8125 54.6875 
L 36.8125 47.703125 
L 18.3125 47.703125 
L 18.3125 18.015625 
Q 18.3125 11.328125 20.140625 9.421875 
Q 21.96875 7.515625 27.59375 7.515625 
L 36.8125 7.515625 
L 36.8125 0 
L 27.59375 0 
Q 17.1875 0 13.234375 3.875 
Q 9.28125 7.765625 9.28125 18.015625 
L 9.28125 47.703125 
L 2.6875 47.703125 
L 2.6875 54.6875 
L 9.28125 54.6875 
L 9.28125 70.21875 
z
" id="DejaVuSans-116"/>
      <path d="M 34.28125 27.484375 
Q 23.390625 27.484375 19.1875 25 
Q 14.984375 22.515625 14.984375 16.5 
Q 14.984375 11.71875 18.140625 8.90625 
Q 21.296875 6.109375 26.703125 6.109375 
Q 34.1875 6.109375 38.703125 11.40625 
Q 43.21875 16.703125 43.21875 25.484375 
L 43.21875 27.484375 
z
M 52.203125 31.203125 
L 52.203125 0 
L 43.21875 0 
L 43.21875 8.296875 
Q 40.140625 3.328125 35.546875 0.953125 
Q 30.953125 -1.421875 24.3125 -1.421875 
Q 15.921875 -1.421875 10.953125 3.296875 
Q 6 8.015625 6 15.921875 
Q 6 25.140625 12.171875 29.828125 
Q 18.359375 34.515625 30.609375 34.515625 
L 43.21875 34.515625 
L 43.21875 35.40625 
Q 43.21875 41.609375 39.140625 45 
Q 35.0625 48.390625 27.6875 48.390625 
Q 23 48.390625 18.546875 47.265625 
Q 14.109375 46.140625 10.015625 43.890625 
L 10.015625 52.203125 
Q 14.9375 54.109375 19.578125 55.046875 
Q 24.21875 56 28.609375 56 
Q 40.484375 56 46.34375 49.84375 
Q 52.203125 43.703125 52.203125 31.203125 
z
" id="DejaVuSans-97"/>
      <path d="M 54.890625 33.015625 
L 54.890625 0 
L 45.90625 0 
L 45.90625 32.71875 
Q 45.90625 40.484375 42.875 44.328125 
Q 39.84375 48.1875 33.796875 48.1875 
Q 26.515625 48.1875 22.3125 43.546875 
Q 18.109375 38.921875 18.109375 30.90625 
L 18.109375 0 
L 9.078125 0 
L 9.078125 54.6875 
L 18.109375 54.6875 
L 18.109375 46.1875 
Q 21.34375 51.125 25.703125 53.5625 
Q 30.078125 56 35.796875 56 
Q 45.21875 56 50.046875 50.171875 
Q 54.890625 44.34375 54.890625 33.015625 
z
" id="DejaVuSans-110"/>
      <path d="M 9.421875 75.984375 
L 18.40625 75.984375 
L 18.40625 0 
L 9.421875 0 
z
" id="DejaVuSans-108"/>
      <path d="M 9.421875 54.6875 
L 18.40625 54.6875 
L 18.40625 0 
L 9.421875 0 
z
M 9.421875 75.984375 
L 18.40625 75.984375 
L 18.40625 64.59375 
L 9.421875 64.59375 
z
" id="DejaVuSans-105"/>
      <path d="M 30.609375 48.390625 
Q 23.390625 48.390625 19.1875 42.75 
Q 14.984375 37.109375 14.984375 27.296875 
Q 14.984375 17.484375 19.15625 11.84375 
Q 23.34375 6.203125 30.609375 6.203125 
Q 37.796875 6.203125 41.984375 11.859375 
Q 46.1875 17.53125 46.1875 27.296875 
Q 46.1875 37.015625 41.984375 42.703125 
Q 37.796875 48.390625 30.609375 48.390625 
z
M 30.609375 56 
Q 42.328125 56 49.015625 48.375 
Q 55.71875 40.765625 55.71875 27.296875 
Q 55.71875 13.875 49.015625 6.21875 
Q 42.328125 -1.421875 30.609375 -1.421875 
Q 18.84375 -1.421875 12.171875 6.21875 
Q 5.515625 13.875 5.515625 27.296875 
Q 5.515625 40.765625 12.171875 48.375 
Q 18.84375 56 30.609375 56 
z
" id="DejaVuSans-111"/>
      <path d="M 18.109375 8.203125 
L 18.109375 -20.796875 
L 9.078125 -20.796875 
L 9.078125 54.6875 
L 18.109375 54.6875 
L 18.109375 46.390625 
Q 20.953125 51.265625 25.265625 53.625 
Q 29.59375 56 35.59375 56 
Q 45.5625 56 51.78125 48.09375 
Q 58.015625 40.1875 58.015625 27.296875 
Q 58.015625 14.40625 51.78125 6.484375 
Q 45.5625 -1.421875 35.59375 -1.421875 
Q 29.59375 -1.421875 25.265625 0.953125 
Q 20.953125 3.328125 18.109375 8.203125 
z
M 48.6875 27.296875 
Q 48.6875 37.203125 44.609375 42.84375 
Q 40.53125 48.484375 33.40625 48.484375 
Q 26.265625 48.484375 22.1875 42.84375 
Q 18.109375 37.203125 18.109375 27.296875 
Q 18.109375 17.390625 22.1875 11.75 
Q 26.265625 6.109375 33.40625 6.109375 
Q 40.53125 6.109375 44.609375 11.75 
Q 48.6875 17.390625 48.6875 27.296875 
z
" id="DejaVuSans-112"/>
     </defs>
     <use xlink:href="#DejaVuSans-82"/>
     <use x="69.482422" xlink:href="#DejaVuSans-80"/>
     <use x="129.785156" xlink:href="#DejaVuSans-69"/>
     <use x="192.96875" xlink:href="#DejaVuSans-32"/>
     <use x="224.755859" xlink:href="#DejaVuSans-119"/>
     <use x="297.417969" xlink:href="#DejaVuSans-46"/>
     <use x="329.205078" xlink:href="#DejaVuSans-114"/>
     <use x="361.193359" xlink:href="#DejaVuSans-46"/>
     <use x="392.980469" xlink:href="#DejaVuSans-116"/>
     <use x="432.189453" xlink:href="#DejaVuSans-46"/>
     <use x="463.976562" xlink:href="#DejaVuSans-32"/>
     <use x="495.763672" xlink:href="#DejaVuSans-116"/>
     <use x="534.972656" xlink:href="#DejaVuSans-114"/>
     <use x="576.085938" xlink:href="#DejaVuSans-97"/>
     <use x="637.365234" xlink:href="#DejaVuSans-110"/>
     <use x="700.744141" xlink:href="#DejaVuSans-115"/>
     <use x="752.84375" xlink:href="#DejaVuSans-108"/>
     <use x="780.626953" xlink:href="#DejaVuSans-97"/>
     <use x="841.90625" xlink:href="#DejaVuSans-116"/>
     <use x="881.115234" xlink:href="#DejaVuSans-105"/>
     <use x="908.898438" xlink:href="#DejaVuSans-111"/>
     <use x="970.080078" xlink:href="#DejaVuSans-110"/>
     <use x="1033.458984" xlink:href="#DejaVuSans-32"/>
     <use x="1065.246094" xlink:href="#DejaVuSans-112"/>
     <use x="1128.722656" xlink:href="#DejaVuSans-97"/>
     <use x="1190.001953" xlink:href="#DejaVuSans-114"/>
     <use x="1231.115234" xlink:href="#DejaVuSans-116"/>
     <use x="1270.324219" xlink:href="#DejaVuSans-32"/>
     <use x="1302.111328" xlink:href="#DejaVuSans-40"/>
     <use x="1341.125" xlink:href="#DejaVuSans-109"/>
     <use x="1438.537109" xlink:href="#DejaVuSans-41"/>
    </g>
    <!-- for delta = 1 (frames) using consecutive pairs -->
    <g style="fill:#262626;" transform="translate(106.227188 36.386625)scale(0.12 -0.12)">
     <defs>
      <path d="M 37.109375 75.984375 
L 37.109375 68.5 
L 28.515625 68.5 
Q 23.6875 68.5 21.796875 66.546875 
Q 19.921875 64.59375 19.921875 59.515625 
L 19.921875 54.6875 
L 34.71875 54.6875 
L 34.71875 47.703125 
L 19.921875 47.703125 
L 19.921875 0 
L 10.890625 0 
L 10.890625 47.703125 
L 2.296875 47.703125 
L 2.296875 54.6875 
L 10.890625 54.6875 
L 10.890625 58.5 
Q 10.890625 67.625 15.140625 71.796875 
Q 19.390625 75.984375 28.609375 75.984375 
z
" id="DejaVuSans-102"/>
      <path d="M 45.40625 46.390625 
L 45.40625 75.984375 
L 54.390625 75.984375 
L 54.390625 0 
L 45.40625 0 
L 45.40625 8.203125 
Q 42.578125 3.328125 38.25 0.953125 
Q 33.9375 -1.421875 27.875 -1.421875 
Q 17.96875 -1.421875 11.734375 6.484375 
Q 5.515625 14.40625 5.515625 27.296875 
Q 5.515625 40.1875 11.734375 48.09375 
Q 17.96875 56 27.875 56 
Q 33.9375 56 38.25 53.625 
Q 42.578125 51.265625 45.40625 46.390625 
z
M 14.796875 27.296875 
Q 14.796875 17.390625 18.875 11.75 
Q 22.953125 6.109375 30.078125 6.109375 
Q 37.203125 6.109375 41.296875 11.75 
Q 45.40625 17.390625 45.40625 27.296875 
Q 45.40625 37.203125 41.296875 42.84375 
Q 37.203125 48.484375 30.078125 48.484375 
Q 22.953125 48.484375 18.875 42.84375 
Q 14.796875 37.203125 14.796875 27.296875 
z
" id="DejaVuSans-100"/>
      <path d="M 56.203125 29.59375 
L 56.203125 25.203125 
L 14.890625 25.203125 
Q 15.484375 15.921875 20.484375 11.0625 
Q 25.484375 6.203125 34.421875 6.203125 
Q 39.59375 6.203125 44.453125 7.46875 
Q 49.3125 8.734375 54.109375 11.28125 
L 54.109375 2.78125 
Q 49.265625 0.734375 44.1875 -0.34375 
Q 39.109375 -1.421875 33.890625 -1.421875 
Q 20.796875 -1.421875 13.15625 6.1875 
Q 5.515625 13.8125 5.515625 26.8125 
Q 5.515625 40.234375 12.765625 48.109375 
Q 20.015625 56 32.328125 56 
Q 43.359375 56 49.78125 48.890625 
Q 56.203125 41.796875 56.203125 29.59375 
z
M 47.21875 32.234375 
Q 47.125 39.59375 43.09375 43.984375 
Q 39.0625 48.390625 32.421875 48.390625 
Q 24.90625 48.390625 20.390625 44.140625 
Q 15.875 39.890625 15.1875 32.171875 
z
" id="DejaVuSans-101"/>
      <path d="M 10.59375 45.40625 
L 73.1875 45.40625 
L 73.1875 37.203125 
L 10.59375 37.203125 
z
M 10.59375 25.484375 
L 73.1875 25.484375 
L 73.1875 17.1875 
L 10.59375 17.1875 
z
" id="DejaVuSans-61"/>
      <path d="M 8.5 21.578125 
L 8.5 54.6875 
L 17.484375 54.6875 
L 17.484375 21.921875 
Q 17.484375 14.15625 20.5 10.265625 
Q 23.53125 6.390625 29.59375 6.390625 
Q 36.859375 6.390625 41.078125 11.03125 
Q 45.3125 15.671875 45.3125 23.6875 
L 45.3125 54.6875 
L 54.296875 54.6875 
L 54.296875 0 
L 45.3125 0 
L 45.3125 8.40625 
Q 42.046875 3.421875 37.71875 1 
Q 33.40625 -1.421875 27.6875 -1.421875 
Q 18.265625 -1.421875 13.375 4.4375 
Q 8.5 10.296875 8.5 21.578125 
z
M 31.109375 56 
z
" id="DejaVuSans-117"/>
      <path d="M 45.40625 27.984375 
Q 45.40625 37.75 41.375 43.109375 
Q 37.359375 48.484375 30.078125 48.484375 
Q 22.859375 48.484375 18.828125 43.109375 
Q 14.796875 37.75 14.796875 27.984375 
Q 14.796875 18.265625 18.828125 12.890625 
Q 22.859375 7.515625 30.078125 7.515625 
Q 37.359375 7.515625 41.375 12.890625 
Q 45.40625 18.265625 45.40625 27.984375 
z
M 54.390625 6.78125 
Q 54.390625 -7.171875 48.1875 -13.984375 
Q 42 -20.796875 29.203125 -20.796875 
Q 24.46875 -20.796875 20.265625 -20.09375 
Q 16.0625 -19.390625 12.109375 -17.921875 
L 12.109375 -9.1875 
Q 16.0625 -11.328125 19.921875 -12.34375 
Q 23.78125 -13.375 27.78125 -13.375 
Q 36.625 -13.375 41.015625 -8.765625 
Q 45.40625 -4.15625 45.40625 5.171875 
L 45.40625 9.625 
Q 42.625 4.78125 38.28125 2.390625 
Q 33.9375 0 27.875 0 
Q 17.828125 0 11.671875 7.65625 
Q 5.515625 15.328125 5.515625 27.984375 
Q 5.515625 40.671875 11.671875 48.328125 
Q 17.828125 56 27.875 56 
Q 33.9375 56 38.28125 53.609375 
Q 42.625 51.21875 45.40625 46.390625 
L 45.40625 54.6875 
L 54.390625 54.6875 
z
" id="DejaVuSans-103"/>
      <path d="M 48.78125 52.59375 
L 48.78125 44.1875 
Q 44.96875 46.296875 41.140625 47.34375 
Q 37.3125 48.390625 33.40625 48.390625 
Q 24.65625 48.390625 19.8125 42.84375 
Q 14.984375 37.3125 14.984375 27.296875 
Q 14.984375 17.28125 19.8125 11.734375 
Q 24.65625 6.203125 33.40625 6.203125 
Q 37.3125 6.203125 41.140625 7.25 
Q 44.96875 8.296875 48.78125 10.40625 
L 48.78125 2.09375 
Q 45.015625 0.34375 40.984375 -0.53125 
Q 36.96875 -1.421875 32.421875 -1.421875 
Q 20.0625 -1.421875 12.78125 6.34375 
Q 5.515625 14.109375 5.515625 27.296875 
Q 5.515625 40.671875 12.859375 48.328125 
Q 20.21875 56 33.015625 56 
Q 37.15625 56 41.109375 55.140625 
Q 45.0625 54.296875 48.78125 52.59375 
z
" id="DejaVuSans-99"/>
      <path d="M 2.984375 54.6875 
L 12.5 54.6875 
L 29.59375 8.796875 
L 46.6875 54.6875 
L 56.203125 54.6875 
L 35.6875 0 
L 23.484375 0 
z
" id="DejaVuSans-118"/>
     </defs>
     <use xlink:href="#DejaVuSans-102"/>
     <use x="35.205078" xlink:href="#DejaVuSans-111"/>
     <use x="96.386719" xlink:href="#DejaVuSans-114"/>
     <use x="137.5" xlink:href="#DejaVuSans-32"/>
     <use x="169.287109" xlink:href="#DejaVuSans-100"/>
     <use x="232.763672" xlink:href="#DejaVuSans-101"/>
     <use x="294.287109" xlink:href="#DejaVuSans-108"/>
     <use x="322.070312" xlink:href="#DejaVuSans-116"/>
     <use x="361.279297" xlink:href="#DejaVuSans-97"/>
     <use x="422.558594" xlink:href="#DejaVuSans-32"/>
     <use x="454.345703" xlink:href="#DejaVuSans-61"/>
     <use x="538.134766" xlink:href="#DejaVuSans-32"/>
     <use x="569.921875" xlink:href="#DejaVuSans-49"/>
     <use x="633.544922" xlink:href="#DejaVuSans-32"/>
     <use x="665.332031" xlink:href="#DejaVuSans-40"/>
     <use x="704.345703" xlink:href="#DejaVuSans-102"/>
     <use x="739.550781" xlink:href="#DejaVuSans-114"/>
     <use x="780.664062" xlink:href="#DejaVuSans-97"/>
     <use x="841.943359" xlink:href="#DejaVuSans-109"/>
     <use x="939.355469" xlink:href="#DejaVuSans-101"/>
     <use x="1000.878906" xlink:href="#DejaVuSans-115"/>
     <use x="1052.978516" xlink:href="#DejaVuSans-41"/>
     <use x="1091.992188" xlink:href="#DejaVuSans-32"/>
     <use x="1123.779297" xlink:href="#DejaVuSans-117"/>
     <use x="1187.158203" xlink:href="#DejaVuSans-115"/>
     <use x="1239.257812" xlink:href="#DejaVuSans-105"/>
     <use x="1267.041016" xlink:href="#DejaVuSans-110"/>
     <use x="1330.419922" xlink:href="#DejaVuSans-103"/>
     <use x="1393.896484" xlink:href="#DejaVuSans-32"/>
     <use x="1425.683594" xlink:href="#DejaVuSans-99"/>
     <use x="1480.664062" xlink:href="#DejaVuSans-111"/>
     <use x="1541.845703" xlink:href="#DejaVuSans-110"/>
     <use x="1605.224609" xlink:href="#DejaVuSans-115"/>
     <use x="1657.324219" xlink:href="#DejaVuSans-101"/>
     <use x="1718.847656" xlink:href="#DejaVuSans-99"/>
     <use x="1773.828125" xlink:href="#DejaVuSans-117"/>
     <use x="1837.207031" xlink:href="#DejaVuSans-116"/>
     <use x="1876.416016" xlink:href="#DejaVuSans-105"/>
     <use x="1904.199219" xlink:href="#DejaVuSans-118"/>
     <use x="1963.378906" xlink:href="#DejaVuSans-101"/>
     <use x="2024.902344" xlink:href="#DejaVuSans-32"/>
     <use x="2056.689453" xlink:href="#DejaVuSans-112"/>
     <use x="2120.166016" xlink:href="#DejaVuSans-97"/>
     <use x="2181.445312" xlink:href="#DejaVuSans-105"/>
     <use x="2209.228516" xlink:href="#DejaVuSans-114"/>
     <use x="2250.341797" xlink:href="#DejaVuSans-115"/>
    </g>
    <!-- (with origin alignment) -->
    <g style="fill:#262626;" transform="translate(175.752187 49.824)scale(0.12 -0.12)">
     <defs>
      <path d="M 54.890625 33.015625 
L 54.890625 0 
L 45.90625 0 
L 45.90625 32.71875 
Q 45.90625 40.484375 42.875 44.328125 
Q 39.84375 48.1875 33.796875 48.1875 
Q 26.515625 48.1875 22.3125 43.546875 
Q 18.109375 38.921875 18.109375 30.90625 
L 18.109375 0 
L 9.078125 0 
L 9.078125 75.984375 
L 18.109375 75.984375 
L 18.109375 46.1875 
Q 21.34375 51.125 25.703125 53.5625 
Q 30.078125 56 35.796875 56 
Q 45.21875 56 50.046875 50.171875 
Q 54.890625 44.34375 54.890625 33.015625 
z
" id="DejaVuSans-104"/>
     </defs>
     <use xlink:href="#DejaVuSans-40"/>
     <use x="39.013672" xlink:href="#DejaVuSans-119"/>
     <use x="120.800781" xlink:href="#DejaVuSans-105"/>
     <use x="148.583984" xlink:href="#DejaVuSans-116"/>
     <use x="187.792969" xlink:href="#DejaVuSans-104"/>
     <use x="251.171875" xlink:href="#DejaVuSans-32"/>
     <use x="282.958984" xlink:href="#DejaVuSans-111"/>
     <use x="344.140625" xlink:href="#DejaVuSans-114"/>
     <use x="385.253906" xlink:href="#DejaVuSans-105"/>
     <use x="413.037109" xlink:href="#DejaVuSans-103"/>
     <use x="476.513672" xlink:href="#DejaVuSans-105"/>
     <use x="504.296875" xlink:href="#DejaVuSans-110"/>
     <use x="567.675781" xlink:href="#DejaVuSans-32"/>
     <use x="599.462891" xlink:href="#DejaVuSans-97"/>
     <use x="660.742188" xlink:href="#DejaVuSans-108"/>
     <use x="688.525391" xlink:href="#DejaVuSans-105"/>
     <use x="716.308594" xlink:href="#DejaVuSans-103"/>
     <use x="779.785156" xlink:href="#DejaVuSans-110"/>
     <use x="843.164062" xlink:href="#DejaVuSans-109"/>
     <use x="940.576172" xlink:href="#DejaVuSans-101"/>
     <use x="1002.099609" xlink:href="#DejaVuSans-110"/>
     <use x="1065.478516" xlink:href="#DejaVuSans-116"/>
     <use x="1104.6875" xlink:href="#DejaVuSans-41"/>
    </g>
   </g>
   <g id="legend_1">
    <g id="patch_8">
     <path d="M 332.119375 145.353688 
L 411.34 145.353688 
Q 413.54 145.353688 413.54 143.153688 
L 413.54 63.524 
Q 413.54 61.324 411.34 61.324 
L 332.119375 61.324 
Q 329.919375 61.324 329.919375 63.524 
L 329.919375 143.153688 
Q 329.919375 145.353688 332.119375 145.353688 
z
" style="fill:#eaeaf2;opacity:0.8;stroke:#cccccc;stroke-linejoin:miter;"/>
    </g>
    <g id="line2d_20">
     <path d="M 334.319375 70.232281 
L 356.319375 70.232281 
" style="fill:none;stroke:#808080;stroke-linecap:round;stroke-width:1.5;"/>
    </g>
    <g id="line2d_21"/>
    <g id="text_19">
     <!-- RPE (m) -->
     <g style="fill:#262626;" transform="translate(365.119375 74.082281)scale(0.11 -0.11)">
      <use xlink:href="#DejaVuSans-82"/>
      <use x="69.482422" xlink:href="#DejaVuSans-80"/>
      <use x="129.785156" xlink:href="#DejaVuSans-69"/>
      <use x="192.96875" xlink:href="#DejaVuSans-32"/>
      <use x="224.755859" xlink:href="#DejaVuSans-40"/>
      <use x="263.769531" xlink:href="#DejaVuSans-109"/>
      <use x="361.181641" xlink:href="#DejaVuSans-41"/>
     </g>
    </g>
    <g id="line2d_22">
     <path d="M 334.319375 86.378219 
L 356.319375 86.378219 
" style="fill:none;stroke:#4c72b0;stroke-linecap:round;stroke-width:2;"/>
    </g>
    <g id="line2d_23"/>
    <g id="text_20">
     <!-- rmse -->
     <g style="fill:#262626;" transform="translate(365.119375 90.228219)scale(0.11 -0.11)">
      <use xlink:href="#DejaVuSans-114"/>
      <use x="39.363281" xlink:href="#DejaVuSans-109"/>
      <use x="136.775391" xlink:href="#DejaVuSans-115"/>
      <use x="188.875" xlink:href="#DejaVuSans-101"/>
     </g>
    </g>
    <g id="line2d_24">
     <path d="M 334.319375 102.524156 
L 356.319375 102.524156 
" style="fill:none;stroke:#55a868;stroke-linecap:round;stroke-width:2;"/>
    </g>
    <g id="line2d_25"/>
    <g id="text_21">
     <!-- median -->
     <g style="fill:#262626;" transform="translate(365.119375 106.374156)scale(0.11 -0.11)">
      <use xlink:href="#DejaVuSans-109"/>
      <use x="97.412109" xlink:href="#DejaVuSans-101"/>
      <use x="158.935547" xlink:href="#DejaVuSans-100"/>
      <use x="222.412109" xlink:href="#DejaVuSans-105"/>
      <use x="250.195312" xlink:href="#DejaVuSans-97"/>
      <use x="311.474609" xlink:href="#DejaVuSans-110"/>
     </g>
    </g>
    <g id="line2d_26">
     <path d="M 334.319375 118.670094 
L 356.319375 118.670094 
" style="fill:none;stroke:#c44e52;stroke-linecap:round;stroke-width:2;"/>
    </g>
    <g id="line2d_27"/>
    <g id="text_22">
     <!-- mean -->
     <g style="fill:#262626;" transform="translate(365.119375 122.520094)scale(0.11 -0.11)">
      <use xlink:href="#DejaVuSans-109"/>
      <use x="97.412109" xlink:href="#DejaVuSans-101"/>
      <use x="158.935547" xlink:href="#DejaVuSans-97"/>
      <use x="220.214844" xlink:href="#DejaVuSans-110"/>
     </g>
    </g>
    <g id="patch_9">
     <path d="M 334.319375 138.666031 
L 356.319375 138.666031 
L 356.319375 130.966031 
L 334.319375 130.966031 
z
" style="fill:#8172b3;opacity:0.5;stroke:#8172b3;stroke-linejoin:miter;"/>
    </g>
    <g id="text_23">
     <!-- std -->
     <g style="fill:#262626;" transform="translate(365.119375 138.666031)scale(0.11 -0.11)">
      <use xlink:href="#DejaVuSans-115"/>
      <use x="52.099609" xlink:href="#DejaVuSans-116"/>
      <use x="91.308594" xlink:href="#DejaVuSans-100"/>
     </g>
    </g>
   </g>
  </g>
 </g>
 <defs>
  <clipPath id="p3aa599d4bb">
   <rect height="327.036" width="349.335" x="69.705" y="55.824"/>
  </clipPath>
 </defs>
</svg>
