<?xml version="1.0" encoding="utf-8" standalone="no"?>
<!DOCTYPE svg PUBLIC "-//W3C//DTD SVG 1.1//EN"
  "http://www.w3.org/Graphics/SVG/1.1/DTD/svg11.dtd">
<!-- Created with matplotlib (https://matplotlib.org/) -->
<svg height="432pt" version="1.1" viewBox="0 0 432 432" width="432pt" xmlns="http://www.w3.org/2000/svg" xmlns:xlink="http://www.w3.org/1999/xlink">
 <metadata>
  <rdf:RDF xmlns:cc="http://creativecommons.org/ns#" xmlns:dc="http://purl.org/dc/elements/1.1/" xmlns:rdf="http://www.w3.org/1999/02/22-rdf-syntax-ns#">
   <cc:Work>
    <dc:type rdf:resource="http://purl.org/dc/dcmitype/StillImage"/>
    <dc:date>2022-01-28T17:06:44.887227</dc:date>
    <dc:format>image/svg+xml</dc:format>
    <dc:creator>
     <cc:Agent>
      <dc:title>Matplotlib v3.3.1, https://matplotlib.org/</dc:title>
     </cc:Agent>
    </dc:creator>
   </cc:Work>
  </rdf:RDF>
 </metadata>
 <defs>
  <style type="text/css">*{stroke-linecap:butt;stroke-linejoin:round;}</style>
 </defs>
 <g id="figure_1">
  <g id="patch_1">
   <path d="M 0 432 
L 432 432 
L 432 0 
L 0 0 
z
" style="fill:#ffffff;"/>
  </g>
  <g id="axes_1">
   <g id="patch_2">
    <path d="M 62.775 382.86 
L 419.04 382.86 
L 419.04 55.824 
L 62.775 55.824 
z
" style="fill:#eaeaf2;"/>
   </g>
   <g id="matplotlib.axis_1">
    <g id="xtick_1">
     <g id="line2d_1">
      <path clip-path="url(#p8162ea2473)" d="M 78.968864 382.86 
L 78.968864 55.824 
" style="fill:none;stroke:#ffffff;stroke-linecap:round;"/>
     </g>
     <g id="text_1">
      <!-- 0 -->
      <g style="fill:#262626;" transform="translate(75.469489 400.718281)scale(0.11 -0.11)">
       <defs>
        <path d="M 31.78125 66.40625 
Q 24.171875 66.40625 20.328125 58.90625 
Q 16.5 51.421875 16.5 36.375 
Q 16.5 21.390625 20.328125 13.890625 
Q 24.171875 6.390625 31.78125 6.390625 
Q 39.453125 6.390625 43.28125 13.890625 
Q 47.125 21.390625 47.125 36.375 
Q 47.125 51.421875 43.28125 58.90625 
Q 39.453125 66.40625 31.78125 66.40625 
z
M 31.78125 74.21875 
Q 44.046875 74.21875 50.515625 64.515625 
Q 56.984375 54.828125 56.984375 36.375 
Q 56.984375 17.96875 50.515625 8.265625 
Q 44.046875 -1.421875 31.78125 -1.421875 
Q 19.53125 -1.421875 13.0625 8.265625 
Q 6.59375 17.96875 6.59375 36.375 
Q 6.59375 54.828125 13.0625 64.515625 
Q 19.53125 74.21875 31.78125 74.21875 
z
" id="DejaVuSans-48"/>
       </defs>
       <use xlink:href="#DejaVuSans-48"/>
      </g>
     </g>
    </g>
    <g id="xtick_2">
     <g id="line2d_2">
      <path clip-path="url(#p8162ea2473)" d="M 136.49591 382.86 
L 136.49591 55.824 
" style="fill:none;stroke:#ffffff;stroke-linecap:round;"/>
     </g>
     <g id="text_2">
      <!-- 20 -->
      <g style="fill:#262626;" transform="translate(129.49716 400.718281)scale(0.11 -0.11)">
       <defs>
        <path d="M 19.1875 8.296875 
L 53.609375 8.296875 
L 53.609375 0 
L 7.328125 0 
L 7.328125 8.296875 
Q 12.9375 14.109375 22.625 23.890625 
Q 32.328125 33.6875 34.8125 36.53125 
Q 39.546875 41.84375 41.421875 45.53125 
Q 43.3125 49.21875 43.3125 52.78125 
Q 43.3125 58.59375 39.234375 62.25 
Q 35.15625 65.921875 28.609375 65.921875 
Q 23.96875 65.921875 18.8125 64.3125 
Q 13.671875 62.703125 7.8125 59.421875 
L 7.8125 69.390625 
Q 13.765625 71.78125 18.9375 73 
Q 24.125 74.21875 28.421875 74.21875 
Q 39.75 74.21875 46.484375 68.546875 
Q 53.21875 62.890625 53.21875 53.421875 
Q 53.21875 48.921875 51.53125 44.890625 
Q 49.859375 40.875 45.40625 35.40625 
Q 44.1875 33.984375 37.640625 27.21875 
Q 31.109375 20.453125 19.1875 8.296875 
z
" id="DejaVuSans-50"/>
       </defs>
       <use xlink:href="#DejaVuSans-50"/>
       <use x="63.623047" xlink:href="#DejaVuSans-48"/>
      </g>
     </g>
    </g>
    <g id="xtick_3">
     <g id="line2d_3">
      <path clip-path="url(#p8162ea2473)" d="M 194.022957 382.86 
L 194.022957 55.824 
" style="fill:none;stroke:#ffffff;stroke-linecap:round;"/>
     </g>
     <g id="text_3">
      <!-- 40 -->
      <g style="fill:#262626;" transform="translate(187.024207 400.718281)scale(0.11 -0.11)">
       <defs>
        <path d="M 37.796875 64.3125 
L 12.890625 25.390625 
L 37.796875 25.390625 
z
M 35.203125 72.90625 
L 47.609375 72.90625 
L 47.609375 25.390625 
L 58.015625 25.390625 
L 58.015625 17.1875 
L 47.609375 17.1875 
L 47.609375 0 
L 37.796875 0 
L 37.796875 17.1875 
L 4.890625 17.1875 
L 4.890625 26.703125 
z
" id="DejaVuSans-52"/>
       </defs>
       <use xlink:href="#DejaVuSans-52"/>
       <use x="63.623047" xlink:href="#DejaVuSans-48"/>
      </g>
     </g>
    </g>
    <g id="xtick_4">
     <g id="line2d_4">
      <path clip-path="url(#p8162ea2473)" d="M 251.550004 382.86 
L 251.550004 55.824 
" style="fill:none;stroke:#ffffff;stroke-linecap:round;"/>
     </g>
     <g id="text_4">
      <!-- 60 -->
      <g style="fill:#262626;" transform="translate(244.551254 400.718281)scale(0.11 -0.11)">
       <defs>
        <path d="M 33.015625 40.375 
Q 26.375 40.375 22.484375 35.828125 
Q 18.609375 31.296875 18.609375 23.390625 
Q 18.609375 15.53125 22.484375 10.953125 
Q 26.375 6.390625 33.015625 6.390625 
Q 39.65625 6.390625 43.53125 10.953125 
Q 47.40625 15.53125 47.40625 23.390625 
Q 47.40625 31.296875 43.53125 35.828125 
Q 39.65625 40.375 33.015625 40.375 
z
M 52.59375 71.296875 
L 52.59375 62.3125 
Q 48.875 64.0625 45.09375 64.984375 
Q 41.3125 65.921875 37.59375 65.921875 
Q 27.828125 65.921875 22.671875 59.328125 
Q 17.53125 52.734375 16.796875 39.40625 
Q 19.671875 43.65625 24.015625 45.921875 
Q 28.375 48.1875 33.59375 48.1875 
Q 44.578125 48.1875 50.953125 41.515625 
Q 57.328125 34.859375 57.328125 23.390625 
Q 57.328125 12.15625 50.6875 5.359375 
Q 44.046875 -1.421875 33.015625 -1.421875 
Q 20.359375 -1.421875 13.671875 8.265625 
Q 6.984375 17.96875 6.984375 36.375 
Q 6.984375 53.65625 15.1875 63.9375 
Q 23.390625 74.21875 37.203125 74.21875 
Q 40.921875 74.21875 44.703125 73.484375 
Q 48.484375 72.75 52.59375 71.296875 
z
" id="DejaVuSans-54"/>
       </defs>
       <use xlink:href="#DejaVuSans-54"/>
       <use x="63.623047" xlink:href="#DejaVuSans-48"/>
      </g>
     </g>
    </g>
    <g id="xtick_5">
     <g id="line2d_5">
      <path clip-path="url(#p8162ea2473)" d="M 309.07705 382.86 
L 309.07705 55.824 
" style="fill:none;stroke:#ffffff;stroke-linecap:round;"/>
     </g>
     <g id="text_5">
      <!-- 80 -->
      <g style="fill:#262626;" transform="translate(302.0783 400.718281)scale(0.11 -0.11)">
       <defs>
        <path d="M 31.78125 34.625 
Q 24.75 34.625 20.71875 30.859375 
Q 16.703125 27.09375 16.703125 20.515625 
Q 16.703125 13.921875 20.71875 10.15625 
Q 24.75 6.390625 31.78125 6.390625 
Q 38.8125 6.390625 42.859375 10.171875 
Q 46.921875 13.96875 46.921875 20.515625 
Q 46.921875 27.09375 42.890625 30.859375 
Q 38.875 34.625 31.78125 34.625 
z
M 21.921875 38.8125 
Q 15.578125 40.375 12.03125 44.71875 
Q 8.5 49.078125 8.5 55.328125 
Q 8.5 64.0625 14.71875 69.140625 
Q 20.953125 74.21875 31.78125 74.21875 
Q 42.671875 74.21875 48.875 69.140625 
Q 55.078125 64.0625 55.078125 55.328125 
Q 55.078125 49.078125 51.53125 44.71875 
Q 48 40.375 41.703125 38.8125 
Q 48.828125 37.15625 52.796875 32.3125 
Q 56.78125 27.484375 56.78125 20.515625 
Q 56.78125 9.90625 50.3125 4.234375 
Q 43.84375 -1.421875 31.78125 -1.421875 
Q 19.734375 -1.421875 13.25 4.234375 
Q 6.78125 9.90625 6.78125 20.515625 
Q 6.78125 27.484375 10.78125 32.3125 
Q 14.796875 37.15625 21.921875 38.8125 
z
M 18.3125 54.390625 
Q 18.3125 48.734375 21.84375 45.5625 
Q 25.390625 42.390625 31.78125 42.390625 
Q 38.140625 42.390625 41.71875 45.5625 
Q 45.3125 48.734375 45.3125 54.390625 
Q 45.3125 60.0625 41.71875 63.234375 
Q 38.140625 66.40625 31.78125 66.40625 
Q 25.390625 66.40625 21.84375 63.234375 
Q 18.3125 60.0625 18.3125 54.390625 
z
" id="DejaVuSans-56"/>
       </defs>
       <use xlink:href="#DejaVuSans-56"/>
       <use x="63.623047" xlink:href="#DejaVuSans-48"/>
      </g>
     </g>
    </g>
    <g id="xtick_6">
     <g id="line2d_6">
      <path clip-path="url(#p8162ea2473)" d="M 366.604097 382.86 
L 366.604097 55.824 
" style="fill:none;stroke:#ffffff;stroke-linecap:round;"/>
     </g>
     <g id="text_6">
      <!-- 100 -->
      <g style="fill:#262626;" transform="translate(356.105972 400.718281)scale(0.11 -0.11)">
       <defs>
        <path d="M 12.40625 8.296875 
L 28.515625 8.296875 
L 28.515625 63.921875 
L 10.984375 60.40625 
L 10.984375 69.390625 
L 28.421875 72.90625 
L 38.28125 72.90625 
L 38.28125 8.296875 
L 54.390625 8.296875 
L 54.390625 0 
L 12.40625 0 
z
" id="DejaVuSans-49"/>
       </defs>
       <use xlink:href="#DejaVuSans-49"/>
       <use x="63.623047" xlink:href="#DejaVuSans-48"/>
       <use x="127.246094" xlink:href="#DejaVuSans-48"/>
      </g>
     </g>
    </g>
    <g id="text_7">
     <!-- $t$ (s) -->
     <g style="fill:#262626;" transform="translate(228.7875 416.124062)scale(0.12 -0.12)">
      <defs>
       <path d="M 42.28125 54.6875 
L 40.921875 47.703125 
L 23 47.703125 
L 17.1875 18.015625 
Q 16.890625 16.359375 16.75 15.234375 
Q 16.609375 14.109375 16.609375 13.484375 
Q 16.609375 10.359375 18.484375 8.9375 
Q 20.359375 7.515625 24.515625 7.515625 
L 33.59375 7.515625 
L 32.078125 0 
L 23.484375 0 
Q 15.484375 0 11.546875 3.125 
Q 7.625 6.25 7.625 12.59375 
Q 7.625 13.71875 7.765625 15.0625 
Q 7.90625 16.40625 8.203125 18.015625 
L 14.015625 47.703125 
L 6.390625 47.703125 
L 7.8125 54.6875 
L 15.28125 54.6875 
L 18.3125 70.21875 
L 27.296875 70.21875 
L 24.3125 54.6875 
z
" id="DejaVuSans-Oblique-116"/>
       <path id="DejaVuSans-32"/>
       <path d="M 31 75.875 
Q 24.46875 64.65625 21.28125 53.65625 
Q 18.109375 42.671875 18.109375 31.390625 
Q 18.109375 20.125 21.3125 9.0625 
Q 24.515625 -2 31 -13.1875 
L 23.1875 -13.1875 
Q 15.875 -1.703125 12.234375 9.375 
Q 8.59375 20.453125 8.59375 31.390625 
Q 8.59375 42.28125 12.203125 53.3125 
Q 15.828125 64.359375 23.1875 75.875 
z
" id="DejaVuSans-40"/>
       <path d="M 44.28125 53.078125 
L 44.28125 44.578125 
Q 40.484375 46.53125 36.375 47.5 
Q 32.28125 48.484375 27.875 48.484375 
Q 21.1875 48.484375 17.84375 46.4375 
Q 14.5 44.390625 14.5 40.28125 
Q 14.5 37.15625 16.890625 35.375 
Q 19.28125 33.59375 26.515625 31.984375 
L 29.59375 31.296875 
Q 39.15625 29.25 43.1875 25.515625 
Q 47.21875 21.78125 47.21875 15.09375 
Q 47.21875 7.46875 41.1875 3.015625 
Q 35.15625 -1.421875 24.609375 -1.421875 
Q 20.21875 -1.421875 15.453125 -0.5625 
Q 10.6875 0.296875 5.421875 2 
L 5.421875 11.28125 
Q 10.40625 8.6875 15.234375 7.390625 
Q 20.0625 6.109375 24.8125 6.109375 
Q 31.15625 6.109375 34.5625 8.28125 
Q 37.984375 10.453125 37.984375 14.40625 
Q 37.984375 18.0625 35.515625 20.015625 
Q 33.0625 21.96875 24.703125 23.78125 
L 21.578125 24.515625 
Q 13.234375 26.265625 9.515625 29.90625 
Q 5.8125 33.546875 5.8125 39.890625 
Q 5.8125 47.609375 11.28125 51.796875 
Q 16.75 56 26.8125 56 
Q 31.78125 56 36.171875 55.265625 
Q 40.578125 54.546875 44.28125 53.078125 
z
" id="DejaVuSans-115"/>
       <path d="M 8.015625 75.875 
L 15.828125 75.875 
Q 23.140625 64.359375 26.78125 53.3125 
Q 30.421875 42.28125 30.421875 31.390625 
Q 30.421875 20.453125 26.78125 9.375 
Q 23.140625 -1.703125 15.828125 -13.1875 
L 8.015625 -13.1875 
Q 14.5 -2 17.703125 9.0625 
Q 20.90625 20.125 20.90625 31.390625 
Q 20.90625 42.671875 17.703125 53.65625 
Q 14.5 64.65625 8.015625 75.875 
z
" id="DejaVuSans-41"/>
      </defs>
      <use transform="translate(0 0.125)" xlink:href="#DejaVuSans-Oblique-116"/>
      <use transform="translate(39.208984 0.125)" xlink:href="#DejaVuSans-32"/>
      <use transform="translate(70.996094 0.125)" xlink:href="#DejaVuSans-40"/>
      <use transform="translate(110.009766 0.125)" xlink:href="#DejaVuSans-115"/>
      <use transform="translate(162.109375 0.125)" xlink:href="#DejaVuSans-41"/>
     </g>
    </g>
   </g>
   <g id="matplotlib.axis_2">
    <g id="ytick_1">
     <g id="line2d_7">
      <path clip-path="url(#p8162ea2473)" d="M 62.775 369.045851 
L 419.04 369.045851 
" style="fill:none;stroke:#ffffff;stroke-linecap:round;"/>
     </g>
     <g id="text_8">
      <!-- 0.00 -->
      <g style="fill:#262626;" transform="translate(28.782813 373.224992)scale(0.11 -0.11)">
       <defs>
        <path d="M 10.6875 12.40625 
L 21 12.40625 
L 21 0 
L 10.6875 0 
z
" id="DejaVuSans-46"/>
       </defs>
       <use xlink:href="#DejaVuSans-48"/>
       <use x="63.623047" xlink:href="#DejaVuSans-46"/>
       <use x="95.410156" xlink:href="#DejaVuSans-48"/>
       <use x="159.033203" xlink:href="#DejaVuSans-48"/>
      </g>
     </g>
    </g>
    <g id="ytick_2">
     <g id="line2d_8">
      <path clip-path="url(#p8162ea2473)" d="M 62.775 313.030426 
L 419.04 313.030426 
" style="fill:none;stroke:#ffffff;stroke-linecap:round;"/>
     </g>
     <g id="text_9">
      <!-- 0.02 -->
      <g style="fill:#262626;" transform="translate(28.782813 317.209567)scale(0.11 -0.11)">
       <use xlink:href="#DejaVuSans-48"/>
       <use x="63.623047" xlink:href="#DejaVuSans-46"/>
       <use x="95.410156" xlink:href="#DejaVuSans-48"/>
       <use x="159.033203" xlink:href="#DejaVuSans-50"/>
      </g>
     </g>
    </g>
    <g id="ytick_3">
     <g id="line2d_9">
      <path clip-path="url(#p8162ea2473)" d="M 62.775 257.015001 
L 419.04 257.015001 
" style="fill:none;stroke:#ffffff;stroke-linecap:round;"/>
     </g>
     <g id="text_10">
      <!-- 0.04 -->
      <g style="fill:#262626;" transform="translate(28.782813 261.194142)scale(0.11 -0.11)">
       <use xlink:href="#DejaVuSans-48"/>
       <use x="63.623047" xlink:href="#DejaVuSans-46"/>
       <use x="95.410156" xlink:href="#DejaVuSans-48"/>
       <use x="159.033203" xlink:href="#DejaVuSans-52"/>
      </g>
     </g>
    </g>
    <g id="ytick_4">
     <g id="line2d_10">
      <path clip-path="url(#p8162ea2473)" d="M 62.775 200.999577 
L 419.04 200.999577 
" style="fill:none;stroke:#ffffff;stroke-linecap:round;"/>
     </g>
     <g id="text_11">
      <!-- 0.06 -->
      <g style="fill:#262626;" transform="translate(28.782813 205.178717)scale(0.11 -0.11)">
       <use xlink:href="#DejaVuSans-48"/>
       <use x="63.623047" xlink:href="#DejaVuSans-46"/>
       <use x="95.410156" xlink:href="#DejaVuSans-48"/>
       <use x="159.033203" xlink:href="#DejaVuSans-54"/>
      </g>
     </g>
    </g>
    <g id="ytick_5">
     <g id="line2d_11">
      <path clip-path="url(#p8162ea2473)" d="M 62.775 144.984152 
L 419.04 144.984152 
" style="fill:none;stroke:#ffffff;stroke-linecap:round;"/>
     </g>
     <g id="text_12">
      <!-- 0.08 -->
      <g style="fill:#262626;" transform="translate(28.782813 149.163292)scale(0.11 -0.11)">
       <use xlink:href="#DejaVuSans-48"/>
       <use x="63.623047" xlink:href="#DejaVuSans-46"/>
       <use x="95.410156" xlink:href="#DejaVuSans-48"/>
       <use x="159.033203" xlink:href="#DejaVuSans-56"/>
      </g>
     </g>
    </g>
    <g id="ytick_6">
     <g id="line2d_12">
      <path clip-path="url(#p8162ea2473)" d="M 62.775 88.968727 
L 419.04 88.968727 
" style="fill:none;stroke:#ffffff;stroke-linecap:round;"/>
     </g>
     <g id="text_13">
      <!-- 0.10 -->
      <g style="fill:#262626;" transform="translate(28.782813 93.147867)scale(0.11 -0.11)">
       <use xlink:href="#DejaVuSans-48"/>
       <use x="63.623047" xlink:href="#DejaVuSans-46"/>
       <use x="95.410156" xlink:href="#DejaVuSans-49"/>
       <use x="159.033203" xlink:href="#DejaVuSans-48"/>
      </g>
     </g>
    </g>
    <g id="text_14">
     <!-- RPE (m) -->
     <g style="fill:#262626;" transform="translate(22.287188 243.35325)rotate(-90)scale(0.12 -0.12)">
      <defs>
       <path d="M 44.390625 34.1875 
Q 47.5625 33.109375 50.5625 29.59375 
Q 53.5625 26.078125 56.59375 19.921875 
L 66.609375 0 
L 56 0 
L 46.6875 18.703125 
Q 43.0625 26.03125 39.671875 28.421875 
Q 36.28125 30.8125 30.421875 30.8125 
L 19.671875 30.8125 
L 19.671875 0 
L 9.8125 0 
L 9.8125 72.90625 
L 32.078125 72.90625 
Q 44.578125 72.90625 50.734375 67.671875 
Q 56.890625 62.453125 56.890625 51.90625 
Q 56.890625 45.015625 53.6875 40.46875 
Q 50.484375 35.9375 44.390625 34.1875 
z
M 19.671875 64.796875 
L 19.671875 38.921875 
L 32.078125 38.921875 
Q 39.203125 38.921875 42.84375 42.21875 
Q 46.484375 45.515625 46.484375 51.90625 
Q 46.484375 58.296875 42.84375 61.546875 
Q 39.203125 64.796875 32.078125 64.796875 
z
" id="DejaVuSans-82"/>
       <path d="M 19.671875 64.796875 
L 19.671875 37.40625 
L 32.078125 37.40625 
Q 38.96875 37.40625 42.71875 40.96875 
Q 46.484375 44.53125 46.484375 51.125 
Q 46.484375 57.671875 42.71875 61.234375 
Q 38.96875 64.796875 32.078125 64.796875 
z
M 9.8125 72.90625 
L 32.078125 72.90625 
Q 44.34375 72.90625 50.609375 67.359375 
Q 56.890625 61.8125 56.890625 51.125 
Q 56.890625 40.328125 50.609375 34.8125 
Q 44.34375 29.296875 32.078125 29.296875 
L 19.671875 29.296875 
L 19.671875 0 
L 9.8125 0 
z
" id="DejaVuSans-80"/>
       <path d="M 9.8125 72.90625 
L 55.90625 72.90625 
L 55.90625 64.59375 
L 19.671875 64.59375 
L 19.671875 43.015625 
L 54.390625 43.015625 
L 54.390625 34.71875 
L 19.671875 34.71875 
L 19.671875 8.296875 
L 56.78125 8.296875 
L 56.78125 0 
L 9.8125 0 
z
" id="DejaVuSans-69"/>
       <path d="M 52 44.1875 
Q 55.375 50.25 60.0625 53.125 
Q 64.75 56 71.09375 56 
Q 79.640625 56 84.28125 50.015625 
Q 88.921875 44.046875 88.921875 33.015625 
L 88.921875 0 
L 79.890625 0 
L 79.890625 32.71875 
Q 79.890625 40.578125 77.09375 44.375 
Q 74.3125 48.1875 68.609375 48.1875 
Q 61.625 48.1875 57.5625 43.546875 
Q 53.515625 38.921875 53.515625 30.90625 
L 53.515625 0 
L 44.484375 0 
L 44.484375 32.71875 
Q 44.484375 40.625 41.703125 44.40625 
Q 38.921875 48.1875 33.109375 48.1875 
Q 26.21875 48.1875 22.15625 43.53125 
Q 18.109375 38.875 18.109375 30.90625 
L 18.109375 0 
L 9.078125 0 
L 9.078125 54.6875 
L 18.109375 54.6875 
L 18.109375 46.1875 
Q 21.1875 51.21875 25.484375 53.609375 
Q 29.78125 56 35.6875 56 
Q 41.65625 56 45.828125 52.96875 
Q 50 49.953125 52 44.1875 
z
" id="DejaVuSans-109"/>
      </defs>
      <use xlink:href="#DejaVuSans-82"/>
      <use x="69.482422" xlink:href="#DejaVuSans-80"/>
      <use x="129.785156" xlink:href="#DejaVuSans-69"/>
      <use x="192.96875" xlink:href="#DejaVuSans-32"/>
      <use x="224.755859" xlink:href="#DejaVuSans-40"/>
      <use x="263.769531" xlink:href="#DejaVuSans-109"/>
      <use x="361.181641" xlink:href="#DejaVuSans-41"/>
     </g>
    </g>
   </g>
   <g id="patch_3">
    <path clip-path="url(#p8162ea2473)" d="M 62.775 355.133576 
L 62.775 320.020562 
L 419.04 320.020562 
L 419.04 355.133576 
z
" style="fill:#8172b3;opacity:0.5;stroke:#8172b3;stroke-linejoin:miter;"/>
   </g>
   <g id="line2d_13">
    <path clip-path="url(#p8162ea2473)" d="M 78.968864 272.731313 
L 79.544134 333.986398 
L 79.831769 332.941213 
L 80.119405 348.666469 
L 80.40704 347.815623 
L 80.694675 320.221103 
L 81.269946 314.637694 
L 81.845216 327.878992 
L 82.132851 334.910978 
L 82.420486 334.042975 
L 82.708122 332.584973 
L 82.995757 300.97228 
L 83.283392 301.24584 
L 83.571027 351.160543 
L 84.146298 355.783354 
L 84.433933 354.772955 
L 84.721568 360.094242 
L 85.296839 351.822473 
L 85.584474 354.459817 
L 85.872109 341.363152 
L 86.159744 348.721035 
L 86.44738 338.060509 
L 86.735015 296.025536 
L 87.02265 288.242857 
L 87.310285 361.725253 
L 87.597921 365.30387 
L 88.460826 343.608121 
L 88.748462 344.080055 
L 89.036097 344.976274 
L 89.323732 338.254306 
L 89.899003 348.942237 
L 90.186638 343.16976 
L 90.474273 360.786098 
L 90.761908 355.761977 
L 91.049543 355.728686 
L 91.337179 357.152156 
L 91.624814 361.020679 
L 91.912449 357.736155 
L 92.200084 362.340225 
L 92.48772 362.163392 
L 92.775355 361.742593 
L 93.06299 365.643438 
L 93.350625 360.342528 
L 93.925896 365.763348 
L 94.213531 361.109385 
L 94.501166 364.179828 
L 94.788801 359.621341 
L 95.076437 358.723471 
L 95.364072 361.459223 
L 95.651707 359.474206 
L 95.939342 363.375198 
L 96.514613 355.54636 
L 96.802248 353.598093 
L 97.089883 357.088776 
L 97.377519 358.159809 
L 97.952789 354.121198 
L 98.240424 351.079163 
L 98.52806 363.078673 
L 98.815695 361.866887 
L 99.10333 365.995102 
L 99.390965 364.540427 
L 99.6786 362.460697 
L 99.966236 364.92381 
L 100.253871 360.969957 
L 100.541506 360.556419 
L 100.829141 359.604259 
L 101.116777 356.824326 
L 101.404412 359.84179 
L 101.692047 358.676276 
L 101.979682 360.120705 
L 102.554953 361.239217 
L 102.842588 357.181873 
L 103.130223 357.127357 
L 103.417858 358.627906 
L 103.705494 355.784695 
L 103.993129 348.734235 
L 104.280764 351.778072 
L 104.568399 356.963788 
L 105.14367 343.779419 
L 105.431305 346.637007 
L 105.71894 360.576141 
L 106.006576 357.922132 
L 106.294211 360.072523 
L 106.581846 360.84252 
L 106.869481 359.063077 
L 107.157117 364.159143 
L 107.444752 361.995932 
L 107.732387 358.187287 
L 108.020022 360.157871 
L 108.307657 359.389835 
L 108.595293 361.957095 
L 108.882928 358.868848 
L 109.170563 360.174552 
L 109.458198 360.510048 
L 109.745834 358.600681 
L 110.033469 345.348127 
L 110.321104 343.928549 
L 110.608739 350.249841 
L 110.896375 354.079876 
L 111.18401 353.087024 
L 111.471645 358.547096 
L 111.75928 358.587995 
L 112.334551 334.241653 
L 112.622186 334.15667 
L 112.909821 347.036455 
L 113.197456 345.509169 
L 113.772727 359.178971 
L 114.060362 357.845808 
L 114.347997 360.617944 
L 114.635633 362.14596 
L 115.210903 302.866054 
L 115.498538 305.041832 
L 115.786174 332.242216 
L 116.073809 329.598015 
L 116.361444 351.834923 
L 116.649079 360.72647 
L 116.936714 361.280984 
L 117.22435 357.668621 
L 117.511985 357.850157 
L 117.79962 361.675606 
L 118.087255 353.753357 
L 118.374891 363.730619 
L 118.662526 356.466893 
L 118.950161 361.95712 
L 119.237796 352.987637 
L 119.525432 336.610885 
L 119.813067 345.228302 
L 120.100702 318.284089 
L 120.388337 326.007994 
L 120.675972 327.342071 
L 120.963608 328.024512 
L 121.251243 333.872068 
L 121.538878 353.786545 
L 121.826513 358.829626 
L 122.114149 355.120544 
L 122.401784 333.874918 
L 122.689419 330.375447 
L 122.977054 350.285792 
L 123.26469 348.798006 
L 123.552325 354.209616 
L 123.83996 354.641876 
L 124.127595 351.117537 
L 124.415231 337.655795 
L 124.990501 344.777754 
L 125.278136 330.910679 
L 125.565771 335.813058 
L 125.853407 350.42791 
L 126.141042 354.167396 
L 126.428677 351.101568 
L 126.716312 346.578281 
L 127.003948 351.274401 
L 127.291583 345.338264 
L 128.442124 336.814529 
L 128.729759 346.056619 
L 129.017394 348.070314 
L 129.305029 351.254579 
L 129.8803 344.892596 
L 130.167935 352.333274 
L 130.45557 353.212154 
L 130.743206 353.696127 
L 131.318476 353.742022 
L 131.893747 361.848821 
L 132.469017 356.002402 
L 132.756652 357.044587 
L 133.331923 350.461734 
L 133.619558 355.567351 
L 133.907193 358.562611 
L 134.194828 351.395337 
L 134.482464 363.631234 
L 134.770099 350.622248 
L 135.345369 359.903712 
L 135.633005 347.151007 
L 136.208275 352.906157 
L 136.49591 355.157484 
L 136.783546 350.045079 
L 137.071181 340.909761 
L 137.358816 349.608713 
L 137.646451 341.573182 
L 138.221722 346.680192 
L 138.509357 340.109095 
L 138.796992 343.435667 
L 139.084627 337.943644 
L 139.372263 338.517815 
L 139.659898 339.593513 
L 139.947533 335.121474 
L 140.235168 339.879906 
L 140.522804 335.17008 
L 141.098074 360.569456 
L 141.385709 354.645213 
L 141.673345 355.324593 
L 141.96098 363.762163 
L 142.53625 358.941051 
L 142.823885 362.422816 
L 143.399156 357.390896 
L 143.686791 353.940741 
L 143.974426 341.305518 
L 144.262062 347.106177 
L 144.549697 345.549098 
L 144.837332 350.286554 
L 145.412603 346.182649 
L 145.700238 349.812972 
L 145.987873 345.69501 
L 146.275508 350.147857 
L 146.563143 351.094176 
L 146.850779 350.820597 
L 147.138414 344.103282 
L 147.426049 347.938405 
L 147.713684 345.143187 
L 148.288955 352.404704 
L 148.57659 347.935744 
L 148.864225 360.953162 
L 149.439496 354.886518 
L 149.727131 352.679158 
L 150.014766 348.842588 
L 150.302402 355.718743 
L 150.590037 354.771592 
L 150.877672 355.442284 
L 151.165307 354.700727 
L 151.452942 353.437022 
L 152.028213 361.218867 
L 152.603483 349.28388 
L 152.891119 347.060385 
L 153.178754 354.350309 
L 153.466389 353.377458 
L 154.04166 357.470467 
L 154.329295 354.602112 
L 154.61693 361.94498 
L 155.1922 353.733313 
L 155.479836 358.508956 
L 155.767471 354.427212 
L 156.055106 354.393903 
L 156.342741 351.281466 
L 156.918012 356.473736 
L 157.493282 357.916828 
L 157.780918 354.44463 
L 158.068553 355.581576 
L 158.356188 355.988729 
L 158.931459 357.889562 
L 159.219094 354.546888 
L 159.506729 362.06234 
L 159.794364 360.001244 
L 160.081999 353.370627 
L 160.369635 355.814973 
L 160.65727 348.382047 
L 160.944905 352.120146 
L 161.23254 357.911634 
L 161.520176 352.863273 
L 161.807811 352.37217 
L 162.095446 358.714124 
L 162.383081 355.600749 
L 162.670717 362.645933 
L 163.245987 352.833449 
L 163.533622 355.493008 
L 163.821257 321.470967 
L 164.108893 319.873098 
L 164.396528 311.266252 
L 164.684163 296.330901 
L 164.971798 288.450646 
L 165.259434 318.327869 
L 165.547069 314.829901 
L 165.834704 342.820396 
L 166.122339 356.162997 
L 166.409975 344.678926 
L 166.69761 355.930271 
L 166.985245 350.193245 
L 167.27288 366.119075 
L 167.560516 347.65811 
L 167.848151 351.504064 
L 168.135786 361.629258 
L 168.423421 365.276141 
L 168.711056 361.46662 
L 168.998692 351.716771 
L 169.573962 364.081097 
L 169.861597 361.753584 
L 170.149233 366.399709 
L 170.436868 359.397443 
L 170.724503 359.168671 
L 171.012138 359.742998 
L 171.299774 358.613511 
L 171.875044 364.668105 
L 172.162679 357.899554 
L 172.450314 361.084148 
L 172.73795 355.320824 
L 173.025585 355.450327 
L 173.31322 355.794093 
L 173.600855 350.101622 
L 173.888491 353.642812 
L 174.176126 349.847555 
L 174.751396 352.885939 
L 175.326667 346.268041 
L 175.614302 353.008022 
L 176.189573 350.476149 
L 176.477208 359.937383 
L 176.764843 349.269028 
L 177.052478 357.911803 
L 177.627749 349.8131 
L 177.915384 354.341714 
L 178.203019 345.263895 
L 178.490654 347.939747 
L 179.065925 346.454876 
L 179.35356 349.634048 
L 179.641195 349.081235 
L 179.928831 348.166892 
L 180.504101 353.881739 
L 180.791736 350.543123 
L 181.079371 358.160754 
L 181.367007 356.568023 
L 181.654642 358.862396 
L 181.942277 354.617772 
L 182.229912 344.233598 
L 182.517548 357.066777 
L 182.805183 349.152916 
L 183.092818 349.422021 
L 183.380453 349.171722 
L 183.668089 343.36808 
L 183.955724 348.001057 
L 184.243359 342.394748 
L 184.81863 337.582851 
L 185.106265 333.32019 
L 185.3939 333.052532 
L 185.681535 329.419654 
L 186.256806 334.241338 
L 186.544441 331.470225 
L 186.832076 347.409202 
L 187.119711 352.671551 
L 187.694982 342.601281 
L 187.982617 347.423168 
L 188.270252 341.391911 
L 188.557888 345.253086 
L 189.133158 343.360556 
L 189.420793 346.901867 
L 189.708428 336.342323 
L 189.996064 339.732085 
L 190.571334 342.787767 
L 190.858969 346.517643 
L 191.146605 333.850958 
L 191.43424 339.056251 
L 192.00951 353.712695 
L 192.297146 359.363903 
L 192.584781 353.922541 
L 192.872416 358.720675 
L 193.447687 352.759206 
L 193.735322 356.216084 
L 194.022957 340.833614 
L 194.310592 343.045397 
L 194.885863 353.52085 
L 195.173498 355.210982 
L 195.748768 366.503969 
L 196.324039 360.983723 
L 196.611674 362.27261 
L 196.899309 342.3598 
L 197.186945 341.652802 
L 197.762215 358.460712 
L 198.04985 355.908328 
L 198.337485 363.56092 
L 198.625121 366.747938 
L 198.912756 367.131833 
L 199.200391 365.218118 
L 199.488026 364.425507 
L 199.775662 364.395298 
L 200.063297 366.565206 
L 200.638567 353.069774 
L 200.926203 351.046826 
L 201.213838 364.623647 
L 201.501473 365.017304 
L 201.789108 366.969446 
L 202.076744 367.261206 
L 202.364379 366.482201 
L 202.652014 364.524516 
L 202.939649 365.212001 
L 203.802555 361.747299 
L 204.09019 367.023536 
L 204.377825 359.636422 
L 204.665461 359.949799 
L 204.953096 362.461513 
L 205.240731 361.320634 
L 205.528366 360.797568 
L 205.816002 359.111354 
L 206.391272 339.236122 
L 206.678907 340.620725 
L 206.966542 361.367748 
L 207.254178 361.646751 
L 207.541813 363.538003 
L 207.829448 363.452778 
L 208.117083 365.660218 
L 208.404719 363.884895 
L 208.692354 364.000233 
L 208.979989 363.53872 
L 209.267624 362.794708 
L 209.55526 360.935046 
L 209.842895 362.230673 
L 210.13053 360.707045 
L 210.418165 360.470082 
L 210.705801 357.236542 
L 210.993436 355.723886 
L 211.281071 360.191351 
L 211.568706 358.970248 
L 211.856341 350.613221 
L 212.143977 337.066636 
L 212.431612 336.1432 
L 212.719247 355.009805 
L 213.006882 353.963038 
L 213.582153 360.019142 
L 213.869788 359.009179 
L 214.157423 356.803173 
L 214.445059 356.001202 
L 215.020329 358.739068 
L 215.307964 358.115788 
L 215.595599 352.598882 
L 215.883235 356.43764 
L 216.17087 352.709492 
L 216.458505 342.305049 
L 217.033776 334.795398 
L 217.321411 334.663051 
L 217.609046 332.265912 
L 217.896681 349.709119 
L 218.184317 348.66684 
L 218.471952 350.743281 
L 218.759587 350.282476 
L 219.047222 359.732833 
L 219.334858 358.455318 
L 219.622493 358.660947 
L 219.910128 357.510587 
L 220.197763 359.918781 
L 220.773034 356.850629 
L 221.060669 356.70189 
L 221.348304 362.301897 
L 221.635939 362.564988 
L 221.923575 364.434567 
L 222.21121 363.282455 
L 222.498845 362.898486 
L 222.78648 354.915867 
L 223.074116 356.051753 
L 223.361751 361.493082 
L 223.649386 348.64718 
L 223.937021 348.823447 
L 224.224656 354.602024 
L 224.512292 356.108176 
L 224.799927 356.544108 
L 225.087562 356.605708 
L 225.375197 357.09245 
L 225.662833 359.837002 
L 225.950468 360.23491 
L 226.238103 361.006738 
L 226.525738 361.314067 
L 226.813374 360.115286 
L 227.101009 363.229402 
L 227.388644 364.262879 
L 227.676279 364.402722 
L 227.963915 365.662072 
L 228.25155 363.409146 
L 228.539185 366.63877 
L 228.82682 366.482991 
L 229.114455 367.357666 
L 229.402091 367.055202 
L 229.689726 367.694822 
L 229.977361 365.939782 
L 230.264996 365.939198 
L 230.840267 361.657794 
L 231.127902 362.392049 
L 231.415537 366.812824 
L 231.703173 365.593496 
L 231.990808 356.834614 
L 232.278443 364.490284 
L 232.566078 352.039007 
L 232.853713 357.13723 
L 233.141349 366.590299 
L 233.428984 355.284077 
L 233.716619 365.409213 
L 234.004254 365.111057 
L 234.29189 363.987923 
L 234.579525 364.201401 
L 235.154795 365.983319 
L 235.442431 365.810883 
L 235.730066 366.60189 
L 236.305336 366.307417 
L 236.592972 365.643091 
L 236.880607 363.546928 
L 237.168242 364.746327 
L 237.743512 361.720634 
L 238.031148 356.429901 
L 238.318783 354.947633 
L 238.606418 367.994727 
L 238.894053 362.734944 
L 239.181689 360.7342 
L 239.469324 355.947101 
L 239.756959 353.326935 
L 240.044594 339.915364 
L 240.33223 339.285644 
L 240.9075 300.229836 
L 241.195135 300.379203 
L 241.48277 312.304086 
L 241.770406 312.839144 
L 242.058041 313.717069 
L 242.345676 305.454822 
L 242.633311 306.392354 
L 242.920947 343.182011 
L 243.208582 344.876586 
L 243.783852 330.648203 
L 244.071488 332.605594 
L 244.359123 319.728426 
L 244.646758 321.549413 
L 245.222028 345.27135 
L 245.509664 347.440415 
L 245.797299 328.534976 
L 246.372569 333.009456 
L 246.660205 334.52383 
L 248.386016 352.801707 
L 248.673651 334.084801 
L 248.961287 336.91751 
L 249.536557 305.336246 
L 249.824192 308.233405 
L 250.111827 305.406285 
L 250.399463 307.817699 
L 250.687098 331.641832 
L 250.974733 334.853569 
L 251.262368 336.349831 
L 251.550004 339.867957 
L 251.837639 337.871711 
L 252.125274 341.319375 
L 252.412909 340.549021 
L 252.700545 338.677276 
L 252.98818 342.635507 
L 253.275815 334.641842 
L 253.56345 338.160357 
L 254.138721 350.587757 
L 254.426356 354.584351 
L 254.713991 341.640939 
L 255.001626 345.768854 
L 255.289262 342.676328 
L 255.576897 337.852756 
L 255.864532 341.191203 
L 256.152167 326.010562 
L 256.727438 334.08713 
L 257.015073 309.894719 
L 257.302708 312.96069 
L 257.590344 335.102704 
L 258.740884 352.375232 
L 259.02852 318.20837 
L 259.316155 322.477263 
L 260.179061 340.311391 
L 260.466696 344.596565 
L 260.754331 344.70224 
L 261.041966 346.055521 
L 261.329602 345.301185 
L 261.617237 349.286527 
L 261.904872 338.009413 
L 262.192507 341.230117 
L 262.480142 341.979712 
L 262.767778 297.346057 
L 263.055413 293.960333 
L 263.343048 362.578841 
L 263.630683 364.960513 
L 263.918319 365.42933 
L 264.205954 363.581737 
L 264.493589 366.000042 
L 264.781224 360.748425 
L 265.06886 362.887584 
L 265.356495 367.480991 
L 265.931765 362.91714 
L 266.219401 362.263165 
L 266.507036 364.207726 
L 266.794671 364.858042 
L 267.082306 365.20183 
L 267.369941 366.992639 
L 267.657577 357.553677 
L 267.945212 358.38941 
L 268.232847 359.94463 
L 268.520482 359.81995 
L 268.808118 361.169903 
L 269.095753 348.490769 
L 269.383388 349.08479 
L 269.671023 347.748929 
L 269.958659 345.294946 
L 270.246294 346.142642 
L 270.533929 363.334787 
L 270.821564 363.998773 
L 271.109199 360.543223 
L 271.396835 353.111698 
L 271.68447 353.754201 
L 271.972105 364.533252 
L 272.25974 364.619343 
L 272.835011 351.221307 
L 273.122646 351.513007 
L 273.410281 353.452541 
L 273.697917 353.870295 
L 273.985552 361.330023 
L 274.273187 361.215898 
L 274.560822 361.242281 
L 274.848458 352.94634 
L 275.136093 353.56888 
L 275.711363 344.663517 
L 275.998998 345.558297 
L 276.286634 345.927592 
L 276.574269 347.292874 
L 277.149539 361.653095 
L 277.437175 363.759123 
L 277.72481 355.219337 
L 278.30008 358.292914 
L 278.587716 353.328778 
L 278.875351 355.793757 
L 279.162986 354.336297 
L 279.450621 357.162176 
L 280.025892 355.644381 
L 280.313527 358.624698 
L 280.601162 345.58827 
L 281.176433 350.789009 
L 281.464068 337.532867 
L 281.751703 340.109238 
L 282.039338 337.384331 
L 282.326974 340.071682 
L 282.902244 329.732997 
L 283.76515 337.341634 
L 284.34042 325.526387 
L 284.628055 328.825414 
L 284.915691 313.453783 
L 285.203326 317.499782 
L 285.490961 338.189135 
L 285.778596 284.642498 
L 286.066232 281.294744 
L 286.353867 348.054047 
L 286.641502 344.399315 
L 286.929137 357.841767 
L 287.216773 343.036927 
L 287.504408 346.596186 
L 287.792043 316.922441 
L 288.367313 323.089602 
L 288.654949 297.03054 
L 288.942584 293.658391 
L 289.230219 292.306761 
L 289.80549 297.638494 
L 290.093125 167.930596 
L 290.38076 165.665357 
L 290.668395 304.816121 
L 290.956031 303.069933 
L 291.531301 340.203222 
L 291.818936 338.271169 
L 292.106572 355.759588 
L 292.394207 355.116569 
L 293.257112 351.593205 
L 293.832383 328.222265 
L 294.120018 359.914988 
L 294.407653 346.274966 
L 294.695289 347.455803 
L 294.982924 361.798374 
L 295.270559 361.429878 
L 295.84583 350.448809 
L 296.133465 350.206038 
L 296.4211 346.594373 
L 296.99637 344.826178 
L 297.284006 340.8023 
L 297.571641 346.643936 
L 297.859276 320.886385 
L 298.146911 326.413747 
L 298.722182 318.656487 
L 299.009817 321.884777 
L 299.297452 343.845609 
L 299.585088 337.896109 
L 300.160358 337.054746 
L 300.447993 332.568793 
L 301.023264 293.289536 
L 301.598534 307.264309 
L 301.886169 304.328568 
L 302.173805 352.986903 
L 302.46144 355.395569 
L 302.749075 362.275257 
L 303.03671 362.609517 
L 303.324346 359.631434 
L 303.899616 358.705915 
L 304.187251 355.495855 
L 304.474887 341.575548 
L 304.762522 344.053047 
L 305.050157 349.979485 
L 305.913063 355.677214 
L 306.200698 356.93957 
L 306.488333 365.91773 
L 306.775968 365.123641 
L 307.063604 363.711408 
L 307.351239 319.524138 
L 307.638874 318.878155 
L 307.926509 251.377732 
L 308.214145 250.000784 
L 308.50178 327.766408 
L 308.789415 234.901308 
L 309.07705 231.079681 
L 309.364686 354.564044 
L 309.652321 352.57158 
L 309.939956 347.596224 
L 310.227591 363.234877 
L 310.515226 357.274419 
L 310.802862 336.765132 
L 311.090497 336.433188 
L 311.665767 322.469504 
L 311.953403 323.737118 
L 312.241038 326.910108 
L 312.528673 323.750312 
L 312.816308 327.967993 
L 313.103944 319.093898 
L 313.391579 317.58348 
L 313.679214 312.856717 
L 314.54212 321.6787 
L 314.829755 325.711593 
L 315.11739 314.016164 
L 315.405025 318.244169 
L 315.980296 270.885782 
L 316.267931 275.03456 
L 316.555566 235.333658 
L 316.843202 231.992271 
L 317.418472 309.6984 
L 317.706107 306.564876 
L 317.993743 345.44464 
L 318.281378 344.831987 
L 318.569013 360.184394 
L 318.856648 360.216533 
L 319.144283 362.033597 
L 319.431919 352.542709 
L 319.719554 351.410952 
L 320.294824 342.681575 
L 320.58246 341.350827 
L 320.870095 343.135109 
L 321.15773 341.568618 
L 321.445365 344.278341 
L 321.733001 340.952408 
L 322.020636 340.670012 
L 322.308271 360.219743 
L 322.883541 357.494614 
L 323.171177 357.74322 
L 323.458812 356.777669 
L 323.746447 347.622768 
L 324.034082 347.550022 
L 324.609353 314.717299 
L 324.896988 314.260716 
L 325.184623 358.902384 
L 325.472259 358.093711 
L 325.759894 366.980035 
L 326.047529 356.008387 
L 326.335164 356.574398 
L 326.6228 345.998834 
L 326.910435 345.799549 
L 327.485705 333.85882 
L 327.77334 333.774581 
L 328.348611 317.278193 
L 328.923881 330.561681 
L 329.211517 330.396908 
L 329.499152 318.934152 
L 329.786787 318.619686 
L 330.074422 317.232751 
L 330.362058 262.396972 
L 330.649693 262.719751 
L 330.937328 314.634983 
L 331.512598 316.12608 
L 331.800234 356.59891 
L 332.087869 355.653959 
L 332.375504 353.156015 
L 332.663139 348.90388 
L 333.23841 352.362073 
L 333.81368 341.408724 
L 334.388951 269.688711 
L 334.676586 335.904296 
L 334.964221 310.894044 
L 335.251857 315.27316 
L 335.539492 299.026766 
L 335.827127 296.285394 
L 336.114762 333.686186 
L 336.690033 362.351213 
L 336.977668 337.805445 
L 337.265303 345.663518 
L 337.840574 308.078255 
L 338.128209 312.501505 
L 338.703479 316.169212 
L 339.27875 275.582082 
L 339.566385 269.716634 
L 339.85402 258.887479 
L 340.141655 253.467731 
L 340.429291 279.945656 
L 340.716926 285.992725 
L 341.004561 287.625688 
L 341.292196 294.872744 
L 341.579832 290.714479 
L 341.867467 344.08978 
L 342.442737 318.315328 
L 342.730373 232.518549 
L 343.018008 225.380827 
L 343.305643 339.490168 
L 343.593278 282.424569 
L 343.880914 289.735484 
L 344.168549 365.028616 
L 344.456184 360.336122 
L 344.743819 361.383872 
L 345.031454 358.028091 
L 345.31909 357.325616 
L 345.606725 360.287351 
L 345.89436 360.611565 
L 346.181995 361.471668 
L 346.469631 358.028731 
L 346.757266 347.208216 
L 347.044901 355.325834 
L 347.332536 354.667454 
L 347.907807 366.120344 
L 348.195442 358.103947 
L 348.483077 332.935159 
L 348.770712 331.096293 
L 349.345983 336.257578 
L 349.921253 333.190184 
L 350.208889 331.95862 
L 350.784159 347.62735 
L 351.071794 346.074737 
L 351.35943 287.468074 
L 351.647065 288.361301 
L 351.9347 348.875656 
L 352.222335 328.140744 
L 352.509971 326.908505 
L 352.797606 327.594575 
L 353.085241 326.652242 
L 353.660511 285.641293 
L 353.948147 283.624745 
L 354.235782 256.380809 
L 354.523417 254.273382 
L 355.098688 356.065105 
L 355.386323 353.462288 
L 355.961593 364.807583 
L 356.249229 362.757759 
L 356.536864 358.919862 
L 356.824499 358.63091 
L 357.112134 354.160192 
L 357.399769 360.154673 
L 357.687405 360.096982 
L 357.97504 359.289476 
L 358.262675 364.497553 
L 358.837946 359.327021 
L 359.125581 359.844728 
L 359.700851 351.22202 
L 359.988487 332.729907 
L 360.276122 333.182686 
L 360.563757 318.932253 
L 360.851392 298.795824 
L 361.139028 299.143552 
L 361.426663 178.406555 
L 361.714298 179.164749 
L 362.001933 318.497935 
L 362.289568 267.25829 
L 362.577204 265.56472 
L 362.864839 291.982664 
L 363.152474 290.043446 
L 363.440109 293.569022 
L 363.727745 282.962789 
L 364.01538 289.250291 
L 364.303015 246.73488 
L 364.59065 251.116482 
L 364.878286 298.580211 
L 365.165921 116.404404 
L 365.453556 112.26818 
L 365.741191 308.417894 
L 366.028826 303.272317 
L 366.604097 351.276498 
L 366.891732 347.10928 
L 367.179367 334.446758 
L 367.467003 331.950242 
L 368.042273 344.456866 
L 368.329908 341.926407 
L 368.617544 327.73354 
L 368.905179 324.047821 
L 369.192814 348.030618 
L 369.480449 341.007669 
L 369.768085 339.403958 
L 370.05572 327.855959 
L 370.343355 331.041717 
L 370.63099 327.280329 
L 370.918625 315.000074 
L 371.206261 314.219975 
L 371.493896 281.17747 
L 371.781531 281.679268 
L 372.356802 360.649767 
L 372.644437 362.311379 
L 372.932072 256.005068 
L 373.219707 256.970906 
L 373.507343 328.773982 
L 373.794978 233.944812 
L 374.082613 231.860827 
L 374.370248 319.198577 
L 374.657883 328.012022 
L 375.233154 265.815818 
L 375.520789 269.317315 
L 375.808424 235.187042 
L 376.09606 228.52978 
L 376.383695 230.054865 
L 376.67133 215.61424 
L 376.958965 213.398284 
L 377.246601 327.230252 
L 377.534236 333.390339 
L 378.109506 309.982482 
L 378.397142 314.497697 
L 378.684777 323.799328 
L 378.972412 328.55447 
L 379.260047 350.12214 
L 379.547682 347.101321 
L 379.835318 342.469124 
L 380.122953 293.800876 
L 380.410588 289.20023 
L 380.698223 300.824757 
L 380.985859 283.489287 
L 381.273494 280.169895 
L 381.561129 321.803783 
L 381.848764 320.287103 
L 382.1364 290.215737 
L 382.424035 175.691861 
L 382.71167 179.192563 
L 382.999305 206.528915 
L 383.28694 209.136178 
L 383.574576 220.014458 
L 383.862211 213.382341 
L 384.149846 214.070464 
L 384.437481 310.621373 
L 384.725117 309.972249 
L 385.300387 247.120581 
L 385.588022 246.266566 
L 385.875658 72.601245 
L 386.163293 70.689273 
L 386.738563 320.118654 
L 387.026199 319.979001 
L 387.889104 317.290803 
L 388.176739 313.066101 
L 388.464375 312.250001 
L 388.75201 289.520903 
L 389.039645 289.299532 
L 389.614916 316.594316 
L 389.902551 316.816369 
L 390.190186 302.727819 
L 390.477821 301.226022 
L 390.765457 284.073176 
L 391.053092 140.667186 
L 391.340727 142.189524 
L 391.628362 170.814898 
L 391.915997 172.065942 
L 392.491268 340.064915 
L 392.778903 340.491499 
L 393.066538 361.064788 
L 393.354174 362.088312 
L 393.929444 339.758618 
L 394.504715 340.295733 
L 394.79235 349.013802 
L 395.079985 349.870861 
L 395.655256 365.688658 
L 396.518161 310.319522 
L 396.805796 300.182331 
L 397.093432 300.50023 
L 397.381067 316.115806 
L 397.668702 315.760719 
L 397.956337 354.39582 
L 398.243973 341.574161 
L 398.531608 341.613029 
L 398.819243 326.453199 
L 399.106878 326.333354 
L 399.682149 307.452258 
L 399.969784 307.262594 
L 400.257419 346.416545 
L 400.545054 345.86924 
L 400.83269 346.857304 
L 401.120325 339.405279 
L 401.40796 339.057662 
L 401.695595 302.980826 
L 401.983231 302.95596 
L 402.558501 328.004147 
L 402.846136 327.937977 
L 402.846136 327.937977 
" style="fill:none;stroke:#808080;stroke-linecap:round;stroke-width:1.5;"/>
   </g>
   <g id="line2d_14">
    <path clip-path="url(#p8162ea2473)" d="M 62.775 321.894944 
L 419.04 321.894944 
" style="fill:none;stroke:#4c72b0;stroke-linecap:round;stroke-width:2;"/>
   </g>
   <g id="line2d_15">
    <path clip-path="url(#p8162ea2473)" d="M 62.775 348.823447 
L 419.04 348.823447 
" style="fill:none;stroke:#55a868;stroke-linecap:round;stroke-width:2;"/>
   </g>
   <g id="line2d_16">
    <path clip-path="url(#p8162ea2473)" d="M 62.775 337.577069 
L 419.04 337.577069 
" style="fill:none;stroke:#c44e52;stroke-linecap:round;stroke-width:2;"/>
   </g>
   <g id="patch_4">
    <path d="M 62.775 382.86 
L 62.775 55.824 
" style="fill:none;stroke:#ffffff;stroke-linecap:square;stroke-linejoin:miter;stroke-width:1.25;"/>
   </g>
   <g id="patch_5">
    <path d="M 419.04 382.86 
L 419.04 55.824 
" style="fill:none;stroke:#ffffff;stroke-linecap:square;stroke-linejoin:miter;stroke-width:1.25;"/>
   </g>
   <g id="patch_6">
    <path d="M 62.775 382.86 
L 419.04 382.86 
" style="fill:none;stroke:#ffffff;stroke-linecap:square;stroke-linejoin:miter;stroke-width:1.25;"/>
   </g>
   <g id="patch_7">
    <path d="M 62.775 55.824 
L 419.04 55.824 
" style="fill:none;stroke:#ffffff;stroke-linecap:square;stroke-linejoin:miter;stroke-width:1.25;"/>
   </g>
   <g id="text_15">
    <!-- RPE w.r.t. translation part (m) -->
    <g style="fill:#262626;" transform="translate(152.259375 22.94925)scale(0.12 -0.12)">
     <defs>
      <path d="M 4.203125 54.6875 
L 13.1875 54.6875 
L 24.421875 12.015625 
L 35.59375 54.6875 
L 46.1875 54.6875 
L 57.421875 12.015625 
L 68.609375 54.6875 
L 77.59375 54.6875 
L 63.28125 0 
L 52.6875 0 
L 40.921875 44.828125 
L 29.109375 0 
L 18.5 0 
z
" id="DejaVuSans-119"/>
      <path d="M 41.109375 46.296875 
Q 39.59375 47.171875 37.8125 47.578125 
Q 36.03125 48 33.890625 48 
Q 26.265625 48 22.1875 43.046875 
Q 18.109375 38.09375 18.109375 28.8125 
L 18.109375 0 
L 9.078125 0 
L 9.078125 54.6875 
L 18.109375 54.6875 
L 18.109375 46.1875 
Q 20.953125 51.171875 25.484375 53.578125 
Q 30.03125 56 36.53125 56 
Q 37.453125 56 38.578125 55.875 
Q 39.703125 55.765625 41.0625 55.515625 
z
" id="DejaVuSans-114"/>
      <path d="M 18.3125 70.21875 
L 18.3125 54.6875 
L 36.8125 54.6875 
L 36.8125 47.703125 
L 18.3125 47.703125 
L 18.3125 18.015625 
Q 18.3125 11.328125 20.140625 9.421875 
Q 21.96875 7.515625 27.59375 7.515625 
L 36.8125 7.515625 
L 36.8125 0 
L 27.59375 0 
Q 17.1875 0 13.234375 3.875 
Q 9.28125 7.765625 9.28125 18.015625 
L 9.28125 47.703125 
L 2.6875 47.703125 
L 2.6875 54.6875 
L 9.28125 54.6875 
L 9.28125 70.21875 
z
" id="DejaVuSans-116"/>
      <path d="M 34.28125 27.484375 
Q 23.390625 27.484375 19.1875 25 
Q 14.984375 22.515625 14.984375 16.5 
Q 14.984375 11.71875 18.140625 8.90625 
Q 21.296875 6.109375 26.703125 6.109375 
Q 34.1875 6.109375 38.703125 11.40625 
Q 43.21875 16.703125 43.21875 25.484375 
L 43.21875 27.484375 
z
M 52.203125 31.203125 
L 52.203125 0 
L 43.21875 0 
L 43.21875 8.296875 
Q 40.140625 3.328125 35.546875 0.953125 
Q 30.953125 -1.421875 24.3125 -1.421875 
Q 15.921875 -1.421875 10.953125 3.296875 
Q 6 8.015625 6 15.921875 
Q 6 25.140625 12.171875 29.828125 
Q 18.359375 34.515625 30.609375 34.515625 
L 43.21875 34.515625 
L 43.21875 35.40625 
Q 43.21875 41.609375 39.140625 45 
Q 35.0625 48.390625 27.6875 48.390625 
Q 23 48.390625 18.546875 47.265625 
Q 14.109375 46.140625 10.015625 43.890625 
L 10.015625 52.203125 
Q 14.9375 54.109375 19.578125 55.046875 
Q 24.21875 56 28.609375 56 
Q 40.484375 56 46.34375 49.84375 
Q 52.203125 43.703125 52.203125 31.203125 
z
" id="DejaVuSans-97"/>
      <path d="M 54.890625 33.015625 
L 54.890625 0 
L 45.90625 0 
L 45.90625 32.71875 
Q 45.90625 40.484375 42.875 44.328125 
Q 39.84375 48.1875 33.796875 48.1875 
Q 26.515625 48.1875 22.3125 43.546875 
Q 18.109375 38.921875 18.109375 30.90625 
L 18.109375 0 
L 9.078125 0 
L 9.078125 54.6875 
L 18.109375 54.6875 
L 18.109375 46.1875 
Q 21.34375 51.125 25.703125 53.5625 
Q 30.078125 56 35.796875 56 
Q 45.21875 56 50.046875 50.171875 
Q 54.890625 44.34375 54.890625 33.015625 
z
" id="DejaVuSans-110"/>
      <path d="M 9.421875 75.984375 
L 18.40625 75.984375 
L 18.40625 0 
L 9.421875 0 
z
" id="DejaVuSans-108"/>
      <path d="M 9.421875 54.6875 
L 18.40625 54.6875 
L 18.40625 0 
L 9.421875 0 
z
M 9.421875 75.984375 
L 18.40625 75.984375 
L 18.40625 64.59375 
L 9.421875 64.59375 
z
" id="DejaVuSans-105"/>
      <path d="M 30.609375 48.390625 
Q 23.390625 48.390625 19.1875 42.75 
Q 14.984375 37.109375 14.984375 27.296875 
Q 14.984375 17.484375 19.15625 11.84375 
Q 23.34375 6.203125 30.609375 6.203125 
Q 37.796875 6.203125 41.984375 11.859375 
Q 46.1875 17.53125 46.1875 27.296875 
Q 46.1875 37.015625 41.984375 42.703125 
Q 37.796875 48.390625 30.609375 48.390625 
z
M 30.609375 56 
Q 42.328125 56 49.015625 48.375 
Q 55.71875 40.765625 55.71875 27.296875 
Q 55.71875 13.875 49.015625 6.21875 
Q 42.328125 -1.421875 30.609375 -1.421875 
Q 18.84375 -1.421875 12.171875 6.21875 
Q 5.515625 13.875 5.515625 27.296875 
Q 5.515625 40.765625 12.171875 48.375 
Q 18.84375 56 30.609375 56 
z
" id="DejaVuSans-111"/>
      <path d="M 18.109375 8.203125 
L 18.109375 -20.796875 
L 9.078125 -20.796875 
L 9.078125 54.6875 
L 18.109375 54.6875 
L 18.109375 46.390625 
Q 20.953125 51.265625 25.265625 53.625 
Q 29.59375 56 35.59375 56 
Q 45.5625 56 51.78125 48.09375 
Q 58.015625 40.1875 58.015625 27.296875 
Q 58.015625 14.40625 51.78125 6.484375 
Q 45.5625 -1.421875 35.59375 -1.421875 
Q 29.59375 -1.421875 25.265625 0.953125 
Q 20.953125 3.328125 18.109375 8.203125 
z
M 48.6875 27.296875 
Q 48.6875 37.203125 44.609375 42.84375 
Q 40.53125 48.484375 33.40625 48.484375 
Q 26.265625 48.484375 22.1875 42.84375 
Q 18.109375 37.203125 18.109375 27.296875 
Q 18.109375 17.390625 22.1875 11.75 
Q 26.265625 6.109375 33.40625 6.109375 
Q 40.53125 6.109375 44.609375 11.75 
Q 48.6875 17.390625 48.6875 27.296875 
z
" id="DejaVuSans-112"/>
     </defs>
     <use xlink:href="#DejaVuSans-82"/>
     <use x="69.482422" xlink:href="#DejaVuSans-80"/>
     <use x="129.785156" xlink:href="#DejaVuSans-69"/>
     <use x="192.96875" xlink:href="#DejaVuSans-32"/>
     <use x="224.755859" xlink:href="#DejaVuSans-119"/>
     <use x="297.417969" xlink:href="#DejaVuSans-46"/>
     <use x="329.205078" xlink:href="#DejaVuSans-114"/>
     <use x="361.193359" xlink:href="#DejaVuSans-46"/>
     <use x="392.980469" xlink:href="#DejaVuSans-116"/>
     <use x="432.189453" xlink:href="#DejaVuSans-46"/>
     <use x="463.976562" xlink:href="#DejaVuSans-32"/>
     <use x="495.763672" xlink:href="#DejaVuSans-116"/>
     <use x="534.972656" xlink:href="#DejaVuSans-114"/>
     <use x="576.085938" xlink:href="#DejaVuSans-97"/>
     <use x="637.365234" xlink:href="#DejaVuSans-110"/>
     <use x="700.744141" xlink:href="#DejaVuSans-115"/>
     <use x="752.84375" xlink:href="#DejaVuSans-108"/>
     <use x="780.626953" xlink:href="#DejaVuSans-97"/>
     <use x="841.90625" xlink:href="#DejaVuSans-116"/>
     <use x="881.115234" xlink:href="#DejaVuSans-105"/>
     <use x="908.898438" xlink:href="#DejaVuSans-111"/>
     <use x="970.080078" xlink:href="#DejaVuSans-110"/>
     <use x="1033.458984" xlink:href="#DejaVuSans-32"/>
     <use x="1065.246094" xlink:href="#DejaVuSans-112"/>
     <use x="1128.722656" xlink:href="#DejaVuSans-97"/>
     <use x="1190.001953" xlink:href="#DejaVuSans-114"/>
     <use x="1231.115234" xlink:href="#DejaVuSans-116"/>
     <use x="1270.324219" xlink:href="#DejaVuSans-32"/>
     <use x="1302.111328" xlink:href="#DejaVuSans-40"/>
     <use x="1341.125" xlink:href="#DejaVuSans-109"/>
     <use x="1438.537109" xlink:href="#DejaVuSans-41"/>
    </g>
    <!-- for delta = 1 (frames) using consecutive pairs -->
    <g style="fill:#262626;" transform="translate(102.762187 36.386625)scale(0.12 -0.12)">
     <defs>
      <path d="M 37.109375 75.984375 
L 37.109375 68.5 
L 28.515625 68.5 
Q 23.6875 68.5 21.796875 66.546875 
Q 19.921875 64.59375 19.921875 59.515625 
L 19.921875 54.6875 
L 34.71875 54.6875 
L 34.71875 47.703125 
L 19.921875 47.703125 
L 19.921875 0 
L 10.890625 0 
L 10.890625 47.703125 
L 2.296875 47.703125 
L 2.296875 54.6875 
L 10.890625 54.6875 
L 10.890625 58.5 
Q 10.890625 67.625 15.140625 71.796875 
Q 19.390625 75.984375 28.609375 75.984375 
z
" id="DejaVuSans-102"/>
      <path d="M 45.40625 46.390625 
L 45.40625 75.984375 
L 54.390625 75.984375 
L 54.390625 0 
L 45.40625 0 
L 45.40625 8.203125 
Q 42.578125 3.328125 38.25 0.953125 
Q 33.9375 -1.421875 27.875 -1.421875 
Q 17.96875 -1.421875 11.734375 6.484375 
Q 5.515625 14.40625 5.515625 27.296875 
Q 5.515625 40.1875 11.734375 48.09375 
Q 17.96875 56 27.875 56 
Q 33.9375 56 38.25 53.625 
Q 42.578125 51.265625 45.40625 46.390625 
z
M 14.796875 27.296875 
Q 14.796875 17.390625 18.875 11.75 
Q 22.953125 6.109375 30.078125 6.109375 
Q 37.203125 6.109375 41.296875 11.75 
Q 45.40625 17.390625 45.40625 27.296875 
Q 45.40625 37.203125 41.296875 42.84375 
Q 37.203125 48.484375 30.078125 48.484375 
Q 22.953125 48.484375 18.875 42.84375 
Q 14.796875 37.203125 14.796875 27.296875 
z
" id="DejaVuSans-100"/>
      <path d="M 56.203125 29.59375 
L 56.203125 25.203125 
L 14.890625 25.203125 
Q 15.484375 15.921875 20.484375 11.0625 
Q 25.484375 6.203125 34.421875 6.203125 
Q 39.59375 6.203125 44.453125 7.46875 
Q 49.3125 8.734375 54.109375 11.28125 
L 54.109375 2.78125 
Q 49.265625 0.734375 44.1875 -0.34375 
Q 39.109375 -1.421875 33.890625 -1.421875 
Q 20.796875 -1.421875 13.15625 6.1875 
Q 5.515625 13.8125 5.515625 26.8125 
Q 5.515625 40.234375 12.765625 48.109375 
Q 20.015625 56 32.328125 56 
Q 43.359375 56 49.78125 48.890625 
Q 56.203125 41.796875 56.203125 29.59375 
z
M 47.21875 32.234375 
Q 47.125 39.59375 43.09375 43.984375 
Q 39.0625 48.390625 32.421875 48.390625 
Q 24.90625 48.390625 20.390625 44.140625 
Q 15.875 39.890625 15.1875 32.171875 
z
" id="DejaVuSans-101"/>
      <path d="M 10.59375 45.40625 
L 73.1875 45.40625 
L 73.1875 37.203125 
L 10.59375 37.203125 
z
M 10.59375 25.484375 
L 73.1875 25.484375 
L 73.1875 17.1875 
L 10.59375 17.1875 
z
" id="DejaVuSans-61"/>
      <path d="M 8.5 21.578125 
L 8.5 54.6875 
L 17.484375 54.6875 
L 17.484375 21.921875 
Q 17.484375 14.15625 20.5 10.265625 
Q 23.53125 6.390625 29.59375 6.390625 
Q 36.859375 6.390625 41.078125 11.03125 
Q 45.3125 15.671875 45.3125 23.6875 
L 45.3125 54.6875 
L 54.296875 54.6875 
L 54.296875 0 
L 45.3125 0 
L 45.3125 8.40625 
Q 42.046875 3.421875 37.71875 1 
Q 33.40625 -1.421875 27.6875 -1.421875 
Q 18.265625 -1.421875 13.375 4.4375 
Q 8.5 10.296875 8.5 21.578125 
z
M 31.109375 56 
z
" id="DejaVuSans-117"/>
      <path d="M 45.40625 27.984375 
Q 45.40625 37.75 41.375 43.109375 
Q 37.359375 48.484375 30.078125 48.484375 
Q 22.859375 48.484375 18.828125 43.109375 
Q 14.796875 37.75 14.796875 27.984375 
Q 14.796875 18.265625 18.828125 12.890625 
Q 22.859375 7.515625 30.078125 7.515625 
Q 37.359375 7.515625 41.375 12.890625 
Q 45.40625 18.265625 45.40625 27.984375 
z
M 54.390625 6.78125 
Q 54.390625 -7.171875 48.1875 -13.984375 
Q 42 -20.796875 29.203125 -20.796875 
Q 24.46875 -20.796875 20.265625 -20.09375 
Q 16.0625 -19.390625 12.109375 -17.921875 
L 12.109375 -9.1875 
Q 16.0625 -11.328125 19.921875 -12.34375 
Q 23.78125 -13.375 27.78125 -13.375 
Q 36.625 -13.375 41.015625 -8.765625 
Q 45.40625 -4.15625 45.40625 5.171875 
L 45.40625 9.625 
Q 42.625 4.78125 38.28125 2.390625 
Q 33.9375 0 27.875 0 
Q 17.828125 0 11.671875 7.65625 
Q 5.515625 15.328125 5.515625 27.984375 
Q 5.515625 40.671875 11.671875 48.328125 
Q 17.828125 56 27.875 56 
Q 33.9375 56 38.28125 53.609375 
Q 42.625 51.21875 45.40625 46.390625 
L 45.40625 54.6875 
L 54.390625 54.6875 
z
" id="DejaVuSans-103"/>
      <path d="M 48.78125 52.59375 
L 48.78125 44.1875 
Q 44.96875 46.296875 41.140625 47.34375 
Q 37.3125 48.390625 33.40625 48.390625 
Q 24.65625 48.390625 19.8125 42.84375 
Q 14.984375 37.3125 14.984375 27.296875 
Q 14.984375 17.28125 19.8125 11.734375 
Q 24.65625 6.203125 33.40625 6.203125 
Q 37.3125 6.203125 41.140625 7.25 
Q 44.96875 8.296875 48.78125 10.40625 
L 48.78125 2.09375 
Q 45.015625 0.34375 40.984375 -0.53125 
Q 36.96875 -1.421875 32.421875 -1.421875 
Q 20.0625 -1.421875 12.78125 6.34375 
Q 5.515625 14.109375 5.515625 27.296875 
Q 5.515625 40.671875 12.859375 48.328125 
Q 20.21875 56 33.015625 56 
Q 37.15625 56 41.109375 55.140625 
Q 45.0625 54.296875 48.78125 52.59375 
z
" id="DejaVuSans-99"/>
      <path d="M 2.984375 54.6875 
L 12.5 54.6875 
L 29.59375 8.796875 
L 46.6875 54.6875 
L 56.203125 54.6875 
L 35.6875 0 
L 23.484375 0 
z
" id="DejaVuSans-118"/>
     </defs>
     <use xlink:href="#DejaVuSans-102"/>
     <use x="35.205078" xlink:href="#DejaVuSans-111"/>
     <use x="96.386719" xlink:href="#DejaVuSans-114"/>
     <use x="137.5" xlink:href="#DejaVuSans-32"/>
     <use x="169.287109" xlink:href="#DejaVuSans-100"/>
     <use x="232.763672" xlink:href="#DejaVuSans-101"/>
     <use x="294.287109" xlink:href="#DejaVuSans-108"/>
     <use x="322.070312" xlink:href="#DejaVuSans-116"/>
     <use x="361.279297" xlink:href="#DejaVuSans-97"/>
     <use x="422.558594" xlink:href="#DejaVuSans-32"/>
     <use x="454.345703" xlink:href="#DejaVuSans-61"/>
     <use x="538.134766" xlink:href="#DejaVuSans-32"/>
     <use x="569.921875" xlink:href="#DejaVuSans-49"/>
     <use x="633.544922" xlink:href="#DejaVuSans-32"/>
     <use x="665.332031" xlink:href="#DejaVuSans-40"/>
     <use x="704.345703" xlink:href="#DejaVuSans-102"/>
     <use x="739.550781" xlink:href="#DejaVuSans-114"/>
     <use x="780.664062" xlink:href="#DejaVuSans-97"/>
     <use x="841.943359" xlink:href="#DejaVuSans-109"/>
     <use x="939.355469" xlink:href="#DejaVuSans-101"/>
     <use x="1000.878906" xlink:href="#DejaVuSans-115"/>
     <use x="1052.978516" xlink:href="#DejaVuSans-41"/>
     <use x="1091.992188" xlink:href="#DejaVuSans-32"/>
     <use x="1123.779297" xlink:href="#DejaVuSans-117"/>
     <use x="1187.158203" xlink:href="#DejaVuSans-115"/>
     <use x="1239.257812" xlink:href="#DejaVuSans-105"/>
     <use x="1267.041016" xlink:href="#DejaVuSans-110"/>
     <use x="1330.419922" xlink:href="#DejaVuSans-103"/>
     <use x="1393.896484" xlink:href="#DejaVuSans-32"/>
     <use x="1425.683594" xlink:href="#DejaVuSans-99"/>
     <use x="1480.664062" xlink:href="#DejaVuSans-111"/>
     <use x="1541.845703" xlink:href="#DejaVuSans-110"/>
     <use x="1605.224609" xlink:href="#DejaVuSans-115"/>
     <use x="1657.324219" xlink:href="#DejaVuSans-101"/>
     <use x="1718.847656" xlink:href="#DejaVuSans-99"/>
     <use x="1773.828125" xlink:href="#DejaVuSans-117"/>
     <use x="1837.207031" xlink:href="#DejaVuSans-116"/>
     <use x="1876.416016" xlink:href="#DejaVuSans-105"/>
     <use x="1904.199219" xlink:href="#DejaVuSans-118"/>
     <use x="1963.378906" xlink:href="#DejaVuSans-101"/>
     <use x="2024.902344" xlink:href="#DejaVuSans-32"/>
     <use x="2056.689453" xlink:href="#DejaVuSans-112"/>
     <use x="2120.166016" xlink:href="#DejaVuSans-97"/>
     <use x="2181.445312" xlink:href="#DejaVuSans-105"/>
     <use x="2209.228516" xlink:href="#DejaVuSans-114"/>
     <use x="2250.341797" xlink:href="#DejaVuSans-115"/>
    </g>
    <!-- (with origin alignment) -->
    <g style="fill:#262626;" transform="translate(172.287187 49.824)scale(0.12 -0.12)">
     <defs>
      <path d="M 54.890625 33.015625 
L 54.890625 0 
L 45.90625 0 
L 45.90625 32.71875 
Q 45.90625 40.484375 42.875 44.328125 
Q 39.84375 48.1875 33.796875 48.1875 
Q 26.515625 48.1875 22.3125 43.546875 
Q 18.109375 38.921875 18.109375 30.90625 
L 18.109375 0 
L 9.078125 0 
L 9.078125 75.984375 
L 18.109375 75.984375 
L 18.109375 46.1875 
Q 21.34375 51.125 25.703125 53.5625 
Q 30.078125 56 35.796875 56 
Q 45.21875 56 50.046875 50.171875 
Q 54.890625 44.34375 54.890625 33.015625 
z
" id="DejaVuSans-104"/>
     </defs>
     <use xlink:href="#DejaVuSans-40"/>
     <use x="39.013672" xlink:href="#DejaVuSans-119"/>
     <use x="120.800781" xlink:href="#DejaVuSans-105"/>
     <use x="148.583984" xlink:href="#DejaVuSans-116"/>
     <use x="187.792969" xlink:href="#DejaVuSans-104"/>
     <use x="251.171875" xlink:href="#DejaVuSans-32"/>
     <use x="282.958984" xlink:href="#DejaVuSans-111"/>
     <use x="344.140625" xlink:href="#DejaVuSans-114"/>
     <use x="385.253906" xlink:href="#DejaVuSans-105"/>
     <use x="413.037109" xlink:href="#DejaVuSans-103"/>
     <use x="476.513672" xlink:href="#DejaVuSans-105"/>
     <use x="504.296875" xlink:href="#DejaVuSans-110"/>
     <use x="567.675781" xlink:href="#DejaVuSans-32"/>
     <use x="599.462891" xlink:href="#DejaVuSans-97"/>
     <use x="660.742188" xlink:href="#DejaVuSans-108"/>
     <use x="688.525391" xlink:href="#DejaVuSans-105"/>
     <use x="716.308594" xlink:href="#DejaVuSans-103"/>
     <use x="779.785156" xlink:href="#DejaVuSans-110"/>
     <use x="843.164062" xlink:href="#DejaVuSans-109"/>
     <use x="940.576172" xlink:href="#DejaVuSans-101"/>
     <use x="1002.099609" xlink:href="#DejaVuSans-110"/>
     <use x="1065.478516" xlink:href="#DejaVuSans-116"/>
     <use x="1104.6875" xlink:href="#DejaVuSans-41"/>
    </g>
   </g>
   <g id="legend_1">
    <g id="patch_8">
     <path d="M 70.475 145.353688 
L 149.695625 145.353688 
Q 151.895625 145.353688 151.895625 143.153688 
L 151.895625 63.524 
Q 151.895625 61.324 149.695625 61.324 
L 70.475 61.324 
Q 68.275 61.324 68.275 63.524 
L 68.275 143.153688 
Q 68.275 145.353688 70.475 145.353688 
z
" style="fill:#eaeaf2;opacity:0.8;stroke:#cccccc;stroke-linejoin:miter;"/>
    </g>
    <g id="line2d_17">
     <path d="M 72.675 70.232281 
L 94.675 70.232281 
" style="fill:none;stroke:#808080;stroke-linecap:round;stroke-width:1.5;"/>
    </g>
    <g id="line2d_18"/>
    <g id="text_16">
     <!-- RPE (m) -->
     <g style="fill:#262626;" transform="translate(103.475 74.082281)scale(0.11 -0.11)">
      <use xlink:href="#DejaVuSans-82"/>
      <use x="69.482422" xlink:href="#DejaVuSans-80"/>
      <use x="129.785156" xlink:href="#DejaVuSans-69"/>
      <use x="192.96875" xlink:href="#DejaVuSans-32"/>
      <use x="224.755859" xlink:href="#DejaVuSans-40"/>
      <use x="263.769531" xlink:href="#DejaVuSans-109"/>
      <use x="361.181641" xlink:href="#DejaVuSans-41"/>
     </g>
    </g>
    <g id="line2d_19">
     <path d="M 72.675 86.378219 
L 94.675 86.378219 
" style="fill:none;stroke:#4c72b0;stroke-linecap:round;stroke-width:2;"/>
    </g>
    <g id="line2d_20"/>
    <g id="text_17">
     <!-- rmse -->
     <g style="fill:#262626;" transform="translate(103.475 90.228219)scale(0.11 -0.11)">
      <use xlink:href="#DejaVuSans-114"/>
      <use x="39.363281" xlink:href="#DejaVuSans-109"/>
      <use x="136.775391" xlink:href="#DejaVuSans-115"/>
      <use x="188.875" xlink:href="#DejaVuSans-101"/>
     </g>
    </g>
    <g id="line2d_21">
     <path d="M 72.675 102.524156 
L 94.675 102.524156 
" style="fill:none;stroke:#55a868;stroke-linecap:round;stroke-width:2;"/>
    </g>
    <g id="line2d_22"/>
    <g id="text_18">
     <!-- median -->
     <g style="fill:#262626;" transform="translate(103.475 106.374156)scale(0.11 -0.11)">
      <use xlink:href="#DejaVuSans-109"/>
      <use x="97.412109" xlink:href="#DejaVuSans-101"/>
      <use x="158.935547" xlink:href="#DejaVuSans-100"/>
      <use x="222.412109" xlink:href="#DejaVuSans-105"/>
      <use x="250.195312" xlink:href="#DejaVuSans-97"/>
      <use x="311.474609" xlink:href="#DejaVuSans-110"/>
     </g>
    </g>
    <g id="line2d_23">
     <path d="M 72.675 118.670094 
L 94.675 118.670094 
" style="fill:none;stroke:#c44e52;stroke-linecap:round;stroke-width:2;"/>
    </g>
    <g id="line2d_24"/>
    <g id="text_19">
     <!-- mean -->
     <g style="fill:#262626;" transform="translate(103.475 122.520094)scale(0.11 -0.11)">
      <use xlink:href="#DejaVuSans-109"/>
      <use x="97.412109" xlink:href="#DejaVuSans-101"/>
      <use x="158.935547" xlink:href="#DejaVuSans-97"/>
      <use x="220.214844" xlink:href="#DejaVuSans-110"/>
     </g>
    </g>
    <g id="patch_9">
     <path d="M 72.675 138.666031 
L 94.675 138.666031 
L 94.675 130.966031 
L 72.675 130.966031 
z
" style="fill:#8172b3;opacity:0.5;stroke:#8172b3;stroke-linejoin:miter;"/>
    </g>
    <g id="text_20">
     <!-- std -->
     <g style="fill:#262626;" transform="translate(103.475 138.666031)scale(0.11 -0.11)">
      <use xlink:href="#DejaVuSans-115"/>
      <use x="52.099609" xlink:href="#DejaVuSans-116"/>
      <use x="91.308594" xlink:href="#DejaVuSans-100"/>
     </g>
    </g>
   </g>
  </g>
 </g>
 <defs>
  <clipPath id="p8162ea2473">
   <rect height="327.036" width="356.265" x="62.775" y="55.824"/>
  </clipPath>
 </defs>
</svg>
