<?xml version="1.0" encoding="utf-8" standalone="no"?>
<!DOCTYPE svg PUBLIC "-//W3C//DTD SVG 1.1//EN"
  "http://www.w3.org/Graphics/SVG/1.1/DTD/svg11.dtd">
<!-- Created with matplotlib (https://matplotlib.org/) -->
<svg height="432pt" version="1.1" viewBox="0 0 432 432" width="432pt" xmlns="http://www.w3.org/2000/svg" xmlns:xlink="http://www.w3.org/1999/xlink">
 <metadata>
  <rdf:RDF xmlns:cc="http://creativecommons.org/ns#" xmlns:dc="http://purl.org/dc/elements/1.1/" xmlns:rdf="http://www.w3.org/1999/02/22-rdf-syntax-ns#">
   <cc:Work>
    <dc:type rdf:resource="http://purl.org/dc/dcmitype/StillImage"/>
    <dc:date>2022-02-01T18:05:16.400216</dc:date>
    <dc:format>image/svg+xml</dc:format>
    <dc:creator>
     <cc:Agent>
      <dc:title>Matplotlib v3.3.1, https://matplotlib.org/</dc:title>
     </cc:Agent>
    </dc:creator>
   </cc:Work>
  </rdf:RDF>
 </metadata>
 <defs>
  <style type="text/css">*{stroke-linecap:butt;stroke-linejoin:round;}</style>
 </defs>
 <g id="figure_1">
  <g id="patch_1">
   <path d="M 0 432 
L 432 432 
L 432 0 
L 0 0 
z
" style="fill:#ffffff;"/>
  </g>
  <g id="axes_1">
   <g id="patch_2">
    <path d="M 63.09 126.446049 
L 419.04 126.446049 
L 419.04 12.96 
L 63.09 12.96 
z
" style="fill:#eaeaf2;"/>
   </g>
   <g id="matplotlib.axis_1">
    <g id="xtick_1">
     <g id="line2d_1">
      <path clip-path="url(#p9712d074a6)" d="M 102.074743 126.446049 
L 102.074743 12.96 
" style="fill:none;stroke:#ffffff;stroke-linecap:round;"/>
     </g>
    </g>
    <g id="xtick_2">
     <g id="line2d_2">
      <path clip-path="url(#p9712d074a6)" d="M 156.051542 126.446049 
L 156.051542 12.96 
" style="fill:none;stroke:#ffffff;stroke-linecap:round;"/>
     </g>
    </g>
    <g id="xtick_3">
     <g id="line2d_3">
      <path clip-path="url(#p9712d074a6)" d="M 210.028341 126.446049 
L 210.028341 12.96 
" style="fill:none;stroke:#ffffff;stroke-linecap:round;"/>
     </g>
    </g>
    <g id="xtick_4">
     <g id="line2d_4">
      <path clip-path="url(#p9712d074a6)" d="M 264.00514 126.446049 
L 264.00514 12.96 
" style="fill:none;stroke:#ffffff;stroke-linecap:round;"/>
     </g>
    </g>
    <g id="xtick_5">
     <g id="line2d_5">
      <path clip-path="url(#p9712d074a6)" d="M 317.981938 126.446049 
L 317.981938 12.96 
" style="fill:none;stroke:#ffffff;stroke-linecap:round;"/>
     </g>
    </g>
    <g id="xtick_6">
     <g id="line2d_6">
      <path clip-path="url(#p9712d074a6)" d="M 371.958737 126.446049 
L 371.958737 12.96 
" style="fill:none;stroke:#ffffff;stroke-linecap:round;"/>
     </g>
    </g>
   </g>
   <g id="matplotlib.axis_2">
    <g id="ytick_1">
     <g id="line2d_7">
      <path clip-path="url(#p9712d074a6)" d="M 63.09 121.799301 
L 419.04 121.799301 
" style="fill:none;stroke:#ffffff;stroke-linecap:round;"/>
     </g>
     <g id="text_1">
      <!-- −20 -->
      <g style="fill:#262626;" transform="translate(30.374844 125.978442)scale(0.11 -0.11)">
       <defs>
        <path d="M 10.59375 35.5 
L 73.1875 35.5 
L 73.1875 27.203125 
L 10.59375 27.203125 
z
" id="DejaVuSans-8722"/>
        <path d="M 19.1875 8.296875 
L 53.609375 8.296875 
L 53.609375 0 
L 7.328125 0 
L 7.328125 8.296875 
Q 12.9375 14.109375 22.625 23.890625 
Q 32.328125 33.6875 34.8125 36.53125 
Q 39.546875 41.84375 41.421875 45.53125 
Q 43.3125 49.21875 43.3125 52.78125 
Q 43.3125 58.59375 39.234375 62.25 
Q 35.15625 65.921875 28.609375 65.921875 
Q 23.96875 65.921875 18.8125 64.3125 
Q 13.671875 62.703125 7.8125 59.421875 
L 7.8125 69.390625 
Q 13.765625 71.78125 18.9375 73 
Q 24.125 74.21875 28.421875 74.21875 
Q 39.75 74.21875 46.484375 68.546875 
Q 53.21875 62.890625 53.21875 53.421875 
Q 53.21875 48.921875 51.53125 44.890625 
Q 49.859375 40.875 45.40625 35.40625 
Q 44.1875 33.984375 37.640625 27.21875 
Q 31.109375 20.453125 19.1875 8.296875 
z
" id="DejaVuSans-50"/>
        <path d="M 31.78125 66.40625 
Q 24.171875 66.40625 20.328125 58.90625 
Q 16.5 51.421875 16.5 36.375 
Q 16.5 21.390625 20.328125 13.890625 
Q 24.171875 6.390625 31.78125 6.390625 
Q 39.453125 6.390625 43.28125 13.890625 
Q 47.125 21.390625 47.125 36.375 
Q 47.125 51.421875 43.28125 58.90625 
Q 39.453125 66.40625 31.78125 66.40625 
z
M 31.78125 74.21875 
Q 44.046875 74.21875 50.515625 64.515625 
Q 56.984375 54.828125 56.984375 36.375 
Q 56.984375 17.96875 50.515625 8.265625 
Q 44.046875 -1.421875 31.78125 -1.421875 
Q 19.53125 -1.421875 13.0625 8.265625 
Q 6.59375 17.96875 6.59375 36.375 
Q 6.59375 54.828125 13.0625 64.515625 
Q 19.53125 74.21875 31.78125 74.21875 
z
" id="DejaVuSans-48"/>
       </defs>
       <use xlink:href="#DejaVuSans-8722"/>
       <use x="83.789062" xlink:href="#DejaVuSans-50"/>
       <use x="147.412109" xlink:href="#DejaVuSans-48"/>
      </g>
     </g>
    </g>
    <g id="ytick_2">
     <g id="line2d_8">
      <path clip-path="url(#p9712d074a6)" d="M 63.09 97.669678 
L 419.04 97.669678 
" style="fill:none;stroke:#ffffff;stroke-linecap:round;"/>
     </g>
     <g id="text_2">
      <!-- −15 -->
      <g style="fill:#262626;" transform="translate(30.374844 101.848819)scale(0.11 -0.11)">
       <defs>
        <path d="M 12.40625 8.296875 
L 28.515625 8.296875 
L 28.515625 63.921875 
L 10.984375 60.40625 
L 10.984375 69.390625 
L 28.421875 72.90625 
L 38.28125 72.90625 
L 38.28125 8.296875 
L 54.390625 8.296875 
L 54.390625 0 
L 12.40625 0 
z
" id="DejaVuSans-49"/>
        <path d="M 10.796875 72.90625 
L 49.515625 72.90625 
L 49.515625 64.59375 
L 19.828125 64.59375 
L 19.828125 46.734375 
Q 21.96875 47.46875 24.109375 47.828125 
Q 26.265625 48.1875 28.421875 48.1875 
Q 40.625 48.1875 47.75 41.5 
Q 54.890625 34.8125 54.890625 23.390625 
Q 54.890625 11.625 47.5625 5.09375 
Q 40.234375 -1.421875 26.90625 -1.421875 
Q 22.3125 -1.421875 17.546875 -0.640625 
Q 12.796875 0.140625 7.71875 1.703125 
L 7.71875 11.625 
Q 12.109375 9.234375 16.796875 8.0625 
Q 21.484375 6.890625 26.703125 6.890625 
Q 35.15625 6.890625 40.078125 11.328125 
Q 45.015625 15.765625 45.015625 23.390625 
Q 45.015625 31 40.078125 35.4375 
Q 35.15625 39.890625 26.703125 39.890625 
Q 22.75 39.890625 18.8125 39.015625 
Q 14.890625 38.140625 10.796875 36.28125 
z
" id="DejaVuSans-53"/>
       </defs>
       <use xlink:href="#DejaVuSans-8722"/>
       <use x="83.789062" xlink:href="#DejaVuSans-49"/>
       <use x="147.412109" xlink:href="#DejaVuSans-53"/>
      </g>
     </g>
    </g>
    <g id="ytick_3">
     <g id="line2d_9">
      <path clip-path="url(#p9712d074a6)" d="M 63.09 73.540055 
L 419.04 73.540055 
" style="fill:none;stroke:#ffffff;stroke-linecap:round;"/>
     </g>
     <g id="text_3">
      <!-- −10 -->
      <g style="fill:#262626;" transform="translate(30.374844 77.719196)scale(0.11 -0.11)">
       <use xlink:href="#DejaVuSans-8722"/>
       <use x="83.789062" xlink:href="#DejaVuSans-49"/>
       <use x="147.412109" xlink:href="#DejaVuSans-48"/>
      </g>
     </g>
    </g>
    <g id="ytick_4">
     <g id="line2d_10">
      <path clip-path="url(#p9712d074a6)" d="M 63.09 49.410432 
L 419.04 49.410432 
" style="fill:none;stroke:#ffffff;stroke-linecap:round;"/>
     </g>
     <g id="text_4">
      <!-- −5 -->
      <g style="fill:#262626;" transform="translate(37.373594 53.589573)scale(0.11 -0.11)">
       <use xlink:href="#DejaVuSans-8722"/>
       <use x="83.789062" xlink:href="#DejaVuSans-53"/>
      </g>
     </g>
    </g>
    <g id="ytick_5">
     <g id="line2d_11">
      <path clip-path="url(#p9712d074a6)" d="M 63.09 25.280809 
L 419.04 25.280809 
" style="fill:none;stroke:#ffffff;stroke-linecap:round;"/>
     </g>
     <g id="text_5">
      <!-- 0 -->
      <g style="fill:#262626;" transform="translate(46.59125 29.45995)scale(0.11 -0.11)">
       <use xlink:href="#DejaVuSans-48"/>
      </g>
     </g>
    </g>
    <g id="text_6">
     <!-- $x$ (m) -->
     <g style="fill:#262626;" transform="translate(23.879219 85.723024)rotate(-90)scale(0.12 -0.12)">
      <defs>
       <path d="M 60.015625 54.6875 
L 34.90625 27.875 
L 50.296875 0 
L 39.984375 0 
L 28.421875 21.6875 
L 8.296875 0 
L -2.59375 0 
L 24.3125 28.8125 
L 10.015625 54.6875 
L 20.3125 54.6875 
L 30.8125 34.90625 
L 49.125 54.6875 
z
" id="DejaVuSans-Oblique-120"/>
       <path id="DejaVuSans-32"/>
       <path d="M 31 75.875 
Q 24.46875 64.65625 21.28125 53.65625 
Q 18.109375 42.671875 18.109375 31.390625 
Q 18.109375 20.125 21.3125 9.0625 
Q 24.515625 -2 31 -13.1875 
L 23.1875 -13.1875 
Q 15.875 -1.703125 12.234375 9.375 
Q 8.59375 20.453125 8.59375 31.390625 
Q 8.59375 42.28125 12.203125 53.3125 
Q 15.828125 64.359375 23.1875 75.875 
z
" id="DejaVuSans-40"/>
       <path d="M 52 44.1875 
Q 55.375 50.25 60.0625 53.125 
Q 64.75 56 71.09375 56 
Q 79.640625 56 84.28125 50.015625 
Q 88.921875 44.046875 88.921875 33.015625 
L 88.921875 0 
L 79.890625 0 
L 79.890625 32.71875 
Q 79.890625 40.578125 77.09375 44.375 
Q 74.3125 48.1875 68.609375 48.1875 
Q 61.625 48.1875 57.5625 43.546875 
Q 53.515625 38.921875 53.515625 30.90625 
L 53.515625 0 
L 44.484375 0 
L 44.484375 32.71875 
Q 44.484375 40.625 41.703125 44.40625 
Q 38.921875 48.1875 33.109375 48.1875 
Q 26.21875 48.1875 22.15625 43.53125 
Q 18.109375 38.875 18.109375 30.90625 
L 18.109375 0 
L 9.078125 0 
L 9.078125 54.6875 
L 18.109375 54.6875 
L 18.109375 46.1875 
Q 21.1875 51.21875 25.484375 53.609375 
Q 29.78125 56 35.6875 56 
Q 41.65625 56 45.828125 52.96875 
Q 50 49.953125 52 44.1875 
z
" id="DejaVuSans-109"/>
       <path d="M 8.015625 75.875 
L 15.828125 75.875 
Q 23.140625 64.359375 26.78125 53.3125 
Q 30.421875 42.28125 30.421875 31.390625 
Q 30.421875 20.453125 26.78125 9.375 
Q 23.140625 -1.703125 15.828125 -13.1875 
L 8.015625 -13.1875 
Q 14.5 -2 17.703125 9.0625 
Q 20.90625 20.125 20.90625 31.390625 
Q 20.90625 42.671875 17.703125 53.65625 
Q 14.5 64.65625 8.015625 75.875 
z
" id="DejaVuSans-41"/>
      </defs>
      <use transform="translate(0 0.125)" xlink:href="#DejaVuSans-Oblique-120"/>
      <use transform="translate(59.179688 0.125)" xlink:href="#DejaVuSans-32"/>
      <use transform="translate(90.966797 0.125)" xlink:href="#DejaVuSans-40"/>
      <use transform="translate(129.980469 0.125)" xlink:href="#DejaVuSans-109"/>
      <use transform="translate(227.392578 0.125)" xlink:href="#DejaVuSans-41"/>
     </g>
    </g>
   </g>
   <g id="line2d_12">
    <path clip-path="url(#p9712d074a6)" d="M 79.269545 121.069863 
L 90.874557 121.180425 
L 99.510845 121.117639 
L 108.417017 120.895164 
L 109.496553 120.538577 
L 110.845973 119.834281 
L 112.465277 118.693336 
L 114.354465 117.059375 
L 116.783421 114.625178 
L 120.022029 111.010271 
L 124.610056 105.498197 
L 132.166808 96.009657 
L 140.803096 85.189596 
L 143.501936 82.160073 
L 145.391124 80.306484 
L 147.010428 79.093536 
L 149.1695 77.761726 
L 151.058688 76.860726 
L 153.21776 76.103538 
L 155.106948 75.662979 
L 156.726252 75.480173 
L 158.61544 75.507971 
L 161.044396 75.811135 
L 164.01312 76.181042 
L 165.632424 76.442994 
L 167.251728 76.943828 
L 171.299987 78.530206 
L 172.919291 79.56112 
L 175.888015 81.808505 
L 178.586855 83.779316 
L 183.444767 87.146798 
L 186.683375 89.725482 
L 187.762911 90.149729 
L 188.842447 90.336155 
L 189.921983 90.318637 
L 191.271403 90.039505 
L 192.620823 89.501173 
L 193.970243 88.739498 
L 196.938967 86.874712 
L 200.987227 85.517421 
L 202.066763 85.228252 
L 204.495719 84.97658 
L 206.654791 84.609182 
L 209.083747 84.16954 
L 210.972935 84.164376 
L 215.291079 84.278461 
L 216.910383 84.081371 
L 217.989918 83.752243 
L 219.069454 83.18703 
L 220.418874 82.212435 
L 222.577946 80.318018 
L 225.006902 77.872384 
L 227.435858 75.112824 
L 231.214234 70.481013 
L 234.182958 66.389193 
L 239.580638 58.776066 
L 242.549362 55.337966 
L 244.43855 53.399677 
L 246.867506 51.166002 
L 248.216926 50.235096 
L 251.455534 48.252138 
L 254.694142 45.908162 
L 255.503794 45.68449 
L 256.313446 45.671407 
L 257.392982 45.929039 
L 259.012286 46.619267 
L 266.569037 50.352057 
L 268.458225 51.00138 
L 270.887181 51.567524 
L 273.316137 51.904036 
L 277.364397 52.141857 
L 286.810337 52.476916 
L 291.398365 52.485589 
L 294.906857 52.344049 
L 300.034653 52.073923 
L 304.892565 51.887613 
L 308.670941 51.757675 
L 310.020361 51.975546 
L 313.798736 52.845661 
L 315.687924 53.163708 
L 317.846996 53.565751 
L 319.4663 53.639197 
L 320.545836 53.510427 
L 323.784444 52.849777 
L 327.023052 52.483147 
L 329.182124 52.206274 
L 330.26166 51.794256 
L 331.61108 51.034578 
L 333.230384 49.844104 
L 335.119572 48.177249 
L 337.548528 45.738999 
L 341.05702 41.872464 
L 350.772844 31.03087 
L 353.741568 28.10082 
L 355.90064 26.248721 
L 357.789828 24.888064 
L 359.679015 23.782671 
L 361.568203 22.947207 
L 363.187507 22.195796 
L 366.695999 20.416292 
L 368.315303 19.941054 
L 370.474375 19.571784 
L 373.712983 19.287088 
L 378.570895 19.114759 
L 386.937299 19.077923 
L 399.082079 19.045874 
L 400.701383 18.643281 
L 402.590571 18.154391 
L 402.860455 18.118457 
L 402.860455 18.118457 
" style="fill:none;stroke:#000000;stroke-dasharray:5.55,2.4;stroke-dashoffset:0;stroke-opacity:0.5;stroke-width:1.5;"/>
   </g>
   <g id="line2d_13">
    <path clip-path="url(#p9712d074a6)" d="M 80.902074 121.062858 
L 82.521378 121.080017 
L 97.095113 121.163771 
L 109.239893 121.070612 
L 110.319429 120.6687 
L 111.668849 119.954218 
L 113.558037 118.698961 
L 115.447225 117.171983 
L 116.796645 115.842638 
L 123.813629 107.36378 
L 127.052237 103.345726 
L 139.736784 87.350604 
L 142.435624 84.218521 
L 145.134464 81.393752 
L 146.753768 80.140851 
L 148.642956 78.937453 
L 150.532144 77.967276 
L 153.230984 76.931667 
L 154.850288 76.513157 
L 157.00936 76.232879 
L 158.628664 76.189642 
L 160.517852 76.33325 
L 166.4553 77.189291 
L 168.344488 77.802783 
L 170.773444 78.674517 
L 172.122864 79.445623 
L 174.55182 81.126439 
L 179.409732 84.560601 
L 182.378456 86.613218 
L 184.267644 88.153583 
L 186.156831 89.725515 
L 187.236367 90.282511 
L 188.315903 90.587928 
L 189.665323 90.634185 
L 191.014743 90.395478 
L 192.634047 89.761309 
L 194.253351 88.781109 
L 196.682307 87.207026 
L 197.491959 86.957416 
L 199.111263 86.528237 
L 202.079987 85.429762 
L 204.239059 85.175632 
L 205.588479 84.949472 
L 207.747551 84.409616 
L 209.366855 84.114992 
L 211.795811 84.04461 
L 214.764535 83.976295 
L 216.383839 83.729737 
L 217.463375 83.430409 
L 218.542911 82.921966 
L 219.892331 82.005832 
L 221.781519 80.394693 
L 224.480359 77.740161 
L 226.909315 75.014949 
L 230.957575 70.11906 
L 233.926298 66.011174 
L 239.593862 57.934239 
L 242.562586 54.5639 
L 244.18189 52.902591 
L 246.88073 50.396295 
L 248.500034 49.369307 
L 250.92899 47.977377 
L 252.548294 46.7363 
L 254.167598 45.507016 
L 254.97725 45.108345 
L 256.32667 44.976837 
L 257.67609 45.35869 
L 259.565278 46.325912 
L 264.153306 48.905192 
L 268.741334 50.857523 
L 271.17029 51.506994 
L 273.329362 51.893036 
L 278.457158 52.341877 
L 284.934373 52.786319 
L 295.459849 53.008197 
L 300.047877 52.991169 
L 306.255209 53.015884 
L 309.223933 53.095535 
L 310.573353 53.446424 
L 313.002309 54.135366 
L 316.510801 54.810487 
L 318.669873 55.170154 
L 320.019293 55.183813 
L 327.036276 54.260718 
L 328.925464 54.098351 
L 330.274884 53.627171 
L 331.624304 52.880461 
L 333.513492 51.479127 
L 335.672564 49.514047 
L 338.641288 46.453581 
L 351.59572 32.419299 
L 354.024676 30.190073 
L 356.183748 28.466466 
L 358.072936 27.20243 
L 359.69224 26.342363 
L 361.581428 25.546763 
L 363.7405 24.587324 
L 365.899572 23.482446 
L 367.518876 23.04586 
L 369.947832 22.613706 
L 374.535859 22.501008 
L 384.521567 22.783598 
L 391.808435 23.188082 
L 399.095303 23.494309 
L 400.714607 23.167103 
L 402.333911 22.794146 
L 402.333911 22.794146 
" style="fill:none;stroke:#4c72b0;stroke-linecap:round;stroke-opacity:0.75;stroke-width:1.5;"/>
   </g>
   <g id="patch_3">
    <path d="M 63.09 126.446049 
L 63.09 12.96 
" style="fill:none;stroke:#ffffff;stroke-linecap:square;stroke-linejoin:miter;stroke-width:1.25;"/>
   </g>
   <g id="patch_4">
    <path d="M 419.04 126.446049 
L 419.04 12.96 
" style="fill:none;stroke:#ffffff;stroke-linecap:square;stroke-linejoin:miter;stroke-width:1.25;"/>
   </g>
   <g id="patch_5">
    <path d="M 63.09 126.446049 
L 419.04 126.446049 
" style="fill:none;stroke:#ffffff;stroke-linecap:square;stroke-linejoin:miter;stroke-width:1.25;"/>
   </g>
   <g id="patch_6">
    <path d="M 63.09 12.96 
L 419.04 12.96 
" style="fill:none;stroke:#ffffff;stroke-linecap:square;stroke-linejoin:miter;stroke-width:1.25;"/>
   </g>
   <g id="legend_1">
    <g id="patch_7">
     <path d="M 232.311562 120.946049 
L 411.34 120.946049 
Q 413.54 120.946049 413.54 118.746049 
L 413.54 86.942299 
Q 413.54 84.742299 411.34 84.742299 
L 232.311562 84.742299 
Q 230.111562 84.742299 230.111562 86.942299 
L 230.111562 118.746049 
Q 230.111562 120.946049 232.311562 120.946049 
z
" style="fill:#eaeaf2;opacity:0.8;stroke:#cccccc;stroke-linejoin:miter;"/>
    </g>
    <g id="line2d_14">
     <path d="M 234.511562 93.65058 
L 256.511562 93.65058 
" style="fill:none;stroke:#000000;stroke-dasharray:5.55,2.4;stroke-dashoffset:0;stroke-opacity:0.5;stroke-width:1.5;"/>
    </g>
    <g id="line2d_15"/>
    <g id="text_7">
     <!-- /tf:world.base_link_gt -->
     <g style="fill:#262626;" transform="translate(265.311562 97.50058)scale(0.11 -0.11)">
      <defs>
       <path d="M 25.390625 72.90625 
L 33.6875 72.90625 
L 8.296875 -9.28125 
L 0 -9.28125 
z
" id="DejaVuSans-47"/>
       <path d="M 18.3125 70.21875 
L 18.3125 54.6875 
L 36.8125 54.6875 
L 36.8125 47.703125 
L 18.3125 47.703125 
L 18.3125 18.015625 
Q 18.3125 11.328125 20.140625 9.421875 
Q 21.96875 7.515625 27.59375 7.515625 
L 36.8125 7.515625 
L 36.8125 0 
L 27.59375 0 
Q 17.1875 0 13.234375 3.875 
Q 9.28125 7.765625 9.28125 18.015625 
L 9.28125 47.703125 
L 2.6875 47.703125 
L 2.6875 54.6875 
L 9.28125 54.6875 
L 9.28125 70.21875 
z
" id="DejaVuSans-116"/>
       <path d="M 37.109375 75.984375 
L 37.109375 68.5 
L 28.515625 68.5 
Q 23.6875 68.5 21.796875 66.546875 
Q 19.921875 64.59375 19.921875 59.515625 
L 19.921875 54.6875 
L 34.71875 54.6875 
L 34.71875 47.703125 
L 19.921875 47.703125 
L 19.921875 0 
L 10.890625 0 
L 10.890625 47.703125 
L 2.296875 47.703125 
L 2.296875 54.6875 
L 10.890625 54.6875 
L 10.890625 58.5 
Q 10.890625 67.625 15.140625 71.796875 
Q 19.390625 75.984375 28.609375 75.984375 
z
" id="DejaVuSans-102"/>
       <path d="M 11.71875 12.40625 
L 22.015625 12.40625 
L 22.015625 0 
L 11.71875 0 
z
M 11.71875 51.703125 
L 22.015625 51.703125 
L 22.015625 39.3125 
L 11.71875 39.3125 
z
" id="DejaVuSans-58"/>
       <path d="M 4.203125 54.6875 
L 13.1875 54.6875 
L 24.421875 12.015625 
L 35.59375 54.6875 
L 46.1875 54.6875 
L 57.421875 12.015625 
L 68.609375 54.6875 
L 77.59375 54.6875 
L 63.28125 0 
L 52.6875 0 
L 40.921875 44.828125 
L 29.109375 0 
L 18.5 0 
z
" id="DejaVuSans-119"/>
       <path d="M 30.609375 48.390625 
Q 23.390625 48.390625 19.1875 42.75 
Q 14.984375 37.109375 14.984375 27.296875 
Q 14.984375 17.484375 19.15625 11.84375 
Q 23.34375 6.203125 30.609375 6.203125 
Q 37.796875 6.203125 41.984375 11.859375 
Q 46.1875 17.53125 46.1875 27.296875 
Q 46.1875 37.015625 41.984375 42.703125 
Q 37.796875 48.390625 30.609375 48.390625 
z
M 30.609375 56 
Q 42.328125 56 49.015625 48.375 
Q 55.71875 40.765625 55.71875 27.296875 
Q 55.71875 13.875 49.015625 6.21875 
Q 42.328125 -1.421875 30.609375 -1.421875 
Q 18.84375 -1.421875 12.171875 6.21875 
Q 5.515625 13.875 5.515625 27.296875 
Q 5.515625 40.765625 12.171875 48.375 
Q 18.84375 56 30.609375 56 
z
" id="DejaVuSans-111"/>
       <path d="M 41.109375 46.296875 
Q 39.59375 47.171875 37.8125 47.578125 
Q 36.03125 48 33.890625 48 
Q 26.265625 48 22.1875 43.046875 
Q 18.109375 38.09375 18.109375 28.8125 
L 18.109375 0 
L 9.078125 0 
L 9.078125 54.6875 
L 18.109375 54.6875 
L 18.109375 46.1875 
Q 20.953125 51.171875 25.484375 53.578125 
Q 30.03125 56 36.53125 56 
Q 37.453125 56 38.578125 55.875 
Q 39.703125 55.765625 41.0625 55.515625 
z
" id="DejaVuSans-114"/>
       <path d="M 9.421875 75.984375 
L 18.40625 75.984375 
L 18.40625 0 
L 9.421875 0 
z
" id="DejaVuSans-108"/>
       <path d="M 45.40625 46.390625 
L 45.40625 75.984375 
L 54.390625 75.984375 
L 54.390625 0 
L 45.40625 0 
L 45.40625 8.203125 
Q 42.578125 3.328125 38.25 0.953125 
Q 33.9375 -1.421875 27.875 -1.421875 
Q 17.96875 -1.421875 11.734375 6.484375 
Q 5.515625 14.40625 5.515625 27.296875 
Q 5.515625 40.1875 11.734375 48.09375 
Q 17.96875 56 27.875 56 
Q 33.9375 56 38.25 53.625 
Q 42.578125 51.265625 45.40625 46.390625 
z
M 14.796875 27.296875 
Q 14.796875 17.390625 18.875 11.75 
Q 22.953125 6.109375 30.078125 6.109375 
Q 37.203125 6.109375 41.296875 11.75 
Q 45.40625 17.390625 45.40625 27.296875 
Q 45.40625 37.203125 41.296875 42.84375 
Q 37.203125 48.484375 30.078125 48.484375 
Q 22.953125 48.484375 18.875 42.84375 
Q 14.796875 37.203125 14.796875 27.296875 
z
" id="DejaVuSans-100"/>
       <path d="M 10.6875 12.40625 
L 21 12.40625 
L 21 0 
L 10.6875 0 
z
" id="DejaVuSans-46"/>
       <path d="M 48.6875 27.296875 
Q 48.6875 37.203125 44.609375 42.84375 
Q 40.53125 48.484375 33.40625 48.484375 
Q 26.265625 48.484375 22.1875 42.84375 
Q 18.109375 37.203125 18.109375 27.296875 
Q 18.109375 17.390625 22.1875 11.75 
Q 26.265625 6.109375 33.40625 6.109375 
Q 40.53125 6.109375 44.609375 11.75 
Q 48.6875 17.390625 48.6875 27.296875 
z
M 18.109375 46.390625 
Q 20.953125 51.265625 25.265625 53.625 
Q 29.59375 56 35.59375 56 
Q 45.5625 56 51.78125 48.09375 
Q 58.015625 40.1875 58.015625 27.296875 
Q 58.015625 14.40625 51.78125 6.484375 
Q 45.5625 -1.421875 35.59375 -1.421875 
Q 29.59375 -1.421875 25.265625 0.953125 
Q 20.953125 3.328125 18.109375 8.203125 
L 18.109375 0 
L 9.078125 0 
L 9.078125 75.984375 
L 18.109375 75.984375 
z
" id="DejaVuSans-98"/>
       <path d="M 34.28125 27.484375 
Q 23.390625 27.484375 19.1875 25 
Q 14.984375 22.515625 14.984375 16.5 
Q 14.984375 11.71875 18.140625 8.90625 
Q 21.296875 6.109375 26.703125 6.109375 
Q 34.1875 6.109375 38.703125 11.40625 
Q 43.21875 16.703125 43.21875 25.484375 
L 43.21875 27.484375 
z
M 52.203125 31.203125 
L 52.203125 0 
L 43.21875 0 
L 43.21875 8.296875 
Q 40.140625 3.328125 35.546875 0.953125 
Q 30.953125 -1.421875 24.3125 -1.421875 
Q 15.921875 -1.421875 10.953125 3.296875 
Q 6 8.015625 6 15.921875 
Q 6 25.140625 12.171875 29.828125 
Q 18.359375 34.515625 30.609375 34.515625 
L 43.21875 34.515625 
L 43.21875 35.40625 
Q 43.21875 41.609375 39.140625 45 
Q 35.0625 48.390625 27.6875 48.390625 
Q 23 48.390625 18.546875 47.265625 
Q 14.109375 46.140625 10.015625 43.890625 
L 10.015625 52.203125 
Q 14.9375 54.109375 19.578125 55.046875 
Q 24.21875 56 28.609375 56 
Q 40.484375 56 46.34375 49.84375 
Q 52.203125 43.703125 52.203125 31.203125 
z
" id="DejaVuSans-97"/>
       <path d="M 44.28125 53.078125 
L 44.28125 44.578125 
Q 40.484375 46.53125 36.375 47.5 
Q 32.28125 48.484375 27.875 48.484375 
Q 21.1875 48.484375 17.84375 46.4375 
Q 14.5 44.390625 14.5 40.28125 
Q 14.5 37.15625 16.890625 35.375 
Q 19.28125 33.59375 26.515625 31.984375 
L 29.59375 31.296875 
Q 39.15625 29.25 43.1875 25.515625 
Q 47.21875 21.78125 47.21875 15.09375 
Q 47.21875 7.46875 41.1875 3.015625 
Q 35.15625 -1.421875 24.609375 -1.421875 
Q 20.21875 -1.421875 15.453125 -0.5625 
Q 10.6875 0.296875 5.421875 2 
L 5.421875 11.28125 
Q 10.40625 8.6875 15.234375 7.390625 
Q 20.0625 6.109375 24.8125 6.109375 
Q 31.15625 6.109375 34.5625 8.28125 
Q 37.984375 10.453125 37.984375 14.40625 
Q 37.984375 18.0625 35.515625 20.015625 
Q 33.0625 21.96875 24.703125 23.78125 
L 21.578125 24.515625 
Q 13.234375 26.265625 9.515625 29.90625 
Q 5.8125 33.546875 5.8125 39.890625 
Q 5.8125 47.609375 11.28125 51.796875 
Q 16.75 56 26.8125 56 
Q 31.78125 56 36.171875 55.265625 
Q 40.578125 54.546875 44.28125 53.078125 
z
" id="DejaVuSans-115"/>
       <path d="M 56.203125 29.59375 
L 56.203125 25.203125 
L 14.890625 25.203125 
Q 15.484375 15.921875 20.484375 11.0625 
Q 25.484375 6.203125 34.421875 6.203125 
Q 39.59375 6.203125 44.453125 7.46875 
Q 49.3125 8.734375 54.109375 11.28125 
L 54.109375 2.78125 
Q 49.265625 0.734375 44.1875 -0.34375 
Q 39.109375 -1.421875 33.890625 -1.421875 
Q 20.796875 -1.421875 13.15625 6.1875 
Q 5.515625 13.8125 5.515625 26.8125 
Q 5.515625 40.234375 12.765625 48.109375 
Q 20.015625 56 32.328125 56 
Q 43.359375 56 49.78125 48.890625 
Q 56.203125 41.796875 56.203125 29.59375 
z
M 47.21875 32.234375 
Q 47.125 39.59375 43.09375 43.984375 
Q 39.0625 48.390625 32.421875 48.390625 
Q 24.90625 48.390625 20.390625 44.140625 
Q 15.875 39.890625 15.1875 32.171875 
z
" id="DejaVuSans-101"/>
       <path d="M 50.984375 -16.609375 
L 50.984375 -23.578125 
L -0.984375 -23.578125 
L -0.984375 -16.609375 
z
" id="DejaVuSans-95"/>
       <path d="M 9.421875 54.6875 
L 18.40625 54.6875 
L 18.40625 0 
L 9.421875 0 
z
M 9.421875 75.984375 
L 18.40625 75.984375 
L 18.40625 64.59375 
L 9.421875 64.59375 
z
" id="DejaVuSans-105"/>
       <path d="M 54.890625 33.015625 
L 54.890625 0 
L 45.90625 0 
L 45.90625 32.71875 
Q 45.90625 40.484375 42.875 44.328125 
Q 39.84375 48.1875 33.796875 48.1875 
Q 26.515625 48.1875 22.3125 43.546875 
Q 18.109375 38.921875 18.109375 30.90625 
L 18.109375 0 
L 9.078125 0 
L 9.078125 54.6875 
L 18.109375 54.6875 
L 18.109375 46.1875 
Q 21.34375 51.125 25.703125 53.5625 
Q 30.078125 56 35.796875 56 
Q 45.21875 56 50.046875 50.171875 
Q 54.890625 44.34375 54.890625 33.015625 
z
" id="DejaVuSans-110"/>
       <path d="M 9.078125 75.984375 
L 18.109375 75.984375 
L 18.109375 31.109375 
L 44.921875 54.6875 
L 56.390625 54.6875 
L 27.390625 29.109375 
L 57.625 0 
L 45.90625 0 
L 18.109375 26.703125 
L 18.109375 0 
L 9.078125 0 
z
" id="DejaVuSans-107"/>
       <path d="M 45.40625 27.984375 
Q 45.40625 37.75 41.375 43.109375 
Q 37.359375 48.484375 30.078125 48.484375 
Q 22.859375 48.484375 18.828125 43.109375 
Q 14.796875 37.75 14.796875 27.984375 
Q 14.796875 18.265625 18.828125 12.890625 
Q 22.859375 7.515625 30.078125 7.515625 
Q 37.359375 7.515625 41.375 12.890625 
Q 45.40625 18.265625 45.40625 27.984375 
z
M 54.390625 6.78125 
Q 54.390625 -7.171875 48.1875 -13.984375 
Q 42 -20.796875 29.203125 -20.796875 
Q 24.46875 -20.796875 20.265625 -20.09375 
Q 16.0625 -19.390625 12.109375 -17.921875 
L 12.109375 -9.1875 
Q 16.0625 -11.328125 19.921875 -12.34375 
Q 23.78125 -13.375 27.78125 -13.375 
Q 36.625 -13.375 41.015625 -8.765625 
Q 45.40625 -4.15625 45.40625 5.171875 
L 45.40625 9.625 
Q 42.625 4.78125 38.28125 2.390625 
Q 33.9375 0 27.875 0 
Q 17.828125 0 11.671875 7.65625 
Q 5.515625 15.328125 5.515625 27.984375 
Q 5.515625 40.671875 11.671875 48.328125 
Q 17.828125 56 27.875 56 
Q 33.9375 56 38.28125 53.609375 
Q 42.625 51.21875 45.40625 46.390625 
L 45.40625 54.6875 
L 54.390625 54.6875 
z
" id="DejaVuSans-103"/>
      </defs>
      <use xlink:href="#DejaVuSans-47"/>
      <use x="33.691406" xlink:href="#DejaVuSans-116"/>
      <use x="72.900391" xlink:href="#DejaVuSans-102"/>
      <use x="104.480469" xlink:href="#DejaVuSans-58"/>
      <use x="138.171875" xlink:href="#DejaVuSans-119"/>
      <use x="219.958984" xlink:href="#DejaVuSans-111"/>
      <use x="281.140625" xlink:href="#DejaVuSans-114"/>
      <use x="322.253906" xlink:href="#DejaVuSans-108"/>
      <use x="350.037109" xlink:href="#DejaVuSans-100"/>
      <use x="413.513672" xlink:href="#DejaVuSans-46"/>
      <use x="445.300781" xlink:href="#DejaVuSans-98"/>
      <use x="508.777344" xlink:href="#DejaVuSans-97"/>
      <use x="570.056641" xlink:href="#DejaVuSans-115"/>
      <use x="622.15625" xlink:href="#DejaVuSans-101"/>
      <use x="683.679688" xlink:href="#DejaVuSans-95"/>
      <use x="733.679688" xlink:href="#DejaVuSans-108"/>
      <use x="761.462891" xlink:href="#DejaVuSans-105"/>
      <use x="789.246094" xlink:href="#DejaVuSans-110"/>
      <use x="852.625" xlink:href="#DejaVuSans-107"/>
      <use x="910.535156" xlink:href="#DejaVuSans-95"/>
      <use x="960.535156" xlink:href="#DejaVuSans-103"/>
      <use x="1024.011719" xlink:href="#DejaVuSans-116"/>
     </g>
    </g>
    <g id="line2d_16">
     <path d="M 234.511562 110.102455 
L 256.511562 110.102455 
" style="fill:none;stroke:#4c72b0;stroke-linecap:round;stroke-opacity:0.75;stroke-width:1.5;"/>
    </g>
    <g id="line2d_17"/>
    <g id="text_8">
     <!-- /tf:world.base_link_kimera -->
     <g style="fill:#262626;" transform="translate(265.311562 113.952455)scale(0.11 -0.11)">
      <use xlink:href="#DejaVuSans-47"/>
      <use x="33.691406" xlink:href="#DejaVuSans-116"/>
      <use x="72.900391" xlink:href="#DejaVuSans-102"/>
      <use x="104.480469" xlink:href="#DejaVuSans-58"/>
      <use x="138.171875" xlink:href="#DejaVuSans-119"/>
      <use x="219.958984" xlink:href="#DejaVuSans-111"/>
      <use x="281.140625" xlink:href="#DejaVuSans-114"/>
      <use x="322.253906" xlink:href="#DejaVuSans-108"/>
      <use x="350.037109" xlink:href="#DejaVuSans-100"/>
      <use x="413.513672" xlink:href="#DejaVuSans-46"/>
      <use x="445.300781" xlink:href="#DejaVuSans-98"/>
      <use x="508.777344" xlink:href="#DejaVuSans-97"/>
      <use x="570.056641" xlink:href="#DejaVuSans-115"/>
      <use x="622.15625" xlink:href="#DejaVuSans-101"/>
      <use x="683.679688" xlink:href="#DejaVuSans-95"/>
      <use x="733.679688" xlink:href="#DejaVuSans-108"/>
      <use x="761.462891" xlink:href="#DejaVuSans-105"/>
      <use x="789.246094" xlink:href="#DejaVuSans-110"/>
      <use x="852.625" xlink:href="#DejaVuSans-107"/>
      <use x="910.535156" xlink:href="#DejaVuSans-95"/>
      <use x="960.535156" xlink:href="#DejaVuSans-107"/>
      <use x="1018.445312" xlink:href="#DejaVuSans-105"/>
      <use x="1046.228516" xlink:href="#DejaVuSans-109"/>
      <use x="1143.640625" xlink:href="#DejaVuSans-101"/>
      <use x="1205.164062" xlink:href="#DejaVuSans-114"/>
      <use x="1246.277344" xlink:href="#DejaVuSans-97"/>
     </g>
    </g>
   </g>
  </g>
  <g id="axes_2">
   <g id="patch_8">
    <path d="M 63.09 254.653024 
L 419.04 254.653024 
L 419.04 141.166976 
L 63.09 141.166976 
z
" style="fill:#eaeaf2;"/>
   </g>
   <g id="matplotlib.axis_3">
    <g id="xtick_7">
     <g id="line2d_18">
      <path clip-path="url(#pd3ee6a0229)" d="M 102.074743 254.653024 
L 102.074743 141.166976 
" style="fill:none;stroke:#ffffff;stroke-linecap:round;"/>
     </g>
    </g>
    <g id="xtick_8">
     <g id="line2d_19">
      <path clip-path="url(#pd3ee6a0229)" d="M 156.051542 254.653024 
L 156.051542 141.166976 
" style="fill:none;stroke:#ffffff;stroke-linecap:round;"/>
     </g>
    </g>
    <g id="xtick_9">
     <g id="line2d_20">
      <path clip-path="url(#pd3ee6a0229)" d="M 210.028341 254.653024 
L 210.028341 141.166976 
" style="fill:none;stroke:#ffffff;stroke-linecap:round;"/>
     </g>
    </g>
    <g id="xtick_10">
     <g id="line2d_21">
      <path clip-path="url(#pd3ee6a0229)" d="M 264.00514 254.653024 
L 264.00514 141.166976 
" style="fill:none;stroke:#ffffff;stroke-linecap:round;"/>
     </g>
    </g>
    <g id="xtick_11">
     <g id="line2d_22">
      <path clip-path="url(#pd3ee6a0229)" d="M 317.981938 254.653024 
L 317.981938 141.166976 
" style="fill:none;stroke:#ffffff;stroke-linecap:round;"/>
     </g>
    </g>
    <g id="xtick_12">
     <g id="line2d_23">
      <path clip-path="url(#pd3ee6a0229)" d="M 371.958737 254.653024 
L 371.958737 141.166976 
" style="fill:none;stroke:#ffffff;stroke-linecap:round;"/>
     </g>
    </g>
   </g>
   <g id="matplotlib.axis_4">
    <g id="ytick_6">
     <g id="line2d_24">
      <path clip-path="url(#pd3ee6a0229)" d="M 63.09 249.917496 
L 419.04 249.917496 
" style="fill:none;stroke:#ffffff;stroke-linecap:round;"/>
     </g>
     <g id="text_9">
      <!-- 10 -->
      <g style="fill:#262626;" transform="translate(39.5925 254.096637)scale(0.11 -0.11)">
       <use xlink:href="#DejaVuSans-49"/>
       <use x="63.623047" xlink:href="#DejaVuSans-48"/>
      </g>
     </g>
    </g>
    <g id="ytick_7">
     <g id="line2d_25">
      <path clip-path="url(#pd3ee6a0229)" d="M 63.09 212.759863 
L 419.04 212.759863 
" style="fill:none;stroke:#ffffff;stroke-linecap:round;"/>
     </g>
     <g id="text_10">
      <!-- 20 -->
      <g style="fill:#262626;" transform="translate(39.5925 216.939003)scale(0.11 -0.11)">
       <use xlink:href="#DejaVuSans-50"/>
       <use x="63.623047" xlink:href="#DejaVuSans-48"/>
      </g>
     </g>
    </g>
    <g id="ytick_8">
     <g id="line2d_26">
      <path clip-path="url(#pd3ee6a0229)" d="M 63.09 175.602229 
L 419.04 175.602229 
" style="fill:none;stroke:#ffffff;stroke-linecap:round;"/>
     </g>
     <g id="text_11">
      <!-- 30 -->
      <g style="fill:#262626;" transform="translate(39.5925 179.78137)scale(0.11 -0.11)">
       <defs>
        <path d="M 40.578125 39.3125 
Q 47.65625 37.796875 51.625 33 
Q 55.609375 28.21875 55.609375 21.1875 
Q 55.609375 10.40625 48.1875 4.484375 
Q 40.765625 -1.421875 27.09375 -1.421875 
Q 22.515625 -1.421875 17.65625 -0.515625 
Q 12.796875 0.390625 7.625 2.203125 
L 7.625 11.71875 
Q 11.71875 9.328125 16.59375 8.109375 
Q 21.484375 6.890625 26.8125 6.890625 
Q 36.078125 6.890625 40.9375 10.546875 
Q 45.796875 14.203125 45.796875 21.1875 
Q 45.796875 27.640625 41.28125 31.265625 
Q 36.765625 34.90625 28.71875 34.90625 
L 20.21875 34.90625 
L 20.21875 43.015625 
L 29.109375 43.015625 
Q 36.375 43.015625 40.234375 45.921875 
Q 44.09375 48.828125 44.09375 54.296875 
Q 44.09375 59.90625 40.109375 62.90625 
Q 36.140625 65.921875 28.71875 65.921875 
Q 24.65625 65.921875 20.015625 65.03125 
Q 15.375 64.15625 9.8125 62.3125 
L 9.8125 71.09375 
Q 15.4375 72.65625 20.34375 73.4375 
Q 25.25 74.21875 29.59375 74.21875 
Q 40.828125 74.21875 47.359375 69.109375 
Q 53.90625 64.015625 53.90625 55.328125 
Q 53.90625 49.265625 50.4375 45.09375 
Q 46.96875 40.921875 40.578125 39.3125 
z
" id="DejaVuSans-51"/>
       </defs>
       <use xlink:href="#DejaVuSans-51"/>
       <use x="63.623047" xlink:href="#DejaVuSans-48"/>
      </g>
     </g>
    </g>
    <g id="text_12">
     <!-- $y$ (m) -->
     <g style="fill:#262626;" transform="translate(33.0725 213.93)rotate(-90)scale(0.12 -0.12)">
      <defs>
       <path d="M 24.8125 -5.078125 
Q 18.5625 -15.578125 14.625 -18.1875 
Q 10.6875 -20.796875 4.59375 -20.796875 
L -2.484375 -20.796875 
L -0.984375 -13.28125 
L 4.203125 -13.28125 
Q 7.953125 -13.28125 10.59375 -11.234375 
Q 13.234375 -9.1875 16.5 -3.21875 
L 19.28125 2 
L 7.171875 54.6875 
L 16.703125 54.6875 
L 25.78125 12.796875 
L 50.875 54.6875 
L 60.296875 54.6875 
z
" id="DejaVuSans-Oblique-121"/>
      </defs>
      <use transform="translate(0 0.125)" xlink:href="#DejaVuSans-Oblique-121"/>
      <use transform="translate(59.179688 0.125)" xlink:href="#DejaVuSans-32"/>
      <use transform="translate(90.966797 0.125)" xlink:href="#DejaVuSans-40"/>
      <use transform="translate(129.980469 0.125)" xlink:href="#DejaVuSans-109"/>
      <use transform="translate(227.392578 0.125)" xlink:href="#DejaVuSans-41"/>
     </g>
    </g>
   </g>
   <g id="line2d_27">
    <path clip-path="url(#pd3ee6a0229)" d="M 79.269545 197.426431 
L 81.158733 197.351372 
L 82.778037 196.999601 
L 84.667225 196.315083 
L 86.826297 195.277419 
L 90.334789 193.48512 
L 91.414325 193.258608 
L 92.763745 193.233452 
L 94.113165 193.435441 
L 95.732469 193.907603 
L 97.621657 194.693747 
L 100.050613 195.96346 
L 103.289221 197.94203 
L 104.638641 198.672586 
L 105.718177 199.006893 
L 106.797713 199.135273 
L 108.686901 199.063968 
L 116.783421 198.777705 
L 137.564488 198.125291 
L 139.72356 197.714848 
L 141.612748 197.143029 
L 143.501936 196.356625 
L 149.439384 193.382751 
L 151.598456 191.870324 
L 154.297296 189.700578 
L 158.345556 186.130622 
L 162.393816 182.58831 
L 164.01312 181.608054 
L 166.442076 180.243961 
L 169.680684 178.335284 
L 173.728943 176.512963 
L 175.618131 175.27357 
L 176.967551 174.414114 
L 178.047087 174.054131 
L 179.126623 173.93779 
L 180.476043 174.055728 
L 182.095347 174.472637 
L 185.333955 175.470505 
L 186.413491 175.504393 
L 187.493027 175.319905 
L 188.842447 174.846963 
L 190.461751 174.014186 
L 192.620823 172.627277 
L 194.779895 171.23394 
L 196.399199 170.416881 
L 197.748619 169.999787 
L 199.637807 169.471628 
L 201.257111 168.803794 
L 203.416183 167.707978 
L 205.575255 166.227915 
L 208.274095 164.123047 
L 210.433167 162.181969 
L 213.132007 159.44531 
L 218.79957 153.502318 
L 219.879106 152.81832 
L 225.006902 150.121196 
L 227.975626 148.424207 
L 229.325046 147.935213 
L 233.373306 146.816285 
L 235.532378 146.441661 
L 237.421566 146.329111 
L 238.770986 146.484801 
L 240.39029 146.927683 
L 242.549362 147.589721 
L 243.628898 147.70725 
L 245.248202 147.539001 
L 246.597622 147.482558 
L 247.947042 147.727204 
L 251.995302 148.829708 
L 254.154374 148.929105 
L 257.392982 149.009886 
L 259.012286 149.261331 
L 260.63159 149.746461 
L 264.949733 151.469572 
L 266.838921 152.624654 
L 268.458225 153.56452 
L 273.046253 155.895901 
L 275.205325 157.442067 
L 279.253585 160.698525 
L 281.952425 162.813389 
L 283.571729 163.703574 
L 285.460917 164.45624 
L 287.080221 165.172676 
L 288.969409 166.29387 
L 291.128481 167.840817 
L 294.097205 170.268437 
L 298.145465 173.897214 
L 304.352797 179.801302 
L 314.06862 189.052586 
L 315.148156 189.735729 
L 316.497576 190.260878 
L 318.11688 190.88364 
L 319.736184 191.833835 
L 321.895256 193.131789 
L 323.51456 193.843357 
L 325.403748 194.443787 
L 327.832704 194.962731 
L 330.801428 195.351437 
L 337.278644 196.061036 
L 341.05702 196.768072 
L 343.75586 197.510593 
L 346.724584 198.553942 
L 349.423424 199.73574 
L 352.122264 201.163374 
L 354.55122 202.682341 
L 357.25006 204.644412 
L 360.218783 207.085149 
L 363.997159 210.490386 
L 371.014143 217.227176 
L 386.397531 232.359474 
L 392.334979 238.074838 
L 395.573587 240.80284 
L 399.621847 244.513587 
L 402.860455 247.691902 
L 402.860455 247.691902 
" style="fill:none;stroke:#000000;stroke-dasharray:5.55,2.4;stroke-dashoffset:0;stroke-opacity:0.5;stroke-width:1.5;"/>
   </g>
   <g id="line2d_28">
    <path clip-path="url(#pd3ee6a0229)" d="M 80.902074 197.428186 
L 81.711726 197.339597 
L 84.140682 196.715115 
L 86.02987 195.980353 
L 88.188942 194.928567 
L 89.808246 194.157524 
L 91.157666 193.830896 
L 92.237201 193.668424 
L 92.776969 193.309679 
L 94.126389 193.197396 
L 94.936041 193.339609 
L 96.555345 193.929831 
L 98.714417 194.937242 
L 101.413257 196.408868 
L 104.651865 198.266971 
L 105.731401 198.5777 
L 108.430241 198.936076 
L 111.668849 199.154225 
L 114.907457 199.353423 
L 116.796645 199.348638 
L 118.955717 199.033053 
L 126.242585 198.967918 
L 136.498177 198.804458 
L 138.927132 198.520267 
L 141.086204 197.996345 
L 143.245276 197.184323 
L 149.182724 194.35661 
L 151.071912 193.119517 
L 153.230984 191.454205 
L 156.469592 188.677149 
L 162.676924 183.249409 
L 164.835996 182.012729 
L 166.995068 180.712772 
L 169.424024 179.234175 
L 171.313212 178.455946 
L 173.742168 177.292924 
L 175.361472 176.240215 
L 176.980776 175.169449 
L 178.060312 174.797926 
L 179.139848 174.66757 
L 180.489268 174.74883 
L 181.838688 175.034704 
L 185.617063 176.014909 
L 186.966483 175.898998 
L 188.315903 175.500968 
L 190.205091 174.607373 
L 192.094279 173.429182 
L 195.063003 171.552639 
L 196.682307 170.814025 
L 198.301611 170.364539 
L 200.460683 169.682326 
L 203.159523 168.380111 
L 205.048711 167.133709 
L 208.017435 164.912188 
L 210.446391 162.758309 
L 212.875347 160.344334 
L 218.812795 154.178062 
L 219.892331 153.522659 
L 225.290011 150.855136 
L 227.988851 149.388883 
L 229.878039 148.821081 
L 233.656414 147.96753 
L 235.545602 147.750444 
L 237.43479 147.720852 
L 239.054094 148.007853 
L 240.403514 148.477584 
L 242.562586 149.241319 
L 243.372238 149.382291 
L 244.451774 149.372065 
L 246.610846 149.287373 
L 247.690382 149.489688 
L 252.27841 150.766531 
L 256.596554 150.975468 
L 258.755626 151.137548 
L 260.105046 151.451179 
L 263.343654 152.447807 
L 264.693074 153.0492 
L 266.582262 154.121375 
L 268.201566 155.047651 
L 269.82087 155.758115 
L 271.440174 156.494277 
L 273.059478 157.452906 
L 275.21855 158.979745 
L 282.505417 164.584534 
L 284.124721 165.366177 
L 287.633213 166.850325 
L 289.792285 168.203683 
L 291.681473 169.617801 
L 294.110429 171.629546 
L 297.618921 174.835274 
L 313.811961 190.307456 
L 314.891497 191.061595 
L 315.971033 191.527495 
L 318.130105 192.35319 
L 319.749409 193.253542 
L 322.448249 194.825032 
L 324.337437 195.575708 
L 326.766392 196.253876 
L 329.465232 196.709663 
L 338.10152 197.977768 
L 341.610012 198.838981 
L 344.84862 199.948873 
L 347.277576 200.933354 
L 349.976416 202.281146 
L 353.215024 204.199554 
L 355.913864 206.070118 
L 358.882588 208.452879 
L 362.660964 211.792888 
L 366.709224 215.674075 
L 375.615395 224.341582 
L 391.538551 239.859406 
L 396.126579 243.682877 
L 402.333911 249.494568 
L 402.333911 249.494568 
" style="fill:none;stroke:#4c72b0;stroke-linecap:round;stroke-opacity:0.75;stroke-width:1.5;"/>
   </g>
   <g id="patch_9">
    <path d="M 63.09 254.653024 
L 63.09 141.166976 
" style="fill:none;stroke:#ffffff;stroke-linecap:square;stroke-linejoin:miter;stroke-width:1.25;"/>
   </g>
   <g id="patch_10">
    <path d="M 419.04 254.653024 
L 419.04 141.166976 
" style="fill:none;stroke:#ffffff;stroke-linecap:square;stroke-linejoin:miter;stroke-width:1.25;"/>
   </g>
   <g id="patch_11">
    <path d="M 63.09 254.653024 
L 419.04 254.653024 
" style="fill:none;stroke:#ffffff;stroke-linecap:square;stroke-linejoin:miter;stroke-width:1.25;"/>
   </g>
   <g id="patch_12">
    <path d="M 63.09 141.166976 
L 419.04 141.166976 
" style="fill:none;stroke:#ffffff;stroke-linecap:square;stroke-linejoin:miter;stroke-width:1.25;"/>
   </g>
  </g>
  <g id="axes_3">
   <g id="patch_13">
    <path d="M 63.09 382.86 
L 419.04 382.86 
L 419.04 269.373951 
L 63.09 269.373951 
z
" style="fill:#eaeaf2;"/>
   </g>
   <g id="matplotlib.axis_5">
    <g id="xtick_13">
     <g id="line2d_29">
      <path clip-path="url(#p3f514c47a7)" d="M 102.074743 382.86 
L 102.074743 269.373951 
" style="fill:none;stroke:#ffffff;stroke-linecap:round;"/>
     </g>
     <g id="text_13">
      <!-- 20 -->
      <g style="fill:#262626;" transform="translate(95.075993 400.718281)scale(0.11 -0.11)">
       <use xlink:href="#DejaVuSans-50"/>
       <use x="63.623047" xlink:href="#DejaVuSans-48"/>
      </g>
     </g>
    </g>
    <g id="xtick_14">
     <g id="line2d_30">
      <path clip-path="url(#p3f514c47a7)" d="M 156.051542 382.86 
L 156.051542 269.373951 
" style="fill:none;stroke:#ffffff;stroke-linecap:round;"/>
     </g>
     <g id="text_14">
      <!-- 40 -->
      <g style="fill:#262626;" transform="translate(149.052792 400.718281)scale(0.11 -0.11)">
       <defs>
        <path d="M 37.796875 64.3125 
L 12.890625 25.390625 
L 37.796875 25.390625 
z
M 35.203125 72.90625 
L 47.609375 72.90625 
L 47.609375 25.390625 
L 58.015625 25.390625 
L 58.015625 17.1875 
L 47.609375 17.1875 
L 47.609375 0 
L 37.796875 0 
L 37.796875 17.1875 
L 4.890625 17.1875 
L 4.890625 26.703125 
z
" id="DejaVuSans-52"/>
       </defs>
       <use xlink:href="#DejaVuSans-52"/>
       <use x="63.623047" xlink:href="#DejaVuSans-48"/>
      </g>
     </g>
    </g>
    <g id="xtick_15">
     <g id="line2d_31">
      <path clip-path="url(#p3f514c47a7)" d="M 210.028341 382.86 
L 210.028341 269.373951 
" style="fill:none;stroke:#ffffff;stroke-linecap:round;"/>
     </g>
     <g id="text_15">
      <!-- 60 -->
      <g style="fill:#262626;" transform="translate(203.029591 400.718281)scale(0.11 -0.11)">
       <defs>
        <path d="M 33.015625 40.375 
Q 26.375 40.375 22.484375 35.828125 
Q 18.609375 31.296875 18.609375 23.390625 
Q 18.609375 15.53125 22.484375 10.953125 
Q 26.375 6.390625 33.015625 6.390625 
Q 39.65625 6.390625 43.53125 10.953125 
Q 47.40625 15.53125 47.40625 23.390625 
Q 47.40625 31.296875 43.53125 35.828125 
Q 39.65625 40.375 33.015625 40.375 
z
M 52.59375 71.296875 
L 52.59375 62.3125 
Q 48.875 64.0625 45.09375 64.984375 
Q 41.3125 65.921875 37.59375 65.921875 
Q 27.828125 65.921875 22.671875 59.328125 
Q 17.53125 52.734375 16.796875 39.40625 
Q 19.671875 43.65625 24.015625 45.921875 
Q 28.375 48.1875 33.59375 48.1875 
Q 44.578125 48.1875 50.953125 41.515625 
Q 57.328125 34.859375 57.328125 23.390625 
Q 57.328125 12.15625 50.6875 5.359375 
Q 44.046875 -1.421875 33.015625 -1.421875 
Q 20.359375 -1.421875 13.671875 8.265625 
Q 6.984375 17.96875 6.984375 36.375 
Q 6.984375 53.65625 15.1875 63.9375 
Q 23.390625 74.21875 37.203125 74.21875 
Q 40.921875 74.21875 44.703125 73.484375 
Q 48.484375 72.75 52.59375 71.296875 
z
" id="DejaVuSans-54"/>
       </defs>
       <use xlink:href="#DejaVuSans-54"/>
       <use x="63.623047" xlink:href="#DejaVuSans-48"/>
      </g>
     </g>
    </g>
    <g id="xtick_16">
     <g id="line2d_32">
      <path clip-path="url(#p3f514c47a7)" d="M 264.00514 382.86 
L 264.00514 269.373951 
" style="fill:none;stroke:#ffffff;stroke-linecap:round;"/>
     </g>
     <g id="text_16">
      <!-- 80 -->
      <g style="fill:#262626;" transform="translate(257.00639 400.718281)scale(0.11 -0.11)">
       <defs>
        <path d="M 31.78125 34.625 
Q 24.75 34.625 20.71875 30.859375 
Q 16.703125 27.09375 16.703125 20.515625 
Q 16.703125 13.921875 20.71875 10.15625 
Q 24.75 6.390625 31.78125 6.390625 
Q 38.8125 6.390625 42.859375 10.171875 
Q 46.921875 13.96875 46.921875 20.515625 
Q 46.921875 27.09375 42.890625 30.859375 
Q 38.875 34.625 31.78125 34.625 
z
M 21.921875 38.8125 
Q 15.578125 40.375 12.03125 44.71875 
Q 8.5 49.078125 8.5 55.328125 
Q 8.5 64.0625 14.71875 69.140625 
Q 20.953125 74.21875 31.78125 74.21875 
Q 42.671875 74.21875 48.875 69.140625 
Q 55.078125 64.0625 55.078125 55.328125 
Q 55.078125 49.078125 51.53125 44.71875 
Q 48 40.375 41.703125 38.8125 
Q 48.828125 37.15625 52.796875 32.3125 
Q 56.78125 27.484375 56.78125 20.515625 
Q 56.78125 9.90625 50.3125 4.234375 
Q 43.84375 -1.421875 31.78125 -1.421875 
Q 19.734375 -1.421875 13.25 4.234375 
Q 6.78125 9.90625 6.78125 20.515625 
Q 6.78125 27.484375 10.78125 32.3125 
Q 14.796875 37.15625 21.921875 38.8125 
z
M 18.3125 54.390625 
Q 18.3125 48.734375 21.84375 45.5625 
Q 25.390625 42.390625 31.78125 42.390625 
Q 38.140625 42.390625 41.71875 45.5625 
Q 45.3125 48.734375 45.3125 54.390625 
Q 45.3125 60.0625 41.71875 63.234375 
Q 38.140625 66.40625 31.78125 66.40625 
Q 25.390625 66.40625 21.84375 63.234375 
Q 18.3125 60.0625 18.3125 54.390625 
z
" id="DejaVuSans-56"/>
       </defs>
       <use xlink:href="#DejaVuSans-56"/>
       <use x="63.623047" xlink:href="#DejaVuSans-48"/>
      </g>
     </g>
    </g>
    <g id="xtick_17">
     <g id="line2d_33">
      <path clip-path="url(#p3f514c47a7)" d="M 317.981938 382.86 
L 317.981938 269.373951 
" style="fill:none;stroke:#ffffff;stroke-linecap:round;"/>
     </g>
     <g id="text_17">
      <!-- 100 -->
      <g style="fill:#262626;" transform="translate(307.483813 400.718281)scale(0.11 -0.11)">
       <use xlink:href="#DejaVuSans-49"/>
       <use x="63.623047" xlink:href="#DejaVuSans-48"/>
       <use x="127.246094" xlink:href="#DejaVuSans-48"/>
      </g>
     </g>
    </g>
    <g id="xtick_18">
     <g id="line2d_34">
      <path clip-path="url(#p3f514c47a7)" d="M 371.958737 382.86 
L 371.958737 269.373951 
" style="fill:none;stroke:#ffffff;stroke-linecap:round;"/>
     </g>
     <g id="text_18">
      <!-- 120 -->
      <g style="fill:#262626;" transform="translate(361.460612 400.718281)scale(0.11 -0.11)">
       <use xlink:href="#DejaVuSans-49"/>
       <use x="63.623047" xlink:href="#DejaVuSans-50"/>
       <use x="127.246094" xlink:href="#DejaVuSans-48"/>
      </g>
     </g>
    </g>
    <g id="text_19">
     <!-- $t$ (s) -->
     <g style="fill:#262626;" transform="translate(228.945 416.124063)scale(0.12 -0.12)">
      <defs>
       <path d="M 42.28125 54.6875 
L 40.921875 47.703125 
L 23 47.703125 
L 17.1875 18.015625 
Q 16.890625 16.359375 16.75 15.234375 
Q 16.609375 14.109375 16.609375 13.484375 
Q 16.609375 10.359375 18.484375 8.9375 
Q 20.359375 7.515625 24.515625 7.515625 
L 33.59375 7.515625 
L 32.078125 0 
L 23.484375 0 
Q 15.484375 0 11.546875 3.125 
Q 7.625 6.25 7.625 12.59375 
Q 7.625 13.71875 7.765625 15.0625 
Q 7.90625 16.40625 8.203125 18.015625 
L 14.015625 47.703125 
L 6.390625 47.703125 
L 7.8125 54.6875 
L 15.28125 54.6875 
L 18.3125 70.21875 
L 27.296875 70.21875 
L 24.3125 54.6875 
z
" id="DejaVuSans-Oblique-116"/>
      </defs>
      <use transform="translate(0 0.125)" xlink:href="#DejaVuSans-Oblique-116"/>
      <use transform="translate(39.208984 0.125)" xlink:href="#DejaVuSans-32"/>
      <use transform="translate(70.996094 0.125)" xlink:href="#DejaVuSans-40"/>
      <use transform="translate(110.009766 0.125)" xlink:href="#DejaVuSans-115"/>
      <use transform="translate(162.109375 0.125)" xlink:href="#DejaVuSans-41"/>
     </g>
    </g>
   </g>
   <g id="matplotlib.axis_6">
    <g id="ytick_9">
     <g id="line2d_35">
      <path clip-path="url(#p3f514c47a7)" d="M 63.09 360.79895 
L 419.04 360.79895 
" style="fill:none;stroke:#ffffff;stroke-linecap:round;"/>
     </g>
     <g id="text_20">
      <!-- 2.50 -->
      <g style="fill:#262626;" transform="translate(29.097813 364.978091)scale(0.11 -0.11)">
       <use xlink:href="#DejaVuSans-50"/>
       <use x="63.623047" xlink:href="#DejaVuSans-46"/>
       <use x="95.410156" xlink:href="#DejaVuSans-53"/>
       <use x="159.033203" xlink:href="#DejaVuSans-48"/>
      </g>
     </g>
    </g>
    <g id="ytick_10">
     <g id="line2d_36">
      <path clip-path="url(#p3f514c47a7)" d="M 63.09 336.620652 
L 419.04 336.620652 
" style="fill:none;stroke:#ffffff;stroke-linecap:round;"/>
     </g>
     <g id="text_21">
      <!-- 2.52 -->
      <g style="fill:#262626;" transform="translate(29.097813 340.799793)scale(0.11 -0.11)">
       <use xlink:href="#DejaVuSans-50"/>
       <use x="63.623047" xlink:href="#DejaVuSans-46"/>
       <use x="95.410156" xlink:href="#DejaVuSans-53"/>
       <use x="159.033203" xlink:href="#DejaVuSans-50"/>
      </g>
     </g>
    </g>
    <g id="ytick_11">
     <g id="line2d_37">
      <path clip-path="url(#p3f514c47a7)" d="M 63.09 312.442354 
L 419.04 312.442354 
" style="fill:none;stroke:#ffffff;stroke-linecap:round;"/>
     </g>
     <g id="text_22">
      <!-- 2.54 -->
      <g style="fill:#262626;" transform="translate(29.097813 316.621494)scale(0.11 -0.11)">
       <use xlink:href="#DejaVuSans-50"/>
       <use x="63.623047" xlink:href="#DejaVuSans-46"/>
       <use x="95.410156" xlink:href="#DejaVuSans-53"/>
       <use x="159.033203" xlink:href="#DejaVuSans-52"/>
      </g>
     </g>
    </g>
    <g id="ytick_12">
     <g id="line2d_38">
      <path clip-path="url(#p3f514c47a7)" d="M 63.09 288.264055 
L 419.04 288.264055 
" style="fill:none;stroke:#ffffff;stroke-linecap:round;"/>
     </g>
     <g id="text_23">
      <!-- 2.56 -->
      <g style="fill:#262626;" transform="translate(29.097813 292.443196)scale(0.11 -0.11)">
       <use xlink:href="#DejaVuSans-50"/>
       <use x="63.623047" xlink:href="#DejaVuSans-46"/>
       <use x="95.410156" xlink:href="#DejaVuSans-53"/>
       <use x="159.033203" xlink:href="#DejaVuSans-54"/>
      </g>
     </g>
    </g>
    <g id="text_24">
     <!-- $z$ (m) -->
     <g style="fill:#262626;" transform="translate(22.602187 341.716976)rotate(-90)scale(0.12 -0.12)">
      <defs>
       <path d="M 11.625 54.6875 
L 54.296875 54.6875 
L 52.6875 46.484375 
L 11.53125 7.171875 
L 45.515625 7.171875 
L 44.09375 0 
L -0.296875 0 
L 1.3125 8.203125 
L 42.484375 47.515625 
L 10.203125 47.515625 
z
" id="DejaVuSans-Oblique-122"/>
      </defs>
      <use transform="translate(0 0.125)" xlink:href="#DejaVuSans-Oblique-122"/>
      <use transform="translate(52.490234 0.125)" xlink:href="#DejaVuSans-32"/>
      <use transform="translate(84.277344 0.125)" xlink:href="#DejaVuSans-40"/>
      <use transform="translate(123.291016 0.125)" xlink:href="#DejaVuSans-109"/>
      <use transform="translate(220.703125 0.125)" xlink:href="#DejaVuSans-41"/>
     </g>
    </g>
   </g>
   <g id="line2d_39">
    <path clip-path="url(#p3f514c47a7)" d="M 79.269545 370.21398 
L 79.809313 369.177939 
L 80.618965 366.622293 
L 81.968385 361.167669 
L 83.587689 354.791852 
L 84.667225 351.333146 
L 85.746761 348.659027 
L 86.556413 347.150301 
L 87.366065 346.019965 
L 88.175717 345.209992 
L 88.985369 344.665981 
L 89.795021 344.339574 
L 90.874557 344.160654 
L 92.223977 344.193295 
L 94.922817 344.563223 
L 97.891541 344.916226 
L 100.860265 345.070967 
L 105.178409 345.063714 
L 107.607365 345.002059 
L 108.147133 345.295825 
L 108.956785 346.140857 
L 110.306205 348.069076 
L 112.195393 350.743196 
L 113.544813 352.218072 
L 114.624349 353.081237 
L 115.703885 353.686904 
L 116.783421 354.082219 
L 118.132841 354.349389 
L 120.022029 354.4594 
L 123.530521 354.355434 
L 129.198084 354.206737 
L 138.37414 354.019355 
L 140.263328 353.707455 
L 142.152516 353.175533 
L 144.041704 352.405454 
L 145.12124 351.779236 
L 146.200776 350.680332 
L 147.280312 349.553624 
L 148.629732 348.49945 
L 150.51892 347.32922 
L 151.058688 347.043916 
L 151.328572 347.024574 
L 151.86834 347.382412 
L 152.408108 348.139193 
L 153.21776 349.732543 
L 155.9166 355.48456 
L 156.996136 357.071866 
L 157.805788 357.90239 
L 158.61544 358.474207 
L 159.694976 358.944475 
L 160.774512 359.18384 
L 162.123932 359.460681 
L 164.822772 360.184821 
L 165.632424 359.96359 
L 166.71196 359.353088 
L 168.331264 358.377494 
L 169.140916 358.290452 
L 169.950568 358.196156 
L 170.76022 357.86854 
L 171.839755 357.051314 
L 173.728943 355.470053 
L 174.808479 354.859551 
L 175.618131 354.614142 
L 176.697667 354.511384 
L 177.507319 354.720526 
L 181.015811 356.141001 
L 182.095347 356.219581 
L 183.174883 356.080555 
L 183.714651 355.829101 
L 185.064071 354.962309 
L 185.603839 354.872849 
L 186.143607 355.124304 
L 186.683375 355.707001 
L 187.493027 356.992077 
L 189.382215 360.679268 
L 191.001519 363.625393 
L 192.350939 365.672086 
L 193.700359 367.27269 
L 195.049779 368.519081 
L 195.589547 368.746357 
L 196.129315 368.644808 
L 196.669083 368.09717 
L 197.208851 367.167514 
L 198.288387 365.047077 
L 198.828155 364.469216 
L 199.367923 364.182703 
L 199.907691 364.110168 
L 200.987227 364.082363 
L 201.526995 363.786179 
L 202.336647 362.993131 
L 203.686067 361.727397 
L 204.225835 361.362305 
L 204.765603 361.209981 
L 205.575255 361.25592 
L 206.654791 361.590789 
L 208.274095 362.144472 
L 209.083747 361.972807 
L 210.163283 361.428795 
L 211.782587 360.605524 
L 212.862123 360.322638 
L 213.671775 360.304504 
L 214.751311 360.541451 
L 215.830847 361.049196 
L 216.910383 361.791469 
L 217.720034 362.663097 
L 218.79957 364.339862 
L 220.958642 367.850551 
L 221.768294 368.759655 
L 222.84783 369.599851 
L 223.927366 370.143862 
L 225.54667 370.6371 
L 227.705742 371.054175 
L 229.055162 371.029997 
L 230.134698 371.008237 
L 231.484118 371.231886 
L 237.151682 372.502455 
L 237.69145 372.370684 
L 238.501102 371.919758 
L 239.850522 370.807557 
L 241.199942 369.7014 
L 245.248202 367.476996 
L 246.327738 367.109486 
L 247.13739 366.540087 
L 248.216926 365.493167 
L 249.296462 364.458336 
L 249.83623 364.251611 
L 250.645882 364.261283 
L 251.18565 364.447455 
L 251.995302 365.051913 
L 253.074838 366.033552 
L 253.614606 366.187084 
L 254.154374 366.069819 
L 254.694142 365.604387 
L 255.23391 364.738804 
L 256.043562 362.931476 
L 258.202634 357.613459 
L 259.012286 356.238923 
L 259.821938 355.257284 
L 260.63159 354.625022 
L 261.171358 354.402581 
L 261.711126 354.450938 
L 262.520778 354.89461 
L 271.157065 360.228342 
L 273.316137 361.052822 
L 274.935441 361.454182 
L 276.284861 361.554522 
L 278.443933 361.431213 
L 282.492193 361.096343 
L 287.619989 361.091508 
L 289.779061 361.231742 
L 297.875581 361.842244 
L 300.574421 361.446929 
L 302.193725 361.32241 
L 303.813029 361.460227 
L 305.972101 361.633101 
L 307.861289 361.526717 
L 308.401057 361.446929 
L 308.940825 361.172505 
L 309.750477 360.493095 
L 311.639664 358.747422 
L 312.179432 358.614441 
L 312.7192 358.708736 
L 314.878272 359.583991 
L 315.687924 359.50662 
L 316.497576 359.459472 
L 317.307228 359.570693 
L 318.11688 359.881384 
L 319.196416 360.562003 
L 320.006068 361.259547 
L 320.81572 362.144472 
L 321.085604 362.238768 
L 321.355488 362.160188 
L 321.895256 361.577491 
L 322.435024 360.572883 
L 323.51456 357.844362 
L 325.943516 351.335564 
L 327.023052 349.072476 
L 328.102588 347.341309 
L 328.642356 346.833565 
L 329.182124 346.712674 
L 329.721892 346.880713 
L 330.531544 347.503304 
L 331.61108 348.702548 
L 334.040036 351.491514 
L 335.389456 352.625476 
L 336.468992 353.26741 
L 337.818412 353.775155 
L 339.167832 354.043534 
L 340.787136 354.122113 
L 342.676324 353.961327 
L 347.534236 353.228725 
L 349.693308 352.834619 
L 350.233076 353.232352 
L 350.772844 354.031445 
L 351.582496 355.680404 
L 354.281336 361.575074 
L 355.360872 363.211944 
L 356.170524 364.058185 
L 356.980176 364.590107 
L 357.789828 364.851233 
L 358.329595 364.856069 
L 358.599479 364.662642 
L 359.139247 363.868385 
L 359.948899 361.954673 
L 361.298319 357.829855 
L 362.107971 355.455546 
L 362.917623 353.656681 
L 363.727275 352.352262 
L 364.806811 351.157854 
L 366.426115 349.136548 
L 368.315303 346.852908 
L 369.394839 345.819286 
L 370.474375 345.073385 
L 371.553911 344.610371 
L 372.633447 344.373423 
L 373.982867 344.293635 
L 376.141939 344.418153 
L 382.079387 344.825557 
L 389.366255 344.933151 
L 389.906023 345.454193 
L 390.445791 346.381431 
L 391.255443 348.239533 
L 393.684399 354.216408 
L 394.224167 354.673378 
L 394.763935 354.673378 
L 395.303703 354.334882 
L 396.113355 353.405227 
L 397.462775 351.335564 
L 398.542311 349.818376 
L 399.351963 349.221172 
L 400.161615 348.940704 
L 401.780919 348.611879 
L 402.590571 347.989288 
L 402.860455 347.717282 
L 402.860455 347.717282 
" style="fill:none;stroke:#000000;stroke-dasharray:5.55,2.4;stroke-dashoffset:0;stroke-opacity:0.5;stroke-width:1.5;"/>
   </g>
   <g id="line2d_40">
    <path clip-path="url(#p3f514c47a7)" d="M 80.902074 369.739714 
L 81.441842 368.868087 
L 81.711726 368.548108 
L 81.98161 367.843596 
L 82.521378 365.666013 
L 83.33103 361.360528 
L 84.140682 359.981489 
L 84.950334 358.815695 
L 85.490102 358.6848 
L 85.759986 358.237702 
L 86.299754 356.581189 
L 87.109406 359.435225 
L 87.649174 360.540252 
L 88.458826 359.450586 
L 88.998594 358.32619 
L 89.808246 358.061214 
L 90.348014 358.032573 
L 91.157666 357.310439 
L 91.42755 356.978866 
L 91.697434 356.996031 
L 92.237201 357.541857 
L 92.507085 357.536789 
L 92.776969 357.003174 
L 93.316737 354.879953 
L 93.856505 355.33314 
L 94.126389 354.660046 
L 94.396273 353.087986 
L 95.205925 345.195473 
L 95.745693 344.898092 
L 96.015577 344.859844 
L 96.285461 344.948388 
L 96.825229 345.378893 
L 97.364997 346.22899 
L 98.174649 346.27967 
L 98.714417 346.486721 
L 99.254185 345.153125 
L 99.524069 344.897155 
L 99.793953 345.051685 
L 100.333721 345.800164 
L 100.873489 346.560813 
L 101.143373 346.684011 
L 101.683141 346.565845 
L 103.032561 347.141953 
L 103.572329 347.361765 
L 104.112097 347.452302 
L 105.191633 347.219994 
L 106.001285 347.375303 
L 106.541053 347.075844 
L 106.810937 347.021351 
L 107.080821 348.673316 
L 107.620589 355.387105 
L 108.160357 358.801848 
L 108.700125 359.4609 
L 108.970009 359.614092 
L 110.049545 359.465681 
L 110.319429 359.110809 
L 110.589313 358.452508 
L 110.859197 358.152682 
L 111.129081 358.211046 
L 111.398965 357.779609 
L 113.018269 352.165552 
L 113.558037 348.103536 
L 114.367689 338.781691 
L 114.907457 336.439165 
L 115.447225 332.723457 
L 115.717109 331.8978 
L 115.986993 332.103514 
L 116.256877 333.596238 
L 116.796645 340.095245 
L 117.066529 344.756387 
L 117.336413 347.0315 
L 117.606297 346.922494 
L 117.876181 345.907796 
L 119.225601 336.96454 
L 119.765369 334.793164 
L 121.654557 325.840049 
L 122.194325 324.454175 
L 122.734093 322.679957 
L 124.083513 319.815005 
L 124.353397 319.166234 
L 126.512469 307.98268 
L 126.782353 307.558745 
L 127.322121 305.892241 
L 128.671541 301.97368 
L 129.481193 298.97625 
L 130.020961 297.220474 
L 130.560729 295.065909 
L 131.100497 292.238686 
L 132.180033 288.989934 
L 133.259569 284.422836 
L 133.799337 281.836586 
L 134.069221 281.928156 
L 134.608989 285.008194 
L 135.418641 295.67008 
L 135.688525 298.5713 
L 137.577713 350.127516 
L 137.847597 351.086233 
L 138.387365 343.810377 
L 138.927132 344.766308 
L 139.4669 346.455306 
L 139.736784 347.422053 
L 140.276552 350.712049 
L 140.546436 351.5492 
L 141.086204 351.609312 
L 141.625972 353.789606 
L 141.895856 354.069495 
L 142.435624 353.009949 
L 143.245276 349.541071 
L 143.785044 346.14073 
L 144.324812 344.2172 
L 144.594696 343.82402 
L 145.134464 344.173863 
L 145.674232 343.954096 
L 145.944116 343.559268 
L 147.023652 340.733674 
L 147.56342 338.611564 
L 148.373072 335.500728 
L 148.642956 334.838371 
L 149.182724 334.129058 
L 149.452608 333.959918 
L 149.722492 333.976146 
L 149.992376 334.154902 
L 150.532144 334.837151 
L 151.071912 334.961394 
L 151.341796 335.361482 
L 151.881564 336.836748 
L 152.421332 335.271971 
L 152.691216 335.364058 
L 153.500868 338.01882 
L 153.770752 338.499222 
L 154.31052 340.177372 
L 154.850288 342.364309 
L 155.390056 344.34192 
L 155.929824 344.883115 
L 156.469592 344.101008 
L 156.739476 344.137123 
L 157.819012 345.908137 
L 158.088896 346.019048 
L 158.898548 345.55302 
L 159.168432 345.62335 
L 159.438316 345.500719 
L 160.517852 344.352792 
L 160.787736 344.457195 
L 161.327504 345.391148 
L 162.40704 344.510817 
L 162.676924 344.35286 
L 163.486576 344.289165 
L 164.835996 345.449202 
L 165.375764 346.148071 
L 166.185416 345.538019 
L 166.995068 344.505586 
L 167.534836 344.287516 
L 168.074604 343.914249 
L 168.344488 344.042652 
L 168.614372 344.485839 
L 169.15414 346.256731 
L 169.963792 349.137609 
L 170.50356 350.352616 
L 170.773444 350.86673 
L 171.043328 351.102014 
L 172.122864 350.839351 
L 172.932516 349.762896 
L 174.281936 349.328977 
L 175.091588 350.040608 
L 175.361472 350.333241 
L 175.631356 350.45186 
L 176.441008 350.190681 
L 176.710892 350.040032 
L 176.980776 350.127442 
L 177.520544 350.778167 
L 178.330196 353.958805 
L 179.139848 355.470035 
L 179.409732 355.834823 
L 179.679616 355.986644 
L 181.29892 355.517413 
L 181.568804 355.362937 
L 182.378456 355.448452 
L 182.918224 355.755081 
L 183.727876 355.899251 
L 184.267644 356.232914 
L 185.617063 355.17331 
L 186.966483 355.999029 
L 187.236367 356.375488 
L 188.046019 358.294732 
L 188.315903 359.033963 
L 189.125555 362.898099 
L 190.744859 368.245995 
L 191.824395 370.733094 
L 192.364163 372.62806 
L 192.903931 372.362736 
L 193.173815 372.635805 
L 193.983467 374.452485 
L 194.793119 375.643319 
L 195.332887 376.32054 
L 196.142539 377.392746 
L 196.412423 377.701543 
L 197.761843 375.274182 
L 200.460683 368.08531 
L 201.540219 367.217726 
L 201.810103 367.050456 
L 202.349871 365.782548 
L 202.619755 365.500158 
L 203.159523 365.637944 
L 203.429407 365.157416 
L 203.969175 363.09856 
L 205.048711 362.282379 
L 205.318595 362.244225 
L 206.398131 362.636473 
L 206.937899 362.621485 
L 207.207783 362.585814 
L 207.747551 361.950222 
L 208.017435 362.04974 
L 208.557203 363.082627 
L 209.906623 362.843636 
L 210.716275 362.419849 
L 211.525927 362.40849 
L 212.065695 362.134686 
L 213.145231 361.846667 
L 213.415115 361.566043 
L 213.954883 360.601428 
L 215.574187 359.508857 
L 216.113955 359.366369 
L 216.653723 359.52498 
L 217.463375 360.66292 
L 218.542911 362.465078 
L 219.892331 364.690455 
L 220.432099 364.997687 
L 221.241751 365.135048 
L 222.321287 364.683779 
L 222.591171 364.609136 
L 224.480359 366.462333 
L 224.750243 366.441651 
L 225.559895 365.583222 
L 226.099663 365.041259 
L 226.639431 365.003112 
L 227.179199 365.779413 
L 227.449083 366.612174 
L 227.988851 369.165966 
L 228.798503 369.36825 
L 229.338271 369.263496 
L 230.687691 367.34855 
L 231.767227 366.76202 
L 232.037111 366.663827 
L 232.846762 366.901433 
L 233.926298 367.693331 
L 234.196182 367.733525 
L 235.005834 367.512703 
L 235.545602 367.4788 
L 236.08537 366.965798 
L 236.625138 366.771937 
L 236.895022 366.82463 
L 237.43479 367.228942 
L 238.244442 366.676248 
L 238.78421 366.557922 
L 239.323978 366.191273 
L 239.863746 365.379848 
L 240.673398 363.948366 
L 240.943282 363.83828 
L 241.48305 364.348988 
L 242.562586 364.492228 
L 242.83247 364.495535 
L 243.912006 363.692414 
L 244.451774 363.113171 
L 244.991542 362.53763 
L 246.071078 361.852593 
L 246.88073 361.049998 
L 248.23015 359.542459 
L 249.57957 356.910857 
L 250.389222 355.783424 
L 250.92899 355.509103 
L 251.738642 355.783811 
L 252.818178 356.820615 
L 253.62783 357.974787 
L 254.707366 357.749107 
L 254.97725 357.657481 
L 256.596554 354.827506 
L 257.67609 351.776024 
L 258.485742 350.07436 
L 259.295394 349.061935 
L 259.835162 348.670804 
L 260.644814 348.456457 
L 261.72435 348.492024 
L 262.264118 348.753929 
L 262.534002 349.102138 
L 263.343654 350.949217 
L 264.153306 352.806644 
L 264.42319 353.328568 
L 265.232842 355.717079 
L 266.042494 356.20891 
L 267.12203 357.178246 
L 267.931682 357.166627 
L 268.47145 357.35948 
L 269.011218 357.219559 
L 269.281102 356.902027 
L 269.82087 355.77234 
L 270.360638 355.863978 
L 270.630522 355.699295 
L 271.440174 354.697616 
L 272.51971 353.628929 
L 273.329362 355.30251 
L 273.86913 355.668795 
L 274.408898 355.589019 
L 274.678782 355.701904 
L 275.21855 356.232872 
L 275.758318 355.735755 
L 276.028202 355.717857 
L 277.107738 356.464404 
L 277.377622 356.625052 
L 278.727042 355.976253 
L 279.806577 353.84675 
L 280.616229 352.885583 
L 281.155997 352.199713 
L 281.425881 352.037009 
L 281.965649 352.071646 
L 282.505417 350.80281 
L 282.775301 350.475168 
L 283.315069 350.432872 
L 283.854837 349.65634 
L 284.124721 349.775974 
L 284.664489 351.030021 
L 285.204257 350.196654 
L 285.474141 350.066407 
L 286.013909 350.378263 
L 286.823561 350.060069 
L 287.633213 350.308642 
L 288.172981 350.404496 
L 288.712749 350.691033 
L 288.982633 350.610913 
L 289.522401 350.138221 
L 290.062169 350.067151 
L 290.871821 348.790411 
L 291.681473 347.032044 
L 292.221241 346.127503 
L 293.030893 344.518555 
L 293.570661 343.493747 
L 294.650197 340.817472 
L 294.920081 340.412812 
L 295.729733 339.966825 
L 295.999617 339.886643 
L 296.269501 339.41404 
L 296.809269 337.68486 
L 297.349037 338.340531 
L 297.618921 338.412583 
L 298.428573 337.797127 
L 298.968341 337.075157 
L 300.047877 335.036803 
L 300.317761 334.866536 
L 301.397297 335.52426 
L 301.667181 335.472196 
L 302.476833 334.590199 
L 302.746717 334.057037 
L 303.016601 333.884506 
L 303.556369 334.260051 
L 304.366021 333.670288 
L 304.905789 334.487284 
L 305.715441 336.557626 
L 306.794977 337.209354 
L 307.064861 337.348021 
L 307.604629 339.210242 
L 308.144397 340.042411 
L 308.414281 340.114935 
L 308.954049 339.573414 
L 309.223933 338.869714 
L 309.763701 336.894578 
L 310.303469 335.811251 
L 311.113121 332.997439 
L 311.652889 330.63354 
L 312.462541 329.656738 
L 313.272193 327.947794 
L 314.351729 327.025977 
L 314.891497 327.520725 
L 315.161381 327.579899 
L 315.971033 327.260227 
L 316.240917 327.198295 
L 316.510801 326.948763 
L 317.050569 326.07491 
L 317.860221 326.465972 
L 318.669873 327.18311 
L 319.479525 327.545098 
L 320.828945 328.981919 
L 321.368713 328.691464 
L 322.988017 325.086822 
L 323.257901 324.709859 
L 323.797669 323.188185 
L 324.067553 322.299389 
L 325.956741 319.356904 
L 327.30616 317.285786 
L 328.385696 315.768661 
L 329.735116 314.866678 
L 330.274884 314.948061 
L 330.814652 315.334416 
L 331.624304 316.541014 
L 332.973724 317.317582 
L 334.862912 319.320134 
L 336.482216 321.538746 
L 336.7521 321.84571 
L 337.021984 321.902324 
L 337.561752 321.514853 
L 338.10152 321.819655 
L 338.371404 321.623585 
L 338.911172 320.534504 
L 340.260592 320.483887 
L 341.610012 319.886491 
L 342.419664 320.765026 
L 342.959432 320.956576 
L 343.4992 320.828359 
L 343.769084 321.12915 
L 344.308852 322.460531 
L 345.928156 329.424044 
L 346.467924 330.835786 
L 347.007692 334.226514 
L 347.817344 331.814375 
L 348.357112 329.562449 
L 348.89688 329.424103 
L 349.166764 328.926364 
L 349.706532 327.073754 
L 351.055952 329.374336 
L 351.59572 330.285303 
L 351.865604 330.505686 
L 352.405372 330.476254 
L 354.29456 332.14159 
L 354.834328 332.344364 
L 355.104212 332.39921 
L 355.64398 332.251662 
L 355.913864 331.911946 
L 356.453632 330.700632 
L 358.34282 329.125357 
L 358.612704 328.552226 
L 359.152472 326.738165 
L 360.501892 324.590928 
L 361.04166 322.414495 
L 361.311544 321.830287 
L 361.851312 321.669888 
L 362.660964 314.993477 
L 363.200732 312.930331 
L 363.7405 311.984528 
L 364.010384 311.885513 
L 365.08992 313.119293 
L 365.359804 312.94719 
L 366.169456 310.600177 
L 367.248992 306.701768 
L 367.78876 307.300088 
L 368.058644 307.023051 
L 368.598412 305.31658 
L 369.947832 303.698799 
L 370.4876 303.235756 
L 370.757484 302.706052 
L 371.297252 301.050281 
L 371.83702 301.730686 
L 372.106904 301.660718 
L 372.646672 300.700439 
L 373.456323 300.051542 
L 373.996091 299.912897 
L 375.075627 298.449734 
L 376.155163 297.316437 
L 377.504583 296.417566 
L 378.044351 296.450711 
L 378.854003 294.846279 
L 379.393771 294.591371 
L 379.933539 295.134532 
L 380.203423 295.107183 
L 381.013075 294.007038 
L 381.822727 292.138844 
L 382.902263 289.486207 
L 383.981799 287.945138 
L 384.251683 287.772314 
L 384.791451 287.839098 
L 385.331219 287.050746 
L 385.601103 287.089406 
L 386.140871 288.032399 
L 386.410755 288.087776 
L 387.490291 286.712984 
L 388.030059 286.768777 
L 388.299943 286.67386 
L 388.839711 286.238402 
L 389.649363 286.327372 
L 390.998783 285.900302 
L 391.538551 286.370707 
L 392.348203 288.8385 
L 393.157855 289.532129 
L 393.697623 289.751806 
L 393.967507 289.764576 
L 394.237391 289.46854 
L 395.856695 286.098075 
L 396.666347 284.46228 
L 397.475999 282.166841 
L 398.285651 278.880119 
L 399.635071 276.948643 
L 400.174839 276.083945 
L 400.984491 276.156207 
L 401.524259 276.809526 
L 402.333911 274.532408 
L 402.333911 274.532408 
" style="fill:none;stroke:#4c72b0;stroke-linecap:round;stroke-opacity:0.75;stroke-width:1.5;"/>
   </g>
   <g id="patch_14">
    <path d="M 63.09 382.86 
L 63.09 269.373951 
" style="fill:none;stroke:#ffffff;stroke-linecap:square;stroke-linejoin:miter;stroke-width:1.25;"/>
   </g>
   <g id="patch_15">
    <path d="M 419.04 382.86 
L 419.04 269.373951 
" style="fill:none;stroke:#ffffff;stroke-linecap:square;stroke-linejoin:miter;stroke-width:1.25;"/>
   </g>
   <g id="patch_16">
    <path d="M 63.09 382.86 
L 419.04 382.86 
" style="fill:none;stroke:#ffffff;stroke-linecap:square;stroke-linejoin:miter;stroke-width:1.25;"/>
   </g>
   <g id="patch_17">
    <path d="M 63.09 269.373951 
L 419.04 269.373951 
" style="fill:none;stroke:#ffffff;stroke-linecap:square;stroke-linejoin:miter;stroke-width:1.25;"/>
   </g>
  </g>
 </g>
 <defs>
  <clipPath id="p9712d074a6">
   <rect height="113.486049" width="355.95" x="63.09" y="12.96"/>
  </clipPath>
  <clipPath id="pd3ee6a0229">
   <rect height="113.486049" width="355.95" x="63.09" y="141.166976"/>
  </clipPath>
  <clipPath id="p3f514c47a7">
   <rect height="113.486049" width="355.95" x="63.09" y="269.373951"/>
  </clipPath>
 </defs>
</svg>
