<?xml version="1.0" encoding="utf-8" standalone="no"?>
<!DOCTYPE svg PUBLIC "-//W3C//DTD SVG 1.1//EN"
  "http://www.w3.org/Graphics/SVG/1.1/DTD/svg11.dtd">
<!-- Created with matplotlib (https://matplotlib.org/) -->
<svg height="432pt" version="1.1" viewBox="0 0 432 432" width="432pt" xmlns="http://www.w3.org/2000/svg" xmlns:xlink="http://www.w3.org/1999/xlink">
 <metadata>
  <rdf:RDF xmlns:cc="http://creativecommons.org/ns#" xmlns:dc="http://purl.org/dc/elements/1.1/" xmlns:rdf="http://www.w3.org/1999/02/22-rdf-syntax-ns#">
   <cc:Work>
    <dc:type rdf:resource="http://purl.org/dc/dcmitype/StillImage"/>
    <dc:date>2022-01-28T17:35:00.231386</dc:date>
    <dc:format>image/svg+xml</dc:format>
    <dc:creator>
     <cc:Agent>
      <dc:title>Matplotlib v3.3.1, https://matplotlib.org/</dc:title>
     </cc:Agent>
    </dc:creator>
   </cc:Work>
  </rdf:RDF>
 </metadata>
 <defs>
  <style type="text/css">*{stroke-linecap:butt;stroke-linejoin:round;}</style>
 </defs>
 <g id="figure_1">
  <g id="patch_1">
   <path d="M 0 432 
L 432 432 
L 432 0 
L 0 0 
z
" style="fill:#ffffff;"/>
  </g>
  <g id="axes_1">
   <g id="patch_2">
    <path d="M 62.775 382.86 
L 419.04 382.86 
L 419.04 55.824 
L 62.775 55.824 
z
" style="fill:#eaeaf2;"/>
   </g>
   <g id="matplotlib.axis_1">
    <g id="xtick_1">
     <g id="line2d_1">
      <path clip-path="url(#p7acbfd9eb3)" d="M 78.968864 382.86 
L 78.968864 55.824 
" style="fill:none;stroke:#ffffff;stroke-linecap:round;"/>
     </g>
     <g id="text_1">
      <!-- 0 -->
      <g style="fill:#262626;" transform="translate(75.469489 400.718281)scale(0.11 -0.11)">
       <defs>
        <path d="M 31.78125 66.40625 
Q 24.171875 66.40625 20.328125 58.90625 
Q 16.5 51.421875 16.5 36.375 
Q 16.5 21.390625 20.328125 13.890625 
Q 24.171875 6.390625 31.78125 6.390625 
Q 39.453125 6.390625 43.28125 13.890625 
Q 47.125 21.390625 47.125 36.375 
Q 47.125 51.421875 43.28125 58.90625 
Q 39.453125 66.40625 31.78125 66.40625 
z
M 31.78125 74.21875 
Q 44.046875 74.21875 50.515625 64.515625 
Q 56.984375 54.828125 56.984375 36.375 
Q 56.984375 17.96875 50.515625 8.265625 
Q 44.046875 -1.421875 31.78125 -1.421875 
Q 19.53125 -1.421875 13.0625 8.265625 
Q 6.59375 17.96875 6.59375 36.375 
Q 6.59375 54.828125 13.0625 64.515625 
Q 19.53125 74.21875 31.78125 74.21875 
z
" id="DejaVuSans-48"/>
       </defs>
       <use xlink:href="#DejaVuSans-48"/>
      </g>
     </g>
    </g>
    <g id="xtick_2">
     <g id="line2d_2">
      <path clip-path="url(#p7acbfd9eb3)" d="M 133.447799 382.86 
L 133.447799 55.824 
" style="fill:none;stroke:#ffffff;stroke-linecap:round;"/>
     </g>
     <g id="text_2">
      <!-- 20 -->
      <g style="fill:#262626;" transform="translate(126.449049 400.718281)scale(0.11 -0.11)">
       <defs>
        <path d="M 19.1875 8.296875 
L 53.609375 8.296875 
L 53.609375 0 
L 7.328125 0 
L 7.328125 8.296875 
Q 12.9375 14.109375 22.625 23.890625 
Q 32.328125 33.6875 34.8125 36.53125 
Q 39.546875 41.84375 41.421875 45.53125 
Q 43.3125 49.21875 43.3125 52.78125 
Q 43.3125 58.59375 39.234375 62.25 
Q 35.15625 65.921875 28.609375 65.921875 
Q 23.96875 65.921875 18.8125 64.3125 
Q 13.671875 62.703125 7.8125 59.421875 
L 7.8125 69.390625 
Q 13.765625 71.78125 18.9375 73 
Q 24.125 74.21875 28.421875 74.21875 
Q 39.75 74.21875 46.484375 68.546875 
Q 53.21875 62.890625 53.21875 53.421875 
Q 53.21875 48.921875 51.53125 44.890625 
Q 49.859375 40.875 45.40625 35.40625 
Q 44.1875 33.984375 37.640625 27.21875 
Q 31.109375 20.453125 19.1875 8.296875 
z
" id="DejaVuSans-50"/>
       </defs>
       <use xlink:href="#DejaVuSans-50"/>
       <use x="63.623047" xlink:href="#DejaVuSans-48"/>
      </g>
     </g>
    </g>
    <g id="xtick_3">
     <g id="line2d_3">
      <path clip-path="url(#p7acbfd9eb3)" d="M 187.926735 382.86 
L 187.926735 55.824 
" style="fill:none;stroke:#ffffff;stroke-linecap:round;"/>
     </g>
     <g id="text_3">
      <!-- 40 -->
      <g style="fill:#262626;" transform="translate(180.927985 400.718281)scale(0.11 -0.11)">
       <defs>
        <path d="M 37.796875 64.3125 
L 12.890625 25.390625 
L 37.796875 25.390625 
z
M 35.203125 72.90625 
L 47.609375 72.90625 
L 47.609375 25.390625 
L 58.015625 25.390625 
L 58.015625 17.1875 
L 47.609375 17.1875 
L 47.609375 0 
L 37.796875 0 
L 37.796875 17.1875 
L 4.890625 17.1875 
L 4.890625 26.703125 
z
" id="DejaVuSans-52"/>
       </defs>
       <use xlink:href="#DejaVuSans-52"/>
       <use x="63.623047" xlink:href="#DejaVuSans-48"/>
      </g>
     </g>
    </g>
    <g id="xtick_4">
     <g id="line2d_4">
      <path clip-path="url(#p7acbfd9eb3)" d="M 242.405671 382.86 
L 242.405671 55.824 
" style="fill:none;stroke:#ffffff;stroke-linecap:round;"/>
     </g>
     <g id="text_4">
      <!-- 60 -->
      <g style="fill:#262626;" transform="translate(235.406921 400.718281)scale(0.11 -0.11)">
       <defs>
        <path d="M 33.015625 40.375 
Q 26.375 40.375 22.484375 35.828125 
Q 18.609375 31.296875 18.609375 23.390625 
Q 18.609375 15.53125 22.484375 10.953125 
Q 26.375 6.390625 33.015625 6.390625 
Q 39.65625 6.390625 43.53125 10.953125 
Q 47.40625 15.53125 47.40625 23.390625 
Q 47.40625 31.296875 43.53125 35.828125 
Q 39.65625 40.375 33.015625 40.375 
z
M 52.59375 71.296875 
L 52.59375 62.3125 
Q 48.875 64.0625 45.09375 64.984375 
Q 41.3125 65.921875 37.59375 65.921875 
Q 27.828125 65.921875 22.671875 59.328125 
Q 17.53125 52.734375 16.796875 39.40625 
Q 19.671875 43.65625 24.015625 45.921875 
Q 28.375 48.1875 33.59375 48.1875 
Q 44.578125 48.1875 50.953125 41.515625 
Q 57.328125 34.859375 57.328125 23.390625 
Q 57.328125 12.15625 50.6875 5.359375 
Q 44.046875 -1.421875 33.015625 -1.421875 
Q 20.359375 -1.421875 13.671875 8.265625 
Q 6.984375 17.96875 6.984375 36.375 
Q 6.984375 53.65625 15.1875 63.9375 
Q 23.390625 74.21875 37.203125 74.21875 
Q 40.921875 74.21875 44.703125 73.484375 
Q 48.484375 72.75 52.59375 71.296875 
z
" id="DejaVuSans-54"/>
       </defs>
       <use xlink:href="#DejaVuSans-54"/>
       <use x="63.623047" xlink:href="#DejaVuSans-48"/>
      </g>
     </g>
    </g>
    <g id="xtick_5">
     <g id="line2d_5">
      <path clip-path="url(#p7acbfd9eb3)" d="M 296.884606 382.86 
L 296.884606 55.824 
" style="fill:none;stroke:#ffffff;stroke-linecap:round;"/>
     </g>
     <g id="text_5">
      <!-- 80 -->
      <g style="fill:#262626;" transform="translate(289.885856 400.718281)scale(0.11 -0.11)">
       <defs>
        <path d="M 31.78125 34.625 
Q 24.75 34.625 20.71875 30.859375 
Q 16.703125 27.09375 16.703125 20.515625 
Q 16.703125 13.921875 20.71875 10.15625 
Q 24.75 6.390625 31.78125 6.390625 
Q 38.8125 6.390625 42.859375 10.171875 
Q 46.921875 13.96875 46.921875 20.515625 
Q 46.921875 27.09375 42.890625 30.859375 
Q 38.875 34.625 31.78125 34.625 
z
M 21.921875 38.8125 
Q 15.578125 40.375 12.03125 44.71875 
Q 8.5 49.078125 8.5 55.328125 
Q 8.5 64.0625 14.71875 69.140625 
Q 20.953125 74.21875 31.78125 74.21875 
Q 42.671875 74.21875 48.875 69.140625 
Q 55.078125 64.0625 55.078125 55.328125 
Q 55.078125 49.078125 51.53125 44.71875 
Q 48 40.375 41.703125 38.8125 
Q 48.828125 37.15625 52.796875 32.3125 
Q 56.78125 27.484375 56.78125 20.515625 
Q 56.78125 9.90625 50.3125 4.234375 
Q 43.84375 -1.421875 31.78125 -1.421875 
Q 19.734375 -1.421875 13.25 4.234375 
Q 6.78125 9.90625 6.78125 20.515625 
Q 6.78125 27.484375 10.78125 32.3125 
Q 14.796875 37.15625 21.921875 38.8125 
z
M 18.3125 54.390625 
Q 18.3125 48.734375 21.84375 45.5625 
Q 25.390625 42.390625 31.78125 42.390625 
Q 38.140625 42.390625 41.71875 45.5625 
Q 45.3125 48.734375 45.3125 54.390625 
Q 45.3125 60.0625 41.71875 63.234375 
Q 38.140625 66.40625 31.78125 66.40625 
Q 25.390625 66.40625 21.84375 63.234375 
Q 18.3125 60.0625 18.3125 54.390625 
z
" id="DejaVuSans-56"/>
       </defs>
       <use xlink:href="#DejaVuSans-56"/>
       <use x="63.623047" xlink:href="#DejaVuSans-48"/>
      </g>
     </g>
    </g>
    <g id="xtick_6">
     <g id="line2d_6">
      <path clip-path="url(#p7acbfd9eb3)" d="M 351.363542 382.86 
L 351.363542 55.824 
" style="fill:none;stroke:#ffffff;stroke-linecap:round;"/>
     </g>
     <g id="text_6">
      <!-- 100 -->
      <g style="fill:#262626;" transform="translate(340.865417 400.718281)scale(0.11 -0.11)">
       <defs>
        <path d="M 12.40625 8.296875 
L 28.515625 8.296875 
L 28.515625 63.921875 
L 10.984375 60.40625 
L 10.984375 69.390625 
L 28.421875 72.90625 
L 38.28125 72.90625 
L 38.28125 8.296875 
L 54.390625 8.296875 
L 54.390625 0 
L 12.40625 0 
z
" id="DejaVuSans-49"/>
       </defs>
       <use xlink:href="#DejaVuSans-49"/>
       <use x="63.623047" xlink:href="#DejaVuSans-48"/>
       <use x="127.246094" xlink:href="#DejaVuSans-48"/>
      </g>
     </g>
    </g>
    <g id="xtick_7">
     <g id="line2d_7">
      <path clip-path="url(#p7acbfd9eb3)" d="M 405.842478 382.86 
L 405.842478 55.824 
" style="fill:none;stroke:#ffffff;stroke-linecap:round;"/>
     </g>
     <g id="text_7">
      <!-- 120 -->
      <g style="fill:#262626;" transform="translate(395.344353 400.718281)scale(0.11 -0.11)">
       <use xlink:href="#DejaVuSans-49"/>
       <use x="63.623047" xlink:href="#DejaVuSans-50"/>
       <use x="127.246094" xlink:href="#DejaVuSans-48"/>
      </g>
     </g>
    </g>
    <g id="text_8">
     <!-- $t$ (s) -->
     <g style="fill:#262626;" transform="translate(228.7875 416.124062)scale(0.12 -0.12)">
      <defs>
       <path d="M 42.28125 54.6875 
L 40.921875 47.703125 
L 23 47.703125 
L 17.1875 18.015625 
Q 16.890625 16.359375 16.75 15.234375 
Q 16.609375 14.109375 16.609375 13.484375 
Q 16.609375 10.359375 18.484375 8.9375 
Q 20.359375 7.515625 24.515625 7.515625 
L 33.59375 7.515625 
L 32.078125 0 
L 23.484375 0 
Q 15.484375 0 11.546875 3.125 
Q 7.625 6.25 7.625 12.59375 
Q 7.625 13.71875 7.765625 15.0625 
Q 7.90625 16.40625 8.203125 18.015625 
L 14.015625 47.703125 
L 6.390625 47.703125 
L 7.8125 54.6875 
L 15.28125 54.6875 
L 18.3125 70.21875 
L 27.296875 70.21875 
L 24.3125 54.6875 
z
" id="DejaVuSans-Oblique-116"/>
       <path id="DejaVuSans-32"/>
       <path d="M 31 75.875 
Q 24.46875 64.65625 21.28125 53.65625 
Q 18.109375 42.671875 18.109375 31.390625 
Q 18.109375 20.125 21.3125 9.0625 
Q 24.515625 -2 31 -13.1875 
L 23.1875 -13.1875 
Q 15.875 -1.703125 12.234375 9.375 
Q 8.59375 20.453125 8.59375 31.390625 
Q 8.59375 42.28125 12.203125 53.3125 
Q 15.828125 64.359375 23.1875 75.875 
z
" id="DejaVuSans-40"/>
       <path d="M 44.28125 53.078125 
L 44.28125 44.578125 
Q 40.484375 46.53125 36.375 47.5 
Q 32.28125 48.484375 27.875 48.484375 
Q 21.1875 48.484375 17.84375 46.4375 
Q 14.5 44.390625 14.5 40.28125 
Q 14.5 37.15625 16.890625 35.375 
Q 19.28125 33.59375 26.515625 31.984375 
L 29.59375 31.296875 
Q 39.15625 29.25 43.1875 25.515625 
Q 47.21875 21.78125 47.21875 15.09375 
Q 47.21875 7.46875 41.1875 3.015625 
Q 35.15625 -1.421875 24.609375 -1.421875 
Q 20.21875 -1.421875 15.453125 -0.5625 
Q 10.6875 0.296875 5.421875 2 
L 5.421875 11.28125 
Q 10.40625 8.6875 15.234375 7.390625 
Q 20.0625 6.109375 24.8125 6.109375 
Q 31.15625 6.109375 34.5625 8.28125 
Q 37.984375 10.453125 37.984375 14.40625 
Q 37.984375 18.0625 35.515625 20.015625 
Q 33.0625 21.96875 24.703125 23.78125 
L 21.578125 24.515625 
Q 13.234375 26.265625 9.515625 29.90625 
Q 5.8125 33.546875 5.8125 39.890625 
Q 5.8125 47.609375 11.28125 51.796875 
Q 16.75 56 26.8125 56 
Q 31.78125 56 36.171875 55.265625 
Q 40.578125 54.546875 44.28125 53.078125 
z
" id="DejaVuSans-115"/>
       <path d="M 8.015625 75.875 
L 15.828125 75.875 
Q 23.140625 64.359375 26.78125 53.3125 
Q 30.421875 42.28125 30.421875 31.390625 
Q 30.421875 20.453125 26.78125 9.375 
Q 23.140625 -1.703125 15.828125 -13.1875 
L 8.015625 -13.1875 
Q 14.5 -2 17.703125 9.0625 
Q 20.90625 20.125 20.90625 31.390625 
Q 20.90625 42.671875 17.703125 53.65625 
Q 14.5 64.65625 8.015625 75.875 
z
" id="DejaVuSans-41"/>
      </defs>
      <use transform="translate(0 0.125)" xlink:href="#DejaVuSans-Oblique-116"/>
      <use transform="translate(39.208984 0.125)" xlink:href="#DejaVuSans-32"/>
      <use transform="translate(70.996094 0.125)" xlink:href="#DejaVuSans-40"/>
      <use transform="translate(110.009766 0.125)" xlink:href="#DejaVuSans-115"/>
      <use transform="translate(162.109375 0.125)" xlink:href="#DejaVuSans-41"/>
     </g>
    </g>
   </g>
   <g id="matplotlib.axis_2">
    <g id="ytick_1">
     <g id="line2d_8">
      <path clip-path="url(#p7acbfd9eb3)" d="M 62.775 368.833657 
L 419.04 368.833657 
" style="fill:none;stroke:#ffffff;stroke-linecap:round;"/>
     </g>
     <g id="text_9">
      <!-- 0.00 -->
      <g style="fill:#262626;" transform="translate(28.782813 373.012797)scale(0.11 -0.11)">
       <defs>
        <path d="M 10.6875 12.40625 
L 21 12.40625 
L 21 0 
L 10.6875 0 
z
" id="DejaVuSans-46"/>
       </defs>
       <use xlink:href="#DejaVuSans-48"/>
       <use x="63.623047" xlink:href="#DejaVuSans-46"/>
       <use x="95.410156" xlink:href="#DejaVuSans-48"/>
       <use x="159.033203" xlink:href="#DejaVuSans-48"/>
      </g>
     </g>
    </g>
    <g id="ytick_2">
     <g id="line2d_9">
      <path clip-path="url(#p7acbfd9eb3)" d="M 62.775 322.399808 
L 419.04 322.399808 
" style="fill:none;stroke:#ffffff;stroke-linecap:round;"/>
     </g>
     <g id="text_10">
      <!-- 0.02 -->
      <g style="fill:#262626;" transform="translate(28.782813 326.578949)scale(0.11 -0.11)">
       <use xlink:href="#DejaVuSans-48"/>
       <use x="63.623047" xlink:href="#DejaVuSans-46"/>
       <use x="95.410156" xlink:href="#DejaVuSans-48"/>
       <use x="159.033203" xlink:href="#DejaVuSans-50"/>
      </g>
     </g>
    </g>
    <g id="ytick_3">
     <g id="line2d_10">
      <path clip-path="url(#p7acbfd9eb3)" d="M 62.775 275.965959 
L 419.04 275.965959 
" style="fill:none;stroke:#ffffff;stroke-linecap:round;"/>
     </g>
     <g id="text_11">
      <!-- 0.04 -->
      <g style="fill:#262626;" transform="translate(28.782813 280.1451)scale(0.11 -0.11)">
       <use xlink:href="#DejaVuSans-48"/>
       <use x="63.623047" xlink:href="#DejaVuSans-46"/>
       <use x="95.410156" xlink:href="#DejaVuSans-48"/>
       <use x="159.033203" xlink:href="#DejaVuSans-52"/>
      </g>
     </g>
    </g>
    <g id="ytick_4">
     <g id="line2d_11">
      <path clip-path="url(#p7acbfd9eb3)" d="M 62.775 229.532111 
L 419.04 229.532111 
" style="fill:none;stroke:#ffffff;stroke-linecap:round;"/>
     </g>
     <g id="text_12">
      <!-- 0.06 -->
      <g style="fill:#262626;" transform="translate(28.782813 233.711251)scale(0.11 -0.11)">
       <use xlink:href="#DejaVuSans-48"/>
       <use x="63.623047" xlink:href="#DejaVuSans-46"/>
       <use x="95.410156" xlink:href="#DejaVuSans-48"/>
       <use x="159.033203" xlink:href="#DejaVuSans-54"/>
      </g>
     </g>
    </g>
    <g id="ytick_5">
     <g id="line2d_12">
      <path clip-path="url(#p7acbfd9eb3)" d="M 62.775 183.098262 
L 419.04 183.098262 
" style="fill:none;stroke:#ffffff;stroke-linecap:round;"/>
     </g>
     <g id="text_13">
      <!-- 0.08 -->
      <g style="fill:#262626;" transform="translate(28.782813 187.277403)scale(0.11 -0.11)">
       <use xlink:href="#DejaVuSans-48"/>
       <use x="63.623047" xlink:href="#DejaVuSans-46"/>
       <use x="95.410156" xlink:href="#DejaVuSans-48"/>
       <use x="159.033203" xlink:href="#DejaVuSans-56"/>
      </g>
     </g>
    </g>
    <g id="ytick_6">
     <g id="line2d_13">
      <path clip-path="url(#p7acbfd9eb3)" d="M 62.775 136.664413 
L 419.04 136.664413 
" style="fill:none;stroke:#ffffff;stroke-linecap:round;"/>
     </g>
     <g id="text_14">
      <!-- 0.10 -->
      <g style="fill:#262626;" transform="translate(28.782813 140.843554)scale(0.11 -0.11)">
       <use xlink:href="#DejaVuSans-48"/>
       <use x="63.623047" xlink:href="#DejaVuSans-46"/>
       <use x="95.410156" xlink:href="#DejaVuSans-49"/>
       <use x="159.033203" xlink:href="#DejaVuSans-48"/>
      </g>
     </g>
    </g>
    <g id="ytick_7">
     <g id="line2d_14">
      <path clip-path="url(#p7acbfd9eb3)" d="M 62.775 90.230565 
L 419.04 90.230565 
" style="fill:none;stroke:#ffffff;stroke-linecap:round;"/>
     </g>
     <g id="text_15">
      <!-- 0.12 -->
      <g style="fill:#262626;" transform="translate(28.782813 94.409705)scale(0.11 -0.11)">
       <use xlink:href="#DejaVuSans-48"/>
       <use x="63.623047" xlink:href="#DejaVuSans-46"/>
       <use x="95.410156" xlink:href="#DejaVuSans-49"/>
       <use x="159.033203" xlink:href="#DejaVuSans-50"/>
      </g>
     </g>
    </g>
    <g id="text_16">
     <!-- RPE (m) -->
     <g style="fill:#262626;" transform="translate(22.287188 243.35325)rotate(-90)scale(0.12 -0.12)">
      <defs>
       <path d="M 44.390625 34.1875 
Q 47.5625 33.109375 50.5625 29.59375 
Q 53.5625 26.078125 56.59375 19.921875 
L 66.609375 0 
L 56 0 
L 46.6875 18.703125 
Q 43.0625 26.03125 39.671875 28.421875 
Q 36.28125 30.8125 30.421875 30.8125 
L 19.671875 30.8125 
L 19.671875 0 
L 9.8125 0 
L 9.8125 72.90625 
L 32.078125 72.90625 
Q 44.578125 72.90625 50.734375 67.671875 
Q 56.890625 62.453125 56.890625 51.90625 
Q 56.890625 45.015625 53.6875 40.46875 
Q 50.484375 35.9375 44.390625 34.1875 
z
M 19.671875 64.796875 
L 19.671875 38.921875 
L 32.078125 38.921875 
Q 39.203125 38.921875 42.84375 42.21875 
Q 46.484375 45.515625 46.484375 51.90625 
Q 46.484375 58.296875 42.84375 61.546875 
Q 39.203125 64.796875 32.078125 64.796875 
z
" id="DejaVuSans-82"/>
       <path d="M 19.671875 64.796875 
L 19.671875 37.40625 
L 32.078125 37.40625 
Q 38.96875 37.40625 42.71875 40.96875 
Q 46.484375 44.53125 46.484375 51.125 
Q 46.484375 57.671875 42.71875 61.234375 
Q 38.96875 64.796875 32.078125 64.796875 
z
M 9.8125 72.90625 
L 32.078125 72.90625 
Q 44.34375 72.90625 50.609375 67.359375 
Q 56.890625 61.8125 56.890625 51.125 
Q 56.890625 40.328125 50.609375 34.8125 
Q 44.34375 29.296875 32.078125 29.296875 
L 19.671875 29.296875 
L 19.671875 0 
L 9.8125 0 
z
" id="DejaVuSans-80"/>
       <path d="M 9.8125 72.90625 
L 55.90625 72.90625 
L 55.90625 64.59375 
L 19.671875 64.59375 
L 19.671875 43.015625 
L 54.390625 43.015625 
L 54.390625 34.71875 
L 19.671875 34.71875 
L 19.671875 8.296875 
L 56.78125 8.296875 
L 56.78125 0 
L 9.8125 0 
z
" id="DejaVuSans-69"/>
       <path d="M 52 44.1875 
Q 55.375 50.25 60.0625 53.125 
Q 64.75 56 71.09375 56 
Q 79.640625 56 84.28125 50.015625 
Q 88.921875 44.046875 88.921875 33.015625 
L 88.921875 0 
L 79.890625 0 
L 79.890625 32.71875 
Q 79.890625 40.578125 77.09375 44.375 
Q 74.3125 48.1875 68.609375 48.1875 
Q 61.625 48.1875 57.5625 43.546875 
Q 53.515625 38.921875 53.515625 30.90625 
L 53.515625 0 
L 44.484375 0 
L 44.484375 32.71875 
Q 44.484375 40.625 41.703125 44.40625 
Q 38.921875 48.1875 33.109375 48.1875 
Q 26.21875 48.1875 22.15625 43.53125 
Q 18.109375 38.875 18.109375 30.90625 
L 18.109375 0 
L 9.078125 0 
L 9.078125 54.6875 
L 18.109375 54.6875 
L 18.109375 46.1875 
Q 21.1875 51.21875 25.484375 53.609375 
Q 29.78125 56 35.6875 56 
Q 41.65625 56 45.828125 52.96875 
Q 50 49.953125 52 44.1875 
z
" id="DejaVuSans-109"/>
      </defs>
      <use xlink:href="#DejaVuSans-82"/>
      <use x="69.482422" xlink:href="#DejaVuSans-80"/>
      <use x="129.785156" xlink:href="#DejaVuSans-69"/>
      <use x="192.96875" xlink:href="#DejaVuSans-32"/>
      <use x="224.755859" xlink:href="#DejaVuSans-40"/>
      <use x="263.769531" xlink:href="#DejaVuSans-109"/>
      <use x="361.181641" xlink:href="#DejaVuSans-41"/>
     </g>
    </g>
   </g>
   <g id="patch_3">
    <path clip-path="url(#p7acbfd9eb3)" d="M 62.775 355.976853 
L 62.775 323.188656 
L 419.04 323.188656 
L 419.04 355.976853 
z
" style="fill:#8172b3;opacity:0.5;stroke:#8172b3;stroke-linejoin:miter;"/>
   </g>
   <g id="line2d_15">
    <path clip-path="url(#p7acbfd9eb3)" d="M 78.968864 288.562605 
L 79.241258 286.423174 
L 79.513653 184.845219 
L 79.786048 185.938217 
L 80.058442 321.859559 
L 80.330837 321.776898 
L 80.603232 321.228913 
L 80.875626 335.03648 
L 81.148021 330.776194 
L 81.420416 349.64277 
L 81.965205 341.611231 
L 82.2376 332.020201 
L 82.509994 329.706567 
L 82.782389 331.096348 
L 83.054784 335.588528 
L 83.327178 336.528947 
L 83.599573 337.002924 
L 83.871968 341.572729 
L 84.144363 337.860947 
L 84.416757 330.924377 
L 84.689152 341.190709 
L 84.961547 324.322794 
L 85.233941 333.824981 
L 85.506336 328.648749 
L 85.778731 294.506817 
L 86.051125 292.102132 
L 86.595915 276.701152 
L 86.868309 270.839586 
L 87.140704 352.271345 
L 87.413099 345.813862 
L 87.957888 351.233105 
L 88.230283 345.67071 
L 88.775072 351.469724 
L 89.047467 346.694161 
L 89.319861 357.675837 
L 89.592256 353.466302 
L 89.864651 354.269238 
L 90.137045 356.295737 
L 90.40944 359.582621 
L 90.681835 357.312514 
L 90.954229 361.162998 
L 91.499019 359.454045 
L 91.771414 362.794707 
L 92.043808 358.005005 
L 92.588598 364.001081 
L 92.860992 360.846889 
L 93.133387 363.49451 
L 93.405782 362.901223 
L 93.678176 364.419009 
L 93.950571 364.93392 
L 94.222966 361.828497 
L 94.49536 363.259809 
L 94.767755 363.023062 
L 95.04015 362.574223 
L 95.312544 359.682497 
L 95.584939 354.086319 
L 96.129728 350.241407 
L 96.402123 348.773874 
L 96.674518 345.694649 
L 96.946912 359.345732 
L 97.219307 357.82003 
L 97.764096 362.489803 
L 98.036491 358.937666 
L 98.308886 361.663149 
L 98.58128 358.343211 
L 98.853675 359.149361 
L 99.12607 359.161847 
L 99.398465 356.806991 
L 99.670859 359.944567 
L 99.943254 359.821546 
L 100.215649 359.870666 
L 100.488043 359.448685 
L 100.760438 360.150781 
L 101.032833 358.663924 
L 101.305227 358.932818 
L 101.577622 360.29924 
L 101.850017 357.648768 
L 102.122411 352.105707 
L 102.394806 342.034399 
L 102.667201 345.908459 
L 102.939595 360.809487 
L 103.21199 360.158969 
L 103.484385 356.230025 
L 104.029174 360.063225 
L 104.573963 362.456555 
L 104.846358 358.65323 
L 105.118753 362.752601 
L 105.391147 360.99444 
L 105.663542 358.104573 
L 105.935937 360.820099 
L 106.208331 358.441283 
L 106.480726 360.620852 
L 106.753121 358.572523 
L 107.29791 360.819441 
L 107.570305 359.243457 
L 107.8427 358.745902 
L 108.115094 357.401468 
L 108.387489 357.196858 
L 108.932278 355.084909 
L 109.204673 358.175073 
L 109.477068 357.553619 
L 109.749462 359.593668 
L 110.021857 360.699293 
L 110.294252 360.340107 
L 110.566646 323.07541 
L 110.839041 321.894394 
L 111.38383 353.239213 
L 111.656225 352.14662 
L 111.92862 354.045102 
L 112.201014 352.464529 
L 112.745804 353.968762 
L 113.018198 352.248681 
L 113.290593 357.410333 
L 113.562988 355.674193 
L 113.835382 356.391087 
L 114.107777 353.320034 
L 114.380172 353.252396 
L 114.652567 353.776811 
L 114.924961 344.805381 
L 115.197356 356.74757 
L 115.469751 361.501541 
L 115.742145 356.786805 
L 116.286935 337.315779 
L 116.559329 350.124643 
L 116.831724 353.396383 
L 117.104119 352.757726 
L 117.376513 352.406093 
L 117.648908 357.914985 
L 117.921303 357.728676 
L 118.193697 344.580903 
L 118.466092 343.356678 
L 118.738487 360.78881 
L 119.283276 353.083574 
L 119.555671 343.989854 
L 120.10046 341.764994 
L 120.372855 344.086307 
L 120.645249 352.457549 
L 120.917644 354.982186 
L 121.190039 350.642729 
L 121.462433 353.029615 
L 122.007223 361.246495 
L 122.279618 361.181606 
L 122.552012 358.66923 
L 122.824407 351.226535 
L 123.096802 352.927705 
L 123.369196 353.116749 
L 123.913986 347.452886 
L 124.458775 358.393429 
L 124.73117 356.091692 
L 125.003564 344.708683 
L 125.548354 342.956954 
L 125.820748 342.516959 
L 126.365538 352.665746 
L 126.637932 351.324622 
L 126.910327 344.275176 
L 127.182722 343.385019 
L 127.455116 343.450925 
L 127.727511 340.115763 
L 127.999906 341.20146 
L 128.2723 358.747662 
L 128.544695 357.148204 
L 129.089484 365.384799 
L 129.361879 365.929757 
L 129.906669 360.987234 
L 130.179063 363.290065 
L 130.451458 364.072879 
L 130.723853 358.317265 
L 130.996247 358.254458 
L 131.268642 353.389832 
L 131.541037 352.812084 
L 131.813431 352.590266 
L 132.085826 343.933379 
L 132.358221 363.787544 
L 132.630615 354.415556 
L 132.90301 355.747355 
L 133.175405 355.879185 
L 133.447799 349.784922 
L 133.720194 357.606275 
L 133.992589 352.05883 
L 134.264983 351.860006 
L 134.537378 351.971916 
L 134.809773 346.798885 
L 135.082167 350.002211 
L 135.354562 345.353017 
L 135.899351 357.208163 
L 136.171746 354.057556 
L 136.444141 348.394875 
L 136.716535 351.521634 
L 136.98893 351.894969 
L 137.261325 351.917312 
L 137.53372 355.508962 
L 137.806114 351.293781 
L 138.623298 360.423348 
L 138.895693 361.73506 
L 139.168088 358.521805 
L 139.985272 346.170409 
L 140.257666 349.16239 
L 140.530061 346.692478 
L 140.802456 350.800149 
L 141.07485 350.852591 
L 141.347245 349.860727 
L 141.61964 352.270648 
L 141.892034 347.184833 
L 142.164429 353.202463 
L 142.436824 355.196931 
L 142.709218 355.675163 
L 142.981613 350.90476 
L 143.254008 354.154987 
L 143.526402 354.189068 
L 144.071192 355.21402 
L 144.343586 351.079142 
L 144.615981 353.947486 
L 144.888376 350.452029 
L 145.433165 351.649113 
L 145.70556 350.125698 
L 145.977955 344.988386 
L 146.250349 345.991173 
L 146.795139 348.980991 
L 147.067533 349.49175 
L 147.339928 348.393308 
L 147.612323 348.292222 
L 148.157112 346.954214 
L 148.429507 344.335285 
L 148.701901 352.472023 
L 148.974296 352.220237 
L 149.246691 352.282177 
L 149.519085 352.542231 
L 149.79148 351.381259 
L 150.063875 359.526812 
L 150.336269 358.491443 
L 150.608664 356.031007 
L 150.881059 356.29795 
L 151.153453 353.542781 
L 151.425848 360.635387 
L 151.698243 358.062357 
L 151.970637 357.719859 
L 152.243032 356.510093 
L 152.787822 357.891117 
L 153.605006 353.023803 
L 153.8774 354.250397 
L 154.149795 354.558642 
L 154.42219 351.997284 
L 154.694584 357.108175 
L 154.966979 356.462251 
L 155.239374 353.801217 
L 155.511768 354.335464 
L 155.784163 356.2407 
L 156.056558 356.204207 
L 156.328952 359.61493 
L 156.601347 354.126752 
L 156.873742 358.520385 
L 157.146136 360.582826 
L 157.418531 353.738016 
L 157.690926 359.799544 
L 158.235715 344.684966 
L 158.50811 347.557142 
L 158.780504 351.63445 
L 159.052899 350.485118 
L 159.325294 354.315498 
L 159.597688 353.966154 
L 159.870083 346.399292 
L 160.142478 351.825164 
L 160.414873 350.968232 
L 160.687267 360.463067 
L 160.959662 364.177076 
L 161.232057 354.538963 
L 161.504451 359.103108 
L 161.776846 353.80797 
L 162.321635 365.572645 
L 162.59403 358.520559 
L 162.866425 355.993339 
L 163.411214 365.888613 
L 163.683609 365.896474 
L 163.956003 361.231738 
L 164.228398 358.944432 
L 164.500793 363.808341 
L 164.773187 366.125166 
L 165.045582 360.078002 
L 165.317977 359.002501 
L 165.590371 361.886458 
L 165.862766 360.723896 
L 166.135161 363.030874 
L 166.407555 362.334179 
L 166.67995 357.25658 
L 166.952345 363.001974 
L 167.224739 358.022558 
L 167.769529 357.342959 
L 168.041924 353.464593 
L 168.314318 355.210655 
L 168.859108 350.949811 
L 169.403897 347.334665 
L 169.676292 341.831455 
L 169.948686 348.410682 
L 170.221081 347.420706 
L 170.493476 345.833393 
L 170.76587 351.651241 
L 171.038265 347.509538 
L 171.31066 351.424224 
L 171.583054 349.359785 
L 171.855449 341.418796 
L 172.127844 345.156495 
L 172.400238 354.020227 
L 172.672633 359.022853 
L 173.217422 349.12199 
L 173.489817 352.803702 
L 173.762212 351.750514 
L 174.034606 351.844271 
L 174.579396 351.330639 
L 174.85179 348.563006 
L 175.124185 354.784192 
L 175.39658 352.828374 
L 175.668975 356.19069 
L 175.941369 355.530372 
L 176.213764 346.587949 
L 176.486159 356.360067 
L 176.758553 348.481329 
L 177.030948 345.655186 
L 177.575737 335.935139 
L 177.848132 345.250533 
L 178.120527 342.12726 
L 178.665316 340.124377 
L 178.937711 336.696228 
L 179.210105 337.215234 
L 180.027289 329.505905 
L 180.299684 327.084618 
L 180.844473 337.236007 
L 181.116868 334.810662 
L 181.389263 325.564114 
L 181.661657 330.99209 
L 181.934052 341.518348 
L 182.206447 345.10708 
L 182.751236 357.479405 
L 183.023631 361.373626 
L 183.296025 356.771473 
L 183.56842 361.830027 
L 184.11321 338.826581 
L 184.385604 341.641116 
L 184.657999 348.822358 
L 184.930394 352.25944 
L 185.475183 362.250812 
L 185.747578 365.038301 
L 186.019972 360.832978 
L 186.292367 363.809618 
L 186.564762 359.388988 
L 186.837156 351.183997 
L 187.109551 354.256832 
L 187.381946 352.75792 
L 187.65434 357.011326 
L 188.19913 334.674549 
L 188.471524 336.895001 
L 188.743919 351.723538 
L 189.016314 355.450763 
L 189.288708 356.322579 
L 189.561103 352.229335 
L 190.105892 358.232279 
L 190.378287 358.60646 
L 190.650682 361.387108 
L 190.923076 361.796239 
L 191.195471 364.120464 
L 191.467866 357.021077 
L 192.28505 366.733411 
L 192.557445 364.731337 
L 192.829839 361.883249 
L 193.102234 363.652971 
L 193.374629 363.208728 
L 193.647023 362.507359 
L 193.919418 362.174274 
L 194.191813 361.12393 
L 194.464207 363.910828 
L 195.008997 360.478691 
L 195.281391 362.771289 
L 195.553786 351.90283 
L 195.826181 354.591087 
L 196.37097 343.038119 
L 196.643365 344.641612 
L 197.188154 362.394005 
L 197.460549 364.4162 
L 197.732943 356.847274 
L 198.550127 356.969408 
L 198.822522 356.457064 
L 199.367312 355.039686 
L 199.639706 351.915525 
L 199.912101 353.136151 
L 200.45689 360.133375 
L 200.729285 360.044511 
L 201.00168 355.208029 
L 201.274074 356.713069 
L 201.546469 364.527876 
L 202.091258 359.445736 
L 202.363653 362.02016 
L 202.636048 361.336599 
L 203.453232 357.660192 
L 203.998021 334.604141 
L 204.54281 357.651016 
L 204.815205 356.82775 
L 205.0876 348.887898 
L 205.359994 348.489215 
L 205.632389 356.587528 
L 205.904784 360.498135 
L 206.177178 359.657569 
L 206.449573 357.273283 
L 206.721968 356.688188 
L 207.266757 358.683002 
L 207.539152 358.29366 
L 207.811547 349.791982 
L 208.356336 352.973482 
L 208.628731 351.679113 
L 208.901125 345.556763 
L 209.17352 343.331676 
L 209.445915 342.161111 
L 209.718309 339.309622 
L 209.990704 329.28908 
L 210.263099 328.589718 
L 210.535493 352.494366 
L 210.807888 352.132156 
L 211.352677 357.772855 
L 212.169861 362.835206 
L 212.442256 354.665906 
L 212.714651 335.796413 
L 212.987045 335.727493 
L 213.25944 343.994714 
L 213.531835 343.857917 
L 214.076624 361.38315 
L 214.349019 360.820279 
L 214.621414 363.622198 
L 214.893808 364.902013 
L 215.438598 361.199558 
L 215.710992 361.96248 
L 215.983387 352.067269 
L 216.255782 353.07965 
L 216.800571 362.592421 
L 217.072966 363.120793 
L 217.34536 360.714386 
L 217.617755 360.337514 
L 217.89015 363.865178 
L 218.162544 358.744151 
L 218.434939 359.310945 
L 218.707334 361.713927 
L 218.979728 360.931921 
L 219.252123 363.177126 
L 219.524518 362.192029 
L 219.796912 358.608098 
L 220.069307 366.219757 
L 220.614096 366.940341 
L 221.158886 367.474435 
L 221.43128 365.321132 
L 221.703675 365.131031 
L 221.97607 365.556012 
L 222.248465 365.266924 
L 222.520859 366.028599 
L 223.065649 364.751689 
L 223.338043 359.129315 
L 223.610438 364.189115 
L 223.882833 353.460636 
L 224.427622 366.258359 
L 224.700017 356.860188 
L 224.972411 365.665444 
L 225.244806 363.700103 
L 225.517201 365.116839 
L 225.789595 364.662054 
L 226.334385 366.685196 
L 226.606779 366.677241 
L 226.879174 364.066257 
L 227.151569 366.309796 
L 227.423963 367.14482 
L 227.696358 366.44598 
L 227.968753 365.323335 
L 228.241147 359.21043 
L 228.513542 360.054256 
L 229.058331 366.5738 
L 229.330726 363.13487 
L 229.603121 366.185645 
L 229.875516 364.260431 
L 230.420305 366.19471 
L 230.6927 362.260052 
L 230.965094 342.458381 
L 231.237489 341.889678 
L 231.509884 339.651315 
L 231.782278 335.804916 
L 232.054673 335.389621 
L 232.327068 318.791578 
L 232.599462 319.248272 
L 233.144252 328.858856 
L 233.416646 329.606796 
L 233.689041 336.35667 
L 233.961436 337.367375 
L 234.506225 347.858394 
L 234.77862 349.159709 
L 235.051014 329.232218 
L 235.323409 330.933091 
L 235.868198 347.379035 
L 236.140593 349.291857 
L 236.412988 336.610626 
L 236.685382 338.737369 
L 237.230172 347.110509 
L 237.502567 348.852737 
L 237.774961 330.687515 
L 238.047356 333.294277 
L 238.319751 338.578699 
L 238.86454 343.64991 
L 239.136935 335.580234 
L 239.409329 337.721668 
L 239.954119 324.002094 
L 240.498908 338.634183 
L 240.771303 340.346714 
L 241.043697 336.676412 
L 241.860881 345.792578 
L 242.133276 355.686766 
L 242.405671 358.881018 
L 242.95046 347.346139 
L 243.222855 350.641259 
L 243.495249 339.323819 
L 243.767644 342.605666 
L 244.312433 331.092049 
L 244.584828 334.501093 
L 244.857223 341.357379 
L 245.129618 344.17751 
L 245.674407 332.615462 
L 245.946802 336.060269 
L 246.219196 325.742914 
L 246.763986 331.712104 
L 247.03638 296.879842 
L 247.308775 299.987864 
L 247.58117 341.960583 
L 247.853564 343.82784 
L 248.125959 344.593935 
L 248.398354 339.504124 
L 248.670748 343.094199 
L 248.943143 334.56545 
L 249.215538 332.695204 
L 249.487932 353.977271 
L 249.760327 323.348292 
L 250.032722 326.937365 
L 250.305116 353.559958 
L 250.577511 310.593491 
L 250.849906 348.758982 
L 251.1223 322.09502 
L 251.394695 325.507055 
L 251.66709 330.601325 
L 251.939484 327.868877 
L 252.211879 351.728472 
L 252.484274 315.015934 
L 252.756669 318.033325 
L 253.029063 343.843787 
L 253.301458 341.322391 
L 253.846247 363.805153 
L 254.118642 361.99598 
L 254.391037 367.620821 
L 254.663431 367.687247 
L 255.208221 365.462993 
L 255.480615 363.651786 
L 255.75301 365.827975 
L 256.025405 366.697191 
L 256.297799 365.907544 
L 256.570194 361.747084 
L 257.114983 363.240919 
L 257.387378 364.617502 
L 257.659773 367.994727 
L 257.932167 364.517565 
L 258.204562 363.403206 
L 258.476957 357.213146 
L 258.749351 357.775258 
L 259.294141 365.44172 
L 259.566535 366.31409 
L 259.83893 362.320731 
L 260.111325 363.079012 
L 260.656114 326.642602 
L 260.928509 327.123544 
L 261.200904 354.468535 
L 261.473298 354.294021 
L 261.745693 359.985376 
L 262.018088 360.657619 
L 262.290482 360.784466 
L 262.562877 352.899356 
L 262.835272 353.123045 
L 263.107666 361.112216 
L 263.380061 355.745139 
L 263.652456 355.972028 
L 263.92485 359.15698 
L 264.197245 359.978108 
L 264.742034 351.620709 
L 265.014429 352.558279 
L 265.286824 341.907617 
L 265.559218 343.000846 
L 266.104008 359.81545 
L 266.376402 361.333996 
L 266.648797 357.422153 
L 266.921192 359.18616 
L 267.193586 353.346608 
L 267.465981 341.837834 
L 267.738376 343.443082 
L 268.010771 354.315175 
L 268.283165 356.516286 
L 268.827955 353.229635 
L 269.100349 355.768548 
L 269.372744 345.245873 
L 269.917533 349.98366 
L 270.189928 337.590526 
L 270.462323 339.972803 
L 270.734717 343.599424 
L 271.007112 345.564337 
L 271.551901 322.149396 
L 271.824296 324.780526 
L 272.096691 305.03406 
L 272.369085 307.733073 
L 272.64148 357.779242 
L 272.913875 322.21617 
L 273.186269 320.164582 
L 273.458664 342.349906 
L 273.731059 339.700548 
L 274.003453 341.005318 
L 274.275848 340.713882 
L 274.548243 337.433871 
L 274.820637 343.361344 
L 275.093032 346.674025 
L 275.365427 340.811723 
L 275.637822 332.255971 
L 275.910216 335.494417 
L 276.182611 304.904742 
L 276.7274 310.445316 
L 276.999795 190.011543 
L 277.27219 187.451123 
L 277.544584 356.817224 
L 277.816979 356.925652 
L 278.089374 356.510679 
L 278.361768 359.017648 
L 278.634163 357.093683 
L 278.906558 345.364788 
L 280.268531 336.802487 
L 280.540926 335.649653 
L 281.085715 358.093275 
L 281.35811 358.096778 
L 281.630504 346.582677 
L 281.902899 329.930842 
L 282.175294 360.859833 
L 282.447688 342.47411 
L 282.720083 343.611134 
L 282.992478 339.285115 
L 283.264873 339.896021 
L 283.809662 310.266232 
L 284.082057 310.907346 
L 284.354451 362.441024 
L 284.626846 362.050638 
L 285.171635 332.46953 
L 285.44403 339.440974 
L 285.716425 320.378911 
L 285.988819 326.255807 
L 286.533609 348.8366 
L 286.806003 354.144445 
L 287.078398 347.647575 
L 287.350793 350.28935 
L 287.623187 347.964481 
L 287.895582 315.83765 
L 288.167977 312.633945 
L 288.440371 296.800815 
L 288.712766 273.810002 
L 288.985161 321.204757 
L 289.257555 346.534686 
L 289.52995 346.644389 
L 289.802345 339.785732 
L 290.074739 340.064159 
L 290.619529 365.058295 
L 290.891924 360.252231 
L 291.164318 361.473885 
L 291.709108 351.681593 
L 291.981502 356.290207 
L 292.253897 354.506044 
L 292.526292 336.410095 
L 292.798686 335.722721 
L 293.071081 335.365041 
L 293.61587 331.996547 
L 293.888265 319.043178 
L 294.433054 317.61213 
L 294.705449 218.419405 
L 294.977844 216.993268 
L 295.250238 183.909396 
L 295.522633 185.020612 
L 296.067422 343.245961 
L 296.339817 339.942388 
L 296.612212 364.047921 
L 296.884606 364.548043 
L 297.157001 358.691693 
L 297.429396 359.163148 
L 297.70179 360.75935 
L 297.974185 329.521162 
L 298.24658 328.82073 
L 298.518975 336.461387 
L 298.791369 338.103285 
L 299.063764 340.91106 
L 299.336159 334.986955 
L 299.608553 326.63816 
L 299.880948 326.518954 
L 300.153343 313.163802 
L 300.425737 316.931717 
L 300.698132 323.970821 
L 301.242921 320.76068 
L 301.515316 290.065767 
L 301.787711 292.602607 
L 302.060105 350.097489 
L 302.3325 353.494642 
L 302.604895 350.635021 
L 302.877289 344.440902 
L 303.149684 347.487563 
L 303.422079 279.170447 
L 303.694473 282.272696 
L 303.966868 343.445804 
L 304.239263 238.037721 
L 304.511657 235.704322 
L 304.784052 350.084691 
L 305.056447 347.912427 
L 305.328841 353.919293 
L 305.601236 355.930582 
L 305.873631 355.418271 
L 306.146025 352.96435 
L 306.41842 352.111046 
L 306.690815 353.780713 
L 306.96321 354.443856 
L 307.235604 353.032005 
L 307.507999 358.530113 
L 307.780394 358.171979 
L 308.052788 363.812885 
L 308.325183 366.840209 
L 308.597578 366.884495 
L 308.869972 361.787423 
L 309.414762 359.952963 
L 309.687156 350.382672 
L 309.959551 350.613047 
L 310.231946 353.274044 
L 310.50434 352.993448 
L 310.776735 356.074077 
L 311.04913 334.324537 
L 311.321524 335.106646 
L 311.593919 319.107961 
L 311.866314 319.896903 
L 312.138708 326.940696 
L 312.411103 324.306895 
L 312.683498 324.72692 
L 312.955892 335.645611 
L 313.228287 335.556575 
L 313.500682 319.038167 
L 313.773076 292.276448 
L 314.045471 292.199181 
L 314.317866 252.262429 
L 314.590261 70.689273 
L 315.13505 352.287127 
L 315.407445 352.754387 
L 315.679839 353.994979 
L 315.952234 354.368746 
L 316.224629 351.72436 
L 316.497023 342.963036 
L 316.769418 343.806131 
L 317.041813 341.465409 
L 317.586602 342.903981 
L 317.858997 344.582603 
L 318.131391 344.581355 
L 318.403786 359.296894 
L 318.676181 355.41791 
L 319.22097 353.579461 
L 319.765759 343.04922 
L 320.038154 348.233526 
L 320.310549 330.834189 
L 320.582943 353.580187 
L 320.855338 360.682835 
L 321.127733 357.712121 
L 321.400127 353.13112 
L 321.672522 359.767978 
L 321.944917 354.064793 
L 322.217312 335.692128 
L 322.489706 335.960102 
L 322.762101 317.894695 
L 323.034496 323.606413 
L 323.30689 339.349516 
L 323.579285 292.120476 
L 323.85168 284.627037 
L 324.124074 346.860357 
L 324.396469 347.424707 
L 324.941258 332.111276 
L 325.213653 334.032521 
L 325.486048 354.87685 
L 325.758442 360.887948 
L 326.030837 360.650616 
L 327.120416 348.5113 
L 327.39281 358.190101 
L 327.665205 324.8217 
L 327.9376 313.777131 
L 328.209994 344.204363 
L 328.482389 336.587974 
L 328.754784 358.465151 
L 329.027178 355.612255 
L 329.299573 360.94957 
L 329.571968 305.436909 
L 329.844363 298.73744 
L 330.116757 335.810189 
L 330.389152 233.166655 
L 330.661547 239.334841 
L 331.206336 352.815244 
L 331.751125 362.169404 
L 332.02352 354.329969 
L 332.295915 352.538735 
L 332.568309 355.340122 
L 333.113099 339.513915 
L 333.385493 337.44407 
L 333.657888 329.792191 
L 333.930283 328.758368 
L 334.475072 315.06264 
L 334.747467 314.59192 
L 335.019861 341.555895 
L 335.292256 343.035221 
L 335.564651 361.439299 
L 335.837045 338.400398 
L 336.10944 338.384718 
L 336.381835 333.602018 
L 336.654229 334.136464 
L 337.199019 281.794405 
L 337.471414 282.921589 
L 337.743808 241.052373 
L 338.016203 240.304808 
L 338.560992 330.537509 
L 339.105782 327.661995 
L 339.378176 324.601348 
L 339.922966 354.057018 
L 340.19536 351.193357 
L 340.74015 361.940538 
L 341.284939 350.260631 
L 341.557334 354.377978 
L 341.829728 338.622104 
L 342.102123 343.970718 
L 342.646912 283.717859 
L 342.919307 287.661153 
L 343.191702 321.845054 
L 343.464096 319.880348 
L 343.736491 345.26816 
L 344.008886 360.118508 
L 344.28128 358.774988 
L 344.553675 339.462393 
L 344.82607 340.102965 
L 345.098465 345.701834 
L 345.370859 341.259144 
L 345.643254 343.126277 
L 345.915649 331.623142 
L 346.188043 328.503094 
L 346.460438 327.065251 
L 346.732833 285.002185 
L 347.005227 285.036772 
L 347.277622 270.397763 
L 347.550017 268.775786 
L 348.094806 348.179409 
L 348.367201 354.055771 
L 348.639595 339.687489 
L 348.91199 338.53357 
L 349.184385 346.9578 
L 349.456779 296.212136 
L 349.729174 298.680691 
L 350.001569 292.568108 
L 350.273963 289.562652 
L 350.818753 301.431668 
L 351.091147 298.28871 
L 351.363542 292.586383 
L 351.635937 289.494019 
L 352.180726 355.342846 
L 352.453121 352.590151 
L 352.725516 331.667328 
L 352.99791 329.186901 
L 353.270305 348.947852 
L 353.5427 347.795502 
L 353.815094 345.404514 
L 354.087489 315.228842 
L 354.359884 316.896604 
L 354.632278 321.580993 
L 354.904673 322.760096 
L 355.177068 322.37807 
L 355.449462 222.326707 
L 355.721857 222.727505 
L 355.994252 305.133358 
L 356.266646 322.482215 
L 356.539041 320.262739 
L 356.811436 258.129318 
L 357.08383 257.458391 
L 357.356225 319.915357 
L 357.62862 290.227355 
L 357.901014 288.689018 
L 358.173409 349.340263 
L 358.445804 341.97441 
L 358.718198 328.361311 
L 358.990593 299.028184 
L 359.262988 295.379189 
L 359.535382 337.698219 
L 359.807777 333.487825 
L 360.080172 366.355894 
L 360.352567 332.814478 
L 360.624961 336.211065 
L 360.897356 308.852965 
L 361.169751 312.390465 
L 361.442145 338.984334 
L 361.71454 336.173519 
L 361.986935 339.40156 
L 362.259329 293.362279 
L 362.531724 298.010991 
L 362.804119 342.521662 
L 363.076513 273.765109 
L 363.893697 260.472003 
L 364.438487 353.368386 
L 364.710881 352.682609 
L 364.983276 232.75591 
L 365.255671 231.988744 
L 365.528065 260.302955 
L 365.80046 162.950224 
L 366.072855 166.337386 
L 366.345249 146.18225 
L 366.617644 147.250941 
L 367.162433 216.41325 
L 367.434828 217.405735 
L 367.707223 277.154341 
L 367.979618 276.651138 
L 368.252012 238.297583 
L 368.524407 180.847268 
L 368.796802 179.483316 
L 369.069196 203.693505 
L 369.341591 202.207087 
L 369.88638 340.895192 
L 370.158775 340.601989 
L 370.43117 311.361796 
L 370.703564 310.505008 
L 370.975959 354.36531 
L 371.248354 294.847374 
L 371.520748 295.683383 
L 371.793143 216.928635 
L 372.065538 217.361741 
L 372.610327 292.607017 
L 372.882722 292.529886 
L 373.155116 325.940786 
L 373.427511 326.996138 
L 373.9723 277.740861 
L 374.244695 278.854385 
L 374.51709 281.308081 
L 374.789484 282.500844 
L 375.061879 316.239236 
L 375.606669 317.152913 
L 375.879063 357.469054 
L 376.151458 357.00632 
L 376.423853 352.681856 
L 376.696247 346.129409 
L 377.241037 346.818704 
L 377.513431 354.537224 
L 377.785826 349.346065 
L 378.058221 333.438641 
L 378.330615 309.964393 
L 378.60301 327.033283 
L 378.875405 302.862015 
L 379.147799 299.496918 
L 379.420194 239.738255 
L 379.692589 239.884836 
L 379.964983 222.209716 
L 380.237378 221.554063 
L 380.782167 330.700888 
L 381.054562 330.334387 
L 381.326957 305.387944 
L 381.599351 305.271311 
L 382.144141 352.743431 
L 382.416535 352.44966 
L 382.68893 357.155595 
L 382.961325 357.003995 
L 383.23372 367.906789 
L 383.506114 358.427383 
L 383.778509 358.553729 
L 384.050904 348.124947 
L 384.323298 348.101252 
L 384.868088 323.745513 
L 385.140482 323.741506 
L 385.412877 364.904704 
L 385.685272 365.19024 
L 386.230061 352.430299 
L 386.502456 352.490318 
L 386.77485 359.016003 
L 387.047245 359.206905 
L 387.31964 352.291688 
L 387.592034 342.024907 
L 387.864429 341.950545 
L 388.136824 356.619941 
L 388.409218 356.715138 
L 388.954008 360.722952 
L 389.226402 360.815701 
L 389.498797 315.045684 
L 389.771192 315.000993 
L 390.043586 317.948493 
L 390.315981 318.044535 
L 390.588376 318.022314 
L 390.860771 337.645478 
L 391.677955 337.647992 
L 392.222744 248.419345 
L 392.767533 309.68765 
L 393.312323 330.902258 
L 393.584717 353.263617 
L 393.857112 361.659778 
L 394.129507 359.876665 
L 394.401901 344.507406 
L 394.674296 344.455576 
L 394.946691 360.304334 
L 395.219085 360.295977 
L 395.763875 364.744813 
L 396.036269 364.76052 
L 396.308664 363.475331 
L 396.581059 363.49734 
L 397.125848 352.850859 
L 397.398243 352.820626 
L 397.670637 362.7971 
L 397.943032 362.768413 
L 398.215427 367.023157 
L 398.487822 364.161889 
L 398.760216 364.107796 
L 399.032611 353.676193 
L 399.305006 353.761743 
L 399.849795 306.847978 
L 400.12219 306.840449 
L 400.394584 279.220334 
L 400.666979 279.251109 
L 400.939374 346.477239 
L 401.211768 258.654008 
L 401.484163 258.713672 
L 401.756558 308.085355 
L 402.028952 308.315169 
L 402.301347 341.238401 
L 402.573742 349.21559 
L 402.846136 343.100442 
L 402.846136 343.100442 
" style="fill:none;stroke:#808080;stroke-linecap:round;stroke-width:1.5;"/>
   </g>
   <g id="line2d_16">
    <path clip-path="url(#p7acbfd9eb3)" d="M 62.775 324.89414 
L 419.04 324.89414 
" style="fill:none;stroke:#4c72b0;stroke-linecap:round;stroke-width:2;"/>
   </g>
   <g id="line2d_17">
    <path clip-path="url(#p7acbfd9eb3)" d="M 62.775 350.927286 
L 419.04 350.927286 
" style="fill:none;stroke:#55a868;stroke-linecap:round;stroke-width:2;"/>
   </g>
   <g id="line2d_18">
    <path clip-path="url(#p7acbfd9eb3)" d="M 62.775 339.582754 
L 419.04 339.582754 
" style="fill:none;stroke:#c44e52;stroke-linecap:round;stroke-width:2;"/>
   </g>
   <g id="patch_4">
    <path d="M 62.775 382.86 
L 62.775 55.824 
" style="fill:none;stroke:#ffffff;stroke-linecap:square;stroke-linejoin:miter;stroke-width:1.25;"/>
   </g>
   <g id="patch_5">
    <path d="M 419.04 382.86 
L 419.04 55.824 
" style="fill:none;stroke:#ffffff;stroke-linecap:square;stroke-linejoin:miter;stroke-width:1.25;"/>
   </g>
   <g id="patch_6">
    <path d="M 62.775 382.86 
L 419.04 382.86 
" style="fill:none;stroke:#ffffff;stroke-linecap:square;stroke-linejoin:miter;stroke-width:1.25;"/>
   </g>
   <g id="patch_7">
    <path d="M 62.775 55.824 
L 419.04 55.824 
" style="fill:none;stroke:#ffffff;stroke-linecap:square;stroke-linejoin:miter;stroke-width:1.25;"/>
   </g>
   <g id="text_17">
    <!-- RPE w.r.t. translation part (m) -->
    <g style="fill:#262626;" transform="translate(152.259375 22.94925)scale(0.12 -0.12)">
     <defs>
      <path d="M 4.203125 54.6875 
L 13.1875 54.6875 
L 24.421875 12.015625 
L 35.59375 54.6875 
L 46.1875 54.6875 
L 57.421875 12.015625 
L 68.609375 54.6875 
L 77.59375 54.6875 
L 63.28125 0 
L 52.6875 0 
L 40.921875 44.828125 
L 29.109375 0 
L 18.5 0 
z
" id="DejaVuSans-119"/>
      <path d="M 41.109375 46.296875 
Q 39.59375 47.171875 37.8125 47.578125 
Q 36.03125 48 33.890625 48 
Q 26.265625 48 22.1875 43.046875 
Q 18.109375 38.09375 18.109375 28.8125 
L 18.109375 0 
L 9.078125 0 
L 9.078125 54.6875 
L 18.109375 54.6875 
L 18.109375 46.1875 
Q 20.953125 51.171875 25.484375 53.578125 
Q 30.03125 56 36.53125 56 
Q 37.453125 56 38.578125 55.875 
Q 39.703125 55.765625 41.0625 55.515625 
z
" id="DejaVuSans-114"/>
      <path d="M 18.3125 70.21875 
L 18.3125 54.6875 
L 36.8125 54.6875 
L 36.8125 47.703125 
L 18.3125 47.703125 
L 18.3125 18.015625 
Q 18.3125 11.328125 20.140625 9.421875 
Q 21.96875 7.515625 27.59375 7.515625 
L 36.8125 7.515625 
L 36.8125 0 
L 27.59375 0 
Q 17.1875 0 13.234375 3.875 
Q 9.28125 7.765625 9.28125 18.015625 
L 9.28125 47.703125 
L 2.6875 47.703125 
L 2.6875 54.6875 
L 9.28125 54.6875 
L 9.28125 70.21875 
z
" id="DejaVuSans-116"/>
      <path d="M 34.28125 27.484375 
Q 23.390625 27.484375 19.1875 25 
Q 14.984375 22.515625 14.984375 16.5 
Q 14.984375 11.71875 18.140625 8.90625 
Q 21.296875 6.109375 26.703125 6.109375 
Q 34.1875 6.109375 38.703125 11.40625 
Q 43.21875 16.703125 43.21875 25.484375 
L 43.21875 27.484375 
z
M 52.203125 31.203125 
L 52.203125 0 
L 43.21875 0 
L 43.21875 8.296875 
Q 40.140625 3.328125 35.546875 0.953125 
Q 30.953125 -1.421875 24.3125 -1.421875 
Q 15.921875 -1.421875 10.953125 3.296875 
Q 6 8.015625 6 15.921875 
Q 6 25.140625 12.171875 29.828125 
Q 18.359375 34.515625 30.609375 34.515625 
L 43.21875 34.515625 
L 43.21875 35.40625 
Q 43.21875 41.609375 39.140625 45 
Q 35.0625 48.390625 27.6875 48.390625 
Q 23 48.390625 18.546875 47.265625 
Q 14.109375 46.140625 10.015625 43.890625 
L 10.015625 52.203125 
Q 14.9375 54.109375 19.578125 55.046875 
Q 24.21875 56 28.609375 56 
Q 40.484375 56 46.34375 49.84375 
Q 52.203125 43.703125 52.203125 31.203125 
z
" id="DejaVuSans-97"/>
      <path d="M 54.890625 33.015625 
L 54.890625 0 
L 45.90625 0 
L 45.90625 32.71875 
Q 45.90625 40.484375 42.875 44.328125 
Q 39.84375 48.1875 33.796875 48.1875 
Q 26.515625 48.1875 22.3125 43.546875 
Q 18.109375 38.921875 18.109375 30.90625 
L 18.109375 0 
L 9.078125 0 
L 9.078125 54.6875 
L 18.109375 54.6875 
L 18.109375 46.1875 
Q 21.34375 51.125 25.703125 53.5625 
Q 30.078125 56 35.796875 56 
Q 45.21875 56 50.046875 50.171875 
Q 54.890625 44.34375 54.890625 33.015625 
z
" id="DejaVuSans-110"/>
      <path d="M 9.421875 75.984375 
L 18.40625 75.984375 
L 18.40625 0 
L 9.421875 0 
z
" id="DejaVuSans-108"/>
      <path d="M 9.421875 54.6875 
L 18.40625 54.6875 
L 18.40625 0 
L 9.421875 0 
z
M 9.421875 75.984375 
L 18.40625 75.984375 
L 18.40625 64.59375 
L 9.421875 64.59375 
z
" id="DejaVuSans-105"/>
      <path d="M 30.609375 48.390625 
Q 23.390625 48.390625 19.1875 42.75 
Q 14.984375 37.109375 14.984375 27.296875 
Q 14.984375 17.484375 19.15625 11.84375 
Q 23.34375 6.203125 30.609375 6.203125 
Q 37.796875 6.203125 41.984375 11.859375 
Q 46.1875 17.53125 46.1875 27.296875 
Q 46.1875 37.015625 41.984375 42.703125 
Q 37.796875 48.390625 30.609375 48.390625 
z
M 30.609375 56 
Q 42.328125 56 49.015625 48.375 
Q 55.71875 40.765625 55.71875 27.296875 
Q 55.71875 13.875 49.015625 6.21875 
Q 42.328125 -1.421875 30.609375 -1.421875 
Q 18.84375 -1.421875 12.171875 6.21875 
Q 5.515625 13.875 5.515625 27.296875 
Q 5.515625 40.765625 12.171875 48.375 
Q 18.84375 56 30.609375 56 
z
" id="DejaVuSans-111"/>
      <path d="M 18.109375 8.203125 
L 18.109375 -20.796875 
L 9.078125 -20.796875 
L 9.078125 54.6875 
L 18.109375 54.6875 
L 18.109375 46.390625 
Q 20.953125 51.265625 25.265625 53.625 
Q 29.59375 56 35.59375 56 
Q 45.5625 56 51.78125 48.09375 
Q 58.015625 40.1875 58.015625 27.296875 
Q 58.015625 14.40625 51.78125 6.484375 
Q 45.5625 -1.421875 35.59375 -1.421875 
Q 29.59375 -1.421875 25.265625 0.953125 
Q 20.953125 3.328125 18.109375 8.203125 
z
M 48.6875 27.296875 
Q 48.6875 37.203125 44.609375 42.84375 
Q 40.53125 48.484375 33.40625 48.484375 
Q 26.265625 48.484375 22.1875 42.84375 
Q 18.109375 37.203125 18.109375 27.296875 
Q 18.109375 17.390625 22.1875 11.75 
Q 26.265625 6.109375 33.40625 6.109375 
Q 40.53125 6.109375 44.609375 11.75 
Q 48.6875 17.390625 48.6875 27.296875 
z
" id="DejaVuSans-112"/>
     </defs>
     <use xlink:href="#DejaVuSans-82"/>
     <use x="69.482422" xlink:href="#DejaVuSans-80"/>
     <use x="129.785156" xlink:href="#DejaVuSans-69"/>
     <use x="192.96875" xlink:href="#DejaVuSans-32"/>
     <use x="224.755859" xlink:href="#DejaVuSans-119"/>
     <use x="297.417969" xlink:href="#DejaVuSans-46"/>
     <use x="329.205078" xlink:href="#DejaVuSans-114"/>
     <use x="361.193359" xlink:href="#DejaVuSans-46"/>
     <use x="392.980469" xlink:href="#DejaVuSans-116"/>
     <use x="432.189453" xlink:href="#DejaVuSans-46"/>
     <use x="463.976562" xlink:href="#DejaVuSans-32"/>
     <use x="495.763672" xlink:href="#DejaVuSans-116"/>
     <use x="534.972656" xlink:href="#DejaVuSans-114"/>
     <use x="576.085938" xlink:href="#DejaVuSans-97"/>
     <use x="637.365234" xlink:href="#DejaVuSans-110"/>
     <use x="700.744141" xlink:href="#DejaVuSans-115"/>
     <use x="752.84375" xlink:href="#DejaVuSans-108"/>
     <use x="780.626953" xlink:href="#DejaVuSans-97"/>
     <use x="841.90625" xlink:href="#DejaVuSans-116"/>
     <use x="881.115234" xlink:href="#DejaVuSans-105"/>
     <use x="908.898438" xlink:href="#DejaVuSans-111"/>
     <use x="970.080078" xlink:href="#DejaVuSans-110"/>
     <use x="1033.458984" xlink:href="#DejaVuSans-32"/>
     <use x="1065.246094" xlink:href="#DejaVuSans-112"/>
     <use x="1128.722656" xlink:href="#DejaVuSans-97"/>
     <use x="1190.001953" xlink:href="#DejaVuSans-114"/>
     <use x="1231.115234" xlink:href="#DejaVuSans-116"/>
     <use x="1270.324219" xlink:href="#DejaVuSans-32"/>
     <use x="1302.111328" xlink:href="#DejaVuSans-40"/>
     <use x="1341.125" xlink:href="#DejaVuSans-109"/>
     <use x="1438.537109" xlink:href="#DejaVuSans-41"/>
    </g>
    <!-- for delta = 1 (frames) using consecutive pairs -->
    <g style="fill:#262626;" transform="translate(102.762187 36.386625)scale(0.12 -0.12)">
     <defs>
      <path d="M 37.109375 75.984375 
L 37.109375 68.5 
L 28.515625 68.5 
Q 23.6875 68.5 21.796875 66.546875 
Q 19.921875 64.59375 19.921875 59.515625 
L 19.921875 54.6875 
L 34.71875 54.6875 
L 34.71875 47.703125 
L 19.921875 47.703125 
L 19.921875 0 
L 10.890625 0 
L 10.890625 47.703125 
L 2.296875 47.703125 
L 2.296875 54.6875 
L 10.890625 54.6875 
L 10.890625 58.5 
Q 10.890625 67.625 15.140625 71.796875 
Q 19.390625 75.984375 28.609375 75.984375 
z
" id="DejaVuSans-102"/>
      <path d="M 45.40625 46.390625 
L 45.40625 75.984375 
L 54.390625 75.984375 
L 54.390625 0 
L 45.40625 0 
L 45.40625 8.203125 
Q 42.578125 3.328125 38.25 0.953125 
Q 33.9375 -1.421875 27.875 -1.421875 
Q 17.96875 -1.421875 11.734375 6.484375 
Q 5.515625 14.40625 5.515625 27.296875 
Q 5.515625 40.1875 11.734375 48.09375 
Q 17.96875 56 27.875 56 
Q 33.9375 56 38.25 53.625 
Q 42.578125 51.265625 45.40625 46.390625 
z
M 14.796875 27.296875 
Q 14.796875 17.390625 18.875 11.75 
Q 22.953125 6.109375 30.078125 6.109375 
Q 37.203125 6.109375 41.296875 11.75 
Q 45.40625 17.390625 45.40625 27.296875 
Q 45.40625 37.203125 41.296875 42.84375 
Q 37.203125 48.484375 30.078125 48.484375 
Q 22.953125 48.484375 18.875 42.84375 
Q 14.796875 37.203125 14.796875 27.296875 
z
" id="DejaVuSans-100"/>
      <path d="M 56.203125 29.59375 
L 56.203125 25.203125 
L 14.890625 25.203125 
Q 15.484375 15.921875 20.484375 11.0625 
Q 25.484375 6.203125 34.421875 6.203125 
Q 39.59375 6.203125 44.453125 7.46875 
Q 49.3125 8.734375 54.109375 11.28125 
L 54.109375 2.78125 
Q 49.265625 0.734375 44.1875 -0.34375 
Q 39.109375 -1.421875 33.890625 -1.421875 
Q 20.796875 -1.421875 13.15625 6.1875 
Q 5.515625 13.8125 5.515625 26.8125 
Q 5.515625 40.234375 12.765625 48.109375 
Q 20.015625 56 32.328125 56 
Q 43.359375 56 49.78125 48.890625 
Q 56.203125 41.796875 56.203125 29.59375 
z
M 47.21875 32.234375 
Q 47.125 39.59375 43.09375 43.984375 
Q 39.0625 48.390625 32.421875 48.390625 
Q 24.90625 48.390625 20.390625 44.140625 
Q 15.875 39.890625 15.1875 32.171875 
z
" id="DejaVuSans-101"/>
      <path d="M 10.59375 45.40625 
L 73.1875 45.40625 
L 73.1875 37.203125 
L 10.59375 37.203125 
z
M 10.59375 25.484375 
L 73.1875 25.484375 
L 73.1875 17.1875 
L 10.59375 17.1875 
z
" id="DejaVuSans-61"/>
      <path d="M 8.5 21.578125 
L 8.5 54.6875 
L 17.484375 54.6875 
L 17.484375 21.921875 
Q 17.484375 14.15625 20.5 10.265625 
Q 23.53125 6.390625 29.59375 6.390625 
Q 36.859375 6.390625 41.078125 11.03125 
Q 45.3125 15.671875 45.3125 23.6875 
L 45.3125 54.6875 
L 54.296875 54.6875 
L 54.296875 0 
L 45.3125 0 
L 45.3125 8.40625 
Q 42.046875 3.421875 37.71875 1 
Q 33.40625 -1.421875 27.6875 -1.421875 
Q 18.265625 -1.421875 13.375 4.4375 
Q 8.5 10.296875 8.5 21.578125 
z
M 31.109375 56 
z
" id="DejaVuSans-117"/>
      <path d="M 45.40625 27.984375 
Q 45.40625 37.75 41.375 43.109375 
Q 37.359375 48.484375 30.078125 48.484375 
Q 22.859375 48.484375 18.828125 43.109375 
Q 14.796875 37.75 14.796875 27.984375 
Q 14.796875 18.265625 18.828125 12.890625 
Q 22.859375 7.515625 30.078125 7.515625 
Q 37.359375 7.515625 41.375 12.890625 
Q 45.40625 18.265625 45.40625 27.984375 
z
M 54.390625 6.78125 
Q 54.390625 -7.171875 48.1875 -13.984375 
Q 42 -20.796875 29.203125 -20.796875 
Q 24.46875 -20.796875 20.265625 -20.09375 
Q 16.0625 -19.390625 12.109375 -17.921875 
L 12.109375 -9.1875 
Q 16.0625 -11.328125 19.921875 -12.34375 
Q 23.78125 -13.375 27.78125 -13.375 
Q 36.625 -13.375 41.015625 -8.765625 
Q 45.40625 -4.15625 45.40625 5.171875 
L 45.40625 9.625 
Q 42.625 4.78125 38.28125 2.390625 
Q 33.9375 0 27.875 0 
Q 17.828125 0 11.671875 7.65625 
Q 5.515625 15.328125 5.515625 27.984375 
Q 5.515625 40.671875 11.671875 48.328125 
Q 17.828125 56 27.875 56 
Q 33.9375 56 38.28125 53.609375 
Q 42.625 51.21875 45.40625 46.390625 
L 45.40625 54.6875 
L 54.390625 54.6875 
z
" id="DejaVuSans-103"/>
      <path d="M 48.78125 52.59375 
L 48.78125 44.1875 
Q 44.96875 46.296875 41.140625 47.34375 
Q 37.3125 48.390625 33.40625 48.390625 
Q 24.65625 48.390625 19.8125 42.84375 
Q 14.984375 37.3125 14.984375 27.296875 
Q 14.984375 17.28125 19.8125 11.734375 
Q 24.65625 6.203125 33.40625 6.203125 
Q 37.3125 6.203125 41.140625 7.25 
Q 44.96875 8.296875 48.78125 10.40625 
L 48.78125 2.09375 
Q 45.015625 0.34375 40.984375 -0.53125 
Q 36.96875 -1.421875 32.421875 -1.421875 
Q 20.0625 -1.421875 12.78125 6.34375 
Q 5.515625 14.109375 5.515625 27.296875 
Q 5.515625 40.671875 12.859375 48.328125 
Q 20.21875 56 33.015625 56 
Q 37.15625 56 41.109375 55.140625 
Q 45.0625 54.296875 48.78125 52.59375 
z
" id="DejaVuSans-99"/>
      <path d="M 2.984375 54.6875 
L 12.5 54.6875 
L 29.59375 8.796875 
L 46.6875 54.6875 
L 56.203125 54.6875 
L 35.6875 0 
L 23.484375 0 
z
" id="DejaVuSans-118"/>
     </defs>
     <use xlink:href="#DejaVuSans-102"/>
     <use x="35.205078" xlink:href="#DejaVuSans-111"/>
     <use x="96.386719" xlink:href="#DejaVuSans-114"/>
     <use x="137.5" xlink:href="#DejaVuSans-32"/>
     <use x="169.287109" xlink:href="#DejaVuSans-100"/>
     <use x="232.763672" xlink:href="#DejaVuSans-101"/>
     <use x="294.287109" xlink:href="#DejaVuSans-108"/>
     <use x="322.070312" xlink:href="#DejaVuSans-116"/>
     <use x="361.279297" xlink:href="#DejaVuSans-97"/>
     <use x="422.558594" xlink:href="#DejaVuSans-32"/>
     <use x="454.345703" xlink:href="#DejaVuSans-61"/>
     <use x="538.134766" xlink:href="#DejaVuSans-32"/>
     <use x="569.921875" xlink:href="#DejaVuSans-49"/>
     <use x="633.544922" xlink:href="#DejaVuSans-32"/>
     <use x="665.332031" xlink:href="#DejaVuSans-40"/>
     <use x="704.345703" xlink:href="#DejaVuSans-102"/>
     <use x="739.550781" xlink:href="#DejaVuSans-114"/>
     <use x="780.664062" xlink:href="#DejaVuSans-97"/>
     <use x="841.943359" xlink:href="#DejaVuSans-109"/>
     <use x="939.355469" xlink:href="#DejaVuSans-101"/>
     <use x="1000.878906" xlink:href="#DejaVuSans-115"/>
     <use x="1052.978516" xlink:href="#DejaVuSans-41"/>
     <use x="1091.992188" xlink:href="#DejaVuSans-32"/>
     <use x="1123.779297" xlink:href="#DejaVuSans-117"/>
     <use x="1187.158203" xlink:href="#DejaVuSans-115"/>
     <use x="1239.257812" xlink:href="#DejaVuSans-105"/>
     <use x="1267.041016" xlink:href="#DejaVuSans-110"/>
     <use x="1330.419922" xlink:href="#DejaVuSans-103"/>
     <use x="1393.896484" xlink:href="#DejaVuSans-32"/>
     <use x="1425.683594" xlink:href="#DejaVuSans-99"/>
     <use x="1480.664062" xlink:href="#DejaVuSans-111"/>
     <use x="1541.845703" xlink:href="#DejaVuSans-110"/>
     <use x="1605.224609" xlink:href="#DejaVuSans-115"/>
     <use x="1657.324219" xlink:href="#DejaVuSans-101"/>
     <use x="1718.847656" xlink:href="#DejaVuSans-99"/>
     <use x="1773.828125" xlink:href="#DejaVuSans-117"/>
     <use x="1837.207031" xlink:href="#DejaVuSans-116"/>
     <use x="1876.416016" xlink:href="#DejaVuSans-105"/>
     <use x="1904.199219" xlink:href="#DejaVuSans-118"/>
     <use x="1963.378906" xlink:href="#DejaVuSans-101"/>
     <use x="2024.902344" xlink:href="#DejaVuSans-32"/>
     <use x="2056.689453" xlink:href="#DejaVuSans-112"/>
     <use x="2120.166016" xlink:href="#DejaVuSans-97"/>
     <use x="2181.445312" xlink:href="#DejaVuSans-105"/>
     <use x="2209.228516" xlink:href="#DejaVuSans-114"/>
     <use x="2250.341797" xlink:href="#DejaVuSans-115"/>
    </g>
    <!-- (with origin alignment) -->
    <g style="fill:#262626;" transform="translate(172.287187 49.824)scale(0.12 -0.12)">
     <defs>
      <path d="M 54.890625 33.015625 
L 54.890625 0 
L 45.90625 0 
L 45.90625 32.71875 
Q 45.90625 40.484375 42.875 44.328125 
Q 39.84375 48.1875 33.796875 48.1875 
Q 26.515625 48.1875 22.3125 43.546875 
Q 18.109375 38.921875 18.109375 30.90625 
L 18.109375 0 
L 9.078125 0 
L 9.078125 75.984375 
L 18.109375 75.984375 
L 18.109375 46.1875 
Q 21.34375 51.125 25.703125 53.5625 
Q 30.078125 56 35.796875 56 
Q 45.21875 56 50.046875 50.171875 
Q 54.890625 44.34375 54.890625 33.015625 
z
" id="DejaVuSans-104"/>
     </defs>
     <use xlink:href="#DejaVuSans-40"/>
     <use x="39.013672" xlink:href="#DejaVuSans-119"/>
     <use x="120.800781" xlink:href="#DejaVuSans-105"/>
     <use x="148.583984" xlink:href="#DejaVuSans-116"/>
     <use x="187.792969" xlink:href="#DejaVuSans-104"/>
     <use x="251.171875" xlink:href="#DejaVuSans-32"/>
     <use x="282.958984" xlink:href="#DejaVuSans-111"/>
     <use x="344.140625" xlink:href="#DejaVuSans-114"/>
     <use x="385.253906" xlink:href="#DejaVuSans-105"/>
     <use x="413.037109" xlink:href="#DejaVuSans-103"/>
     <use x="476.513672" xlink:href="#DejaVuSans-105"/>
     <use x="504.296875" xlink:href="#DejaVuSans-110"/>
     <use x="567.675781" xlink:href="#DejaVuSans-32"/>
     <use x="599.462891" xlink:href="#DejaVuSans-97"/>
     <use x="660.742188" xlink:href="#DejaVuSans-108"/>
     <use x="688.525391" xlink:href="#DejaVuSans-105"/>
     <use x="716.308594" xlink:href="#DejaVuSans-103"/>
     <use x="779.785156" xlink:href="#DejaVuSans-110"/>
     <use x="843.164062" xlink:href="#DejaVuSans-109"/>
     <use x="940.576172" xlink:href="#DejaVuSans-101"/>
     <use x="1002.099609" xlink:href="#DejaVuSans-110"/>
     <use x="1065.478516" xlink:href="#DejaVuSans-116"/>
     <use x="1104.6875" xlink:href="#DejaVuSans-41"/>
    </g>
   </g>
   <g id="legend_1">
    <g id="patch_8">
     <path d="M 332.119375 145.353688 
L 411.34 145.353688 
Q 413.54 145.353688 413.54 143.153688 
L 413.54 63.524 
Q 413.54 61.324 411.34 61.324 
L 332.119375 61.324 
Q 329.919375 61.324 329.919375 63.524 
L 329.919375 143.153688 
Q 329.919375 145.353688 332.119375 145.353688 
z
" style="fill:#eaeaf2;opacity:0.8;stroke:#cccccc;stroke-linejoin:miter;"/>
    </g>
    <g id="line2d_19">
     <path d="M 334.319375 70.232281 
L 356.319375 70.232281 
" style="fill:none;stroke:#808080;stroke-linecap:round;stroke-width:1.5;"/>
    </g>
    <g id="line2d_20"/>
    <g id="text_18">
     <!-- RPE (m) -->
     <g style="fill:#262626;" transform="translate(365.119375 74.082281)scale(0.11 -0.11)">
      <use xlink:href="#DejaVuSans-82"/>
      <use x="69.482422" xlink:href="#DejaVuSans-80"/>
      <use x="129.785156" xlink:href="#DejaVuSans-69"/>
      <use x="192.96875" xlink:href="#DejaVuSans-32"/>
      <use x="224.755859" xlink:href="#DejaVuSans-40"/>
      <use x="263.769531" xlink:href="#DejaVuSans-109"/>
      <use x="361.181641" xlink:href="#DejaVuSans-41"/>
     </g>
    </g>
    <g id="line2d_21">
     <path d="M 334.319375 86.378219 
L 356.319375 86.378219 
" style="fill:none;stroke:#4c72b0;stroke-linecap:round;stroke-width:2;"/>
    </g>
    <g id="line2d_22"/>
    <g id="text_19">
     <!-- rmse -->
     <g style="fill:#262626;" transform="translate(365.119375 90.228219)scale(0.11 -0.11)">
      <use xlink:href="#DejaVuSans-114"/>
      <use x="39.363281" xlink:href="#DejaVuSans-109"/>
      <use x="136.775391" xlink:href="#DejaVuSans-115"/>
      <use x="188.875" xlink:href="#DejaVuSans-101"/>
     </g>
    </g>
    <g id="line2d_23">
     <path d="M 334.319375 102.524156 
L 356.319375 102.524156 
" style="fill:none;stroke:#55a868;stroke-linecap:round;stroke-width:2;"/>
    </g>
    <g id="line2d_24"/>
    <g id="text_20">
     <!-- median -->
     <g style="fill:#262626;" transform="translate(365.119375 106.374156)scale(0.11 -0.11)">
      <use xlink:href="#DejaVuSans-109"/>
      <use x="97.412109" xlink:href="#DejaVuSans-101"/>
      <use x="158.935547" xlink:href="#DejaVuSans-100"/>
      <use x="222.412109" xlink:href="#DejaVuSans-105"/>
      <use x="250.195312" xlink:href="#DejaVuSans-97"/>
      <use x="311.474609" xlink:href="#DejaVuSans-110"/>
     </g>
    </g>
    <g id="line2d_25">
     <path d="M 334.319375 118.670094 
L 356.319375 118.670094 
" style="fill:none;stroke:#c44e52;stroke-linecap:round;stroke-width:2;"/>
    </g>
    <g id="line2d_26"/>
    <g id="text_21">
     <!-- mean -->
     <g style="fill:#262626;" transform="translate(365.119375 122.520094)scale(0.11 -0.11)">
      <use xlink:href="#DejaVuSans-109"/>
      <use x="97.412109" xlink:href="#DejaVuSans-101"/>
      <use x="158.935547" xlink:href="#DejaVuSans-97"/>
      <use x="220.214844" xlink:href="#DejaVuSans-110"/>
     </g>
    </g>
    <g id="patch_9">
     <path d="M 334.319375 138.666031 
L 356.319375 138.666031 
L 356.319375 130.966031 
L 334.319375 130.966031 
z
" style="fill:#8172b3;opacity:0.5;stroke:#8172b3;stroke-linejoin:miter;"/>
    </g>
    <g id="text_22">
     <!-- std -->
     <g style="fill:#262626;" transform="translate(365.119375 138.666031)scale(0.11 -0.11)">
      <use xlink:href="#DejaVuSans-115"/>
      <use x="52.099609" xlink:href="#DejaVuSans-116"/>
      <use x="91.308594" xlink:href="#DejaVuSans-100"/>
     </g>
    </g>
   </g>
  </g>
 </g>
 <defs>
  <clipPath id="p7acbfd9eb3">
   <rect height="327.036" width="356.265" x="62.775" y="55.824"/>
  </clipPath>
 </defs>
</svg>
